<?xml version="1.0" encoding="utf-8" standalone="no"?>
<!DOCTYPE svg PUBLIC "-//W3C//DTD SVG 1.1//EN"
  "http://www.w3.org/Graphics/SVG/1.1/DTD/svg11.dtd">
<!-- Created with matplotlib (http://matplotlib.org/) -->
<svg height="288pt" version="1.1" viewBox="0 0 432 288" width="432pt" xmlns="http://www.w3.org/2000/svg" xmlns:xlink="http://www.w3.org/1999/xlink">
 <defs>
  <style type="text/css">
*{stroke-linecap:butt;stroke-linejoin:round;}
  </style>
 </defs>
 <g id="figure_1">
  <g id="patch_1">
   <path d="M 0 288 
L 432 288 
L 432 0 
L 0 0 
z
" style="fill:#ffffff;"/>
  </g>
  <g id="axes_1">
   <g id="patch_2">
    <path d="M 54 252 
L 388.8 252 
L 388.8 34.56 
L 54 34.56 
z
" style="fill:#ffffff;"/>
   </g>
   <g id="matplotlib.axis_1"/>
   <g id="matplotlib.axis_2"/>
   <g id="LineCollection_1">
    <path clip-path="url(#p38eb23d4ed)" d="M 134.660507 184.140501 
L 134.733565 184.314914 
L 134.760035 184.373324 
L 134.892395 184.606147 
L 134.966227 184.714171 
L 135.059178 184.838971 
L 135.198888 184.999649 
L 135.267813 185.071794 
L 135.43155 185.221813 
L 135.531835 185.304618 
L 135.664211 185.401888 
L 135.871395 185.537441 
L 135.896873 185.55247 
L 136.129534 185.672965 
L 136.347876 185.770264 
L 136.362196 185.77608 
L 136.594858 185.855403 
L 136.827519 185.91953 
L 137.060181 185.968516 
L 137.292842 186.002402 
L 137.301319 186.003088 
L 137.525504 186.019773 
L 137.758165 186.023235 
L 137.990827 186.012847 
L 138.084487 186.003088 
L 138.223489 185.987344 
L 138.45615 185.945912 
L 138.688812 185.889362 
L 138.921473 185.817645 
L 139.048318 185.770264 
L 139.154135 185.726898 
L 139.386796 185.614826 
L 139.526503 185.537441 
L 139.619458 185.480338 
L 139.85212 185.318718 
L 139.870316 185.304618 
L 140.084781 185.117852 
L 140.132685 185.071794 
L 140.317443 184.868839 
L 140.342293 184.838971 
L 140.508264 184.606147 
L 140.550104 184.53559 
L 140.638734 184.373324 
L 140.74007 184.140501 
L 140.782766 184.008699 
L 140.813112 183.907677 
L 140.858928 183.674854 
L 140.880487 183.442031 
L 140.877656 183.209207 
L 140.850273 182.976384 
L 140.798152 182.743561 
L 140.782766 182.697054 
L 140.716287 182.510737 
L 140.60607 182.277914 
L 140.550104 182.183194 
L 140.461506 182.04509 
L 140.317443 181.858085 
L 140.278827 181.812267 
L 140.084781 181.615208 
L 140.045904 181.579444 
L 139.85212 181.423743 
L 139.744995 181.34662 
L 139.619458 181.26644 
L 139.386796 181.135043 
L 139.343554 181.113797 
L 139.154135 181.030186 
L 138.921473 180.94284 
L 138.721713 180.880974 
L 138.688812 180.871725 
L 138.45615 180.820116 
L 138.223489 180.782305 
L 137.990827 180.758258 
L 137.758165 180.747957 
L 137.525504 180.75139 
L 137.292842 180.768562 
L 137.060181 180.799488 
L 136.827519 180.844193 
L 136.681257 180.880974 
L 136.594858 180.904908 
L 136.362196 180.984596 
L 136.129534 181.079619 
L 136.057471 181.113797 
L 135.896873 181.198586 
L 135.664211 181.338621 
L 135.65237 181.34662 
L 135.43155 181.514775 
L 135.355031 181.579444 
L 135.198888 181.730542 
L 135.122035 181.812267 
L 134.966227 182.005865 
L 134.93726 182.04509 
L 134.79402 182.277914 
L 134.733565 182.400594 
L 134.683401 182.510737 
L 134.603446 182.743561 
L 134.549379 182.976384 
L 134.520974 183.209207 
L 134.518037 183.442031 
L 134.540401 183.674854 
L 134.587928 183.907677 
L 134.660507 184.140501 
" style="fill:none;stroke:#440154;stroke-width:1.5;"/>
    <path clip-path="url(#p38eb23d4ed)" d="M 134.683401 104.049263 
L 134.733565 104.159406 
L 134.79402 104.282086 
L 134.93726 104.51491 
L 134.966227 104.554135 
L 135.122035 104.747733 
L 135.198888 104.829458 
L 135.355031 104.980556 
L 135.43155 105.045225 
L 135.65237 105.21338 
L 135.664211 105.221379 
L 135.896873 105.361414 
L 136.057471 105.446203 
L 136.129534 105.480381 
L 136.362196 105.575404 
L 136.594858 105.655092 
L 136.681257 105.679026 
L 136.827519 105.715807 
L 137.060181 105.760512 
L 137.292842 105.791438 
L 137.525504 105.80861 
L 137.758165 105.812043 
L 137.990827 105.801742 
L 138.223489 105.777695 
L 138.45615 105.739884 
L 138.688812 105.688275 
L 138.721713 105.679026 
L 138.921473 105.61716 
L 139.154135 105.529814 
L 139.343554 105.446203 
L 139.386796 105.424957 
L 139.619458 105.29356 
L 139.744995 105.21338 
L 139.85212 105.136257 
L 140.045904 104.980556 
L 140.084781 104.944792 
L 140.278827 104.747733 
L 140.317443 104.701915 
L 140.461506 104.51491 
L 140.550104 104.376806 
L 140.60607 104.282086 
L 140.716287 104.049263 
L 140.782766 103.862946 
L 140.798152 103.816439 
L 140.850273 103.583616 
L 140.877656 103.350793 
L 140.880487 103.117969 
L 140.858928 102.885146 
L 140.813112 102.652323 
L 140.782766 102.551301 
L 140.74007 102.419499 
L 140.638734 102.186676 
L 140.550104 102.02441 
L 140.508264 101.953853 
L 140.342293 101.721029 
L 140.317443 101.691161 
L 140.132685 101.488206 
L 140.084781 101.442148 
L 139.870316 101.255382 
L 139.85212 101.241282 
L 139.619458 101.079662 
L 139.526503 101.022559 
L 139.386796 100.945174 
L 139.154135 100.833102 
L 139.048318 100.789736 
L 138.921473 100.742355 
L 138.688812 100.670638 
L 138.45615 100.614088 
L 138.223489 100.572656 
L 138.084487 100.556912 
L 137.990827 100.547153 
L 137.758165 100.536765 
L 137.525504 100.540227 
L 137.301319 100.556912 
L 137.292842 100.557598 
L 137.060181 100.591484 
L 136.827519 100.64047 
L 136.594858 100.704597 
L 136.362196 100.78392 
L 136.347876 100.789736 
L 136.129534 100.887035 
L 135.896873 101.00753 
L 135.871395 101.022559 
L 135.664211 101.158112 
L 135.531835 101.255382 
L 135.43155 101.338187 
L 135.267813 101.488206 
L 135.198888 101.560351 
L 135.059178 101.721029 
L 134.966227 101.845829 
L 134.892395 101.953853 
L 134.760035 102.186676 
L 134.733565 102.245086 
L 134.660507 102.419499 
L 134.587928 102.652323 
L 134.540401 102.885146 
L 134.518037 103.117969 
L 134.520974 103.350793 
L 134.549379 103.583616 
L 134.603446 103.816439 
L 134.683401 104.049263 
" style="fill:none;stroke:#440154;stroke-width:1.5;"/>
    <path clip-path="url(#p38eb23d4ed)" d="M 246.140366 183.674854 
L 246.178457 183.870758 
L 246.186189 183.907677 
L 246.260623 184.140501 
L 246.360664 184.373324 
L 246.411119 184.466928 
L 246.4925 184.606147 
L 246.64378 184.821372 
L 246.657294 184.838971 
L 246.865982 185.071794 
L 246.876442 185.082009 
L 247.109104 185.288154 
L 247.129796 185.304618 
L 247.341765 185.454711 
L 247.47358 185.537441 
L 247.574427 185.59451 
L 247.807088 185.709387 
L 247.951432 185.770264 
L 248.03975 185.804213 
L 248.272411 185.878464 
L 248.505073 185.937539 
L 248.737735 185.981487 
L 248.911856 186.003088 
L 248.970396 186.009769 
L 249.203058 186.022466 
L 249.435719 186.021311 
L 249.668381 186.006305 
L 249.694317 186.003088 
L 249.901042 185.975211 
L 250.133704 185.928744 
L 250.366366 185.867145 
L 250.599027 185.790359 
L 250.649864 185.770264 
L 250.831689 185.691409 
L 251.06435 185.573725 
L 251.127137 185.537441 
L 251.297012 185.428561 
L 251.468812 185.304618 
L 251.529673 185.255279 
L 251.733284 185.071794 
L 251.762335 185.041886 
L 251.94146 184.838971 
L 251.994997 184.768172 
L 252.107288 184.606147 
L 252.227658 184.397297 
L 252.240413 184.373324 
L 252.339191 184.140501 
L 252.412686 183.907677 
L 252.46032 183.677237 
L 252.460777 183.674854 
L 252.481832 183.442031 
L 252.479066 183.209207 
L 252.46032 183.045975 
L 252.451721 182.976384 
L 252.396972 182.743561 
L 252.316009 182.510737 
L 252.227658 182.319236 
L 252.207009 182.277914 
L 252.06181 182.04509 
L 251.994997 181.955863 
L 251.877664 181.812267 
L 251.762335 181.691467 
L 251.644633 181.579444 
L 251.529673 181.483885 
L 251.346076 181.34662 
L 251.297012 181.314079 
L 251.06435 181.176926 
L 250.941945 181.113797 
L 250.831689 181.062714 
L 250.599027 180.970252 
L 250.366366 180.893112 
L 250.320753 180.880974 
L 250.133704 180.835784 
L 249.901042 180.793378 
L 249.668381 180.764746 
L 249.435719 180.749864 
L 249.203058 180.74872 
L 248.970396 180.761311 
L 248.737735 180.78765 
L 248.505073 180.827758 
L 248.275417 180.880974 
L 248.272411 180.881741 
L 248.03975 180.956333 
L 247.807088 181.046236 
L 247.657736 181.113797 
L 247.574427 181.155746 
L 247.341765 181.290019 
L 247.254815 181.34662 
L 247.109104 181.453541 
L 246.955066 181.579444 
L 246.876442 181.653023 
L 246.722057 181.812267 
L 246.64378 181.906604 
L 246.538609 182.04509 
L 246.411119 182.246685 
L 246.39291 182.277914 
L 246.284102 182.510737 
L 246.202104 182.743561 
L 246.178457 182.842821 
L 246.148918 182.976384 
L 246.12186 183.209207 
L 246.119062 183.442031 
L 246.140366 183.674854 
" style="fill:none;stroke:#440154;stroke-width:1.5;"/>
    <path clip-path="url(#p38eb23d4ed)" d="M 246.148918 103.583616 
L 246.178457 103.717179 
L 246.202104 103.816439 
L 246.284102 104.049263 
L 246.39291 104.282086 
L 246.411119 104.313315 
L 246.538609 104.51491 
L 246.64378 104.653396 
L 246.722057 104.747733 
L 246.876442 104.906977 
L 246.955066 104.980556 
L 247.109104 105.106459 
L 247.254815 105.21338 
L 247.341765 105.269981 
L 247.574427 105.404254 
L 247.657736 105.446203 
L 247.807088 105.513764 
L 248.03975 105.603667 
L 248.272411 105.678259 
L 248.275417 105.679026 
L 248.505073 105.732242 
L 248.737735 105.77235 
L 248.970396 105.798689 
L 249.203058 105.81128 
L 249.435719 105.810136 
L 249.668381 105.795254 
L 249.901042 105.766622 
L 250.133704 105.724216 
L 250.320753 105.679026 
L 250.366366 105.666888 
L 250.599027 105.589748 
L 250.831689 105.497286 
L 250.941945 105.446203 
L 251.06435 105.383074 
L 251.297012 105.245921 
L 251.346076 105.21338 
L 251.529673 105.076115 
L 251.644633 104.980556 
L 251.762335 104.868533 
L 251.877664 104.747733 
L 251.994997 104.604137 
L 252.06181 104.51491 
L 252.207009 104.282086 
L 252.227658 104.240764 
L 252.316009 104.049263 
L 252.396972 103.816439 
L 252.451721 103.583616 
L 252.46032 103.514025 
L 252.479066 103.350793 
L 252.481832 103.117969 
L 252.460777 102.885146 
L 252.46032 102.882763 
L 252.412686 102.652323 
L 252.339191 102.419499 
L 252.240413 102.186676 
L 252.227658 102.162703 
L 252.107288 101.953853 
L 251.994997 101.791828 
L 251.94146 101.721029 
L 251.762335 101.518114 
L 251.733284 101.488206 
L 251.529673 101.304721 
L 251.468812 101.255382 
L 251.297012 101.131439 
L 251.127137 101.022559 
L 251.06435 100.986275 
L 250.831689 100.868591 
L 250.649864 100.789736 
L 250.599027 100.769641 
L 250.366366 100.692855 
L 250.133704 100.631256 
L 249.901042 100.584789 
L 249.694317 100.556912 
L 249.668381 100.553695 
L 249.435719 100.538689 
L 249.203058 100.537534 
L 248.970396 100.550231 
L 248.911856 100.556912 
L 248.737735 100.578513 
L 248.505073 100.622461 
L 248.272411 100.681536 
L 248.03975 100.755787 
L 247.951432 100.789736 
L 247.807088 100.850613 
L 247.574427 100.96549 
L 247.47358 101.022559 
L 247.341765 101.105289 
L 247.129796 101.255382 
L 247.109104 101.271846 
L 246.876442 101.477991 
L 246.865982 101.488206 
L 246.657294 101.721029 
L 246.64378 101.738628 
L 246.4925 101.953853 
L 246.411119 102.093072 
L 246.360664 102.186676 
L 246.260623 102.419499 
L 246.186189 102.652323 
L 246.178457 102.689242 
L 246.140366 102.885146 
L 246.119062 103.117969 
L 246.12186 103.350793 
L 246.148918 103.583616 
" style="fill:none;stroke:#440154;stroke-width:1.5;"/>
    <path clip-path="url(#p38eb23d4ed)" d="M 357.787697 183.907677 
L 357.856011 184.13228 
L 357.85871 184.140501 
L 357.961376 184.373324 
L 358.088673 184.603283 
L 358.090396 184.606147 
L 358.258737 184.838971 
L 358.321334 184.913126 
L 358.468082 185.071794 
L 358.553996 185.1531 
L 358.731047 185.304618 
L 358.786657 185.346967 
L 359.019319 185.505443 
L 359.072561 185.537441 
L 359.251981 185.634674 
L 359.484642 185.743944 
L 359.550792 185.770264 
L 359.717304 185.830654 
L 359.949965 185.899839 
L 360.182627 185.953867 
L 360.415288 185.992782 
L 360.515859 186.003088 
L 360.64795 186.01554 
L 360.880612 186.02362 
L 361.113273 186.017849 
L 361.288274 186.003088 
L 361.345935 185.997801 
L 361.578596 185.961401 
L 361.811258 185.909895 
L 362.043919 185.84324 
L 362.251344 185.770264 
L 362.276581 185.760524 
L 362.509243 185.654053 
L 362.729286 185.537441 
L 362.741904 185.530025 
L 362.974566 185.37469 
L 363.068225 185.304618 
L 363.207227 185.187753 
L 363.331742 185.071794 
L 363.439889 184.956729 
L 363.540765 184.838971 
L 363.67255 184.659368 
L 363.708429 184.606147 
L 363.839027 184.373324 
L 363.905212 184.225254 
L 363.940264 184.140501 
L 364.011951 183.907677 
L 364.058893 183.674854 
L 364.080982 183.442031 
L 364.078081 183.209207 
L 364.050026 182.976384 
L 363.996623 182.743561 
L 363.917652 182.510737 
L 363.905212 182.483073 
L 363.805495 182.277914 
L 363.67255 182.058894 
L 363.663432 182.04509 
L 363.478819 181.812267 
L 363.439889 181.770248 
L 363.245911 181.579444 
L 363.207227 181.546213 
L 362.974566 181.365782 
L 362.946886 181.34662 
L 362.741904 181.220724 
L 362.543956 181.113797 
L 362.509243 181.096953 
L 362.276581 180.999366 
L 362.043919 180.917127 
L 361.918346 180.880974 
L 361.811258 180.852986 
L 361.578596 180.805981 
L 361.345935 180.772761 
L 361.113273 180.753298 
L 360.880612 180.747575 
L 360.64795 180.755587 
L 360.415288 180.777342 
L 360.182627 180.812857 
L 359.949965 180.862163 
L 359.880614 180.880974 
L 359.717304 180.929771 
L 359.484642 181.014563 
L 359.254111 181.113797 
L 359.251981 181.114818 
L 359.019319 181.243342 
L 358.854453 181.34662 
L 358.786657 181.394491 
L 358.553996 181.578199 
L 358.55257 181.579444 
L 358.321334 181.810585 
L 358.319799 181.812267 
L 358.137821 182.04509 
L 358.088673 182.120597 
L 357.994468 182.277914 
L 357.882805 182.510737 
L 357.856011 182.58483 
L 357.802838 182.743561 
L 357.750084 182.976384 
L 357.72237 183.209207 
L 357.719504 183.442031 
L 357.741324 183.674854 
L 357.787697 183.907677 
" style="fill:none;stroke:#440154;stroke-width:1.5;"/>
    <path clip-path="url(#p38eb23d4ed)" d="M 357.802838 103.816439 
L 357.856011 103.97517 
L 357.882805 104.049263 
L 357.994468 104.282086 
L 358.088673 104.439403 
L 358.137821 104.51491 
L 358.319799 104.747733 
L 358.321334 104.749415 
L 358.55257 104.980556 
L 358.553996 104.981801 
L 358.786657 105.165509 
L 358.854453 105.21338 
L 359.019319 105.316658 
L 359.251981 105.445182 
L 359.254111 105.446203 
L 359.484642 105.545437 
L 359.717304 105.630229 
L 359.880614 105.679026 
L 359.949965 105.697837 
L 360.182627 105.747143 
L 360.415288 105.782658 
L 360.64795 105.804413 
L 360.880612 105.812425 
L 361.113273 105.806702 
L 361.345935 105.787239 
L 361.578596 105.754019 
L 361.811258 105.707014 
L 361.918346 105.679026 
L 362.043919 105.642873 
L 362.276581 105.560634 
L 362.509243 105.463047 
L 362.543956 105.446203 
L 362.741904 105.339276 
L 362.946886 105.21338 
L 362.974566 105.194218 
L 363.207227 105.013787 
L 363.245911 104.980556 
L 363.439889 104.789752 
L 363.478819 104.747733 
L 363.663432 104.51491 
L 363.67255 104.501106 
L 363.805495 104.282086 
L 363.905212 104.076927 
L 363.917652 104.049263 
L 363.996623 103.816439 
L 364.050026 103.583616 
L 364.078081 103.350793 
L 364.080982 103.117969 
L 364.058893 102.885146 
L 364.011951 102.652323 
L 363.940264 102.419499 
L 363.905212 102.334746 
L 363.839027 102.186676 
L 363.708429 101.953853 
L 363.67255 101.900632 
L 363.540765 101.721029 
L 363.439889 101.603271 
L 363.331742 101.488206 
L 363.207227 101.372247 
L 363.068225 101.255382 
L 362.974566 101.18531 
L 362.741904 101.029975 
L 362.729286 101.022559 
L 362.509243 100.905947 
L 362.276581 100.799476 
L 362.251344 100.789736 
L 362.043919 100.71676 
L 361.811258 100.650105 
L 361.578596 100.598599 
L 361.345935 100.562199 
L 361.288274 100.556912 
L 361.113273 100.542151 
L 360.880612 100.53638 
L 360.64795 100.54446 
L 360.515859 100.556912 
L 360.415288 100.567218 
L 360.182627 100.606133 
L 359.949965 100.660161 
L 359.717304 100.729346 
L 359.550792 100.789736 
L 359.484642 100.816056 
L 359.251981 100.925326 
L 359.072561 101.022559 
L 359.019319 101.054557 
L 358.786657 101.213033 
L 358.731047 101.255382 
L 358.553996 101.4069 
L 358.468082 101.488206 
L 358.321334 101.646874 
L 358.258737 101.721029 
L 358.090396 101.953853 
L 358.088673 101.956717 
L 357.961376 102.186676 
L 357.85871 102.419499 
L 357.856011 102.42772 
L 357.787697 102.652323 
L 357.741324 102.885146 
L 357.719504 103.117969 
L 357.72237 103.350793 
L 357.750084 103.583616 
L 357.802838 103.816439 
" style="fill:none;stroke:#440154;stroke-width:1.5;"/>
   </g>
   <g id="LineCollection_2">
    <path clip-path="url(#p38eb23d4ed)" d="M 71.157056 144.560529 
L 71.474491 145.491822 
L 71.99287 146.423115 
L 72.845587 147.436986 
L 73.880127 148.285702 
L 75.172203 149.031587 
L 76.800834 149.671292 
L 78.429465 150.081271 
L 80.290757 150.339368 
L 82.384712 150.401558 
L 84.478666 150.230187 
L 86.339958 149.860535 
L 87.968589 149.323012 
L 89.364559 148.638736 
L 90.532814 147.820056 
L 91.459172 146.888762 
L 92.156498 145.839357 
L 92.580692 144.793352 
L 92.786212 143.629235 
L 92.735285 142.465118 
L 92.422315 141.301001 
L 91.923836 140.31609 
L 91.225851 139.403043 
L 90.241158 138.507121 
L 89.131897 137.787997 
L 87.644216 137.110181 
L 86.107297 136.639862 
L 84.246004 136.29888 
L 82.15205 136.154016 
L 80.058096 136.242132 
L 78.196803 136.526018 
L 76.568172 136.964935 
L 75.074546 137.575828 
L 73.776233 138.347702 
L 72.761745 139.205591 
L 71.99287 140.136885 
L 71.449618 141.127097 
L 71.105657 142.232295 
L 71.003381 143.396412 
L 71.157056 144.560529 
L 71.157056 144.560529 
" style="fill:none;stroke:#443983;stroke-width:1.5;"/>
    <path clip-path="url(#p38eb23d4ed)" d="M 122.612873 185.071794 
L 122.907471 186.701558 
L 123.407772 188.331321 
L 124.148399 189.961085 
L 125.022096 191.358025 
L 126.125087 192.686387 
L 127.288395 193.761889 
L 128.684364 194.75691 
L 130.312995 195.627192 
L 132.174288 196.33659 
L 134.03558 196.80607 
L 136.129534 197.093283 
L 138.223489 197.149595 
L 140.317443 196.979673 
L 142.411397 196.568781 
L 144.272689 195.970576 
L 145.90132 195.225527 
L 147.29729 194.375135 
L 148.733486 193.220612 
L 149.856567 192.032769 
L 150.84626 190.659555 
L 151.601683 189.262615 
L 152.233557 187.632851 
L 152.648506 185.971834 
L 152.869738 184.140501 
L 152.849939 182.277914 
L 152.618892 180.64815 
L 152.156816 179.018387 
L 151.485198 177.535402 
L 150.626663 176.224506 
L 149.570363 175.060389 
L 148.434882 174.129096 
L 147.064628 173.286345 
L 145.435997 172.553144 
L 143.574705 171.966561 
L 141.480751 171.542618 
L 139.154135 171.303792 
L 136.827519 171.278074 
L 134.500903 171.461982 
L 132.406949 171.826267 
L 130.312995 172.425322 
L 128.684364 173.108082 
L 127.288395 173.90674 
L 126.084764 174.827566 
L 124.958695 175.991683 
L 124.031133 177.329172 
L 123.42525 178.55274 
L 122.948354 179.94968 
L 122.62319 181.579444 
L 122.509234 183.209207 
L 122.612873 185.071794 
L 122.612873 185.071794 
" style="fill:none;stroke:#443983;stroke-width:1.5;"/>
    <path clip-path="url(#p38eb23d4ed)" d="M 122.62319 104.980556 
L 122.948354 106.61032 
L 123.42525 108.00726 
L 124.133894 109.4042 
L 124.961779 110.572037 
L 126.084764 111.732434 
L 127.304188 112.663727 
L 128.684364 113.451918 
L 130.312995 114.134678 
L 132.174288 114.679666 
L 134.268242 115.06748 
L 136.594858 115.273192 
L 138.921473 115.26805 
L 141.248089 115.051356 
L 143.342043 114.651614 
L 145.292408 114.060668 
L 146.894986 113.362197 
L 148.227936 112.574616 
L 149.391244 111.664335 
L 150.440891 110.568317 
L 151.266409 109.4042 
L 151.974964 108.00726 
L 152.51221 106.377497 
L 152.80515 104.747733 
L 152.891487 103.117969 
L 152.756665 101.255382 
L 152.415844 99.556133 
L 151.902336 97.995855 
L 151.122941 96.366092 
L 150.206066 94.969152 
L 149.158582 93.753244 
L 147.914887 92.640918 
L 146.563007 91.709624 
L 144.970674 90.880384 
L 143.109382 90.187555 
L 141.248089 89.731591 
L 139.154135 89.457657 
L 137.060181 89.413872 
L 134.966227 89.596565 
L 133.104934 89.961557 
L 131.241322 90.545508 
L 129.61501 91.273097 
L 127.986379 92.266792 
L 126.59041 93.410736 
L 125.427102 94.669949 
L 124.496456 95.993386 
L 123.692877 97.530209 
L 123.094977 99.159972 
L 122.677326 101.022559 
L 122.512199 102.885146 
L 122.594747 104.747733 
L 122.62319 104.980556 
L 122.62319 104.980556 
" style="fill:none;stroke:#443983;stroke-width:1.5;"/>
    <path clip-path="url(#p38eb23d4ed)" d="M 182.633855 143.862058 
L 182.89451 145.031843 
L 183.359833 146.050521 
L 184.057818 147.025588 
L 184.867846 147.820056 
L 185.91911 148.569589 
L 187.31508 149.27534 
L 188.943711 149.829324 
L 190.805003 150.213586 
L 192.898958 150.398295 
L 194.992912 150.349016 
L 197.086866 150.058037 
L 198.948158 149.555478 
L 200.344128 148.975208 
L 201.520484 148.285702 
L 202.638554 147.354409 
L 203.407338 146.423115 
L 203.925182 145.491822 
L 204.294847 144.327705 
L 204.396257 143.163588 
L 204.242959 141.999471 
L 203.816285 140.835355 
L 203.136067 139.768473 
L 202.397269 138.972768 
L 201.274774 138.111686 
L 200.111466 137.473568 
L 198.562303 136.877357 
L 196.854204 136.456309 
L 194.992912 136.210984 
L 192.898958 136.161705 
L 190.805003 136.346414 
L 188.943711 136.730676 
L 187.31508 137.28466 
L 185.91911 137.990411 
L 184.867846 138.739944 
L 183.941459 139.671238 
L 183.306254 140.602531 
L 182.819469 141.766648 
L 182.613693 142.930765 
L 182.633855 143.862058 
L 182.633855 143.862058 
" style="fill:none;stroke:#443983;stroke-width:1.5;"/>
    <path clip-path="url(#p38eb23d4ed)" d="M 234.277299 185.537441 
L 234.628418 187.167204 
L 235.243363 188.916012 
L 236.012057 190.426732 
L 236.974181 191.823672 
L 238.035302 193.000556 
L 239.431272 194.181558 
L 240.837519 195.083199 
L 242.455872 195.862117 
L 244.317165 196.496319 
L 246.178457 196.903779 
L 248.272411 197.129549 
L 250.366366 197.127465 
L 252.46032 196.897348 
L 254.340801 196.480139 
L 256.182905 195.846172 
L 257.811536 195.055598 
L 259.209263 194.151905 
L 260.603475 192.962427 
L 261.766782 191.642755 
L 262.697429 190.238984 
L 263.40754 188.796968 
L 263.971555 187.167204 
L 264.32606 185.515768 
L 264.48785 183.674854 
L 264.405145 181.812267 
L 264.093398 180.108654 
L 263.574842 178.55274 
L 262.866181 177.1558 
L 261.999444 175.941686 
L 260.915075 174.827566 
L 259.672828 173.881186 
L 258.276859 173.089084 
L 256.648228 172.411702 
L 254.786935 171.871135 
L 252.692981 171.487272 
L 250.366366 171.285208 
L 248.03975 171.29378 
L 245.713134 171.514146 
L 243.61918 171.917889 
L 241.70737 172.499332 
L 240.104738 173.197803 
L 238.565344 174.129096 
L 237.337318 175.148971 
L 236.373182 176.224506 
L 235.596819 177.388623 
L 234.931245 178.785563 
L 234.43215 180.415327 
L 234.170489 182.04509 
L 234.119307 183.907677 
L 234.277299 185.537441 
L 234.277299 185.537441 
" style="fill:none;stroke:#443983;stroke-width:1.5;"/>
    <path clip-path="url(#p38eb23d4ed)" d="M 234.293246 105.446203 
L 234.684986 107.075967 
L 235.243363 108.495839 
L 236.034281 109.869847 
L 236.966856 111.033964 
L 238.035302 112.02818 
L 239.431272 112.992059 
L 241.059903 113.805538 
L 242.688534 114.388074 
L 244.782488 114.892716 
L 247.109104 115.204591 
L 249.435719 115.296004 
L 251.762335 115.179958 
L 254.088951 114.840432 
L 256.216719 114.293491 
L 258.044197 113.582394 
L 259.440167 112.827508 
L 260.642194 111.965257 
L 261.766782 110.887373 
L 262.56571 109.869847 
L 263.367605 108.472907 
L 263.915101 107.075967 
L 264.306754 105.446203 
L 264.47821 103.816439 
L 264.435846 101.953853 
L 264.146607 100.091266 
L 263.628075 98.325455 
L 262.93009 96.746758 
L 262.141489 95.434798 
L 261.028928 94.037858 
L 259.803292 92.873741 
L 258.509521 91.925531 
L 256.856195 91.011154 
L 255.019597 90.285155 
L 253.158304 89.792882 
L 251.06435 89.483387 
L 248.970396 89.40617 
L 246.876442 89.554888 
L 244.782488 89.94224 
L 242.84218 90.545508 
L 241.271279 91.243978 
L 239.663933 92.212003 
L 238.266226 93.339388 
L 237.104656 94.574507 
L 236.153558 95.900445 
L 235.292756 97.530209 
L 234.695268 99.159972 
L 234.312717 100.804655 
L 234.119307 102.652323 
L 234.170489 104.51491 
L 234.293246 105.446203 
L 234.293246 105.446203 
" style="fill:none;stroke:#443983;stroke-width:1.5;"/>
    <path clip-path="url(#p38eb23d4ed)" d="M 294.305383 144.327705 
L 294.57746 145.258999 
L 295.041871 146.190292 
L 295.741312 147.121586 
L 296.759027 148.052879 
L 297.830181 148.751349 
L 299.355818 149.449819 
L 300.8739 149.915466 
L 302.715219 150.256174 
L 304.809173 150.40544 
L 306.903127 150.321656 
L 308.76442 150.042092 
L 310.625712 149.528534 
L 312.021682 148.935708 
L 313.18499 148.240053 
L 314.238204 147.354409 
L 315.046282 146.363925 
L 315.525599 145.491822 
L 315.894387 144.327705 
L 315.996616 143.163588 
L 315.842827 141.999471 
L 315.511605 141.03786 
L 315.007334 140.136885 
L 314.238204 139.205591 
L 313.18499 138.319947 
L 312.021682 137.624292 
L 310.625712 137.031466 
L 308.997081 136.567944 
L 307.135789 136.262305 
L 305.041835 136.152464 
L 302.94788 136.275399 
L 301.086588 136.594212 
L 299.355818 137.110181 
L 297.829326 137.80913 
L 296.666018 138.57969 
L 295.735372 139.445131 
L 295.037387 140.377227 
L 294.492958 141.533825 
L 294.234163 142.697942 
L 294.234163 143.862058 
L 294.305383 144.327705 
L 294.305383 144.327705 
" style="fill:none;stroke:#443983;stroke-width:1.5;"/>
    <path clip-path="url(#p38eb23d4ed)" d="M 345.745168 184.373324 
L 346.0032 186.235911 
L 346.455594 187.905378 
L 347.153579 189.585255 
L 347.902402 190.892378 
L 348.962136 192.289318 
L 350.124205 193.453435 
L 351.341487 194.401917 
L 352.970118 195.366441 
L 354.598749 196.073212 
L 356.460042 196.636711 
L 358.321334 196.984923 
L 360.415288 197.150596 
L 362.509243 197.090107 
L 364.603197 196.798453 
L 366.464489 196.324441 
L 368.325782 195.609476 
L 369.954413 194.732732 
L 371.403452 193.686259 
L 372.628717 192.522142 
L 373.676998 191.218276 
L 374.451647 189.961085 
L 375.192181 188.331321 
L 375.692415 186.701558 
L 376.013575 184.838971 
L 376.086458 182.976384 
L 375.943783 181.34662 
L 375.586058 179.716857 
L 375.072967 178.315985 
L 374.32056 176.922976 
L 373.443811 175.75886 
L 372.242192 174.594743 
L 370.885059 173.636967 
L 369.256428 172.804245 
L 367.627797 172.207285 
L 365.533843 171.689274 
L 363.207227 171.365604 
L 360.880612 171.263655 
L 358.553996 171.369123 
L 356.22738 171.696743 
L 354.133426 172.219243 
L 352.504795 172.821057 
L 350.870933 173.663449 
L 349.480195 174.659654 
L 348.316887 175.80459 
L 347.38624 177.070843 
L 346.688256 178.40527 
L 346.148342 179.94968 
L 345.823398 181.579444 
L 345.709123 183.209207 
L 345.745168 184.373324 
L 345.745168 184.373324 
" style="fill:none;stroke:#443983;stroke-width:1.5;"/>
    <path clip-path="url(#p38eb23d4ed)" d="M 345.749948 104.282086 
L 345.990271 105.954655 
L 346.455594 107.575092 
L 347.067825 108.938554 
L 347.851564 110.174392 
L 348.790456 111.266787 
L 349.945518 112.2698 
L 351.341487 113.169108 
L 352.970118 113.93163 
L 354.831411 114.542816 
L 356.955533 114.991961 
L 359.251981 115.244748 
L 361.578596 115.287629 
L 363.905212 115.121743 
L 366.231828 114.724909 
L 368.325782 114.120964 
L 369.954413 113.432799 
L 371.350382 112.627208 
L 372.515505 111.732434 
L 373.641099 110.568317 
L 374.46612 109.4042 
L 375.17474 108.00726 
L 375.651613 106.61032 
L 375.976737 104.980556 
L 376.090785 103.350793 
L 375.987154 101.488206 
L 375.634097 99.625619 
L 375.072967 97.922851 
L 374.323059 96.366092 
L 373.406268 94.969152 
L 372.281028 93.674927 
L 371.115396 92.640918 
L 369.721751 91.684718 
L 368.09312 90.846035 
L 366.464489 90.235559 
L 364.603197 89.761547 
L 362.509243 89.469893 
L 360.415288 89.409404 
L 358.321334 89.575077 
L 356.22738 89.981239 
L 354.366088 90.574375 
L 352.737457 91.31388 
L 351.316718 92.175271 
L 349.945518 93.26669 
L 348.763126 94.503505 
L 347.753831 95.900445 
L 346.920917 97.467051 
L 346.366538 98.927149 
L 345.957313 100.556912 
L 345.730337 102.419499 
L 345.749948 104.282086 
L 345.749948 104.282086 
" style="fill:none;stroke:#443983;stroke-width:1.5;"/>
   </g>
   <g id="LineCollection_3">
    <path clip-path="url(#p38eb23d4ed)" d="M 61.659744 145.724645 
L 62.063978 147.587232 
L 62.663487 149.216996 
L 63.432091 150.613936 
L 64.333126 151.778053 
L 65.400417 152.788327 
L 66.610394 153.64064 
L 68.192356 154.458854 
L 70.053648 155.148039 
L 72.380264 155.743359 
L 75.172203 156.20226 
L 78.429465 156.497652 
L 82.15205 156.597055 
L 85.874635 156.465853 
L 89.131897 156.135285 
L 91.923836 155.633599 
L 94.250452 154.984083 
L 96.111744 154.226298 
L 97.55619 153.407816 
L 98.764674 152.476523 
L 99.834329 151.347292 
L 100.532314 150.355386 
L 101.239387 148.984172 
L 101.801194 147.354409 
L 102.173414 145.491822 
L 102.316145 143.629235 
L 102.251797 141.766648 
L 101.970558 139.904061 
L 101.46296 138.140066 
L 100.910978 136.877357 
L 100.066991 135.514729 
L 99.136345 134.43554 
L 97.973037 133.442481 
L 96.790513 132.686537 
L 95.181098 131.921395 
L 93.319805 131.283825 
L 90.99319 130.731421 
L 88.201251 130.30631 
L 84.943989 130.03901 
L 81.221404 129.966188 
L 77.488991 130.12548 
L 74.241557 130.486322 
L 71.682279 130.971072 
L 69.588325 131.562711 
L 67.727033 132.314957 
L 66.243898 133.152184 
L 65.035332 134.083477 
L 64.004448 135.165012 
L 63.283415 136.178887 
L 62.560713 137.575828 
L 61.998798 139.205591 
L 61.62667 141.068178 
L 61.483798 142.930765 
L 61.54821 144.793352 
L 61.659744 145.724645 
L 61.659744 145.724645 
" style="fill:none;stroke:#31688e;stroke-width:1.5;"/>
    <path clip-path="url(#p38eb23d4ed)" d="M 115.872388 186.468734 
L 116.236732 189.262615 
L 116.80714 191.823672 
L 117.516609 193.987821 
L 118.31559 195.781669 
L 119.26576 197.411433 
L 120.311206 198.808373 
L 121.65504 200.205313 
L 122.867825 201.201252 
L 124.569073 202.300723 
L 126.357748 203.185989 
L 128.451703 203.963451 
L 130.778318 204.579097 
L 133.337596 205.017816 
L 136.129534 205.25754 
L 138.921473 205.271357 
L 141.713412 205.060618 
L 144.385303 204.628957 
L 146.599305 204.070991 
L 148.693259 203.332968 
L 150.554552 202.45377 
L 152.29972 201.36943 
L 153.744914 200.205313 
L 154.975122 198.941598 
L 156.138429 197.405441 
L 157.084556 195.781669 
L 157.909747 193.919082 
L 158.592732 191.823672 
L 159.12161 189.495438 
L 159.483363 186.934381 
L 159.655622 184.140501 
L 159.605566 181.34662 
L 159.341389 178.785563 
L 158.86748 176.45733 
L 158.232384 174.5202 
L 157.488284 172.964979 
L 156.550767 171.568039 
L 155.440445 170.37428 
L 154.277137 169.448933 
L 152.729451 168.541335 
L 151.019875 167.815253 
L 148.925921 167.181056 
L 146.366644 166.655764 
L 143.342043 166.271875 
L 139.85212 166.054776 
L 136.129534 166.038192 
L 132.406949 166.240308 
L 129.149687 166.636879 
L 126.59041 167.151921 
L 124.304181 167.842865 
L 122.635163 168.558934 
L 121.088751 169.472629 
L 119.843224 170.48277 
L 118.849251 171.568039 
L 117.911754 172.964979 
L 117.137848 174.594743 
L 116.532506 176.45733 
L 116.094714 178.55274 
L 115.809258 181.113797 
L 115.740023 183.907677 
L 115.872388 186.468734 
L 115.872388 186.468734 
" style="fill:none;stroke:#31688e;stroke-width:1.5;"/>
    <path clip-path="url(#p38eb23d4ed)" d="M 115.885856 106.377497 
L 116.217193 108.70573 
L 116.731411 110.80114 
L 117.331325 112.430904 
L 118.047276 113.827844 
L 118.912578 115.070946 
L 119.927402 116.156078 
L 121.088751 117.087371 
L 122.402502 117.881524 
L 124.031133 118.614463 
L 126.125087 119.288227 
L 128.684364 119.845116 
L 131.708965 120.254177 
L 135.198888 120.492724 
L 138.921473 120.52924 
L 142.668905 120.346898 
L 145.90132 119.977621 
L 148.693259 119.436525 
L 150.787213 118.826963 
L 152.648506 118.058619 
L 154.044475 117.267405 
L 155.212347 116.388901 
L 156.371091 115.212682 
L 157.301737 113.912048 
L 157.999722 112.585675 
L 158.595268 111.033964 
L 159.088797 109.171377 
L 159.464532 106.843143 
L 159.647774 104.282086 
L 159.622769 101.488206 
L 159.375805 98.694325 
L 158.930368 96.11009 
L 158.316762 93.805035 
L 157.527017 91.709624 
L 156.57223 89.847038 
L 155.440445 88.184963 
L 154.232885 86.820334 
L 152.881167 85.624314 
L 151.231221 84.4921 
L 149.391244 83.528717 
L 147.29729 82.709762 
L 144.970674 82.05888 
L 142.411397 81.588936 
L 139.619458 81.319782 
L 136.827519 81.278304 
L 133.990335 81.465396 
L 131.476303 81.83847 
L 129.117494 82.39669 
L 127.036764 83.09516 
L 125.194441 83.922271 
L 123.436699 84.957747 
L 121.937179 86.103659 
L 120.720882 87.285981 
L 119.58687 88.682921 
L 118.562261 90.312684 
L 117.674785 92.175271 
L 116.940136 94.270682 
L 116.353301 96.670946 
L 115.967183 99.159972 
L 115.757865 101.953853 
L 115.770108 104.747733 
L 115.885856 106.377497 
L 115.885856 106.377497 
" style="fill:none;stroke:#31688e;stroke-width:1.5;"/>
    <path clip-path="url(#p38eb23d4ed)" d="M 173.112562 144.327705 
L 173.355386 146.28784 
L 173.733841 147.820056 
L 174.286032 149.265844 
L 175.032016 150.613936 
L 175.932956 151.778053 
L 177.077971 152.850809 
L 178.241279 153.659376 
L 179.86991 154.492671 
L 181.731202 155.172005 
L 184.057818 155.759296 
L 186.849757 156.211922 
L 190.107019 156.502136 
L 193.829604 156.596687 
L 197.552189 156.460548 
L 200.809451 156.124427 
L 203.60139 155.615897 
L 205.928006 154.957422 
L 207.789298 154.188434 
L 209.185268 153.38848 
L 210.364865 152.476523 
L 211.462328 151.312406 
L 212.256171 150.148289 
L 212.935906 148.751349 
L 213.461906 147.121586 
L 213.80297 145.258999 
L 213.919334 143.396412 
L 213.829183 141.533825 
L 213.518287 139.671238 
L 213.026499 138.041474 
L 212.387486 136.644534 
L 211.511883 135.310831 
L 210.581237 134.283901 
L 209.417929 133.331147 
L 207.953791 132.453713 
L 206.35401 131.755243 
L 204.299375 131.114379 
L 201.817924 130.591127 
L 198.948158 130.215534 
L 195.458235 129.993892 
L 191.73565 129.987945 
L 188.245726 130.197052 
L 185.181829 130.591127 
L 182.661849 131.124486 
L 180.567894 131.784687 
L 178.939263 132.508974 
L 177.50594 133.385007 
L 176.379986 134.320851 
L 175.358425 135.480417 
L 174.518694 136.820445 
L 173.973482 138.041474 
L 173.481723 139.671238 
L 173.170904 141.533825 
L 173.080612 143.396412 
L 173.112562 144.327705 
L 173.112562 144.327705 
" style="fill:none;stroke:#31688e;stroke-width:1.5;"/>
    <path clip-path="url(#p38eb23d4ed)" d="M 227.541027 187.167204 
L 227.922061 189.728261 
L 228.496178 192.139167 
L 229.194163 194.185645 
L 230.036647 196.014492 
L 231.055455 197.691021 
L 232.218763 199.161729 
L 233.516533 200.438136 
L 235.010702 201.584982 
L 236.639333 202.557073 
L 238.637137 203.46484 
L 240.717872 204.16331 
L 242.921195 204.691397 
L 245.591002 205.094604 
L 248.272411 205.277529 
L 251.06435 205.248352 
L 253.856289 204.992336 
L 256.415566 204.536385 
L 258.742182 203.901233 
L 260.836136 203.101107 
L 262.697429 202.147562 
L 264.32606 201.055658 
L 265.722029 199.849426 
L 266.885337 198.570275 
L 268.031818 196.945786 
L 268.913695 195.316022 
L 269.681602 193.453435 
L 270.315965 191.358025 
L 270.803193 189.029791 
L 271.127549 186.468734 
L 271.262916 183.674854 
L 271.174241 180.880974 
L 270.866861 178.319917 
L 270.375261 176.120571 
L 269.767838 174.361919 
L 268.979291 172.776903 
L 268.150708 171.568039 
L 267.07267 170.403922 
L 265.911336 169.472629 
L 264.558721 168.658205 
L 262.93009 167.930658 
L 260.836136 167.261442 
L 258.276859 166.708129 
L 255.252259 166.301931 
L 251.762335 166.065792 
L 248.03975 166.031493 
L 244.317165 166.214191 
L 241.059903 166.588278 
L 238.267964 167.132881 
L 236.17401 167.746522 
L 234.270444 168.541335 
L 232.916748 169.318169 
L 231.75344 170.200947 
L 230.639133 171.335216 
L 229.790354 172.499332 
L 229.03576 173.896273 
L 228.404727 175.526036 
L 227.911221 177.388623 
L 227.535416 179.716857 
L 227.352226 182.277914 
L 227.377301 185.071794 
L 227.541027 187.167204 
L 227.541027 187.167204 
" style="fill:none;stroke:#31688e;stroke-width:1.5;"/>
    <path clip-path="url(#p38eb23d4ed)" d="M 227.563052 107.075967 
L 227.962208 109.4042 
L 228.496178 111.308827 
L 229.194163 112.995355 
L 229.941389 114.293491 
L 230.840714 115.457608 
L 231.986101 116.555894 
L 233.149409 117.391694 
L 234.760974 118.251488 
L 236.406671 118.893116 
L 238.500625 119.48269 
L 241.059903 119.971722 
L 244.084503 120.326391 
L 247.574427 120.517901 
L 251.297012 120.510163 
L 255.019597 120.280789 
L 258.276859 119.851871 
L 260.836136 119.298558 
L 262.93009 118.629342 
L 264.558721 117.901795 
L 265.954691 117.057029 
L 267.117999 116.113825 
L 268.150708 114.991961 
L 268.979291 113.783097 
L 269.677276 112.411231 
L 270.268579 110.80114 
L 270.782839 108.70573 
L 271.114071 106.377497 
L 271.259068 103.816439 
L 271.19708 101.022559 
L 270.91192 98.228679 
L 270.430014 95.667622 
L 269.76276 93.339388 
L 268.979291 91.383604 
L 268.031818 89.614214 
L 266.881058 87.984451 
L 265.594374 86.58751 
L 264.218603 85.423394 
L 262.697429 84.412438 
L 260.836136 83.458893 
L 258.742182 82.658767 
L 256.415566 82.023615 
L 253.856289 81.567664 
L 251.06435 81.311648 
L 248.272411 81.282471 
L 245.480473 81.477277 
L 242.921195 81.868603 
L 240.59458 82.431875 
L 238.500625 83.148682 
L 236.595086 84.026453 
L 235.010702 84.975018 
L 233.516533 86.121864 
L 232.218763 87.398271 
L 231.055455 88.868979 
L 230.124809 90.380996 
L 229.274792 92.175271 
L 228.540075 94.270682 
L 227.967578 96.598915 
L 227.565532 99.173549 
L 227.357785 101.953853 
L 227.370047 104.747733 
L 227.563052 107.075967 
L 227.563052 107.075967 
" style="fill:none;stroke:#31688e;stroke-width:1.5;"/>
    <path clip-path="url(#p38eb23d4ed)" d="M 284.79695 145.258999 
L 285.138104 147.121586 
L 285.664171 148.751349 
L 286.343891 150.148289 
L 287.137553 151.312406 
L 288.235261 152.476523 
L 289.453509 153.414314 
L 290.849479 154.207429 
L 292.47811 154.889289 
L 294.572064 155.514512 
L 297.131341 156.025901 
L 300.155942 156.390926 
L 303.645865 156.580262 
L 307.36845 156.555275 
L 310.858374 156.313266 
L 313.882974 155.886932 
L 316.442252 155.298283 
L 318.303544 154.669666 
L 319.990361 153.873463 
L 321.406256 152.94217 
L 322.491452 151.966301 
L 323.422099 150.829341 
L 324.227169 149.449819 
L 324.818068 147.97096 
L 325.218692 146.423115 
L 325.471257 144.560529 
L 325.50989 142.697942 
L 325.340177 140.835355 
L 324.936003 138.972768 
L 324.336607 137.343004 
L 323.567922 135.946064 
L 322.666931 134.781947 
L 321.560806 133.740315 
L 320.389775 132.91936 
L 318.768867 132.084183 
L 316.907575 131.399941 
L 314.580959 130.808647 
L 311.78902 130.352891 
L 308.531758 130.060093 
L 304.809173 129.963117 
L 301.086588 130.096786 
L 297.829326 130.430125 
L 295.037387 130.935224 
L 292.710771 131.589206 
L 290.849479 132.352571 
L 289.443655 133.152184 
L 288.235261 134.083477 
L 287.328847 135.014771 
L 286.428909 136.268748 
L 285.730924 137.646745 
L 285.198774 139.205591 
L 284.826622 141.068178 
L 284.683873 142.930765 
L 284.748159 144.793352 
L 284.79695 145.258999 
L 284.79695 145.258999 
" style="fill:none;stroke:#31688e;stroke-width:1.5;"/>
    <path clip-path="url(#p38eb23d4ed)" d="M 339.002804 185.537441 
L 339.288049 188.331321 
L 339.769997 190.892378 
L 340.437161 193.220612 
L 341.286279 195.316022 
L 342.168335 196.945786 
L 343.198332 198.424444 
L 344.366965 199.739666 
L 345.757609 200.96599 
L 347.38624 202.078467 
L 349.247533 203.048902 
L 351.341487 203.863107 
L 353.668103 204.510028 
L 356.22738 204.976456 
L 359.019319 205.242317 
L 361.811258 205.280718 
L 364.61057 205.094604 
L 367.162474 204.714082 
L 369.48909 204.161537 
L 371.583044 203.45718 
L 373.604808 202.533547 
L 375.163315 201.602253 
L 376.68368 200.438136 
L 377.879245 199.274019 
L 379.028214 197.8561 
L 380.037761 196.247316 
L 380.925279 194.384729 
L 381.659887 192.289318 
L 382.232434 189.961085 
L 382.632803 187.400028 
L 382.84214 184.606147 
L 382.829906 181.812267 
L 382.607105 179.25121 
L 382.183952 176.922976 
L 381.587491 174.923853 
L 380.889507 173.335586 
L 380.098815 172.033686 
L 379.14467 170.869569 
L 378.097568 169.909686 
L 376.701598 168.957198 
L 375.072967 168.148711 
L 373.211675 167.481557 
L 370.885059 166.898363 
L 368.09312 166.442071 
L 364.835858 166.139408 
L 361.113273 166.019763 
L 357.390688 166.114403 
L 353.900764 166.41798 
L 350.876164 166.906315 
L 348.549548 167.493347 
L 346.688256 168.165164 
L 345.013552 169.006982 
L 343.663655 169.940675 
L 342.500347 171.036459 
L 341.569701 172.224381 
L 340.861234 173.430626 
L 340.162788 175.060389 
L 339.616044 176.922976 
L 339.224607 179.018387 
L 338.981399 181.579444 
L 338.95037 184.373324 
L 339.002804 185.537441 
L 339.002804 185.537441 
" style="fill:none;stroke:#31688e;stroke-width:1.5;"/>
    <path clip-path="url(#p38eb23d4ed)" d="M 339.009142 105.446203 
L 339.294757 108.00726 
L 339.732456 110.10267 
L 340.33783 111.965257 
L 341.111619 113.595021 
L 342.049132 114.991961 
L 343.127382 116.156078 
L 344.36164 117.137612 
L 345.870581 118.018665 
L 347.618902 118.75867 
L 349.821343 119.415605 
L 352.272133 119.910572 
L 355.296734 120.291748 
L 358.786657 120.506494 
L 362.509243 120.520866 
L 366.231828 120.3163 
L 369.48909 119.916866 
L 372.048367 119.398427 
L 374.295688 118.717135 
L 376.003614 117.981485 
L 377.511226 117.087371 
L 378.672581 116.156078 
L 379.750837 114.991961 
L 380.688317 113.595021 
L 381.462143 111.965257 
L 382.067565 110.10267 
L 382.518138 107.925156 
L 382.790786 105.446203 
L 382.859968 102.652323 
L 382.706275 99.858442 
L 382.32162 97.064562 
L 381.792823 94.736328 
L 381.109879 92.640918 
L 380.284415 90.778331 
L 379.260876 89.038768 
L 378.088338 87.518804 
L 376.701598 86.137389 
L 375.305629 85.054356 
L 373.604808 84.026453 
L 371.815705 83.195402 
L 369.721751 82.465936 
L 367.395136 81.8918 
L 364.835858 81.490398 
L 362.043919 81.286046 
L 359.251981 81.306005 
L 356.460042 81.552229 
L 353.900764 81.997807 
L 351.548841 82.629513 
L 349.480195 83.407649 
L 347.618902 84.344663 
L 345.981109 85.423394 
L 344.594302 86.598055 
L 343.319174 87.984451 
L 342.267686 89.454461 
L 341.33704 91.137877 
L 340.602777 92.873741 
L 339.94107 94.981638 
L 339.436668 97.297385 
L 339.093766 99.858442 
L 338.940012 102.652323 
L 339.009142 105.446203 
L 339.009142 105.446203 
" style="fill:none;stroke:#31688e;stroke-width:1.5;"/>
   </g>
   <g id="LineCollection_4">
    <path clip-path="url(#p38eb23d4ed)" d="M 388.8 161.3882 
L 333.000001 161.323811 
L 333.000001 125.236189 
L 333.426546 125.1718 
L 388.8 125.1718 
L 388.8 125.1718 
" style="fill:none;stroke:#21918c;stroke-width:1.5;"/>
    <path clip-path="url(#p38eb23d4ed)" d="M 54 226.747177 
L 54 161.556634 
L 54.232662 161.3882 
L 109.799999 161.323811 
L 109.799999 125.236189 
L 109.373454 125.1718 
L 54.232662 125.1718 
L 54 125.003366 
L 54 59.812823 
L 54.232662 59.58 
L 109.606115 59.58 
L 109.799999 59.812823 
L 109.838777 125.1718 
L 165.6 125.236189 
L 165.6 161.323811 
L 165.212231 161.3882 
L 109.838777 161.3882 
L 109.799999 162.022281 
L 109.799999 226.747177 
L 109.606115 226.98 
L 54.232662 226.98 
L 54 226.747177 
L 54 226.747177 
" style="fill:none;stroke:#21918c;stroke-width:1.5;"/>
    <path clip-path="url(#p38eb23d4ed)" d="M 165.6 226.747177 
L 165.677554 161.3882 
L 221.4 161.323811 
L 221.4 125.236189 
L 221.283669 125.1718 
L 165.677554 125.1718 
L 165.6 124.770542 
L 165.677554 59.58 
L 221.283669 59.58 
L 221.4 60.045647 
L 221.4 125.003366 
L 221.516331 125.1718 
L 277.122446 125.1718 
L 277.2 124.770542 
L 277.2 59.812823 
L 277.355108 59.58 
L 332.961223 59.58 
L 333.000001 60.27847 
L 332.961223 125.1718 
L 277.2 125.236189 
L 277.2 161.323811 
L 277.587769 161.3882 
L 332.961223 161.3882 
L 333.000001 162.022281 
L 332.961223 226.98 
L 277.355108 226.98 
L 277.2 226.747177 
L 277.122446 161.3882 
L 221.516331 161.3882 
L 221.4 161.556634 
L 221.4 226.747177 
L 221.283669 226.98 
L 165.677554 226.98 
L 165.6 226.747177 
L 165.6 226.747177 
" style="fill:none;stroke:#21918c;stroke-width:1.5;"/>
   </g>
   <g id="LineCollection_5">
    <path clip-path="url(#p38eb23d4ed)" d="M 60.034509 186.003088 
L 59.935952 183.209207 
L 60.06398 180.415327 
L 60.373992 178.087093 
L 60.861726 175.991683 
L 61.531374 174.129096 
L 62.24731 172.732156 
L 63.073801 171.537152 
L 64.127419 170.403922 
L 65.288774 169.472629 
L 66.563725 168.698887 
L 68.192356 167.960513 
L 70.28631 167.282168 
L 72.612926 166.763387 
L 75.637526 166.333921 
L 79.12745 166.07834 
L 82.850035 166.026274 
L 86.57262 166.189992 
L 89.829882 166.542158 
L 92.621821 167.059239 
L 94.948436 167.719638 
L 96.809729 168.482514 
L 98.205698 169.267209 
L 99.412214 170.171099 
L 100.560919 171.335216 
L 101.46296 172.584825 
L 102.164382 173.896273 
L 102.795298 175.526036 
L 103.324253 177.558525 
L 103.664509 179.716857 
L 103.847716 182.277914 
L 103.822718 185.071794 
L 103.575808 187.865675 
L 103.135379 190.426732 
L 102.51675 192.754965 
L 101.726954 194.850376 
L 100.907412 196.480139 
L 99.834329 198.121347 
L 98.661016 199.506843 
L 97.275052 200.781277 
L 95.807737 201.835076 
L 94.149371 202.76637 
L 92.389159 203.532211 
L 90.295205 204.216226 
L 87.968589 204.750765 
L 85.409312 205.115849 
L 82.617373 205.285181 
L 79.825434 205.231387 
L 77.033495 204.948992 
L 74.474218 204.464864 
L 72.147603 203.79795 
L 70.053648 202.959944 
L 68.192356 201.960772 
L 66.563725 200.812574 
L 65.139057 199.506843 
L 63.957267 198.109903 
L 62.892534 196.480139 
L 62.073116 194.850376 
L 61.283226 192.754965 
L 60.664667 190.426732 
L 60.224254 187.865675 
L 60.034509 186.003088 
L 60.034509 186.003088 
" style="fill:none;stroke:#35b779;stroke-width:1.5;"/>
    <path clip-path="url(#p38eb23d4ed)" d="M 60.043897 105.91185 
L 59.935774 103.117969 
L 60.052646 100.324089 
L 60.396873 97.530209 
L 60.944419 94.969152 
L 61.602837 92.873741 
L 62.398754 91.011154 
L 63.31402 89.381391 
L 64.469771 87.801009 
L 65.633079 86.561077 
L 67.029048 85.387517 
L 68.657679 84.322359 
L 70.518972 83.390778 
L 72.612926 82.608881 
L 74.939541 81.989325 
L 77.498819 81.547182 
L 80.290757 81.304211 
L 83.082696 81.287323 
L 85.874635 81.494866 
L 88.433912 81.899648 
L 90.760528 82.477436 
L 92.854482 83.211168 
L 94.715775 84.085332 
L 96.344406 85.081157 
L 97.740375 86.17133 
L 99.088205 87.518804 
L 100.176738 88.915744 
L 101.163377 90.545508 
L 102.019136 92.408095 
L 102.727543 94.503505 
L 103.277991 96.831739 
L 103.658889 99.392796 
L 103.84963 102.186676 
L 103.818601 104.980556 
L 103.575393 107.541613 
L 103.12729 109.869847 
L 102.551833 111.732434 
L 101.816713 113.362197 
L 100.929805 114.759138 
L 99.916283 115.923255 
L 98.833653 116.854548 
L 97.507714 117.713427 
L 95.879083 118.491877 
L 93.857122 119.182782 
L 91.691174 119.700666 
L 88.899236 120.14202 
L 85.641974 120.43234 
L 81.919388 120.54058 
L 78.196803 120.434613 
L 74.676883 120.114075 
L 71.682279 119.612928 
L 69.355664 119.006582 
L 67.494371 118.310916 
L 65.86574 117.463777 
L 64.469771 116.45884 
L 63.440868 115.457608 
L 62.541418 114.293491 
L 61.74564 112.896551 
L 61.081836 111.266787 
L 60.562183 109.4042 
L 60.163184 107.075967 
L 60.043897 105.91185 
L 60.043897 105.91185 
" style="fill:none;stroke:#35b779;stroke-width:1.5;"/>
    <path clip-path="url(#p38eb23d4ed)" d="M 117.283703 143.629235 
L 117.348178 141.766648 
L 117.629515 139.904061 
L 118.088376 138.274298 
L 118.688858 136.877357 
L 119.389966 135.713241 
L 120.351247 134.549124 
L 121.471855 133.558107 
L 122.867825 132.654329 
L 124.496456 131.890334 
L 126.357748 131.261717 
L 128.684364 130.716553 
L 131.476303 130.297403 
L 134.733565 130.035112 
L 138.45615 129.967098 
L 142.178735 130.130696 
L 145.435997 130.498027 
L 147.995274 130.989332 
L 150.089229 131.589206 
L 151.950521 132.352571 
L 153.356345 133.152184 
L 154.564739 134.083477 
L 155.471153 135.014771 
L 156.371091 136.268748 
L 157.069076 137.646745 
L 157.601226 139.205591 
L 157.973378 141.068178 
L 158.116127 142.930765 
L 158.051841 144.793352 
L 157.76706 146.672114 
L 157.301737 148.313525 
L 156.710966 149.682643 
L 155.905768 150.99209 
L 154.975122 152.085625 
L 153.811814 153.088928 
L 152.590359 153.873463 
L 151.019875 154.622925 
L 149.139742 155.270403 
L 146.831967 155.821073 
L 144.040028 156.249185 
L 140.782766 156.519001 
L 137.060181 156.59423 
L 133.337596 156.438204 
L 130.080334 156.079471 
L 127.288395 155.542851 
L 125.194441 154.930425 
L 123.333148 154.150063 
L 121.937179 153.33603 
L 120.773871 152.420693 
L 119.737747 151.312406 
L 118.912578 150.093771 
L 118.214593 148.625152 
L 117.737956 147.121586 
L 117.397114 145.258999 
L 117.283703 143.629235 
L 117.283703 143.629235 
" style="fill:none;stroke:#35b779;stroke-width:1.5;"/>
    <path clip-path="url(#p38eb23d4ed)" d="M 171.716532 186.934381 
L 171.544414 184.140501 
L 171.594518 181.34662 
L 171.858647 178.785563 
L 172.272769 176.690153 
L 172.890063 174.717675 
L 173.588047 173.188701 
L 174.470159 171.800862 
L 175.483621 170.636745 
L 176.612648 169.670929 
L 178.023101 168.774159 
L 179.637248 168.021402 
L 181.542765 167.377218 
L 183.825156 166.836494 
L 186.617095 166.403927 
L 189.874357 166.120918 
L 193.596942 166.019489 
L 197.319527 166.132283 
L 200.809451 166.457003 
L 203.60139 166.922444 
L 205.928006 167.51715 
L 207.789298 168.198398 
L 209.417929 169.025692 
L 210.813899 170.004106 
L 211.977206 171.122582 
L 212.907853 172.34123 
L 213.65439 173.663449 
L 214.318285 175.293213 
L 214.837792 177.1558 
L 215.236948 179.484033 
L 215.43968 182.04509 
L 215.433217 184.838971 
L 215.205162 187.632851 
L 214.769145 190.268873 
L 214.189626 192.522142 
L 213.427862 194.617552 
L 212.507443 196.480139 
L 211.442687 198.109903 
L 210.260802 199.506843 
L 208.952606 200.718022 
L 207.323975 201.88833 
L 205.695344 202.793247 
L 203.834051 203.590628 
L 201.740097 204.258726 
L 199.413482 204.779113 
L 196.854204 205.131345 
L 194.062265 205.287984 
L 191.270327 205.221852 
L 188.478388 204.926111 
L 185.91911 204.427601 
L 183.592495 203.744341 
L 181.498541 202.887008 
L 179.637248 201.863866 
L 178.241279 200.874518 
L 176.845309 199.61675 
L 175.682001 198.274856 
L 174.627881 196.712962 
L 173.777739 195.083199 
L 173.03724 193.220612 
L 172.369986 190.892378 
L 171.88808 188.331321 
L 171.716532 186.934381 
L 171.716532 186.934381 
" style="fill:none;stroke:#35b779;stroke-width:1.5;"/>
    <path clip-path="url(#p38eb23d4ed)" d="M 171.709676 106.61032 
L 171.545811 104.049263 
L 171.58937 101.255382 
L 171.855342 98.461502 
L 172.316294 95.900445 
L 172.95882 93.572211 
L 173.777739 91.476801 
L 174.627881 89.847038 
L 175.734538 88.217274 
L 176.967222 86.820334 
L 178.278475 85.656217 
L 179.86991 84.551712 
L 181.498541 83.672992 
L 183.592495 82.815659 
L 185.91911 82.132399 
L 188.478388 81.633889 
L 191.037665 81.353774 
L 193.829604 81.269088 
L 196.621543 81.4068 
L 199.18082 81.739998 
L 201.740097 82.301274 
L 204.066713 83.057544 
L 205.928006 83.882696 
L 207.556637 84.820493 
L 209.009375 85.88904 
L 210.348575 87.145313 
L 211.511883 88.543377 
L 212.507443 90.079861 
L 213.427862 91.942448 
L 214.189626 94.037858 
L 214.784978 96.366092 
L 215.205162 98.927149 
L 215.433217 101.721029 
L 215.43968 104.51491 
L 215.234468 107.095526 
L 214.837792 109.4042 
L 214.303822 111.308827 
L 213.605837 112.995355 
L 212.858611 114.293491 
L 211.959286 115.457608 
L 210.813899 116.555894 
L 209.650591 117.391694 
L 208.039026 118.251488 
L 206.393329 118.893116 
L 204.299375 119.48269 
L 201.740097 119.971722 
L 198.715497 120.326391 
L 195.225573 120.517901 
L 191.502988 120.510163 
L 187.780403 120.280789 
L 184.523141 119.851871 
L 181.963864 119.298558 
L 179.86991 118.629342 
L 178.241279 117.901795 
L 176.845309 117.057029 
L 175.682001 116.113825 
L 174.649292 114.991961 
L 173.820709 113.783097 
L 173.122724 112.411231 
L 172.531421 110.80114 
L 172.017161 108.70573 
L 171.709676 106.61032 
L 171.709676 106.61032 
" style="fill:none;stroke:#35b779;stroke-width:1.5;"/>
    <path clip-path="url(#p38eb23d4ed)" d="M 228.948077 144.793352 
L 228.883854 142.930765 
L 229.026693 141.068178 
L 229.398701 139.205591 
L 229.96075 137.575828 
L 230.683549 136.178887 
L 231.528768 135.014771 
L 232.451425 134.068961 
L 233.643742 133.152184 
L 235.010702 132.371566 
L 236.639333 131.684597 
L 238.733287 131.055052 
L 241.292564 130.540253 
L 244.317165 130.172465 
L 247.807088 129.980676 
L 251.529673 130.003282 
L 255.019597 130.242723 
L 258.044197 130.665981 
L 260.603475 131.250765 
L 262.464767 131.874951 
L 264.190284 132.686537 
L 265.606224 133.61783 
L 266.652675 134.553055 
L 267.609987 135.713241 
L 268.427181 137.110181 
L 268.991578 138.507121 
L 269.444614 140.27216 
L 269.677276 142.084829 
L 269.709826 143.862058 
L 269.540136 145.724645 
L 269.136025 147.587232 
L 268.53659 149.216996 
L 267.767984 150.613936 
L 266.867044 151.778053 
L 265.722029 152.850809 
L 264.558721 153.659376 
L 262.93009 154.492671 
L 261.068798 155.172005 
L 258.742182 155.759296 
L 255.950243 156.211922 
L 252.692981 156.502136 
L 248.970396 156.596687 
L 245.247811 156.460548 
L 241.990549 156.124427 
L 239.19861 155.615897 
L 236.871994 154.957422 
L 235.010702 154.188434 
L 233.614732 153.38848 
L 232.435135 152.476523 
L 231.337672 151.312406 
L 230.543829 150.148289 
L 229.864094 148.751349 
L 229.338094 147.121586 
L 228.99703 145.258999 
L 228.948077 144.793352 
L 228.948077 144.793352 
" style="fill:none;stroke:#35b779;stroke-width:1.5;"/>
    <path clip-path="url(#p38eb23d4ed)" d="M 283.166727 184.838971 
L 283.160289 182.04509 
L 283.363126 179.484033 
L 283.762233 177.1558 
L 284.334955 175.139614 
L 285.03294 173.486836 
L 285.741289 172.266509 
L 286.661571 171.079186 
L 287.866767 169.938275 
L 289.220848 169.002566 
L 290.849479 168.181726 
L 292.710771 167.505211 
L 295.050794 166.911572 
L 297.877064 166.445925 
L 301.086588 166.144287 
L 304.809173 166.020059 
L 308.531758 166.110186 
L 312.021682 166.408578 
L 315.046282 166.890459 
L 317.372898 167.46984 
L 319.23419 168.132367 
L 320.862821 168.934757 
L 322.258791 169.878969 
L 323.344695 170.869569 
L 324.298865 172.033686 
L 325.138628 173.430626 
L 325.837088 175.060389 
L 326.383981 176.922976 
L 326.775299 179.018387 
L 327.018527 181.579444 
L 327.049603 184.373324 
L 326.858927 187.167204 
L 326.446699 189.889054 
L 325.927586 192.056495 
L 325.219162 194.151905 
L 324.352745 196.034787 
L 323.376822 197.644256 
L 322.258791 199.074742 
L 320.883668 200.438136 
L 319.466852 201.532266 
L 317.804968 202.533547 
L 315.976928 203.380268 
L 313.882974 204.105491 
L 311.556359 204.67599 
L 308.997081 205.074023 
L 306.205142 205.275189 
L 303.413204 205.252157 
L 300.621265 205.002675 
L 298.061987 204.553651 
L 295.735372 203.926254 
L 293.641418 203.135375 
L 291.780125 202.19289 
L 290.151494 201.114418 
L 288.755525 199.924716 
L 287.519139 198.575549 
L 286.428909 197.043752 
L 285.486186 195.316022 
L 284.718542 193.453435 
L 284.083961 191.358025 
L 283.55882 188.796968 
L 283.234585 186.003088 
L 283.166727 184.838971 
L 283.166727 184.838971 
" style="fill:none;stroke:#35b779;stroke-width:1.5;"/>
    <path clip-path="url(#p38eb23d4ed)" d="M 283.169979 104.747733 
L 283.157763 101.953853 
L 283.367132 99.159972 
L 283.767607 96.598915 
L 284.339989 94.270682 
L 285.074735 92.175271 
L 285.963586 90.309909 
L 286.987009 88.682921 
L 288.120907 87.285981 
L 289.453509 86.003824 
L 290.849479 84.948889 
L 292.47811 83.982572 
L 294.43714 83.09516 
L 296.517821 82.39669 
L 298.759972 81.860984 
L 301.39074 81.465396 
L 304.111188 81.281365 
L 306.903127 81.313616 
L 309.695066 81.572907 
L 312.254343 82.03234 
L 314.580959 82.671396 
L 316.674913 83.476187 
L 318.536206 84.435322 
L 320.164837 85.534026 
L 321.632819 86.820334 
L 322.8654 88.217274 
L 323.887422 89.705384 
L 324.822361 91.476801 
L 325.641153 93.572211 
L 326.28373 95.900445 
L 326.744684 98.461502 
L 327.01063 101.255382 
L 327.054155 104.049263 
L 326.890314 106.61032 
L 326.537099 108.938554 
L 325.981376 111.076778 
L 325.283391 112.836017 
L 324.585407 114.098906 
L 323.65476 115.348781 
L 322.612114 116.388901 
L 321.328145 117.342754 
L 319.932175 118.114836 
L 318.070883 118.866906 
L 315.976928 119.464395 
L 313.417651 119.959808 
L 310.393051 120.319692 
L 306.903127 120.515807 
L 303.180542 120.512491 
L 299.457957 120.288125 
L 296.200695 119.865253 
L 293.641418 119.319029 
L 291.547464 118.658814 
L 289.918833 117.941915 
L 288.488634 117.087371 
L 287.327292 116.156078 
L 286.249233 114.991961 
L 285.447251 113.827844 
L 284.731356 112.430904 
L 284.102293 110.704943 
L 283.617098 108.70573 
L 283.285987 106.377497 
L 283.169979 104.747733 
L 283.169979 104.747733 
" style="fill:none;stroke:#35b779;stroke-width:1.5;"/>
    <path clip-path="url(#p38eb23d4ed)" d="M 340.626586 145.491822 
L 340.483855 143.629235 
L 340.548203 141.766648 
L 340.829442 139.904061 
L 341.33704 138.140066 
L 341.889022 136.877357 
L 342.733009 135.514729 
L 343.663655 134.43554 
L 344.826963 133.442481 
L 346.009487 132.686537 
L 347.618902 131.921395 
L 349.480195 131.283825 
L 351.80681 130.731421 
L 354.598749 130.30631 
L 357.856011 130.03901 
L 361.578596 129.966188 
L 365.311009 130.12548 
L 368.558443 130.486322 
L 371.117721 130.971072 
L 373.211675 131.562711 
L 375.072967 132.314957 
L 376.556102 133.152184 
L 377.764668 134.083477 
L 378.795552 135.165012 
L 379.516585 136.178887 
L 380.239287 137.575828 
L 380.801202 139.205591 
L 381.17333 141.068178 
L 381.316202 142.930765 
L 381.25179 144.793352 
L 380.970502 146.655939 
L 380.511635 148.285702 
L 379.911036 149.682643 
L 379.209923 150.846759 
L 378.248673 152.010876 
L 377.166921 152.972454 
L 375.770952 153.884338 
L 374.142321 154.654185 
L 372.281028 155.287263 
L 369.954413 155.836036 
L 367.162474 156.25816 
L 363.905212 156.522952 
L 360.182627 156.593369 
L 356.460042 156.432312 
L 353.20278 156.067845 
L 350.643502 155.579826 
L 348.549548 154.984083 
L 346.688256 154.226298 
L 345.24381 153.407816 
L 344.035326 152.476523 
L 342.965671 151.347292 
L 342.267686 150.355386 
L 341.560613 148.984172 
L 340.998806 147.354409 
L 340.626586 145.491822 
L 340.626586 145.491822 
" style="fill:none;stroke:#35b779;stroke-width:1.5;"/>
   </g>
   <g id="LineCollection_6">
    <path clip-path="url(#p38eb23d4ed)" d="M 66.786425 184.838971 
L 66.713542 182.976384 
L 66.856217 181.34662 
L 67.213942 179.716857 
L 67.727033 178.315985 
L 68.47944 176.922976 
L 69.356189 175.75886 
L 70.557808 174.594743 
L 71.914941 173.636967 
L 73.543572 172.804245 
L 75.172203 172.207285 
L 77.266157 171.689274 
L 79.592773 171.365604 
L 81.919388 171.263655 
L 84.246004 171.369123 
L 86.57262 171.696743 
L 88.666574 172.219243 
L 90.295205 172.821057 
L 91.929067 173.663449 
L 93.319805 174.659654 
L 94.483113 175.80459 
L 95.41376 177.070843 
L 96.111744 178.40527 
L 96.651658 179.94968 
L 96.976602 181.579444 
L 97.090877 183.209207 
L 96.986999 185.071794 
L 96.634177 186.934381 
L 96.102523 188.564145 
L 95.322955 190.193908 
L 94.406117 191.590848 
L 93.319805 192.846036 
L 92.115075 193.919082 
L 90.760528 194.852085 
L 89.131897 195.69685 
L 87.270605 196.384199 
L 85.409312 196.835684 
L 83.315358 197.105206 
L 81.221404 197.144819 
L 79.047477 196.945786 
L 77.033495 196.527935 
L 75.172203 195.909272 
L 73.438125 195.083199 
L 71.991257 194.151905 
L 70.751633 193.112431 
L 69.573837 191.823672 
L 68.611967 190.426732 
L 67.79269 188.796968 
L 67.228267 187.167204 
L 66.843218 185.304618 
L 66.786425 184.838971 
L 66.786425 184.838971 
" style="fill:none;stroke:#90d743;stroke-width:1.5;"/>
    <path clip-path="url(#p38eb23d4ed)" d="M 66.794566 104.747733 
L 66.712174 102.885146 
L 66.877432 101.022559 
L 67.26171 99.275383 
L 67.79269 97.763032 
L 68.611967 96.133268 
L 69.588325 94.718119 
L 70.751633 93.447569 
L 71.991257 92.408095 
L 73.438125 91.476801 
L 74.939541 90.746062 
L 76.800834 90.096241 
L 78.662126 89.675765 
L 80.756081 89.436937 
L 82.850035 89.426516 
L 84.943989 89.643609 
L 86.939922 90.079861 
L 88.666574 90.666333 
L 90.362003 91.476801 
L 91.808671 92.408095 
L 93.087144 93.48463 
L 94.250452 94.767172 
L 95.188242 96.133268 
L 96.007244 97.763032 
L 96.577067 99.41192 
L 96.956686 101.255382 
L 97.091324 103.117969 
L 97.005265 104.747733 
L 96.712209 106.377497 
L 96.174812 108.00726 
L 95.466221 109.4042 
L 94.640946 110.568317 
L 93.515253 111.732434 
L 92.156498 112.753852 
L 90.616601 113.595021 
L 88.899236 114.266717 
L 87.037943 114.768141 
L 84.711327 115.143915 
L 82.384712 115.291903 
L 79.963906 115.224784 
L 77.73148 114.954987 
L 75.637526 114.489592 
L 73.713382 113.827844 
L 72.147603 113.059808 
L 70.751633 112.120846 
L 69.566569 111.033964 
L 68.634035 109.869847 
L 67.832609 108.472907 
L 67.26171 107.000993 
L 66.893472 105.446203 
L 66.794566 104.747733 
L 66.794566 104.747733 
" style="fill:none;stroke:#90d743;stroke-width:1.5;"/>
    <path clip-path="url(#p38eb23d4ed)" d="M 126.813424 143.629235 
L 126.86449 142.465118 
L 127.177973 141.301001 
L 127.753718 140.196075 
L 128.451703 139.320414 
L 129.382349 138.489244 
L 130.545657 137.746206 
L 131.954944 137.110181 
L 133.570257 136.62132 
L 135.43155 136.289238 
L 137.525504 136.153163 
L 139.619458 136.249955 
L 141.480751 136.542512 
L 143.109382 136.991216 
L 144.526067 137.575828 
L 145.90132 138.403763 
L 146.838799 139.205591 
L 147.607134 140.136885 
L 148.125163 141.068178 
L 148.494617 142.232295 
L 148.596256 143.396412 
L 148.443212 144.560529 
L 148.016259 145.724645 
L 147.441126 146.655939 
L 146.597653 147.587232 
L 145.435997 148.473337 
L 144.272689 149.10445 
L 142.762172 149.682643 
L 141.015427 150.110984 
L 139.154135 150.352069 
L 137.060181 150.397052 
L 134.966227 150.207883 
L 133.104934 149.818721 
L 131.377224 149.216996 
L 130.035216 148.518526 
L 128.917026 147.689332 
L 128.141388 146.888762 
L 127.50598 145.957469 
L 127.019277 144.793352 
L 126.813424 143.629235 
L 126.813424 143.629235 
" style="fill:none;stroke:#90d743;stroke-width:1.5;"/>
    <path clip-path="url(#p38eb23d4ed)" d="M 178.443155 185.304618 
L 178.30873 183.442031 
L 178.423353 181.579444 
L 178.748244 179.94968 
L 179.225158 178.55274 
L 179.933819 177.1558 
L 180.800556 175.941686 
L 181.884925 174.827566 
L 183.127172 173.881186 
L 184.523141 173.089084 
L 186.151772 172.411702 
L 188.013065 171.871135 
L 190.107019 171.487272 
L 192.433634 171.285208 
L 194.76025 171.29378 
L 197.086866 171.514146 
L 199.18082 171.917889 
L 201.09263 172.499332 
L 202.695262 173.197803 
L 204.234656 174.129096 
L 205.462682 175.148971 
L 206.426818 176.224506 
L 207.203181 177.388623 
L 207.868755 178.785563 
L 208.36785 180.415327 
L 208.629511 182.04509 
L 208.680693 183.907677 
L 208.484823 185.770264 
L 208.104732 187.400028 
L 207.507244 189.029791 
L 206.787943 190.426732 
L 205.825819 191.823672 
L 204.764698 193.000556 
L 203.368728 194.181558 
L 201.962481 195.083199 
L 200.344128 195.862117 
L 198.482835 196.496319 
L 196.621543 196.903779 
L 194.527589 197.129549 
L 192.433634 197.127465 
L 190.33968 196.897348 
L 188.459199 196.480139 
L 186.617095 195.846172 
L 184.988464 195.055598 
L 183.590737 194.151905 
L 182.196525 192.962427 
L 181.033218 191.642755 
L 180.102571 190.238984 
L 179.39246 188.796968 
L 178.828445 187.167204 
L 178.47394 185.515768 
L 178.443155 185.304618 
L 178.443155 185.304618 
" style="fill:none;stroke:#90d743;stroke-width:1.5;"/>
    <path clip-path="url(#p38eb23d4ed)" d="M 178.456054 105.21338 
L 178.313522 103.583616 
L 178.386683 101.721029 
L 178.707279 99.858442 
L 179.207644 98.228679 
L 179.948358 96.598915 
L 180.821904 95.201975 
L 181.99086 93.805035 
L 183.285093 92.640918 
L 184.637323 91.709624 
L 186.151772 90.915213 
L 188.013065 90.21136 
L 189.874357 89.746398 
L 191.968311 89.463618 
L 194.062265 89.411483 
L 196.15622 89.585658 
L 198.017512 89.94224 
L 199.95782 90.545508 
L 201.528721 91.243978 
L 203.136067 92.212003 
L 204.533774 93.339388 
L 205.695344 94.574507 
L 206.646442 95.900445 
L 207.507244 97.530209 
L 208.104732 99.159972 
L 208.487283 100.804655 
L 208.680693 102.652323 
L 208.629511 104.51491 
L 208.36785 106.144673 
L 207.868755 107.774437 
L 207.203181 109.171377 
L 206.393329 110.37827 
L 205.370243 111.499611 
L 204.234656 112.430904 
L 202.903405 113.253007 
L 201.274774 113.992011 
L 199.413482 114.583471 
L 197.319527 115.011494 
L 194.992912 115.254032 
L 192.666296 115.283181 
L 190.33968 115.102888 
L 188.245726 114.742483 
L 186.151772 114.148298 
L 184.523141 113.470916 
L 183.104246 112.663727 
L 181.884925 111.732434 
L 180.758929 110.568317 
L 179.86991 109.29685 
L 179.225158 108.00726 
L 178.706602 106.451346 
L 178.456054 105.21338 
L 178.456054 105.21338 
" style="fill:none;stroke:#90d743;stroke-width:1.5;"/>
    <path clip-path="url(#p38eb23d4ed)" d="M 238.464456 144.094882 
L 238.413845 142.930765 
L 238.619539 141.766648 
L 238.983715 140.835355 
L 239.663933 139.768473 
L 240.402731 138.972768 
L 241.525226 138.111686 
L 242.688534 137.473568 
L 244.237697 136.877357 
L 245.945796 136.456309 
L 247.807088 136.210984 
L 249.901042 136.161705 
L 251.994997 136.346414 
L 253.856289 136.730676 
L 255.48492 137.28466 
L 256.88089 137.990411 
L 257.932154 138.739944 
L 258.858541 139.671238 
L 259.493746 140.602531 
L 259.980531 141.766648 
L 260.186307 142.930765 
L 260.135808 144.094882 
L 259.82207 145.258999 
L 259.357626 146.190292 
L 258.658149 147.121586 
L 257.641106 148.052879 
L 256.415566 148.834472 
L 255.019597 149.45922 
L 253.390966 149.94781 
L 251.529673 150.275458 
L 249.435719 150.407148 
L 247.341765 150.306011 
L 245.480473 150.009103 
L 243.851842 149.555478 
L 242.455872 148.975208 
L 241.279516 148.285702 
L 240.161446 147.354409 
L 239.392662 146.423115 
L 238.874818 145.491822 
L 238.505153 144.327705 
L 238.464456 144.094882 
L 238.464456 144.094882 
" style="fill:none;stroke:#90d743;stroke-width:1.5;"/>
    <path clip-path="url(#p38eb23d4ed)" d="M 289.911907 183.674854 
L 289.99485 181.812267 
L 290.28779 180.182503 
L 290.825036 178.55274 
L 291.547464 177.133236 
L 292.47811 175.850001 
L 293.484918 174.827566 
L 294.804726 173.831006 
L 296.383208 172.964979 
L 298.061987 172.306075 
L 299.92328 171.800249 
L 302.249896 171.420396 
L 304.576511 171.268838 
L 307.036038 171.335216 
L 309.229743 171.598433 
L 311.323697 172.059543 
L 313.286468 172.732156 
L 314.813621 173.477889 
L 316.20959 174.408645 
L 317.433235 175.526036 
L 318.365792 176.690153 
L 319.167456 178.087093 
L 319.715264 179.484033 
L 320.106602 181.113797 
L 320.27818 182.743561 
L 320.235896 184.606147 
L 319.946769 186.468734 
L 319.466852 188.128243 
L 318.768867 189.739111 
L 317.838221 191.273417 
L 316.828767 192.522142 
L 315.60331 193.686259 
L 314.335696 194.617552 
L 312.719666 195.518819 
L 311.091035 196.183757 
L 309.211075 196.712962 
L 307.135789 197.049959 
L 305.041835 197.156525 
L 302.94788 197.037345 
L 300.853926 196.682506 
L 298.992634 196.143092 
L 297.364003 195.462634 
L 295.735372 194.532834 
L 294.32395 193.453435 
L 293.16191 192.289318 
L 292.102514 190.892378 
L 291.308899 189.495438 
L 290.616817 187.78873 
L 290.203365 186.235911 
L 289.945235 184.373324 
L 289.911907 183.674854 
L 289.911907 183.674854 
" style="fill:none;stroke:#90d743;stroke-width:1.5;"/>
    <path clip-path="url(#p38eb23d4ed)" d="M 289.913269 103.583616 
L 289.986647 101.721029 
L 290.30758 99.858442 
L 290.849479 98.119475 
L 291.548005 96.598915 
L 292.47811 95.124858 
L 293.590994 93.805035 
L 294.804726 92.704308 
L 296.236993 91.709624 
L 297.829326 90.880384 
L 299.690618 90.187555 
L 301.551911 89.731591 
L 303.645865 89.457657 
L 305.739819 89.413872 
L 307.833773 89.596565 
L 309.695066 89.961557 
L 311.558678 90.545508 
L 313.18499 91.273097 
L 314.813621 92.266792 
L 316.20959 93.410736 
L 317.372898 94.669949 
L 318.303544 95.993386 
L 319.107123 97.530209 
L 319.705023 99.159972 
L 320.122674 101.022559 
L 320.287801 102.885146 
L 320.205253 104.747733 
L 319.912438 106.377497 
L 319.37475 108.00726 
L 318.666106 109.4042 
L 317.838221 110.572037 
L 316.715236 111.732434 
L 315.495812 112.663727 
L 314.115636 113.451918 
L 312.487005 114.134678 
L 310.625712 114.679666 
L 308.531758 115.06748 
L 306.205142 115.273192 
L 303.878527 115.26805 
L 301.551911 115.051356 
L 299.457957 114.651614 
L 297.507592 114.060668 
L 295.905014 113.362197 
L 294.572064 112.574616 
L 293.408756 111.664335 
L 292.359109 110.568317 
L 291.533591 109.4042 
L 290.825036 108.00726 
L 290.28779 106.377497 
L 289.99485 104.747733 
L 289.913269 103.583616 
L 289.913269 103.583616 
" style="fill:none;stroke:#90d743;stroke-width:1.5;"/>
    <path clip-path="url(#p38eb23d4ed)" d="M 350.156818 144.560529 
L 350.003623 143.396412 
L 350.10558 142.232295 
L 350.474729 141.068178 
L 351.108826 139.972799 
L 351.80681 139.160784 
L 352.880095 138.274298 
L 354.133426 137.546962 
L 355.762057 136.901142 
L 357.390688 136.486383 
L 359.251981 136.224011 
L 361.345935 136.15751 
L 363.439889 136.324447 
L 365.301181 136.68926 
L 366.929812 137.22134 
L 368.325782 137.898528 
L 369.532438 138.739944 
L 370.458823 139.671238 
L 371.117721 140.647031 
L 371.583044 141.774185 
L 371.786423 142.930765 
L 371.735336 144.094882 
L 371.422109 145.258999 
L 370.885059 146.304104 
L 370.187074 147.198402 
L 369.241513 148.052879 
L 368.09312 148.792971 
L 366.644505 149.449819 
L 365.06852 149.929456 
L 363.207227 150.265983 
L 361.113273 150.406449 
L 359.019319 150.313998 
L 357.158026 150.025781 
L 355.529395 149.581979 
L 354.074342 148.984172 
L 352.737457 148.18436 
L 351.761546 147.354409 
L 350.992936 146.423115 
L 350.410841 145.339764 
L 350.156818 144.560529 
L 350.156818 144.560529 
" style="fill:none;stroke:#90d743;stroke-width:1.5;"/>
   </g>
   <g id="LineCollection_7">
    <path clip-path="url(#p38eb23d4ed)" d="M 78.859736 184.140501 
L 78.788049 183.907677 
L 78.741107 183.674854 
L 78.719018 183.442031 
L 78.721919 183.209207 
L 78.749974 182.976384 
L 78.803377 182.743561 
L 78.882348 182.510737 
L 78.894788 182.483073 
L 78.994505 182.277914 
L 79.12745 182.058894 
L 79.136568 182.04509 
L 79.321181 181.812267 
L 79.360111 181.770248 
L 79.554089 181.579444 
L 79.592773 181.546213 
L 79.825434 181.365782 
L 79.853114 181.34662 
L 80.058096 181.220724 
L 80.256044 181.113797 
L 80.290757 181.096953 
L 80.523419 180.999366 
L 80.756081 180.917127 
L 80.881654 180.880974 
L 80.988742 180.852986 
L 81.221404 180.805981 
L 81.454065 180.772761 
L 81.686727 180.753298 
L 81.919388 180.747575 
L 82.15205 180.755587 
L 82.384712 180.777342 
L 82.617373 180.812857 
L 82.850035 180.862163 
L 82.919386 180.880974 
L 83.082696 180.929771 
L 83.315358 181.014563 
L 83.545889 181.113797 
L 83.548019 181.114818 
L 83.780681 181.243342 
L 83.945547 181.34662 
L 84.013343 181.394491 
L 84.246004 181.578199 
L 84.24743 181.579444 
L 84.478666 181.810585 
L 84.480201 181.812267 
L 84.662179 182.04509 
L 84.711327 182.120597 
L 84.805532 182.277914 
L 84.917195 182.510737 
L 84.943989 182.58483 
L 84.997162 182.743561 
L 85.049916 182.976384 
L 85.07763 183.209207 
L 85.080496 183.442031 
L 85.058676 183.674854 
L 85.012303 183.907677 
L 84.943989 184.13228 
L 84.94129 184.140501 
L 84.838624 184.373324 
L 84.711327 184.603283 
L 84.709604 184.606147 
L 84.541263 184.838971 
L 84.478666 184.913126 
L 84.331918 185.071794 
L 84.246004 185.1531 
L 84.068953 185.304618 
L 84.013343 185.346967 
L 83.780681 185.505443 
L 83.727439 185.537441 
L 83.548019 185.634674 
L 83.315358 185.743944 
L 83.249208 185.770264 
L 83.082696 185.830654 
L 82.850035 185.899839 
L 82.617373 185.953867 
L 82.384712 185.992782 
L 82.284141 186.003088 
L 82.15205 186.01554 
L 81.919388 186.02362 
L 81.686727 186.017849 
L 81.511726 186.003088 
L 81.454065 185.997801 
L 81.221404 185.961401 
L 80.988742 185.909895 
L 80.756081 185.84324 
L 80.548656 185.770264 
L 80.523419 185.760524 
L 80.290757 185.654053 
L 80.070714 185.537441 
L 80.058096 185.530025 
L 79.825434 185.37469 
L 79.731775 185.304618 
L 79.592773 185.187753 
L 79.468258 185.071794 
L 79.360111 184.956729 
L 79.259235 184.838971 
L 79.12745 184.659368 
L 79.091571 184.606147 
L 78.960973 184.373324 
L 78.894788 184.225254 
L 78.859736 184.140501 
" style="fill:none;stroke:#fde725;stroke-width:1.5;"/>
    <path clip-path="url(#p38eb23d4ed)" d="M 78.882348 104.049263 
L 78.803377 103.816439 
L 78.749974 103.583616 
L 78.721919 103.350793 
L 78.719018 103.117969 
L 78.741107 102.885146 
L 78.788049 102.652323 
L 78.859736 102.419499 
L 78.894788 102.334746 
L 78.960973 102.186676 
L 79.091571 101.953853 
L 79.12745 101.900632 
L 79.259235 101.721029 
L 79.360111 101.603271 
L 79.468258 101.488206 
L 79.592773 101.372247 
L 79.731775 101.255382 
L 79.825434 101.18531 
L 80.058096 101.029975 
L 80.070714 101.022559 
L 80.290757 100.905947 
L 80.523419 100.799476 
L 80.548656 100.789736 
L 80.756081 100.71676 
L 80.988742 100.650105 
L 81.221404 100.598599 
L 81.454065 100.562199 
L 81.511726 100.556912 
L 81.686727 100.542151 
L 81.919388 100.53638 
L 82.15205 100.54446 
L 82.284141 100.556912 
L 82.384712 100.567218 
L 82.617373 100.606133 
L 82.850035 100.660161 
L 83.082696 100.729346 
L 83.249208 100.789736 
L 83.315358 100.816056 
L 83.548019 100.925326 
L 83.727439 101.022559 
L 83.780681 101.054557 
L 84.013343 101.213033 
L 84.068953 101.255382 
L 84.246004 101.4069 
L 84.331918 101.488206 
L 84.478666 101.646874 
L 84.541263 101.721029 
L 84.709604 101.953853 
L 84.711327 101.956717 
L 84.838624 102.186676 
L 84.94129 102.419499 
L 84.943989 102.42772 
L 85.012303 102.652323 
L 85.058676 102.885146 
L 85.080496 103.117969 
L 85.07763 103.350793 
L 85.049916 103.583616 
L 84.997162 103.816439 
L 84.943989 103.97517 
L 84.917195 104.049263 
L 84.805532 104.282086 
L 84.711327 104.439403 
L 84.662179 104.51491 
L 84.480201 104.747733 
L 84.478666 104.749415 
L 84.24743 104.980556 
L 84.246004 104.981801 
L 84.013343 105.165509 
L 83.945547 105.21338 
L 83.780681 105.316658 
L 83.548019 105.445182 
L 83.545889 105.446203 
L 83.315358 105.545437 
L 83.082696 105.630229 
L 82.919386 105.679026 
L 82.850035 105.697837 
L 82.617373 105.747143 
L 82.384712 105.782658 
L 82.15205 105.804413 
L 81.919388 105.812425 
L 81.686727 105.806702 
L 81.454065 105.787239 
L 81.221404 105.754019 
L 80.988742 105.707014 
L 80.881654 105.679026 
L 80.756081 105.642873 
L 80.523419 105.560634 
L 80.290757 105.463047 
L 80.256044 105.446203 
L 80.058096 105.339276 
L 79.853114 105.21338 
L 79.825434 105.194218 
L 79.592773 105.013787 
L 79.554089 104.980556 
L 79.360111 104.789752 
L 79.321181 104.747733 
L 79.136568 104.51491 
L 79.12745 104.501106 
L 78.994505 104.282086 
L 78.894788 104.076927 
L 78.882348 104.049263 
" style="fill:none;stroke:#fde725;stroke-width:1.5;"/>
    <path clip-path="url(#p38eb23d4ed)" d="M 190.339223 183.674854 
L 190.318168 183.442031 
L 190.320934 183.209207 
L 190.33968 183.045975 
L 190.348279 182.976384 
L 190.403028 182.743561 
L 190.483991 182.510737 
L 190.572342 182.319236 
L 190.592991 182.277914 
L 190.73819 182.04509 
L 190.805003 181.955863 
L 190.922336 181.812267 
L 191.037665 181.691467 
L 191.155367 181.579444 
L 191.270327 181.483885 
L 191.453924 181.34662 
L 191.502988 181.314079 
L 191.73565 181.176926 
L 191.858055 181.113797 
L 191.968311 181.062714 
L 192.200973 180.970252 
L 192.433634 180.893112 
L 192.479247 180.880974 
L 192.666296 180.835784 
L 192.898958 180.793378 
L 193.131619 180.764746 
L 193.364281 180.749864 
L 193.596942 180.74872 
L 193.829604 180.761311 
L 194.062265 180.78765 
L 194.294927 180.827758 
L 194.524583 180.880974 
L 194.527589 180.881741 
L 194.76025 180.956333 
L 194.992912 181.046236 
L 195.142264 181.113797 
L 195.225573 181.155746 
L 195.458235 181.290019 
L 195.545185 181.34662 
L 195.690896 181.453541 
L 195.844934 181.579444 
L 195.923558 181.653023 
L 196.077943 181.812267 
L 196.15622 181.906604 
L 196.261391 182.04509 
L 196.388881 182.246685 
L 196.40709 182.277914 
L 196.515898 182.510737 
L 196.597896 182.743561 
L 196.621543 182.842821 
L 196.651082 182.976384 
L 196.67814 183.209207 
L 196.680938 183.442031 
L 196.659634 183.674854 
L 196.621543 183.870758 
L 196.613811 183.907677 
L 196.539377 184.140501 
L 196.439336 184.373324 
L 196.388881 184.466928 
L 196.3075 184.606147 
L 196.15622 184.821372 
L 196.142706 184.838971 
L 195.934018 185.071794 
L 195.923558 185.082009 
L 195.690896 185.288154 
L 195.670204 185.304618 
L 195.458235 185.454711 
L 195.32642 185.537441 
L 195.225573 185.59451 
L 194.992912 185.709387 
L 194.848568 185.770264 
L 194.76025 185.804213 
L 194.527589 185.878464 
L 194.294927 185.937539 
L 194.062265 185.981487 
L 193.888144 186.003088 
L 193.829604 186.009769 
L 193.596942 186.022466 
L 193.364281 186.021311 
L 193.131619 186.006305 
L 193.105683 186.003088 
L 192.898958 185.975211 
L 192.666296 185.928744 
L 192.433634 185.867145 
L 192.200973 185.790359 
L 192.150136 185.770264 
L 191.968311 185.691409 
L 191.73565 185.573725 
L 191.672863 185.537441 
L 191.502988 185.428561 
L 191.331188 185.304618 
L 191.270327 185.255279 
L 191.066716 185.071794 
L 191.037665 185.041886 
L 190.85854 184.838971 
L 190.805003 184.768172 
L 190.692712 184.606147 
L 190.572342 184.397297 
L 190.559587 184.373324 
L 190.460809 184.140501 
L 190.387314 183.907677 
L 190.33968 183.677237 
L 190.339223 183.674854 
" style="fill:none;stroke:#fde725;stroke-width:1.5;"/>
    <path clip-path="url(#p38eb23d4ed)" d="M 190.320934 103.350793 
L 190.318168 103.117969 
L 190.339223 102.885146 
L 190.33968 102.882763 
L 190.387314 102.652323 
L 190.460809 102.419499 
L 190.559587 102.186676 
L 190.572342 102.162703 
L 190.692712 101.953853 
L 190.805003 101.791828 
L 190.85854 101.721029 
L 191.037665 101.518114 
L 191.066716 101.488206 
L 191.270327 101.304721 
L 191.331188 101.255382 
L 191.502988 101.131439 
L 191.672863 101.022559 
L 191.73565 100.986275 
L 191.968311 100.868591 
L 192.150136 100.789736 
L 192.200973 100.769641 
L 192.433634 100.692855 
L 192.666296 100.631256 
L 192.898958 100.584789 
L 193.105683 100.556912 
L 193.131619 100.553695 
L 193.364281 100.538689 
L 193.596942 100.537534 
L 193.829604 100.550231 
L 193.888144 100.556912 
L 194.062265 100.578513 
L 194.294927 100.622461 
L 194.527589 100.681536 
L 194.76025 100.755787 
L 194.848568 100.789736 
L 194.992912 100.850613 
L 195.225573 100.96549 
L 195.32642 101.022559 
L 195.458235 101.105289 
L 195.670204 101.255382 
L 195.690896 101.271846 
L 195.923558 101.477991 
L 195.934018 101.488206 
L 196.142706 101.721029 
L 196.15622 101.738628 
L 196.3075 101.953853 
L 196.388881 102.093072 
L 196.439336 102.186676 
L 196.539377 102.419499 
L 196.613811 102.652323 
L 196.621543 102.689242 
L 196.659634 102.885146 
L 196.680938 103.117969 
L 196.67814 103.350793 
L 196.651082 103.583616 
L 196.621543 103.717179 
L 196.597896 103.816439 
L 196.515898 104.049263 
L 196.40709 104.282086 
L 196.388881 104.313315 
L 196.261391 104.51491 
L 196.15622 104.653396 
L 196.077943 104.747733 
L 195.923558 104.906977 
L 195.844934 104.980556 
L 195.690896 105.106459 
L 195.545185 105.21338 
L 195.458235 105.269981 
L 195.225573 105.404254 
L 195.142264 105.446203 
L 194.992912 105.513764 
L 194.76025 105.603667 
L 194.527589 105.678259 
L 194.524583 105.679026 
L 194.294927 105.732242 
L 194.062265 105.77235 
L 193.829604 105.798689 
L 193.596942 105.81128 
L 193.364281 105.810136 
L 193.131619 105.795254 
L 192.898958 105.766622 
L 192.666296 105.724216 
L 192.479247 105.679026 
L 192.433634 105.666888 
L 192.200973 105.589748 
L 191.968311 105.497286 
L 191.858055 105.446203 
L 191.73565 105.383074 
L 191.502988 105.245921 
L 191.453924 105.21338 
L 191.270327 105.076115 
L 191.155367 104.980556 
L 191.037665 104.868533 
L 190.922336 104.747733 
L 190.805003 104.604137 
L 190.73819 104.51491 
L 190.592991 104.282086 
L 190.572342 104.240764 
L 190.483991 104.049263 
L 190.403028 103.816439 
L 190.348279 103.583616 
L 190.33968 103.514025 
L 190.320934 103.350793 
" style="fill:none;stroke:#fde725;stroke-width:1.5;"/>
    <path clip-path="url(#p38eb23d4ed)" d="M 301.986888 183.907677 
L 301.941072 183.674854 
L 301.919513 183.442031 
L 301.922344 183.209207 
L 301.949727 182.976384 
L 302.001848 182.743561 
L 302.017234 182.697054 
L 302.083713 182.510737 
L 302.19393 182.277914 
L 302.249896 182.183194 
L 302.338494 182.04509 
L 302.482557 181.858085 
L 302.521173 181.812267 
L 302.715219 181.615208 
L 302.754096 181.579444 
L 302.94788 181.423743 
L 303.055005 181.34662 
L 303.180542 181.26644 
L 303.413204 181.135043 
L 303.456446 181.113797 
L 303.645865 181.030186 
L 303.878527 180.94284 
L 304.078287 180.880974 
L 304.111188 180.871725 
L 304.34385 180.820116 
L 304.576511 180.782305 
L 304.809173 180.758258 
L 305.041835 180.747957 
L 305.274496 180.75139 
L 305.507158 180.768562 
L 305.739819 180.799488 
L 305.972481 180.844193 
L 306.118743 180.880974 
L 306.205142 180.904908 
L 306.437804 180.984596 
L 306.670466 181.079619 
L 306.742529 181.113797 
L 306.903127 181.198586 
L 307.135789 181.338621 
L 307.14763 181.34662 
L 307.36845 181.514775 
L 307.444969 181.579444 
L 307.601112 181.730542 
L 307.677965 181.812267 
L 307.833773 182.005865 
L 307.86274 182.04509 
L 308.00598 182.277914 
L 308.066435 182.400594 
L 308.116599 182.510737 
L 308.196554 182.743561 
L 308.250621 182.976384 
L 308.279026 183.209207 
L 308.281963 183.442031 
L 308.259599 183.674854 
L 308.212072 183.907677 
L 308.139493 184.140501 
L 308.066435 184.314914 
L 308.039965 184.373324 
L 307.907605 184.606147 
L 307.833773 184.714171 
L 307.740822 184.838971 
L 307.601112 184.999649 
L 307.532187 185.071794 
L 307.36845 185.221813 
L 307.268165 185.304618 
L 307.135789 185.401888 
L 306.928605 185.537441 
L 306.903127 185.55247 
L 306.670466 185.672965 
L 306.452124 185.770264 
L 306.437804 185.77608 
L 306.205142 185.855403 
L 305.972481 185.91953 
L 305.739819 185.968516 
L 305.507158 186.002402 
L 305.498681 186.003088 
L 305.274496 186.019773 
L 305.041835 186.023235 
L 304.809173 186.012847 
L 304.715513 186.003088 
L 304.576511 185.987344 
L 304.34385 185.945912 
L 304.111188 185.889362 
L 303.878527 185.817645 
L 303.751682 185.770264 
L 303.645865 185.726898 
L 303.413204 185.614826 
L 303.273497 185.537441 
L 303.180542 185.480338 
L 302.94788 185.318718 
L 302.929684 185.304618 
L 302.715219 185.117852 
L 302.667315 185.071794 
L 302.482557 184.868839 
L 302.457707 184.838971 
L 302.291736 184.606147 
L 302.249896 184.53559 
L 302.161266 184.373324 
L 302.05993 184.140501 
L 302.017234 184.008699 
L 301.986888 183.907677 
" style="fill:none;stroke:#fde725;stroke-width:1.5;"/>
    <path clip-path="url(#p38eb23d4ed)" d="M 302.001848 103.816439 
L 301.949727 103.583616 
L 301.922344 103.350793 
L 301.919513 103.117969 
L 301.941072 102.885146 
L 301.986888 102.652323 
L 302.017234 102.551301 
L 302.05993 102.419499 
L 302.161266 102.186676 
L 302.249896 102.02441 
L 302.291736 101.953853 
L 302.457707 101.721029 
L 302.482557 101.691161 
L 302.667315 101.488206 
L 302.715219 101.442148 
L 302.929684 101.255382 
L 302.94788 101.241282 
L 303.180542 101.079662 
L 303.273497 101.022559 
L 303.413204 100.945174 
L 303.645865 100.833102 
L 303.751682 100.789736 
L 303.878527 100.742355 
L 304.111188 100.670638 
L 304.34385 100.614088 
L 304.576511 100.572656 
L 304.715513 100.556912 
L 304.809173 100.547153 
L 305.041835 100.536765 
L 305.274496 100.540227 
L 305.498681 100.556912 
L 305.507158 100.557598 
L 305.739819 100.591484 
L 305.972481 100.64047 
L 306.205142 100.704597 
L 306.437804 100.78392 
L 306.452124 100.789736 
L 306.670466 100.887035 
L 306.903127 101.00753 
L 306.928605 101.022559 
L 307.135789 101.158112 
L 307.268165 101.255382 
L 307.36845 101.338187 
L 307.532187 101.488206 
L 307.601112 101.560351 
L 307.740822 101.721029 
L 307.833773 101.845829 
L 307.907605 101.953853 
L 308.039965 102.186676 
L 308.066435 102.245086 
L 308.139493 102.419499 
L 308.212072 102.652323 
L 308.259599 102.885146 
L 308.281963 103.117969 
L 308.279026 103.350793 
L 308.250621 103.583616 
L 308.196554 103.816439 
L 308.116599 104.049263 
L 308.066435 104.159406 
L 308.00598 104.282086 
L 307.86274 104.51491 
L 307.833773 104.554135 
L 307.677965 104.747733 
L 307.601112 104.829458 
L 307.444969 104.980556 
L 307.36845 105.045225 
L 307.14763 105.21338 
L 307.135789 105.221379 
L 306.903127 105.361414 
L 306.742529 105.446203 
L 306.670466 105.480381 
L 306.437804 105.575404 
L 306.205142 105.655092 
L 306.118743 105.679026 
L 305.972481 105.715807 
L 305.739819 105.760512 
L 305.507158 105.791438 
L 305.274496 105.80861 
L 305.041835 105.812043 
L 304.809173 105.801742 
L 304.576511 105.777695 
L 304.34385 105.739884 
L 304.111188 105.688275 
L 304.078287 105.679026 
L 303.878527 105.61716 
L 303.645865 105.529814 
L 303.456446 105.446203 
L 303.413204 105.424957 
L 303.180542 105.29356 
L 303.055005 105.21338 
L 302.94788 105.136257 
L 302.754096 104.980556 
L 302.715219 104.944792 
L 302.521173 104.747733 
L 302.482557 104.701915 
L 302.338494 104.51491 
L 302.249896 104.376806 
L 302.19393 104.282086 
L 302.083713 104.049263 
L 302.017234 103.862946 
L 302.001848 103.816439 
" style="fill:none;stroke:#fde725;stroke-width:1.5;"/>
   </g>
   <g id="line2d_1">
    <path clip-path="url(#p38eb23d4ed)" d="M 54 195.36 
L 388.8 195.36 
" style="fill:none;stroke:#ff0000;stroke-linecap:square;stroke-width:1.5;"/>
   </g>
   <g id="line2d_2">
    <path clip-path="url(#p38eb23d4ed)" d="M 54 91.2 
L 388.8 91.2 
" style="fill:none;stroke:#ff0000;stroke-linecap:square;stroke-width:1.5;"/>
   </g>
   <g id="patch_3">
    <path d="M 54 252 
L 54 34.56 
" style="fill:none;stroke:#000000;stroke-linecap:square;stroke-linejoin:miter;stroke-width:0.8;"/>
   </g>
   <g id="patch_4">
    <path d="M 388.8 252 
L 388.8 34.56 
" style="fill:none;stroke:#000000;stroke-linecap:square;stroke-linejoin:miter;stroke-width:0.8;"/>
   </g>
   <g id="patch_5">
    <path d="M 54 252 
L 388.8 252 
" style="fill:none;stroke:#000000;stroke-linecap:square;stroke-linejoin:miter;stroke-width:0.8;"/>
   </g>
   <g id="patch_6">
    <path d="M 54 34.56 
L 388.8 34.56 
" style="fill:none;stroke:#000000;stroke-linecap:square;stroke-linejoin:miter;stroke-width:0.8;"/>
   </g>
  </g>
 </g>
 <defs>
  <clipPath id="p38eb23d4ed">
   <rect height="217.44" width="334.8" x="54" y="34.56"/>
  </clipPath>
 </defs>
</svg>
