<?xml version="1.0" encoding="utf-8" standalone="no"?>
<!DOCTYPE svg PUBLIC "-//W3C//DTD SVG 1.1//EN"
  "http://www.w3.org/Graphics/SVG/1.1/DTD/svg11.dtd">
<!-- Created with matplotlib (http://matplotlib.org/) -->
<svg height="288pt" version="1.1" viewBox="0 0 432 288" width="432pt" xmlns="http://www.w3.org/2000/svg" xmlns:xlink="http://www.w3.org/1999/xlink">
 <defs>
  <style type="text/css">
*{stroke-linecap:butt;stroke-linejoin:round;}
  </style>
 </defs>
 <g id="figure_1">
  <g id="patch_1">
   <path d="M 0 288 
L 432 288 
L 432 0 
L 0 0 
z
" style="fill:#ffffff;"/>
  </g>
  <g id="axes_1">
   <g id="patch_2">
    <path d="M 54 252 
L 388.8 252 
L 388.8 34.56 
L 54 34.56 
z
" style="fill:#ffffff;"/>
   </g>
   <g id="matplotlib.axis_1"/>
   <g id="matplotlib.axis_2"/>
   <g id="LineCollection_1">
    <path clip-path="url(#p345c5c0a5e)" d="M 200.101228 144.327705 
L 200.331559 146.655939 
L 200.754231 148.751349 
L 201.396787 150.846759 
L 202.285684 152.94217 
L 203.368728 154.887693 
L 204.624102 156.667344 
L 206.05551 158.297107 
L 207.566196 159.694047 
L 209.185268 160.914493 
L 211.04656 162.040549 
L 213.140514 163.018367 
L 215.234468 163.73827 
L 217.328423 164.231168 
L 219.655038 164.535314 
L 221.981654 164.595623 
L 224.30827 164.414297 
L 226.402224 164.038716 
L 228.580533 163.419221 
L 230.590132 162.617925 
L 232.451425 161.649069 
L 234.312717 160.419059 
L 235.941348 159.074816 
L 237.395962 157.598637 
L 238.733287 155.926345 
L 239.899445 154.106287 
L 240.840457 152.2437 
L 241.643179 150.148289 
L 242.223211 147.992224 
L 242.589811 145.724645 
L 242.722739 143.396412 
L 242.614061 141.068178 
L 242.30638 138.972768 
L 241.757887 136.775939 
L 241.040868 134.781947 
L 240.129256 132.868612 
L 238.965949 130.965094 
L 237.798042 129.42701 
L 236.274272 127.797246 
L 234.6545 126.400306 
L 232.916748 125.191747 
L 231.055455 124.162418 
L 229.194163 123.360481 
L 227.030675 122.675132 
L 225.006254 122.247906 
L 222.9123 122.007759 
L 220.585685 121.971552 
L 218.259069 122.177199 
L 216.165115 122.575993 
L 214.071161 123.191947 
L 211.931575 124.072072 
L 210.115914 125.049206 
L 208.254621 126.316313 
L 206.62599 127.701789 
L 205.199944 129.194186 
L 203.834051 130.965094 
L 202.77028 132.686537 
L 201.857941 134.549124 
L 201.082555 136.644534 
L 200.540376 138.739944 
L 200.185939 141.068178 
L 200.077261 143.396412 
L 200.101228 144.327705 
L 200.101228 144.327705 
" style="fill:none;stroke:#440154;stroke-width:1.5;"/>
   </g>
   <g id="LineCollection_2">
    <path clip-path="url(#p345c5c0a5e)" d="M 173.111316 148.285702 
L 173.492622 152.010876 
L 174.096491 155.73605 
L 174.884483 159.228401 
L 175.837815 162.487928 
L 176.939172 165.514631 
L 178.283825 168.541335 
L 179.782131 171.335216 
L 181.417631 173.896273 
L 183.170124 176.224506 
L 185.013808 178.319917 
L 187.082418 180.333763 
L 189.176372 182.082898 
L 191.502988 183.75005 
L 194.062265 185.308984 
L 196.854204 186.738315 
L 199.878805 188.020897 
L 202.903405 189.06969 
L 206.160667 189.974153 
L 209.650591 190.716056 
L 213.373176 191.275986 
L 217.095761 191.616751 
L 221.051008 191.751551 
L 225.006254 191.657268 
L 228.961501 191.330298 
L 232.684086 190.798617 
L 236.17401 190.085965 
L 239.663933 189.141612 
L 242.921195 188.020897 
L 245.945796 186.738315 
L 248.745524 185.304618 
L 251.41017 183.674854 
L 253.672304 182.04509 
L 255.950243 180.12263 
L 258.044197 178.045326 
L 259.90549 175.882236 
L 261.542909 173.663449 
L 263.162752 171.086252 
L 264.62921 168.308512 
L 265.860828 165.514631 
L 266.962185 162.487928 
L 267.915517 159.228401 
L 268.703509 155.73605 
L 269.307378 152.010876 
L 269.688684 148.285702 
L 269.864448 144.327705 
L 269.810499 140.369708 
L 269.524816 136.411711 
L 269.034439 132.686537 
L 268.363956 129.194186 
L 267.466931 125.701836 
L 266.397105 122.442309 
L 265.169677 119.415605 
L 263.800869 116.621725 
L 262.232106 113.940206 
L 260.541184 111.499611 
L 258.640345 109.171377 
L 256.630424 107.075967 
L 254.543449 105.21338 
L 252.227658 103.445495 
L 249.901042 101.927304 
L 247.341765 100.504185 
L 244.459926 99.159972 
L 241.432331 97.995855 
L 238.267964 97.010877 
L 234.77804 96.16266 
L 231.288117 95.535543 
L 227.565532 95.087179 
L 223.610285 94.843269 
L 219.655038 94.82981 
L 215.699792 95.046289 
L 211.977206 95.467373 
L 208.254621 96.114229 
L 204.764698 96.946945 
L 201.507436 97.947572 
L 198.482835 99.099674 
L 195.690896 100.386132 
L 192.898958 101.927304 
L 190.572342 103.445495 
L 188.245726 105.222328 
L 186.151772 107.093125 
L 184.159655 109.171377 
L 182.429187 111.274588 
L 180.790501 113.595021 
L 179.252298 116.156078 
L 177.841625 118.949958 
L 176.576147 121.976662 
L 175.471311 125.236189 
L 174.59645 128.495716 
L 173.882726 131.988067 
L 173.350263 135.713241 
L 173.035609 139.438414 
L 172.927628 143.396412 
L 173.04914 147.354409 
L 173.111316 148.285702 
L 173.111316 148.285702 
" style="fill:none;stroke:#443983;stroke-width:1.5;"/>
   </g>
   <g id="LineCollection_3">
    <path clip-path="url(#p345c5c0a5e)" d="M 154.501794 150.846759 
L 154.885038 156.667344 
L 155.451818 162.022281 
L 156.218892 167.144395 
L 157.147194 171.800862 
L 158.215683 175.991683 
L 159.397626 179.716857 
L 160.65699 182.976384 
L 162.062923 186.003088 
L 163.615561 188.796968 
L 165.311314 191.358025 
L 167.073523 193.607628 
L 168.934816 195.631263 
L 171.02877 197.569363 
L 173.191416 199.274019 
L 175.682001 200.941602 
L 178.241279 202.392602 
L 181.033218 203.733178 
L 184.290479 205.041334 
L 187.780403 206.198379 
L 191.73565 207.265338 
L 196.15622 208.211207 
L 200.809451 208.978858 
L 205.928006 209.60036 
L 211.511883 210.05251 
L 217.328423 210.302732 
L 223.377623 210.341193 
L 229.426824 210.156046 
L 235.288713 209.751071 
L 240.59458 209.169847 
L 245.480473 208.423269 
L 249.901042 207.537289 
L 254.088951 206.470802 
L 257.811536 205.291241 
L 261.068798 204.034694 
L 264.093398 202.632158 
L 266.885337 201.083604 
L 269.444614 199.392774 
L 271.683095 197.644256 
L 273.714554 195.781669 
L 275.659461 193.686259 
L 277.355108 191.541914 
L 278.983739 189.124022 
L 280.49691 186.468734 
L 281.840772 183.674854 
L 283.151926 180.415327 
L 284.311375 176.922976 
L 285.323734 173.197803 
L 286.2389 169.006982 
L 287.029218 164.350515 
L 287.67135 159.228401 
L 288.142596 153.64064 
L 288.410446 147.820056 
L 288.466114 141.766648 
L 288.298206 135.713241 
L 287.914962 129.892656 
L 287.348182 124.537719 
L 286.581108 119.415605 
L 285.652806 114.759138 
L 284.584317 110.568317 
L 283.402374 106.843143 
L 282.14301 103.583616 
L 280.737077 100.556912 
L 279.184439 97.763032 
L 277.488686 95.201975 
L 275.726477 92.952372 
L 273.865184 90.928737 
L 271.77123 88.990637 
L 269.608584 87.285981 
L 267.117999 85.618398 
L 264.558721 84.167398 
L 261.766782 82.826822 
L 258.509521 81.518666 
L 255.019597 80.361621 
L 251.06435 79.294662 
L 246.64378 78.348793 
L 241.990549 77.581142 
L 236.871994 76.95964 
L 231.288117 76.50749 
L 225.471577 76.257268 
L 219.422377 76.218807 
L 213.373176 76.403954 
L 207.511287 76.808929 
L 202.20542 77.390153 
L 197.319527 78.136731 
L 192.898958 79.022711 
L 188.711049 80.089198 
L 184.988464 81.268759 
L 181.731202 82.525306 
L 178.706602 83.927842 
L 175.914663 85.476396 
L 173.355386 87.167226 
L 171.116905 88.915744 
L 169.085446 90.778331 
L 167.140539 92.873741 
L 165.444892 95.018086 
L 163.816261 97.435978 
L 162.30309 100.091266 
L 160.959228 102.885146 
L 159.648074 106.144673 
L 158.488625 109.637024 
L 157.476266 113.362197 
L 156.5611 117.553018 
L 155.770782 122.209485 
L 155.12865 127.331599 
L 154.657404 132.91936 
L 154.389554 138.739944 
L 154.333886 144.793352 
L 154.501794 150.846759 
L 154.501794 150.846759 
" style="fill:none;stroke:#31688e;stroke-width:1.5;"/>
   </g>
   <g id="LineCollection_4">
    <path clip-path="url(#p345c5c0a5e)" d="M 54 59.58 
L 137.525504 59.58 
L 137.7 59.812823 
L 137.7 226.747177 
L 137.525504 226.98 
L 54 226.98 
L 54 226.98 
" style="fill:none;stroke:#21908d;stroke-width:1.5;"/>
    <path clip-path="url(#p345c5c0a5e)" d="M 388.8 226.98 
L 305.274496 226.98 
L 305.1 226.747177 
L 305.1 59.812823 
L 305.274496 59.58 
L 388.8 59.58 
L 388.8 59.58 
" style="fill:none;stroke:#21908d;stroke-width:1.5;"/>
   </g>
   <g id="LineCollection_5">
    <path clip-path="url(#p345c5c0a5e)" d="M 54 76.206961 
L 60.049201 76.318334 
L 65.86574 76.642694 
L 71.449618 77.174563 
L 76.568172 77.88168 
L 81.221404 78.743169 
L 85.409312 79.736831 
L 89.131897 80.835401 
L 92.621821 82.095456 
L 95.646421 83.413214 
L 98.43836 84.863273 
L 100.997637 86.439934 
L 103.324253 88.131872 
L 105.418207 89.919968 
L 107.434323 91.942448 
L 109.212728 94.037858 
L 110.896001 96.366092 
L 112.465012 98.927149 
L 113.908303 101.721029 
L 115.220134 104.747733 
L 116.47456 108.240083 
L 117.568254 111.965257 
L 118.557311 116.156078 
L 119.41453 120.812545 
L 120.117552 125.934659 
L 120.627886 131.289597 
L 120.95714 137.110181 
L 121.073005 143.163588 
L 120.965774 149.216996 
L 120.645381 155.03758 
L 120.117552 160.625341 
L 119.41453 165.747455 
L 118.557311 170.403922 
L 117.568254 174.594743 
L 116.47456 178.319917 
L 115.220134 181.812267 
L 113.908303 184.838971 
L 112.398054 187.751304 
L 110.896001 190.193908 
L 109.140792 192.613545 
L 107.2795 194.785069 
L 105.339033 196.712962 
L 103.136163 198.575549 
L 100.869843 200.205313 
L 98.43836 201.696727 
L 95.646421 203.146786 
L 92.621821 204.464544 
L 89.364559 205.648094 
L 85.641974 206.760956 
L 81.454065 207.767473 
L 77.033495 208.60228 
L 72.147603 209.302235 
L 66.796386 209.844407 
L 60.979847 210.204478 
L 54.930646 210.350417 
L 54 210.353039 
L 54 210.353039 
" style="fill:none;stroke:#35b779;stroke-width:1.5;"/>
    <path clip-path="url(#p345c5c0a5e)" d="M 388.8 210.353039 
L 382.750799 210.241666 
L 376.93426 209.917306 
L 371.350382 209.385437 
L 366.231828 208.67832 
L 361.578596 207.816831 
L 357.390688 206.823169 
L 353.668103 205.724599 
L 350.178179 204.464544 
L 347.153579 203.146786 
L 344.36164 201.696727 
L 341.802363 200.120066 
L 339.475747 198.428128 
L 337.381793 196.640032 
L 335.365677 194.617552 
L 333.587272 192.522142 
L 331.903999 190.193908 
L 330.334988 187.632851 
L 328.891697 184.838971 
L 327.579866 181.812267 
L 326.32544 178.319917 
L 325.231746 174.594743 
L 324.242689 170.403922 
L 323.38547 165.747455 
L 322.682448 160.625341 
L 322.172114 155.270403 
L 321.84286 149.449819 
L 321.726995 143.396412 
L 321.834226 137.343004 
L 322.154619 131.52242 
L 322.682448 125.934659 
L 323.38547 120.812545 
L 324.242689 116.156078 
L 325.231746 111.965257 
L 326.32544 108.240083 
L 327.579866 104.747733 
L 328.891697 101.721029 
L 330.401946 98.808696 
L 331.903999 96.366092 
L 333.659208 93.946455 
L 335.5205 91.774931 
L 337.460967 89.847038 
L 339.663837 87.984451 
L 341.930157 86.354687 
L 344.36164 84.863273 
L 347.153579 83.413214 
L 350.178179 82.095456 
L 353.435441 80.911906 
L 357.158026 79.799044 
L 361.345935 78.792527 
L 365.766505 77.95772 
L 370.652397 77.257765 
L 376.003614 76.715593 
L 381.820153 76.355522 
L 387.869354 76.209583 
L 388.8 76.206961 
L 388.8 76.206961 
" style="fill:none;stroke:#35b779;stroke-width:1.5;"/>
   </g>
   <g id="LineCollection_6">
    <path clip-path="url(#p345c5c0a5e)" d="M 54 94.80756 
L 57.955247 94.922089 
L 61.677832 95.242965 
L 65.400417 95.781686 
L 68.890341 96.501619 
L 72.380264 97.454211 
L 75.637526 98.583884 
L 78.662126 99.876207 
L 81.454065 101.316449 
L 84.013343 102.887133 
L 86.339958 104.567652 
L 88.48469 106.377497 
L 90.605243 108.472907 
L 92.418141 110.568317 
L 94.142794 112.896551 
L 95.753342 115.457608 
L 97.229235 118.251488 
L 98.460899 121.045369 
L 99.601668 124.193075 
L 100.532314 127.3966 
L 101.303482 130.82395 
L 101.907443 134.549124 
L 102.288604 138.274298 
L 102.464427 142.232295 
L 102.410569 146.190292 
L 102.124853 150.148289 
L 101.634433 153.873463 
L 100.911499 157.598637 
L 99.99837 161.090987 
L 98.903683 164.37062 
L 97.664823 167.377218 
L 96.275239 170.171099 
L 94.715775 172.80111 
L 93.087144 175.132091 
L 91.225851 177.405092 
L 89.230311 179.484033 
L 87.143305 181.34662 
L 84.943989 183.032264 
L 82.384712 184.70258 
L 79.825434 186.115032 
L 77.033495 187.411319 
L 74.008895 188.572359 
L 70.751633 189.581219 
L 67.237396 190.426732 
L 63.539124 191.075909 
L 59.816539 191.503795 
L 55.861293 191.727123 
L 54 191.75244 
L 54 191.75244 
" style="fill:none;stroke:#90d743;stroke-width:1.5;"/>
    <path clip-path="url(#p345c5c0a5e)" d="M 388.8 191.75244 
L 384.844753 191.637911 
L 381.122168 191.317035 
L 377.399583 190.778314 
L 373.909659 190.058381 
L 370.419736 189.105789 
L 367.162474 187.976116 
L 364.137874 186.683793 
L 361.345935 185.243551 
L 358.786657 183.672867 
L 356.460042 181.992348 
L 354.31531 180.182503 
L 352.194757 178.087093 
L 350.381859 175.991683 
L 348.657206 173.663449 
L 347.046658 171.102392 
L 345.570765 168.308512 
L 344.339101 165.514631 
L 343.198332 162.366925 
L 342.267686 159.1634 
L 341.496518 155.73605 
L 340.892557 152.010876 
L 340.511396 148.285702 
L 340.335573 144.327705 
L 340.389431 140.369708 
L 340.675147 136.411711 
L 341.165567 132.686537 
L 341.888501 128.961363 
L 342.80163 125.469013 
L 343.896317 122.18938 
L 345.135177 119.182782 
L 346.524761 116.388901 
L 348.084225 113.75889 
L 349.712856 111.427909 
L 351.574149 109.154908 
L 353.569689 107.075967 
L 355.656695 105.21338 
L 357.856011 103.527736 
L 360.415288 101.85742 
L 362.974566 100.444968 
L 365.766505 99.148681 
L 368.791105 97.987641 
L 372.048367 96.978781 
L 375.562604 96.133268 
L 379.260876 95.484091 
L 382.983461 95.056205 
L 386.938707 94.832877 
L 388.8 94.80756 
L 388.8 94.80756 
" style="fill:none;stroke:#90d743;stroke-width:1.5;"/>
   </g>
   <g id="LineCollection_7">
    <path clip-path="url(#p345c5c0a5e)" d="M 54 121.956903 
L 56.326616 122.077607 
L 58.645356 122.442309 
L 60.514524 122.925085 
L 62.608478 123.685678 
L 64.469771 124.582351 
L 66.331063 125.724954 
L 68.107388 127.098776 
L 69.588325 128.516407 
L 70.984295 130.161435 
L 72.225962 131.988067 
L 73.226398 133.850654 
L 74.086206 135.946064 
L 74.70688 138.056102 
L 75.102383 140.136885 
L 75.308161 142.465118 
L 75.272015 144.793352 
L 74.992462 147.121586 
L 74.522764 149.216996 
L 73.82827 151.312406 
L 72.998683 153.174993 
L 71.914941 155.070757 
L 70.589678 156.900167 
L 69.123002 158.520582 
L 67.549476 159.926871 
L 65.86574 161.146358 
L 63.941673 162.255104 
L 61.910493 163.155364 
L 59.816539 163.835636 
L 57.722585 164.29279 
L 55.628631 164.544081 
L 54 164.603097 
L 54 164.603097 
" style="fill:none;stroke:#fde725;stroke-width:1.5;"/>
    <path clip-path="url(#p345c5c0a5e)" d="M 388.8 164.603097 
L 386.473384 164.482393 
L 384.154644 164.117691 
L 382.285476 163.634915 
L 380.191522 162.874322 
L 378.330229 161.977649 
L 376.468937 160.835046 
L 374.692612 159.461224 
L 373.211675 158.043593 
L 371.815705 156.398565 
L 370.574038 154.571933 
L 369.573602 152.709346 
L 368.713794 150.613936 
L 368.09312 148.503898 
L 367.697617 146.423115 
L 367.491839 144.094882 
L 367.527985 141.766648 
L 367.807538 139.438414 
L 368.277236 137.343004 
L 368.97173 135.247594 
L 369.801317 133.385007 
L 370.885059 131.489243 
L 372.210322 129.659833 
L 373.676998 128.039418 
L 375.250524 126.633129 
L 376.93426 125.413642 
L 378.858327 124.304896 
L 380.889507 123.404636 
L 382.983461 122.724364 
L 385.077415 122.26721 
L 387.171369 122.015919 
L 388.8 121.956903 
L 388.8 121.956903 
" style="fill:none;stroke:#fde725;stroke-width:1.5;"/>
   </g>
   <g id="line2d_1">
    <path clip-path="url(#p345c5c0a5e)" d="M 54 195.36 
L 388.8 195.36 
" style="fill:none;stroke:#ff0000;stroke-linecap:square;stroke-width:1.5;"/>
   </g>
   <g id="line2d_2">
    <path clip-path="url(#p345c5c0a5e)" d="M 54 91.2 
L 388.8 91.2 
" style="fill:none;stroke:#ff0000;stroke-linecap:square;stroke-width:1.5;"/>
   </g>
   <g id="patch_3">
    <path d="M 54 252 
L 54 34.56 
" style="fill:none;stroke:#000000;stroke-linecap:square;stroke-linejoin:miter;stroke-width:0.8;"/>
   </g>
   <g id="patch_4">
    <path d="M 388.8 252 
L 388.8 34.56 
" style="fill:none;stroke:#000000;stroke-linecap:square;stroke-linejoin:miter;stroke-width:0.8;"/>
   </g>
   <g id="patch_5">
    <path d="M 54 252 
L 388.8 252 
" style="fill:none;stroke:#000000;stroke-linecap:square;stroke-linejoin:miter;stroke-width:0.8;"/>
   </g>
   <g id="patch_6">
    <path d="M 54 34.56 
L 388.8 34.56 
" style="fill:none;stroke:#000000;stroke-linecap:square;stroke-linejoin:miter;stroke-width:0.8;"/>
   </g>
  </g>
 </g>
 <defs>
  <clipPath id="p345c5c0a5e">
   <rect height="217.44" width="334.8" x="54" y="34.56"/>
  </clipPath>
 </defs>
</svg>
