<?xml version="1.0" encoding="utf-8" standalone="no"?>
<!DOCTYPE svg PUBLIC "-//W3C//DTD SVG 1.1//EN"
  "http://www.w3.org/Graphics/SVG/1.1/DTD/svg11.dtd">
<!-- Created with matplotlib (http://matplotlib.org/) -->
<svg height="288pt" version="1.1" viewBox="0 0 432 288" width="432pt" xmlns="http://www.w3.org/2000/svg" xmlns:xlink="http://www.w3.org/1999/xlink">
 <defs>
  <style type="text/css">
*{stroke-linecap:butt;stroke-linejoin:round;}
  </style>
 </defs>
 <g id="figure_1">
  <g id="patch_1">
   <path d="M 0 288 
L 432 288 
L 432 0 
L 0 0 
z
" style="fill:#ffffff;"/>
  </g>
  <g id="axes_1">
   <g id="patch_2">
    <path d="M 54 252 
L 388.8 252 
L 388.8 34.56 
L 54 34.56 
z
" style="fill:#ffffff;"/>
   </g>
   <g id="matplotlib.axis_1"/>
   <g id="matplotlib.axis_2"/>
   <g id="LineCollection_1">
    <path clip-path="url(#pa8c0446727)" d="M 83.079432 144.793352 
L 83.3166 146.888762 
L 83.792503 148.984172 
L 84.403818 150.613936 
L 85.065165 151.778053 
L 85.641974 152.477982 
L 86.339958 153.02409 
L 87.037943 153.300798 
L 87.735928 153.332855 
L 88.433912 153.122907 
L 89.131897 152.652222 
L 89.895358 151.778053 
L 90.557108 150.613936 
L 91.166497 148.984172 
L 91.559323 147.354409 
L 91.844333 145.258999 
L 91.92675 142.930765 
L 91.773314 140.602531 
L 91.41262 138.507121 
L 90.851087 136.644534 
L 90.191709 135.247594 
L 89.533653 134.3163 
L 88.899236 133.719897 
L 88.201251 133.339478 
L 87.503266 133.211128 
L 86.805281 133.323407 
L 86.107297 133.686061 
L 85.409312 134.333179 
L 84.711327 135.343392 
L 84.108948 136.644534 
L 83.603363 138.274298 
L 83.246769 140.136885 
L 83.045442 142.465118 
L 83.079432 144.793352 
L 83.079432 144.793352 
" style="fill:none;stroke:#440154;stroke-width:1.5;"/>
    <path clip-path="url(#pa8c0446727)" d="M 150.074692 145.258999 
L 150.359994 147.354409 
L 150.824707 149.216996 
L 151.485198 150.867997 
L 152.193655 152.010876 
L 152.881167 152.731611 
L 153.603991 153.174993 
L 154.277137 153.342466 
L 154.975122 153.27834 
L 155.710693 152.94217 
L 156.371091 152.381473 
L 157.069076 151.453793 
L 157.719732 150.148289 
L 158.232384 148.614849 
L 158.639204 146.655939 
L 158.853277 144.560529 
L 158.864945 142.232295 
L 158.639204 139.904061 
L 158.194186 137.808651 
L 157.621012 136.178887 
L 157.010472 135.014771 
L 156.275977 134.083477 
L 155.673106 133.592032 
L 154.975122 133.28166 
L 154.277137 133.217534 
L 153.579152 133.39436 
L 152.855737 133.850654 
L 152.183183 134.562203 
L 151.474779 135.713241 
L 150.901694 137.110181 
L 150.455574 138.739944 
L 150.119825 140.835355 
L 149.994561 142.930765 
L 150.074692 145.258999 
L 150.074692 145.258999 
" style="fill:none;stroke:#440154;stroke-width:1.5;"/>
    <path clip-path="url(#pa8c0446727)" d="M 217.07953 145.724645 
L 217.415509 147.820056 
L 217.942581 149.682643 
L 218.5572 151.079583 
L 219.189715 152.057257 
L 219.8877 152.768943 
L 220.585685 153.18514 
L 221.283669 153.34567 
L 221.981654 153.2655 
L 222.679639 152.938137 
L 223.453383 152.2437 
L 224.11281 151.312406 
L 224.773593 149.913703 
L 225.332086 148.052879 
L 225.694432 145.957469 
L 225.840837 143.862058 
L 225.783052 141.533825 
L 225.52257 139.438414 
L 225.08625 137.575828 
L 224.540931 136.084569 
L 223.816471 134.781947 
L 223.144962 133.99247 
L 222.446977 133.48427 
L 221.748992 133.241032 
L 221.051008 133.241032 
L 220.353023 133.48427 
L 219.655038 133.99247 
L 218.957054 134.819006 
L 218.259069 136.084569 
L 217.71375 137.575828 
L 217.27743 139.438414 
L 217.016948 141.533825 
L 216.959163 143.862058 
L 217.07953 145.724645 
L 217.07953 145.724645 
" style="fill:none;stroke:#440154;stroke-width:1.5;"/>
    <path clip-path="url(#pa8c0446727)" d="M 284.094294 146.190292 
L 284.427915 148.052879 
L 284.988271 149.915466 
L 285.515974 151.079583 
L 286.196247 152.115092 
L 286.894232 152.805106 
L 287.592217 153.203372 
L 288.290202 153.347805 
L 288.988186 153.251585 
L 289.686171 152.906616 
L 290.414754 152.2437 
L 291.08214 151.298454 
L 291.731649 149.915466 
L 292.237631 148.285702 
L 292.592975 146.423115 
L 292.784863 144.327705 
L 292.773423 141.999471 
L 292.558972 139.904061 
L 292.176991 138.041474 
L 291.639122 136.411711 
L 291.073781 135.247594 
L 290.384156 134.280107 
L 289.629663 133.61783 
L 288.988186 133.308415 
L 288.290202 133.212195 
L 287.527407 133.385007 
L 286.894232 133.754894 
L 286.196247 134.444908 
L 285.498263 135.512599 
L 284.902703 136.877357 
L 284.427915 138.507121 
L 284.094294 140.369708 
L 283.918729 142.697942 
L 283.977092 145.026175 
L 284.094294 146.190292 
L 284.094294 146.190292 
" style="fill:none;stroke:#440154;stroke-width:1.5;"/>
    <path clip-path="url(#pa8c0446727)" d="M 350.87325 143.629235 
L 351.026686 145.957469 
L 351.38738 148.052879 
L 351.948913 149.915466 
L 352.608291 151.312406 
L 353.266347 152.2437 
L 353.900764 152.840103 
L 354.598749 153.220522 
L 355.296734 153.348872 
L 355.994719 153.236593 
L 356.692703 152.873939 
L 357.390688 152.226821 
L 358.088673 151.216608 
L 358.691052 149.915466 
L 359.196637 148.285702 
L 359.553231 146.423115 
L 359.754558 144.094882 
L 359.717304 141.718769 
L 359.442713 139.438414 
L 359.007497 137.575828 
L 358.396182 135.946064 
L 357.734835 134.781947 
L 357.158026 134.082018 
L 356.460042 133.53591 
L 355.762057 133.259202 
L 355.064072 133.227145 
L 354.366088 133.437093 
L 353.668103 133.907778 
L 352.904642 134.781947 
L 352.242892 135.946064 
L 351.633503 137.575828 
L 351.240677 139.205591 
L 350.955667 141.301001 
L 350.87325 143.629235 
L 350.87325 143.629235 
" style="fill:none;stroke:#440154;stroke-width:1.5;"/>
   </g>
   <g id="LineCollection_2">
    <path clip-path="url(#pa8c0446727)" d="M 77.728413 144.094882 
L 77.891225 148.052879 
L 78.243825 151.545229 
L 78.791731 154.804757 
L 79.486309 157.598637 
L 80.291249 159.926871 
L 81.221404 161.905836 
L 82.176715 163.419221 
L 83.160264 164.583338 
L 84.247501 165.514631 
L 85.409312 166.17029 
L 86.57262 166.524661 
L 87.735928 166.600889 
L 88.899236 166.403958 
L 89.948414 165.980278 
L 90.760528 165.480429 
L 91.79958 164.583338 
L 92.78273 163.419221 
L 93.673314 162.022281 
L 94.483113 160.371942 
L 95.257703 158.297107 
L 95.96361 155.73605 
L 96.547926 152.709346 
L 96.953164 149.449819 
L 97.192653 145.724645 
L 97.219499 141.766648 
L 97.015252 137.808651 
L 96.618555 134.3163 
L 96.069194 131.289597 
L 95.331895 128.495716 
L 94.474147 126.167483 
L 93.541361 124.304896 
L 92.608846 122.907955 
L 91.561629 121.743839 
L 90.527867 120.919388 
L 89.364559 120.313571 
L 88.201251 120.004797 
L 87.037943 119.972149 
L 85.874635 120.213521 
L 84.943989 120.614009 
L 83.937332 121.278192 
L 82.938855 122.209485 
L 82.011381 123.373602 
L 81.158942 124.770542 
L 80.290757 126.634336 
L 79.486309 128.961363 
L 78.840482 131.52242 
L 78.30802 134.549124 
L 77.926016 138.041474 
L 77.740214 141.766648 
L 77.728413 144.094882 
L 77.728413 144.094882 
" style="fill:none;stroke:#443983;stroke-width:1.5;"/>
    <path clip-path="url(#pa8c0446727)" d="M 144.735603 145.957469 
L 144.988946 149.682643 
L 145.44733 153.174993 
L 146.068129 156.201697 
L 146.81726 158.762754 
L 147.548282 160.625341 
L 148.517563 162.487928 
L 149.496409 163.884868 
L 150.357638 164.816161 
L 151.485198 165.700893 
L 152.648506 166.28164 
L 153.811814 166.567836 
L 154.975122 166.578718 
L 156.138429 166.314986 
L 157.069076 165.895124 
L 157.999722 165.26959 
L 158.981508 164.350515 
L 159.908962 163.186398 
L 160.883561 161.556634 
L 161.722307 159.691365 
L 162.501537 157.365814 
L 163.175887 154.571933 
L 163.706379 151.312406 
L 164.048923 147.766213 
L 164.193499 143.862058 
L 164.113093 139.904061 
L 163.816261 136.162039 
L 163.310102 132.686537 
L 162.631569 129.659833 
L 161.810085 127.098776 
L 161.002204 125.236189 
L 160.067385 123.606426 
L 159.16303 122.411472 
L 158.232384 121.482314 
L 157.069076 120.664876 
L 155.905768 120.169727 
L 154.74246 119.961718 
L 153.579152 120.027042 
L 152.474164 120.346898 
L 151.561442 120.812545 
L 150.615599 121.511015 
L 149.691308 122.442309 
L 148.813265 123.606426 
L 147.995274 125.003923 
L 147.159491 126.865953 
L 146.446248 128.961363 
L 145.800643 131.52242 
L 145.267915 134.549124 
L 144.886208 138.041474 
L 144.700407 141.766648 
L 144.726983 145.724645 
L 144.735603 145.957469 
L 144.735603 145.957469 
" style="fill:none;stroke:#443983;stroke-width:1.5;"/>
    <path clip-path="url(#pa8c0446727)" d="M 211.738511 146.888762 
L 212.04859 150.613936 
L 212.530105 153.873463 
L 213.146285 156.667344 
L 213.943233 159.228401 
L 214.838237 161.323811 
L 215.773119 162.953574 
L 216.650635 164.117691 
L 217.57466 165.048985 
L 218.724392 165.868932 
L 219.8877 166.376133 
L 221.051008 166.595241 
L 222.214315 166.540813 
L 223.377623 166.209333 
L 224.30827 165.73024 
L 225.238916 165.037501 
L 226.169562 164.094672 
L 227.177855 162.720751 
L 228.075754 161.090987 
L 228.941275 158.995577 
L 229.591243 156.900167 
L 230.226511 154.106287 
L 230.724046 150.846759 
L 231.034982 147.354409 
L 231.155047 143.629235 
L 231.061489 139.671238 
L 230.75141 135.946064 
L 230.269895 132.686537 
L 229.653715 129.892656 
L 228.856767 127.331599 
L 227.961763 125.236189 
L 227.026881 123.606426 
L 226.149365 122.442309 
L 225.22534 121.511015 
L 224.075608 120.691068 
L 222.9123 120.183867 
L 221.748992 119.964759 
L 220.585685 120.019187 
L 219.422377 120.350667 
L 218.49173 120.82976 
L 217.561084 121.522499 
L 216.630438 122.465328 
L 215.622145 123.839249 
L 214.724246 125.469013 
L 213.858725 127.564423 
L 213.208757 129.659833 
L 212.573489 132.453713 
L 212.075954 135.713241 
L 211.765018 139.205591 
L 211.644953 142.930765 
L 211.738511 146.888762 
L 211.738511 146.888762 
" style="fill:none;stroke:#443983;stroke-width:1.5;"/>
    <path clip-path="url(#pa8c0446727)" d="M 278.739409 147.587232 
L 279.064229 151.079583 
L 279.578189 154.33911 
L 280.232686 157.13299 
L 280.989915 159.461224 
L 281.797796 161.323811 
L 282.732615 162.953574 
L 283.63697 164.148528 
L 284.567616 165.077686 
L 285.730924 165.895124 
L 286.894232 166.390273 
L 288.05754 166.598282 
L 289.220848 166.532958 
L 290.325836 166.213102 
L 291.238558 165.747455 
L 292.184401 165.048985 
L 293.108692 164.117691 
L 293.986735 162.953574 
L 294.804726 161.556077 
L 295.640509 159.694047 
L 296.353752 157.598637 
L 296.999357 155.03758 
L 297.532085 152.010876 
L 297.913792 148.518526 
L 298.099593 144.793352 
L 298.073017 140.835355 
L 297.829326 137.065185 
L 297.390845 133.61783 
L 296.788484 130.591127 
L 296.061128 128.03007 
L 295.251718 125.934659 
L 294.282437 124.072072 
L 293.303591 122.675132 
L 292.442362 121.743839 
L 291.314802 120.859107 
L 290.151494 120.27836 
L 288.988186 119.992164 
L 287.824878 119.981282 
L 286.661571 120.245014 
L 285.730924 120.664876 
L 284.800278 121.29041 
L 283.818492 122.209485 
L 282.891038 123.373602 
L 281.916439 125.003366 
L 281.077693 126.868635 
L 280.298463 129.194186 
L 279.624113 131.988067 
L 279.093621 135.247594 
L 278.751077 138.793787 
L 278.606501 142.697942 
L 278.686907 146.655939 
L 278.739409 147.587232 
L 278.739409 147.587232 
" style="fill:none;stroke:#443983;stroke-width:1.5;"/>
    <path clip-path="url(#pa8c0446727)" d="M 345.747908 148.285702 
L 346.115471 151.778053 
L 346.680132 155.03758 
L 347.326154 157.598637 
L 348.131761 159.926871 
L 349.014871 161.820339 
L 350.01727 163.419221 
L 351.00042 164.583338 
L 352.039472 165.480429 
L 352.970118 166.04162 
L 354.133426 166.465566 
L 355.296734 166.607403 
L 356.460042 166.476529 
L 357.390688 166.17029 
L 358.321334 165.671018 
L 359.401737 164.816161 
L 360.263698 163.884868 
L 361.242184 162.487928 
L 362.105375 160.858164 
L 362.942563 158.762754 
L 363.633598 156.43452 
L 364.231934 153.64064 
L 364.697652 150.381113 
L 364.993052 146.655939 
L 365.073916 142.697942 
L 364.924902 138.739944 
L 364.556175 135.014771 
L 364.008269 131.755243 
L 363.313691 128.961363 
L 362.508751 126.633129 
L 361.578596 124.654164 
L 360.623285 123.140779 
L 359.639736 121.976662 
L 358.552499 121.045369 
L 357.390688 120.38971 
L 356.22738 120.035339 
L 355.064072 119.959111 
L 353.900764 120.156042 
L 352.851586 120.579722 
L 352.039472 121.079571 
L 351.00042 121.976662 
L 350.01727 123.140779 
L 349.126686 124.537719 
L 348.316887 126.188058 
L 347.542297 128.262893 
L 346.83639 130.82395 
L 346.252074 133.850654 
L 345.846836 137.110181 
L 345.607347 140.835355 
L 345.580501 144.793352 
L 345.747908 148.285702 
L 345.747908 148.285702 
" style="fill:none;stroke:#443983;stroke-width:1.5;"/>
   </g>
   <g id="LineCollection_3">
    <path clip-path="url(#pa8c0446727)" d="M 74.240359 151.312406 
L 74.612461 156.43452 
L 75.149034 160.858164 
L 75.777536 164.350515 
L 76.537106 167.377218 
L 77.320093 169.705452 
L 78.241596 171.800862 
L 79.319816 173.663449 
L 80.37811 175.060389 
L 81.527955 176.224506 
L 82.759292 177.1558 
L 84.013343 177.835379 
L 85.409312 178.321074 
L 86.805281 178.554483 
L 88.201251 178.550568 
L 89.59722 178.309113 
L 90.99319 177.81457 
L 92.201152 177.1558 
L 93.431912 176.224506 
L 94.483113 175.174501 
L 95.481632 173.896273 
L 96.475946 172.266509 
L 97.35965 170.403922 
L 98.209656 168.075688 
L 98.973895 165.281808 
L 99.62541 162.022281 
L 100.177234 158.064284 
L 100.594217 153.407816 
L 100.857558 147.820056 
L 100.913259 141.766648 
L 100.742883 135.713241 
L 100.369606 130.358303 
L 99.834329 125.857978 
L 99.18257 122.209485 
L 98.422974 119.182782 
L 97.549249 116.621725 
L 96.718226 114.759138 
L 95.792301 113.129374 
L 94.715775 111.656198 
L 93.552467 110.441892 
L 92.389159 109.527413 
L 91.225851 108.854478 
L 89.829882 108.314923 
L 88.433912 108.032878 
L 87.037943 107.989806 
L 85.641974 108.182943 
L 84.246004 108.624848 
L 83.082696 109.20423 
L 81.802106 110.10267 
L 80.756081 111.08005 
L 79.592773 112.500227 
L 78.6112 114.060668 
L 77.699084 115.923255 
L 76.800834 118.326657 
L 76.041453 121.045369 
L 75.374381 124.304896 
L 74.809516 128.262893 
L 74.381905 132.91936 
L 74.116131 138.274298 
L 74.043069 144.327705 
L 74.195426 150.381113 
L 74.240359 151.312406 
L 74.240359 151.312406 
" style="fill:none;stroke:#31688e;stroke-width:1.5;"/>
    <path clip-path="url(#pa8c0446727)" d="M 141.014397 145.491822 
L 141.200493 151.312406 
L 141.57246 156.43452 
L 142.109168 160.858164 
L 142.737538 164.350515 
L 143.49727 167.377218 
L 144.370932 169.938275 
L 145.320939 172.033686 
L 146.366644 173.792913 
L 147.529951 175.278491 
L 148.761927 176.45733 
L 149.856567 177.243449 
L 151.252536 177.954167 
L 152.648506 178.387412 
L 154.044475 178.572548 
L 155.440445 178.521642 
L 156.836414 178.231405 
L 158.232384 177.682696 
L 159.506513 176.922976 
L 160.648812 175.991683 
L 161.738708 174.827566 
L 162.752275 173.430626 
L 163.678222 171.800862 
L 164.599812 169.705452 
L 165.444892 167.164341 
L 166.142877 164.350034 
L 166.770828 160.858164 
L 167.285102 156.667344 
L 167.654518 151.778053 
L 167.854602 146.190292 
L 167.850333 140.136885 
L 167.627984 134.3163 
L 167.21377 129.194186 
L 166.662123 125.003366 
L 165.987926 121.511015 
L 165.212231 118.619303 
L 164.31983 116.156078 
L 163.435979 114.293491 
L 162.420292 112.632181 
L 161.256984 111.179575 
L 160.093676 110.081892 
L 158.77953 109.171377 
L 157.534399 108.568754 
L 156.138429 108.152711 
L 154.74246 107.98353 
L 153.346491 108.050114 
L 151.950521 108.356814 
L 150.554552 108.923995 
L 149.372619 109.637024 
L 148.227936 110.570499 
L 147.064628 111.82601 
L 145.980958 113.362197 
L 145.086438 114.991961 
L 144.19198 117.087371 
L 143.363666 119.648428 
L 142.688318 122.442309 
L 142.07461 125.934659 
L 141.57246 130.12548 
L 141.212717 135.014771 
L 141.017675 140.835355 
L 141.014397 145.491822 
L 141.014397 145.491822 
" style="fill:none;stroke:#31688e;stroke-width:1.5;"/>
    <path clip-path="url(#pa8c0446727)" d="M 208.015947 147.587232 
L 208.270033 153.174993 
L 208.719944 158.216352 
L 209.294542 162.255104 
L 209.961496 165.514631 
L 210.745579 168.308512 
L 211.619336 170.636745 
L 212.531353 172.499332 
L 213.605837 174.188684 
L 214.769145 175.577341 
L 216.015948 176.690153 
L 217.095761 177.409806 
L 218.49173 178.061652 
L 219.8877 178.443739 
L 221.283669 178.581174 
L 222.679639 178.483176 
L 224.075608 178.143204 
L 225.471577 177.539008 
L 226.784052 176.690153 
L 227.850876 175.75886 
L 228.961501 174.498474 
L 230.000413 172.964979 
L 230.973701 171.102392 
L 231.817275 169.006982 
L 232.602954 166.445925 
L 233.292125 163.419221 
L 233.896121 159.694047 
L 234.372439 155.270403 
L 234.694811 150.148289 
L 234.836883 144.327705 
L 234.764028 138.274298 
L 234.481592 132.686537 
L 234.01509 127.797246 
L 233.423222 123.839249 
L 232.723748 120.579722 
L 231.977764 118.018665 
L 231.055455 115.637099 
L 230.124809 113.805883 
L 229.064876 112.198081 
L 228.030855 110.982659 
L 226.784052 109.869847 
L 225.704239 109.150194 
L 224.30827 108.498348 
L 222.9123 108.116261 
L 221.516331 107.978826 
L 220.120361 108.076824 
L 218.724392 108.416796 
L 217.328423 109.020992 
L 216.015948 109.869847 
L 214.949124 110.80114 
L 213.838499 112.061526 
L 212.799587 113.595021 
L 211.826299 115.457608 
L 210.982725 117.553018 
L 210.197046 120.114075 
L 209.507875 123.140779 
L 208.903879 126.865953 
L 208.427561 131.289597 
L 208.105189 136.411711 
L 207.963117 142.232295 
L 208.015947 147.587232 
L 208.015947 147.587232 
" style="fill:none;stroke:#31688e;stroke-width:1.5;"/>
    <path clip-path="url(#pa8c0446727)" d="M 275.027544 149.216996 
L 275.330825 154.571933 
L 275.803043 159.228401 
L 276.424461 163.194636 
L 277.1569 166.445925 
L 277.942812 169.006982 
L 278.786097 171.102392 
L 279.759525 172.964979 
L 280.874012 174.594743 
L 282.008339 175.856828 
L 283.293487 176.922976 
L 284.447737 177.621446 
L 285.730924 178.158646 
L 287.126894 178.490255 
L 288.522863 178.58039 
L 289.918833 178.435038 
L 291.314802 178.044514 
L 292.700625 177.388623 
L 293.743978 176.690153 
L 294.811415 175.75886 
L 295.968033 174.437905 
L 296.960544 172.964979 
L 297.933664 171.102392 
L 298.777497 169.006982 
L 299.562926 166.445925 
L 300.25212 163.419221 
L 300.856286 159.694047 
L 301.332567 155.270403 
L 301.654798 150.148289 
L 301.796994 144.327705 
L 301.723914 138.274298 
L 301.441548 132.686537 
L 300.975041 127.797246 
L 300.383369 123.839249 
L 299.683906 120.579722 
L 298.858389 117.785841 
L 297.933664 115.457608 
L 296.960544 113.595021 
L 295.968033 112.122095 
L 294.804726 110.794395 
L 293.641418 109.791526 
L 292.27322 108.938554 
L 291.08214 108.432538 
L 289.686171 108.084171 
L 288.290202 107.978304 
L 286.894232 108.107832 
L 285.498263 108.481517 
L 284.334955 108.996238 
L 283.171647 109.723109 
L 281.909379 110.80114 
L 280.845031 112.001714 
L 279.759525 113.595021 
L 278.894647 115.224784 
L 278.025994 117.320195 
L 277.219691 119.881252 
L 276.513623 122.907955 
L 275.927629 126.400306 
L 275.427931 130.82395 
L 275.086135 135.946064 
L 274.926752 141.766648 
L 274.982374 147.820056 
L 275.027544 149.216996 
L 275.027544 149.216996 
" style="fill:none;stroke:#31688e;stroke-width:1.5;"/>
    <path clip-path="url(#pa8c0446727)" d="M 342.025027 150.148289 
L 342.367536 155.503227 
L 342.887744 160.159694 
L 343.520463 163.884868 
L 344.243912 166.911572 
L 345.071668 169.472629 
L 345.990271 171.617889 
L 347.007699 173.430626 
L 348.084225 174.903802 
L 349.247533 176.118108 
L 350.410841 177.032587 
L 351.574149 177.705522 
L 352.970118 178.245077 
L 354.366088 178.527122 
L 355.762057 178.570194 
L 357.158026 178.377057 
L 358.553996 177.935152 
L 359.717304 177.35577 
L 360.997894 176.45733 
L 362.043919 175.47995 
L 363.207227 174.059773 
L 364.1888 172.499332 
L 365.100916 170.636745 
L 365.999166 168.233343 
L 366.758547 165.514631 
L 367.425619 162.255104 
L 367.990484 158.297107 
L 368.418095 153.64064 
L 368.683869 148.285702 
L 368.756931 142.232295 
L 368.604574 136.178887 
L 368.252053 130.82395 
L 367.752226 126.400306 
L 367.119646 122.675132 
L 366.39615 119.648428 
L 365.533843 116.995272 
L 364.558404 114.759138 
L 363.480184 112.896551 
L 362.42189 111.499611 
L 361.272045 110.335494 
L 360.040708 109.4042 
L 358.786657 108.724621 
L 357.390688 108.238926 
L 355.994719 108.005517 
L 354.598749 108.009432 
L 353.20278 108.250887 
L 351.80681 108.74543 
L 350.598848 109.4042 
L 349.368088 110.335494 
L 348.316887 111.385499 
L 347.318368 112.663727 
L 346.324054 114.293491 
L 345.44035 116.156078 
L 344.590344 118.484312 
L 343.826105 121.278192 
L 343.17459 124.537719 
L 342.622766 128.495716 
L 342.205783 133.152184 
L 341.942442 138.739944 
L 341.886741 144.793352 
L 342.025027 150.148289 
L 342.025027 150.148289 
" style="fill:none;stroke:#31688e;stroke-width:1.5;"/>
   </g>
   <g id="LineCollection_4">
    <path clip-path="url(#pa8c0446727)" d="M 54 59.58 
L 70.518972 59.58 
L 70.739999 59.812823 
L 70.739999 226.747177 
L 70.518972 226.98 
L 54 226.98 
L 54 226.98 
" style="fill:none;stroke:#21918c;stroke-width:1.5;"/>
    <path clip-path="url(#pa8c0446727)" d="M 388.8 226.98 
L 372.281028 226.98 
L 372.060001 226.747177 
L 372.060001 59.812823 
L 372.281028 59.58 
L 388.8 59.58 
L 388.8 59.58 
" style="fill:none;stroke:#21918c;stroke-width:1.5;"/>
    <path clip-path="url(#pa8c0446727)" d="M 104.219998 226.747177 
L 104.254899 59.58 
L 137.525504 59.58 
L 137.699998 59.812823 
L 137.699998 226.747177 
L 137.525504 226.98 
L 104.254899 226.98 
L 104.219998 226.747177 
L 104.219998 226.747177 
" style="fill:none;stroke:#21918c;stroke-width:1.5;"/>
    <path clip-path="url(#pa8c0446727)" d="M 171.179999 226.747177 
L 171.261432 59.58 
L 204.532036 59.58 
L 204.66 59.812823 
L 204.66 226.747177 
L 204.532036 226.98 
L 171.261432 226.98 
L 171.179999 226.747177 
L 171.179999 226.747177 
" style="fill:none;stroke:#21918c;stroke-width:1.5;"/>
    <path clip-path="url(#pa8c0446727)" d="M 238.14 226.747177 
L 238.14 59.812823 
L 238.267964 59.58 
L 271.538568 59.58 
L 271.620001 60.045647 
L 271.538568 226.98 
L 238.267964 226.98 
L 238.14 226.747177 
L 238.14 226.747177 
" style="fill:none;stroke:#21918c;stroke-width:1.5;"/>
    <path clip-path="url(#pa8c0446727)" d="M 305.100002 226.747177 
L 305.100002 59.812823 
L 305.274496 59.58 
L 338.545101 59.58 
L 338.580002 60.511293 
L 338.545101 226.98 
L 305.274496 226.98 
L 305.100002 226.747177 
L 305.100002 226.747177 
" style="fill:none;stroke:#21918c;stroke-width:1.5;"/>
   </g>
   <g id="LineCollection_5">
    <path clip-path="url(#pa8c0446727)" d="M 54 107.97801 
L 55.395969 108.095697 
L 56.836167 108.472907 
L 58.187908 109.08445 
L 59.384548 109.869847 
L 60.514524 110.863931 
L 61.677832 112.214314 
L 62.736865 113.827844 
L 63.67874 115.690431 
L 64.498618 117.785841 
L 65.264015 120.346898 
L 65.936846 123.373602 
L 66.526956 127.098776 
L 66.991904 131.52242 
L 67.304803 136.644534 
L 67.438187 142.465118 
L 67.356507 148.518526 
L 67.064661 154.106287 
L 66.615123 158.762754 
L 66.023131 162.720751 
L 65.323632 165.980278 
L 64.498618 168.774159 
L 63.67874 170.869569 
L 62.736865 172.732156 
L 61.665444 174.361919 
L 60.450785 175.75886 
L 59.351216 176.715999 
L 58.187908 177.47555 
L 56.791939 178.103282 
L 55.395969 178.464303 
L 54 178.58199 
L 54 178.58199 
" style="fill:none;stroke:#35b779;stroke-width:1.5;"/>
    <path clip-path="url(#pa8c0446727)" d="M 388.8 178.58199 
L 387.404031 178.464303 
L 385.963833 178.087093 
L 384.612092 177.47555 
L 383.415452 176.690153 
L 382.285476 175.696069 
L 381.122168 174.345686 
L 380.063135 172.732156 
L 379.12126 170.869569 
L 378.301382 168.774159 
L 377.535985 166.213102 
L 376.863154 163.186398 
L 376.273044 159.461224 
L 375.808096 155.03758 
L 375.495197 149.915466 
L 375.361813 144.094882 
L 375.443493 138.041474 
L 375.735339 132.453713 
L 376.184877 127.797246 
L 376.776869 123.839249 
L 377.476368 120.579722 
L 378.301382 117.785841 
L 379.12126 115.690431 
L 380.063135 113.827844 
L 381.134556 112.198081 
L 382.349215 110.80114 
L 383.448784 109.844001 
L 384.612092 109.08445 
L 386.008061 108.456718 
L 387.404031 108.095697 
L 388.8 107.97801 
L 388.8 107.97801 
" style="fill:none;stroke:#35b779;stroke-width:1.5;"/>
    <path clip-path="url(#pa8c0446727)" d="M 107.732649 151.545229 
L 107.537748 145.724645 
L 107.559176 139.671238 
L 107.800195 133.850654 
L 108.236496 128.72854 
L 108.814764 124.537719 
L 109.521504 121.045369 
L 110.30525 118.251488 
L 111.234746 115.79466 
L 112.222991 113.827844 
L 113.3287 112.152668 
L 114.508729 110.80114 
L 115.655316 109.808906 
L 116.818624 109.058795 
L 118.214593 108.440522 
L 119.610563 108.087946 
L 121.006532 107.97814 
L 122.402502 108.103719 
L 123.798471 108.473216 
L 125.194441 109.11047 
L 126.357748 109.879482 
L 127.521056 110.910983 
L 128.684364 112.276519 
L 129.696913 113.827844 
L 130.638742 115.690431 
L 131.476303 117.836863 
L 132.283594 120.579722 
L 132.940504 123.606426 
L 133.517003 127.331599 
L 133.970758 131.755243 
L 134.274454 136.877357 
L 134.399114 142.697942 
L 134.308865 148.751349 
L 134.007212 154.33911 
L 133.546489 158.995577 
L 132.940504 162.953574 
L 132.224123 166.213102 
L 131.458681 168.774159 
L 130.534067 171.102392 
L 129.56058 172.964979 
L 128.446248 174.594743 
L 127.288395 175.879283 
L 126.026538 176.922976 
L 124.872349 177.621446 
L 123.56581 178.166255 
L 122.16984 178.493694 
L 120.773871 178.5799 
L 119.377901 178.430584 
L 117.981932 178.03583 
L 116.619863 177.388623 
L 115.575921 176.690153 
L 114.492008 175.742543 
L 113.294768 174.361919 
L 112.222991 172.732156 
L 111.386294 171.102392 
L 110.536762 168.991062 
L 109.757045 166.445925 
L 109.067845 163.419221 
L 108.463792 159.694047 
L 108.007411 155.503227 
L 107.732649 151.545229 
L 107.732649 151.545229 
" style="fill:none;stroke:#35b779;stroke-width:1.5;"/>
    <path clip-path="url(#pa8c0446727)" d="M 174.51411 146.655939 
L 174.501328 140.602531 
L 174.7054 134.781947 
L 175.09821 129.659833 
L 175.624553 125.469013 
L 176.267843 121.976662 
L 177.046407 118.949958 
L 177.850886 116.621725 
L 178.800921 114.526314 
L 179.86991 112.733071 
L 181.033218 111.25585 
L 182.241705 110.10267 
L 183.359833 109.302174 
L 184.755803 108.596445 
L 186.151772 108.167515 
L 187.547741 107.986373 
L 188.943711 108.041198 
L 190.33968 108.33554 
L 191.73565 108.888847 
L 192.986586 109.637024 
L 194.128938 110.568317 
L 195.225573 111.740511 
L 196.232339 113.129374 
L 197.158284 114.759138 
L 198.079878 116.854548 
L 198.862712 119.182782 
L 199.572199 121.976662 
L 200.215377 125.469013 
L 200.741831 129.659833 
L 201.121475 134.549124 
L 201.330368 140.136885 
L 201.334634 146.190292 
L 201.121475 152.010876 
L 200.718077 157.13299 
L 200.179182 161.323811 
L 199.52065 164.816161 
L 198.72262 167.842865 
L 197.895707 170.171099 
L 196.916063 172.266509 
L 195.922177 173.896273 
L 194.76025 175.355157 
L 193.596942 176.459001 
L 192.259762 177.388623 
L 191.037665 177.982094 
L 189.641696 178.402424 
L 188.245726 178.575588 
L 186.849757 178.512924 
L 185.453787 178.21035 
L 184.057818 177.647808 
L 182.852979 176.922976 
L 181.710585 175.991683 
L 180.567894 174.762668 
L 179.460854 173.197803 
L 178.566416 171.568039 
L 177.672018 169.472629 
L 176.84355 166.911572 
L 176.120291 163.884868 
L 175.520767 160.392517 
L 175.030348 156.201697 
L 174.680536 151.312406 
L 174.51411 146.655939 
L 174.51411 146.655939 
" style="fill:none;stroke:#35b779;stroke-width:1.5;"/>
    <path clip-path="url(#pa8c0446727)" d="M 241.523299 148.518526 
L 241.441848 142.465118 
L 241.585157 136.411711 
L 241.927489 131.056773 
L 242.415385 126.633129 
L 243.033639 122.907955 
L 243.7397 119.881252 
L 244.549826 117.309158 
L 245.526246 114.991961 
L 246.567661 113.129374 
L 247.581177 111.732434 
L 248.737735 110.505604 
L 249.901042 109.575056 
L 251.297012 108.777264 
L 252.692981 108.269346 
L 254.088951 108.015775 
L 255.566812 108.00726 
L 256.88089 108.221391 
L 258.303006 108.70573 
L 259.600835 109.4042 
L 260.603475 110.139336 
L 261.776551 111.266787 
L 262.93009 112.733071 
L 263.876361 114.293491 
L 264.8558 116.388901 
L 265.722029 118.845278 
L 266.480725 121.743839 
L 267.139322 125.236189 
L 267.678076 129.42701 
L 268.068124 134.3163 
L 268.28589 139.904061 
L 268.298672 145.957469 
L 268.0946 151.778053 
L 267.70179 156.900167 
L 267.175447 161.090987 
L 266.532157 164.583338 
L 265.753593 167.610042 
L 264.949114 169.938275 
L 263.999079 172.033686 
L 262.93009 173.826929 
L 261.766782 175.30415 
L 260.558295 176.45733 
L 259.440167 177.257826 
L 258.044197 177.963555 
L 256.648228 178.392485 
L 255.252259 178.573627 
L 253.856289 178.518802 
L 252.46032 178.22446 
L 251.06435 177.671153 
L 249.813414 176.922976 
L 248.671062 175.991683 
L 247.574427 174.819489 
L 246.567661 173.430626 
L 245.641716 171.800862 
L 244.720122 169.705452 
L 243.937288 167.377218 
L 243.227801 164.583338 
L 242.584623 161.090987 
L 242.058169 156.900167 
L 241.678525 152.010876 
L 241.523299 148.518526 
L 241.523299 148.518526 
" style="fill:none;stroke:#35b779;stroke-width:1.5;"/>
    <path clip-path="url(#pa8c0446727)" d="M 308.525546 149.682643 
L 308.400886 143.862058 
L 308.491135 137.808651 
L 308.792788 132.22089 
L 309.253511 127.564423 
L 309.859496 123.606426 
L 310.575877 120.346898 
L 311.341319 117.785841 
L 312.265933 115.457608 
L 313.23942 113.595021 
L 314.353752 111.965257 
L 315.511605 110.680717 
L 316.773462 109.637024 
L 317.927651 108.938554 
L 319.23419 108.393745 
L 320.63016 108.066306 
L 322.026129 107.9801 
L 323.422099 108.129416 
L 324.818068 108.52417 
L 326.180137 109.171377 
L 327.224079 109.869847 
L 328.307992 110.817457 
L 329.505232 112.198081 
L 330.577009 113.827844 
L 331.413706 115.457608 
L 332.263238 117.568938 
L 333.042955 120.114075 
L 333.732155 123.140779 
L 334.336208 126.865953 
L 334.792589 131.056773 
L 335.124531 136.178887 
L 335.275363 141.999471 
L 335.210906 148.052879 
L 334.938085 153.64064 
L 334.48309 158.52993 
L 333.891869 162.562076 
L 333.163785 165.980278 
L 332.338433 168.774159 
L 331.413706 171.102392 
L 330.440682 172.964979 
L 329.4713 174.407332 
L 328.291271 175.75886 
L 327.144684 176.751094 
L 325.981376 177.501205 
L 324.585407 178.119478 
L 323.189437 178.472054 
L 321.793468 178.58186 
L 320.397498 178.456281 
L 319.001529 178.086784 
L 317.605559 177.44953 
L 316.442252 176.680518 
L 315.278944 175.649017 
L 314.115636 174.283481 
L 313.103087 172.732156 
L 312.161258 170.869569 
L 311.323697 168.723137 
L 310.516406 165.980278 
L 309.859496 162.953574 
L 309.282997 159.228401 
L 308.829242 154.804757 
L 308.525546 149.682643 
L 308.525546 149.682643 
" style="fill:none;stroke:#35b779;stroke-width:1.5;"/>
   </g>
   <g id="LineCollection_6">
    <path clip-path="url(#pa8c0446727)" d="M 54 119.952543 
L 55.163308 120.088897 
L 56.093954 120.399769 
L 57.231757 121.045369 
L 58.081619 121.743839 
L 58.943901 122.675132 
L 59.922181 124.072072 
L 60.78557 125.701836 
L 61.622379 127.797246 
L 62.313453 130.12548 
L 62.912002 132.91936 
L 63.377713 136.178887 
L 63.673003 139.904061 
L 63.753819 143.862058 
L 63.60497 147.820056 
L 63.236068 151.545229 
L 62.688321 154.804757 
L 61.993742 157.598637 
L 61.188462 159.926871 
L 60.281862 161.86322 
L 59.302959 163.419221 
L 58.319598 164.583338 
L 57.257262 165.497089 
L 56.326616 166.053011 
L 55.163308 166.471103 
L 54 166.607457 
L 54 166.607457 
" style="fill:none;stroke:#90d743;stroke-width:1.5;"/>
    <path clip-path="url(#pa8c0446727)" d="M 388.8 166.607457 
L 387.636692 166.471103 
L 386.706046 166.160231 
L 385.568243 165.514631 
L 384.718381 164.816161 
L 383.856099 163.884868 
L 382.877819 162.487928 
L 382.01443 160.858164 
L 381.177621 158.762754 
L 380.486547 156.43452 
L 379.887998 153.64064 
L 379.422287 150.381113 
L 379.126997 146.655939 
L 379.046181 142.697942 
L 379.19503 138.739944 
L 379.563932 135.014771 
L 380.111679 131.755243 
L 380.806258 128.961363 
L 381.611538 126.633129 
L 382.518138 124.69678 
L 383.497041 123.140779 
L 384.480402 121.976662 
L 385.542738 121.062911 
L 386.473384 120.506989 
L 387.636692 120.088897 
L 388.8 119.952543 
L 388.8 119.952543 
" style="fill:none;stroke:#90d743;stroke-width:1.5;"/>
    <path clip-path="url(#pa8c0446727)" d="M 111.23195 145.258999 
L 111.23195 141.301001 
L 111.444411 137.575828 
L 111.856388 134.083477 
L 112.422581 131.056773 
L 113.107598 128.495716 
L 113.966362 126.167483 
L 114.76629 124.537719 
L 115.656291 123.140779 
L 116.640005 121.976662 
L 117.74927 121.030038 
L 118.912578 120.379771 
L 120.075886 120.031135 
L 121.239194 119.96036 
L 122.402502 120.162828 
L 123.428502 120.579722 
L 124.263794 121.096368 
L 125.27968 121.976662 
L 126.262598 123.140779 
L 127.153338 124.537719 
L 127.986379 126.242421 
L 128.811841 128.495716 
L 129.497037 131.056773 
L 130.063953 134.083477 
L 130.45468 137.343004 
L 130.680509 141.068178 
L 130.693907 145.026175 
L 130.495115 148.751349 
L 130.080334 152.368133 
L 129.497037 155.503227 
L 128.811841 158.064284 
L 127.986379 160.317579 
L 127.055733 162.195918 
L 126.088456 163.652045 
L 125.041763 164.816161 
L 124.031133 165.625209 
L 122.867825 166.237333 
L 121.704517 166.551771 
L 120.541209 166.589862 
L 119.377901 166.354065 
L 118.447255 165.958393 
L 117.417513 165.281808 
L 116.418666 164.350515 
L 115.491241 163.186398 
L 114.639079 161.789458 
L 113.771519 159.926871 
L 112.966306 157.598637 
L 112.320586 155.03758 
L 111.78799 152.010876 
L 111.406131 148.518526 
L 111.23195 145.258999 
L 111.23195 145.258999 
" style="fill:none;stroke:#90d743;stroke-width:1.5;"/>
    <path clip-path="url(#pa8c0446727)" d="M 178.235434 146.423115 
L 178.168805 142.465118 
L 178.331271 138.507121 
L 178.715009 134.781947 
L 179.280653 131.52242 
L 179.996164 128.72854 
L 180.827185 126.400306 
L 181.731202 124.527941 
L 182.661849 123.078926 
L 183.599112 121.976662 
L 184.689107 121.045369 
L 185.686449 120.462647 
L 186.849757 120.067865 
L 188.013065 119.953411 
L 189.176372 120.111718 
L 190.107019 120.441205 
L 191.150523 121.045369 
L 192.002397 121.743839 
L 193.047982 122.907955 
L 193.842974 124.072072 
L 194.76025 125.820172 
L 195.542238 127.797246 
L 196.23339 130.12548 
L 196.854204 133.043042 
L 197.319527 136.375324 
L 197.593202 139.904061 
L 197.673472 143.862058 
L 197.525168 147.820056 
L 197.156075 151.545229 
L 196.608733 154.804757 
L 195.914262 157.598637 
L 195.107963 159.926871 
L 194.241124 161.789458 
L 193.222617 163.419221 
L 192.240224 164.583338 
L 191.270327 165.429622 
L 190.33968 166.00671 
L 189.176372 166.448282 
L 188.013065 166.606589 
L 186.849757 166.492135 
L 185.91911 166.199751 
L 184.988464 165.715632 
L 184.057818 165.017146 
L 182.976309 163.884868 
L 182.141964 162.720751 
L 181.243998 161.090987 
L 180.378943 158.995577 
L 179.666509 156.667344 
L 179.093436 154.106287 
L 178.595964 150.846759 
L 178.285164 147.354409 
L 178.235434 146.423115 
L 178.235434 146.423115 
" style="fill:none;stroke:#90d743;stroke-width:1.5;"/>
    <path clip-path="url(#pa8c0446727)" d="M 245.244881 147.354409 
L 245.124181 143.396412 
L 245.231371 139.438414 
L 245.555901 135.713241 
L 246.053496 132.453713 
L 246.688621 129.659833 
L 247.423174 127.331599 
L 248.318054 125.236189 
L 249.252912 123.606426 
L 250.133704 122.438271 
L 251.06435 121.502317 
L 252.227658 120.677909 
L 253.390966 120.17674 
L 254.554274 119.963184 
L 255.717582 120.023059 
L 256.846686 120.346898 
L 257.758974 120.812545 
L 258.704798 121.511015 
L 259.628973 122.442309 
L 260.506764 123.606426 
L 261.324117 125.003366 
L 262.160598 126.865953 
L 262.873866 128.961363 
L 263.519347 131.52242 
L 264.052205 134.549124 
L 264.433756 138.041474 
L 264.619481 141.766648 
L 264.59286 145.724645 
L 264.35344 149.449819 
L 263.910696 152.94217 
L 263.308521 155.968873 
L 262.581098 158.52993 
L 261.766782 160.636882 
L 260.80269 162.487928 
L 259.823691 163.884868 
L 258.962875 164.816161 
L 257.811536 165.715632 
L 256.648228 166.290151 
L 255.48492 166.570721 
L 254.321612 166.576161 
L 253.158304 166.306824 
L 252.227658 165.882091 
L 251.297012 165.251057 
L 250.338129 164.350515 
L 249.410733 163.186398 
L 248.436325 161.556634 
L 247.574427 159.631389 
L 246.818355 157.365814 
L 246.14397 154.571933 
L 245.61361 151.312406 
L 245.274832 147.820056 
L 245.244881 147.354409 
L 245.244881 147.354409 
" style="fill:none;stroke:#90d743;stroke-width:1.5;"/>
    <path clip-path="url(#pa8c0446727)" d="M 312.250822 148.052879 
L 312.088791 144.094882 
L 312.155869 140.136885 
L 312.436881 136.411711 
L 312.887202 133.152184 
L 313.526681 130.12548 
L 314.298982 127.564423 
L 315.054071 125.701836 
L 315.976928 123.974038 
L 316.907575 122.659917 
L 318.015513 121.511015 
L 319.001529 120.786771 
L 320.164837 120.236968 
L 321.328145 119.978835 
L 322.491452 119.995158 
L 323.65476 120.286987 
L 324.718333 120.812545 
L 325.664145 121.511015 
L 326.588521 122.442309 
L 327.466793 123.606426 
L 328.401652 125.236189 
L 329.238638 127.17292 
L 329.967628 129.42701 
L 330.634607 132.28423 
L 331.135977 135.480417 
L 331.460189 138.972768 
L 331.595306 142.930765 
L 331.50114 146.888762 
L 331.191358 150.613936 
L 330.709934 153.873463 
L 330.093205 156.667344 
L 329.296949 159.228401 
L 328.515965 161.090987 
L 327.610007 162.734559 
L 326.588521 164.117691 
L 325.516053 165.175472 
L 324.585407 165.828687 
L 323.422099 166.354065 
L 322.258791 166.589862 
L 321.095483 166.551771 
L 319.932175 166.237333 
L 318.960744 165.747455 
L 318.015513 165.048985 
L 317.091096 164.117691 
L 316.20959 162.949663 
L 315.277508 161.323811 
L 314.382869 159.228401 
L 313.71259 157.13299 
L 313.104209 154.571933 
L 312.604015 151.545229 
L 312.250822 148.052879 
L 312.250822 148.052879 
" style="fill:none;stroke:#90d743;stroke-width:1.5;"/>
   </g>
   <g id="LineCollection_7">
    <path clip-path="url(#pa8c0446727)" d="M 54 133.210994 
L 54.232662 133.224341 
L 54.465323 133.264414 
L 54.697985 133.331308 
L 54.831168 133.385007 
L 54.930646 133.425994 
L 55.163308 133.549519 
L 55.268312 133.61783 
L 55.395969 133.702834 
L 55.583248 133.850654 
L 55.628631 133.88736 
L 55.838198 134.083477 
L 55.861293 134.105651 
L 56.054401 134.3163 
L 56.093954 134.360621 
L 56.244137 134.549124 
L 56.326616 134.6556 
L 56.41499 134.781947 
L 56.559277 134.994395 
L 56.571891 135.014771 
L 56.711916 135.247594 
L 56.791939 135.384895 
L 56.843088 135.480417 
L 56.963884 135.713241 
L 57.0246 135.834172 
L 57.076565 135.946064 
L 57.181121 136.178887 
L 57.257262 136.354546 
L 57.280317 136.411711 
L 57.370992 136.644534 
L 57.458269 136.877357 
L 57.489924 136.965047 
L 57.538925 137.110181 
L 57.614477 137.343004 
L 57.686922 137.575828 
L 57.722585 137.695402 
L 57.754323 137.808651 
L 57.816768 138.041474 
L 57.876352 138.274298 
L 57.933095 138.507121 
L 57.955247 138.602663 
L 57.985282 138.739944 
L 58.033609 138.972768 
L 58.079301 139.205591 
L 58.122373 139.438414 
L 58.162838 139.671238 
L 58.187908 139.825282 
L 58.200054 139.904061 
L 58.233535 140.136885 
L 58.26458 140.369708 
L 58.293197 140.602531 
L 58.319398 140.835355 
L 58.343189 141.068178 
L 58.364579 141.301001 
L 58.383575 141.533825 
L 58.400183 141.766648 
L 58.414409 141.999471 
L 58.42057 142.120524 
L 58.425981 142.232295 
L 58.434996 142.465118 
L 58.441755 142.697942 
L 58.446259 142.930765 
L 58.448511 143.163588 
L 58.448511 143.396412 
L 58.446259 143.629235 
L 58.441755 143.862058 
L 58.434996 144.094882 
L 58.425981 144.327705 
L 58.42057 144.439476 
L 58.414409 144.560529 
L 58.400183 144.793352 
L 58.383575 145.026175 
L 58.364579 145.258999 
L 58.343189 145.491822 
L 58.319398 145.724645 
L 58.293197 145.957469 
L 58.26458 146.190292 
L 58.233535 146.423115 
L 58.200054 146.655939 
L 58.187908 146.734718 
L 58.162838 146.888762 
L 58.122373 147.121586 
L 58.079301 147.354409 
L 58.033609 147.587232 
L 57.985282 147.820056 
L 57.955247 147.957337 
L 57.933095 148.052879 
L 57.876352 148.285702 
L 57.816768 148.518526 
L 57.754323 148.751349 
L 57.722585 148.864598 
L 57.686922 148.984172 
L 57.614477 149.216996 
L 57.538925 149.449819 
L 57.489924 149.594953 
L 57.458269 149.682643 
L 57.370992 149.915466 
L 57.280317 150.148289 
L 57.257262 150.205454 
L 57.181121 150.381113 
L 57.076565 150.613936 
L 57.0246 150.725828 
L 56.963884 150.846759 
L 56.843088 151.079583 
L 56.791939 151.175105 
L 56.711916 151.312406 
L 56.571891 151.545229 
L 56.559277 151.565605 
L 56.41499 151.778053 
L 56.326616 151.9044 
L 56.244137 152.010876 
L 56.093954 152.199379 
L 56.054401 152.2437 
L 55.861293 152.454349 
L 55.838198 152.476523 
L 55.628631 152.67264 
L 55.583248 152.709346 
L 55.395969 152.857166 
L 55.268312 152.94217 
L 55.163308 153.010481 
L 54.930646 153.134006 
L 54.831168 153.174993 
L 54.697985 153.228692 
L 54.465323 153.295586 
L 54.232662 153.335659 
L 54 153.349006 
" style="fill:none;stroke:#fde725;stroke-width:1.5;"/>
    <path clip-path="url(#pa8c0446727)" d="M 388.8 153.349006 
L 388.567338 153.335659 
L 388.334677 153.295586 
L 388.102015 153.228692 
L 387.968832 153.174993 
L 387.869354 153.134006 
L 387.636692 153.010481 
L 387.531688 152.94217 
L 387.404031 152.857166 
L 387.216752 152.709346 
L 387.171369 152.67264 
L 386.961802 152.476523 
L 386.938707 152.454349 
L 386.745599 152.2437 
L 386.706046 152.199379 
L 386.555863 152.010876 
L 386.473384 151.9044 
L 386.38501 151.778053 
L 386.240723 151.565605 
L 386.228109 151.545229 
L 386.088084 151.312406 
L 386.008061 151.175105 
L 385.956912 151.079583 
L 385.836116 150.846759 
L 385.7754 150.725828 
L 385.723435 150.613936 
L 385.618879 150.381113 
L 385.542738 150.205454 
L 385.519683 150.148289 
L 385.429008 149.915466 
L 385.341731 149.682643 
L 385.310076 149.594953 
L 385.261075 149.449819 
L 385.185523 149.216996 
L 385.113078 148.984172 
L 385.077415 148.864598 
L 385.045677 148.751349 
L 384.983232 148.518526 
L 384.923648 148.285702 
L 384.866905 148.052879 
L 384.844753 147.957337 
L 384.814718 147.820056 
L 384.766391 147.587232 
L 384.720699 147.354409 
L 384.677627 147.121586 
L 384.637162 146.888762 
L 384.612092 146.734718 
L 384.599946 146.655939 
L 384.566465 146.423115 
L 384.53542 146.190292 
L 384.506803 145.957469 
L 384.480602 145.724645 
L 384.456811 145.491822 
L 384.435421 145.258999 
L 384.416425 145.026175 
L 384.399817 144.793352 
L 384.385591 144.560529 
L 384.37943 144.439476 
L 384.374019 144.327705 
L 384.365004 144.094882 
L 384.358245 143.862058 
L 384.353741 143.629235 
L 384.351489 143.396412 
L 384.351489 143.163588 
L 384.353741 142.930765 
L 384.358245 142.697942 
L 384.365004 142.465118 
L 384.374019 142.232295 
L 384.37943 142.120524 
L 384.385591 141.999471 
L 384.399817 141.766648 
L 384.416425 141.533825 
L 384.435421 141.301001 
L 384.456811 141.068178 
L 384.480602 140.835355 
L 384.506803 140.602531 
L 384.53542 140.369708 
L 384.566465 140.136885 
L 384.599946 139.904061 
L 384.612092 139.825282 
L 384.637162 139.671238 
L 384.677627 139.438414 
L 384.720699 139.205591 
L 384.766391 138.972768 
L 384.814718 138.739944 
L 384.844753 138.602663 
L 384.866905 138.507121 
L 384.923648 138.274298 
L 384.983232 138.041474 
L 385.045677 137.808651 
L 385.077415 137.695402 
L 385.113078 137.575828 
L 385.185523 137.343004 
L 385.261075 137.110181 
L 385.310076 136.965047 
L 385.341731 136.877357 
L 385.429008 136.644534 
L 385.519683 136.411711 
L 385.542738 136.354546 
L 385.618879 136.178887 
L 385.723435 135.946064 
L 385.7754 135.834172 
L 385.836116 135.713241 
L 385.956912 135.480417 
L 386.008061 135.384895 
L 386.088084 135.247594 
L 386.228109 135.014771 
L 386.240723 134.994395 
L 386.38501 134.781947 
L 386.473384 134.6556 
L 386.555863 134.549124 
L 386.706046 134.360621 
L 386.745599 134.3163 
L 386.938707 134.105651 
L 386.961802 134.083477 
L 387.171369 133.88736 
L 387.216752 133.850654 
L 387.404031 133.702834 
L 387.531688 133.61783 
L 387.636692 133.549519 
L 387.869354 133.425994 
L 387.968832 133.385007 
L 388.102015 133.331308 
L 388.334677 133.264414 
L 388.567338 133.224341 
L 388.8 133.210994 
" style="fill:none;stroke:#fde725;stroke-width:1.5;"/>
    <path clip-path="url(#pa8c0446727)" d="M 116.575885 145.026175 
L 116.518947 142.697942 
L 116.695591 140.369708 
L 117.082938 138.274298 
L 117.58873 136.644534 
L 118.247053 135.247594 
L 118.912578 134.306294 
L 119.691242 133.61783 
L 120.308548 133.315776 
L 121.006532 133.211528 
L 121.791516 133.385007 
L 122.402502 133.73725 
L 123.100486 134.416484 
L 123.804448 135.480417 
L 124.417464 136.877357 
L 124.892284 138.507121 
L 125.225217 140.369708 
L 125.401668 142.697942 
L 125.34301 145.026175 
L 125.082079 147.121586 
L 124.646221 148.984172 
L 124.031133 150.628536 
L 123.333148 151.840426 
L 122.541836 152.709346 
L 121.937179 153.11153 
L 121.239194 153.329785 
L 120.541209 153.305742 
L 119.843224 153.03742 
L 119.121816 152.476523 
L 118.389505 151.545229 
L 117.74927 150.31598 
L 117.206398 148.751349 
L 116.797084 146.888762 
L 116.575885 145.026175 
L 116.575885 145.026175 
" style="fill:none;stroke:#fde725;stroke-width:1.5;"/>
    <path clip-path="url(#pa8c0446727)" d="M 183.575893 145.491822 
L 183.472316 143.163588 
L 183.599316 140.835355 
L 183.935606 138.739944 
L 184.462298 136.877357 
L 185.077516 135.480417 
L 185.686449 134.532155 
L 186.384434 133.809577 
L 187.082418 133.384382 
L 187.780403 133.215799 
L 188.478388 133.287945 
L 189.192218 133.61783 
L 189.874357 134.203448 
L 190.572342 135.144393 
L 191.199333 136.411711 
L 191.673785 137.808651 
L 192.081891 139.671238 
L 192.319199 141.766648 
L 192.354034 144.094882 
L 192.153503 146.423115 
L 191.73565 148.528751 
L 191.199333 150.148289 
L 190.572342 151.415607 
L 189.874357 152.356552 
L 189.176372 152.953235 
L 188.478388 153.272055 
L 187.780403 153.344201 
L 187.081096 153.174993 
L 186.336845 152.709346 
L 185.673755 152.010876 
L 184.955479 150.846759 
L 184.381609 149.449819 
L 183.935606 147.820056 
L 183.599316 145.724645 
L 183.575893 145.491822 
L 183.575893 145.491822 
" style="fill:none;stroke:#fde725;stroke-width:1.5;"/>
    <path clip-path="url(#pa8c0446727)" d="M 250.585649 145.957469 
L 250.434366 143.629235 
L 250.515694 141.301001 
L 250.799872 139.205591 
L 251.264594 137.343004 
L 251.803193 135.946064 
L 252.462521 134.781947 
L 253.158304 133.970843 
L 253.856289 133.472058 
L 254.554274 133.237159 
L 255.252259 133.245173 
L 255.950243 133.496761 
L 256.716481 134.083477 
L 257.346213 134.853371 
L 258.044197 136.136629 
L 258.566536 137.575828 
L 259.002974 139.438414 
L 259.263296 141.533825 
L 259.320795 143.862058 
L 259.14472 146.190292 
L 258.742182 148.347487 
L 258.159032 150.148289 
L 257.578874 151.338119 
L 256.88089 152.305762 
L 256.151057 152.94217 
L 255.48492 153.258677 
L 254.786935 153.346871 
L 254.045791 153.174993 
L 253.298154 152.709346 
L 252.635355 152.010876 
L 251.994997 151.003156 
L 251.422717 149.682643 
L 250.94798 148.052879 
L 250.585649 145.957469 
L 250.585649 145.957469 
" style="fill:none;stroke:#fde725;stroke-width:1.5;"/>
    <path clip-path="url(#pa8c0446727)" d="M 317.605513 146.423115 
L 317.405362 144.094882 
L 317.440549 141.766648 
L 317.67789 139.671238 
L 318.085266 137.808651 
L 318.659117 136.178887 
L 319.268892 135.014771 
L 320.003601 134.083477 
L 320.63016 133.57758 
L 321.328145 133.275643 
L 322.026129 133.219536 
L 322.724114 133.404628 
L 323.425657 133.850654 
L 324.120083 134.592995 
L 324.818068 135.738569 
L 325.454871 137.343004 
L 325.873446 138.972768 
L 326.18383 141.068178 
L 326.287876 143.163588 
L 326.18383 145.491822 
L 325.873446 147.587232 
L 325.378369 149.449819 
L 324.805133 150.846759 
L 324.085347 152.010876 
L 323.422099 152.712506 
L 322.673594 153.174993 
L 322.026129 153.340464 
L 321.328145 153.284357 
L 320.570479 152.94217 
L 319.932175 152.406079 
L 319.23419 151.491607 
L 318.559698 150.148289 
L 318.070883 148.700303 
L 317.640424 146.655939 
L 317.605513 146.423115 
L 317.605513 146.423115 
" style="fill:none;stroke:#fde725;stroke-width:1.5;"/>
   </g>
   <g id="line2d_1">
    <path clip-path="url(#pa8c0446727)" d="M 54 195.36 
L 388.8 195.36 
" style="fill:none;stroke:#ff0000;stroke-linecap:square;stroke-width:1.5;"/>
   </g>
   <g id="line2d_2">
    <path clip-path="url(#pa8c0446727)" d="M 54 91.2 
L 388.8 91.2 
" style="fill:none;stroke:#ff0000;stroke-linecap:square;stroke-width:1.5;"/>
   </g>
   <g id="patch_3">
    <path d="M 54 252 
L 54 34.56 
" style="fill:none;stroke:#000000;stroke-linecap:square;stroke-linejoin:miter;stroke-width:0.8;"/>
   </g>
   <g id="patch_4">
    <path d="M 388.8 252 
L 388.8 34.56 
" style="fill:none;stroke:#000000;stroke-linecap:square;stroke-linejoin:miter;stroke-width:0.8;"/>
   </g>
   <g id="patch_5">
    <path d="M 54 252 
L 388.8 252 
" style="fill:none;stroke:#000000;stroke-linecap:square;stroke-linejoin:miter;stroke-width:0.8;"/>
   </g>
   <g id="patch_6">
    <path d="M 54 34.56 
L 388.8 34.56 
" style="fill:none;stroke:#000000;stroke-linecap:square;stroke-linejoin:miter;stroke-width:0.8;"/>
   </g>
  </g>
 </g>
 <defs>
  <clipPath id="pa8c0446727">
   <rect height="217.44" width="334.8" x="54" y="34.56"/>
  </clipPath>
 </defs>
</svg>
