<?xml version="1.0" encoding="utf-8" standalone="no"?>
<!DOCTYPE svg PUBLIC "-//W3C//DTD SVG 1.1//EN"
  "http://www.w3.org/Graphics/SVG/1.1/DTD/svg11.dtd">
<!-- Created with matplotlib (http://matplotlib.org/) -->
<svg height="288pt" version="1.1" viewBox="0 0 432 288" width="432pt" xmlns="http://www.w3.org/2000/svg" xmlns:xlink="http://www.w3.org/1999/xlink">
 <defs>
  <style type="text/css">
*{stroke-linecap:butt;stroke-linejoin:round;}
  </style>
 </defs>
 <g id="figure_1">
  <g id="patch_1">
   <path d="M 0 288 
L 432 288 
L 432 0 
L 0 0 
z
" style="fill:#ffffff;"/>
  </g>
  <g id="axes_1">
   <g id="patch_2">
    <path d="M 54 252 
L 388.8 252 
L 388.8 34.56 
L 54 34.56 
z
" style="fill:#ffffff;"/>
   </g>
   <g id="matplotlib.axis_1"/>
   <g id="matplotlib.axis_2"/>
   <g id="LineCollection_1">
    <path clip-path="url(#pd854d598be)" d="M 108.207475 82.629513 
L 108.561535 83.327983 
L 109.140792 84.032566 
L 110.071438 84.814979 
L 111.448804 85.656217 
L 113.3287 86.503213 
L 115.627489 87.285981 
L 118.447255 88.010306 
L 122.16984 88.708639 
L 126.357748 89.247947 
L 131.01098 89.618911 
L 136.129534 89.79607 
L 141.248089 89.753852 
L 146.366644 89.487055 
L 151.019875 89.020601 
L 154.975122 88.411348 
L 158.465045 87.646882 
L 161.256984 86.806278 
L 163.488819 85.88904 
L 165.126669 84.957747 
L 166.265326 84.026453 
L 166.840862 83.3244 
L 167.192329 82.629513 
L 167.337468 81.931043 
L 167.277379 81.232573 
L 167.009493 80.534103 
L 166.375539 79.671598 
L 165.677554 79.035222 
L 164.514246 78.251813 
L 163.042159 77.507399 
L 160.791661 76.654418 
L 158.232384 75.926963 
L 155.207783 75.28069 
L 151.485198 74.701803 
L 146.831967 74.224524 
L 141.713412 73.944623 
L 136.362196 73.88696 
L 131.243641 74.049156 
L 126.357748 74.42213 
L 122.16984 74.947385 
L 118.376876 75.644812 
L 115.189993 76.470721 
L 112.863377 77.292056 
L 110.963678 78.205869 
L 109.593584 79.137163 
L 108.688559 80.068456 
L 108.210146 80.942892 
L 108.07988 81.465396 
L 108.08814 82.163866 
L 108.207475 82.629513 
L 108.207475 82.629513 
" style="fill:none;stroke:#440154;stroke-width:1.5;"/>
    <path clip-path="url(#pd854d598be)" d="M 275.479725 205.094604 
L 275.726477 205.894217 
L 276.1918 206.620748 
L 276.889785 207.332724 
L 277.820431 208.022713 
L 279.253681 208.819777 
L 281.310354 209.667338 
L 283.63697 210.391507 
L 286.428909 211.052732 
L 289.918833 211.664488 
L 294.106741 212.172214 
L 298.992634 212.529154 
L 304.111188 212.676303 
L 309.462404 212.603574 
L 314.580959 212.307849 
L 319.23419 211.812012 
L 323.302097 211.148011 
L 326.679361 210.359403 
L 329.300259 209.518248 
L 331.410045 208.586954 
L 332.910571 207.655661 
L 333.924849 206.724367 
L 334.409514 206.025897 
L 334.677275 205.327427 
L 334.737373 204.628957 
L 334.589854 203.92386 
L 334.124531 203.071657 
L 333.659208 202.527434 
L 332.728562 201.745021 
L 331.351196 200.903783 
L 329.4713 200.056787 
L 327.172511 199.274019 
L 324.352745 198.549694 
L 320.63016 197.851361 
L 316.442252 197.312053 
L 311.78902 196.941089 
L 306.670466 196.76393 
L 301.551911 196.806148 
L 296.433356 197.072945 
L 291.780125 197.539399 
L 287.824878 198.148652 
L 284.334955 198.913118 
L 281.543016 199.753722 
L 279.311181 200.67096 
L 277.673331 201.602253 
L 276.534674 202.533547 
L 275.959138 203.2356 
L 275.607671 203.930487 
L 275.462532 204.628957 
L 275.479725 205.094604 
L 275.479725 205.094604 
" style="fill:none;stroke:#440154;stroke-width:1.5;"/>
   </g>
   <g id="LineCollection_2">
    <path clip-path="url(#pd854d598be)" d="M 86.101585 82.39669 
L 86.351661 83.560807 
L 86.855163 84.724924 
L 87.632656 85.88904 
L 88.718746 87.053157 
L 90.167115 88.217274 
L 91.923836 89.306994 
L 93.974024 90.312684 
L 96.577067 91.322699 
L 99.601668 92.247753 
L 103.324253 93.13585 
L 107.744823 93.940282 
L 112.863377 94.632382 
L 118.802176 95.201975 
L 125.427102 95.613515 
L 132.872272 95.851599 
L 140.550104 95.879338 
L 148.227936 95.689245 
L 155.207783 95.305713 
L 161.609148 94.736328 
L 167.073523 94.030701 
L 171.726755 93.207832 
L 175.44934 92.341318 
L 178.706602 91.362544 
L 181.425946 90.312684 
L 183.592495 89.242426 
L 185.232967 88.217274 
L 186.681244 87.053157 
L 187.780403 85.872251 
L 188.544824 84.724924 
L 189.048268 83.560807 
L 189.298336 82.39669 
L 189.304178 81.232573 
L 189.064554 80.068456 
L 188.567629 78.904339 
L 187.780403 77.729145 
L 186.690594 76.576106 
L 185.453787 75.58295 
L 183.825156 74.555995 
L 181.963864 73.623771 
L 179.637248 72.692532 
L 176.845309 71.805715 
L 173.355386 70.937956 
L 169.167477 70.140853 
L 164.281584 69.445697 
L 158.465045 68.852843 
L 151.71786 68.399848 
L 144.272689 68.126283 
L 136.362196 68.055123 
L 128.451703 68.199993 
L 121.006532 68.553725 
L 114.492008 69.075553 
L 108.908131 69.733964 
L 104.078718 70.522698 
L 100.066991 71.402028 
L 96.809729 72.335106 
L 94.14443 73.316579 
L 91.923836 74.364961 
L 90.189591 75.411989 
L 88.709381 76.576106 
L 87.610583 77.740223 
L 86.805281 78.956171 
L 86.335365 80.068456 
L 86.095752 81.232573 
L 86.101585 82.39669 
L 86.101585 82.39669 
" style="fill:none;stroke:#443983;stroke-width:1.5;"/>
    <path clip-path="url(#pd854d598be)" d="M 108.199456 162.953574 
L 108.407234 163.652045 
L 108.908131 164.352767 
L 109.838777 165.129117 
L 111.002085 165.801744 
L 112.863377 166.581594 
L 115.189993 167.295069 
L 117.981932 167.931017 
L 121.704517 168.545422 
L 126.357748 169.058344 
L 131.476303 169.387755 
L 137.060181 169.521387 
L 142.644058 169.438363 
L 147.995274 169.143469 
L 152.881167 168.65192 
L 156.836414 168.042546 
L 160.093676 167.325938 
L 162.652953 166.539658 
L 164.514246 165.744626 
L 165.910215 164.875781 
L 166.6082 164.217861 
L 166.992685 163.652045 
L 167.200377 162.953574 
L 167.127363 162.255104 
L 166.771616 161.556634 
L 166.119028 160.858164 
L 164.979569 160.067081 
L 163.5836 159.374708 
L 161.489646 158.607499 
L 158.930368 157.91357 
L 155.673106 157.26333 
L 151.71786 156.702973 
L 147.29729 156.288793 
L 142.178735 156.022717 
L 136.594858 155.955194 
L 131.01098 156.112318 
L 125.892425 156.471668 
L 121.239194 157.024261 
L 117.516609 157.681167 
L 114.492008 158.431137 
L 112.162794 159.228401 
L 110.536762 160.000529 
L 109.373454 160.782964 
L 108.811879 161.323811 
L 108.35941 162.022281 
L 108.192788 162.720751 
L 108.199456 162.953574 
L 108.199456 162.953574 
" style="fill:none;stroke:#443983;stroke-width:1.5;"/>
    <path clip-path="url(#pd854d598be)" d="M 253.609564 206.025897 
L 254.001488 207.190014 
L 254.663426 208.354131 
L 255.628094 209.518248 
L 256.88089 210.630918 
L 258.30773 211.613658 
L 260.138151 212.610324 
L 262.464767 213.609777 
L 265.256706 214.551469 
L 268.513968 215.411749 
L 272.469215 216.219476 
L 277.122446 216.937086 
L 282.473662 217.540554 
L 288.755525 218.028146 
L 296.022626 218.365535 
L 303.878527 218.505385 
L 312.021682 218.425569 
L 319.699514 218.129558 
L 326.679361 217.636844 
L 332.728562 216.982994 
L 337.614454 216.240247 
L 341.802363 215.384603 
L 345.059625 214.516513 
L 347.851564 213.565203 
L 350.196705 212.544951 
L 352.039472 211.521431 
L 353.548594 210.449541 
L 354.791232 209.285424 
L 355.691919 208.121307 
L 356.297718 206.957191 
L 356.638224 205.793074 
L 356.72986 204.628957 
L 356.57795 203.46484 
L 356.177668 202.300723 
L 355.513137 201.136606 
L 354.555674 199.97249 
L 353.260152 198.808373 
L 351.80681 197.79724 
L 349.834011 196.712962 
L 347.38624 195.659328 
L 344.594302 194.711987 
L 341.33704 193.839504 
L 337.381793 193.014587 
L 332.813673 192.289318 
L 327.377345 191.655538 
L 321.095483 191.152048 
L 314.115636 190.815462 
L 306.437804 190.669129 
L 298.527311 190.744931 
L 291.08214 191.035183 
L 284.334955 191.514374 
L 278.518416 192.13947 
L 273.399861 192.910496 
L 269.211953 193.757567 
L 265.722029 194.676915 
L 262.697429 195.70391 
L 260.365884 196.712962 
L 258.264765 197.877079 
L 256.648228 199.043319 
L 255.427536 200.205313 
L 254.531652 201.36943 
L 253.921815 202.533547 
L 253.572082 203.697663 
L 253.468993 204.86178 
L 253.609564 206.025897 
L 253.609564 206.025897 
" style="fill:none;stroke:#443983;stroke-width:1.5;"/>
    <path clip-path="url(#pd854d598be)" d="M 275.672637 124.304896 
L 276.028384 125.003366 
L 276.680972 125.701836 
L 277.820431 126.492919 
L 279.2164 127.185292 
L 281.310354 127.952501 
L 283.869632 128.64643 
L 287.126894 129.29667 
L 291.08214 129.857027 
L 295.50271 130.271207 
L 300.621265 130.537283 
L 306.205142 130.604806 
L 311.78902 130.447682 
L 316.907575 130.088332 
L 321.560806 129.535739 
L 325.283391 128.878833 
L 328.307992 128.128863 
L 330.637206 127.331599 
L 332.263238 126.559471 
L 333.426546 125.777036 
L 333.988121 125.236189 
L 334.44059 124.537719 
L 334.607212 123.839249 
L 334.49348 123.140779 
L 334.093784 122.442309 
L 333.3886 121.743839 
L 332.263238 121.00232 
L 330.634607 120.241936 
L 328.540653 119.525136 
L 325.981376 118.871308 
L 322.491452 118.219857 
L 318.303544 117.679484 
L 313.417651 117.28079 
L 307.833773 117.062633 
L 302.017234 117.069545 
L 296.433356 117.302034 
L 291.547464 117.716511 
L 287.359555 118.275333 
L 283.63697 119.003672 
L 280.845031 119.778995 
L 278.77203 120.579722 
L 277.355108 121.353062 
L 276.424461 122.091442 
L 275.940224 122.675132 
L 275.637402 123.373602 
L 275.61727 124.072072 
L 275.672637 124.304896 
L 275.672637 124.304896 
" style="fill:none;stroke:#443983;stroke-width:1.5;"/>
   </g>
   <g id="LineCollection_3">
    <path clip-path="url(#pd854d598be)" d="M 69.33725 82.862337 
L 69.588325 84.540913 
L 70.053648 86.159243 
L 70.756182 87.751627 
L 71.682279 89.246053 
L 72.747483 90.545508 
L 74.008895 91.747701 
L 75.637526 92.965539 
L 77.498819 94.058742 
L 79.592773 95.033979 
L 82.15205 95.977207 
L 85.17665 96.849661 
L 88.899236 97.677297 
L 93.319805 98.421355 
L 98.671022 99.08841 
L 105.185546 99.669378 
L 113.096039 100.146223 
L 122.635163 100.493705 
L 133.570257 100.669299 
L 145.203336 100.637323 
L 156.138429 100.39429 
L 165.677554 99.9678 
L 173.355386 99.415194 
L 179.637248 98.752049 
L 184.762211 97.995855 
L 188.943711 97.159856 
L 192.433634 96.234068 
L 195.225573 95.269022 
L 197.552189 94.237298 
L 199.546697 93.106565 
L 201.157268 91.942448 
L 202.438082 90.771069 
L 203.619635 89.381391 
L 204.532036 87.958621 
L 205.274237 86.354687 
L 205.770574 84.724924 
L 206.041291 83.09516 
L 206.103347 81.465396 
L 205.959184 79.835633 
L 205.596999 78.205869 
L 204.98861 76.576106 
L 204.233672 75.179166 
L 203.210795 73.782225 
L 201.972759 72.503075 
L 200.576789 71.380659 
L 198.850196 70.289875 
L 196.854204 69.299974 
L 194.527589 68.391244 
L 191.579221 67.495994 
L 188.245726 66.717934 
L 184.057818 65.97596 
L 178.939263 65.30679 
L 172.657401 64.720189 
L 164.979569 64.23306 
L 155.440445 63.860082 
L 144.272689 63.649911 
L 131.941626 63.642477 
L 120.308548 63.850185 
L 110.3041 64.239005 
L 102.160945 64.766268 
L 95.63688 65.400584 
L 90.295205 66.141815 
L 86.107297 66.941002 
L 82.850035 67.765377 
L 80.058096 68.684909 
L 77.73148 69.675839 
L 75.760475 70.755522 
L 74.110585 71.919638 
L 72.823988 73.083755 
L 71.640185 74.480695 
L 70.751633 75.891582 
L 70.053648 77.446877 
L 69.619687 78.904339 
L 69.353344 80.534103 
L 69.298167 82.163866 
L 69.33725 82.862337 
L 69.33725 82.862337 
" style="fill:none;stroke:#31688e;stroke-width:1.5;"/>
    <path clip-path="url(#pd854d598be)" d="M 77.468493 163.652045 
L 77.754366 164.816161 
L 78.288444 165.980278 
L 79.12745 167.172621 
L 80.252494 168.308512 
L 81.686727 169.385186 
L 83.315358 170.327893 
L 85.17665 171.179134 
L 87.735928 172.095653 
L 90.906016 172.964979 
L 94.715775 173.754729 
L 99.369006 174.473062 
L 104.952884 175.09853 
L 111.932731 175.639376 
L 120.308548 176.05118 
L 130.080334 176.300338 
L 140.782766 176.34733 
L 151.252536 176.175011 
L 160.558999 175.807257 
L 168.250278 175.293213 
L 174.751355 174.635827 
L 179.637248 173.936541 
L 183.592495 173.172828 
L 187.108177 172.266509 
L 189.874357 171.319435 
L 191.968311 170.38764 
L 193.829604 169.308273 
L 195.147483 168.308512 
L 196.296669 167.144395 
L 197.111592 165.980278 
L 197.645597 164.816161 
L 197.931478 163.652045 
L 197.986541 162.487928 
L 197.815342 161.323811 
L 197.410525 160.159694 
L 196.751901 158.995577 
L 195.803408 157.83146 
L 194.527589 156.683201 
L 193.131619 155.717537 
L 191.270327 154.708893 
L 189.176372 153.815588 
L 186.384434 152.883465 
L 182.980857 152.010876 
L 178.939263 151.224791 
L 174.05337 150.515253 
L 168.236831 149.90217 
L 161.024322 149.379696 
L 152.415844 148.993978 
L 142.87672 148.790047 
L 132.639611 148.788803 
L 122.635163 149.005586 
L 113.794024 149.414074 
L 106.581515 149.95468 
L 100.532314 150.618785 
L 95.41376 151.408002 
L 91.417795 152.2437 
L 88.061713 153.174993 
L 85.409312 154.138637 
L 83.315358 155.119667 
L 81.526745 156.201697 
L 80.069063 157.365814 
L 78.990054 158.52993 
L 78.196803 159.740057 
L 77.717704 160.858164 
L 77.454658 162.022281 
L 77.419331 163.186398 
L 77.468493 163.652045 
L 77.468493 163.652045 
" style="fill:none;stroke:#31688e;stroke-width:1.5;"/>
    <path clip-path="url(#pd854d598be)" d="M 236.840816 206.724367 
L 237.203001 208.354131 
L 237.81139 209.983894 
L 238.566328 211.380834 
L 239.589205 212.777775 
L 240.827241 214.056925 
L 242.223211 215.179341 
L 243.949804 216.270125 
L 245.945796 217.260026 
L 248.272411 218.168756 
L 251.220779 219.064006 
L 254.554274 219.842066 
L 258.742182 220.58404 
L 263.860737 221.25321 
L 270.142599 221.839811 
L 277.820431 222.32694 
L 287.359555 222.699918 
L 298.527311 222.910089 
L 310.858374 222.917523 
L 322.491452 222.709815 
L 332.4959 222.320995 
L 340.639055 221.793732 
L 347.16312 221.159416 
L 352.504795 220.418185 
L 356.692703 219.618998 
L 359.949965 218.794623 
L 362.741904 217.875091 
L 365.06852 216.884161 
L 367.039525 215.804478 
L 368.689415 214.640362 
L 369.976012 213.476245 
L 371.159815 212.079305 
L 372.048367 210.668418 
L 372.746352 209.113123 
L 373.180313 207.655661 
L 373.446656 206.025897 
L 373.501833 204.396134 
L 373.351459 202.76637 
L 372.979013 201.109981 
L 372.384672 199.506843 
L 371.583044 198.007633 
L 370.652397 196.7046 
L 369.35647 195.316022 
L 367.860459 194.079843 
L 366.184513 192.987789 
L 364.137874 191.932437 
L 361.811258 190.98355 
L 359.019319 190.08622 
L 355.735875 189.262615 
L 351.574149 188.464652 
L 346.688256 187.764558 
L 340.639055 187.134608 
L 333.193885 186.598966 
L 324.352745 186.193306 
L 313.882974 185.939809 
L 302.249896 185.883476 
L 290.849479 186.045731 
L 280.61237 186.408213 
L 272.236553 186.916736 
L 265.489368 187.534456 
L 259.90549 188.260359 
L 255.48492 189.04518 
L 251.762335 189.924456 
L 248.737735 190.858707 
L 246.301783 191.823672 
L 244.317165 192.815953 
L 242.455872 193.995498 
L 241.059903 195.117382 
L 239.733817 196.480139 
L 238.699049 197.877079 
L 237.923038 199.274019 
L 237.283671 200.903783 
L 236.871994 202.624464 
L 236.70702 204.16331 
L 236.73285 205.793074 
L 236.840816 206.724367 
L 236.840816 206.724367 
" style="fill:none;stroke:#31688e;stroke-width:1.5;"/>
    <path clip-path="url(#pd854d598be)" d="M 244.984658 125.236189 
L 245.389475 126.400306 
L 246.048099 127.564423 
L 246.996592 128.72854 
L 248.272411 129.876799 
L 249.668381 130.842463 
L 251.529673 131.851107 
L 253.623628 132.744412 
L 256.415566 133.676535 
L 259.819143 134.549124 
L 263.860737 135.335209 
L 268.74663 136.044747 
L 274.563169 136.65783 
L 281.775678 137.180304 
L 290.384156 137.566022 
L 299.92328 137.769953 
L 310.160389 137.771197 
L 320.164837 137.554414 
L 329.005976 137.145926 
L 336.218485 136.60532 
L 342.267686 135.941215 
L 347.38624 135.151998 
L 351.382205 134.3163 
L 354.738287 133.385007 
L 357.390688 132.421363 
L 359.484642 131.440333 
L 361.273255 130.358303 
L 362.730937 129.194186 
L 363.809946 128.03007 
L 364.603197 126.819943 
L 365.082296 125.701836 
L 365.345342 124.537719 
L 365.380669 123.373602 
L 365.188451 122.209485 
L 364.756656 121.045369 
L 364.059197 119.881252 
L 363.051816 118.717135 
L 361.811258 117.661829 
L 360.415288 116.742392 
L 358.553996 115.782326 
L 356.460042 114.934344 
L 353.668103 114.051812 
L 350.178179 113.211614 
L 346.222933 112.490998 
L 341.33704 111.827367 
L 335.287839 111.237194 
L 327.842669 110.746646 
L 319.001529 110.394813 
L 308.76442 110.216444 
L 298.061987 110.251362 
L 287.824878 110.504542 
L 279.2164 110.927953 
L 271.951111 111.499611 
L 266.187352 112.165032 
L 261.534121 112.911714 
L 257.578874 113.774476 
L 254.554274 114.652559 
L 252.227658 115.526278 
L 250.133704 116.542957 
L 248.505073 117.57562 
L 247.148162 118.717135 
L 246.140781 119.881252 
L 245.443321 121.045369 
L 245.011493 122.209485 
L 244.819309 123.373602 
L 244.854673 124.537719 
L 244.984658 125.236189 
L 244.984658 125.236189 
" style="fill:none;stroke:#31688e;stroke-width:1.5;"/>
   </g>
   <g id="LineCollection_4">
    <path clip-path="url(#pd854d598be)" d="M 388.8 181.310799 
L 221.516331 181.310799 
L 221.4 181.113797 
L 221.4 143.396412 
L 221.516331 143.28 
L 388.8 143.28 
L 388.8 143.28 
" style="fill:none;stroke:#21918c;stroke-width:1.5;"/>
    <path clip-path="url(#pd854d598be)" d="M 388.8 105.249201 
L 221.516331 105.249201 
L 221.4 105.446203 
L 221.4 143.163588 
L 221.283669 143.28 
L 54.232662 143.28 
L 54 143.163588 
L 54 105.446203 
L 54.232662 105.249201 
L 221.4 105.21338 
L 221.4 59.812823 
L 221.516331 59.58 
L 388.8 59.58 
L 388.8 59.58 
" style="fill:none;stroke:#21918c;stroke-width:1.5;"/>
    <path clip-path="url(#pd854d598be)" d="M 54 226.747177 
L 54 181.34662 
L 54.930646 181.310799 
L 221.4 181.34662 
L 221.4 226.747177 
L 221.283669 226.98 
L 54.232662 226.98 
L 54 226.747177 
L 54 226.747177 
" style="fill:none;stroke:#21918c;stroke-width:1.5;"/>
   </g>
   <g id="LineCollection_5">
    <path clip-path="url(#pd854d598be)" d="M 69.353344 206.025897 
L 69.298167 204.396134 
L 69.448541 202.76637 
L 69.820987 201.109981 
L 70.415328 199.506843 
L 71.216956 198.007633 
L 72.147603 196.7046 
L 73.44353 195.316022 
L 74.939541 194.079843 
L 76.615487 192.987789 
L 78.662126 191.932437 
L 80.988742 190.98355 
L 83.780681 190.08622 
L 87.064125 189.262615 
L 91.225851 188.464652 
L 96.111744 187.764558 
L 102.160945 187.134608 
L 109.606115 186.598966 
L 118.447255 186.193306 
L 128.917026 185.939809 
L 140.550104 185.883476 
L 151.950521 186.045731 
L 162.18763 186.408213 
L 170.563447 186.916736 
L 177.310632 187.534456 
L 182.89451 188.260359 
L 187.31508 189.04518 
L 191.037665 189.924456 
L 194.062265 190.858707 
L 196.498217 191.823672 
L 198.482835 192.815953 
L 200.344128 193.995498 
L 201.740097 195.117382 
L 203.066183 196.480139 
L 204.100951 197.877079 
L 204.876962 199.274019 
L 205.516329 200.903783 
L 205.928006 202.624464 
L 206.09298 204.16331 
L 206.06715 205.793074 
L 205.831871 207.422837 
L 205.368742 209.052601 
L 204.763197 210.449541 
L 203.925642 211.846481 
L 202.903405 213.127953 
L 201.740097 214.263566 
L 200.344128 215.343058 
L 198.482835 216.470696 
L 196.450534 217.434242 
L 193.944237 218.365535 
L 191.037665 219.20464 
L 187.477386 219.995299 
L 183.127172 220.72239 
L 177.775956 221.378512 
L 171.261432 221.944196 
L 163.118277 222.416864 
L 153.346491 222.755854 
L 141.946074 222.928682 
L 129.61501 222.8936 
L 118.214593 222.64686 
L 108.442808 222.220263 
L 100.532314 221.65682 
L 94.483113 221.01948 
L 89.59722 220.300818 
L 85.641974 219.514208 
L 82.190179 218.598359 
L 79.518814 217.667065 
L 77.266157 216.652819 
L 75.395877 215.571655 
L 73.776233 214.363797 
L 72.602083 213.243421 
L 71.449618 211.810335 
L 70.636843 210.449541 
L 69.949988 208.819777 
L 69.521167 207.190014 
L 69.353344 206.025897 
L 69.353344 206.025897 
" style="fill:none;stroke:#35b779;stroke-width:1.5;"/>
    <path clip-path="url(#pd854d598be)" d="M 77.488813 124.770542 
L 77.408363 123.606426 
L 77.554493 122.442309 
L 77.964142 121.218105 
L 78.578247 120.114075 
L 79.519003 118.949958 
L 80.756081 117.838524 
L 82.15205 116.880703 
L 83.780681 116.000493 
L 85.874635 115.106455 
L 88.433912 114.25166 
L 91.691174 113.413361 
L 95.522539 112.663727 
L 100.313577 111.965257 
L 106.116192 111.355549 
L 113.096039 110.849885 
L 121.471855 110.467556 
L 131.476303 110.240879 
L 142.178735 110.222829 
L 152.648506 110.425968 
L 161.722307 110.816213 
L 169.400139 111.365849 
L 175.44934 112.011272 
L 180.335233 112.743235 
L 184.290479 113.547089 
L 187.547741 114.428081 
L 190.107019 115.333724 
L 192.200973 116.29236 
L 193.932224 117.320195 
L 195.225573 118.320834 
L 196.296669 119.415605 
L 197.111592 120.579722 
L 197.645597 121.743839 
L 197.931478 122.907955 
L 197.986541 124.072072 
L 197.815342 125.236189 
L 197.410525 126.400306 
L 196.751901 127.564423 
L 195.803408 128.72854 
L 194.527589 129.876799 
L 193.131619 130.842463 
L 191.270327 131.851107 
L 189.176372 132.744412 
L 186.384434 133.676535 
L 182.980857 134.549124 
L 178.939263 135.335209 
L 174.05337 136.044747 
L 168.236831 136.65783 
L 161.024322 137.180304 
L 152.415844 137.566022 
L 142.87672 137.769953 
L 132.639611 137.771197 
L 122.635163 137.554414 
L 113.794024 137.145926 
L 106.581515 136.60532 
L 100.532314 135.941215 
L 95.41376 135.151998 
L 91.417795 134.3163 
L 88.061713 133.385007 
L 85.409312 132.421363 
L 83.315358 131.440333 
L 81.526745 130.358303 
L 80.069063 129.194186 
L 78.990054 128.03007 
L 78.196803 126.819943 
L 77.717704 125.701836 
L 77.488813 124.770542 
L 77.488813 124.770542 
" style="fill:none;stroke:#35b779;stroke-width:1.5;"/>
    <path clip-path="url(#pd854d598be)" d="M 236.848518 83.79363 
L 236.698168 82.163866 
L 236.753381 80.534103 
L 237.019704 78.904339 
L 237.517878 77.274576 
L 238.159046 75.877636 
L 239.040197 74.480695 
L 240.129256 73.182445 
L 241.292564 72.098303 
L 242.795923 70.988345 
L 244.549826 69.967094 
L 246.64378 69.004011 
L 249.203058 68.082726 
L 252.227658 67.239009 
L 255.950243 66.446113 
L 260.370813 65.739379 
L 265.722029 65.110486 
L 272.469215 64.550464 
L 280.845031 64.091476 
L 290.871862 63.770821 
L 302.482557 63.623104 
L 314.813621 63.688127 
L 325.981376 63.960041 
L 335.5205 64.408006 
L 342.965671 64.965832 
L 349.042657 65.633408 
L 353.900764 66.382209 
L 357.856011 67.210736 
L 360.880612 68.045962 
L 363.439889 68.956712 
L 365.533843 69.907181 
L 367.404123 70.988345 
L 369.023767 72.196203 
L 370.197917 73.316579 
L 371.350382 74.749665 
L 372.163157 76.110459 
L 372.850012 77.740223 
L 373.278833 79.369986 
L 373.483444 80.99975 
L 373.479963 82.629513 
L 373.26992 84.259277 
L 372.840687 85.88904 
L 372.163391 87.518804 
L 371.348027 88.915744 
L 370.264085 90.312684 
L 369.023767 91.546208 
L 367.627797 92.647782 
L 365.766505 93.809003 
L 363.67255 94.835676 
L 361.113273 95.821957 
L 358.088673 96.728863 
L 354.598749 97.53864 
L 350.178179 98.317388 
L 345.059625 98.98685 
L 338.777762 99.58025 
L 331.099931 100.076498 
L 321.793468 100.448637 
L 310.858374 100.656222 
L 299.225295 100.655121 
L 288.05754 100.438279 
L 278.285754 100.033159 
L 270.375261 99.495034 
L 263.860737 98.837994 
L 258.509521 98.075947 
L 254.321612 97.265642 
L 250.807194 96.366092 
L 248.004985 95.434798 
L 245.713134 94.464674 
L 243.61918 93.335887 
L 241.934923 92.175271 
L 240.59458 91.005031 
L 239.356422 89.614214 
L 238.414333 88.217274 
L 237.713314 86.820334 
L 237.147069 85.19057 
L 236.848518 83.79363 
L 236.848518 83.79363 
" style="fill:none;stroke:#35b779;stroke-width:1.5;"/>
    <path clip-path="url(#pd854d598be)" d="M 245.011493 164.350515 
L 244.819309 163.186398 
L 244.854673 162.022281 
L 245.11775 160.858164 
L 245.620845 159.694047 
L 246.411119 158.503756 
L 247.469118 157.365814 
L 248.737735 156.335823 
L 250.366366 155.309194 
L 252.227658 154.387546 
L 254.554274 153.477468 
L 257.346213 152.620897 
L 260.900812 151.778053 
L 265.256706 150.999306 
L 270.375261 150.322061 
L 276.657123 149.727514 
L 284.102293 149.25328 
L 292.943433 148.918671 
L 302.94788 148.766975 
L 313.18499 148.830551 
L 322.956776 149.109859 
L 331.332592 149.564602 
L 338.312439 150.158417 
L 344.128978 150.876629 
L 348.78221 151.673425 
L 352.504795 152.527372 
L 355.529395 153.437074 
L 358.088673 154.439492 
L 360.182627 155.507953 
L 361.907509 156.667344 
L 363.207227 157.835484 
L 364.151949 158.995577 
L 364.835858 160.218106 
L 365.215313 161.323811 
L 365.386513 162.487928 
L 365.331507 163.652045 
L 365.045634 164.816161 
L 364.511556 165.980278 
L 363.67255 167.172621 
L 362.547506 168.308512 
L 361.113273 169.385186 
L 359.484642 170.327893 
L 357.62335 171.179134 
L 355.064072 172.095653 
L 351.893984 172.964979 
L 348.084225 173.754729 
L 343.430994 174.473062 
L 337.847116 175.09853 
L 330.867269 175.639376 
L 322.491452 176.05118 
L 312.719666 176.300338 
L 302.017234 176.34733 
L 291.547464 176.175011 
L 282.241001 175.807257 
L 274.549722 175.293213 
L 268.048645 174.635827 
L 263.162752 173.936541 
L 259.207505 173.172828 
L 255.691823 172.266509 
L 252.925643 171.319435 
L 250.831689 170.38764 
L 248.970396 169.308273 
L 247.652517 168.308512 
L 246.503331 167.144395 
L 245.688408 165.980278 
L 245.154403 164.816161 
L 245.011493 164.350515 
L 245.011493 164.350515 
" style="fill:none;stroke:#35b779;stroke-width:1.5;"/>
   </g>
   <g id="LineCollection_6">
    <path clip-path="url(#pd854d598be)" d="M 86.095752 205.327427 
L 86.107297 204.11937 
L 86.351661 202.999193 
L 86.855163 201.835076 
L 87.632656 200.67096 
L 88.718746 199.506843 
L 90.167115 198.342726 
L 91.923836 197.253006 
L 93.974024 196.247316 
L 96.577067 195.237301 
L 99.601668 194.312247 
L 103.324253 193.42415 
L 107.744823 192.619718 
L 112.863377 191.927618 
L 118.802176 191.358025 
L 125.427102 190.946485 
L 132.872272 190.708401 
L 140.550104 190.680662 
L 148.227936 190.870755 
L 155.207783 191.254287 
L 161.609148 191.823672 
L 167.073523 192.529299 
L 171.726755 193.352168 
L 175.44934 194.218682 
L 178.706602 195.197456 
L 181.425946 196.247316 
L 183.592495 197.317574 
L 185.232967 198.342726 
L 186.681244 199.506843 
L 187.780403 200.687749 
L 188.544824 201.835076 
L 189.048268 202.999193 
L 189.298336 204.16331 
L 189.304178 205.327427 
L 189.064554 206.491544 
L 188.567629 207.655661 
L 187.780403 208.830855 
L 186.690594 209.983894 
L 185.453787 210.97705 
L 183.825156 212.004005 
L 181.963864 212.936229 
L 179.637248 213.867468 
L 176.845309 214.754285 
L 173.355386 215.622044 
L 169.167477 216.419147 
L 164.281584 217.114303 
L 158.465045 217.707157 
L 151.71786 218.160152 
L 144.272689 218.433717 
L 136.362196 218.504877 
L 128.451703 218.360007 
L 121.006532 218.006275 
L 114.492008 217.484447 
L 108.908131 216.826036 
L 104.078718 216.037302 
L 100.066991 215.157972 
L 96.809729 214.224894 
L 94.14443 213.243421 
L 91.923836 212.195039 
L 90.189591 211.148011 
L 88.709381 209.983894 
L 87.610583 208.819777 
L 86.805281 207.603829 
L 86.335365 206.491544 
L 86.095752 205.327427 
L 86.095752 205.327427 
" style="fill:none;stroke:#90d743;stroke-width:1.5;"/>
    <path clip-path="url(#pd854d598be)" d="M 108.192788 123.839249 
L 108.30652 123.140779 
L 108.706216 122.442309 
L 109.4114 121.743839 
L 110.536762 121.00232 
L 112.165393 120.241936 
L 114.259347 119.525136 
L 116.818624 118.871308 
L 120.308548 118.219857 
L 124.496456 117.679484 
L 129.382349 117.28079 
L 134.966227 117.062633 
L 140.782766 117.069545 
L 146.366644 117.302034 
L 151.252536 117.716511 
L 155.440445 118.275333 
L 159.16303 119.003672 
L 161.954969 119.778995 
L 164.02797 120.579722 
L 165.444892 121.353062 
L 166.375539 122.091442 
L 166.859776 122.675132 
L 167.162598 123.373602 
L 167.18273 124.072072 
L 166.922192 124.770542 
L 166.371101 125.469013 
L 165.444892 126.206342 
L 164.048923 126.97625 
L 162.18763 127.722394 
L 159.861015 128.417202 
L 156.836414 129.087905 
L 153.113829 129.683051 
L 148.460598 130.180587 
L 143.342043 130.494627 
L 137.758165 130.609056 
L 132.174288 130.499341 
L 126.823072 130.170918 
L 122.16984 129.667705 
L 118.447255 129.065717 
L 115.189993 128.325138 
L 112.765824 127.564423 
L 110.769423 126.686873 
L 109.569099 125.934659 
L 108.811879 125.236189 
L 108.35941 124.537719 
L 108.192788 123.839249 
L 108.192788 123.839249 
" style="fill:none;stroke:#90d743;stroke-width:1.5;"/>
    <path clip-path="url(#pd854d598be)" d="M 253.621965 83.09516 
L 253.470172 81.931043 
L 253.561781 80.766926 
L 253.902264 79.602809 
L 254.508062 78.438693 
L 255.408797 77.274576 
L 256.648228 76.113007 
L 257.938813 75.179166 
L 259.672828 74.181893 
L 261.766782 73.225466 
L 264.32606 72.297535 
L 267.35066 71.431272 
L 271.073245 70.601324 
L 275.493815 69.850372 
L 280.61237 69.206884 
L 286.661571 68.671458 
L 293.641418 68.281618 
L 301.319249 68.076519 
L 309.462404 68.084644 
L 317.372898 68.316419 
L 324.585407 68.749788 
L 330.867269 69.348793 
L 336.054736 70.057051 
L 340.406393 70.862759 
L 344.128978 71.772946 
L 347.153579 72.73441 
L 349.712856 73.782928 
L 351.80681 74.894791 
L 353.253318 75.877636 
L 354.598749 77.069981 
L 355.536654 78.205869 
L 356.22738 79.437386 
L 356.590369 80.534103 
L 356.731037 81.69822 
L 356.627908 82.862337 
L 356.278197 84.026453 
L 355.668292 85.19057 
L 354.772462 86.354687 
L 353.549158 87.518804 
L 352.039472 88.615683 
L 350.299418 89.614214 
L 348.084225 90.625475 
L 345.524948 91.556412 
L 342.267686 92.491989 
L 338.471554 93.339388 
L 333.891869 94.117317 
L 328.540653 94.786253 
L 322.258791 95.330269 
L 315.278944 95.702809 
L 307.601112 95.882741 
L 299.690618 95.840687 
L 292.245448 95.58539 
L 285.265601 95.125855 
L 279.17714 94.503505 
L 274.097846 93.769813 
L 269.677276 92.908786 
L 266.187352 92.019769 
L 263.162752 91.032236 
L 260.836136 90.070323 
L 258.642245 88.915744 
L 256.939849 87.751627 
L 255.64435 86.58751 
L 254.686929 85.423394 
L 254.022345 84.259277 
L 253.621965 83.09516 
L 253.621965 83.09516 
" style="fill:none;stroke:#90d743;stroke-width:1.5;"/>
    <path clip-path="url(#pd854d598be)" d="M 275.706384 163.419221 
L 275.592932 162.720751 
L 275.75932 162.022281 
L 276.211741 161.323811 
L 276.969178 160.625341 
L 278.285754 159.812815 
L 279.914385 159.091646 
L 282.008339 158.397339 
L 284.800278 157.705877 
L 288.290202 157.076166 
L 292.710771 156.528036 
L 297.596664 156.154494 
L 303.180542 155.963792 
L 308.76442 155.998757 
L 314.115636 156.247579 
L 319.001529 156.689312 
L 323.189437 157.283096 
L 326.446699 157.941096 
L 329.238638 158.71942 
L 331.185119 159.461224 
L 332.728562 160.279215 
L 333.659208 160.987208 
L 334.171656 161.556634 
L 334.527348 162.255104 
L 334.600544 162.953574 
L 334.392766 163.652045 
L 333.891869 164.352767 
L 332.961223 165.129117 
L 331.797915 165.801744 
L 329.936623 166.581594 
L 327.610007 167.295069 
L 324.818068 167.931017 
L 321.095483 168.545422 
L 316.442252 169.058344 
L 311.323697 169.387755 
L 305.739819 169.521387 
L 300.155942 169.438363 
L 294.804726 169.143469 
L 289.918833 168.65192 
L 285.963586 168.042546 
L 282.706324 167.325938 
L 280.147047 166.539658 
L 278.285754 165.744626 
L 276.889785 164.875781 
L 276.1918 164.217861 
L 275.807315 163.652045 
L 275.706384 163.419221 
L 275.706384 163.419221 
" style="fill:none;stroke:#90d743;stroke-width:1.5;"/>
   </g>
   <g id="LineCollection_7">
    <path clip-path="url(#pd854d598be)" d="M 108.188481 205.56025 
L 108.059866 204.86178 
L 108.136411 204.16331 
L 108.442808 203.426696 
L 108.918134 202.76637 
L 109.838777 201.917836 
L 111.023155 201.136606 
L 112.863377 200.244279 
L 114.957331 199.480766 
L 117.74927 198.711014 
L 121.006532 198.044397 
L 124.961779 197.467516 
L 129.382349 197.047091 
L 134.268242 196.802756 
L 139.386796 196.765508 
L 144.505351 196.94776 
L 149.391244 197.34872 
L 153.579152 197.907022 
L 157.301737 198.629009 
L 160.326338 199.444286 
L 162.44445 200.205313 
L 164.376697 201.136606 
L 165.752712 202.0679 
L 166.672553 202.999193 
L 167.098075 203.697663 
L 167.312044 204.396134 
L 167.306185 205.171465 
L 167.073523 205.894217 
L 166.6082 206.620748 
L 165.910215 207.332724 
L 164.979569 208.022713 
L 163.546319 208.819777 
L 161.489646 209.667338 
L 159.16303 210.391507 
L 156.371091 211.052732 
L 152.881167 211.664488 
L 148.693259 212.172214 
L 143.807366 212.529154 
L 138.688812 212.676303 
L 133.337596 212.603574 
L 128.219041 212.307849 
L 123.56581 211.812012 
L 119.497903 211.148011 
L 116.120639 210.359403 
L 113.499741 209.518248 
L 111.389955 208.586954 
L 109.889429 207.655661 
L 108.875151 206.724367 
L 108.390486 206.025897 
L 108.188481 205.56025 
L 108.188481 205.56025 
" style="fill:none;stroke:#fde725;stroke-width:1.5;"/>
    <path clip-path="url(#pd854d598be)" d="M 275.487956 82.163866 
L 275.493815 81.388535 
L 275.726477 80.665783 
L 276.1918 79.939252 
L 276.889785 79.227276 
L 277.820431 78.537287 
L 279.253681 77.740223 
L 281.310354 76.892662 
L 283.63697 76.168493 
L 286.428909 75.507268 
L 289.918833 74.895512 
L 294.106741 74.387786 
L 298.992634 74.030846 
L 304.111188 73.883697 
L 309.462404 73.956426 
L 314.580959 74.252151 
L 319.23419 74.747988 
L 323.302097 75.411989 
L 326.679361 76.200597 
L 329.300259 77.041752 
L 331.410045 77.973046 
L 332.910571 78.904339 
L 333.924849 79.835633 
L 334.409514 80.534103 
L 334.677275 81.232573 
L 334.737373 81.931043 
L 334.589854 82.63614 
L 334.124531 83.488343 
L 333.659208 84.032566 
L 332.728562 84.814979 
L 331.351196 85.656217 
L 329.4713 86.503213 
L 327.172511 87.285981 
L 324.352745 88.010306 
L 320.63016 88.708639 
L 316.442252 89.247947 
L 311.78902 89.618911 
L 306.670466 89.79607 
L 301.551911 89.753852 
L 296.433356 89.487055 
L 291.780125 89.020601 
L 287.824878 88.411348 
L 284.334955 87.646882 
L 281.543016 86.806278 
L 279.311181 85.88904 
L 277.673331 84.957747 
L 276.534674 84.026453 
L 275.959138 83.3244 
L 275.607671 82.629513 
L 275.487956 82.163866 
L 275.487956 82.163866 
" style="fill:none;stroke:#fde725;stroke-width:1.5;"/>
   </g>
   <g id="line2d_1">
    <path clip-path="url(#pd854d598be)" d="M 54 195.36 
L 388.8 195.36 
" style="fill:none;stroke:#ff0000;stroke-linecap:square;stroke-width:1.5;"/>
   </g>
   <g id="line2d_2">
    <path clip-path="url(#pd854d598be)" d="M 54 91.2 
L 388.8 91.2 
" style="fill:none;stroke:#ff0000;stroke-linecap:square;stroke-width:1.5;"/>
   </g>
   <g id="patch_3">
    <path d="M 54 252 
L 54 34.56 
" style="fill:none;stroke:#000000;stroke-linecap:square;stroke-linejoin:miter;stroke-width:0.8;"/>
   </g>
   <g id="patch_4">
    <path d="M 388.8 252 
L 388.8 34.56 
" style="fill:none;stroke:#000000;stroke-linecap:square;stroke-linejoin:miter;stroke-width:0.8;"/>
   </g>
   <g id="patch_5">
    <path d="M 54 252 
L 388.8 252 
" style="fill:none;stroke:#000000;stroke-linecap:square;stroke-linejoin:miter;stroke-width:0.8;"/>
   </g>
   <g id="patch_6">
    <path d="M 54 34.56 
L 388.8 34.56 
" style="fill:none;stroke:#000000;stroke-linecap:square;stroke-linejoin:miter;stroke-width:0.8;"/>
   </g>
  </g>
 </g>
 <defs>
  <clipPath id="pd854d598be">
   <rect height="217.44" width="334.8" x="54" y="34.56"/>
  </clipPath>
 </defs>
</svg>
