<?xml version="1.0" encoding="utf-8" standalone="no"?>
<!DOCTYPE svg PUBLIC "-//W3C//DTD SVG 1.1//EN"
  "http://www.w3.org/Graphics/SVG/1.1/DTD/svg11.dtd">
<!-- Created with matplotlib (http://matplotlib.org/) -->
<svg height="288pt" version="1.1" viewBox="0 0 432 288" width="432pt" xmlns="http://www.w3.org/2000/svg" xmlns:xlink="http://www.w3.org/1999/xlink">
 <defs>
  <style type="text/css">
*{stroke-linecap:butt;stroke-linejoin:round;}
  </style>
 </defs>
 <g id="figure_1">
  <g id="patch_1">
   <path d="M 0 288 
L 432 288 
L 432 0 
L 0 0 
z
" style="fill:#ffffff;"/>
  </g>
  <g id="axes_1">
   <g id="patch_2">
    <path d="M 54 252 
L 388.8 252 
L 388.8 34.56 
L 54 34.56 
z
" style="fill:#ffffff;"/>
   </g>
   <g id="matplotlib.axis_1"/>
   <g id="matplotlib.axis_2"/>
   <g id="LineCollection_1">
    <path clip-path="url(#p829cc941c9)" d="M 283.863937 145.258999 
L 284.149246 147.354409 
L 284.642946 149.449819 
L 285.364002 151.545229 
L 286.220389 153.407816 
L 287.359555 155.337116 
L 288.702209 157.13299 
L 290.151494 158.69129 
L 291.780125 160.108948 
L 293.512308 161.323811 
L 295.270049 162.311404 
L 297.364003 163.221173 
L 299.468529 163.884868 
L 301.738597 164.350515 
L 303.878527 164.569996 
L 306.205142 164.576039 
L 308.531758 164.339893 
L 310.730493 163.884868 
L 312.719666 163.263976 
L 314.813621 162.369037 
L 316.688136 161.323811 
L 318.536206 160.01727 
L 320.164837 158.577827 
L 321.560806 157.057242 
L 322.884658 155.270403 
L 323.979411 153.407816 
L 324.836224 151.545229 
L 325.557147 149.449819 
L 326.050695 147.354409 
L 326.35513 145.026175 
L 326.415533 142.697942 
L 326.234179 140.369708 
L 325.857888 138.274298 
L 325.266378 136.178887 
L 324.435016 134.083477 
L 323.422099 132.148773 
L 322.232394 130.358303 
L 320.862821 128.703586 
L 319.23419 127.121775 
L 317.605559 125.846765 
L 315.744267 124.678438 
L 313.882974 123.760413 
L 311.78902 122.97944 
L 309.695066 122.431722 
L 307.36845 122.071632 
L 305.041835 121.956978 
L 302.715219 122.083733 
L 300.455646 122.442309 
L 298.527311 122.94304 
L 296.433356 123.710416 
L 294.572064 124.614191 
L 292.710771 125.765349 
L 290.992622 127.098776 
L 289.453509 128.578534 
L 288.05754 130.238434 
L 286.873834 131.988067 
L 285.87361 133.850654 
L 285.013607 135.946064 
L 284.396808 138.041474 
L 283.997662 140.136885 
L 283.791814 142.465118 
L 283.827867 144.793352 
L 283.863937 145.258999 
L 283.863937 145.258999 
" style="fill:none;stroke:#440154;stroke-width:1.5;"/>
   </g>
   <g id="LineCollection_2">
    <path clip-path="url(#p829cc941c9)" d="M 256.644207 144.793352 
L 256.847352 148.751349 
L 257.255569 152.476523 
L 257.888659 156.201697 
L 258.707087 159.694047 
L 259.692857 162.953574 
L 260.836136 165.997225 
L 262.098649 168.774159 
L 263.619581 171.568039 
L 265.117638 173.896273 
L 266.885337 176.243211 
L 268.74663 178.354423 
L 270.873293 180.415327 
L 273.167199 182.306066 
L 275.493815 183.940744 
L 278.176233 185.537441 
L 280.979815 186.934381 
L 283.869632 188.131362 
L 287.126894 189.229974 
L 290.384156 190.099665 
L 293.874079 190.808685 
L 297.596664 191.336851 
L 301.319249 191.647815 
L 305.274496 191.752218 
L 309.229743 191.627557 
L 312.952328 191.296747 
L 316.674913 190.747438 
L 320.164837 190.016545 
L 323.422099 189.123735 
L 326.679361 187.998545 
L 329.724331 186.701558 
L 332.4959 185.276329 
L 335.110226 183.674854 
L 337.381793 182.037786 
L 339.584637 180.182503 
L 341.569701 178.231575 
L 343.430994 176.099844 
L 345.082445 173.896273 
L 346.717932 171.335216 
L 348.216128 168.541335 
L 349.480195 165.714101 
L 350.643502 162.544864 
L 351.574149 159.387344 
L 352.357886 155.968873 
L 352.976426 152.2437 
L 353.371029 148.518526 
L 353.560453 144.560529 
L 353.52003 140.602531 
L 353.248218 136.644534 
L 352.771697 132.91936 
L 352.115413 129.42701 
L 351.234364 125.934659 
L 350.178179 122.665268 
L 348.973006 119.648428 
L 347.618902 116.843592 
L 346.154874 114.293491 
L 344.585767 111.965257 
L 342.733009 109.62164 
L 340.80511 107.541613 
L 338.777762 105.663644 
L 336.445218 103.816439 
L 333.891869 102.104612 
L 331.332592 100.654314 
L 328.540653 99.323484 
L 325.516053 98.130704 
L 322.258791 97.092362 
L 318.768867 96.224611 
L 315.278944 95.579915 
L 311.556359 95.1144 
L 307.601112 94.853293 
L 303.645865 94.823009 
L 299.690618 95.022393 
L 295.908887 95.434798 
L 292.245448 96.055136 
L 288.755525 96.868488 
L 285.498263 97.848671 
L 282.473662 98.978597 
L 279.514585 100.324089 
L 276.889785 101.753414 
L 274.330507 103.404566 
L 271.956634 105.21338 
L 269.869623 107.075967 
L 267.815983 109.220694 
L 265.954691 111.50497 
L 264.32606 113.849156 
L 262.82478 116.388901 
L 261.435189 119.182782 
L 260.188874 122.209485 
L 259.171331 125.236189 
L 258.241924 128.72854 
L 257.542733 132.22089 
L 257.024453 135.946064 
L 256.722871 139.671238 
L 256.628396 143.629235 
L 256.644207 144.793352 
L 256.644207 144.793352 
" style="fill:none;stroke:#443983;stroke-width:1.5;"/>
   </g>
   <g id="LineCollection_3">
    <path clip-path="url(#p829cc941c9)" d="M 238.033857 144.793352 
L 238.201822 150.846759 
L 238.585037 156.667344 
L 239.151838 162.022281 
L 239.918867 167.144395 
L 240.847166 171.800862 
L 241.915714 175.991683 
L 243.097664 179.716857 
L 244.356966 182.976384 
L 245.762903 186.003088 
L 247.315556 188.796968 
L 248.844612 191.125202 
L 250.643218 193.453435 
L 252.553057 195.548846 
L 254.554274 197.419654 
L 256.88089 199.2664 
L 259.207505 200.833637 
L 261.766782 202.301031 
L 264.652933 203.697663 
L 267.815983 204.977282 
L 271.305907 206.145711 
L 275.261154 207.223032 
L 279.449062 208.133617 
L 284.102293 208.919914 
L 289.220848 209.558595 
L 294.804726 210.026835 
L 300.621265 210.292136 
L 306.670466 210.34557 
L 312.719666 210.175711 
L 318.536206 209.790779 
L 323.887422 209.222414 
L 329.005976 208.453859 
L 333.659208 207.524104 
L 337.847116 206.454173 
L 341.569701 205.27078 
L 344.826963 204.01004 
L 347.851564 202.602598 
L 350.497561 201.136606 
L 352.985414 199.506843 
L 355.296734 197.717174 
L 357.390688 195.805378 
L 359.251981 193.811372 
L 361.019242 191.590848 
L 362.597392 189.262615 
L 364.137874 186.581165 
L 365.540813 183.674854 
L 366.851894 180.415327 
L 368.011346 176.922976 
L 369.080362 172.964979 
L 369.983709 168.774159 
L 370.763255 164.117691 
L 371.395529 158.995577 
L 371.857533 153.407816 
L 372.116727 147.587232 
L 372.163804 141.533825 
L 371.987148 135.480417 
L 371.594831 129.659833 
L 371.018352 124.304896 
L 370.281105 119.415605 
L 369.352802 114.759138 
L 368.2843 110.568317 
L 367.102334 106.843143 
L 365.843016 103.583616 
L 364.437088 100.556912 
L 362.974566 97.912286 
L 361.345935 95.421415 
L 359.556764 93.106565 
L 357.646993 91.011154 
L 355.65516 89.148567 
L 353.435441 87.378819 
L 351.108826 85.799028 
L 348.43368 84.259277 
L 345.524948 82.852495 
L 342.267686 81.53995 
L 338.777762 80.379123 
L 334.822516 79.30872 
L 330.634607 78.404035 
L 325.981376 77.623095 
L 320.862821 76.989345 
L 315.278944 76.525717 
L 309.462404 76.264732 
L 303.413204 76.215578 
L 297.364003 76.389799 
L 291.547464 76.779283 
L 286.196247 77.352465 
L 281.077693 78.126501 
L 276.657123 79.009568 
L 272.469215 80.072621 
L 268.74663 81.248361 
L 265.489368 82.500732 
L 262.464767 83.89838 
L 259.672828 85.441201 
L 257.113551 87.125412 
L 254.786935 88.941114 
L 252.692981 90.870443 
L 250.831689 92.884039 
L 249.011285 95.201975 
L 247.458004 97.530209 
L 245.945796 100.201136 
L 244.549826 103.134584 
L 243.263531 106.377497 
L 242.119099 109.869847 
L 241.059903 113.843812 
L 240.128432 118.251488 
L 239.337538 123.140779 
L 238.733287 128.27441 
L 238.299852 133.850654 
L 238.06644 139.671238 
L 238.033857 144.793352 
L 238.033857 144.793352 
" style="fill:none;stroke:#31688e;stroke-width:1.5;"/>
   </g>
   <g id="LineCollection_4">
    <path clip-path="url(#p829cc941c9)" d="M 54 226.747177 
L 54 59.812823 
L 54.232662 59.58 
L 221.283669 59.58 
L 221.4 60.045647 
L 221.4 226.747177 
L 221.283669 226.98 
L 54.232662 226.98 
L 54 226.747177 
L 54 226.747177 
" style="fill:none;stroke:#21908d;stroke-width:1.5;"/>
   </g>
   <g id="LineCollection_5">
    <path clip-path="url(#p829cc941c9)" d="M 70.742838 149.449819 
L 70.627003 143.396412 
L 70.734213 137.343004 
L 71.054613 131.52242 
L 71.582466 125.934659 
L 72.28549 120.812545 
L 73.14268 116.156078 
L 74.131762 111.965257 
L 75.225425 108.240083 
L 76.479894 104.747733 
L 77.791683 101.721029 
L 79.234999 98.927149 
L 80.803976 96.366092 
L 82.487282 94.037858 
L 84.26563 91.942448 
L 86.339958 89.866298 
L 88.433912 88.086079 
L 90.760528 86.40102 
L 93.319805 84.830408 
L 96.111744 83.385562 
L 99.136345 82.072341 
L 102.393607 80.892691 
L 106.116192 79.783419 
L 110.3041 78.780129 
L 114.72467 77.948102 
L 119.610563 77.250682 
L 124.961779 76.71086 
L 130.778318 76.353036 
L 136.827519 76.209265 
L 142.87672 76.288407 
L 148.693259 76.579753 
L 154.277137 77.075976 
L 159.395691 77.744585 
L 164.048923 78.563742 
L 168.469493 79.569717 
L 172.192078 80.630089 
L 175.682001 81.845325 
L 178.939263 83.22175 
L 181.731202 84.635734 
L 184.290479 86.170849 
L 186.617095 87.815298 
L 188.782975 89.614214 
L 190.805003 91.588759 
L 192.666296 93.727208 
L 194.294927 95.920908 
L 195.923558 98.504056 
L 197.384675 101.255382 
L 198.733172 104.282086 
L 199.94308 107.541613 
L 201.079981 111.266787 
L 202.056953 115.224784 
L 202.921381 119.648428 
L 203.648162 124.537719 
L 204.214963 129.892656 
L 204.598178 135.713241 
L 204.766143 141.766648 
L 204.710458 147.820056 
L 204.442595 153.64064 
L 203.971347 159.228401 
L 203.294693 164.583338 
L 202.44752 169.472629 
L 201.507436 173.666908 
L 200.397208 177.621446 
L 199.18082 181.14143 
L 197.82577 184.373324 
L 196.388881 187.230137 
L 194.901388 189.728261 
L 193.271866 192.056495 
L 191.502988 194.209675 
L 189.536245 196.247316 
L 187.42173 198.109903 
L 185.221126 199.763027 
L 182.661849 201.395379 
L 179.86991 202.893579 
L 176.845309 204.252889 
L 173.588047 205.472281 
L 169.865462 206.617945 
L 165.910215 207.602595 
L 161.489646 208.474084 
L 156.603753 209.207535 
L 151.252536 209.780717 
L 145.435997 210.170201 
L 139.386796 210.344422 
L 133.337596 210.295268 
L 127.288395 210.019298 
L 121.704517 209.546433 
L 116.353301 208.868217 
L 111.467408 208.019524 
L 107.046838 207.02002 
L 103.091591 205.893123 
L 99.496088 204.628957 
L 96.344406 203.284041 
L 93.507906 201.835076 
L 90.99319 200.313006 
L 88.563872 198.575549 
L 86.360917 196.712962 
L 84.478666 194.847502 
L 82.617373 192.687028 
L 80.960299 190.426732 
L 79.360111 187.85359 
L 77.902714 185.071794 
L 76.568172 182.033793 
L 75.378727 178.785563 
L 74.241557 175.005367 
L 73.241559 170.869569 
L 72.380264 166.328627 
L 71.682279 161.464287 
L 71.145866 156.201697 
L 70.780782 150.381113 
L 70.742838 149.449819 
L 70.742838 149.449819 
" style="fill:none;stroke:#35b779;stroke-width:1.5;"/>
   </g>
   <g id="LineCollection_6">
    <path clip-path="url(#p829cc941c9)" d="M 89.363401 147.587232 
L 89.228462 143.629235 
L 89.322842 139.671238 
L 89.624399 135.946064 
L 90.142772 132.22089 
L 90.841966 128.72854 
L 91.771372 125.236189 
L 92.876125 121.976662 
L 94.141647 118.949958 
L 95.552305 116.156078 
L 97.090567 113.595021 
L 98.735239 111.266787 
L 100.532314 109.089616 
L 102.469674 107.075967 
L 104.556667 105.21338 
L 106.814177 103.486552 
L 109.373454 101.822643 
L 112.114554 100.324089 
L 114.957331 99.026781 
L 117.981932 97.888014 
L 121.239194 96.899677 
L 124.729117 96.078598 
L 128.451703 95.442701 
L 132.174288 95.031799 
L 136.129534 94.825581 
L 140.084781 94.849134 
L 144.040028 95.103357 
L 147.762613 95.562002 
L 151.485198 96.249806 
L 154.975122 97.125498 
L 158.232384 98.172255 
L 161.299288 99.392796 
L 164.190384 100.789736 
L 166.840862 102.321827 
L 169.167477 103.906135 
L 171.494093 105.764085 
L 173.636182 107.774437 
L 175.543908 109.869847 
L 177.353889 112.198081 
L 179.040649 114.759138 
L 180.466552 117.320195 
L 181.774947 120.114075 
L 182.946963 123.140779 
L 183.965843 126.400306 
L 184.815351 129.892656 
L 185.478037 133.61783 
L 185.91911 137.409156 
L 186.143902 141.301001 
L 186.143902 145.258999 
L 185.9134 149.216996 
L 185.453787 153.105886 
L 184.815351 156.667344 
L 183.965843 160.159694 
L 182.946963 163.419221 
L 181.731202 166.547895 
L 180.466552 169.239805 
L 178.939263 171.967719 
L 177.310632 174.422122 
L 175.543908 176.690153 
L 173.588047 178.834412 
L 171.494093 180.795915 
L 169.360804 182.510737 
L 166.840862 184.238173 
L 164.190384 185.770264 
L 161.489646 187.08301 
L 158.465045 188.303641 
L 155.207783 189.367436 
L 151.71786 190.259088 
L 148.227936 190.925034 
L 144.505351 191.411237 
L 140.550104 191.693037 
L 136.594858 191.743518 
L 132.639611 191.564604 
L 128.917026 191.180533 
L 125.194441 190.57386 
L 121.704517 189.783339 
L 118.354797 188.796968 
L 115.189993 187.629261 
L 112.165393 186.261306 
L 109.544625 184.838971 
L 107.007309 183.209207 
L 104.720222 181.481033 
L 102.626268 179.633964 
L 100.667739 177.621446 
L 98.903683 175.512175 
L 97.243666 173.197803 
L 95.646421 170.573559 
L 94.249602 167.842865 
L 92.964855 164.816161 
L 91.914278 161.789458 
L 90.99319 158.467301 
L 90.265398 155.03758 
L 89.704693 151.312406 
L 89.363401 147.587232 
L 89.363401 147.587232 
" style="fill:none;stroke:#90d743;stroke-width:1.5;"/>
   </g>
   <g id="LineCollection_7">
    <path clip-path="url(#p829cc941c9)" d="M 116.565821 146.190292 
L 116.384467 143.862058 
L 116.44487 141.533825 
L 116.749305 139.205591 
L 117.283947 136.96964 
L 117.981932 134.970101 
L 118.943368 132.91936 
L 120.075886 131.049664 
L 121.302243 129.42701 
L 122.825557 127.797246 
L 124.445345 126.400306 
L 126.125087 125.227872 
L 127.986379 124.190963 
L 130.080334 123.296024 
L 132.174288 122.647935 
L 134.339024 122.209485 
L 136.594858 121.983961 
L 138.921473 121.990004 
L 141.248089 122.238485 
L 143.342043 122.677849 
L 145.52837 123.373602 
L 147.529951 124.248596 
L 149.391244 125.301519 
L 151.019875 126.451052 
L 152.648506 127.86871 
L 154.097791 129.42701 
L 155.440445 131.222884 
L 156.456469 132.91936 
L 157.340783 134.781947 
L 158.088595 136.877357 
L 158.606369 138.972768 
L 158.930368 141.239754 
L 159.022602 143.396412 
L 158.889932 145.724645 
L 158.55949 147.820056 
L 157.999722 149.971798 
L 157.242137 152.010876 
L 156.329858 153.873463 
L 155.168148 155.73605 
L 153.811814 157.467167 
L 152.3273 158.995577 
L 150.648129 160.392517 
L 148.907988 161.556634 
L 147.064628 162.537022 
L 144.970674 163.388367 
L 142.87672 163.997921 
L 140.782766 164.390904 
L 138.45615 164.590466 
L 136.129534 164.548237 
L 133.802919 164.262675 
L 131.708965 163.787677 
L 129.61501 163.087633 
L 127.753718 162.253021 
L 125.892425 161.183932 
L 124.150659 159.926871 
L 122.58665 158.52993 
L 121.110379 156.900167 
L 119.843224 155.16032 
L 118.820589 153.407816 
L 117.963776 151.545229 
L 117.242853 149.449819 
L 116.749305 147.354409 
L 116.565821 146.190292 
L 116.565821 146.190292 
" style="fill:none;stroke:#fde725;stroke-width:1.5;"/>
   </g>
   <g id="line2d_1">
    <path clip-path="url(#p829cc941c9)" d="M 54 195.36 
L 388.8 195.36 
" style="fill:none;stroke:#ff0000;stroke-linecap:square;stroke-width:1.5;"/>
   </g>
   <g id="line2d_2">
    <path clip-path="url(#p829cc941c9)" d="M 54 91.2 
L 388.8 91.2 
" style="fill:none;stroke:#ff0000;stroke-linecap:square;stroke-width:1.5;"/>
   </g>
   <g id="patch_3">
    <path d="M 54 252 
L 54 34.56 
" style="fill:none;stroke:#000000;stroke-linecap:square;stroke-linejoin:miter;stroke-width:0.8;"/>
   </g>
   <g id="patch_4">
    <path d="M 388.8 252 
L 388.8 34.56 
" style="fill:none;stroke:#000000;stroke-linecap:square;stroke-linejoin:miter;stroke-width:0.8;"/>
   </g>
   <g id="patch_5">
    <path d="M 54 252 
L 388.8 252 
" style="fill:none;stroke:#000000;stroke-linecap:square;stroke-linejoin:miter;stroke-width:0.8;"/>
   </g>
   <g id="patch_6">
    <path d="M 54 34.56 
L 388.8 34.56 
" style="fill:none;stroke:#000000;stroke-linecap:square;stroke-linejoin:miter;stroke-width:0.8;"/>
   </g>
  </g>
 </g>
 <defs>
  <clipPath id="p829cc941c9">
   <rect height="217.44" width="334.8" x="54" y="34.56"/>
  </clipPath>
 </defs>
</svg>
