<?xml version="1.0" encoding="utf-8" standalone="no"?>
<!DOCTYPE svg PUBLIC "-//W3C//DTD SVG 1.1//EN"
  "http://www.w3.org/Graphics/SVG/1.1/DTD/svg11.dtd">
<!-- Created with matplotlib (http://matplotlib.org/) -->
<svg height="288pt" version="1.1" viewBox="0 0 432 288" width="432pt" xmlns="http://www.w3.org/2000/svg" xmlns:xlink="http://www.w3.org/1999/xlink">
 <defs>
  <style type="text/css">
*{stroke-linecap:butt;stroke-linejoin:round;}
  </style>
 </defs>
 <g id="figure_1">
  <g id="patch_1">
   <path d="M 0 288 
L 432 288 
L 432 0 
L 0 0 
z
" style="fill:#ffffff;"/>
  </g>
  <g id="axes_1">
   <g id="patch_2">
    <path d="M 54 252 
L 388.8 252 
L 388.8 34.56 
L 54 34.56 
z
" style="fill:#ffffff;"/>
   </g>
   <g id="matplotlib.axis_1"/>
   <g id="matplotlib.axis_2"/>
   <g id="LineCollection_1">
    <path clip-path="url(#p36a9a59231)" d="M 54 117.489323 
L 57.955247 117.38212 
L 61.910493 117.053689 
L 65.633079 116.522283 
L 69.123002 115.796762 
L 72.147603 114.950934 
L 74.939541 113.941709 
L 77.266157 112.880797 
L 79.360111 111.689978 
L 81.221404 110.36131 
L 82.617373 109.109559 
L 83.796595 107.774437 
L 84.738617 106.377497 
L 85.41987 104.980556 
L 85.874635 103.539511 
L 86.087929 102.186676 
L 86.096834 100.789736 
L 85.874635 99.32125 
L 85.465599 97.995855 
L 84.804829 96.598915 
L 83.885725 95.201975 
L 82.671989 93.805035 
L 81.221404 92.499098 
L 79.592773 91.320142 
L 77.73148 90.222088 
L 75.404864 89.112198 
L 72.845587 88.138583 
L 69.820987 87.238669 
L 66.563725 86.507919 
L 63.073801 85.947952 
L 59.351216 85.567833 
L 55.395969 85.383884 
L 54 85.370641 
L 54 85.370641 
" style="fill:none;stroke:#440154;stroke-width:1.5;"/>
    <path clip-path="url(#p36a9a59231)" d="M 388.8 85.370641 
L 384.844753 85.477856 
L 380.889507 85.806471 
L 377.166921 86.337435 
L 373.716952 87.053157 
L 370.652397 87.9092 
L 367.860459 88.917807 
L 365.301181 90.099056 
L 363.207227 91.320142 
L 361.403794 92.640918 
L 359.949965 93.989034 
L 358.914275 95.201975 
L 357.995171 96.598915 
L 357.334401 97.995855 
L 356.908415 99.392796 
L 356.703166 100.789736 
L 356.712071 102.186676 
L 356.935317 103.583616 
L 357.390688 105.006142 
L 358.088673 106.423787 
L 359.019319 107.794646 
L 360.244033 109.171377 
L 361.811258 110.545492 
L 363.506529 111.732434 
L 365.564686 112.896551 
L 367.860459 113.941709 
L 370.419736 114.875841 
L 373.444336 115.739596 
L 376.701598 116.439283 
L 380.424183 116.999461 
L 384.146769 117.340814 
L 388.102015 117.485992 
L 388.8 117.489323 
L 388.8 117.489323 
" style="fill:none;stroke:#440154;stroke-width:1.5;"/>
    <path clip-path="url(#p36a9a59231)" d="M 189.378825 186.468734 
L 189.693168 187.865675 
L 190.234239 189.262615 
L 191.037665 190.685416 
L 192.081425 192.056495 
L 193.461773 193.453435 
L 194.992912 194.681082 
L 196.854204 195.884583 
L 198.948158 196.979079 
L 201.507436 198.049837 
L 204.299375 198.969559 
L 207.323975 199.740519 
L 210.813899 200.395335 
L 214.536484 200.863111 
L 218.49173 201.131765 
L 222.446977 201.181911 
L 226.402224 201.017226 
L 230.35747 200.627225 
L 234.080056 200.029732 
L 237.402562 199.274019 
L 240.476377 198.342726 
L 243.153857 197.296388 
L 245.480473 196.148334 
L 247.341765 195.007118 
L 249.072742 193.686259 
L 250.512213 192.289318 
L 251.622732 190.892378 
L 252.46032 189.479588 
L 253.032738 188.098498 
L 253.390966 186.658547 
L 253.517389 185.304618 
L 253.437472 183.907677 
L 253.141571 182.510737 
L 252.61992 181.113797 
L 251.855014 179.716857 
L 250.818602 178.319917 
L 249.435719 176.894671 
L 247.807088 175.578856 
L 246.178457 174.51225 
L 244.084503 173.39159 
L 241.525226 172.297398 
L 238.965949 171.428545 
L 235.941348 170.624827 
L 232.447595 169.938275 
L 228.728839 169.443423 
L 224.773593 169.148619 
L 220.818346 169.07299 
L 216.863099 169.211831 
L 212.907853 169.5746 
L 209.185268 170.14202 
L 205.847798 170.869569 
L 202.903405 171.722138 
L 200.184205 172.732156 
L 197.784851 173.860151 
L 195.923558 174.944741 
L 194.146428 176.224506 
L 192.614411 177.621446 
L 191.42701 179.018387 
L 190.530567 180.415327 
L 189.874357 181.855908 
L 189.483133 183.209207 
L 189.295921 184.606147 
L 189.322553 186.003088 
L 189.378825 186.468734 
L 189.378825 186.468734 
" style="fill:none;stroke:#440154;stroke-width:1.5;"/>
   </g>
   <g id="LineCollection_2">
    <path clip-path="url(#p36a9a59231)" d="M 54 127.790638 
L 60.049201 127.6769 
L 65.86574 127.344905 
L 71.216956 126.823374 
L 76.102849 126.13331 
L 80.523419 125.291968 
L 84.525381 124.304896 
L 87.968589 123.233712 
L 90.99319 122.071855 
L 93.67787 120.812545 
L 96.123135 119.415605 
L 98.205698 117.970387 
L 100.08188 116.388901 
L 101.695622 114.724284 
L 103.091591 112.944309 
L 104.149287 111.266787 
L 105.075108 109.4042 
L 105.773719 107.541613 
L 106.318627 105.446203 
L 106.63001 103.350793 
L 106.720482 101.255382 
L 106.581515 99.057042 
L 106.244464 97.064562 
L 105.650869 94.946027 
L 104.919775 93.106565 
L 103.947734 91.243978 
L 102.704614 89.381391 
L 101.352111 87.751627 
L 99.698994 86.121864 
L 97.973037 84.713728 
L 95.879083 83.292143 
L 93.450968 81.931043 
L 90.760528 80.689997 
L 87.735928 79.546188 
L 84.246004 78.478073 
L 80.523419 77.568041 
L 76.335511 76.765423 
L 71.449618 76.064536 
L 66.098402 75.533375 
L 60.514524 75.201281 
L 54.697985 75.071011 
L 54 75.06951 
L 54 75.06951 
" style="fill:none;stroke:#443983;stroke-width:1.5;"/>
    <path clip-path="url(#p36a9a59231)" d="M 388.8 75.06951 
L 382.750799 75.182942 
L 376.93426 75.515229 
L 371.583044 76.036674 
L 366.697151 76.726768 
L 362.276581 77.568041 
L 358.321334 78.542297 
L 354.831411 79.626146 
L 351.80681 80.787979 
L 349.014871 82.103342 
L 346.688256 83.437512 
L 344.594302 84.889673 
L 342.843962 86.354687 
L 341.237664 87.984451 
L 339.92344 89.614214 
L 338.716845 91.476801 
L 337.775778 93.339388 
L 337.063796 95.201975 
L 336.505379 97.297385 
L 336.181411 99.392796 
L 336.07885 101.488206 
L 336.193509 103.583616 
L 336.530099 105.679026 
L 337.102085 107.774437 
L 337.847116 109.680135 
L 338.783967 111.499611 
L 340.008812 113.362197 
L 341.341932 114.991961 
L 342.971455 116.621725 
L 344.826963 118.145988 
L 346.920917 119.567736 
L 349.247533 120.876975 
L 351.80681 122.071855 
L 354.831411 123.233712 
L 358.321334 124.317874 
L 362.276581 125.291968 
L 366.697151 126.13331 
L 371.350382 126.795425 
L 376.701598 127.326784 
L 382.285476 127.658615 
L 388.334677 127.789969 
L 388.8 127.790638 
L 388.8 127.790638 
" style="fill:none;stroke:#443983;stroke-width:1.5;"/>
    <path clip-path="url(#p36a9a59231)" d="M 168.697505 186.003088 
L 168.897504 188.098498 
L 169.323491 190.193908 
L 169.992967 192.289318 
L 170.815653 194.151905 
L 171.884158 196.014492 
L 173.122724 197.729464 
L 174.518694 199.306722 
L 176.238087 200.903783 
L 178.241279 202.43119 
L 180.335233 203.754245 
L 182.89745 205.094604 
L 185.686449 206.292647 
L 188.943711 207.433306 
L 192.666296 208.476881 
L 196.621543 209.35188 
L 201.042113 210.105811 
L 205.928006 210.718207 
L 211.279222 211.168694 
L 217.095761 211.433225 
L 223.144962 211.4811 
L 229.194163 211.301079 
L 234.831306 210.915188 
L 240.129256 210.333472 
L 245.015149 209.571143 
L 249.203058 208.702291 
L 252.925643 207.717339 
L 256.182905 206.643745 
L 259.207505 205.415464 
L 261.766782 204.146327 
L 264.093398 202.746598 
L 266.187352 201.212857 
L 267.848428 199.739666 
L 269.444614 198.014466 
L 270.763013 196.247316 
L 271.864918 194.384729 
L 272.716548 192.522142 
L 273.414627 190.426732 
L 273.866603 188.331321 
L 274.091111 186.235911 
L 274.097146 184.140501 
L 273.865184 181.921922 
L 273.445938 179.94968 
L 272.762199 177.85427 
L 271.925091 175.991683 
L 270.840079 174.129096 
L 269.652534 172.499332 
L 268.199479 170.869569 
L 266.420014 169.237535 
L 264.558721 167.828556 
L 262.360982 166.445925 
L 259.90549 165.167059 
L 257.113551 163.967458 
L 254.088951 162.900524 
L 250.599027 161.900763 
L 246.64378 161.000372 
L 242.223211 160.223853 
L 237.337318 159.591377 
L 231.986101 159.122346 
L 226.169562 158.839925 
L 220.120361 158.774425 
L 214.071161 158.936733 
L 208.254621 159.319904 
L 202.903405 159.895907 
L 198.017512 160.646816 
L 193.596942 161.557504 
L 189.874357 162.542648 
L 186.519122 163.652045 
L 183.592495 164.844399 
L 181.033218 166.11388 
L 178.706602 167.513617 
L 176.662039 169.006982 
L 174.984017 170.489144 
L 173.53337 172.033686 
L 172.192078 173.783702 
L 171.121462 175.526036 
L 170.225739 177.388623 
L 169.484024 179.484033 
L 168.992614 181.579444 
L 168.731031 183.674854 
L 168.688818 185.770264 
L 168.697505 186.003088 
L 168.697505 186.003088 
" style="fill:none;stroke:#443983;stroke-width:1.5;"/>
   </g>
   <g id="LineCollection_3">
    <path clip-path="url(#p36a9a59231)" d="M 54 135.869033 
L 63.073801 135.757326 
L 71.682279 135.42896 
L 79.12745 134.932022 
L 85.641974 134.283152 
L 91.225851 133.508441 
L 95.879083 132.648406 
L 99.834329 131.703998 
L 103.324253 130.645172 
L 106.116192 129.589498 
L 108.675469 128.399706 
L 111.002085 127.067351 
L 112.9486 125.701836 
L 114.72467 124.181527 
L 116.174117 122.675132 
L 117.638159 120.812545 
L 118.82097 118.949958 
L 119.8903 116.854548 
L 120.822756 114.526314 
L 121.601248 111.965257 
L 122.211224 109.171377 
L 122.636638 106.144673 
L 122.855462 102.885146 
L 122.843214 99.625619 
L 122.598913 96.366092 
L 122.147116 93.339388 
L 121.508434 90.545508 
L 120.697743 87.984451 
L 119.728669 85.656217 
L 118.617541 83.560807 
L 117.283947 81.558544 
L 115.861726 79.835633 
L 114.2104 78.205869 
L 112.398054 76.74426 
L 110.3041 75.362992 
L 107.977484 74.110751 
L 105.418207 72.985734 
L 102.393607 71.90748 
L 98.903683 70.912435 
L 94.948436 70.020493 
L 90.295205 69.205259 
L 84.943989 68.495707 
L 78.662126 67.890037 
L 71.449618 67.418983 
L 63.073801 67.102693 
L 54.232662 66.991016 
L 54 66.990943 
L 54 66.990943 
" style="fill:none;stroke:#31688e;stroke-width:1.5;"/>
    <path clip-path="url(#p36a9a59231)" d="M 388.8 66.990943 
L 379.726199 67.102693 
L 371.117721 67.431048 
L 363.67255 67.927943 
L 357.158026 68.576886 
L 351.530166 69.358581 
L 346.920917 70.211631 
L 342.965671 71.156015 
L 339.475747 72.214838 
L 336.451147 73.368854 
L 333.891869 74.581488 
L 331.565254 75.942369 
L 329.702156 77.274576 
L 328.07533 78.678278 
L 326.446699 80.392224 
L 325.05073 82.206805 
L 323.887422 84.07195 
L 322.8572 86.121864 
L 321.936666 88.450097 
L 321.168674 91.011154 
L 320.568136 93.805035 
L 320.151432 96.831739 
L 319.941042 100.091266 
L 319.961457 103.350793 
L 320.214297 106.61032 
L 320.675 109.637024 
L 321.328145 112.448058 
L 322.145026 114.991961 
L 323.12658 117.320195 
L 324.252051 119.415605 
L 325.516053 121.301621 
L 326.912022 122.995381 
L 328.540653 124.610246 
L 330.401946 126.11576 
L 332.263238 127.356932 
L 334.589854 128.635006 
L 337.149131 129.781012 
L 340.173732 130.877488 
L 343.663655 131.888003 
L 347.618902 132.792665 
L 352.272133 133.618964 
L 357.62335 134.337624 
L 363.905212 134.951126 
L 371.117721 135.42896 
L 379.260876 135.745416 
L 388.102015 135.86838 
L 388.8 135.869033 
L 388.8 135.869033 
" style="fill:none;stroke:#31688e;stroke-width:1.5;"/>
    <path clip-path="url(#p36a9a59231)" d="M 152.632359 188.331321 
L 152.947754 191.358025 
L 153.490975 194.384729 
L 154.230533 197.178609 
L 155.060367 199.506843 
L 156.133719 201.835076 
L 157.301737 203.83331 
L 158.545884 205.56025 
L 160.093676 207.310386 
L 161.728531 208.819777 
L 163.5836 210.228438 
L 165.677554 211.53449 
L 168.00417 212.725481 
L 170.563447 213.80039 
L 173.713568 214.873185 
L 177.310632 215.84929 
L 181.498541 216.742405 
L 186.384434 217.543889 
L 191.968311 218.229864 
L 198.482835 218.80352 
L 205.928006 219.236045 
L 214.303822 219.501072 
L 223.377623 219.563818 
L 232.451425 219.402254 
L 240.827241 219.032211 
L 248.272411 218.48051 
L 254.554274 217.796231 
L 259.90549 216.994424 
L 264.32606 216.120295 
L 268.281306 215.111963 
L 271.538568 214.059212 
L 274.330507 212.93721 
L 276.889785 211.664661 
L 278.983739 210.386726 
L 280.845031 209.006987 
L 282.595261 207.422837 
L 284.102293 205.749039 
L 285.434717 203.930487 
L 286.543066 202.0679 
L 287.592217 199.863698 
L 288.420456 197.644256 
L 289.147362 195.083199 
L 289.7109 192.289318 
L 290.093168 189.262615 
L 290.269984 186.003088 
L 290.216908 182.743561 
L 289.92968 179.484033 
L 289.432852 176.45733 
L 288.744783 173.663449 
L 287.87828 171.102392 
L 286.845215 168.774159 
L 285.660422 166.678748 
L 284.334955 164.802062 
L 282.935728 163.186398 
L 281.209291 161.556634 
L 279.400742 160.159694 
L 277.355108 158.858397 
L 275.028492 157.643407 
L 272.469215 156.548889 
L 269.444614 155.497238 
L 265.954691 154.524706 
L 261.766782 153.606265 
L 256.88089 152.783335 
L 251.297012 152.079619 
L 244.782488 151.490793 
L 237.337318 151.045092 
L 228.961501 150.768253 
L 219.8877 150.694034 
L 210.813899 150.843687 
L 202.438082 151.200932 
L 194.992912 151.737587 
L 188.711049 152.4046 
L 183.359833 153.18591 
L 178.706602 154.087703 
L 174.90628 155.03758 
L 171.494093 156.117378 
L 168.702154 157.219838 
L 166.142877 158.467875 
L 164.048923 159.71839 
L 162.155359 161.090987 
L 160.558999 162.489225 
L 158.930368 164.229538 
L 157.600061 165.980278 
L 156.371091 167.981754 
L 155.405331 169.938275 
L 154.496574 172.266509 
L 153.73903 174.827566 
L 153.147838 177.621446 
L 152.739836 180.64815 
L 152.537871 183.907677 
L 152.566436 187.167204 
L 152.632359 188.331321 
L 152.632359 188.331321 
" style="fill:none;stroke:#31688e;stroke-width:1.5;"/>
   </g>
   <g id="LineCollection_4">
    <path clip-path="url(#p36a9a59231)" d="M 54 143.28 
L 137.525504 143.28 
L 137.7 143.163588 
L 137.758165 59.58 
L 305.041835 59.58 
L 305.1 60.045647 
L 305.1 143.163588 
L 305.274496 143.28 
L 388.8 143.28 
L 388.8 143.28 
" style="fill:none;stroke:#21908d;stroke-width:1.5;"/>
    <path clip-path="url(#p36a9a59231)" d="M 388.8 226.98 
L 305.274496 226.98 
L 305.1 226.747177 
L 305.041835 143.28 
L 137.758165 143.28 
L 137.7 143.629235 
L 137.7 226.747177 
L 137.525504 226.98 
L 54 226.98 
L 54 226.98 
" style="fill:none;stroke:#21908d;stroke-width:1.5;"/>
   </g>
   <g id="LineCollection_5">
    <path clip-path="url(#p36a9a59231)" d="M 54 150.690967 
L 63.073801 150.802674 
L 71.682279 151.13104 
L 79.12745 151.627978 
L 85.641974 152.276848 
L 91.225851 153.051559 
L 95.879083 153.911594 
L 99.834329 154.856002 
L 103.324253 155.914828 
L 106.116192 156.970502 
L 108.675469 158.160294 
L 111.002085 159.492649 
L 112.9486 160.858164 
L 114.72467 162.378473 
L 116.174117 163.884868 
L 117.638159 165.747455 
L 118.82097 167.610042 
L 119.8903 169.705452 
L 120.822756 172.033686 
L 121.601248 174.594743 
L 122.211224 177.388623 
L 122.636638 180.415327 
L 122.855462 183.674854 
L 122.843214 186.934381 
L 122.598913 190.193908 
L 122.147116 193.220612 
L 121.508434 196.014492 
L 120.697743 198.575549 
L 119.728669 200.903783 
L 118.617541 202.999193 
L 117.283947 205.001456 
L 115.861726 206.724367 
L 114.2104 208.354131 
L 112.398054 209.81574 
L 110.3041 211.197008 
L 107.977484 212.449249 
L 105.418207 213.574266 
L 102.393607 214.65252 
L 98.903683 215.647565 
L 94.948436 216.539507 
L 90.295205 217.354741 
L 84.943989 218.064293 
L 78.662126 218.669963 
L 71.449618 219.141017 
L 63.073801 219.457307 
L 54.232662 219.568984 
L 54 219.569057 
L 54 219.569057 
" style="fill:none;stroke:#35b779;stroke-width:1.5;"/>
    <path clip-path="url(#p36a9a59231)" d="M 388.8 219.569057 
L 379.726199 219.457307 
L 371.117721 219.128952 
L 363.67255 218.632057 
L 357.158026 217.983114 
L 351.530166 217.201419 
L 346.920917 216.348369 
L 342.965671 215.403985 
L 339.475747 214.345162 
L 336.451147 213.191146 
L 333.891869 211.978512 
L 331.565254 210.617631 
L 329.702156 209.285424 
L 328.07533 207.881722 
L 326.446699 206.167776 
L 325.05073 204.353195 
L 323.887422 202.48805 
L 322.8572 200.438136 
L 321.936666 198.109903 
L 321.168674 195.548846 
L 320.568136 192.754965 
L 320.151432 189.728261 
L 319.941042 186.468734 
L 319.961457 183.209207 
L 320.214297 179.94968 
L 320.675 176.922976 
L 321.328145 174.111942 
L 322.145026 171.568039 
L 323.12658 169.239805 
L 324.252051 167.144395 
L 325.516053 165.258379 
L 326.912022 163.564619 
L 328.540653 161.949754 
L 330.401946 160.44424 
L 332.263238 159.203068 
L 334.589854 157.924994 
L 337.149131 156.778988 
L 340.173732 155.682512 
L 343.663655 154.671997 
L 347.618902 153.767335 
L 352.272133 152.941036 
L 357.62335 152.222376 
L 363.905212 151.608874 
L 371.117721 151.13104 
L 379.260876 150.814584 
L 388.102015 150.69162 
L 388.8 150.690967 
L 388.8 150.690967 
" style="fill:none;stroke:#35b779;stroke-width:1.5;"/>
    <path clip-path="url(#p36a9a59231)" d="M 152.640596 104.747733 
L 152.521878 101.488206 
L 152.632359 98.228679 
L 152.947754 95.201975 
L 153.490975 92.175271 
L 154.230533 89.381391 
L 155.060367 87.053157 
L 156.133719 84.724924 
L 157.301737 82.72669 
L 158.545884 80.99975 
L 160.093676 79.249614 
L 161.728531 77.740223 
L 163.5836 76.331562 
L 165.677554 75.02551 
L 168.00417 73.834519 
L 170.563447 72.75961 
L 173.713568 71.686815 
L 177.310632 70.71071 
L 181.498541 69.817595 
L 186.384434 69.016111 
L 191.968311 68.330136 
L 198.482835 67.75648 
L 205.928006 67.323955 
L 214.303822 67.058928 
L 223.377623 66.996182 
L 232.451425 67.157746 
L 240.827241 67.527789 
L 248.272411 68.07949 
L 254.554274 68.763769 
L 259.90549 69.565576 
L 264.32606 70.439705 
L 268.281306 71.448037 
L 271.538568 72.500788 
L 274.330507 73.62279 
L 276.889785 74.895339 
L 278.983739 76.173274 
L 280.845031 77.553013 
L 282.595261 79.137163 
L 284.102293 80.810961 
L 285.434717 82.629513 
L 286.543066 84.4921 
L 287.592217 86.696302 
L 288.420456 88.915744 
L 289.147362 91.476801 
L 289.7109 94.270682 
L 290.093168 97.297385 
L 290.269984 100.556912 
L 290.216908 103.816439 
L 289.92968 107.075967 
L 289.432852 110.10267 
L 288.744783 112.896551 
L 287.87828 115.457608 
L 286.845215 117.785841 
L 285.660422 119.881252 
L 284.334955 121.757938 
L 282.935728 123.373602 
L 281.209291 125.003366 
L 279.400742 126.400306 
L 277.355108 127.701603 
L 275.028492 128.916593 
L 272.469215 130.011111 
L 269.444614 131.062762 
L 265.954691 132.035294 
L 261.766782 132.953735 
L 256.88089 133.776665 
L 251.297012 134.480381 
L 244.782488 135.069207 
L 237.337318 135.514908 
L 228.961501 135.791747 
L 219.8877 135.865966 
L 210.813899 135.716313 
L 202.438082 135.359068 
L 194.992912 134.822413 
L 188.711049 134.1554 
L 183.359833 133.37409 
L 178.706602 132.472297 
L 174.90628 131.52242 
L 171.494093 130.442622 
L 168.702154 129.340162 
L 166.142877 128.092125 
L 164.048923 126.84161 
L 162.155359 125.469013 
L 160.558999 124.070775 
L 158.930368 122.330462 
L 157.600061 120.579722 
L 156.371091 118.578246 
L 155.405331 116.621725 
L 154.496574 114.293491 
L 153.73903 111.732434 
L 153.147838 108.938554 
L 152.739836 105.91185 
L 152.640596 104.747733 
L 152.640596 104.747733 
" style="fill:none;stroke:#35b779;stroke-width:1.5;"/>
   </g>
   <g id="LineCollection_6">
    <path clip-path="url(#p36a9a59231)" d="M 54 158.769362 
L 60.049201 158.8831 
L 65.86574 159.215095 
L 71.216956 159.736626 
L 76.102849 160.42669 
L 80.523419 161.268032 
L 84.525381 162.255104 
L 87.968589 163.326288 
L 90.99319 164.488145 
L 93.67787 165.747455 
L 96.123135 167.144395 
L 98.205698 168.589613 
L 100.08188 170.171099 
L 101.695622 171.835716 
L 103.091591 173.615691 
L 104.149287 175.293213 
L 105.075108 177.1558 
L 105.773719 179.018387 
L 106.318627 181.113797 
L 106.63001 183.209207 
L 106.720482 185.304618 
L 106.581515 187.502958 
L 106.244464 189.495438 
L 105.650869 191.613973 
L 104.919775 193.453435 
L 103.947734 195.316022 
L 102.704614 197.178609 
L 101.352111 198.808373 
L 99.698994 200.438136 
L 97.973037 201.846272 
L 95.879083 203.267857 
L 93.450968 204.628957 
L 90.760528 205.870003 
L 87.735928 207.013812 
L 84.246004 208.081927 
L 80.523419 208.991959 
L 76.335511 209.794577 
L 71.449618 210.495464 
L 66.098402 211.026625 
L 60.514524 211.358719 
L 54.697985 211.488989 
L 54 211.49049 
L 54 211.49049 
" style="fill:none;stroke:#90d743;stroke-width:1.5;"/>
    <path clip-path="url(#p36a9a59231)" d="M 388.8 211.49049 
L 382.750799 211.377058 
L 376.93426 211.044771 
L 371.583044 210.523326 
L 366.697151 209.833232 
L 362.276581 208.991959 
L 358.321334 208.017703 
L 354.831411 206.933854 
L 351.80681 205.772021 
L 349.014871 204.456658 
L 346.688256 203.122488 
L 344.594302 201.670327 
L 342.843962 200.205313 
L 341.237664 198.575549 
L 339.92344 196.945786 
L 338.716845 195.083199 
L 337.775778 193.220612 
L 337.063796 191.358025 
L 336.505379 189.262615 
L 336.181411 187.167204 
L 336.07885 185.071794 
L 336.193509 182.976384 
L 336.530099 180.880974 
L 337.102085 178.785563 
L 337.847116 176.879865 
L 338.783967 175.060389 
L 340.008812 173.197803 
L 341.341932 171.568039 
L 342.971455 169.938275 
L 344.826963 168.414012 
L 346.920917 166.992264 
L 349.247533 165.683025 
L 351.80681 164.488145 
L 354.831411 163.326288 
L 358.321334 162.242126 
L 362.276581 161.268032 
L 366.697151 160.42669 
L 371.350382 159.764575 
L 376.701598 159.233216 
L 382.285476 158.901385 
L 388.334677 158.770031 
L 388.8 158.769362 
L 388.8 158.769362 
" style="fill:none;stroke:#90d743;stroke-width:1.5;"/>
    <path clip-path="url(#p36a9a59231)" d="M 168.692827 102.186676 
L 168.722977 100.091266 
L 168.972174 97.995855 
L 169.450375 95.900445 
L 170.177463 93.805035 
L 171.058299 91.942448 
L 172.194332 90.079861 
L 173.588047 88.270059 
L 174.984017 86.788952 
L 176.807577 85.19057 
L 178.736351 83.79363 
L 181.064274 82.39669 
L 183.592495 81.144536 
L 186.384434 80.001992 
L 189.667146 78.904339 
L 193.364281 77.912809 
L 197.552189 77.03134 
L 202.20542 76.288996 
L 207.323975 75.703649 
L 212.907853 75.294864 
L 218.724392 75.091601 
L 224.773593 75.104652 
L 230.590132 75.334025 
L 236.17401 75.770874 
L 241.292564 76.38652 
L 245.945796 77.16303 
L 250.133704 78.083119 
L 253.88958 79.137163 
L 257.200607 80.30128 
L 260.138151 81.578272 
L 262.697429 82.941455 
L 264.791383 84.29131 
L 266.652675 85.733268 
L 268.31324 87.285981 
L 269.745542 88.915744 
L 271.064242 90.778331 
L 272.099834 92.640918 
L 272.934538 94.614947 
L 273.535444 96.598915 
L 273.935625 98.694325 
L 274.111182 100.789736 
L 274.068969 102.885146 
L 273.807386 104.980556 
L 273.315976 107.075967 
L 272.574261 109.171377 
L 271.678538 111.033964 
L 270.525112 112.896551 
L 269.211953 114.589898 
L 267.727943 116.156078 
L 265.954691 117.699037 
L 264.093398 119.046383 
L 261.766782 120.44612 
L 259.144816 121.743839 
L 256.182905 122.943839 
L 252.925643 124.017352 
L 249.19936 125.003366 
L 245.015149 125.871125 
L 240.361918 126.602559 
L 235.243363 127.177887 
L 229.659486 127.577605 
L 223.842946 127.772172 
L 217.793746 127.750356 
L 211.977206 127.512217 
L 206.393329 127.065977 
L 201.274774 126.43995 
L 196.621543 125.651908 
L 192.433634 124.718545 
L 188.711049 123.659476 
L 185.453787 122.501285 
L 182.653963 121.278192 
L 180.039017 119.881252 
L 177.775956 118.402315 
L 175.832349 116.854548 
L 174.155275 115.224784 
L 172.783229 113.595021 
L 171.521505 111.732434 
L 170.533816 109.869847 
L 169.781138 108.00726 
L 169.181627 105.91185 
L 168.819833 103.816439 
L 168.692827 102.186676 
L 168.692827 102.186676 
" style="fill:none;stroke:#90d743;stroke-width:1.5;"/>
   </g>
   <g id="LineCollection_7">
    <path clip-path="url(#p36a9a59231)" d="M 54 169.070677 
L 57.955247 169.17788 
L 61.910493 169.506311 
L 65.633079 170.037717 
L 69.123002 170.763238 
L 72.147603 171.609066 
L 74.939541 172.618291 
L 77.266157 173.679203 
L 79.360111 174.870022 
L 81.221404 176.19869 
L 82.617373 177.450441 
L 83.796595 178.785563 
L 84.738617 180.182503 
L 85.41987 181.579444 
L 85.874635 183.020489 
L 86.087929 184.373324 
L 86.096834 185.770264 
L 85.874635 187.23875 
L 85.465599 188.564145 
L 84.804829 189.961085 
L 83.885725 191.358025 
L 82.671989 192.754965 
L 81.221404 194.060902 
L 79.592773 195.239858 
L 77.73148 196.337912 
L 75.404864 197.447802 
L 72.845587 198.421417 
L 69.820987 199.321331 
L 66.563725 200.052081 
L 63.073801 200.612048 
L 59.351216 200.992167 
L 55.395969 201.176116 
L 54 201.189359 
L 54 201.189359 
" style="fill:none;stroke:#fde725;stroke-width:1.5;"/>
    <path clip-path="url(#p36a9a59231)" d="M 388.8 201.189359 
L 384.844753 201.082144 
L 380.889507 200.753529 
L 377.166921 200.222565 
L 373.716952 199.506843 
L 370.652397 198.6508 
L 367.860459 197.642193 
L 365.301181 196.460944 
L 363.207227 195.239858 
L 361.403794 193.919082 
L 359.949965 192.570966 
L 358.914275 191.358025 
L 357.995171 189.961085 
L 357.334401 188.564145 
L 356.908415 187.167204 
L 356.703166 185.770264 
L 356.712071 184.373324 
L 356.935317 182.976384 
L 357.390688 181.553858 
L 358.088673 180.136213 
L 359.019319 178.765354 
L 360.244033 177.388623 
L 361.811258 176.014508 
L 363.506529 174.827566 
L 365.564686 173.663449 
L 367.860459 172.618291 
L 370.419736 171.684159 
L 373.444336 170.820404 
L 376.701598 170.120717 
L 380.424183 169.560539 
L 384.146769 169.219186 
L 388.102015 169.074008 
L 388.8 169.070677 
L 388.8 169.070677 
" style="fill:none;stroke:#fde725;stroke-width:1.5;"/>
    <path clip-path="url(#p36a9a59231)" d="M 189.396609 102.885146 
L 189.281132 101.488206 
L 189.378825 100.091266 
L 189.693168 98.694325 
L 190.234239 97.297385 
L 191.037665 95.874584 
L 192.081425 94.503505 
L 193.461773 93.106565 
L 194.992912 91.878918 
L 196.854204 90.675417 
L 198.948158 89.580921 
L 201.507436 88.510163 
L 204.299375 87.590441 
L 207.323975 86.819481 
L 210.813899 86.164665 
L 214.536484 85.696889 
L 218.49173 85.428235 
L 222.446977 85.378089 
L 226.402224 85.542774 
L 230.35747 85.932775 
L 234.080056 86.530268 
L 237.402562 87.285981 
L 240.476377 88.217274 
L 243.153857 89.263612 
L 245.480473 90.411666 
L 247.341765 91.552882 
L 249.072742 92.873741 
L 250.512213 94.270682 
L 251.622732 95.667622 
L 252.46032 97.080412 
L 253.032738 98.461502 
L 253.390966 99.901453 
L 253.517389 101.255382 
L 253.437472 102.652323 
L 253.141571 104.049263 
L 252.61992 105.446203 
L 251.855014 106.843143 
L 250.818602 108.240083 
L 249.435719 109.665329 
L 247.807088 110.981144 
L 246.178457 112.04775 
L 244.084503 113.16841 
L 241.525226 114.262602 
L 238.965949 115.131455 
L 235.941348 115.935173 
L 232.447595 116.621725 
L 228.728839 117.116577 
L 224.773593 117.411381 
L 220.818346 117.48701 
L 216.863099 117.348169 
L 212.907853 116.9854 
L 209.185268 116.41798 
L 205.847798 115.690431 
L 202.903405 114.837862 
L 200.184205 113.827844 
L 197.784851 112.699849 
L 195.923558 111.615259 
L 194.146428 110.335494 
L 192.614411 108.938554 
L 191.42701 107.541613 
L 190.530567 106.144673 
L 189.874357 104.704092 
L 189.483133 103.350793 
L 189.396609 102.885146 
L 189.396609 102.885146 
" style="fill:none;stroke:#fde725;stroke-width:1.5;"/>
   </g>
   <g id="line2d_1">
    <path clip-path="url(#p36a9a59231)" d="M 54 195.36 
L 388.8 195.36 
" style="fill:none;stroke:#ff0000;stroke-linecap:square;stroke-width:1.5;"/>
   </g>
   <g id="line2d_2">
    <path clip-path="url(#p36a9a59231)" d="M 54 91.2 
L 388.8 91.2 
" style="fill:none;stroke:#ff0000;stroke-linecap:square;stroke-width:1.5;"/>
   </g>
   <g id="patch_3">
    <path d="M 54 252 
L 54 34.56 
" style="fill:none;stroke:#000000;stroke-linecap:square;stroke-linejoin:miter;stroke-width:0.8;"/>
   </g>
   <g id="patch_4">
    <path d="M 388.8 252 
L 388.8 34.56 
" style="fill:none;stroke:#000000;stroke-linecap:square;stroke-linejoin:miter;stroke-width:0.8;"/>
   </g>
   <g id="patch_5">
    <path d="M 54 252 
L 388.8 252 
" style="fill:none;stroke:#000000;stroke-linecap:square;stroke-linejoin:miter;stroke-width:0.8;"/>
   </g>
   <g id="patch_6">
    <path d="M 54 34.56 
L 388.8 34.56 
" style="fill:none;stroke:#000000;stroke-linecap:square;stroke-linejoin:miter;stroke-width:0.8;"/>
   </g>
  </g>
 </g>
 <defs>
  <clipPath id="p36a9a59231">
   <rect height="217.44" width="334.8" x="54" y="34.56"/>
  </clipPath>
 </defs>
</svg>
