<?xml version="1.0" encoding="utf-8" standalone="no"?>
<!DOCTYPE svg PUBLIC "-//W3C//DTD SVG 1.1//EN"
  "http://www.w3.org/Graphics/SVG/1.1/DTD/svg11.dtd">
<!-- Created with matplotlib (http://matplotlib.org/) -->
<svg height="288pt" version="1.1" viewBox="0 0 432 288" width="432pt" xmlns="http://www.w3.org/2000/svg" xmlns:xlink="http://www.w3.org/1999/xlink">
 <defs>
  <style type="text/css">
*{stroke-linecap:butt;stroke-linejoin:round;}
  </style>
 </defs>
 <g id="figure_1">
  <g id="patch_1">
   <path d="M 0 288 
L 432 288 
L 432 0 
L 0 0 
z
" style="fill:#ffffff;"/>
  </g>
  <g id="axes_1">
   <g id="patch_2">
    <path d="M 54 252 
L 388.8 252 
L 388.8 34.56 
L 54 34.56 
z
" style="fill:#ffffff;"/>
   </g>
   <g id="matplotlib.axis_1"/>
   <g id="matplotlib.axis_2"/>
   <g id="LineCollection_1">
    <path clip-path="url(#p8d9ead6d69)" d="M 92.135677 145.258999 
L 92.44912 146.888762 
L 92.916069 148.285702 
L 93.552467 149.487679 
L 94.250452 150.311084 
L 94.948436 150.789934 
L 95.646421 150.991259 
L 96.344406 150.938772 
L 97.061245 150.613936 
L 97.740375 150.015997 
L 98.316504 149.216996 
L 98.878937 148.052879 
L 99.308911 146.655939 
L 99.601668 144.946414 
L 99.688983 143.163588 
L 99.563936 141.301001 
L 99.250425 139.671238 
L 98.783432 138.274298 
L 98.171684 137.110181 
L 97.507714 136.303115 
L 96.809729 135.798972 
L 96.111744 135.575736 
L 95.41376 135.607226 
L 94.715775 135.896639 
L 94.01779 136.4798 
L 93.319805 137.44854 
L 92.735515 138.739944 
L 92.337691 140.136885 
L 92.06291 141.999471 
L 92.02139 143.862058 
L 92.135677 145.258999 
L 92.135677 145.258999 
" style="fill:none;stroke:#440154;stroke-width:1.5;"/>
    <path clip-path="url(#p8d9ead6d69)" d="M 175.903628 145.724645 
L 176.281053 147.354409 
L 176.845309 148.78676 
L 177.573635 149.915466 
L 178.34258 150.613936 
L 178.939263 150.905504 
L 179.637248 151.000002 
L 180.335233 150.842289 
L 181.06873 150.381113 
L 181.731202 149.654239 
L 182.382133 148.518526 
L 182.819152 147.354409 
L 183.195202 145.724645 
L 183.379746 143.862058 
L 183.338173 141.999471 
L 183.062087 140.136885 
L 182.577745 138.507121 
L 181.963864 137.253037 
L 181.265879 136.359301 
L 180.567894 135.829701 
L 179.86991 135.584482 
L 179.171925 135.594978 
L 178.47394 135.862256 
L 177.775956 136.417667 
L 177.077971 137.347827 
L 176.522313 138.507121 
L 176.091024 139.904061 
L 175.808525 141.533825 
L 175.71014 143.396412 
L 175.83668 145.258999 
L 175.903628 145.724645 
L 175.903628 145.724645 
" style="fill:none;stroke:#440154;stroke-width:1.5;"/>
    <path clip-path="url(#p8d9ead6d69)" d="M 259.43033 144.094882 
L 259.644205 145.957469 
L 260.055072 147.587232 
L 260.603475 148.899296 
L 261.301459 149.949719 
L 262.040325 150.613936 
L 262.697429 150.923016 
L 263.395413 150.996505 
L 264.093398 150.81702 
L 264.791383 150.363301 
L 265.489368 149.572092 
L 266.081317 148.518526 
L 266.587723 147.121586 
L 266.931622 145.491822 
L 267.08635 143.629235 
L 267.016094 141.766648 
L 266.708976 139.904061 
L 266.277687 138.507121 
L 265.719072 137.343004 
L 265.017979 136.411711 
L 264.32606 135.862256 
L 263.628075 135.594978 
L 262.93009 135.584482 
L 262.232106 135.829701 
L 261.484199 136.411711 
L 260.836136 137.253037 
L 260.315937 138.274298 
L 259.849059 139.671238 
L 259.536823 141.301001 
L 259.410179 143.163588 
L 259.43033 144.094882 
L 259.43033 144.094882 
" style="fill:none;stroke:#440154;stroke-width:1.5;"/>
    <path clip-path="url(#p8d9ead6d69)" d="M 343.182624 144.793352 
L 343.436572 146.423115 
L 343.921063 148.052879 
L 344.483496 149.216996 
L 345.059625 150.015997 
L 345.757609 150.627145 
L 346.455594 150.938772 
L 347.153579 150.991259 
L 347.851564 150.789934 
L 348.549548 150.311084 
L 349.272038 149.449819 
L 349.883931 148.285702 
L 350.35088 146.888762 
L 350.664323 145.258999 
L 350.788983 143.396412 
L 350.69206 141.533825 
L 350.410361 139.904061 
L 349.883931 138.274298 
L 349.247533 137.072321 
L 348.549548 136.248916 
L 347.851564 135.770066 
L 347.153579 135.568741 
L 346.455594 135.621228 
L 345.738755 135.946064 
L 345.059625 136.544003 
L 344.483496 137.343004 
L 343.921063 138.507121 
L 343.491089 139.904061 
L 343.198332 141.613586 
L 343.111017 143.396412 
L 343.182624 144.793352 
L 343.182624 144.793352 
" style="fill:none;stroke:#440154;stroke-width:1.5;"/>
   </g>
   <g id="LineCollection_2">
    <path clip-path="url(#p8d9ead6d69)" d="M 84.239375 146.423115 
L 84.515613 149.915466 
L 84.978542 153.174993 
L 85.641974 156.255532 
L 86.396329 158.762754 
L 87.336599 161.090987 
L 88.331607 162.953574 
L 89.364559 164.441925 
L 90.561348 165.747455 
L 91.718897 166.678748 
L 92.954829 167.377218 
L 94.01779 167.767122 
L 95.181098 167.987438 
L 96.344406 168.002684 
L 97.507714 167.813555 
L 98.745428 167.377218 
L 99.834329 166.77712 
L 100.997637 165.87734 
L 102.160945 164.657469 
L 103.223424 163.186398 
L 104.138657 161.556634 
L 105.049706 159.461224 
L 105.818953 157.13299 
L 106.499524 154.33911 
L 107.012487 151.312406 
L 107.374856 147.820056 
L 107.532895 144.094882 
L 107.471548 140.369708 
L 107.184195 136.644534 
L 106.721242 133.385007 
L 106.071627 130.358303 
L 105.303515 127.797246 
L 104.470907 125.701836 
L 103.508403 123.839249 
L 102.393607 122.191918 
L 101.230299 120.898773 
L 99.980286 119.881252 
L 98.745428 119.182782 
L 97.740375 118.80942 
L 96.577067 118.578665 
L 95.41376 118.553253 
L 94.250452 118.732027 
L 92.954829 119.182782 
L 91.923836 119.745208 
L 90.760528 120.630602 
L 89.59722 121.832747 
L 88.62676 123.140779 
L 87.67897 124.770542 
L 86.73977 126.865953 
L 85.948713 129.194186 
L 85.298646 131.755243 
L 84.753417 134.781947 
L 84.380135 138.041474 
L 84.180017 141.766648 
L 84.200327 145.491822 
L 84.239375 146.423115 
L 84.239375 146.423115 
" style="fill:none;stroke:#443983;stroke-width:1.5;"/>
    <path clip-path="url(#p8d9ead6d69)" d="M 167.992747 147.354409 
L 168.32621 150.846759 
L 168.853486 154.106287 
L 169.515368 156.900167 
L 170.349883 159.461224 
L 171.261432 161.558228 
L 172.327104 163.419221 
L 173.372722 164.816161 
L 174.518694 165.98071 
L 175.779701 166.911572 
L 176.845309 167.461653 
L 178.013235 167.842865 
L 179.171925 168.010302 
L 180.335233 167.974721 
L 181.498541 167.733503 
L 182.661849 167.275618 
L 183.825156 166.578757 
L 184.988464 165.605147 
L 186.151772 164.292998 
L 187.208142 162.720751 
L 188.170497 160.858164 
L 189.003655 158.762754 
L 189.771434 156.201697 
L 190.379671 153.407816 
L 190.85825 150.148289 
L 191.148242 146.655939 
L 191.237053 142.930765 
L 191.106974 139.205591 
L 190.774009 135.713241 
L 190.246488 132.453713 
L 189.584772 129.659833 
L 188.749962 127.098776 
L 187.838833 125.003366 
L 186.849757 123.257461 
L 185.726976 121.743839 
L 184.755803 120.735466 
L 183.592495 119.821193 
L 182.429187 119.174523 
L 181.265879 118.761393 
L 180.102571 118.561888 
L 178.939263 118.56697 
L 177.775956 118.77687 
L 176.612648 119.201104 
L 175.418949 119.881252 
L 174.261211 120.812545 
L 173.122724 122.045176 
L 172.031504 123.606426 
L 171.147257 125.236189 
L 170.26317 127.331599 
L 169.451206 129.892656 
L 168.807885 132.686537 
L 168.296973 135.946064 
L 167.978164 139.438414 
L 167.862296 143.163588 
L 167.96446 146.888762 
L 167.992747 147.354409 
L 167.992747 147.354409 
" style="fill:none;stroke:#443983;stroke-width:1.5;"/>
    <path clip-path="url(#p8d9ead6d69)" d="M 251.760465 148.285702 
L 252.153542 151.778053 
L 252.69819 154.804757 
L 253.417983 157.598637 
L 254.232075 159.926871 
L 255.078987 161.789458 
L 256.02703 163.419221 
L 257.113551 164.863899 
L 258.276859 166.031102 
L 259.47897 166.911572 
L 260.603475 167.485912 
L 261.766782 167.855202 
L 262.93009 168.013348 
L 264.093398 167.967595 
L 265.256706 167.715891 
L 266.420014 167.246693 
L 267.583322 166.537049 
L 268.780111 165.514631 
L 269.909937 164.216858 
L 270.908275 162.720751 
L 271.870429 160.858164 
L 272.704084 158.762754 
L 273.471506 156.201697 
L 274.097846 153.308273 
L 274.563169 150.107257 
L 274.848371 146.655939 
L 274.936857 142.930765 
L 274.807253 139.205591 
L 274.47379 135.713241 
L 273.946514 132.453713 
L 273.284632 129.659833 
L 272.450117 127.098776 
L 271.538568 125.001772 
L 270.472896 123.140779 
L 269.427278 121.743839 
L 268.281306 120.57929 
L 267.020299 119.648428 
L 265.954691 119.098347 
L 264.786765 118.717135 
L 263.628075 118.549698 
L 262.464767 118.585279 
L 261.301459 118.826497 
L 260.138151 119.284382 
L 258.974844 119.981243 
L 257.811536 120.954853 
L 256.648228 122.267002 
L 255.591858 123.839249 
L 254.629503 125.701836 
L 253.796345 127.797246 
L 253.028566 130.358303 
L 252.420329 133.152184 
L 251.94175 136.411711 
L 251.651758 139.904061 
L 251.562947 143.629235 
L 251.693026 147.354409 
L 251.760465 148.285702 
L 251.760465 148.285702 
" style="fill:none;stroke:#443983;stroke-width:1.5;"/>
    <path clip-path="url(#p8d9ead6d69)" d="M 335.285629 145.026175 
L 335.500049 148.751349 
L 335.923862 152.2437 
L 336.502359 155.270403 
L 337.263283 158.064284 
L 338.124648 160.392517 
L 339.02621 162.255104 
L 340.046508 163.884868 
L 341.104378 165.188564 
L 342.267686 166.272031 
L 343.430994 167.060453 
L 344.626687 167.610042 
L 345.757609 167.914051 
L 346.920917 168.020961 
L 348.084225 167.924264 
L 349.273551 167.610042 
L 350.410841 167.093043 
L 351.574149 166.317971 
L 352.737457 165.250784 
L 353.900764 163.819389 
L 354.873536 162.255104 
L 355.775616 160.392517 
L 356.63687 158.064284 
L 357.343493 155.503227 
L 357.939162 152.476523 
L 358.356603 149.216996 
L 358.599673 145.491822 
L 358.619983 141.766648 
L 358.419865 138.041474 
L 358.011839 134.549124 
L 357.450273 131.52242 
L 356.710614 128.72854 
L 355.872928 126.400306 
L 354.999245 124.537719 
L 354.01638 122.907955 
L 352.922654 121.511015 
L 351.70432 120.346898 
L 350.643502 119.600984 
L 349.480195 119.027253 
L 348.316887 118.679697 
L 347.153579 118.542084 
L 345.990271 118.608194 
L 344.826963 118.880951 
L 343.58485 119.415605 
L 342.492895 120.114075 
L 341.33704 121.128154 
L 340.173732 122.498658 
L 339.156954 124.072072 
L 338.225644 125.934659 
L 337.381793 128.132011 
L 336.669276 130.591127 
L 336.038119 133.61783 
L 335.590692 136.877357 
L 335.328452 140.369708 
L 335.267105 144.094882 
L 335.285629 145.026175 
L 335.285629 145.026175 
" style="fill:none;stroke:#443983;stroke-width:1.5;"/>
   </g>
   <g id="LineCollection_3">
    <path clip-path="url(#p8d9ead6d69)" d="M 79.354169 148.751349 
L 79.667751 154.33911 
L 80.165752 159.228401 
L 80.777422 163.186398 
L 81.536092 166.678748 
L 82.384712 169.572724 
L 83.330762 172.033686 
L 84.368959 174.129096 
L 85.409312 175.789854 
L 86.682088 177.388623 
L 87.968589 178.645672 
L 89.401042 179.716857 
L 90.760528 180.478211 
L 92.389159 181.11641 
L 94.01779 181.49574 
L 95.646421 181.638478 
L 97.275052 181.55295 
L 98.903683 181.234503 
L 100.532314 180.663897 
L 101.928284 179.947341 
L 103.324253 178.981853 
L 104.720222 177.708722 
L 105.975308 176.224506 
L 107.062412 174.594743 
L 108.15988 172.499332 
L 109.022469 170.403922 
L 109.85103 167.842865 
L 110.598724 164.816161 
L 111.273919 161.090987 
L 111.801676 156.900167 
L 112.192023 152.010876 
L 112.41044 146.423115 
L 112.419062 140.602531 
L 112.205576 134.781947 
L 111.801676 129.659833 
L 111.234746 125.213844 
L 110.536762 121.457076 
L 109.715416 118.251488 
L 108.847315 115.690431 
L 107.824279 113.362197 
L 106.776444 111.499611 
L 105.614241 109.869847 
L 104.342741 108.472907 
L 103.091591 107.397713 
L 101.695622 106.477018 
L 100.299653 105.797899 
L 98.671022 105.265227 
L 97.038672 104.980556 
L 95.41376 104.927907 
L 93.785129 105.10358 
L 92.156498 105.518029 
L 90.632678 106.144673 
L 89.364559 106.866386 
L 87.968589 107.914328 
L 86.682088 109.171377 
L 85.553499 110.568317 
L 84.478666 112.236808 
L 83.434267 114.293491 
L 82.510594 116.621725 
L 81.65704 119.415605 
L 80.910418 122.675132 
L 80.290147 126.400306 
L 79.785798 130.82395 
L 79.432709 135.946064 
L 79.267948 141.533825 
L 79.311168 147.354409 
L 79.354169 148.751349 
L 79.354169 148.751349 
" style="fill:none;stroke:#31688e;stroke-width:1.5;"/>
    <path clip-path="url(#p8d9ead6d69)" d="M 163.110667 150.148289 
L 163.46496 155.503227 
L 163.990307 160.159694 
L 164.656638 164.117691 
L 165.444892 167.470189 
L 166.293032 170.171099 
L 167.240169 172.499332 
L 168.236831 174.423786 
L 169.424382 176.224506 
L 170.597097 177.621446 
L 171.959416 178.888576 
L 173.355386 179.87716 
L 174.832915 180.64815 
L 176.379986 181.202418 
L 178.008617 181.538098 
L 179.637248 181.639929 
L 181.265879 181.513584 
L 182.89451 181.151815 
L 184.523141 180.533197 
L 185.998602 179.716857 
L 187.31508 178.744443 
L 188.50298 177.621446 
L 189.675554 176.224506 
L 190.805003 174.523082 
L 191.859759 172.499332 
L 192.806954 170.171099 
L 193.616433 167.610042 
L 194.396153 164.350515 
L 195.043256 160.625341 
L 195.570728 156.201697 
L 195.943895 151.079583 
L 196.126284 145.491822 
L 196.100293 139.671238 
L 195.863527 134.083477 
L 195.427764 128.961363 
L 194.825942 124.537719 
L 194.144401 121.045369 
L 193.345595 118.018665 
L 192.433634 115.399476 
L 191.406138 113.129374 
L 190.326817 111.266787 
L 189.123176 109.637024 
L 187.780403 108.224719 
L 186.34704 107.075967 
L 184.988464 106.255833 
L 183.359833 105.557295 
L 181.731202 105.125071 
L 180.102571 104.932844 
L 178.47394 104.96952 
L 176.845309 105.237018 
L 175.216678 105.751038 
L 173.820709 106.411862 
L 172.424739 107.310734 
L 171.02877 108.499882 
L 169.785965 109.869847 
L 168.62372 111.499611 
L 167.538846 113.435471 
L 166.552667 115.690431 
L 165.677554 118.274181 
L 164.903051 121.278192 
L 164.235849 124.770542 
L 163.672334 128.961363 
L 163.251365 133.850654 
L 163.005311 139.438414 
L 162.970698 145.258999 
L 163.110667 150.148289 
L 163.110667 150.148289 
" style="fill:none;stroke:#31688e;stroke-width:1.5;"/>
    <path clip-path="url(#p8d9ead6d69)" d="M 246.868421 151.312406 
L 247.251743 156.43452 
L 247.807088 160.966031 
L 248.505073 164.834787 
L 249.316129 168.075688 
L 250.16389 170.636745 
L 251.160861 172.964979 
L 252.227658 174.907838 
L 253.390966 176.571714 
L 254.554274 177.887386 
L 255.950243 179.117975 
L 257.346213 180.049743 
L 258.742182 180.738114 
L 260.370813 181.280189 
L 262.065601 181.579444 
L 263.628075 181.634125 
L 265.256706 181.466707 
L 266.885337 181.061088 
L 268.467756 180.415327 
L 269.699142 179.716857 
L 271.073245 178.695363 
L 272.418103 177.388623 
L 273.546505 175.991683 
L 274.598779 174.361919 
L 275.665818 172.266509 
L 276.58946 169.938275 
L 277.380398 167.377218 
L 278.143362 164.117691 
L 278.776901 160.392517 
L 279.292705 155.968873 
L 279.655826 150.846759 
L 279.829302 145.258999 
L 279.794689 139.438414 
L 279.548635 133.850654 
L 279.101839 128.72854 
L 278.518416 124.491405 
L 277.790836 120.812545 
L 276.973756 117.785841 
L 276.063144 115.224784 
L 275.028492 112.978978 
L 274.026506 111.266787 
L 272.823007 109.637024 
L 271.538568 108.278478 
L 270.142599 107.142361 
L 268.74663 106.286225 
L 267.117999 105.577449 
L 265.489368 105.136279 
L 263.860737 104.935749 
L 262.232106 104.964271 
L 260.603475 105.22339 
L 258.974844 105.728158 
L 257.578874 106.379938 
L 256.127991 107.30879 
L 254.756922 108.472907 
L 253.486004 109.869847 
L 252.46032 111.286313 
L 251.393862 113.129374 
L 250.436806 115.224784 
L 249.599537 117.553018 
L 248.820218 120.346898 
L 248.135133 123.606426 
L 247.536162 127.564423 
L 247.067694 132.22089 
L 246.762798 137.575828 
L 246.658205 143.396412 
L 246.771641 149.216996 
L 246.868421 151.312406 
L 246.868421 151.312406 
" style="fill:none;stroke:#31688e;stroke-width:1.5;"/>
    <path clip-path="url(#p8d9ead6d69)" d="M 330.399586 146.888762 
L 330.636337 152.476523 
L 331.072226 157.598637 
L 331.6359 161.789458 
L 332.355612 165.514631 
L 333.193885 168.670527 
L 334.136576 171.335216 
L 335.09369 173.430626 
L 336.218485 175.362403 
L 337.381793 176.92942 
L 338.703571 178.319917 
L 339.94107 179.334508 
L 341.33704 180.211719 
L 342.80435 180.880974 
L 344.36164 181.349943 
L 345.990271 181.600683 
L 347.618902 181.621054 
L 349.247533 181.412205 
L 350.876164 180.962046 
L 352.272133 180.3637 
L 353.746719 179.484033 
L 355.064072 178.441165 
L 356.324522 177.1558 
L 357.412181 175.75886 
L 358.560064 173.896273 
L 359.569567 171.800862 
L 360.448723 169.472629 
L 361.263908 166.678748 
L 361.979115 163.419221 
L 362.573337 159.694047 
L 363.055477 155.270403 
L 363.389233 150.148289 
L 363.538236 144.327705 
L 363.468963 138.507121 
L 363.184949 132.91936 
L 362.720963 128.03007 
L 362.10646 123.839249 
L 361.379896 120.346898 
L 360.600518 117.553018 
L 359.667687 114.991961 
L 358.684663 112.896551 
L 357.571884 111.033964 
L 356.324522 109.4042 
L 355.064072 108.118835 
L 353.668103 107.021259 
L 352.167322 106.144673 
L 350.643502 105.518029 
L 349.014871 105.10358 
L 347.38624 104.927907 
L 345.757609 104.9809 
L 344.128978 105.265227 
L 342.500347 105.797899 
L 341.104378 106.477018 
L 339.708409 107.397713 
L 338.312439 108.614323 
L 337.149131 109.915091 
L 335.985823 111.558982 
L 334.975721 113.362197 
L 334.043631 115.457608 
L 333.154484 118.018665 
L 332.355612 121.045369 
L 331.674102 124.537719 
L 331.097965 128.72854 
L 330.666562 133.61783 
L 330.417372 138.972768 
L 330.365467 144.793352 
L 330.399586 146.888762 
L 330.399586 146.888762 
" style="fill:none;stroke:#31688e;stroke-width:1.5;"/>
   </g>
   <g id="LineCollection_4">
    <path clip-path="url(#p8d9ead6d69)" d="M 54 59.58 
L 74.70688 59.58 
L 74.924999 59.812823 
L 74.924999 226.747177 
L 74.70688 226.98 
L 54 226.98 
L 54 226.98 
" style="fill:none;stroke:#21918c;stroke-width:1.5;"/>
    <path clip-path="url(#p8d9ead6d69)" d="M 388.8 226.98 
L 368.09312 226.98 
L 367.875001 226.747177 
L 367.875001 59.812823 
L 368.09312 59.58 
L 388.8 59.58 
L 388.8 59.58 
" style="fill:none;stroke:#21918c;stroke-width:1.5;"/>
    <path clip-path="url(#p8d9ead6d69)" d="M 116.774999 226.747177 
L 116.818624 59.58 
L 158.465045 59.58 
L 158.624999 59.812823 
L 158.624999 226.747177 
L 158.465045 226.98 
L 116.818624 226.98 
L 116.774999 226.747177 
L 116.774999 226.747177 
" style="fill:none;stroke:#21918c;stroke-width:1.5;"/>
    <path clip-path="url(#p8d9ead6d69)" d="M 200.475 226.747177 
L 200.576789 59.58 
L 242.223211 59.58 
L 242.325 60.045647 
L 242.223211 226.98 
L 200.576789 226.98 
L 200.475 226.747177 
L 200.475 226.747177 
" style="fill:none;stroke:#21918c;stroke-width:1.5;"/>
    <path clip-path="url(#p8d9ead6d69)" d="M 284.175001 226.747177 
L 284.175001 59.812823 
L 284.334955 59.58 
L 325.981376 59.58 
L 326.025001 60.27847 
L 325.981376 226.98 
L 284.334955 226.98 
L 284.175001 226.747177 
L 284.175001 226.747177 
" style="fill:none;stroke:#21918c;stroke-width:1.5;"/>
   </g>
   <g id="LineCollection_5">
    <path clip-path="url(#p8d9ead6d69)" d="M 54 104.919745 
L 55.628631 105.033822 
L 57.257262 105.38251 
L 58.885893 105.986602 
L 60.281862 106.736694 
L 61.715368 107.774437 
L 63.073801 109.06762 
L 64.296596 110.568317 
L 65.400417 112.287565 
L 66.415761 114.293491 
L 67.33944 116.621725 
L 68.193081 119.415605 
L 68.939637 122.675132 
L 69.559761 126.400306 
L 70.064277 130.82395 
L 70.417269 135.946064 
L 70.582081 141.533825 
L 70.538893 147.354409 
L 70.283518 152.94217 
L 69.825623 158.064284 
L 69.23691 162.255104 
L 68.540691 165.747455 
L 67.72402 168.774159 
L 66.796386 171.377332 
L 65.734664 173.663449 
L 64.621776 175.526036 
L 63.374609 177.1558 
L 62.143155 178.414939 
L 60.747186 179.51882 
L 59.217338 180.415327 
L 57.722585 181.032284 
L 56.093954 181.451162 
L 54.465323 181.630968 
L 54 181.640255 
L 54 181.640255 
" style="fill:none;stroke:#35b779;stroke-width:1.5;"/>
    <path clip-path="url(#p8d9ead6d69)" d="M 388.8 181.640255 
L 387.171369 181.526178 
L 385.542738 181.17749 
L 383.914107 180.573398 
L 382.518138 179.823306 
L 381.084632 178.785563 
L 379.726199 177.49238 
L 378.503404 175.991683 
L 377.399583 174.272435 
L 376.384239 172.266509 
L 375.46056 169.938275 
L 374.606919 167.144395 
L 373.860363 163.884868 
L 373.240239 160.159694 
L 372.735723 155.73605 
L 372.382731 150.613936 
L 372.217919 145.026175 
L 372.261107 139.205591 
L 372.516482 133.61783 
L 372.974377 128.495716 
L 373.56309 124.304896 
L 374.259309 120.812545 
L 375.07598 117.785841 
L 376.003614 115.182668 
L 377.065336 112.896551 
L 378.178224 111.033964 
L 379.425391 109.4042 
L 380.656845 108.145061 
L 382.052814 107.04118 
L 383.582662 106.144673 
L 385.077415 105.527716 
L 386.706046 105.108838 
L 388.334677 104.929032 
L 388.8 104.919745 
L 388.8 104.919745 
" style="fill:none;stroke:#35b779;stroke-width:1.5;"/>
    <path clip-path="url(#p8d9ead6d69)" d="M 121.230713 149.449819 
L 121.108677 143.629235 
L 121.204241 137.808651 
L 121.517706 132.22089 
L 122.015731 127.331599 
L 122.635163 123.33133 
L 123.386035 119.881252 
L 124.279838 116.854548 
L 125.284249 114.293491 
L 126.357748 112.186377 
L 127.574561 110.335494 
L 128.747285 108.938554 
L 130.080334 107.695108 
L 131.476303 106.700674 
L 132.983034 105.91185 
L 134.500903 105.365809 
L 136.129534 105.0258 
L 137.758165 104.91989 
L 139.386796 105.042143 
L 141.015427 105.399543 
L 142.644058 106.013305 
L 144.148509 106.843143 
L 145.435997 107.791244 
L 146.65277 108.938554 
L 147.825398 110.335494 
L 148.925921 111.987779 
L 150.009796 114.060668 
L 150.957008 116.388901 
L 151.766332 118.949958 
L 152.546152 122.209485 
L 153.193207 125.934659 
L 153.720736 130.358303 
L 154.093833 135.480417 
L 154.277137 141.126362 
L 154.250349 146.888762 
L 154.013583 152.476523 
L 153.577853 157.598637 
L 152.975906 162.022281 
L 152.240759 165.747455 
L 151.423798 168.774159 
L 150.513286 171.335216 
L 149.556197 173.430626 
L 148.460598 175.318168 
L 147.273372 176.922976 
L 145.946601 178.319917 
L 144.738013 179.313395 
L 143.342043 180.195938 
L 141.845443 180.880974 
L 140.30229 181.34662 
L 138.688812 181.598242 
L 137.060181 181.622688 
L 135.43155 181.418002 
L 133.802919 180.972343 
L 132.406949 180.378325 
L 130.903372 179.484033 
L 129.61501 178.46723 
L 128.325491 177.1558 
L 127.237993 175.75886 
L 126.09011 173.896273 
L 125.08046 171.800862 
L 124.20137 169.472629 
L 123.386035 166.678748 
L 122.670817 163.419221 
L 122.076698 159.694047 
L 121.594541 155.270403 
L 121.260705 150.148289 
L 121.230713 149.449819 
L 121.230713 149.449819 
" style="fill:none;stroke:#35b779;stroke-width:1.5;"/>
    <path clip-path="url(#p8d9ead6d69)" d="M 204.994112 150.846759 
L 204.820665 145.258999 
L 204.855303 139.438414 
L 205.101368 133.850654 
L 205.548148 128.72854 
L 206.123994 124.537719 
L 206.805544 121.045369 
L 207.604514 118.018665 
L 208.493351 115.457608 
L 209.54387 113.129374 
L 210.623369 111.266787 
L 211.826945 109.637024 
L 213.140514 108.25155 
L 214.536484 107.121904 
L 215.932453 106.270977 
L 217.561084 105.567329 
L 219.189715 105.130637 
L 220.818346 104.93426 
L 222.446977 104.966859 
L 224.075608 105.230165 
L 225.704239 105.739553 
L 227.100208 106.395845 
L 228.522286 107.30879 
L 229.893371 108.472907 
L 231.16398 109.869847 
L 232.326231 111.499611 
L 233.382071 113.377053 
L 234.397265 115.690431 
L 235.26561 118.251488 
L 236.046921 121.278192 
L 236.714096 124.770542 
L 237.277702 128.961363 
L 237.698632 133.850654 
L 237.944697 139.438414 
L 237.979335 145.258999 
L 237.793925 151.079583 
L 237.398292 156.43452 
L 236.859046 160.858164 
L 236.17401 164.698069 
L 235.400832 167.842865 
L 234.486005 170.636745 
L 233.489131 172.964979 
L 232.451425 174.860774 
L 231.288117 176.534765 
L 230.124809 177.857968 
L 228.728839 179.095611 
L 227.33287 180.032956 
L 225.936901 180.72598 
L 224.30827 181.272777 
L 222.679639 181.569847 
L 221.051008 181.635032 
L 219.422377 181.471736 
L 217.793746 181.070518 
L 216.181788 180.415327 
L 214.951186 179.716857 
L 213.605837 178.719979 
L 212.231683 177.388623 
L 211.103395 175.991683 
L 210.051347 174.361919 
L 208.984068 172.266509 
L 208.14306 170.171099 
L 207.323975 167.57575 
L 206.553815 164.350515 
L 205.906669 160.625341 
L 205.379256 156.201697 
L 205.006075 151.079583 
L 204.994112 150.846759 
L 204.994112 150.846759 
" style="fill:none;stroke:#35b779;stroke-width:1.5;"/>
    <path clip-path="url(#p8d9ead6d69)" d="M 288.520545 145.258999 
L 288.555222 139.438414 
L 288.801303 133.850654 
L 289.248043 128.72854 
L 289.824094 124.537719 
L 290.559241 120.812545 
L 291.376202 117.785841 
L 292.286714 115.224784 
L 293.243803 113.129374 
L 294.339402 111.241832 
L 295.526628 109.637024 
L 296.853399 108.240083 
L 298.061987 107.246605 
L 299.457957 106.364062 
L 300.954557 105.679026 
L 302.49771 105.21338 
L 304.111188 104.961758 
L 305.739819 104.937312 
L 307.36845 105.141998 
L 308.997081 105.587657 
L 310.393051 106.181675 
L 311.896628 107.075967 
L 313.18499 108.09277 
L 314.474509 109.4042 
L 315.562007 110.80114 
L 316.70989 112.663727 
L 317.71954 114.759138 
L 318.59863 117.087371 
L 319.413965 119.881252 
L 320.129183 123.140779 
L 320.723302 126.865953 
L 321.205459 131.289597 
L 321.539295 136.411711 
L 321.688232 142.232295 
L 321.618909 148.052879 
L 321.334994 153.64064 
L 320.862821 158.597921 
L 320.25642 162.720751 
L 319.529818 166.213102 
L 318.675383 169.239805 
L 317.71954 171.800862 
L 316.674913 173.960692 
L 315.511605 175.831229 
L 314.267969 177.388623 
L 312.952328 178.670594 
L 311.549357 179.716857 
L 310.160389 180.492107 
L 308.531758 181.125387 
L 306.903127 181.500314 
L 305.274496 181.63895 
L 303.645865 181.549349 
L 302.017234 181.226605 
L 300.381818 180.64815 
L 298.992634 179.929968 
L 297.596664 178.958751 
L 296.200695 177.678317 
L 294.974602 176.224506 
L 293.874079 174.572221 
L 292.790204 172.499332 
L 291.842992 170.171099 
L 291.033668 167.610042 
L 290.253848 164.350515 
L 289.606793 160.625341 
L 289.079264 156.201697 
L 288.706167 151.079583 
L 288.522863 145.433638 
L 288.520545 145.258999 
L 288.520545 145.258999 
" style="fill:none;stroke:#35b779;stroke-width:1.5;"/>
   </g>
   <g id="LineCollection_6">
    <path clip-path="url(#p8d9ead6d69)" d="M 54 118.538976 
L 55.163308 118.640778 
L 56.326616 118.950649 
L 57.489924 119.483176 
L 58.653231 120.264912 
L 59.816539 121.340222 
L 60.903589 122.675132 
L 61.792993 124.072072 
L 62.724312 125.934659 
L 63.539124 128.045234 
L 64.28053 130.591127 
L 64.912043 133.61783 
L 65.359424 136.877357 
L 65.621716 140.369708 
L 65.682749 144.094882 
L 65.524843 147.820056 
L 65.162679 151.312406 
L 64.601127 154.571933 
L 63.901222 157.365814 
L 63.073801 159.78785 
L 62.143155 161.844332 
L 61.066438 163.652045 
L 59.972406 165.048985 
L 58.885893 166.105324 
L 57.722585 166.94157 
L 56.559277 167.521248 
L 55.395969 167.874224 
L 54.232662 168.016964 
L 54 168.021024 
L 54 168.021024 
" style="fill:none;stroke:#90d743;stroke-width:1.5;"/>
    <path clip-path="url(#p8d9ead6d69)" d="M 388.8 168.021024 
L 387.636692 167.919222 
L 386.473384 167.609351 
L 385.310076 167.076824 
L 384.146769 166.295088 
L 382.983461 165.219778 
L 381.896411 163.884868 
L 381.007007 162.487928 
L 380.075688 160.625341 
L 379.260876 158.514766 
L 378.51947 155.968873 
L 377.887957 152.94217 
L 377.440576 149.682643 
L 377.178284 146.190292 
L 377.117251 142.465118 
L 377.275157 138.739944 
L 377.637321 135.247594 
L 378.198873 131.988067 
L 378.898778 129.194186 
L 379.726199 126.77215 
L 380.656845 124.715668 
L 381.733562 122.907955 
L 382.827594 121.511015 
L 383.914107 120.454676 
L 385.077415 119.61843 
L 386.240723 119.038752 
L 387.404031 118.685776 
L 388.567338 118.543036 
L 388.8 118.538976 
L 388.8 118.538976 
" style="fill:none;stroke:#90d743;stroke-width:1.5;"/>
    <path clip-path="url(#p8d9ead6d69)" d="M 126.114293 146.888762 
L 126.012315 143.163588 
L 126.128016 139.438414 
L 126.447053 135.946064 
L 126.957876 132.686537 
L 127.601323 129.892656 
L 128.413006 127.331599 
L 129.297207 125.236189 
L 130.312995 123.39383 
L 131.328995 121.976662 
L 132.41083 120.812545 
L 133.570257 119.879871 
L 134.804523 119.182782 
L 135.896873 118.784808 
L 137.060181 118.569703 
L 138.223489 118.559538 
L 139.386796 118.753853 
L 140.595973 119.182782 
L 141.830184 119.881252 
L 142.87672 120.708969 
L 144.040028 121.937766 
L 145.073421 123.373602 
L 145.988701 125.003366 
L 146.899796 127.098776 
L 147.668865 129.42701 
L 148.349482 132.22089 
L 148.862354 135.247594 
L 149.224923 138.739944 
L 149.382973 142.465118 
L 149.321436 146.190292 
L 149.034183 149.915466 
L 148.571224 153.174993 
L 147.921497 156.201697 
L 147.153549 158.762754 
L 146.320659 160.858164 
L 145.358223 162.720751 
L 144.257097 164.350515 
L 143.109382 165.633285 
L 141.946074 166.599362 
L 140.782766 167.289861 
L 139.619458 167.742109 
L 138.45615 167.978092 
L 137.292842 168.008588 
L 136.129534 167.834985 
L 134.966227 167.449312 
L 133.802919 166.833389 
L 132.639611 165.955147 
L 131.476303 164.761806 
L 130.476984 163.419221 
L 129.529109 161.789458 
L 128.589867 159.694047 
L 127.798577 157.365814 
L 127.148627 154.804757 
L 126.59041 151.689734 
L 126.210857 148.285702 
L 126.114293 146.888762 
L 126.114293 146.888762 
" style="fill:none;stroke:#90d743;stroke-width:1.5;"/>
    <path clip-path="url(#p8d9ead6d69)" d="M 209.874786 147.820056 
L 209.717315 144.094882 
L 209.778626 140.369708 
L 210.065674 136.644534 
L 210.528632 133.385007 
L 211.178562 130.358303 
L 211.977206 127.708073 
L 212.907853 125.422632 
L 213.8813 123.606426 
L 215.001807 122.009078 
L 216.165115 120.762152 
L 217.328423 119.840591 
L 218.502997 119.182782 
L 219.655038 118.769065 
L 220.818346 118.564366 
L 221.981654 118.564366 
L 223.144962 118.769065 
L 224.30827 119.187731 
L 225.530571 119.881252 
L 226.688393 120.812545 
L 227.798193 122.009078 
L 228.9187 123.606426 
L 229.802779 125.236189 
L 230.68674 127.331599 
L 231.434668 129.659833 
L 232.096471 132.453713 
L 232.623871 135.713241 
L 232.957087 139.205591 
L 233.086928 142.930765 
L 232.99828 146.655939 
L 232.681464 150.381113 
L 232.186686 153.64064 
L 231.49898 156.667344 
L 230.68674 159.228401 
L 229.802779 161.323811 
L 228.773721 163.186398 
L 227.771517 164.583338 
L 226.634885 165.797848 
L 225.471577 166.719409 
L 224.297003 167.377218 
L 223.144962 167.790935 
L 221.981654 167.995634 
L 220.818346 167.995634 
L 219.655038 167.790935 
L 218.49173 167.372269 
L 217.269429 166.678748 
L 216.111607 165.747455 
L 215.001807 164.550922 
L 213.8813 162.953574 
L 212.997221 161.323811 
L 212.11326 159.228401 
L 211.365332 156.900167 
L 210.703529 154.106287 
L 210.176129 150.846759 
L 209.874786 147.820056 
L 209.874786 147.820056 
" style="fill:none;stroke:#90d743;stroke-width:1.5;"/>
    <path clip-path="url(#p8d9ead6d69)" d="M 293.629792 148.518526 
L 293.429814 144.793352 
L 293.45031 141.068178 
L 293.693478 137.343004 
L 294.148777 133.850654 
L 294.762185 130.82395 
L 295.50271 128.219338 
L 296.433356 125.803301 
L 297.441777 123.839249 
L 298.542903 122.209485 
L 299.690618 120.926715 
L 300.853926 119.960638 
L 302.017234 119.270139 
L 303.180542 118.817891 
L 304.34385 118.581908 
L 305.507158 118.551412 
L 306.670466 118.725015 
L 307.833773 119.110688 
L 308.997081 119.726611 
L 310.160389 120.604853 
L 311.323697 121.798194 
L 312.323016 123.140779 
L 313.270891 124.770542 
L 314.210133 126.865953 
L 315.001423 129.194186 
L 315.651373 131.755243 
L 316.20959 134.870266 
L 316.589143 138.274298 
L 316.774997 141.999471 
L 316.74108 145.724645 
L 316.48349 149.449819 
L 316.051094 152.709346 
L 315.437673 155.73605 
L 314.711157 158.297107 
L 313.824475 160.625341 
L 312.893177 162.487928 
L 311.78902 164.178422 
L 310.625712 165.519556 
L 309.462404 166.515945 
L 308.299097 167.23201 
L 307.135789 167.706883 
L 305.972481 167.96384 
L 304.809173 168.01468 
L 303.56683 167.842865 
L 302.482557 167.497831 
L 301.319249 166.906197 
L 300.069394 165.980278 
L 298.992634 164.897404 
L 297.876832 163.419221 
L 296.928764 161.789458 
L 296.082109 159.926871 
L 295.267774 157.598637 
L 294.548329 154.804757 
L 294.003598 151.778053 
L 293.629792 148.518526 
L 293.629792 148.518526 
" style="fill:none;stroke:#90d743;stroke-width:1.5;"/>
   </g>
   <g id="LineCollection_7">
    <path clip-path="url(#p8d9ead6d69)" d="M 54 135.558031 
L 54.232662 135.57202 
L 54.465323 135.614008 
L 54.697985 135.68406 
L 54.767159 135.713241 
L 54.930646 135.784291 
L 55.163308 135.914518 
L 55.209366 135.946064 
L 55.395969 136.077953 
L 55.516592 136.178887 
L 55.628631 136.275768 
L 55.764666 136.411711 
L 55.861293 136.511643 
L 55.974511 136.644534 
L 56.093954 136.789854 
L 56.158227 136.877357 
L 56.322945 137.110181 
L 56.326616 137.115571 
L 56.466609 137.343004 
L 56.559277 137.499828 
L 56.600248 137.575828 
L 56.720633 137.808651 
L 56.791939 137.952757 
L 56.832304 138.041474 
L 56.933536 138.274298 
L 57.0246 138.494114 
L 57.029588 138.507121 
L 57.114594 138.739944 
L 57.195209 138.972768 
L 57.257262 139.162205 
L 57.270494 139.205591 
L 57.337529 139.438414 
L 57.400528 139.671238 
L 57.459507 139.904061 
L 57.489924 140.032812 
L 57.512934 140.136885 
L 57.560706 140.369708 
L 57.604754 140.602531 
L 57.645089 140.835355 
L 57.681724 141.068178 
L 57.714667 141.301001 
L 57.722585 141.363975 
L 57.742667 141.533825 
L 57.766742 141.766648 
L 57.787365 141.999471 
L 57.804543 142.232295 
L 57.81828 142.465118 
L 57.828579 142.697942 
L 57.835444 142.930765 
L 57.838876 143.163588 
L 57.838876 143.396412 
L 57.835444 143.629235 
L 57.828579 143.862058 
L 57.81828 144.094882 
L 57.804543 144.327705 
L 57.787365 144.560529 
L 57.766742 144.793352 
L 57.742667 145.026175 
L 57.722585 145.196025 
L 57.714667 145.258999 
L 57.681724 145.491822 
L 57.645089 145.724645 
L 57.604754 145.957469 
L 57.560706 146.190292 
L 57.512934 146.423115 
L 57.489924 146.527188 
L 57.459507 146.655939 
L 57.400528 146.888762 
L 57.337529 147.121586 
L 57.270494 147.354409 
L 57.257262 147.397795 
L 57.195209 147.587232 
L 57.114594 147.820056 
L 57.029588 148.052879 
L 57.0246 148.065886 
L 56.933536 148.285702 
L 56.832304 148.518526 
L 56.791939 148.607243 
L 56.720633 148.751349 
L 56.600248 148.984172 
L 56.559277 149.060172 
L 56.466609 149.216996 
L 56.326616 149.444429 
L 56.322945 149.449819 
L 56.158227 149.682643 
L 56.093954 149.770146 
L 55.974511 149.915466 
L 55.861293 150.048357 
L 55.764666 150.148289 
L 55.628631 150.284232 
L 55.516592 150.381113 
L 55.395969 150.482047 
L 55.209366 150.613936 
L 55.163308 150.645482 
L 54.930646 150.775709 
L 54.767159 150.846759 
L 54.697985 150.87594 
L 54.465323 150.945992 
L 54.232662 150.98798 
L 54 151.001969 
" style="fill:none;stroke:#fde725;stroke-width:1.5;"/>
    <path clip-path="url(#p8d9ead6d69)" d="M 388.8 151.001969 
L 388.567338 150.98798 
L 388.334677 150.945992 
L 388.102015 150.87594 
L 388.032841 150.846759 
L 387.869354 150.775709 
L 387.636692 150.645482 
L 387.590634 150.613936 
L 387.404031 150.482047 
L 387.283408 150.381113 
L 387.171369 150.284232 
L 387.035334 150.148289 
L 386.938707 150.048357 
L 386.825489 149.915466 
L 386.706046 149.770146 
L 386.641773 149.682643 
L 386.477055 149.449819 
L 386.473384 149.444429 
L 386.333391 149.216996 
L 386.240723 149.060172 
L 386.199752 148.984172 
L 386.079367 148.751349 
L 386.008061 148.607243 
L 385.967696 148.518526 
L 385.866464 148.285702 
L 385.7754 148.065886 
L 385.770412 148.052879 
L 385.685406 147.820056 
L 385.604791 147.587232 
L 385.542738 147.397795 
L 385.529506 147.354409 
L 385.462471 147.121586 
L 385.399472 146.888762 
L 385.340493 146.655939 
L 385.310076 146.527188 
L 385.287066 146.423115 
L 385.239294 146.190292 
L 385.195246 145.957469 
L 385.154911 145.724645 
L 385.118276 145.491822 
L 385.085333 145.258999 
L 385.077415 145.196025 
L 385.057333 145.026175 
L 385.033258 144.793352 
L 385.012635 144.560529 
L 384.995457 144.327705 
L 384.98172 144.094882 
L 384.971421 143.862058 
L 384.964556 143.629235 
L 384.961124 143.396412 
L 384.961124 143.163588 
L 384.964556 142.930765 
L 384.971421 142.697942 
L 384.98172 142.465118 
L 384.995457 142.232295 
L 385.012635 141.999471 
L 385.033258 141.766648 
L 385.057333 141.533825 
L 385.077415 141.363975 
L 385.085333 141.301001 
L 385.118276 141.068178 
L 385.154911 140.835355 
L 385.195246 140.602531 
L 385.239294 140.369708 
L 385.287066 140.136885 
L 385.310076 140.032812 
L 385.340493 139.904061 
L 385.399472 139.671238 
L 385.462471 139.438414 
L 385.529506 139.205591 
L 385.542738 139.162205 
L 385.604791 138.972768 
L 385.685406 138.739944 
L 385.770412 138.507121 
L 385.7754 138.494114 
L 385.866464 138.274298 
L 385.967696 138.041474 
L 386.008061 137.952757 
L 386.079367 137.808651 
L 386.199752 137.575828 
L 386.240723 137.499828 
L 386.333391 137.343004 
L 386.473384 137.115571 
L 386.477055 137.110181 
L 386.641773 136.877357 
L 386.706046 136.789854 
L 386.825489 136.644534 
L 386.938707 136.511643 
L 387.035334 136.411711 
L 387.171369 136.275768 
L 387.283408 136.178887 
L 387.404031 136.077953 
L 387.590634 135.946064 
L 387.636692 135.914518 
L 387.869354 135.784291 
L 388.032841 135.713241 
L 388.102015 135.68406 
L 388.334677 135.614008 
L 388.567338 135.57202 
L 388.8 135.558031 
" style="fill:none;stroke:#fde725;stroke-width:1.5;"/>
    <path clip-path="url(#p8d9ead6d69)" d="M 134.017744 145.491822 
L 133.864174 143.629235 
L 133.933904 141.766648 
L 134.240427 139.904061 
L 134.671936 138.507121 
L 135.23212 137.343004 
L 135.933662 136.411711 
L 136.594858 135.879218 
L 137.292842 135.600883 
L 137.990827 135.57989 
L 138.688812 135.814108 
L 139.386796 136.330959 
L 140.084781 137.206622 
L 140.633611 138.274298 
L 141.100565 139.671238 
L 141.413441 141.301001 
L 141.5393 143.163588 
L 141.442248 145.026175 
L 141.100565 146.888762 
L 140.633611 148.285702 
L 140.020824 149.449819 
L 139.386796 150.229041 
L 138.688812 150.745892 
L 137.990827 150.98011 
L 137.292842 150.959117 
L 136.594858 150.680782 
L 135.896873 150.111525 
L 135.198888 149.162127 
L 134.585357 147.820056 
L 134.188095 146.423115 
L 134.017744 145.491822 
L 134.017744 145.491822 
" style="fill:none;stroke:#fde725;stroke-width:1.5;"/>
    <path clip-path="url(#p8d9ead6d69)" d="M 217.559459 143.396412 
L 217.658493 141.533825 
L 217.941395 139.904061 
L 218.372422 138.507121 
L 218.957054 137.300045 
L 219.655038 136.38814 
L 220.353023 135.84575 
L 221.051008 135.589511 
L 221.748992 135.589511 
L 222.446977 135.84575 
L 223.167058 136.411711 
L 223.868161 137.343004 
L 224.427578 138.507121 
L 224.858605 139.904061 
L 225.141507 141.533825 
L 225.240541 143.396412 
L 225.113138 145.258999 
L 224.773593 146.995629 
L 224.231571 148.518526 
L 223.558561 149.682643 
L 222.9123 150.388439 
L 222.168989 150.846759 
L 221.516331 150.998472 
L 220.818346 150.91448 
L 220.120361 150.568034 
L 219.422108 149.915466 
L 218.724392 148.843355 
L 218.204653 147.587232 
L 217.793426 145.957469 
L 217.580582 144.094882 
L 217.559459 143.396412 
L 217.559459 143.396412 
" style="fill:none;stroke:#fde725;stroke-width:1.5;"/>
    <path clip-path="url(#p8d9ead6d69)" d="M 301.311464 144.560529 
L 301.270848 142.697942 
L 301.45506 140.835355 
L 301.830354 139.205591 
L 302.3797 137.808651 
L 302.94788 136.865937 
L 303.645865 136.123802 
L 304.34385 135.705969 
L 305.041835 135.558905 
L 305.739819 135.663911 
L 306.437804 136.034009 
L 307.135789 136.71594 
L 307.822257 137.808651 
L 308.299097 138.979791 
L 308.705193 140.602531 
L 308.904463 142.232295 
L 308.918405 144.094882 
L 308.705193 145.957469 
L 308.296751 147.587232 
L 307.699232 148.984172 
L 307.075291 149.915466 
L 306.437804 150.525991 
L 305.739819 150.896089 
L 305.041835 151.001095 
L 304.327764 150.846759 
L 303.582492 150.381113 
L 302.939711 149.682643 
L 302.266989 148.518526 
L 301.830354 147.354409 
L 301.494771 145.957469 
L 301.311464 144.560529 
L 301.311464 144.560529 
" style="fill:none;stroke:#fde725;stroke-width:1.5;"/>
   </g>
   <g id="line2d_1">
    <path clip-path="url(#p8d9ead6d69)" d="M 54 195.36 
L 388.8 195.36 
" style="fill:none;stroke:#ff0000;stroke-linecap:square;stroke-width:1.5;"/>
   </g>
   <g id="line2d_2">
    <path clip-path="url(#p8d9ead6d69)" d="M 54 91.2 
L 388.8 91.2 
" style="fill:none;stroke:#ff0000;stroke-linecap:square;stroke-width:1.5;"/>
   </g>
   <g id="patch_3">
    <path d="M 54 252 
L 54 34.56 
" style="fill:none;stroke:#000000;stroke-linecap:square;stroke-linejoin:miter;stroke-width:0.8;"/>
   </g>
   <g id="patch_4">
    <path d="M 388.8 252 
L 388.8 34.56 
" style="fill:none;stroke:#000000;stroke-linecap:square;stroke-linejoin:miter;stroke-width:0.8;"/>
   </g>
   <g id="patch_5">
    <path d="M 54 252 
L 388.8 252 
" style="fill:none;stroke:#000000;stroke-linecap:square;stroke-linejoin:miter;stroke-width:0.8;"/>
   </g>
   <g id="patch_6">
    <path d="M 54 34.56 
L 388.8 34.56 
" style="fill:none;stroke:#000000;stroke-linecap:square;stroke-linejoin:miter;stroke-width:0.8;"/>
   </g>
  </g>
 </g>
 <defs>
  <clipPath id="p8d9ead6d69">
   <rect height="217.44" width="334.8" x="54" y="34.56"/>
  </clipPath>
 </defs>
</svg>
