<?xml version="1.0" encoding="utf-8" standalone="no"?>
<!DOCTYPE svg PUBLIC "-//W3C//DTD SVG 1.1//EN"
  "http://www.w3.org/Graphics/SVG/1.1/DTD/svg11.dtd">
<!-- Created with matplotlib (http://matplotlib.org/) -->
<svg height="288pt" version="1.1" viewBox="0 0 432 288" width="432pt" xmlns="http://www.w3.org/2000/svg" xmlns:xlink="http://www.w3.org/1999/xlink">
 <defs>
  <style type="text/css">
*{stroke-linecap:butt;stroke-linejoin:round;}
  </style>
 </defs>
 <g id="figure_1">
  <g id="patch_1">
   <path d="M 0 288 
L 432 288 
L 432 0 
L 0 0 
z
" style="fill:#ffffff;"/>
  </g>
  <g id="axes_1">
   <g id="patch_2">
    <path d="M 54 252 
L 388.8 252 
L 388.8 34.56 
L 54 34.56 
z
" style="fill:#ffffff;"/>
   </g>
   <g id="matplotlib.axis_1"/>
   <g id="matplotlib.axis_2"/>
   <g id="LineCollection_1">
    <path clip-path="url(#p90e0b521d2)" d="M 99.819693 144.793352 
L 100.066991 146.950016 
L 100.532314 148.984673 
L 101.143948 150.613936 
L 101.805161 151.778053 
L 102.393607 152.489442 
L 103.091591 153.03079 
L 103.789576 153.303304 
L 104.487561 153.331353 
L 105.185546 153.117253 
L 105.88353 152.6419 
L 106.63562 151.778053 
L 107.297439 150.613936 
L 107.906341 148.984172 
L 108.342104 147.121586 
L 108.603106 145.026175 
L 108.661912 142.697942 
L 108.485015 140.369708 
L 108.096181 138.274298 
L 107.591192 136.644534 
L 107.046838 135.447879 
L 106.273386 134.3163 
L 105.650869 133.728537 
L 104.952884 133.343664 
L 104.254899 133.211294 
L 103.556915 133.319558 
L 102.85893 133.677783 
L 102.160945 134.319581 
L 101.46296 135.322786 
L 100.848859 136.644534 
L 100.343168 138.274298 
L 99.986877 140.136885 
L 99.78562 142.465118 
L 99.819693 144.793352 
L 99.819693 144.793352 
" style="fill:none;stroke:#440154;stroke-width:1.5;"/>
    <path clip-path="url(#p90e0b521d2)" d="M 166.835633 145.491822 
L 167.146341 147.587232 
L 167.64167 149.449819 
L 168.236831 150.890777 
L 168.934816 152.013014 
L 169.632801 152.741054 
L 170.34245 153.174993 
L 171.02877 153.343367 
L 171.726755 153.275231 
L 172.451413 152.94217 
L 173.122724 152.369052 
L 173.820709 151.434746 
L 174.459512 150.148289 
L 174.984017 148.57188 
L 175.379066 146.655939 
L 175.593193 144.560529 
L 175.604833 142.232295 
L 175.379066 139.904061 
L 174.933967 137.808651 
L 174.361137 136.178887 
L 173.750238 135.014771 
L 173.01588 134.083477 
L 172.424739 133.599363 
L 171.726755 133.284769 
L 171.02877 133.216633 
L 170.330785 133.38933 
L 169.596327 133.850654 
L 168.933225 134.549124 
L 168.215149 135.713241 
L 167.64167 137.110181 
L 167.195606 138.739944 
L 166.859586 140.835355 
L 166.734601 142.930765 
L 166.814928 145.258999 
L 166.835633 145.491822 
L 166.835633 145.491822 
" style="fill:none;stroke:#440154;stroke-width:1.5;"/>
    <path clip-path="url(#p90e0b521d2)" d="M 233.845378 145.957469 
L 234.207964 148.052879 
L 234.682667 149.682643 
L 235.296969 151.079583 
L 235.941348 152.071839 
L 236.639333 152.778093 
L 237.337318 153.189799 
L 238.035302 153.346303 
L 238.733287 153.262122 
L 239.431272 152.930365 
L 240.193636 152.2437 
L 240.853155 151.312406 
L 241.525226 149.882689 
L 242.072167 148.052879 
L 242.434168 145.957469 
L 242.580801 143.862058 
L 242.52316 141.533825 
L 242.262758 139.438414 
L 241.826376 137.575828 
L 241.292564 136.110544 
L 240.556061 134.781947 
L 239.896595 134.003397 
L 239.19861 133.49048 
L 238.500625 133.243069 
L 237.802641 133.239062 
L 237.104656 133.478129 
L 236.406671 133.981619 
L 235.708687 134.801957 
L 235.010702 136.058705 
L 234.453843 137.575828 
L 234.017587 139.438414 
L 233.757027 141.533825 
L 233.699099 143.862058 
L 233.845378 145.957469 
L 233.845378 145.957469 
" style="fill:none;stroke:#440154;stroke-width:1.5;"/>
    <path clip-path="url(#p90e0b521d2)" d="M 300.834552 146.190292 
L 301.167832 148.052879 
L 301.728487 149.915466 
L 302.25554 151.079583 
L 302.94788 152.129345 
L 303.645865 152.813964 
L 304.34385 153.207761 
L 305.041835 153.348172 
L 305.739819 153.247938 
L 306.437804 152.898555 
L 307.155243 152.2437 
L 307.833773 151.278137 
L 308.471439 149.915466 
L 308.977329 148.285702 
L 309.332994 146.423115 
L 309.52498 144.327705 
L 309.513569 141.999471 
L 309.299079 139.904061 
L 308.916868 138.041474 
L 308.379226 136.411711 
L 307.813337 135.247594 
L 307.135789 134.293161 
L 306.369151 133.61783 
L 305.739819 133.312062 
L 305.041835 133.211828 
L 304.268016 133.385007 
L 303.645865 133.746036 
L 302.94788 134.430655 
L 302.249896 135.490628 
L 301.642639 136.877357 
L 301.167832 138.507121 
L 300.834552 140.369708 
L 300.658545 142.697942 
L 300.717056 145.026175 
L 300.834552 146.190292 
L 300.834552 146.190292 
" style="fill:none;stroke:#440154;stroke-width:1.5;"/>
    <path clip-path="url(#p90e0b521d2)" d="M 367.624745 144.094882 
L 367.795304 146.190292 
L 368.183739 148.285702 
L 368.68898 149.915466 
L 369.348213 151.312406 
L 370.006009 152.2437 
L 370.791534 152.94217 
L 371.350382 153.224641 
L 372.048367 153.348972 
L 372.746352 153.232676 
L 373.444336 152.865589 
L 374.142321 152.213141 
L 374.840306 151.195905 
L 375.431002 149.915466 
L 375.936477 148.285702 
L 376.293369 146.423115 
L 376.494764 144.094882 
L 376.460443 141.766648 
L 376.223102 139.671238 
L 375.747191 137.575828 
L 375.136353 135.946064 
L 374.474886 134.781947 
L 373.898856 134.083477 
L 373.211675 133.542679 
L 372.51369 133.261774 
L 371.815705 133.22571 
L 371.117721 133.431509 
L 370.419736 133.897532 
L 369.721751 134.671465 
L 369.023767 135.858337 
L 368.44553 137.343004 
L 367.980704 139.205591 
L 367.695559 141.301001 
L 367.613509 143.629235 
L 367.624745 144.094882 
L 367.624745 144.094882 
" style="fill:none;stroke:#440154;stroke-width:1.5;"/>
   </g>
   <g id="LineCollection_2">
    <path clip-path="url(#p90e0b521d2)" d="M 94.480167 144.793352 
L 94.666078 148.518526 
L 95.04801 152.010876 
L 95.630594 155.270403 
L 96.295933 157.83146 
L 97.042391 159.954324 
L 97.973037 161.927045 
L 98.916515 163.419221 
L 99.90015 164.583338 
L 100.997637 165.521804 
L 102.160945 166.175275 
L 103.324253 166.526777 
L 104.487561 166.600278 
L 105.650869 166.400579 
L 106.688431 165.980278 
L 107.512161 165.472048 
L 108.539615 164.583338 
L 109.522652 163.419221 
L 110.413316 162.022281 
L 111.234746 160.344802 
L 112.071861 158.064284 
L 112.757041 155.503227 
L 113.3287 152.445851 
L 113.735383 148.984172 
L 113.947631 145.258999 
L 113.947631 141.301001 
L 113.735383 137.575828 
L 113.324055 134.083477 
L 112.757041 131.056773 
L 112.071861 128.495716 
L 111.234746 126.215198 
L 110.3041 124.343884 
L 109.348638 122.907955 
L 108.30168 121.743839 
L 107.2795 120.927073 
L 106.116192 120.318104 
L 104.952884 120.006499 
L 103.789576 119.97113 
L 102.626268 120.209714 
L 101.695622 120.607793 
L 100.677441 121.278192 
L 99.678775 122.209485 
L 98.751322 123.373602 
L 97.89902 124.770542 
L 97.031385 126.633129 
L 96.226314 128.961363 
L 95.58054 131.52242 
L 95.04801 134.549124 
L 94.666078 138.041474 
L 94.480167 141.766648 
L 94.480167 144.793352 
L 94.480167 144.793352 
" style="fill:none;stroke:#443983;stroke-width:1.5;"/>
    <path clip-path="url(#p90e0b521d2)" d="M 161.485116 146.190292 
L 161.752421 149.915466 
L 162.227067 153.407816 
L 162.885615 156.510675 
L 163.639029 158.995577 
L 164.514246 161.112862 
L 165.444892 162.789096 
L 166.431181 164.117691 
L 167.355418 165.048985 
L 168.469493 165.848953 
L 169.632801 166.365228 
L 170.796108 166.592674 
L 171.959416 166.546416 
L 173.122724 166.223469 
L 174.060314 165.747455 
L 175.005155 165.048985 
L 175.929472 164.117691 
L 176.957739 162.720751 
L 177.855511 161.090987 
L 178.706602 159.037291 
L 179.433497 156.667344 
L 180.050033 153.873463 
L 180.531581 150.613936 
L 180.82855 147.121586 
L 180.93583 143.163588 
L 180.815028 139.205591 
L 180.475744 135.480417 
L 179.96183 132.22089 
L 179.307285 129.42701 
L 178.550131 127.098776 
L 177.742066 125.236189 
L 176.807225 123.606426 
L 175.914663 122.424849 
L 174.984017 121.492297 
L 173.820709 120.671377 
L 172.657401 120.173219 
L 171.494093 119.962437 
L 170.330785 120.025037 
L 169.213777 120.346898 
L 168.301258 120.812545 
L 167.355418 121.511015 
L 166.431181 122.442309 
L 165.553261 123.606426 
L 164.735729 125.003366 
L 163.899455 126.865953 
L 163.186198 128.961363 
L 162.540654 131.52242 
L 162.007861 134.549124 
L 161.626231 138.041474 
L 161.440468 141.766648 
L 161.467067 145.724645 
L 161.485116 146.190292 
L 161.485116 146.190292 
" style="fill:none;stroke:#443983;stroke-width:1.5;"/>
    <path clip-path="url(#p90e0b521d2)" d="M 228.491281 147.121586 
L 228.815933 150.846759 
L 229.313498 154.106287 
L 229.948696 156.900167 
L 230.683211 159.228401 
L 231.578154 161.323811 
L 232.513027 162.953574 
L 233.390396 164.117691 
L 234.314334 165.048985 
L 235.476025 165.875527 
L 236.639333 166.379711 
L 237.802641 166.596042 
L 238.965949 166.538891 
L 240.129256 166.204557 
L 241.059903 165.722953 
L 241.990549 165.027342 
L 243.083779 163.884868 
L 243.917936 162.720751 
L 244.81587 161.090987 
L 245.681158 158.995577 
L 246.393596 156.667344 
L 246.966532 154.106287 
L 247.464036 150.846759 
L 247.774904 147.354409 
L 247.895066 143.629235 
L 247.801491 139.671238 
L 247.491375 135.946064 
L 247.009872 132.686537 
L 246.393596 129.892656 
L 245.59676 127.331599 
L 244.701699 125.236189 
L 243.766811 123.606426 
L 242.889155 122.442309 
L 241.965051 121.511015 
L 240.827241 120.697696 
L 239.663933 120.187474 
L 238.500625 119.965588 
L 237.337318 120.017292 
L 236.17401 120.345922 
L 235.243363 120.822505 
L 234.312717 121.512379 
L 233.382071 122.45177 
L 232.362204 123.839249 
L 231.464344 125.469013 
L 230.598593 127.564423 
L 229.892147 129.870228 
L 229.270071 132.686537 
L 228.788544 135.946064 
L 228.491281 139.438414 
L 228.384181 143.396412 
L 228.491281 147.121586 
L 228.491281 147.121586 
" style="fill:none;stroke:#443983;stroke-width:1.5;"/>
    <path clip-path="url(#p90e0b521d2)" d="M 295.49469 147.820056 
L 295.83361 151.312406 
L 296.364166 154.571933 
L 297.038497 157.365814 
L 297.829326 159.720992 
L 298.778481 161.789458 
L 299.797432 163.419221 
L 300.780227 164.583338 
L 301.784573 165.455182 
L 302.715219 166.024304 
L 303.878527 166.45705 
L 305.041835 166.607118 
L 306.205142 166.484457 
L 307.135789 166.185154 
L 308.066435 165.693474 
L 309.182156 164.816161 
L 310.04358 163.884868 
L 310.87846 162.720751 
L 311.78902 161.064346 
L 312.640846 158.995577 
L 313.353257 156.667344 
L 313.969899 153.873463 
L 314.45134 150.613936 
L 314.76119 146.888762 
L 314.855239 142.930765 
L 314.720203 138.972768 
L 314.366758 135.247594 
L 313.835943 131.988067 
L 313.161906 129.194186 
L 312.380488 126.865953 
L 311.544256 125.003366 
L 310.568864 123.373602 
L 309.641472 122.209485 
L 308.64245 121.278192 
L 307.601112 120.595453 
L 306.437804 120.133186 
L 305.274496 119.955596 
L 304.111188 120.050922 
L 303.133789 120.346898 
L 302.220433 120.812545 
L 301.275322 121.511015 
L 300.350932 122.442309 
L 299.457957 123.627954 
L 298.527311 125.256724 
L 297.642969 127.331599 
L 296.972645 129.42701 
L 296.364166 131.988067 
L 295.83361 135.247594 
L 295.49469 138.739944 
L 295.346473 142.697942 
L 295.426946 146.655939 
L 295.49469 147.820056 
L 295.49469 147.820056 
" style="fill:none;stroke:#443983;stroke-width:1.5;"/>
    <path clip-path="url(#p90e0b521d2)" d="M 362.505769 148.518526 
L 362.887984 152.010876 
L 363.439889 155.12964 
L 364.137874 157.839278 
L 364.967649 160.159694 
L 365.866669 162.022281 
L 366.757168 163.419221 
L 367.740426 164.583338 
L 368.791105 165.488776 
L 369.721751 166.047331 
L 370.885059 166.468348 
L 372.048367 166.607444 
L 373.211675 166.47383 
L 374.142321 166.165276 
L 375.072967 165.663466 
L 376.141662 164.816161 
L 377.003787 163.884868 
L 377.982172 162.487928 
L 378.845464 160.858164 
L 379.682464 158.762754 
L 380.373519 156.43452 
L 380.971962 153.64064 
L 381.437677 150.381113 
L 381.733022 146.655939 
L 381.813908 142.697942 
L 381.664931 138.739944 
L 381.296116 135.014771 
L 380.748289 131.755243 
L 380.05371 128.961363 
L 379.248598 126.633129 
L 378.330229 124.675439 
L 377.363109 123.140779 
L 376.379652 121.976662 
L 375.305629 121.054634 
L 374.374983 120.501339 
L 373.211675 120.08617 
L 372.048367 119.952556 
L 370.885059 120.091652 
L 369.954413 120.404843 
L 368.828547 121.045369 
L 367.978392 121.743839 
L 367.115961 122.675132 
L 366.137789 124.072072 
L 365.274308 125.701836 
L 364.43769 127.797246 
L 363.7466 130.12548 
L 363.147948 132.91936 
L 362.682241 136.178887 
L 362.387007 139.904061 
L 362.306259 143.862058 
L 362.454982 147.820056 
L 362.505769 148.518526 
L 362.505769 148.518526 
" style="fill:none;stroke:#443983;stroke-width:1.5;"/>
   </g>
   <g id="LineCollection_3">
    <path clip-path="url(#p90e0b521d2)" d="M 90.992609 151.545229 
L 91.375039 156.667344 
L 91.924348 161.090987 
L 92.619036 164.816161 
L 93.346385 167.610042 
L 94.250452 170.187385 
L 95.223839 172.266509 
L 96.218483 173.896273 
L 97.323874 175.293213 
L 98.542094 176.45733 
L 99.601668 177.2217 
L 100.997637 177.939935 
L 102.393607 178.379672 
L 103.789576 178.570807 
L 105.185546 178.525777 
L 106.581515 178.241686 
L 107.977484 177.699848 
L 109.286588 176.922976 
L 110.428766 175.991683 
L 111.518381 174.827566 
L 112.630716 173.276465 
L 113.573982 171.568039 
L 114.492008 169.409261 
L 115.296091 166.911572 
L 116.019526 163.884868 
L 116.619334 160.392517 
L 117.109628 156.201697 
L 117.471362 151.079583 
L 117.648349 145.258999 
L 117.609847 139.205591 
L 117.349844 133.385007 
L 116.917239 128.495716 
L 116.325627 124.304896 
L 115.601833 120.812545 
L 114.797467 118.018665 
L 113.898727 115.690431 
L 112.956883 113.827844 
L 111.885117 112.198081 
L 110.769423 110.899166 
L 109.605089 109.869847 
L 108.442808 109.103931 
L 107.046838 108.469065 
L 105.650869 108.101688 
L 104.254899 107.978083 
L 102.85893 108.089858 
L 101.46296 108.444543 
L 100.066991 109.065175 
L 98.835837 109.869847 
L 97.740375 110.829022 
L 96.55466 112.198081 
L 95.483045 113.827844 
L 94.646259 115.457608 
L 93.785129 117.601966 
L 93.017019 120.114075 
L 92.327819 123.140779 
L 91.723834 126.865953 
L 91.247464 131.289597 
L 90.925167 136.411711 
L 90.783038 142.232295 
L 90.856127 148.285702 
L 90.992609 151.545229 
L 90.992609 151.545229 
" style="fill:none;stroke:#31688e;stroke-width:1.5;"/>
    <path clip-path="url(#p90e0b521d2)" d="M 157.765218 146.190292 
L 157.978401 152.010876 
L 158.381912 157.13299 
L 158.930368 161.38561 
L 159.57924 164.816161 
L 160.326338 167.676501 
L 161.204153 170.171099 
L 162.060936 172.033686 
L 163.118277 173.809949 
L 164.28334 175.293213 
L 165.501827 176.45733 
L 166.6082 177.250649 
L 168.00417 177.958871 
L 169.400139 178.389957 
L 170.796108 178.573096 
L 172.192078 178.52023 
L 173.588047 178.227942 
L 174.984017 177.676935 
L 176.246537 176.922976 
L 177.388866 175.991683 
L 178.478847 174.827566 
L 179.492301 173.430626 
L 180.418248 171.800862 
L 181.339841 169.705452 
L 182.122736 167.377218 
L 182.832226 164.583338 
L 183.439161 161.323811 
L 183.953763 157.365814 
L 184.354118 152.476523 
L 184.580807 146.888762 
L 184.602151 140.835355 
L 184.407176 135.014771 
L 184.025065 129.892656 
L 183.475373 125.469013 
L 182.832226 121.976662 
L 182.053406 118.949958 
L 181.249394 116.621725 
L 180.299322 114.526314 
L 179.340029 112.896551 
L 178.241279 111.451814 
L 177.077971 110.287407 
L 175.901698 109.4042 
L 174.518694 108.668805 
L 173.122724 108.207264 
L 171.726755 107.996062 
L 170.330785 108.021513 
L 168.934816 108.28522 
L 167.538846 108.804365 
L 166.375539 109.457687 
L 165.212231 110.34852 
L 164.048923 111.532583 
L 163.020083 112.896551 
L 162.060936 114.526314 
L 161.204153 116.388901 
L 160.377607 118.717135 
L 159.631796 121.511015 
L 159.034774 124.537719 
L 158.482586 128.495716 
L 158.065793 133.152184 
L 157.809034 138.507121 
L 157.744664 144.560529 
L 157.765218 146.190292 
L 157.765218 146.190292 
" style="fill:none;stroke:#31688e;stroke-width:1.5;"/>
    <path clip-path="url(#p90e0b521d2)" d="M 224.768925 148.052879 
L 225.041808 153.64064 
L 225.496755 158.52993 
L 226.075233 162.487928 
L 226.758265 165.747455 
L 227.565532 168.551345 
L 228.496178 170.948867 
L 229.426824 172.774254 
L 230.475134 174.361919 
L 231.520778 175.589379 
L 232.755871 176.690153 
L 233.847394 177.416485 
L 235.243363 178.065888 
L 236.639333 178.445872 
L 238.035302 178.581329 
L 239.431272 178.481365 
L 240.827241 178.139297 
L 242.223211 177.532764 
L 243.523999 176.690153 
L 244.590985 175.75886 
L 245.713134 174.483403 
L 246.740428 172.964979 
L 247.713677 171.102392 
L 248.557318 169.006982 
L 249.342936 166.445925 
L 250.032115 163.419221 
L 250.636155 159.694047 
L 251.112465 155.270403 
L 251.434801 150.148289 
L 251.576905 144.327705 
L 251.503993 138.274298 
L 251.221574 132.686537 
L 250.75507 127.797246 
L 250.163263 123.839249 
L 249.463798 120.579722 
L 248.71769 118.018665 
L 247.807088 115.663159 
L 246.876442 113.826087 
L 245.804899 112.198081 
L 244.782488 110.994735 
L 243.523999 109.869847 
L 242.455872 109.156895 
L 241.059903 108.502604 
L 239.663933 108.118411 
L 238.267964 107.978997 
L 236.871994 108.075029 
L 235.476025 108.412907 
L 234.080056 109.01477 
L 232.755871 109.869847 
L 231.689215 110.80114 
L 230.590132 112.046502 
L 229.53959 113.595021 
L 228.566264 115.457608 
L 227.722759 117.553018 
L 226.937021 120.114075 
L 226.247858 123.140779 
L 225.643907 126.865953 
L 225.167581 131.289597 
L 224.845175 136.411711 
L 224.703135 142.232295 
L 224.768925 148.052879 
L 224.768925 148.052879 
" style="fill:none;stroke:#31688e;stroke-width:1.5;"/>
    <path clip-path="url(#p90e0b521d2)" d="M 291.776362 149.449819 
L 292.08926 154.804757 
L 292.573158 159.461224 
L 293.207727 163.419221 
L 293.959676 166.678748 
L 294.804726 169.346265 
L 295.746003 171.568039 
L 296.787738 173.430626 
L 297.829326 174.861821 
L 298.992634 176.0864 
L 300.155942 177.008882 
L 301.551911 177.798747 
L 302.94788 178.299963 
L 304.412393 178.55274 
L 305.789205 178.55274 
L 307.17346 178.319917 
L 308.531758 177.850771 
L 309.82065 177.1558 
L 310.858374 176.391603 
L 312.021682 175.265633 
L 313.18499 173.775823 
L 314.219068 172.033686 
L 315.075967 170.171099 
L 315.90232 167.842865 
L 316.648085 165.048985 
L 317.284092 161.789458 
L 317.823546 157.83146 
L 318.229828 153.174993 
L 318.483927 147.587232 
L 318.531146 141.533825 
L 318.362797 135.713241 
L 317.989587 130.358303 
L 317.465399 125.934659 
L 316.802453 122.209485 
L 316.04276 119.182782 
L 315.169058 116.621725 
L 314.219068 114.526314 
L 313.18499 112.784177 
L 312.021682 111.294367 
L 310.777996 110.10267 
L 309.695066 109.323776 
L 308.299097 108.610557 
L 306.903127 108.175151 
L 305.507158 107.988016 
L 304.111188 108.036963 
L 302.715219 108.32515 
L 301.319249 108.871565 
L 300.033487 109.637024 
L 298.891223 110.568317 
L 297.801416 111.732434 
L 296.787738 113.129374 
L 295.861793 114.759138 
L 294.940208 116.854548 
L 294.106741 119.35523 
L 293.397285 122.209485 
L 292.769147 125.701836 
L 292.254855 129.892656 
L 291.88548 134.781947 
L 291.685408 140.369708 
L 291.689679 146.423115 
L 291.776362 149.449819 
L 291.776362 149.449819 
" style="fill:none;stroke:#31688e;stroke-width:1.5;"/>
    <path clip-path="url(#p90e0b521d2)" d="M 358.785976 150.613936 
L 359.148935 155.968873 
L 359.660733 160.392517 
L 360.308437 164.117691 
L 361.049686 167.144395 
L 361.900197 169.705452 
L 362.821746 171.800862 
L 363.74766 173.430626 
L 364.835858 174.917708 
L 365.999166 176.128612 
L 367.162474 177.040437 
L 368.325782 177.711175 
L 369.721751 178.248449 
L 371.117721 178.528451 
L 372.51369 178.569564 
L 373.909659 178.374424 
L 375.305629 177.930348 
L 376.468937 177.348928 
L 377.737904 176.45733 
L 378.795552 175.467644 
L 379.95886 174.043462 
L 380.92887 172.499332 
L 381.84099 170.636745 
L 382.714542 168.308512 
L 383.448784 165.720223 
L 384.124951 162.487928 
L 384.675097 158.762754 
L 385.124632 154.106287 
L 385.40878 148.751349 
L 385.499189 142.697942 
L 385.364778 136.644534 
L 385.032469 131.289597 
L 384.524514 126.633129 
L 383.906635 122.907955 
L 383.136123 119.648428 
L 382.285476 117.026139 
L 381.35483 114.871335 
L 380.372457 113.129374 
L 379.260876 111.614608 
L 378.097568 110.410478 
L 376.78078 109.4042 
L 375.53829 108.729792 
L 374.134803 108.240083 
L 372.746352 108.006476 
L 371.350382 108.008432 
L 369.954413 108.247873 
L 368.558443 108.740197 
L 367.338998 109.4042 
L 366.108085 110.335494 
L 365.06852 111.372359 
L 364.058418 112.663727 
L 363.064034 114.293491 
L 362.180372 116.156078 
L 361.330416 118.484312 
L 360.566129 121.278192 
L 359.914633 124.537719 
L 359.362767 128.495716 
L 358.945802 133.152184 
L 358.689111 138.507121 
L 358.624769 144.560529 
L 358.785976 150.613936 
L 358.785976 150.613936 
" style="fill:none;stroke:#31688e;stroke-width:1.5;"/>
   </g>
   <g id="LineCollection_4">
    <path clip-path="url(#p90e0b521d2)" d="M 54 226.747177 
L 54 59.812823 
L 54.232662 59.58 
L 87.270605 59.58 
L 87.479999 59.812823 
L 87.479999 226.747177 
L 87.270605 226.98 
L 54.232662 226.98 
L 54 226.747177 
L 54 226.747177 
" style="fill:none;stroke:#21918c;stroke-width:1.5;"/>
    <path clip-path="url(#p90e0b521d2)" d="M 120.959998 226.747177 
L 121.006532 59.58 
L 154.277137 59.58 
L 154.439998 59.812823 
L 154.439998 226.747177 
L 154.277137 226.98 
L 121.006532 226.98 
L 120.959998 226.747177 
L 120.959998 226.747177 
" style="fill:none;stroke:#21918c;stroke-width:1.5;"/>
    <path clip-path="url(#p90e0b521d2)" d="M 187.919999 226.747177 
L 188.013065 59.58 
L 221.283669 59.58 
L 221.4 60.045647 
L 221.4 226.747177 
L 221.283669 226.98 
L 188.013065 226.98 
L 187.919999 226.747177 
L 187.919999 226.747177 
" style="fill:none;stroke:#21918c;stroke-width:1.5;"/>
    <path clip-path="url(#p90e0b521d2)" d="M 254.880001 226.747177 
L 254.880001 59.812823 
L 255.019597 59.58 
L 288.290202 59.58 
L 288.360002 60.045647 
L 288.290202 226.98 
L 255.019597 226.98 
L 254.880001 226.747177 
L 254.880001 226.747177 
" style="fill:none;stroke:#21918c;stroke-width:1.5;"/>
    <path clip-path="url(#p90e0b521d2)" d="M 321.840002 226.747177 
L 321.840002 59.812823 
L 322.026129 59.58 
L 355.296734 59.58 
L 355.320001 60.744117 
L 355.296734 226.98 
L 322.026129 226.98 
L 321.840002 226.747177 
L 321.840002 226.747177 
" style="fill:none;stroke:#21918c;stroke-width:1.5;"/>
   </g>
   <g id="LineCollection_5">
    <path clip-path="url(#p90e0b521d2)" d="M 57.488506 151.079583 
L 57.311598 145.258999 
L 57.350155 139.205591 
L 57.6102 133.385007 
L 58.042753 128.495716 
L 58.634335 124.304896 
L 59.301417 121.045369 
L 60.085458 118.251488 
L 60.979847 115.874687 
L 62.003117 113.827844 
L 63.074416 112.198081 
L 64.289122 110.80114 
L 65.400417 109.835185 
L 66.563725 109.078002 
L 67.959694 108.452641 
L 69.355664 108.093734 
L 70.751633 107.978018 
L 72.147603 108.097677 
L 73.57647 108.472907 
L 74.939541 109.090921 
L 76.12472 109.869847 
L 77.266157 110.87564 
L 78.429465 112.229791 
L 79.476859 113.827844 
L 80.418726 115.690431 
L 81.238685 117.785841 
L 82.004032 120.346898 
L 82.676873 123.373602 
L 83.266923 127.098776 
L 83.731874 131.52242 
L 84.044831 136.644534 
L 84.178168 142.465118 
L 84.096517 148.518526 
L 83.804694 154.106287 
L 83.355155 158.762754 
L 82.763113 162.720751 
L 82.063612 165.980278 
L 81.221404 168.824595 
L 80.290757 171.153362 
L 79.340831 172.964979 
L 78.196803 174.632192 
L 77.033495 175.912707 
L 75.806763 176.922976 
L 74.652731 177.621446 
L 73.31091 178.177529 
L 71.914941 178.498727 
L 70.518972 178.579043 
L 69.123002 178.423776 
L 67.727033 178.022659 
L 66.400361 177.388623 
L 65.355603 176.690153 
L 64.237109 175.707741 
L 63.073801 174.361115 
L 62.003117 172.732156 
L 61.061235 170.869569 
L 60.24144 168.774159 
L 59.475994 166.213102 
L 58.803175 163.186398 
L 58.213004 159.461224 
L 57.748062 155.03758 
L 57.488506 151.079583 
L 57.488506 151.079583 
" style="fill:none;stroke:#35b779;stroke-width:1.5;"/>
    <path clip-path="url(#p90e0b521d2)" d="M 124.262968 144.327705 
L 124.336104 138.274298 
L 124.618451 132.686537 
L 125.084958 127.797246 
L 125.676687 123.839249 
L 126.376158 120.579722 
L 127.201593 117.785841 
L 128.12632 115.457608 
L 129.099393 113.595021 
L 130.080334 112.137357 
L 131.248559 110.80114 
L 132.406949 109.800202 
L 133.786519 108.938554 
L 134.966227 108.436521 
L 136.362196 108.08605 
L 137.758165 107.978214 
L 139.154135 108.105767 
L 140.550104 108.477357 
L 141.946074 109.117033 
L 143.109382 109.88838 
L 144.379163 111.033964 
L 145.435997 112.292193 
L 146.436954 113.827844 
L 147.378767 115.690431 
L 148.227936 117.870945 
L 149.023602 120.579722 
L 149.680532 123.606426 
L 150.256977 127.331599 
L 150.71074 131.755243 
L 151.019875 137.014208 
L 151.139111 142.697942 
L 151.048894 148.751349 
L 150.747179 154.33911 
L 150.28645 158.995577 
L 149.680532 162.953574 
L 148.964167 166.213102 
L 148.198613 168.774159 
L 147.27398 171.102392 
L 146.300521 172.964979 
L 145.18611 174.594743 
L 144.040028 175.868073 
L 142.766513 176.922976 
L 141.612289 177.621446 
L 140.317443 178.16246 
L 138.921473 178.491983 
L 137.525504 178.580153 
L 136.129534 178.432819 
L 134.733565 178.040182 
L 133.359635 177.388623 
L 132.315983 176.690153 
L 131.243641 175.754072 
L 130.080334 174.422643 
L 129.099393 172.964979 
L 128.12632 171.102392 
L 127.282428 169.006982 
L 126.497063 166.445925 
L 125.807865 163.419221 
L 125.203745 159.694047 
L 124.747374 155.503227 
L 124.415484 150.381113 
L 124.263794 144.446169 
L 124.262968 144.327705 
L 124.262968 144.327705 
" style="fill:none;stroke:#35b779;stroke-width:1.5;"/>
    <path clip-path="url(#p90e0b521d2)" d="M 191.269957 147.354409 
L 191.231562 141.301001 
L 191.408708 135.480417 
L 191.770317 130.358303 
L 192.294604 125.934659 
L 192.957472 122.209485 
L 193.717314 119.182782 
L 194.590849 116.621725 
L 195.540895 114.526314 
L 196.621543 112.716145 
L 197.784851 111.243039 
L 198.98156 110.10267 
L 200.111466 109.295022 
L 201.507436 108.591781 
L 202.903405 108.165004 
L 204.299375 107.985858 
L 205.695344 108.042642 
L 207.091313 108.33904 
L 208.487283 108.89465 
L 209.726659 109.637024 
L 210.869029 110.568317 
L 211.977206 111.75465 
L 212.97239 113.129374 
L 213.898331 114.759138 
L 214.819924 116.854548 
L 215.670445 119.415605 
L 216.362606 122.209485 
L 216.955386 125.469013 
L 217.481813 129.659833 
L 217.861491 134.549124 
L 218.070391 140.136885 
L 218.074656 146.190292 
L 217.861491 152.010876 
L 217.458069 157.13299 
L 216.919209 161.323811 
L 216.260659 164.816161 
L 215.462636 167.842865 
L 214.540061 170.403922 
L 213.656121 172.266509 
L 212.662047 173.896273 
L 211.511883 175.342464 
L 210.338797 176.45733 
L 208.99992 177.388623 
L 207.789298 177.977489 
L 206.393329 178.399965 
L 204.997359 178.575122 
L 203.60139 178.514419 
L 202.20542 178.213905 
L 200.809451 177.653677 
L 199.593123 176.922976 
L 198.450732 175.991683 
L 197.319527 174.776939 
L 196.200783 173.197803 
L 195.30639 171.568039 
L 194.412023 169.472629 
L 193.583619 166.911572 
L 192.860336 163.884868 
L 192.260744 160.392517 
L 191.770317 156.201697 
L 191.420551 151.312406 
L 191.269957 147.354409 
L 191.269957 147.354409 
" style="fill:none;stroke:#35b779;stroke-width:1.5;"/>
    <path clip-path="url(#p90e0b521d2)" d="M 258.271036 148.751349 
L 258.180882 142.697942 
L 258.315189 136.644534 
L 258.647609 131.289597 
L 259.155418 126.633129 
L 259.773634 122.907955 
L 260.479699 119.881252 
L 261.301459 117.277225 
L 262.266176 114.991961 
L 263.307699 113.129374 
L 264.32606 111.726385 
L 265.489368 110.494903 
L 266.652675 109.567051 
L 268.048645 108.771906 
L 269.444614 108.266225 
L 270.840584 108.014677 
L 272.307451 108.00726 
L 273.692736 108.240083 
L 275.043312 108.70573 
L 276.340746 109.4042 
L 277.355108 110.148993 
L 278.518416 111.26869 
L 279.681723 112.750051 
L 280.739064 114.526314 
L 281.595847 116.388901 
L 282.422393 118.717135 
L 283.168204 121.511015 
L 283.765226 124.537719 
L 284.317414 128.495716 
L 284.734207 133.152184 
L 284.990966 138.507121 
L 285.055336 144.560529 
L 284.893821 150.613936 
L 284.531172 155.968873 
L 284.019215 160.392517 
L 283.371725 164.117691 
L 282.630279 167.144395 
L 281.775678 169.717303 
L 280.845031 171.828082 
L 279.779917 173.663449 
L 278.722297 175.060389 
L 277.57268 176.224506 
L 276.340746 177.1558 
L 275.028492 177.86098 
L 273.632523 178.335731 
L 272.236553 178.559027 
L 270.840584 178.545323 
L 269.444614 178.293775 
L 268.048645 177.788094 
L 266.885337 177.147657 
L 265.667798 176.224506 
L 264.517818 175.060389 
L 263.395413 173.566804 
L 262.381752 171.800862 
L 261.460159 169.705452 
L 260.677264 167.377218 
L 259.967774 164.583338 
L 259.360839 161.323811 
L 258.846237 157.365814 
L 258.445882 152.476523 
L 258.271036 148.751349 
L 258.271036 148.751349 
" style="fill:none;stroke:#35b779;stroke-width:1.5;"/>
    <path clip-path="url(#p90e0b521d2)" d="M 325.2751 149.915466 
L 325.141857 144.094882 
L 325.22345 138.041474 
L 325.516053 132.442594 
L 325.993466 127.564423 
L 326.599518 123.606426 
L 327.315915 120.346898 
L 328.081242 117.785841 
L 329.005976 115.457302 
L 329.979349 113.595021 
L 331.099931 111.957305 
L 332.263238 110.669541 
L 333.513412 109.637024 
L 334.667558 108.938554 
L 335.985823 108.389968 
L 337.381793 108.064612 
L 338.777762 107.980369 
L 340.173732 108.131668 
L 341.569701 108.528541 
L 342.91994 109.171377 
L 343.964163 109.869847 
L 345.059625 110.829022 
L 346.24534 112.198081 
L 347.316955 113.827844 
L 348.153741 115.457608 
L 349.014871 117.601966 
L 349.782981 120.114075 
L 350.472181 123.140779 
L 351.076166 126.865953 
L 351.552536 131.289597 
L 351.874833 136.411711 
L 352.016962 142.232295 
L 351.943873 148.285702 
L 351.661563 153.873463 
L 351.195059 158.762754 
L 350.603221 162.720751 
L 349.903736 165.980278 
L 349.078467 168.774159 
L 348.258844 170.869569 
L 347.316955 172.732156 
L 346.222933 174.391974 
L 345.031121 175.75886 
L 343.896317 176.742362 
L 342.733009 177.494825 
L 341.33704 178.115457 
L 339.94107 178.470142 
L 338.545101 178.581917 
L 337.149131 178.458312 
L 335.742796 178.087093 
L 334.357192 177.456069 
L 333.193885 176.689388 
L 332.030577 175.660834 
L 330.867269 174.299106 
L 329.843117 172.732156 
L 328.901273 170.869569 
L 328.07533 168.757082 
L 327.315915 166.213102 
L 326.643055 163.186398 
L 326.053129 159.461224 
L 325.58817 155.03758 
L 325.2751 149.915466 
L 325.2751 149.915466 
" style="fill:none;stroke:#35b779;stroke-width:1.5;"/>
   </g>
   <g id="LineCollection_6">
    <path clip-path="url(#p90e0b521d2)" d="M 61.204603 148.751349 
L 61.005834 145.026175 
L 61.01929 141.068178 
L 61.245079 137.343004 
L 61.677832 133.812804 
L 62.256438 130.82395 
L 62.962379 128.262893 
L 63.771786 126.107584 
L 64.702432 124.26393 
L 65.633079 122.879289 
L 66.658338 121.743839 
L 67.727033 120.896534 
L 68.890341 120.300147 
L 70.053648 119.999854 
L 71.216956 119.975369 
L 72.380264 120.225114 
L 73.31091 120.632848 
L 74.283205 121.278192 
L 75.281073 122.209485 
L 76.208581 123.373602 
L 77.0614 124.770542 
L 77.964142 126.721506 
L 78.733787 128.961363 
L 79.379763 131.52242 
L 79.912016 134.549124 
L 80.294231 138.041474 
L 80.479556 141.766648 
L 80.452687 145.724645 
L 80.213193 149.449819 
L 79.770667 152.94217 
L 79.168745 155.968873 
L 78.429465 158.566711 
L 77.631138 160.625341 
L 76.800834 162.256319 
L 75.86908 163.652045 
L 74.821608 164.816161 
L 73.776233 165.648263 
L 72.612926 166.250933 
L 71.449618 166.556878 
L 70.28631 166.586805 
L 69.123002 166.342644 
L 68.192356 165.939742 
L 67.197188 165.281808 
L 66.198907 164.350515 
L 65.271416 163.186398 
L 64.418846 161.789458 
L 63.539124 159.896698 
L 62.74629 157.598637 
L 62.100412 155.03758 
L 61.568019 152.010876 
L 61.204603 148.751349 
L 61.204603 148.751349 
" style="fill:none;stroke:#90d743;stroke-width:1.5;"/>
    <path clip-path="url(#p90e0b521d2)" d="M 127.979071 145.491822 
L 127.965795 141.533825 
L 128.164899 137.808651 
L 128.561673 134.3163 
L 129.149687 131.113243 
L 129.847672 128.495061 
L 130.706433 126.167483 
L 131.506155 124.537719 
L 132.406949 123.126218 
L 133.379829 121.976662 
L 134.500903 121.021915 
L 135.664211 120.374846 
L 136.827519 120.029075 
L 137.990827 119.961025 
L 139.154135 120.166263 
L 140.168625 120.579722 
L 141.015427 121.104818 
L 142.019773 121.976662 
L 143.002568 123.140779 
L 143.893379 124.537719 
L 144.792565 126.400306 
L 145.551835 128.495716 
L 146.237045 131.056773 
L 146.803862 134.083477 
L 147.194663 137.343004 
L 147.420499 141.068178 
L 147.433886 145.026175 
L 147.235062 148.751349 
L 146.831967 152.290144 
L 146.237045 155.503227 
L 145.551835 158.064284 
L 144.738013 160.290271 
L 143.807366 162.175657 
L 142.8283 163.652045 
L 141.781876 164.816161 
L 140.782766 165.617457 
L 139.619458 166.232741 
L 138.45615 166.550013 
L 137.292842 166.590827 
L 136.129534 166.357814 
L 135.198888 165.964547 
L 134.15755 165.281808 
L 133.158528 164.350515 
L 132.396471 163.419221 
L 131.476303 161.969268 
L 130.607489 160.159694 
L 129.847468 158.064284 
L 129.149687 155.446757 
L 128.596421 152.476523 
L 128.184487 148.984172 
L 127.979071 145.491822 
L 127.979071 145.491822 
" style="fill:none;stroke:#90d743;stroke-width:1.5;"/>
    <path clip-path="url(#p90e0b521d2)" d="M 194.986564 146.655939 
L 194.906495 142.697942 
L 195.055019 138.739944 
L 195.423746 135.014771 
L 195.971535 131.755243 
L 196.666057 128.961363 
L 197.471959 126.633129 
L 198.339095 124.770542 
L 199.190482 123.373602 
L 200.11768 122.209485 
L 201.117326 121.278192 
L 202.20542 120.571162 
L 203.368728 120.120748 
L 204.532036 119.954185 
L 205.695344 120.060437 
L 206.628262 120.346898 
L 207.556637 120.822505 
L 208.487283 121.512379 
L 209.417929 122.45177 
L 210.437796 123.839249 
L 211.335656 125.469013 
L 212.201407 127.564423 
L 212.907853 129.870228 
L 213.529929 132.686537 
L 214.011456 135.946064 
L 214.308719 139.438414 
L 214.415819 143.396412 
L 214.295071 147.354409 
L 213.955722 151.079583 
L 213.441903 154.33911 
L 212.787269 157.13299 
L 211.977206 159.601261 
L 211.103759 161.556634 
L 210.286973 162.953574 
L 209.409604 164.117691 
L 208.485666 165.048985 
L 207.323975 165.875527 
L 206.160667 166.379711 
L 204.997359 166.596042 
L 203.834051 166.538891 
L 202.670744 166.204557 
L 201.740097 165.722953 
L 200.809451 165.027342 
L 199.716221 163.884868 
L 198.882064 162.720751 
L 197.98413 161.090987 
L 197.118842 158.995577 
L 196.406404 156.667344 
L 195.833468 154.106287 
L 195.335964 150.846759 
L 195.025096 147.354409 
L 194.986564 146.655939 
L 194.986564 146.655939 
" style="fill:none;stroke:#90d743;stroke-width:1.5;"/>
    <path clip-path="url(#p90e0b521d2)" d="M 261.999316 147.587232 
L 261.864953 143.629235 
L 261.958747 139.671238 
L 262.268419 135.946064 
L 262.749967 132.686537 
L 263.428533 129.659833 
L 264.163121 127.331599 
L 265.057934 125.236189 
L 265.992775 123.606426 
L 266.885337 122.424849 
L 267.815983 121.492297 
L 268.979291 120.671377 
L 270.142599 120.173219 
L 271.305907 119.962437 
L 272.469215 120.025037 
L 273.586223 120.346898 
L 274.498742 120.812545 
L 275.444582 121.511015 
L 276.368819 122.442309 
L 277.246739 123.606426 
L 278.064271 125.003366 
L 278.900545 126.865953 
L 279.613802 128.961363 
L 280.259346 131.52242 
L 280.792139 134.549124 
L 281.173769 138.041474 
L 281.359532 141.766648 
L 281.332933 145.724645 
L 281.077693 149.615513 
L 280.650765 152.94217 
L 280.048496 155.968873 
L 279.321106 158.52993 
L 278.511871 160.625341 
L 277.542553 162.487928 
L 276.563628 163.884868 
L 275.702602 164.816161 
L 274.563169 165.708279 
L 273.399861 166.28591 
L 272.236553 166.569292 
L 271.073245 166.577453 
L 269.909937 166.310919 
L 268.979291 165.888623 
L 268.048645 165.260342 
L 267.078324 164.350515 
L 266.150896 163.186398 
L 265.176391 161.556634 
L 264.32606 159.661424 
L 263.558415 157.365814 
L 262.884047 154.571933 
L 262.353621 151.312406 
L 262.014749 147.820056 
L 261.999316 147.587232 
L 261.999316 147.587232 
" style="fill:none;stroke:#90d743;stroke-width:1.5;"/>
    <path clip-path="url(#p90e0b521d2)" d="M 328.990913 148.052879 
L 328.828744 144.094882 
L 328.895879 140.136885 
L 329.176935 136.411711 
L 329.627246 133.152184 
L 330.266667 130.12548 
L 331.03906 127.564423 
L 331.797915 125.693324 
L 332.802121 123.839249 
L 333.831235 122.442309 
L 334.822516 121.452589 
L 335.985823 120.645565 
L 337.149131 120.159421 
L 338.312439 119.959722 
L 339.475747 120.033223 
L 340.545117 120.346898 
L 341.458291 120.812545 
L 342.40407 121.511015 
L 343.328477 122.442309 
L 344.206854 123.606426 
L 345.141696 125.236189 
L 345.990271 127.204074 
L 346.70773 129.42701 
L 347.362172 132.22089 
L 347.851564 135.284351 
L 348.184883 138.739944 
L 348.333829 142.697942 
L 348.253091 146.655939 
L 347.957637 150.381113 
L 347.491918 153.64064 
L 346.893691 156.43452 
L 346.12078 158.995577 
L 345.255834 161.090987 
L 344.358739 162.720751 
L 343.328477 164.117691 
L 342.267686 165.165859 
L 341.33704 165.821868 
L 340.173732 166.350286 
L 339.010424 166.58887 
L 337.847116 166.553501 
L 336.683808 166.241896 
L 335.701013 165.747455 
L 334.755672 165.048985 
L 333.831235 164.117691 
L 332.952337 162.953574 
L 332.017673 161.323811 
L 331.122754 159.228401 
L 330.401946 156.950594 
L 329.798176 154.33911 
L 329.313556 151.312406 
L 328.990913 148.052879 
L 328.990913 148.052879 
" style="fill:none;stroke:#90d743;stroke-width:1.5;"/>
   </g>
   <g id="LineCollection_7">
    <path clip-path="url(#p90e0b521d2)" d="M 66.325575 144.560529 
L 66.314273 142.232295 
L 66.506631 140.136885 
L 66.863523 138.274298 
L 67.368998 136.644534 
L 68.027904 135.247594 
L 68.685116 134.3163 
L 69.471739 133.61783 
L 70.053648 133.327324 
L 70.751633 133.211028 
L 71.449618 133.335359 
L 72.147603 133.711329 
L 72.845587 134.374464 
L 73.583365 135.480417 
L 74.198008 136.877357 
L 74.67284 138.507121 
L 75.004696 140.369708 
L 75.181998 142.697942 
L 75.123388 145.026175 
L 74.862251 147.121586 
L 74.426691 148.984172 
L 73.816817 150.613936 
L 73.31091 151.547574 
L 72.577624 152.476523 
L 71.914941 153.003571 
L 71.216956 153.29288 
L 70.518972 153.33696 
L 69.820987 153.139452 
L 69.123002 152.682736 
L 68.425017 151.920179 
L 67.727033 150.749886 
L 67.12548 149.216996 
L 66.706479 147.587232 
L 66.396697 145.491822 
L 66.325575 144.560529 
L 66.325575 144.560529 
" style="fill:none;stroke:#fde725;stroke-width:1.5;"/>
    <path clip-path="url(#p90e0b521d2)" d="M 133.334428 145.258999 
L 133.254494 142.930765 
L 133.406571 140.602531 
L 133.76719 138.507121 
L 134.268242 136.802624 
L 134.966227 135.281863 
L 135.664211 134.293161 
L 136.430849 133.61783 
L 137.060181 133.312062 
L 137.758165 133.211828 
L 138.531984 133.385007 
L 139.154135 133.746036 
L 139.85212 134.430655 
L 140.550104 135.490628 
L 141.157361 136.877357 
L 141.632168 138.507121 
L 141.965448 140.369708 
L 142.141455 142.697942 
L 142.082944 145.026175 
L 141.822084 147.121586 
L 141.386137 148.984172 
L 140.77787 150.613936 
L 140.084781 151.824218 
L 139.28171 152.709346 
L 138.688812 153.105737 
L 137.990827 153.328149 
L 137.292842 153.308114 
L 136.594858 153.043979 
L 135.862339 152.476523 
L 135.129735 151.545229 
L 134.500903 150.343324 
L 133.946496 148.751349 
L 133.537316 146.888762 
L 133.334428 145.258999 
L 133.334428 145.258999 
" style="fill:none;stroke:#fde725;stroke-width:1.5;"/>
    <path clip-path="url(#p90e0b521d2)" d="M 200.339268 145.724645 
L 200.212292 143.396412 
L 200.316125 141.068178 
L 200.626033 138.972768 
L 201.12151 137.110181 
L 201.740097 135.623967 
L 202.438082 134.517408 
L 203.136067 133.80028 
L 203.834051 133.379587 
L 204.532036 133.215031 
L 205.230021 133.291189 
L 205.933107 133.61783 
L 206.713191 134.3163 
L 207.37251 135.247594 
L 208.032593 136.644534 
L 208.536733 138.274298 
L 208.925281 140.369708 
L 209.093958 142.465118 
L 209.059209 144.793352 
L 208.821914 146.888762 
L 208.413639 148.751349 
L 207.841505 150.381113 
L 207.229932 151.545229 
L 206.495908 152.476523 
L 205.928006 152.945762 
L 205.230021 153.268811 
L 204.532036 153.344969 
L 203.822441 153.174993 
L 203.077288 152.709346 
L 202.414235 152.010876 
L 201.695769 150.846759 
L 201.12151 149.449819 
L 200.675574 147.820056 
L 200.339268 145.724645 
L 200.339268 145.724645 
" style="fill:none;stroke:#fde725;stroke-width:1.5;"/>
    <path clip-path="url(#p90e0b521d2)" d="M 267.325892 145.957469 
L 267.174231 143.629235 
L 267.255762 141.301001 
L 267.540082 139.205591 
L 268.004831 137.343004 
L 268.542886 135.946064 
L 269.211953 134.768456 
L 269.909937 133.960144 
L 270.607922 133.466057 
L 271.305907 133.235323 
L 272.003892 133.247344 
L 272.701876 133.503111 
L 273.456809 134.083477 
L 274.097846 134.870687 
L 274.802703 136.178887 
L 275.373411 137.808651 
L 275.782309 139.671238 
L 276.019535 141.766648 
L 276.053942 144.094882 
L 275.852986 146.423115 
L 275.43715 148.518526 
L 274.899057 150.148289 
L 274.330507 151.318513 
L 273.632523 152.292867 
L 272.890297 152.94217 
L 272.236553 153.255165 
L 271.538568 153.347371 
L 270.786664 153.174993 
L 270.142599 152.796174 
L 269.444614 152.100757 
L 268.74663 151.025329 
L 268.162729 149.682643 
L 267.687964 148.052879 
L 267.325892 145.957469 
L 267.325892 145.957469 
" style="fill:none;stroke:#fde725;stroke-width:1.5;"/>
    <path clip-path="url(#p90e0b521d2)" d="M 334.345793 146.423115 
L 334.145136 144.094882 
L 334.180412 141.766648 
L 334.417757 139.671238 
L 334.824936 137.808651 
L 335.39912 136.178887 
L 336.00849 135.014771 
L 336.743274 134.083477 
L 337.381793 133.570459 
L 338.079778 133.272735 
L 338.777762 133.220637 
L 339.475747 133.409865 
L 340.173732 133.857297 
L 340.871716 134.608518 
L 341.569701 135.762312 
L 342.194717 137.343004 
L 342.613439 138.972768 
L 342.923623 141.068178 
L 343.027993 143.396412 
L 342.899648 145.724645 
L 342.564714 147.820056 
L 342.118454 149.449819 
L 341.544748 150.846759 
L 340.824947 152.010876 
L 340.165321 152.709346 
L 339.4127 153.174993 
L 338.777762 153.339363 
L 338.079778 153.287265 
L 337.310927 152.94217 
L 336.683808 152.418264 
L 335.985823 151.510375 
L 335.287839 150.120485 
L 334.76289 148.518526 
L 334.345793 146.423115 
L 334.345793 146.423115 
" style="fill:none;stroke:#fde725;stroke-width:1.5;"/>
   </g>
   <g id="line2d_1">
    <path clip-path="url(#p90e0b521d2)" d="M 54 195.36 
L 388.8 195.36 
" style="fill:none;stroke:#ff0000;stroke-linecap:square;stroke-width:1.5;"/>
   </g>
   <g id="line2d_2">
    <path clip-path="url(#p90e0b521d2)" d="M 54 91.2 
L 388.8 91.2 
" style="fill:none;stroke:#ff0000;stroke-linecap:square;stroke-width:1.5;"/>
   </g>
   <g id="patch_3">
    <path d="M 54 252 
L 54 34.56 
" style="fill:none;stroke:#000000;stroke-linecap:square;stroke-linejoin:miter;stroke-width:0.8;"/>
   </g>
   <g id="patch_4">
    <path d="M 388.8 252 
L 388.8 34.56 
" style="fill:none;stroke:#000000;stroke-linecap:square;stroke-linejoin:miter;stroke-width:0.8;"/>
   </g>
   <g id="patch_5">
    <path d="M 54 252 
L 388.8 252 
" style="fill:none;stroke:#000000;stroke-linecap:square;stroke-linejoin:miter;stroke-width:0.8;"/>
   </g>
   <g id="patch_6">
    <path d="M 54 34.56 
L 388.8 34.56 
" style="fill:none;stroke:#000000;stroke-linecap:square;stroke-linejoin:miter;stroke-width:0.8;"/>
   </g>
  </g>
 </g>
 <defs>
  <clipPath id="p90e0b521d2">
   <rect height="217.44" width="334.8" x="54" y="34.56"/>
  </clipPath>
 </defs>
</svg>
