<?xml version="1.0" encoding="utf-8" standalone="no"?>
<!DOCTYPE svg PUBLIC "-//W3C//DTD SVG 1.1//EN"
  "http://www.w3.org/Graphics/SVG/1.1/DTD/svg11.dtd">
<!-- Created with matplotlib (http://matplotlib.org/) -->
<svg height="288pt" version="1.1" viewBox="0 0 432 288" width="432pt" xmlns="http://www.w3.org/2000/svg" xmlns:xlink="http://www.w3.org/1999/xlink">
 <defs>
  <style type="text/css">
*{stroke-linecap:butt;stroke-linejoin:round;}
  </style>
 </defs>
 <g id="figure_1">
  <g id="patch_1">
   <path d="M 0 288 
L 432 288 
L 432 0 
L 0 0 
z
" style="fill:#ffffff;"/>
  </g>
  <g id="axes_1">
   <g id="patch_2">
    <path d="M 54 252 
L 388.8 252 
L 388.8 34.56 
L 54 34.56 
z
" style="fill:#ffffff;"/>
   </g>
   <g id="matplotlib.axis_1"/>
   <g id="matplotlib.axis_2"/>
   <g id="LineCollection_1">
    <path clip-path="url(#pf8ede6cf2d)" d="M 105.634281 102.419499 
L 105.89377 103.816439 
L 106.376768 105.21338 
L 107.099507 106.61032 
L 108.088325 108.00726 
L 109.383322 109.4042 
L 111.002085 110.767514 
L 112.630716 111.871647 
L 114.72467 113.026335 
L 117.054413 114.060668 
L 119.843224 115.042389 
L 122.867825 115.866824 
L 126.125087 116.532411 
L 129.847672 117.060242 
L 133.570257 117.372428 
L 137.525504 117.489115 
L 141.480751 117.39139 
L 145.435997 117.073196 
L 149.158582 116.552501 
L 152.648506 115.838984 
L 155.718729 114.991961 
L 158.465045 114.012586 
L 160.935181 112.896551 
L 162.993427 111.732434 
L 164.746908 110.499665 
L 166.255919 109.171377 
L 167.538846 107.718977 
L 168.469493 106.322848 
L 169.167477 104.857683 
L 169.564559 103.583616 
L 169.787821 102.186676 
L 169.796712 100.789736 
L 169.591526 99.392796 
L 169.165732 97.995855 
L 168.469493 96.537234 
L 167.538846 95.141072 
L 166.372129 93.805035 
L 164.808067 92.408095 
L 163.118277 91.207089 
L 161.024322 90.009228 
L 158.634288 88.915744 
L 155.905768 87.927719 
L 152.78287 87.053157 
L 149.391244 86.347547 
L 145.668659 85.81303 
L 141.713412 85.48106 
L 137.758165 85.370664 
L 133.802919 85.474699 
L 129.847672 85.799962 
L 126.125087 86.327376 
L 122.867825 86.993188 
L 119.843224 87.817672 
L 117.051286 88.801065 
L 114.6967 89.847038 
L 112.592907 91.011154 
L 110.769423 92.269819 
L 109.262544 93.572211 
L 107.977484 94.991238 
L 107.029479 96.366092 
L 106.327632 97.763032 
L 105.8638 99.159972 
L 105.622459 100.556912 
L 105.59587 101.953853 
L 105.634281 102.419499 
L 105.634281 102.419499 
" style="fill:none;stroke:#440154;stroke-width:1.5;"/>
    <path clip-path="url(#pf8ede6cf2d)" d="M 273.159125 186.934381 
L 273.547633 188.331321 
L 274.167855 189.728261 
L 275.041645 191.125202 
L 276.203084 192.522142 
L 277.703851 193.919082 
L 279.449062 195.201658 
L 281.310354 196.306897 
L 283.63697 197.423117 
L 286.196247 198.401724 
L 289.220848 199.30627 
L 292.47811 200.040934 
L 295.968033 200.604383 
L 299.690618 200.987823 
L 303.645865 201.174989 
L 307.601112 201.146821 
L 311.556359 200.901413 
L 315.408458 200.438136 
L 318.768867 199.828579 
L 322.026129 199.020122 
L 325.05073 198.02809 
L 327.622901 196.945786 
L 329.936623 195.713036 
L 331.797915 194.467222 
L 333.293007 193.220612 
L 334.616252 191.823672 
L 335.628651 190.426732 
L 336.372363 189.029791 
L 336.874608 187.632851 
L 337.152415 186.235911 
L 337.214466 184.838971 
L 337.06308 183.442031 
L 336.683808 182.017954 
L 336.093122 180.64815 
L 335.241515 179.25121 
L 334.105771 177.85427 
L 332.635868 176.45733 
L 331.099931 175.292062 
L 329.212857 174.129096 
L 326.857927 172.964979 
L 324.352745 171.978953 
L 321.328145 171.046308 
L 318.070883 170.287536 
L 314.580959 169.702323 
L 310.625712 169.280897 
L 306.670466 169.087545 
L 302.715219 169.109592 
L 298.759972 169.348515 
L 295.037387 169.785436 
L 291.547464 170.406395 
L 288.290202 171.207043 
L 285.498263 172.103486 
L 282.82616 173.197803 
L 280.576588 174.361919 
L 278.751077 175.536695 
L 277.033063 176.922976 
L 275.681483 178.319917 
L 274.644976 179.716857 
L 273.865184 181.146944 
L 273.358489 182.510737 
L 273.062593 183.907677 
L 272.982549 185.304618 
L 273.116032 186.701558 
L 273.159125 186.934381 
L 273.159125 186.934381 
" style="fill:none;stroke:#440154;stroke-width:1.5;"/>
   </g>
   <g id="LineCollection_2">
    <path clip-path="url(#pf8ede6cf2d)" d="M 85.148799 104.049263 
L 85.536199 106.144673 
L 86.163385 108.240083 
L 86.943803 110.10267 
L 87.968589 111.973829 
L 89.26275 113.827844 
L 90.760528 115.546569 
L 92.400776 117.087371 
L 94.250452 118.527429 
L 96.344406 119.884484 
L 98.903683 121.253797 
L 101.605103 122.442309 
L 104.720222 123.565815 
L 108.210146 124.584053 
L 112.165393 125.500722 
L 116.585962 126.29146 
L 121.471855 126.936815 
L 126.823072 127.417571 
L 132.639611 127.711173 
L 138.688812 127.787615 
L 144.738013 127.636383 
L 150.554552 127.264967 
L 155.905768 126.701496 
L 160.791661 125.964771 
L 164.979569 125.123531 
L 168.934816 124.102844 
L 172.192078 123.049088 
L 175.216678 121.84511 
L 177.820169 120.579722 
L 180.186235 119.182782 
L 182.196525 117.745034 
L 184.057818 116.127275 
L 185.566602 114.526314 
L 186.849757 112.860919 
L 188.013065 110.970132 
L 188.943711 109.002729 
L 189.616022 107.075967 
L 190.107449 104.980556 
L 190.368969 102.885146 
L 190.411129 100.789736 
L 190.235613 98.694325 
L 189.83548 96.598915 
L 189.194296 94.503505 
L 188.399841 92.640918 
L 187.31508 90.700896 
L 186.045526 88.915744 
L 184.523141 87.193968 
L 182.861966 85.656217 
L 181.033218 84.250204 
L 178.862622 82.862337 
L 176.379986 81.550269 
L 173.588047 80.335693 
L 170.563447 79.256597 
L 167.073523 78.245665 
L 163.118277 77.335611 
L 158.697707 76.550465 
L 153.811814 75.910304 
L 148.460598 75.43422 
L 142.644058 75.145132 
L 136.594858 75.073275 
L 130.545657 75.228773 
L 124.729117 75.604852 
L 119.377901 76.173394 
L 114.492008 76.915865 
L 110.071438 77.816838 
L 106.348853 78.791263 
L 103.091591 79.852645 
L 100.066991 81.066386 
L 97.364339 82.39669 
L 95.036412 83.79363 
L 93.087144 85.206855 
L 91.225851 86.845525 
L 89.734842 88.450097 
L 88.433912 90.168936 
L 87.358345 91.942448 
L 86.477469 93.805035 
L 85.750403 95.900445 
L 85.27221 97.995855 
L 85.023025 100.091266 
L 84.99287 102.186676 
L 85.148799 104.049263 
L 85.148799 104.049263 
" style="fill:none;stroke:#443983;stroke-width:1.5;"/>
    <path clip-path="url(#pf8ede6cf2d)" d="M 252.459185 186.934381 
L 252.758137 189.029791 
L 253.289547 191.125202 
L 253.974878 192.987789 
L 254.885582 194.850376 
L 256.056557 196.712962 
L 257.346213 198.357562 
L 258.974844 200.048118 
L 260.805243 201.602253 
L 262.793933 202.999193 
L 265.024044 204.303126 
L 267.617164 205.56025 
L 270.607922 206.749227 
L 273.865184 207.802739 
L 277.587769 208.770195 
L 281.775678 209.623455 
L 286.428909 210.341149 
L 291.668838 210.915188 
L 297.131341 211.292393 
L 302.94788 211.476203 
L 308.997081 211.443569 
L 314.813621 211.194471 
L 320.397498 210.736287 
L 325.516053 210.097214 
L 330.215757 209.285424 
L 334.357192 208.344472 
L 338.079778 207.265746 
L 341.33704 206.085106 
L 344.128978 204.840172 
L 346.688256 203.44546 
L 348.78221 202.06046 
L 350.643502 200.57548 
L 352.272133 199.002405 
L 353.668103 197.358573 
L 354.908106 195.548846 
L 355.911632 193.686259 
L 356.692703 191.781944 
L 357.291422 189.728261 
L 357.666037 187.632851 
L 357.817172 185.537441 
L 357.750806 183.442031 
L 357.464408 181.34662 
L 356.946459 179.25121 
L 356.22738 177.278142 
L 355.296734 175.37829 
L 354.225108 173.663449 
L 352.966697 172.033686 
L 351.341487 170.321654 
L 349.544664 168.774159 
L 347.58629 167.377218 
L 345.220137 165.980278 
L 342.733009 164.766347 
L 339.708409 163.552816 
L 336.440498 162.487928 
L 332.728562 161.516772 
L 328.540653 160.657278 
L 323.832988 159.926871 
L 318.768867 159.366226 
L 313.18499 158.973403 
L 307.36845 158.785282 
L 301.319249 158.813645 
L 295.50271 159.058383 
L 289.918833 159.511768 
L 284.703887 160.159694 
L 280.147047 160.942415 
L 275.959138 161.885866 
L 272.236553 162.956376 
L 268.979291 164.127996 
L 266.187352 165.362922 
L 263.628075 166.744887 
L 261.534121 168.11567 
L 259.532353 169.705452 
L 257.855236 171.335216 
L 256.415566 173.054874 
L 255.221509 174.827566 
L 254.23386 176.690153 
L 253.48114 178.55274 
L 252.88166 180.64815 
L 252.519813 182.743561 
L 252.38085 184.838971 
L 252.459185 186.934381 
L 252.459185 186.934381 
" style="fill:none;stroke:#443983;stroke-width:1.5;"/>
   </g>
   <g id="LineCollection_3">
    <path clip-path="url(#pf8ede6cf2d)" d="M 68.883067 103.816439 
L 69.170338 107.075967 
L 69.66717 110.10267 
L 70.355243 112.896551 
L 71.221693 115.457608 
L 72.2548 117.785841 
L 73.439585 119.881252 
L 74.753967 121.743839 
L 76.164313 123.373602 
L 77.890702 125.003366 
L 79.69928 126.400306 
L 81.686727 127.667942 
L 84.013343 128.889008 
L 86.57262 129.988555 
L 89.636226 131.056773 
L 93.087144 132.020829 
L 97.15595 132.91936 
L 101.928284 133.733741 
L 107.512161 134.448786 
L 114.026685 135.047315 
L 121.471855 135.501327 
L 129.847672 135.785632 
L 138.921473 135.867032 
L 147.995274 135.72472 
L 156.371091 135.375472 
L 163.816261 134.84801 
L 170.098124 134.191602 
L 175.44934 133.422776 
L 180.102571 132.536128 
L 184.057818 131.560456 
L 187.31508 130.544969 
L 190.33968 129.365632 
L 192.898958 128.12356 
L 195.014088 126.865953 
L 196.944611 125.469013 
L 198.715497 123.901159 
L 200.111466 122.399495 
L 201.507436 120.568788 
L 202.670744 118.683857 
L 203.694649 116.621725 
L 204.603399 114.293491 
L 205.360965 111.732434 
L 205.952167 108.938554 
L 206.360181 105.91185 
L 206.562136 102.652323 
L 206.533562 99.392796 
L 206.272165 96.133268 
L 205.802509 93.106565 
L 205.144313 90.312684 
L 204.299375 87.719018 
L 203.317457 85.423394 
L 202.177487 83.327983 
L 200.914345 81.465396 
L 199.561697 79.835633 
L 197.910381 78.205869 
L 196.15622 76.786796 
L 194.062265 75.397666 
L 191.73565 74.139109 
L 189.176372 73.008879 
L 186.131642 71.919638 
L 182.661849 70.927228 
L 178.706602 70.032116 
L 174.05337 69.214185 
L 168.702154 68.502358 
L 162.420292 67.894721 
L 155.207783 67.421982 
L 147.064628 67.110072 
L 138.223489 66.99131 
L 129.149687 67.090024 
L 120.541209 67.404169 
L 112.863377 67.904135 
L 106.348853 68.542695 
L 100.764976 69.304994 
L 96.111744 70.150784 
L 92.156498 71.07835 
L 88.666574 72.116626 
L 85.641974 73.246184 
L 82.984816 74.480695 
L 80.756081 75.755846 
L 78.894788 77.047988 
L 77.033495 78.623498 
L 75.628522 80.068456 
L 74.144351 81.931043 
L 72.945971 83.79363 
L 71.862889 85.88904 
L 70.918376 88.217274 
L 70.129254 90.778331 
L 69.509795 93.572211 
L 69.075636 96.598915 
L 68.84834 99.858442 
L 68.852418 103.117969 
L 68.883067 103.816439 
L 68.883067 103.816439 
" style="fill:none;stroke:#31688e;stroke-width:1.5;"/>
    <path clip-path="url(#pf8ede6cf2d)" d="M 236.386367 189.029791 
L 236.751722 192.056495 
L 237.337318 195.019253 
L 238.035302 197.5082 
L 238.855806 199.739666 
L 239.896595 201.954329 
L 241.065249 203.930487 
L 242.455872 205.820357 
L 243.904722 207.422837 
L 245.480473 208.863049 
L 247.341765 210.268289 
L 249.518321 211.613658 
L 251.994997 212.858721 
L 254.786935 213.995775 
L 258.044197 215.061234 
L 261.534121 215.973637 
L 265.722029 216.83921 
L 270.607922 217.617522 
L 276.424461 218.307661 
L 283.171647 218.873311 
L 290.849479 219.288225 
L 299.457957 219.526234 
L 308.531758 219.553263 
L 317.372898 219.362442 
L 325.516053 218.97229 
L 332.728562 218.410147 
L 338.777762 217.72787 
L 343.896317 216.943564 
L 348.391503 216.037302 
L 352.272133 215.027096 
L 355.559692 213.941892 
L 358.382691 212.777775 
L 360.880612 211.501515 
L 362.974566 210.188217 
L 364.835858 208.765494 
L 366.523858 207.190014 
L 367.954114 205.56025 
L 369.286188 203.697663 
L 370.486314 201.602253 
L 371.532662 199.274019 
L 372.341012 196.945786 
L 373.009044 194.384729 
L 373.518948 191.590848 
L 373.850837 188.564145 
L 373.977837 185.304618 
L 373.875572 182.04509 
L 373.568384 179.018387 
L 373.034574 175.991683 
L 372.305494 173.197803 
L 371.486439 170.869569 
L 370.419736 168.527915 
L 369.210948 166.445925 
L 367.860459 164.582674 
L 366.410399 162.953574 
L 364.835858 161.494519 
L 362.974566 160.071877 
L 360.880612 158.758331 
L 358.553996 157.561526 
L 355.762057 156.393605 
L 352.737457 155.372012 
L 349.247533 154.424814 
L 345.059625 153.528635 
L 340.173732 152.72435 
L 334.589854 152.036204 
L 328.07533 151.460755 
L 320.63016 151.026554 
L 312.254343 150.760093 
L 303.180542 150.695908 
L 294.106741 150.8559 
L 285.730924 151.224419 
L 278.518416 151.753143 
L 272.236553 152.426591 
L 266.885337 153.21557 
L 262.232106 154.126587 
L 258.276859 155.131383 
L 254.958618 156.201697 
L 252.073323 157.365814 
L 249.668381 158.563192 
L 247.436787 159.926871 
L 245.568623 161.323811 
L 243.851842 162.890566 
L 242.455872 164.439781 
L 241.14252 166.213102 
L 240.019712 168.075688 
L 238.965949 170.259119 
L 238.118047 172.499332 
L 237.381006 175.060389 
L 236.80834 177.85427 
L 236.417499 180.880974 
L 236.232334 184.140501 
L 236.277249 187.400028 
L 236.386367 189.029791 
L 236.386367 189.029791 
" style="fill:none;stroke:#31688e;stroke-width:1.5;"/>
   </g>
   <g id="LineCollection_4">
    <path clip-path="url(#pf8ede6cf2d)" d="M 388.8 143.28 
L 221.516331 143.28 
L 221.4 143.396412 
L 221.4 226.747177 
L 221.283669 226.98 
L 54.232662 226.98 
L 54 226.747177 
L 54 143.396412 
L 54.465323 143.28 
L 221.283669 143.28 
L 221.4 143.163588 
L 221.4 59.812823 
L 221.516331 59.58 
L 388.8 59.58 
L 388.8 59.58 
" style="fill:none;stroke:#21908d;stroke-width:1.5;"/>
   </g>
   <g id="LineCollection_5">
    <path clip-path="url(#pf8ede6cf2d)" d="M 68.889209 187.632851 
L 68.827973 184.373324 
L 68.996462 181.113797 
L 69.37022 178.087093 
L 69.92468 175.293213 
L 70.641546 172.732156 
L 71.504436 170.403922 
L 72.494954 168.308512 
L 73.742499 166.213102 
L 74.939541 164.582674 
L 76.389601 162.953574 
L 77.964142 161.494519 
L 79.825434 160.071877 
L 81.919388 158.758331 
L 84.246004 157.561526 
L 87.037943 156.393605 
L 90.062543 155.372012 
L 93.552467 154.424814 
L 97.740375 153.528635 
L 102.626268 152.72435 
L 108.210146 152.036204 
L 114.72467 151.460755 
L 122.16984 151.026554 
L 130.545657 150.760093 
L 139.619458 150.695908 
L 148.693259 150.8559 
L 157.069076 151.224419 
L 164.281584 151.753143 
L 170.563447 152.426591 
L 175.914663 153.21557 
L 180.567894 154.126587 
L 184.523141 155.131383 
L 187.841382 156.201697 
L 190.726677 157.365814 
L 193.131619 158.563192 
L 195.363213 159.926871 
L 197.231377 161.323811 
L 198.948158 162.890566 
L 200.344128 164.439781 
L 201.65748 166.213102 
L 202.780288 168.075688 
L 203.834051 170.259119 
L 204.681953 172.499332 
L 205.418994 175.060389 
L 205.99166 177.85427 
L 206.382501 180.880974 
L 206.567666 184.140501 
L 206.522751 187.400028 
L 206.244148 190.659555 
L 205.75644 193.686259 
L 205.0784 196.480139 
L 204.223309 199.041196 
L 203.203355 201.36943 
L 202.033717 203.46484 
L 200.736681 205.327427 
L 199.345917 206.957191 
L 197.645049 208.586954 
L 195.86529 209.983894 
L 193.829604 211.300105 
L 191.479347 212.544951 
L 188.711049 213.73366 
L 185.686449 214.780772 
L 182.196525 215.749716 
L 178.241279 216.619822 
L 173.468829 217.434242 
L 168.00417 218.136093 
L 161.489646 218.738407 
L 154.044475 219.195759 
L 145.668659 219.483134 
L 136.594858 219.567421 
L 127.521056 219.427957 
L 119.14524 219.082001 
L 111.700069 218.55816 
L 105.185546 217.877243 
L 99.834329 217.10334 
L 95.181098 216.210719 
L 91.225851 215.227831 
L 87.884412 214.174715 
L 84.934609 213.010598 
L 82.384712 211.760474 
L 80.209874 210.449541 
L 78.310879 209.052601 
L 76.568172 207.486139 
L 75.172203 205.961008 
L 73.776233 204.097067 
L 72.556921 202.0679 
L 71.553716 199.97249 
L 70.679538 197.644256 
L 69.952642 195.083199 
L 69.389104 192.289318 
L 69.006841 189.262615 
L 68.889209 187.632851 
L 68.889209 187.632851 
" style="fill:none;stroke:#35b779;stroke-width:1.5;"/>
    <path clip-path="url(#pf8ede6cf2d)" d="M 236.396432 105.446203 
L 236.227971 102.186676 
L 236.289245 98.927149 
L 236.555852 95.900445 
L 237.04356 92.873741 
L 237.7216 90.079861 
L 238.576691 87.518804 
L 239.596645 85.19057 
L 240.766283 83.09516 
L 242.063319 81.232573 
L 243.454083 79.602809 
L 245.154951 77.973046 
L 246.93471 76.576106 
L 248.970396 75.259895 
L 251.320653 74.015049 
L 254.088951 72.82634 
L 257.113551 71.779228 
L 260.603475 70.810284 
L 264.558721 69.940178 
L 269.331171 69.125758 
L 274.79583 68.423907 
L 281.310354 67.821593 
L 288.755525 67.364241 
L 297.131341 67.076866 
L 306.205142 66.992579 
L 315.278944 67.132043 
L 323.65476 67.477999 
L 331.099931 68.00184 
L 337.614454 68.682757 
L 342.965671 69.45666 
L 347.618902 70.349281 
L 351.574149 71.332169 
L 354.915588 72.385285 
L 357.865391 73.549402 
L 360.415288 74.799526 
L 362.590126 76.110459 
L 364.489121 77.507399 
L 366.231828 79.073861 
L 367.627797 80.598992 
L 369.023767 82.462933 
L 370.243079 84.4921 
L 371.246284 86.58751 
L 372.120462 88.915744 
L 372.847358 91.476801 
L 373.410896 94.270682 
L 373.793159 97.297385 
L 373.969992 100.556912 
L 373.916933 103.816439 
L 373.629662 107.075967 
L 373.13283 110.10267 
L 372.444757 112.896551 
L 371.578307 115.457608 
L 370.5452 117.785841 
L 369.360415 119.881252 
L 368.046033 121.743839 
L 366.635687 123.373602 
L 364.909298 125.003366 
L 363.10072 126.400306 
L 361.113273 127.667942 
L 358.786657 128.889008 
L 356.22738 129.988555 
L 353.163774 131.056773 
L 349.712856 132.020829 
L 345.64405 132.91936 
L 340.871716 133.733741 
L 335.287839 134.448786 
L 328.773315 135.047315 
L 321.328145 135.501327 
L 312.952328 135.785632 
L 303.878527 135.867032 
L 294.804726 135.72472 
L 286.428909 135.375472 
L 278.983739 134.84801 
L 272.701876 134.191602 
L 267.35066 133.422776 
L 262.697429 132.536128 
L 258.742182 131.560456 
L 255.48492 130.544969 
L 252.46032 129.365632 
L 249.901042 128.12356 
L 247.785912 126.865953 
L 245.855389 125.469013 
L 244.084503 123.901159 
L 242.688534 122.399495 
L 241.292564 120.568788 
L 240.129256 118.683857 
L 239.105351 116.621725 
L 238.196601 114.293491 
L 237.439035 111.732434 
L 236.847833 108.938554 
L 236.439819 105.91185 
L 236.396432 105.446203 
L 236.396432 105.446203 
" style="fill:none;stroke:#35b779;stroke-width:1.5;"/>
   </g>
   <g id="LineCollection_6">
    <path clip-path="url(#pf8ede6cf2d)" d="M 85.164321 187.865675 
L 84.988852 185.770264 
L 85.031073 183.674854 
L 85.292635 181.579444 
L 85.784026 179.484033 
L 86.430063 177.621446 
L 87.296171 175.75886 
L 88.433912 173.868638 
L 89.637652 172.266509 
L 91.225851 170.545761 
L 92.962076 169.006982 
L 94.948436 167.552225 
L 97.275052 166.145668 
L 99.834329 164.870734 
L 102.626268 163.72365 
L 105.88353 162.629713 
L 109.606115 161.626736 
L 113.794024 160.742245 
L 118.447255 159.996975 
L 123.56581 159.409093 
L 129.191915 158.995577 
L 134.966227 158.792492 
L 141.015427 158.803399 
L 146.831967 159.03057 
L 152.415844 159.464966 
L 157.534399 160.078272 
L 162.221402 160.858164 
L 166.459769 161.789458 
L 170.098124 162.808614 
L 173.355386 163.944821 
L 176.147325 165.139539 
L 178.706602 166.472143 
L 181.033218 167.950489 
L 182.999135 169.472629 
L 184.755803 171.134476 
L 186.151772 172.750767 
L 187.436672 174.594743 
L 188.478388 176.504004 
L 189.236612 178.319917 
L 189.863871 180.415327 
L 190.251157 182.510737 
L 190.414471 184.606147 
L 190.360258 186.701558 
L 190.086293 188.796968 
L 189.581592 190.892378 
L 188.922587 192.754965 
L 188.013065 194.670197 
L 186.905601 196.480139 
L 185.665222 198.109903 
L 184.057818 199.827067 
L 182.292374 201.36943 
L 180.335233 202.785085 
L 178.008617 204.178025 
L 175.44934 205.441596 
L 172.657401 206.579542 
L 169.400139 207.665462 
L 165.677554 208.661031 
L 161.489646 209.539334 
L 156.836414 210.278915 
L 151.71786 210.861788 
L 146.133982 211.268254 
L 140.317443 211.46935 
L 134.268242 211.454124 
L 128.451703 211.222565 
L 122.867825 210.783358 
L 117.74927 210.165129 
L 113.096039 209.385753 
L 108.908131 208.46236 
L 105.185546 207.414991 
L 101.899313 206.25872 
L 99.136345 205.06547 
L 96.537336 203.697663 
L 94.250452 202.22734 
L 92.265632 200.67096 
L 90.564163 199.041196 
L 89.131897 197.358573 
L 87.891894 195.548846 
L 86.888368 193.686259 
L 86.107297 191.781944 
L 85.508578 189.728261 
L 85.164321 187.865675 
L 85.164321 187.865675 
" style="fill:none;stroke:#90d743;stroke-width:1.5;"/>
    <path clip-path="url(#pf8ede6cf2d)" d="M 252.449126 103.117969 
L 252.382855 101.022559 
L 252.533986 98.927149 
L 252.925643 96.76032 
L 253.521868 94.736328 
L 254.321612 92.804153 
L 255.291865 91.011154 
L 256.57233 89.148567 
L 258.044197 87.434672 
L 259.672828 85.882748 
L 261.534121 84.415777 
L 263.628075 83.044845 
L 266.114884 81.69822 
L 268.74663 80.521875 
L 271.888602 79.369986 
L 275.261154 78.368111 
L 279.2164 77.431573 
L 283.63697 76.623179 
L 288.522863 75.962319 
L 293.874079 75.467291 
L 299.690618 75.160101 
L 305.739819 75.070772 
L 311.78902 75.208517 
L 317.605559 75.566054 
L 322.956776 76.114391 
L 327.842669 76.834522 
L 332.263238 77.70994 
L 336.038079 78.671516 
L 339.475747 79.7693 
L 342.500347 80.963654 
L 345.059625 82.194924 
L 347.406149 83.560807 
L 349.480195 85.024116 
L 351.341487 86.621485 
L 352.970118 88.338166 
L 354.305597 90.079861 
L 355.441655 91.942448 
L 356.322531 93.805035 
L 357.049597 95.900445 
L 357.52779 97.995855 
L 357.776975 100.091266 
L 357.80713 102.186676 
L 357.61946 104.282086 
L 357.206372 106.377497 
L 356.551053 108.472907 
L 355.742594 110.335494 
L 354.690556 112.198081 
L 353.435441 113.956583 
L 352.039472 115.546569 
L 350.399224 117.087371 
L 348.549548 118.527429 
L 346.455594 119.884484 
L 343.896317 121.253797 
L 341.194897 122.442309 
L 338.079778 123.565815 
L 334.589854 124.584053 
L 330.634607 125.500722 
L 326.214038 126.29146 
L 321.328145 126.936815 
L 315.976928 127.417571 
L 310.160389 127.711173 
L 304.111188 127.787615 
L 298.061987 127.636383 
L 292.245448 127.264967 
L 286.894232 126.701496 
L 282.008339 125.964771 
L 277.820431 125.123531 
L 273.865184 124.102844 
L 270.607922 123.049088 
L 267.583322 121.84511 
L 264.979831 120.579722 
L 262.613765 119.182782 
L 260.603475 117.745034 
L 258.742182 116.127275 
L 257.233398 114.526314 
L 255.950243 112.860919 
L 254.786935 110.970132 
L 253.856289 109.002729 
L 253.183978 107.075967 
L 252.692551 104.980556 
L 252.449126 103.117969 
L 252.449126 103.117969 
" style="fill:none;stroke:#90d743;stroke-width:1.5;"/>
   </g>
   <g id="LineCollection_7">
    <path clip-path="url(#pf8ede6cf2d)" d="M 105.647585 186.235911 
L 105.585534 184.838971 
L 105.73692 183.442031 
L 106.116192 182.017954 
L 106.706878 180.64815 
L 107.558485 179.25121 
L 108.694229 177.85427 
L 110.164132 176.45733 
L 111.700069 175.292062 
L 113.587143 174.129096 
L 115.942073 172.964979 
L 118.447255 171.978953 
L 121.471855 171.046308 
L 124.729117 170.287536 
L 128.219041 169.702323 
L 132.174288 169.280897 
L 136.129534 169.087545 
L 140.084781 169.109592 
L 144.040028 169.348515 
L 147.762613 169.785436 
L 151.252536 170.406395 
L 154.509798 171.207043 
L 157.301737 172.103486 
L 159.97384 173.197803 
L 162.223412 174.361919 
L 164.048923 175.536695 
L 165.766937 176.922976 
L 167.118517 178.319917 
L 168.155024 179.716857 
L 168.934816 181.146944 
L 169.441511 182.510737 
L 169.737407 183.907677 
L 169.817451 185.304618 
L 169.683968 186.701558 
L 169.33277 188.098498 
L 168.702154 189.593234 
L 167.922742 190.892378 
L 166.812318 192.289318 
L 165.372771 193.686259 
L 163.816261 194.887259 
L 161.954969 196.051207 
L 159.628353 197.219161 
L 157.069076 198.239854 
L 154.277137 199.118245 
L 151.019875 199.901773 
L 147.529951 200.508374 
L 143.807366 200.931967 
L 139.85212 201.157872 
L 135.896873 201.16726 
L 131.941626 200.960758 
L 128.219041 200.557309 
L 124.727215 199.97249 
L 121.471855 199.213676 
L 118.447255 198.281018 
L 115.887978 197.270735 
L 113.561362 196.116065 
L 111.700069 194.967293 
L 110.027176 193.686259 
L 108.587788 192.289318 
L 107.477179 190.892378 
L 106.647577 189.495438 
L 106.0672 188.098498 
L 105.716055 186.701558 
L 105.647585 186.235911 
L 105.647585 186.235911 
" style="fill:none;stroke:#fde725;stroke-width:1.5;"/>
    <path clip-path="url(#pf8ede6cf2d)" d="M 273.136831 103.117969 
L 272.985511 101.721029 
L 273.04776 100.324089 
L 273.325444 98.927149 
L 273.865184 97.447664 
L 274.57118 96.133268 
L 275.583861 94.736328 
L 276.90684 93.339388 
L 278.518416 92.006217 
L 280.147047 90.917243 
L 282.241001 89.776368 
L 284.751284 88.682921 
L 287.457012 87.751627 
L 290.616817 86.911738 
L 293.874079 86.268167 
L 297.596664 85.76195 
L 301.551911 85.456748 
L 305.507158 85.371768 
L 309.462404 85.501278 
L 313.417651 85.853434 
L 317.140236 86.41013 
L 320.63016 87.164322 
L 323.65476 88.041226 
L 326.446699 89.0876 
L 328.773315 90.191176 
L 330.867269 91.435114 
L 332.496372 92.640918 
L 333.996746 94.037858 
L 335.1582 95.434798 
L 336.032184 96.831739 
L 336.683808 98.319121 
L 337.040714 99.625619 
L 337.210037 101.022559 
L 337.149131 102.557002 
L 336.90623 103.816439 
L 336.423232 105.21338 
L 335.700493 106.61032 
L 334.711675 108.00726 
L 333.416678 109.4042 
L 331.797915 110.767514 
L 330.169284 111.871647 
L 328.07533 113.026335 
L 325.745587 114.060668 
L 322.956776 115.042389 
L 319.932175 115.866824 
L 316.674913 116.532411 
L 312.952328 117.060242 
L 309.229743 117.372428 
L 305.274496 117.489115 
L 301.319249 117.39139 
L 297.364003 117.073196 
L 293.641418 116.552501 
L 290.151494 115.838984 
L 287.081271 114.991961 
L 284.334955 114.012586 
L 281.864819 112.896551 
L 279.806573 111.732434 
L 278.053092 110.499665 
L 276.544081 109.171377 
L 275.261154 107.718977 
L 274.330507 106.322848 
L 273.632523 104.857683 
L 273.235441 103.583616 
L 273.136831 103.117969 
L 273.136831 103.117969 
" style="fill:none;stroke:#fde725;stroke-width:1.5;"/>
   </g>
   <g id="line2d_1">
    <path clip-path="url(#pf8ede6cf2d)" d="M 54 195.36 
L 388.8 195.36 
" style="fill:none;stroke:#ff0000;stroke-linecap:square;stroke-width:1.5;"/>
   </g>
   <g id="line2d_2">
    <path clip-path="url(#pf8ede6cf2d)" d="M 54 91.2 
L 388.8 91.2 
" style="fill:none;stroke:#ff0000;stroke-linecap:square;stroke-width:1.5;"/>
   </g>
   <g id="patch_3">
    <path d="M 54 252 
L 54 34.56 
" style="fill:none;stroke:#000000;stroke-linecap:square;stroke-linejoin:miter;stroke-width:0.8;"/>
   </g>
   <g id="patch_4">
    <path d="M 388.8 252 
L 388.8 34.56 
" style="fill:none;stroke:#000000;stroke-linecap:square;stroke-linejoin:miter;stroke-width:0.8;"/>
   </g>
   <g id="patch_5">
    <path d="M 54 252 
L 388.8 252 
" style="fill:none;stroke:#000000;stroke-linecap:square;stroke-linejoin:miter;stroke-width:0.8;"/>
   </g>
   <g id="patch_6">
    <path d="M 54 34.56 
L 388.8 34.56 
" style="fill:none;stroke:#000000;stroke-linecap:square;stroke-linejoin:miter;stroke-width:0.8;"/>
   </g>
  </g>
 </g>
 <defs>
  <clipPath id="pf8ede6cf2d">
   <rect height="217.44" width="334.8" x="54" y="34.56"/>
  </clipPath>
 </defs>
</svg>
