<?xml version="1.0" encoding="utf-8" standalone="no"?>
<!DOCTYPE svg PUBLIC "-//W3C//DTD SVG 1.1//EN"
  "http://www.w3.org/Graphics/SVG/1.1/DTD/svg11.dtd">
<!-- Created with matplotlib (http://matplotlib.org/) -->
<svg height="288pt" version="1.1" viewBox="0 0 432 288" width="432pt" xmlns="http://www.w3.org/2000/svg" xmlns:xlink="http://www.w3.org/1999/xlink">
 <defs>
  <style type="text/css">
*{stroke-linecap:butt;stroke-linejoin:round;}
  </style>
 </defs>
 <g id="figure_1">
  <g id="patch_1">
   <path d="M 0 288 
L 432 288 
L 432 0 
L 0 0 
z
" style="fill:#ffffff;"/>
  </g>
  <g id="axes_1">
   <g id="patch_2">
    <path d="M 54 252 
L 388.8 252 
L 388.8 34.56 
L 54 34.56 
z
" style="fill:#ffffff;"/>
   </g>
   <g id="matplotlib.axis_1"/>
   <g id="matplotlib.axis_2"/>
   <g id="LineCollection_1">
    <path clip-path="url(#p58438e49c2)" d="M 184.720823 209.285424 
L 184.988464 210.03322 
L 185.453787 210.692307 
L 186.384434 211.524425 
L 187.547741 212.253737 
L 188.943711 212.917686 
L 191.037665 213.682857 
L 193.596942 214.394199 
L 196.621543 215.036437 
L 200.576789 215.664042 
L 205.462682 216.210528 
L 211.04656 216.611493 
L 217.328423 216.842095 
L 224.075608 216.865392 
L 230.590132 216.67063 
L 236.671978 216.270125 
L 241.990549 215.695109 
L 246.178457 215.036437 
L 249.668381 214.277522 
L 252.46032 213.451075 
L 254.685907 212.544951 
L 256.182905 211.689493 
L 257.136711 210.915188 
L 257.706082 210.216718 
L 258.044197 209.438334 
L 258.107877 208.819777 
L 257.956536 208.121307 
L 257.567924 207.422837 
L 256.88089 206.682491 
L 255.950243 205.982162 
L 254.554274 205.207296 
L 252.692981 204.428871 
L 250.366366 203.685662 
L 247.109104 202.901653 
L 243.153857 202.201888 
L 238.378388 201.602253 
L 232.916748 201.15161 
L 226.867547 200.876012 
L 220.353023 200.801882 
L 213.838499 200.947814 
L 207.789298 201.299684 
L 202.347238 201.835076 
L 197.784851 202.502923 
L 194.195106 203.232017 
L 191.037665 204.108164 
L 188.943711 204.888983 
L 187.150534 205.793074 
L 185.91911 206.682491 
L 185.416334 207.190014 
L 184.946181 207.888484 
L 184.716554 208.586954 
L 184.720823 209.285424 
L 184.720823 209.285424 
" style="fill:none;stroke:#440154;stroke-width:1.5;"/>
    <path clip-path="url(#p58438e49c2)" d="M 184.716554 77.973046 
L 184.988464 78.747922 
L 185.453787 79.411298 
L 186.151772 80.075766 
L 187.31508 80.862171 
L 188.943711 81.671017 
L 190.867533 82.39669 
L 193.596942 83.181518 
L 197.086866 83.931432 
L 201.042113 84.557079 
L 205.928006 85.103364 
L 211.511883 85.503297 
L 217.793746 85.727539 
L 224.30827 85.739227 
L 230.822794 85.527511 
L 236.639333 85.124463 
L 241.757887 84.557079 
L 245.945796 83.888098 
L 249.435719 83.12323 
L 251.994997 82.37543 
L 254.321612 81.464226 
L 256.018961 80.534103 
L 257.113551 79.658613 
L 257.578874 79.120981 
L 257.956536 78.438693 
L 258.107877 77.740223 
L 258.025804 77.041752 
L 257.706082 76.343282 
L 257.113551 75.622961 
L 256.182905 74.870507 
L 254.786935 74.065615 
L 253.158304 73.362587 
L 251.06435 72.663878 
L 248.272411 71.949344 
L 245.015149 71.317761 
L 240.827241 70.717266 
L 235.476025 70.19267 
L 229.426824 69.837603 
L 222.9123 69.682583 
L 216.165115 69.744762 
L 209.883252 70.01516 
L 204.299375 70.460812 
L 199.413482 71.060265 
L 195.225573 71.799102 
L 191.968311 72.595925 
L 189.641696 73.362587 
L 187.654142 74.247872 
L 186.384434 75.035575 
L 185.453787 75.867693 
L 184.988464 76.52678 
L 184.755803 77.121666 
L 184.692123 77.740223 
L 184.716554 77.973046 
L 184.716554 77.973046 
" style="fill:none;stroke:#440154;stroke-width:1.5;"/>
   </g>
   <g id="LineCollection_2">
    <path clip-path="url(#p58438e49c2)" d="M 54 181.031229 
L 60.979847 180.91755 
L 67.26171 180.601737 
L 72.845587 180.10364 
L 77.498819 179.462356 
L 80.988742 178.763148 
L 83.780681 177.96279 
L 85.409312 177.306979 
L 86.57262 176.654945 
L 87.362548 175.991683 
L 87.811858 175.293213 
L 87.909098 174.827566 
L 87.848637 174.361919 
L 87.503266 173.722093 
L 86.994957 173.197803 
L 85.874635 172.453642 
L 84.246004 171.716683 
L 82.15205 171.030234 
L 79.360111 170.354043 
L 75.637526 169.699009 
L 70.984295 169.129455 
L 65.633079 168.70172 
L 59.351216 168.429162 
L 54 168.358768 
L 54 168.358768 
" style="fill:none;stroke:#443983;stroke-width:1.5;"/>
    <path clip-path="url(#p58438e49c2)" d="M 54 118.201232 
L 60.747186 118.089042 
L 67.029048 117.766659 
L 72.612926 117.255803 
L 77.266157 116.601384 
L 80.988742 115.836736 
L 83.548019 115.095835 
L 85.409312 114.344863 
L 86.57262 113.679658 
L 87.270605 113.105724 
L 87.759387 112.430904 
L 87.909098 111.732434 
L 87.735928 111.103463 
L 87.503266 110.739131 
L 86.848845 110.10267 
L 85.641974 109.365645 
L 84.013343 108.678077 
L 81.686727 107.970922 
L 78.429465 107.261616 
L 74.241557 106.621833 
L 69.588325 106.136121 
L 63.539124 105.7447 
L 57.0246 105.549993 
L 54 105.528771 
L 54 105.528771 
" style="fill:none;stroke:#443983;stroke-width:1.5;"/>
    <path clip-path="url(#p58438e49c2)" d="M 388.8 168.358768 
L 382.052814 168.470958 
L 375.770952 168.793341 
L 370.187074 169.304197 
L 365.533843 169.958616 
L 361.811258 170.723264 
L 359.251981 171.464165 
L 357.390688 172.215137 
L 356.22738 172.880342 
L 355.529395 173.454276 
L 355.040613 174.129096 
L 354.890902 174.827566 
L 355.064072 175.456537 
L 355.296734 175.820869 
L 355.951155 176.45733 
L 357.158026 177.194355 
L 358.786657 177.881923 
L 361.113273 178.589078 
L 364.370535 179.298384 
L 368.558443 179.938167 
L 373.211675 180.423879 
L 379.260876 180.8153 
L 385.7754 181.010007 
L 388.8 181.031229 
L 388.8 181.031229 
" style="fill:none;stroke:#443983;stroke-width:1.5;"/>
    <path clip-path="url(#p58438e49c2)" d="M 388.8 105.528771 
L 381.820153 105.64245 
L 375.53829 105.958263 
L 369.954413 106.45636 
L 365.301181 107.097644 
L 361.811258 107.796852 
L 359.019319 108.59721 
L 357.390688 109.253021 
L 356.22738 109.905055 
L 355.437452 110.568317 
L 354.988142 111.266787 
L 354.890902 111.732434 
L 354.951363 112.198081 
L 355.296734 112.837907 
L 355.805043 113.362197 
L 356.925365 114.106358 
L 358.553996 114.843317 
L 360.64795 115.529766 
L 363.439889 116.205957 
L 367.162474 116.860991 
L 371.815705 117.430545 
L 377.166921 117.85828 
L 383.448784 118.130838 
L 388.8 118.201232 
L 388.8 118.201232 
" style="fill:none;stroke:#443983;stroke-width:1.5;"/>
    <path clip-path="url(#p58438e49c2)" d="M 166.584635 209.751071 
L 166.874255 210.682364 
L 167.386569 211.613658 
L 168.236831 212.638324 
L 169.183545 213.476245 
L 170.563447 214.41109 
L 172.424739 215.374461 
L 174.751355 216.298363 
L 177.724557 217.201419 
L 181.265879 218.017849 
L 185.453787 218.747526 
L 190.572342 219.406745 
L 196.854204 219.979376 
L 204.066713 220.413055 
L 212.675191 220.704208 
L 222.214315 220.796516 
L 231.75344 220.665238 
L 240.361918 220.332047 
L 247.807088 219.831535 
L 253.856289 219.219342 
L 258.974844 218.488219 
L 263.17804 217.667065 
L 266.652675 216.753273 
L 269.211953 215.866489 
L 271.305907 214.924724 
L 272.934538 213.96917 
L 274.097846 213.077037 
L 275.028492 212.125177 
L 275.563445 211.380834 
L 276.018342 210.449541 
L 276.254654 209.518248 
L 276.283126 208.586954 
L 276.106288 207.655661 
L 275.718766 206.724367 
L 275.028492 205.697329 
L 274.097846 204.727481 
L 272.934538 203.814952 
L 271.538568 202.956761 
L 269.444614 201.953813 
L 267.117999 201.085897 
L 264.093398 200.20458 
L 260.370813 199.373062 
L 255.950243 198.625793 
L 250.831689 197.98342 
L 244.549826 197.421345 
L 237.337318 196.996861 
L 228.961501 196.725396 
L 219.8877 196.653189 
L 210.813899 196.799361 
L 202.438082 197.1505 
L 195.225573 197.665697 
L 188.943711 198.33845 
L 184.057818 199.072135 
L 179.86991 199.919979 
L 176.612648 200.790209 
L 173.820709 201.762984 
L 171.726755 202.709736 
L 170.036097 203.697663 
L 168.702154 204.727481 
L 167.771508 205.697329 
L 167.212546 206.491544 
L 166.770455 207.422837 
L 166.541749 208.354131 
L 166.518986 209.285424 
L 166.584635 209.751071 
L 166.584635 209.751071 
" style="fill:none;stroke:#443983;stroke-width:1.5;"/>
    <path clip-path="url(#p58438e49c2)" d="M 166.579437 78.438693 
L 166.860457 79.369986 
L 167.358068 80.30128 
L 168.236831 81.385484 
L 169.167477 82.226812 
L 170.563447 83.198646 
L 172.192078 84.082233 
L 174.286032 84.978784 
L 177.077971 85.909258 
L 180.335233 86.747076 
L 184.290479 87.528356 
L 189.176372 88.251072 
L 194.992912 88.873517 
L 201.740097 89.36933 
L 209.650591 89.725201 
L 218.49173 89.898764 
L 227.798193 89.856171 
L 236.639333 89.594201 
L 244.549826 89.138655 
L 251.297012 88.526043 
L 256.648228 87.829835 
L 261.068798 87.047936 
L 264.791383 86.171152 
L 267.583322 85.31612 
L 269.909937 84.405252 
L 271.77123 83.472944 
L 273.399861 82.408935 
L 274.486127 81.465396 
L 275.281778 80.534103 
L 275.835955 79.602809 
L 276.1918 78.571248 
L 276.295215 77.740223 
L 276.1918 76.703968 
L 275.925745 75.877636 
L 275.413431 74.946342 
L 274.563169 73.921676 
L 273.616455 73.083755 
L 272.236553 72.14891 
L 270.375261 71.185539 
L 268.048645 70.261637 
L 265.075443 69.358581 
L 261.534121 68.542151 
L 257.346213 67.812474 
L 252.227658 67.153255 
L 245.945796 66.580624 
L 238.733287 66.146945 
L 230.124809 65.855792 
L 220.585685 65.763484 
L 211.04656 65.894762 
L 202.438082 66.227953 
L 194.992912 66.728465 
L 188.943711 67.340658 
L 183.825156 68.071781 
L 179.62196 68.892935 
L 176.147325 69.806727 
L 173.588047 70.693511 
L 171.494093 71.635276 
L 169.865462 72.59083 
L 168.702154 73.482963 
L 167.771508 74.434823 
L 167.236555 75.179166 
L 166.781658 76.110459 
L 166.545346 77.041752 
L 166.516874 77.973046 
L 166.579437 78.438693 
L 166.579437 78.438693 
" style="fill:none;stroke:#443983;stroke-width:1.5;"/>
    <path clip-path="url(#p58438e49c2)" d="M 195.440649 143.629235 
L 195.721298 144.094882 
L 196.388881 144.661639 
L 197.319527 145.174862 
L 198.719347 145.724645 
L 201.292539 146.423115 
L 204.764698 147.05578 
L 208.719944 147.537493 
L 213.373176 147.890318 
L 218.957054 148.088646 
L 224.773593 148.071086 
L 230.35747 147.835653 
L 235.010702 147.441244 
L 239.100446 146.888762 
L 242.455872 146.196606 
L 244.317165 145.641314 
L 245.792022 145.026175 
L 246.876442 144.302136 
L 247.247438 143.862058 
L 247.414843 143.396412 
L 247.341765 142.893889 
L 247.078702 142.465118 
L 246.411119 141.898361 
L 245.480473 141.385138 
L 244.080653 140.835355 
L 241.507461 140.136885 
L 238.035302 139.50422 
L 234.080056 139.022507 
L 229.426824 138.669682 
L 223.842946 138.471354 
L 218.026407 138.488914 
L 212.44253 138.724347 
L 207.789298 139.118756 
L 203.699554 139.671238 
L 200.344128 140.363394 
L 198.482835 140.918686 
L 197.007978 141.533825 
L 195.923558 142.257864 
L 195.552562 142.697942 
L 195.385157 143.163588 
L 195.440649 143.629235 
L 195.440649 143.629235 
" style="fill:none;stroke:#443983;stroke-width:1.5;"/>
   </g>
   <g id="LineCollection_3">
    <path clip-path="url(#p58438e49c2)" d="M 54 185.969284 
L 66.331063 185.857332 
L 77.266157 185.542824 
L 86.107297 185.075344 
L 92.854482 184.515286 
L 98.43836 183.835428 
L 102.626268 183.115828 
L 106.116192 182.291996 
L 108.675469 181.4757 
L 110.769423 180.588729 
L 112.398054 179.666751 
L 113.563218 178.785563 
L 114.492008 177.819555 
L 115.088422 176.922976 
L 115.472216 175.991683 
L 115.639155 175.060389 
L 115.599945 174.129096 
L 115.354886 173.197803 
L 114.893813 172.266509 
L 114.194948 171.335216 
L 113.096039 170.302817 
L 111.918473 169.472629 
L 110.071438 168.482693 
L 107.925269 167.610042 
L 105.185546 166.760849 
L 101.865411 165.980278 
L 97.740375 165.255068 
L 92.499735 164.583338 
L 86.107297 164.007587 
L 78.196803 163.533015 
L 68.657679 163.192742 
L 57.722585 163.025794 
L 54 163.014651 
L 54 163.014651 
" style="fill:none;stroke:#31688e;stroke-width:1.5;"/>
    <path clip-path="url(#p58438e49c2)" d="M 54 123.545349 
L 65.633079 123.434544 
L 76.102849 123.120456 
L 84.943989 122.636425 
L 91.923836 122.037618 
L 97.275052 121.373991 
L 101.695622 120.613924 
L 105.185546 119.799151 
L 107.977484 118.931082 
L 110.3041 117.967433 
L 111.932731 117.078314 
L 113.3287 116.065271 
L 114.259347 115.149834 
L 114.957331 114.185582 
L 115.354886 113.362197 
L 115.599945 112.430904 
L 115.639155 111.499611 
L 115.472216 110.568317 
L 115.088422 109.637024 
L 114.464939 108.70573 
L 113.561362 107.772848 
L 112.32262 106.843143 
L 110.648778 105.91185 
L 108.675469 105.0843 
L 106.116192 104.268004 
L 102.85893 103.491555 
L 98.903683 102.793853 
L 94.01779 102.166283 
L 87.735928 101.600464 
L 80.058096 101.140187 
L 70.518972 100.79541 
L 59.118555 100.609649 
L 54 100.590716 
L 54 100.590716 
" style="fill:none;stroke:#31688e;stroke-width:1.5;"/>
    <path clip-path="url(#p58438e49c2)" d="M 388.8 163.014651 
L 377.166921 163.125456 
L 366.697151 163.439544 
L 357.856011 163.923575 
L 350.876164 164.522382 
L 345.524948 165.186009 
L 341.104378 165.946076 
L 337.614454 166.760849 
L 334.822516 167.628918 
L 332.4959 168.592567 
L 330.867269 169.481686 
L 329.4713 170.494729 
L 328.540653 171.410166 
L 327.842669 172.374418 
L 327.445114 173.197803 
L 327.200055 174.129096 
L 327.160845 175.060389 
L 327.327784 175.991683 
L 327.711578 176.922976 
L 328.335061 177.85427 
L 329.238638 178.787152 
L 330.47738 179.716857 
L 332.151222 180.64815 
L 334.124531 181.4757 
L 336.683808 182.291996 
L 339.94107 183.068445 
L 343.896317 183.766147 
L 348.78221 184.393717 
L 355.064072 184.959536 
L 362.741904 185.419813 
L 372.281028 185.76459 
L 383.681445 185.950351 
L 388.8 185.969284 
L 388.8 185.969284 
" style="fill:none;stroke:#31688e;stroke-width:1.5;"/>
    <path clip-path="url(#p58438e49c2)" d="M 388.8 100.590716 
L 376.468937 100.702668 
L 365.533843 101.017176 
L 356.692703 101.484656 
L 349.945518 102.044714 
L 344.36164 102.724572 
L 340.173732 103.444172 
L 336.683808 104.268004 
L 334.124531 105.0843 
L 332.030577 105.971271 
L 330.401946 106.893249 
L 329.236782 107.774437 
L 328.307992 108.740445 
L 327.711578 109.637024 
L 327.327784 110.568317 
L 327.160845 111.499611 
L 327.200055 112.430904 
L 327.445114 113.362197 
L 327.906187 114.293491 
L 328.605052 115.224784 
L 329.703961 116.257183 
L 330.881527 117.087371 
L 332.728562 118.077307 
L 334.874731 118.949958 
L 337.614454 119.799151 
L 340.934589 120.579722 
L 345.059625 121.304932 
L 350.300265 121.976662 
L 356.692703 122.552413 
L 364.603197 123.026985 
L 374.142321 123.367258 
L 385.077415 123.534206 
L 388.8 123.545349 
L 388.8 123.545349 
" style="fill:none;stroke:#31688e;stroke-width:1.5;"/>
    <path clip-path="url(#p58438e49c2)" d="M 151.689781 210.449541 
L 152.029415 211.846481 
L 152.61564 213.243421 
L 153.346491 214.429613 
L 154.303234 215.571655 
L 155.61222 216.735772 
L 157.069076 217.718321 
L 158.930368 218.682463 
L 161.059202 219.529652 
L 163.816261 220.364963 
L 167.073523 221.106645 
L 171.02877 221.776683 
L 176.147325 222.404752 
L 182.661849 222.960329 
L 190.805003 223.41913 
L 201.042113 223.767726 
L 213.838499 223.974124 
L 228.030855 223.981301 
L 241.525226 223.773465 
L 252.692981 223.387299 
L 261.301459 222.876046 
L 267.815983 222.280189 
L 272.934538 221.600206 
L 276.889785 220.86577 
L 280.147047 220.041118 
L 282.706324 219.172107 
L 284.800278 218.232813 
L 286.544429 217.201419 
L 287.824878 216.211418 
L 288.988186 215.026138 
L 289.78318 213.941892 
L 290.510967 212.544951 
L 290.96891 211.148011 
L 291.197453 209.751071 
L 291.216485 208.354131 
L 291.029575 206.957191 
L 290.616817 205.539434 
L 289.972886 204.16331 
L 289.203745 202.999193 
L 288.05754 201.717418 
L 286.824295 200.67096 
L 285.265601 199.644361 
L 283.404309 198.691447 
L 281.077693 197.770632 
L 278.285754 196.924296 
L 274.79583 196.125189 
L 270.607922 195.412079 
L 265.489368 194.775449 
L 258.974844 194.203727 
L 250.831689 193.726312 
L 240.827241 193.36868 
L 228.496178 193.158679 
L 215.001807 193.152939 
L 202.20542 193.362624 
L 191.502988 193.748326 
L 182.89451 194.27306 
L 176.147325 194.902598 
L 171.02877 195.589124 
L 166.840862 196.366471 
L 163.5836 197.181468 
L 160.791523 198.109903 
L 158.656627 199.041196 
L 156.836414 200.072327 
L 155.388235 201.136606 
L 154.176582 202.300723 
L 153.261068 203.46484 
L 152.467598 204.86178 
L 151.94417 206.25872 
L 151.650854 207.655661 
L 151.56742 209.052601 
L 151.689781 210.449541 
L 151.689781 210.449541 
" style="fill:none;stroke:#31688e;stroke-width:1.5;"/>
    <path clip-path="url(#p58438e49c2)" d="M 151.684822 79.137163 
L 152.014648 80.534103 
L 152.579663 81.931043 
L 153.346491 83.218025 
L 154.277137 84.368391 
L 155.440445 85.466568 
L 156.991784 86.58751 
L 158.697707 87.539027 
L 160.791661 88.45015 
L 163.350938 89.310409 
L 166.375539 90.09073 
L 170.098124 90.818418 
L 174.751355 91.492278 
L 180.567894 92.097044 
L 187.780403 92.614387 
L 196.854204 93.033748 
L 208.02196 93.321274 
L 221.051008 93.431752 
L 234.545379 93.325191 
L 246.411119 93.016939 
L 255.950243 92.558503 
L 263.395413 91.992248 
L 269.211953 91.34283 
L 273.865184 90.612746 
L 277.587769 89.814912 
L 280.707445 88.915744 
L 283.171647 87.97257 
L 285.265601 86.915639 
L 286.894232 85.835849 
L 288.178713 84.724924 
L 289.220848 83.537961 
L 290.100594 82.163866 
L 290.708405 80.766926 
L 291.08214 79.330454 
L 291.227525 77.973046 
L 291.174235 76.576106 
L 290.909328 75.179166 
L 290.384156 73.726801 
L 289.686171 72.468824 
L 288.921077 71.453992 
L 287.758312 70.289875 
L 286.428909 69.281219 
L 284.800278 68.327187 
L 282.938985 67.479854 
L 280.61237 66.659604 
L 277.655743 65.866231 
L 274.097846 65.152382 
L 269.677276 64.499892 
L 264.093398 63.910957 
L 257.113551 63.404871 
L 248.03975 62.981946 
L 236.639333 62.684157 
L 223.144962 62.556637 
L 208.952606 62.640072 
L 196.388881 62.925987 
L 186.384434 63.364328 
L 178.706602 63.910957 
L 172.890063 64.529467 
L 168.236831 65.234578 
L 164.514246 66.017358 
L 161.722307 66.806841 
L 159.264816 67.728818 
L 157.301737 68.706006 
L 155.673106 69.778109 
L 154.509798 70.780494 
L 153.5023 71.919638 
L 152.648506 73.25495 
L 152.108892 74.480695 
L 151.71786 75.950653 
L 151.573413 77.274576 
L 151.622675 78.671516 
L 151.684822 79.137163 
L 151.684822 79.137163 
" style="fill:none;stroke:#31688e;stroke-width:1.5;"/>
    <path clip-path="url(#p58438e49c2)" d="M 162.158052 144.094882 
L 162.483427 145.026175 
L 163.118277 146.024772 
L 163.932981 146.888762 
L 165.212231 147.864593 
L 166.840862 148.781439 
L 168.97115 149.682643 
L 171.726755 150.555997 
L 174.891335 151.312406 
L 178.939263 152.036255 
L 184.117457 152.709346 
L 190.33968 153.277094 
L 198.017512 153.744895 
L 207.323975 154.08208 
L 218.026407 154.245893 
L 229.426824 154.200367 
L 240.129256 153.93962 
L 249.203058 153.501362 
L 256.415566 152.941174 
L 262.232106 152.27309 
L 266.73685 151.545229 
L 270.375261 150.741291 
L 273.170998 149.915466 
L 275.532086 148.984172 
L 277.355108 148.013022 
L 278.599109 147.121586 
L 279.547337 146.190292 
L 280.196333 145.258999 
L 280.61237 144.212691 
L 280.729316 143.396412 
L 280.641948 142.465118 
L 280.316573 141.533825 
L 279.681723 140.535228 
L 278.867019 139.671238 
L 277.587769 138.695407 
L 275.959138 137.778561 
L 273.82885 136.877357 
L 271.073245 136.004003 
L 267.908665 135.247594 
L 263.860737 134.523745 
L 258.682543 133.850654 
L 252.46032 133.282906 
L 244.782488 132.815105 
L 235.476025 132.47792 
L 224.773593 132.314107 
L 213.373176 132.359633 
L 202.670744 132.62038 
L 193.596942 133.058638 
L 186.384434 133.618826 
L 180.567894 134.28691 
L 176.06315 135.014771 
L 172.424739 135.818709 
L 169.629002 136.644534 
L 167.267914 137.575828 
L 165.444892 138.546978 
L 164.200891 139.438414 
L 163.252663 140.369708 
L 162.603667 141.301001 
L 162.18763 142.347309 
L 162.070684 143.163588 
L 162.158052 144.094882 
L 162.158052 144.094882 
" style="fill:none;stroke:#31688e;stroke-width:1.5;"/>
   </g>
   <g id="LineCollection_4">
    <path clip-path="url(#p58438e49c2)" d="M 54 189.69801 
L 137.7 189.728261 
L 137.7 226.747177 
L 137.525504 226.98 
L 54 226.98 
L 54 226.98 
" style="fill:none;stroke:#21918c;stroke-width:1.5;"/>
    <path clip-path="url(#p58438e49c2)" d="M 54 127.867434 
L 137.7 127.797246 
L 137.758165 96.86199 
L 305.041835 96.86199 
L 305.1 97.297385 
L 305.1 127.797246 
L 305.507158 127.867434 
L 388.8 127.867434 
L 388.8 127.867434 
" style="fill:none;stroke:#21918c;stroke-width:1.5;"/>
    <path clip-path="url(#p58438e49c2)" d="M 54 59.58 
L 137.525504 59.58 
L 137.7 59.812823 
L 137.7 96.831739 
L 137.060181 96.86199 
L 54 96.86199 
L 54 96.86199 
" style="fill:none;stroke:#21918c;stroke-width:1.5;"/>
    <path clip-path="url(#p58438e49c2)" d="M 388.8 226.98 
L 305.274496 226.98 
L 305.1 226.747177 
L 305.1 189.728261 
L 305.739819 189.69801 
L 388.8 189.69801 
L 388.8 189.69801 
" style="fill:none;stroke:#21918c;stroke-width:1.5;"/>
    <path clip-path="url(#p58438e49c2)" d="M 388.8 158.692566 
L 305.1 158.762754 
L 305.041835 189.69801 
L 137.758165 189.69801 
L 137.7 189.262615 
L 137.7 158.762754 
L 137.292842 158.692566 
L 54 158.692566 
L 54 158.692566 
" style="fill:none;stroke:#21918c;stroke-width:1.5;"/>
    <path clip-path="url(#p58438e49c2)" d="M 388.8 96.86199 
L 305.1 96.831739 
L 305.1 59.812823 
L 305.274496 59.58 
L 388.8 59.58 
L 388.8 59.58 
" style="fill:none;stroke:#21918c;stroke-width:1.5;"/>
    <path clip-path="url(#p58438e49c2)" d="M 137.7 158.52993 
L 137.758165 158.692566 
L 305.041835 158.692566 
L 305.1 158.297107 
L 305.041835 127.867434 
L 137.758165 127.867434 
L 137.7 128.262893 
L 137.7 158.52993 
L 137.7 158.52993 
" style="fill:none;stroke:#21918c;stroke-width:1.5;"/>
   </g>
   <g id="LineCollection_5">
    <path clip-path="url(#p58438e49c2)" d="M 54 193.128175 
L 67.494371 193.240713 
L 79.360111 193.555958 
L 88.899236 194.023177 
L 96.344406 194.600551 
L 102.160945 195.264163 
L 106.825705 196.014492 
L 110.536762 196.833478 
L 113.561362 197.730483 
L 115.887978 198.639152 
L 117.74927 199.577271 
L 119.424304 200.67096 
L 120.778751 201.835076 
L 121.803717 202.999193 
L 122.635163 204.276301 
L 123.224818 205.56025 
L 123.629572 206.957191 
L 123.816509 208.354131 
L 123.797486 209.751071 
L 123.56581 211.160308 
L 123.100486 212.569322 
L 122.383205 213.941892 
L 121.471855 215.162256 
L 120.308548 216.312575 
L 118.912578 217.355673 
L 117.283947 218.292333 
L 115.422655 219.126375 
L 112.902017 219.995299 
L 110.071438 220.736088 
L 106.348853 221.467014 
L 101.695622 222.131806 
L 95.879083 222.719174 
L 88.666574 223.215385 
L 79.360111 223.622444 
L 67.727033 223.900952 
L 54 224.004994 
L 54 224.004994 
" style="fill:none;stroke:#35b779;stroke-width:1.5;"/>
    <path clip-path="url(#p58438e49c2)" d="M 54 132.304432 
L 65.400417 132.416875 
L 75.637526 132.735237 
L 84.246004 133.222748 
L 90.99319 133.81946 
L 96.344406 134.506057 
L 100.532314 135.252554 
L 104.022238 136.10156 
L 106.581515 136.934664 
L 108.675469 137.835922 
L 110.3041 138.772126 
L 111.467408 139.671538 
L 112.398054 140.686945 
L 112.916579 141.533825 
L 113.241917 142.465118 
L 113.3287 143.40729 
L 113.183335 144.327705 
L 112.796323 145.258999 
L 112.147382 146.190292 
L 111.199136 147.121586 
L 109.838777 148.08478 
L 108.132059 148.984172 
L 105.88353 149.876381 
L 103.324253 150.650417 
L 99.834329 151.448398 
L 95.646421 152.157667 
L 90.527867 152.789677 
L 84.013343 153.353966 
L 76.102849 153.80426 
L 66.563725 154.118435 
L 55.628631 154.253316 
L 54 154.255568 
L 54 154.255568 
" style="fill:none;stroke:#35b779;stroke-width:1.5;"/>
    <path clip-path="url(#p58438e49c2)" d="M 54 62.555006 
L 68.192356 62.66646 
L 80.523419 62.97778 
L 90.295205 63.439831 
L 97.740375 64.006063 
L 103.556915 64.668078 
L 108.056933 65.400584 
L 111.467408 66.164549 
L 114.340775 67.030348 
L 116.654009 67.961641 
L 118.447255 68.911167 
L 119.843224 69.867545 
L 121.096744 70.988345 
L 122.069608 72.152462 
L 122.867825 73.482619 
L 123.370598 74.713519 
L 123.710202 76.110459 
L 123.832594 77.507399 
L 123.749151 78.904339 
L 123.455799 80.30128 
L 122.932398 81.69822 
L 122.16984 83.048694 
L 121.427858 84.026453 
L 120.281769 85.19057 
L 118.912578 86.25523 
L 117.283947 87.239963 
L 115.422655 88.122385 
L 113.096039 88.985331 
L 110.3041 89.785712 
L 106.814177 90.547687 
L 102.393607 91.263934 
L 97.042391 91.89163 
L 90.295205 92.445952 
L 81.919388 92.901469 
L 71.449618 93.239996 
L 58.885893 93.41742 
L 54 93.431825 
L 54 93.431825 
" style="fill:none;stroke:#35b779;stroke-width:1.5;"/>
    <path clip-path="url(#p58438e49c2)" d="M 388.8 224.004994 
L 374.607644 223.89354 
L 362.276581 223.58222 
L 352.504795 223.120169 
L 345.059625 222.553937 
L 339.243085 221.891922 
L 334.743067 221.159416 
L 331.332592 220.395451 
L 328.459225 219.529652 
L 326.145991 218.598359 
L 324.352745 217.648833 
L 322.956776 216.692455 
L 321.703256 215.571655 
L 320.730392 214.407538 
L 319.932175 213.077381 
L 319.429402 211.846481 
L 319.089798 210.449541 
L 318.967406 209.052601 
L 319.050849 207.655661 
L 319.344201 206.25872 
L 319.867602 204.86178 
L 320.63016 203.511306 
L 321.372142 202.533547 
L 322.518231 201.36943 
L 323.887422 200.30477 
L 325.516053 199.320037 
L 327.377345 198.437615 
L 329.703961 197.574669 
L 332.4959 196.774288 
L 335.985823 196.012313 
L 340.406393 195.296066 
L 345.757609 194.66837 
L 352.504795 194.114048 
L 360.880612 193.658531 
L 371.350382 193.320004 
L 383.914107 193.14258 
L 388.8 193.128175 
L 388.8 193.128175 
" style="fill:none;stroke:#35b779;stroke-width:1.5;"/>
    <path clip-path="url(#p58438e49c2)" d="M 388.8 154.255568 
L 377.399583 154.143125 
L 367.162474 153.824763 
L 358.553996 153.337252 
L 351.80681 152.74054 
L 346.455594 152.053943 
L 342.267686 151.307446 
L 338.777762 150.45844 
L 336.218485 149.625336 
L 334.124531 148.724078 
L 332.4959 147.787874 
L 331.332592 146.888462 
L 330.401946 145.873055 
L 329.883421 145.026175 
L 329.558083 144.094882 
L 329.4713 143.15271 
L 329.616665 142.232295 
L 330.003677 141.301001 
L 330.652618 140.369708 
L 331.600864 139.438414 
L 332.961223 138.47522 
L 334.667941 137.575828 
L 336.91647 136.683619 
L 339.475747 135.909583 
L 342.965671 135.111602 
L 347.153579 134.402333 
L 352.272133 133.770323 
L 358.786657 133.206034 
L 366.697151 132.75574 
L 376.236275 132.441565 
L 387.171369 132.306684 
L 388.8 132.304432 
L 388.8 132.304432 
" style="fill:none;stroke:#35b779;stroke-width:1.5;"/>
    <path clip-path="url(#p58438e49c2)" d="M 388.8 93.431825 
L 375.305629 93.319287 
L 363.439889 93.004042 
L 353.900764 92.536823 
L 346.455594 91.959449 
L 340.639055 91.295837 
L 335.974295 90.545508 
L 332.263238 89.726522 
L 329.238638 88.829517 
L 326.912022 87.920848 
L 325.05073 86.982729 
L 323.375696 85.88904 
L 322.021249 84.724924 
L 320.996283 83.560807 
L 320.164837 82.283699 
L 319.575182 80.99975 
L 319.170428 79.602809 
L 318.983491 78.205869 
L 319.002514 76.808929 
L 319.23419 75.399692 
L 319.699514 73.990678 
L 320.416795 72.618108 
L 321.328145 71.397744 
L 322.491452 70.247425 
L 323.887422 69.204327 
L 325.516053 68.267667 
L 327.377345 67.433625 
L 329.897983 66.564701 
L 332.728562 65.823912 
L 336.451147 65.092986 
L 341.104378 64.428194 
L 346.920917 63.840826 
L 354.133426 63.344615 
L 363.439889 62.937556 
L 375.072967 62.659048 
L 388.8 62.555006 
L 388.8 62.555006 
" style="fill:none;stroke:#35b779;stroke-width:1.5;"/>
    <path clip-path="url(#p58438e49c2)" d="M 159.818145 175.526036 
L 159.754968 174.594743 
L 159.896452 173.663449 
L 160.326338 172.581614 
L 160.823997 171.800862 
L 161.722307 170.80623 
L 162.885615 169.867243 
L 164.282658 169.006982 
L 166.258278 168.075688 
L 168.702154 167.200659 
L 171.494093 166.433437 
L 175.216678 165.658371 
L 179.637248 164.974964 
L 185.221126 164.348911 
L 192.200973 163.807819 
L 200.809451 163.379269 
L 211.04656 163.102052 
L 222.679639 163.015965 
L 234.312717 163.151818 
L 244.549826 163.484864 
L 253.158304 163.981836 
L 259.90549 164.583949 
L 265.317164 165.281808 
L 269.677276 166.06628 
L 273.167199 166.922048 
L 275.959138 167.84435 
L 278.073461 168.774159 
L 279.681723 169.707009 
L 280.893585 170.636745 
L 281.793685 171.568039 
L 282.473662 172.581614 
L 282.835812 173.430626 
L 283.028864 174.361919 
L 283.016946 175.293213 
L 282.797254 176.224506 
L 282.356218 177.1558 
L 281.667474 178.087093 
L 280.61237 179.077981 
L 279.2164 180.027649 
L 277.546707 180.880974 
L 275.261154 181.761207 
L 272.694862 182.510737 
L 269.211953 183.274807 
L 265.024044 183.951347 
L 259.672828 184.573234 
L 253.158304 185.098513 
L 244.782488 185.538146 
L 234.545379 185.84166 
L 222.679639 185.968105 
L 210.348575 185.879763 
L 199.18082 185.583534 
L 190.107019 185.128744 
L 183.127172 184.573234 
L 177.460861 183.907677 
L 173.122724 183.185614 
L 169.632801 182.386431 
L 167.009245 181.579444 
L 164.746908 180.646068 
L 163.077361 179.716857 
L 161.722307 178.681421 
L 160.935093 177.85427 
L 160.311535 176.922976 
L 159.927793 175.991683 
L 159.818145 175.526036 
L 159.818145 175.526036 
" style="fill:none;stroke:#35b779;stroke-width:1.5;"/>
    <path clip-path="url(#p58438e49c2)" d="M 159.841779 112.663727 
L 159.751544 111.732434 
L 159.866302 110.80114 
L 160.194284 109.869847 
L 160.791661 108.890726 
L 161.58247 108.00726 
L 162.731053 107.075967 
L 164.2851 106.144673 
L 166.378467 105.21338 
L 168.934816 104.36698 
L 171.959416 103.613835 
L 175.44934 102.958397 
L 180.102571 102.31164 
L 185.91911 101.736517 
L 193.131619 101.252083 
L 202.438082 100.86501 
L 213.373176 100.637538 
L 225.704239 100.604089 
L 237.802641 100.792378 
L 248.03975 101.168335 
L 256.182905 101.68042 
L 262.464767 102.284365 
L 267.35066 102.958397 
L 271.305907 103.71683 
L 274.369618 104.51491 
L 276.889785 105.399257 
L 278.751077 106.27074 
L 280.147047 107.131958 
L 281.310354 108.098814 
L 282.045077 108.938554 
L 282.605716 109.869847 
L 282.938985 110.826612 
L 283.048456 111.732434 
L 282.938985 112.745866 
L 282.660516 113.595021 
L 282.142518 114.526314 
L 281.310354 115.526796 
L 280.329838 116.388901 
L 278.931652 117.320195 
L 277.088268 118.251488 
L 274.79583 119.132861 
L 272.236553 119.892522 
L 268.74663 120.683076 
L 264.558721 121.390968 
L 259.440167 122.025461 
L 252.925643 122.595068 
L 245.015149 123.054092 
L 235.476025 123.381581 
L 224.30827 123.538553 
L 212.675191 123.483569 
L 201.740097 123.215032 
L 192.666296 122.781155 
L 185.204049 122.209485 
L 179.171925 121.522631 
L 174.727596 120.812545 
L 171.02877 120.011457 
L 168.00417 119.132861 
L 165.677554 118.236172 
L 163.816261 117.289291 
L 162.420292 116.349596 
L 161.256984 115.281285 
L 160.558999 114.375202 
L 160.093676 113.482363 
L 159.841779 112.663727 
L 159.841779 112.663727 
" style="fill:none;stroke:#35b779;stroke-width:1.5;"/>
   </g>
   <g id="LineCollection_6">
    <path clip-path="url(#p58438e49c2)" d="M 54 196.650211 
L 63.073801 196.759147 
L 71.682279 197.081635 
L 79.12745 197.576213 
L 85.409312 198.208429 
L 90.527867 198.933796 
L 94.739188 199.739666 
L 98.391476 200.67096 
L 101.230299 201.625754 
L 103.556915 202.650644 
L 105.185546 203.581183 
L 106.588144 204.628957 
L 107.515911 205.56025 
L 108.210146 206.531507 
L 108.675469 207.561797 
L 108.858262 208.354131 
L 108.881054 209.285424 
L 108.675469 210.281489 
L 108.298577 211.148011 
L 107.667081 212.079305 
L 106.774013 213.010598 
L 105.418207 214.046004 
L 103.789576 214.983792 
L 101.695622 215.911955 
L 99.136345 216.788207 
L 95.879083 217.643783 
L 92.156498 218.388902 
L 87.270605 219.118419 
L 81.454065 219.741133 
L 74.70688 220.235288 
L 66.563725 220.600711 
L 57.489924 220.78256 
L 54 220.797318 
L 54 220.797318 
" style="fill:none;stroke:#90d743;stroke-width:1.5;"/>
    <path clip-path="url(#p58438e49c2)" d="M 54 138.452026 
L 59.816539 138.564586 
L 65.167755 138.886421 
L 69.588325 139.356705 
L 73.078249 139.921721 
L 75.933771 140.602531 
L 77.964142 141.330331 
L 79.162928 141.999471 
L 79.825434 142.667158 
L 79.959184 142.930765 
L 80.014904 143.396412 
L 79.825434 143.892842 
L 79.360111 144.401776 
L 78.662126 144.87684 
L 77.333232 145.491822 
L 75.172203 146.166092 
L 72.845587 146.683123 
L 69.123002 147.263773 
L 64.935094 147.692515 
L 59.816539 147.995414 
L 54.232662 148.107799 
L 54 148.107974 
L 54 148.107974 
" style="fill:none;stroke:#90d743;stroke-width:1.5;"/>
    <path clip-path="url(#p58438e49c2)" d="M 54 65.762682 
L 63.539124 65.874331 
L 72.380264 66.198016 
L 80.058096 66.699568 
L 86.339958 67.326594 
L 91.458513 68.052289 
L 95.646421 68.863434 
L 98.903683 69.702641 
L 101.695622 70.648045 
L 103.789576 71.576208 
L 105.418207 72.513996 
L 106.581515 73.38223 
L 107.512161 74.297553 
L 108.210146 75.259253 
L 108.675469 76.278511 
L 108.85466 77.041752 
L 108.88317 77.973046 
L 108.675469 78.998203 
L 108.318698 79.835633 
L 107.706547 80.766926 
L 106.814177 81.72721 
L 105.650869 82.664278 
L 104.022238 83.666175 
L 102.160945 84.557104 
L 99.834329 85.435643 
L 96.696165 86.354687 
L 93.087144 87.164153 
L 88.666574 87.91708 
L 83.548019 88.564063 
L 77.266157 89.130022 
L 70.053648 89.557806 
L 61.677832 89.832234 
L 54 89.909789 
L 54 89.909789 
" style="fill:none;stroke:#90d743;stroke-width:1.5;"/>
    <path clip-path="url(#p58438e49c2)" d="M 388.8 220.797318 
L 379.260876 220.685669 
L 370.419736 220.361984 
L 362.741904 219.860432 
L 356.460042 219.233406 
L 351.341487 218.507711 
L 347.153579 217.696566 
L 343.896317 216.857359 
L 341.104378 215.911955 
L 339.010424 214.983792 
L 337.381793 214.046004 
L 336.218485 213.17777 
L 335.287839 212.262447 
L 334.589854 211.300747 
L 334.124531 210.281489 
L 333.94534 209.518248 
L 333.91683 208.586954 
L 334.124531 207.561797 
L 334.481302 206.724367 
L 335.093453 205.793074 
L 335.985823 204.83279 
L 337.149131 203.895722 
L 338.777762 202.893825 
L 340.639055 202.002896 
L 342.965671 201.124357 
L 346.103835 200.205313 
L 349.712856 199.395847 
L 354.133426 198.64292 
L 359.251981 197.995937 
L 365.533843 197.429978 
L 372.746352 197.002194 
L 381.122168 196.727766 
L 388.8 196.650211 
L 388.8 196.650211 
" style="fill:none;stroke:#90d743;stroke-width:1.5;"/>
    <path clip-path="url(#p58438e49c2)" d="M 388.8 148.107974 
L 382.983461 147.995414 
L 377.632245 147.673579 
L 373.211675 147.203295 
L 369.721751 146.638279 
L 366.866229 145.957469 
L 364.835858 145.229669 
L 363.637072 144.560529 
L 362.974566 143.892842 
L 362.840816 143.629235 
L 362.785096 143.163588 
L 362.974566 142.667158 
L 363.439889 142.158224 
L 364.137874 141.68316 
L 365.466768 141.068178 
L 367.627797 140.393908 
L 369.954413 139.876877 
L 373.676998 139.296227 
L 377.864906 138.867485 
L 382.983461 138.564586 
L 388.567338 138.452201 
L 388.8 138.452026 
L 388.8 138.452026 
" style="fill:none;stroke:#90d743;stroke-width:1.5;"/>
    <path clip-path="url(#p58438e49c2)" d="M 388.8 89.909789 
L 379.726199 89.800853 
L 371.117721 89.478365 
L 363.67255 88.983787 
L 357.390688 88.351571 
L 352.272133 87.626204 
L 348.060812 86.820334 
L 344.408524 85.88904 
L 341.569701 84.934246 
L 339.243085 83.909356 
L 337.614454 82.978817 
L 336.211856 81.931043 
L 335.284089 80.99975 
L 334.589854 80.028493 
L 334.124531 78.998203 
L 333.941738 78.205869 
L 333.918946 77.274576 
L 334.124531 76.278511 
L 334.501423 75.411989 
L 335.132919 74.480695 
L 336.025987 73.549402 
L 337.381793 72.513996 
L 339.010424 71.576208 
L 341.104378 70.648045 
L 343.663655 69.771793 
L 346.920917 68.916217 
L 350.643502 68.171098 
L 355.529395 67.441581 
L 361.345935 66.818867 
L 368.09312 66.324712 
L 376.236275 65.959289 
L 385.310076 65.77744 
L 388.8 65.762682 
L 388.8 65.762682 
" style="fill:none;stroke:#90d743;stroke-width:1.5;"/>
    <path clip-path="url(#p58438e49c2)" d="M 187.519642 175.060389 
L 187.501435 174.594743 
L 187.640716 174.129096 
L 188.151139 173.430626 
L 189.047263 172.732156 
L 190.379112 172.033686 
L 192.433634 171.272924 
L 194.992912 170.583889 
L 198.482835 169.900154 
L 202.903405 169.290768 
L 207.789298 168.835993 
L 213.605837 168.508815 
L 220.353023 168.361452 
L 227.100208 168.438688 
L 233.382071 168.723418 
L 238.965949 169.188875 
L 243.61918 169.78841 
L 247.341765 170.478962 
L 250.133704 171.20121 
L 252.227658 171.951714 
L 253.623628 172.654864 
L 254.394911 173.197803 
L 255.03015 173.896273 
L 255.298565 174.594743 
L 255.252259 175.156357 
L 255.019597 175.656929 
L 254.528153 176.224506 
L 253.547735 176.922976 
L 251.994997 177.66141 
L 249.901042 178.366595 
L 247.109104 179.048463 
L 243.274807 179.716857 
L 238.500625 180.285642 
L 232.916748 180.712022 
L 226.402224 180.973046 
L 219.422377 181.022163 
L 212.675191 180.851879 
L 206.393329 180.471385 
L 201.248188 179.94968 
L 196.854204 179.277272 
L 193.829604 178.618551 
L 191.502988 177.922482 
L 189.874357 177.250841 
L 188.711049 176.572106 
L 188.013065 175.962339 
L 187.588089 175.293213 
L 187.519642 175.060389 
L 187.519642 175.060389 
" style="fill:none;stroke:#90d743;stroke-width:1.5;"/>
    <path clip-path="url(#p58438e49c2)" d="M 187.501435 111.965257 
L 187.547741 111.403643 
L 187.780403 110.903071 
L 188.271847 110.335494 
L 189.252265 109.637024 
L 190.805003 108.89859 
L 192.898958 108.193405 
L 195.690896 107.511537 
L 199.525193 106.843143 
L 204.299375 106.274358 
L 209.883252 105.847978 
L 216.397776 105.586954 
L 223.377623 105.537837 
L 230.124809 105.708121 
L 236.406671 106.088615 
L 241.551812 106.61032 
L 245.945796 107.282728 
L 248.970396 107.941449 
L 251.297012 108.637518 
L 252.925643 109.309159 
L 254.088951 109.987894 
L 254.786935 110.597661 
L 255.211911 111.266787 
L 255.309102 111.732434 
L 255.248799 112.198081 
L 255.019597 112.678296 
L 254.394911 113.362197 
L 253.360655 114.060668 
L 251.762335 114.799043 
L 249.668381 115.497126 
L 246.64378 116.229758 
L 242.921195 116.877851 
L 238.267964 117.442147 
L 232.916748 117.865358 
L 226.634885 118.133878 
L 219.8877 118.195631 
L 213.140514 118.032548 
L 207.091313 117.670083 
L 201.740097 117.130293 
L 197.552189 116.498405 
L 194.294927 115.80775 
L 191.73565 115.056028 
L 190.107019 114.399615 
L 188.943711 113.758337 
L 188.151139 113.129374 
L 187.640716 112.430904 
L 187.501435 111.965257 
L 187.501435 111.965257 
" style="fill:none;stroke:#90d743;stroke-width:1.5;"/>
   </g>
   <g id="LineCollection_7">
    <path clip-path="url(#p58438e49c2)" d="M 54 200.799072 
L 60.514524 200.908611 
L 66.796386 201.238884 
L 72.380264 201.756023 
L 77.033495 202.404347 
L 80.756081 203.128932 
L 83.802847 203.930487 
L 86.394062 204.86178 
L 88.249495 205.793074 
L 89.529356 206.724367 
L 90.167796 207.422837 
L 90.556615 208.121307 
L 90.707892 208.819777 
L 90.625698 209.518248 
L 90.295205 210.232718 
L 89.59722 211.046118 
L 88.666574 211.767632 
L 87.503266 212.435722 
L 85.874635 213.152327 
L 83.780681 213.861323 
L 80.988742 214.58426 
L 77.498819 215.261851 
L 73.31091 215.8566 
L 67.959694 216.376309 
L 61.910493 216.727173 
L 55.395969 216.878251 
L 54 216.883056 
L 54 216.883056 
" style="fill:none;stroke:#fde725;stroke-width:1.5;"/>
    <path clip-path="url(#p58438e49c2)" d="M 54 69.676944 
L 60.747186 69.789907 
L 67.029048 70.11484 
L 72.612926 70.622346 
L 77.266157 71.259316 
L 81.221404 72.02904 
L 84.281218 72.850932 
L 86.57262 73.691756 
L 88.201251 74.501918 
L 89.487735 75.411989 
L 90.144909 76.110459 
L 90.546081 76.808929 
L 90.706481 77.507399 
L 90.632988 78.205869 
L 90.295205 78.948038 
L 89.77108 79.602809 
L 88.899236 80.340005 
L 87.503266 81.179656 
L 85.823725 81.931043 
L 83.315358 82.773825 
L 80.523419 83.483491 
L 77.033495 84.155653 
L 72.612926 84.777031 
L 67.26171 85.286881 
L 61.212509 85.625921 
L 54.930646 85.758708 
L 54 85.760928 
L 54 85.760928 
" style="fill:none;stroke:#fde725;stroke-width:1.5;"/>
    <path clip-path="url(#p58438e49c2)" d="M 388.8 216.883056 
L 382.052814 216.770093 
L 375.770952 216.44516 
L 370.187074 215.937654 
L 365.533843 215.300684 
L 361.578596 214.53096 
L 358.518782 213.709068 
L 356.22738 212.868244 
L 354.598749 212.058082 
L 353.312265 211.148011 
L 352.655091 210.449541 
L 352.253919 209.751071 
L 352.093519 209.052601 
L 352.167012 208.354131 
L 352.504795 207.611962 
L 353.02892 206.957191 
L 353.900764 206.219995 
L 355.296734 205.380344 
L 356.976275 204.628957 
L 359.484642 203.786175 
L 362.276581 203.076509 
L 365.766505 202.404347 
L 370.187074 201.782969 
L 375.53829 201.273119 
L 381.587491 200.934079 
L 387.869354 200.801292 
L 388.8 200.799072 
L 388.8 200.799072 
" style="fill:none;stroke:#fde725;stroke-width:1.5;"/>
    <path clip-path="url(#p58438e49c2)" d="M 388.8 85.760928 
L 382.285476 85.651389 
L 376.003614 85.321116 
L 370.419736 84.803977 
L 365.766505 84.155653 
L 362.043919 83.431068 
L 358.997153 82.629513 
L 356.405938 81.69822 
L 354.550505 80.766926 
L 353.270644 79.835633 
L 352.632204 79.137163 
L 352.243385 78.438693 
L 352.092108 77.740223 
L 352.174302 77.041752 
L 352.504795 76.327282 
L 353.20278 75.513882 
L 354.133426 74.792368 
L 355.296734 74.124278 
L 356.925365 73.407673 
L 359.019319 72.698677 
L 361.811258 71.97574 
L 365.301181 71.298149 
L 369.48909 70.7034 
L 374.840306 70.183691 
L 380.889507 69.832827 
L 387.404031 69.681749 
L 388.8 69.676944 
L 388.8 69.676944 
" style="fill:none;stroke:#fde725;stroke-width:1.5;"/>
   </g>
   <g id="line2d_1">
    <path clip-path="url(#p58438e49c2)" d="M 54 195.36 
L 388.8 195.36 
" style="fill:none;stroke:#ff0000;stroke-linecap:square;stroke-width:1.5;"/>
   </g>
   <g id="line2d_2">
    <path clip-path="url(#p58438e49c2)" d="M 54 91.2 
L 388.8 91.2 
" style="fill:none;stroke:#ff0000;stroke-linecap:square;stroke-width:1.5;"/>
   </g>
   <g id="patch_3">
    <path d="M 54 252 
L 54 34.56 
" style="fill:none;stroke:#000000;stroke-linecap:square;stroke-linejoin:miter;stroke-width:0.8;"/>
   </g>
   <g id="patch_4">
    <path d="M 388.8 252 
L 388.8 34.56 
" style="fill:none;stroke:#000000;stroke-linecap:square;stroke-linejoin:miter;stroke-width:0.8;"/>
   </g>
   <g id="patch_5">
    <path d="M 54 252 
L 388.8 252 
" style="fill:none;stroke:#000000;stroke-linecap:square;stroke-linejoin:miter;stroke-width:0.8;"/>
   </g>
   <g id="patch_6">
    <path d="M 54 34.56 
L 388.8 34.56 
" style="fill:none;stroke:#000000;stroke-linecap:square;stroke-linejoin:miter;stroke-width:0.8;"/>
   </g>
  </g>
 </g>
 <defs>
  <clipPath id="p58438e49c2">
   <rect height="217.44" width="334.8" x="54" y="34.56"/>
  </clipPath>
 </defs>
</svg>
