<?xml version="1.0" encoding="utf-8" standalone="no"?>
<!DOCTYPE svg PUBLIC "-//W3C//DTD SVG 1.1//EN"
  "http://www.w3.org/Graphics/SVG/1.1/DTD/svg11.dtd">
<!-- Created with matplotlib (http://matplotlib.org/) -->
<svg height="288pt" version="1.1" viewBox="0 0 432 288" width="432pt" xmlns="http://www.w3.org/2000/svg" xmlns:xlink="http://www.w3.org/1999/xlink">
 <defs>
  <style type="text/css">
*{stroke-linecap:butt;stroke-linejoin:round;}
  </style>
 </defs>
 <g id="figure_1">
  <g id="patch_1">
   <path d="M 0 288 
L 432 288 
L 432 0 
L 0 0 
z
" style="fill:#ffffff;"/>
  </g>
  <g id="axes_1">
   <g id="patch_2">
    <path d="M 54 252 
L 388.8 252 
L 388.8 34.56 
L 54 34.56 
z
" style="fill:#ffffff;"/>
   </g>
   <g id="matplotlib.axis_1"/>
   <g id="matplotlib.axis_2"/>
   <g id="LineCollection_1">
    <path clip-path="url(#p7d7b4310eb)" d="M 54 150.09399 
L 388.8 150.09399 
L 388.8 150.09399 
" style="fill:none;stroke:#440154;stroke-width:1.5;"/>
    <path clip-path="url(#p7d7b4310eb)" d="M 388.8 136.46601 
L 54 136.46601 
L 54 136.46601 
" style="fill:none;stroke:#440154;stroke-width:1.5;"/>
   </g>
   <g id="LineCollection_2">
    <path clip-path="url(#p7d7b4310eb)" d="M 54 166.263997 
L 388.8 166.263997 
L 388.8 166.263997 
" style="fill:none;stroke:#443983;stroke-width:1.5;"/>
    <path clip-path="url(#p7d7b4310eb)" d="M 388.8 120.296003 
L 54 120.296003 
L 54 120.296003 
" style="fill:none;stroke:#443983;stroke-width:1.5;"/>
   </g>
   <g id="LineCollection_3">
    <path clip-path="url(#p7d7b4310eb)" d="M 54 176.0758 
L 388.8 176.0758 
L 388.8 176.0758 
" style="fill:none;stroke:#31688e;stroke-width:1.5;"/>
    <path clip-path="url(#p7d7b4310eb)" d="M 388.8 110.4842 
L 54 110.4842 
L 54 110.4842 
" style="fill:none;stroke:#31688e;stroke-width:1.5;"/>
   </g>
   <g id="LineCollection_4">
    <path clip-path="url(#p7d7b4310eb)" d="M 54 184.696579 
L 388.8 184.696579 
L 388.8 184.696579 
" style="fill:none;stroke:#21908d;stroke-width:1.5;"/>
    <path clip-path="url(#p7d7b4310eb)" d="M 388.8 101.863421 
L 54 101.863421 
L 54 101.863421 
" style="fill:none;stroke:#21908d;stroke-width:1.5;"/>
   </g>
   <g id="LineCollection_5">
    <path clip-path="url(#p7d7b4310eb)" d="M 54 193.270159 
L 388.8 193.270159 
L 388.8 193.270159 
" style="fill:none;stroke:#35b779;stroke-width:1.5;"/>
    <path clip-path="url(#p7d7b4310eb)" d="M 388.8 93.289841 
L 54 93.289841 
L 54 93.289841 
" style="fill:none;stroke:#35b779;stroke-width:1.5;"/>
   </g>
   <g id="LineCollection_6">
    <path clip-path="url(#p7d7b4310eb)" d="M 54 202.874789 
L 388.8 202.874789 
L 388.8 202.874789 
" style="fill:none;stroke:#90d743;stroke-width:1.5;"/>
    <path clip-path="url(#p7d7b4310eb)" d="M 388.8 83.685211 
L 54 83.685211 
L 54 83.685211 
" style="fill:none;stroke:#90d743;stroke-width:1.5;"/>
   </g>
   <g id="LineCollection_7">
    <path clip-path="url(#p7d7b4310eb)" d="M 54 217.316605 
L 388.8 217.316605 
L 388.8 217.316605 
" style="fill:none;stroke:#fde725;stroke-width:1.5;"/>
    <path clip-path="url(#p7d7b4310eb)" d="M 388.8 69.243395 
L 54 69.243395 
L 54 69.243395 
" style="fill:none;stroke:#fde725;stroke-width:1.5;"/>
   </g>
   <g id="line2d_1">
    <path clip-path="url(#p7d7b4310eb)" d="M 54 195.36 
L 388.8 195.36 
" style="fill:none;stroke:#ff0000;stroke-linecap:square;stroke-width:1.5;"/>
   </g>
   <g id="line2d_2">
    <path clip-path="url(#p7d7b4310eb)" d="M 54 91.2 
L 388.8 91.2 
" style="fill:none;stroke:#ff0000;stroke-linecap:square;stroke-width:1.5;"/>
   </g>
   <g id="patch_3">
    <path d="M 54 252 
L 54 34.56 
" style="fill:none;stroke:#000000;stroke-linecap:square;stroke-linejoin:miter;stroke-width:0.8;"/>
   </g>
   <g id="patch_4">
    <path d="M 388.8 252 
L 388.8 34.56 
" style="fill:none;stroke:#000000;stroke-linecap:square;stroke-linejoin:miter;stroke-width:0.8;"/>
   </g>
   <g id="patch_5">
    <path d="M 54 252 
L 388.8 252 
" style="fill:none;stroke:#000000;stroke-linecap:square;stroke-linejoin:miter;stroke-width:0.8;"/>
   </g>
   <g id="patch_6">
    <path d="M 54 34.56 
L 388.8 34.56 
" style="fill:none;stroke:#000000;stroke-linecap:square;stroke-linejoin:miter;stroke-width:0.8;"/>
   </g>
  </g>
 </g>
 <defs>
  <clipPath id="p7d7b4310eb">
   <rect height="217.44" width="334.8" x="54" y="34.56"/>
  </clipPath>
 </defs>
</svg>
