<?xml version="1.0" encoding="utf-8" standalone="no"?>
<!DOCTYPE svg PUBLIC "-//W3C//DTD SVG 1.1//EN"
  "http://www.w3.org/Graphics/SVG/1.1/DTD/svg11.dtd">
<!-- Created with matplotlib (http://matplotlib.org/) -->
<svg height="288pt" version="1.1" viewBox="0 0 432 288" width="432pt" xmlns="http://www.w3.org/2000/svg" xmlns:xlink="http://www.w3.org/1999/xlink">
 <defs>
  <style type="text/css">
*{stroke-linecap:butt;stroke-linejoin:round;}
  </style>
 </defs>
 <g id="figure_1">
  <g id="patch_1">
   <path d="M 0 288 
L 432 288 
L 432 0 
L 0 0 
z
" style="fill:#ffffff;"/>
  </g>
  <g id="axes_1">
   <g id="patch_2">
    <path d="M 54 252 
L 388.8 252 
L 388.8 34.56 
L 54 34.56 
z
" style="fill:#ffffff;"/>
   </g>
   <g id="matplotlib.axis_1"/>
   <g id="matplotlib.axis_2"/>
   <g id="LineCollection_1">
    <path clip-path="url(#p8cda959ac2)" d="M 79.821675 144.793352 
L 80.058096 147.683393 
L 80.500078 150.381113 
L 81.142436 152.94217 
L 81.948116 155.270403 
L 82.896916 157.365814 
L 84.013343 159.297121 
L 85.17665 160.898785 
L 86.57262 162.425522 
L 88.005052 163.652045 
L 89.59722 164.695523 
L 91.225851 165.473256 
L 92.854482 165.996601 
L 94.483113 166.28866 
L 96.111744 166.361853 
L 97.777481 166.213102 
L 99.369006 165.854306 
L 100.997637 165.252573 
L 102.626268 164.385835 
L 104.022238 163.398234 
L 105.418207 162.137225 
L 106.740289 160.625341 
L 107.878951 158.995577 
L 108.920878 157.13299 
L 109.843439 155.03758 
L 110.625802 152.709346 
L 111.247139 150.148289 
L 111.68085 147.354409 
L 111.887005 144.560529 
L 111.878082 141.766648 
L 111.653535 138.972768 
L 111.199863 136.178887 
L 110.536762 133.547594 
L 109.751661 131.289597 
L 108.802917 129.194186 
L 107.731294 127.331599 
L 106.556094 125.701836 
L 105.185546 124.191037 
L 103.694582 122.907955 
L 102.160945 121.897358 
L 100.532314 121.110008 
L 98.903683 120.577955 
L 97.275052 120.277951 
L 95.646421 120.197047 
L 93.924014 120.346898 
L 92.389159 120.688709 
L 90.760528 121.281489 
L 89.131897 122.138286 
L 87.704367 123.140779 
L 86.339958 124.363894 
L 84.959348 125.934659 
L 83.820837 127.564423 
L 82.779425 129.42701 
L 81.856871 131.52242 
L 81.074192 133.850654 
L 80.45311 136.411711 
L 80.019245 139.205591 
L 79.812837 141.999471 
L 79.821675 144.793352 
L 79.821675 144.793352 
" style="fill:none;stroke:#440154;stroke-width:1.5;"/>
    <path clip-path="url(#p8cda959ac2)" d="M 247.325987 146.423115 
L 247.681957 149.216996 
L 248.22145 151.778053 
L 248.970396 154.262298 
L 249.845745 156.43452 
L 250.831689 158.348958 
L 252.008089 160.159694 
L 253.349408 161.789458 
L 254.554274 162.960644 
L 256.059462 164.117691 
L 257.578874 165.004582 
L 259.207505 165.687814 
L 260.836136 166.126496 
L 262.464767 166.339582 
L 264.093398 166.335731 
L 265.722029 166.114783 
L 267.35066 165.667739 
L 268.979291 164.97524 
L 270.44071 164.117691 
L 271.77123 163.110741 
L 273.167199 161.771881 
L 274.491549 160.159694 
L 275.562332 158.52993 
L 276.546014 156.667344 
L 277.418346 154.571933 
L 278.156115 152.2437 
L 278.751077 149.60051 
L 279.130287 146.888762 
L 279.30022 144.094882 
L 279.255884 141.301001 
L 278.983739 138.427634 
L 278.500265 135.713241 
L 277.815011 133.152184 
L 276.961007 130.82395 
L 275.958032 128.72854 
L 274.79583 126.828699 
L 273.567465 125.236189 
L 272.213572 123.839249 
L 270.777269 122.675132 
L 269.211953 121.70537 
L 267.583322 120.975548 
L 265.954691 120.4949 
L 264.32606 120.242429 
L 262.697429 120.207768 
L 261.068798 120.389478 
L 259.386904 120.812545 
L 257.811536 121.441832 
L 256.415566 122.210395 
L 255.019597 123.208591 
L 253.569952 124.537719 
L 252.227658 126.105792 
L 251.06435 127.817886 
L 249.953848 129.892656 
L 249.081743 131.988067 
L 248.34383 134.3163 
L 247.76397 136.877357 
L 247.369521 139.671238 
L 247.199791 142.465118 
L 247.244268 145.258999 
L 247.325987 146.423115 
L 247.325987 146.423115 
" style="fill:none;stroke:#440154;stroke-width:1.5;"/>
   </g>
   <g id="LineCollection_2">
    <path clip-path="url(#p8cda959ac2)" d="M 69.580784 147.121586 
L 69.895491 151.312406 
L 70.417658 155.270403 
L 71.13996 158.995577 
L 71.992744 162.255104 
L 73.012835 165.281808 
L 74.091595 167.842865 
L 75.290661 170.171099 
L 76.598562 172.266509 
L 77.999679 174.129096 
L 79.592773 175.881172 
L 81.259655 177.388623 
L 83.082696 178.733864 
L 84.943989 179.839587 
L 87.037943 180.813851 
L 89.256794 181.579444 
L 91.458513 182.10111 
L 93.785129 182.416902 
L 96.111744 182.504056 
L 98.43836 182.366099 
L 100.764976 181.997387 
L 102.85893 181.4554 
L 105.060495 180.64815 
L 107.046838 179.682735 
L 108.908131 178.538005 
L 110.769423 177.114046 
L 112.456006 175.526036 
L 114.026685 173.725313 
L 115.422655 171.787901 
L 116.794329 169.472629 
L 117.981932 167.015052 
L 119.027589 164.350515 
L 119.974542 161.323811 
L 120.773871 158.017159 
L 121.426498 154.33911 
L 121.89466 150.381113 
L 122.15826 146.190292 
L 122.200465 141.999471 
L 122.024173 137.808651 
L 121.646654 133.850654 
L 121.082557 130.12548 
L 120.308548 126.508424 
L 119.419238 123.373602 
L 118.414754 120.579722 
L 117.273158 118.018665 
L 116.000395 115.690431 
L 114.605762 113.595021 
L 113.096039 111.725439 
L 111.467408 110.064865 
L 109.838777 108.695434 
L 107.977484 107.418063 
L 106.081105 106.377497 
L 104.022238 105.498849 
L 101.928284 104.838017 
L 99.601668 104.348678 
L 97.275052 104.096656 
L 94.948436 104.071376 
L 92.548524 104.282086 
L 90.295205 104.706296 
L 88.201251 105.312807 
L 86.107297 106.146729 
L 84.246004 107.106427 
L 82.384712 108.307705 
L 80.709138 109.637024 
L 79.023033 111.266787 
L 77.498819 113.057698 
L 76.102849 115.041429 
L 74.782552 117.320195 
L 73.673277 119.648428 
L 72.591027 122.442309 
L 71.661592 125.469013 
L 70.840264 128.961363 
L 70.206565 132.686537 
L 69.764735 136.644534 
L 69.526393 140.835355 
L 69.508313 145.026175 
L 69.580784 147.121586 
L 69.580784 147.121586 
" style="fill:none;stroke:#443983;stroke-width:1.5;"/>
    <path clip-path="url(#p8cda959ac2)" d="M 237.092064 148.984172 
L 237.482415 152.94217 
L 238.060031 156.667344 
L 238.818582 160.159694 
L 239.756274 163.419221 
L 240.827241 166.329384 
L 241.990549 168.86796 
L 243.241623 171.102392 
L 244.667003 173.197803 
L 246.207591 175.060389 
L 247.846583 176.690153 
L 249.668381 178.168147 
L 251.529673 179.385975 
L 253.512451 180.415327 
L 255.48492 181.207088 
L 257.578874 181.825559 
L 259.90549 182.272148 
L 262.232106 182.483992 
L 264.558721 182.469948 
L 266.885337 182.229435 
L 269.211953 181.752374 
L 271.305907 181.103763 
L 273.480856 180.182503 
L 275.261154 179.2129 
L 277.122446 177.952734 
L 278.907957 176.45733 
L 280.501937 174.827566 
L 282.008339 172.961866 
L 283.404309 170.863515 
L 284.672959 168.541335 
L 285.814656 165.980278 
L 286.819177 163.186398 
L 287.681416 160.159694 
L 288.43987 156.667344 
L 289.017672 152.94217 
L 289.407864 148.984172 
L 289.596366 144.793352 
L 289.566186 140.602531 
L 289.315276 136.411711 
L 288.860342 132.453713 
L 288.212305 128.72854 
L 287.37469 125.236189 
L 286.427799 122.209485 
L 285.325149 119.415605 
L 284.102293 116.916425 
L 282.813885 114.759138 
L 281.475303 112.896551 
L 279.856004 111.033964 
L 278.119937 109.4042 
L 276.424461 108.102282 
L 274.563169 106.941616 
L 272.461101 105.91185 
L 270.375261 105.140912 
L 268.281306 104.587349 
L 265.954691 104.206766 
L 263.628075 104.057487 
L 261.301459 104.133378 
L 258.974844 104.43751 
L 256.648228 104.982744 
L 254.554274 105.699501 
L 252.46032 106.659198 
L 250.561336 107.774437 
L 248.737735 109.1076 
L 247.104346 110.568317 
L 245.480473 112.333387 
L 243.998699 114.293491 
L 242.688534 116.392197 
L 241.491494 118.717135 
L 240.361918 121.412907 
L 239.392675 124.304896 
L 238.539899 127.564423 
L 237.855788 131.056773 
L 237.337318 134.851973 
L 237.00457 138.972768 
L 236.889473 143.163588 
L 236.992407 147.354409 
L 237.092064 148.984172 
L 237.092064 148.984172 
" style="fill:none;stroke:#443983;stroke-width:1.5;"/>
   </g>
   <g id="LineCollection_3">
    <path clip-path="url(#p8cda959ac2)" d="M 61.441533 146.655939 
L 61.667019 152.94217 
L 62.093831 158.762754 
L 62.681582 163.884868 
L 63.438031 168.541335 
L 64.300215 172.499332 
L 65.283505 175.991683 
L 66.359376 179.018387 
L 67.59769 181.812267 
L 68.890341 184.17883 
L 70.28631 186.279272 
L 71.745106 188.098498 
L 73.312543 189.728261 
L 75.172203 191.325668 
L 77.033495 192.639947 
L 79.12745 193.850677 
L 81.454065 194.929961 
L 84.013343 195.855471 
L 86.805281 196.60734 
L 89.59722 197.130477 
L 92.621821 197.469607 
L 95.646421 197.590052 
L 98.671022 197.498321 
L 101.770915 197.178609 
L 104.487561 196.697018 
L 107.2795 195.980723 
L 109.866093 195.083199 
L 112.165393 194.058129 
L 114.259347 192.895672 
L 116.1797 191.590848 
L 117.981932 190.104696 
L 119.610563 188.482631 
L 121.098113 186.701558 
L 122.546703 184.606147 
L 123.798471 182.412433 
L 124.961779 179.939762 
L 126.030699 177.1558 
L 127.035112 173.896273 
L 127.885114 170.403922 
L 128.670546 166.213102 
L 129.313447 161.556634 
L 129.822321 156.201697 
L 130.152197 150.381113 
L 130.287289 144.094882 
L 130.201124 137.575828 
L 129.905447 131.52242 
L 129.418083 125.934659 
L 128.780836 121.045369 
L 127.983946 116.621725 
L 127.055733 112.739168 
L 126.030699 109.4042 
L 124.957547 106.61032 
L 123.747147 104.049263 
L 122.399387 101.721029 
L 120.918576 99.625619 
L 119.317627 97.763032 
L 117.619693 96.133268 
L 115.863638 94.736328 
L 113.794024 93.384628 
L 111.700069 92.274876 
L 109.25946 91.243978 
L 106.814177 90.442834 
L 104.022238 89.766113 
L 100.997637 89.279322 
L 97.973037 89.021588 
L 94.948436 88.978848 
L 91.923836 89.148864 
L 88.899236 89.540515 
L 86.107297 90.117908 
L 83.548019 90.854729 
L 80.988742 91.826202 
L 78.662126 92.956922 
L 76.501508 94.270682 
L 74.630126 95.667622 
L 72.845587 97.286819 
L 71.345813 98.927149 
L 69.922908 100.789736 
L 68.592928 102.885146 
L 67.371881 105.21338 
L 66.267812 107.774437 
L 65.210106 110.80114 
L 64.300215 114.060668 
L 63.482543 117.785841 
L 62.746723 122.209485 
L 62.143155 127.281599 
L 61.72028 132.686537 
L 61.466444 138.739944 
L 61.419108 145.026175 
L 61.441533 146.655939 
L 61.441533 146.655939 
" style="fill:none;stroke:#31688e;stroke-width:1.5;"/>
    <path clip-path="url(#p8cda959ac2)" d="M 228.956989 150.613936 
L 229.313558 156.667344 
L 229.841626 162.022281 
L 230.545283 166.911572 
L 231.368993 171.102392 
L 232.328603 174.827566 
L 233.402351 178.087093 
L 234.554239 180.880974 
L 235.859817 183.442031 
L 237.162285 185.537441 
L 238.553184 187.400028 
L 240.235256 189.262615 
L 241.990549 190.859979 
L 243.901467 192.289318 
L 245.945796 193.539364 
L 248.272411 194.683278 
L 250.599027 195.587541 
L 253.158304 196.354047 
L 255.950243 196.959074 
L 258.974844 197.37761 
L 261.999444 197.572478 
L 265.024044 197.554167 
L 268.048645 197.321721 
L 271.073245 196.862503 
L 273.865184 196.214762 
L 276.424461 195.402661 
L 278.888297 194.384729 
L 281.077693 193.243268 
L 283.171647 191.890124 
L 285.03294 190.415384 
L 286.717636 188.796968 
L 288.318671 186.934381 
L 289.799231 184.838971 
L 291.08214 182.634484 
L 292.25738 180.182503 
L 293.349568 177.388623 
L 294.339402 174.24145 
L 295.234603 170.636745 
L 295.993954 166.678748 
L 296.666018 161.958843 
L 297.186464 156.667344 
L 297.533399 150.846759 
L 297.684633 144.560529 
L 297.615036 138.041474 
L 297.336224 131.988067 
L 296.867695 126.400306 
L 296.216515 121.278192 
L 295.432075 116.854548 
L 294.560648 113.129374 
L 293.588962 109.869847 
L 292.455873 106.843143 
L 291.26783 104.282086 
L 289.918833 101.909234 
L 288.498218 99.858442 
L 286.894232 97.951172 
L 285.265601 96.350441 
L 283.404309 94.838839 
L 281.508217 93.572211 
L 279.375273 92.408095 
L 277.122446 91.420178 
L 274.563169 90.54456 
L 271.77123 89.838222 
L 268.979291 89.354565 
L 265.954691 89.054199 
L 262.93009 88.97065 
L 259.90549 89.099324 
L 256.88089 89.447124 
L 254.088951 89.979193 
L 251.297012 90.741406 
L 248.737735 91.678261 
L 246.411119 92.770139 
L 244.251766 94.037858 
L 242.317695 95.434798 
L 240.59458 96.944405 
L 238.942932 98.694325 
L 237.487024 100.556912 
L 236.128732 102.652323 
L 234.883724 104.980556 
L 233.75944 107.541613 
L 232.683392 110.568317 
L 231.700206 114.060668 
L 230.837962 118.018665 
L 230.113822 122.442309 
L 229.515886 127.564423 
L 229.093018 133.152184 
L 228.855643 139.205591 
L 228.827012 145.724645 
L 228.956989 150.613936 
L 228.956989 150.613936 
" style="fill:none;stroke:#31688e;stroke-width:1.5;"/>
   </g>
   <g id="LineCollection_4">
    <path clip-path="url(#p8cda959ac2)" d="M 388.8 226.98 
L 305.274496 226.98 
L 305.1 226.747177 
L 305.1 59.812823 
L 305.274496 59.58 
L 388.8 59.58 
L 388.8 59.58 
" style="fill:none;stroke:#21908d;stroke-width:1.5;"/>
    <path clip-path="url(#p8cda959ac2)" d="M 137.7 226.747177 
L 137.758165 59.58 
L 221.283669 59.58 
L 221.4 60.045647 
L 221.4 226.747177 
L 221.283669 226.98 
L 137.758165 226.98 
L 137.7 226.747177 
L 137.7 226.747177 
" style="fill:none;stroke:#21908d;stroke-width:1.5;"/>
   </g>
   <g id="LineCollection_5">
    <path clip-path="url(#p8cda959ac2)" d="M 145.198808 148.984172 
L 145.11188 142.697942 
L 145.238848 136.411711 
L 145.577722 130.358303 
L 146.113817 124.770542 
L 146.806046 119.881252 
L 147.616806 115.690431 
L 148.561065 111.965257 
L 149.623905 108.686434 
L 150.787213 105.826045 
L 152.029316 103.350793 
L 153.346491 101.193439 
L 154.85324 99.159972 
L 156.371091 97.463148 
L 158.05109 95.900445 
L 159.863107 94.503505 
L 161.954969 93.183201 
L 164.048923 92.111435 
L 166.375539 91.157339 
L 169.055171 90.312684 
L 171.726755 89.697497 
L 174.751355 89.238279 
L 177.775956 89.005833 
L 180.800556 88.987522 
L 183.825156 89.18239 
L 186.849757 89.600926 
L 189.641696 90.205953 
L 192.312277 91.011154 
L 194.76025 91.979543 
L 197.086866 93.150333 
L 199.2367 94.503505 
L 201.04905 95.900445 
L 202.794115 97.530209 
L 204.299375 99.224306 
L 205.794823 101.255382 
L 207.091313 103.387789 
L 208.351432 105.91185 
L 209.48303 108.70573 
L 210.471397 111.732434 
L 211.377973 115.224784 
L 212.17439 119.182782 
L 212.842408 123.606426 
L 213.390266 128.72854 
L 213.780834 134.549124 
L 213.972988 140.835355 
L 213.944357 147.354409 
L 213.69351 153.64064 
L 213.238802 159.461224 
L 212.619922 164.583338 
L 211.872185 169.006982 
L 210.982109 172.964979 
L 209.96607 176.45733 
L 208.852406 179.484033 
L 207.686163 182.04509 
L 206.391273 184.373324 
L 204.973709 186.468734 
L 203.368728 188.418877 
L 201.740097 190.051743 
L 199.878805 191.59167 
L 197.808263 192.987789 
L 195.923558 194.02901 
L 193.566073 195.083199 
L 191.037665 195.963189 
L 188.245726 196.684507 
L 185.453787 197.181173 
L 182.429187 197.49446 
L 179.404587 197.590287 
L 176.379986 197.473951 
L 173.355386 197.139145 
L 170.563447 196.620453 
L 167.771508 195.873726 
L 165.212231 194.953846 
L 162.885615 193.880804 
L 160.791661 192.677118 
L 158.91408 191.358025 
L 157.069076 189.781793 
L 155.440445 188.093373 
L 153.95482 186.235911 
L 152.56739 184.140501 
L 151.252536 181.720801 
L 150.059378 179.018387 
L 148.983476 175.991683 
L 148.05858 172.732156 
L 147.2278 169.006982 
L 146.480102 164.583338 
L 145.884429 159.694047 
L 145.434394 154.106287 
L 145.198808 148.984172 
L 145.198808 148.984172 
" style="fill:none;stroke:#35b779;stroke-width:1.5;"/>
    <path clip-path="url(#p8cda959ac2)" d="M 312.71911 152.010876 
L 312.526982 145.724645 
L 312.555632 139.205591 
L 312.80649 132.91936 
L 313.261191 127.098776 
L 313.882974 121.956278 
L 314.627782 117.553018 
L 315.517818 113.595021 
L 316.533935 110.10267 
L 317.647544 107.075967 
L 318.813785 104.51491 
L 320.164837 102.095644 
L 321.560806 100.044959 
L 323.052263 98.228679 
L 324.66143 96.598915 
L 326.446699 95.100072 
L 328.314709 93.805035 
L 330.401946 92.619432 
L 332.728562 91.558829 
L 335.287839 90.650128 
L 338.079778 89.913624 
L 341.029085 89.381391 
L 343.896317 89.077603 
L 346.920917 88.969479 
L 349.945518 89.073502 
L 352.970118 89.395381 
L 355.762057 89.900813 
L 358.553996 90.632236 
L 361.113273 91.535389 
L 363.539616 92.640918 
L 365.585117 93.805035 
L 367.585834 95.201975 
L 369.256428 96.615222 
L 370.885059 98.269972 
L 372.373602 100.091266 
L 373.791119 102.186676 
L 375.086274 104.51491 
L 376.252499 107.075967 
L 377.366119 110.10267 
L 378.330229 113.394128 
L 379.179519 117.087371 
L 379.916484 121.278192 
L 380.543068 126.167483 
L 381.005427 131.52242 
L 381.301145 137.575828 
L 381.388154 143.862058 
L 381.261119 150.148289 
L 380.922314 156.201697 
L 380.386164 161.789458 
L 379.693946 166.678748 
L 378.883194 170.869569 
L 377.938947 174.594743 
L 376.883044 177.85427 
L 375.751522 180.64815 
L 374.470674 183.209207 
L 373.194943 185.304618 
L 371.646799 187.400028 
L 370.187074 189.037253 
L 368.448835 190.659555 
L 366.636689 192.056495 
L 364.603197 193.343727 
L 362.509243 194.421692 
L 360.182627 195.381466 
L 357.62335 196.198779 
L 354.831411 196.851307 
L 351.80681 197.315092 
L 348.78221 197.551739 
L 345.757609 197.57412 
L 342.733009 197.383404 
L 339.708409 196.969374 
L 336.91647 196.368989 
L 334.187622 195.548846 
L 331.797915 194.606348 
L 329.4713 193.442332 
L 327.377345 192.136116 
L 325.451118 190.659555 
L 323.705819 189.029791 
L 322.253068 187.400028 
L 320.86216 185.537441 
L 319.466852 183.27688 
L 318.254309 180.880974 
L 317.102378 178.087093 
L 316.097257 175.060389 
L 315.175906 171.568039 
L 314.348297 167.506157 
L 313.657533 162.953574 
L 313.109782 157.83146 
L 312.71911 152.010876 
L 312.71911 152.010876 
" style="fill:none;stroke:#35b779;stroke-width:1.5;"/>
   </g>
   <g id="LineCollection_6">
    <path clip-path="url(#p8cda959ac2)" d="M 153.345069 148.285702 
L 153.193589 144.094882 
L 153.260026 139.904061 
L 153.54888 135.713241 
L 154.044475 131.750451 
L 154.74246 127.999955 
L 155.556601 124.770542 
L 156.539443 121.743839 
L 157.68401 118.949958 
L 158.930368 116.495288 
L 160.326338 114.252968 
L 161.722307 112.403362 
L 163.350938 110.621038 
L 164.979569 109.154921 
L 166.861226 107.774437 
L 168.854922 106.61032 
L 170.796108 105.722733 
L 172.956615 104.980556 
L 175.216678 104.448125 
L 177.543294 104.138167 
L 179.86991 104.056645 
L 182.196525 104.200262 
L 184.523141 104.574905 
L 186.617095 105.122672 
L 188.760723 105.91185 
L 190.805003 106.909331 
L 192.666296 108.06201 
L 194.527589 109.495647 
L 196.15627 111.033964 
L 197.784851 112.908395 
L 199.26522 114.991961 
L 200.617524 117.320195 
L 201.826464 119.881252 
L 202.903405 122.718415 
L 203.834051 125.827007 
L 204.606217 129.194186 
L 205.230021 132.950198 
L 205.654515 136.877357 
L 205.880336 141.068178 
L 205.886379 145.258999 
L 205.673056 149.449819 
L 205.257216 153.407816 
L 204.651695 157.13299 
L 203.862278 160.625341 
L 202.966913 163.652045 
L 201.924395 166.445925 
L 200.738295 169.006982 
L 199.413482 171.335404 
L 197.956277 173.430626 
L 196.377245 175.293213 
L 194.690785 176.922976 
L 192.898958 178.335343 
L 191.037665 179.520201 
L 188.943711 180.569307 
L 186.849757 181.36336 
L 184.755803 181.934395 
L 182.429187 182.332857 
L 180.102571 182.499147 
L 177.775956 182.440138 
L 175.44934 182.153438 
L 173.122724 181.626958 
L 170.906675 180.880974 
L 168.934816 179.990968 
L 167.073523 178.923164 
L 165.212231 177.592598 
L 163.5836 176.166042 
L 161.954969 174.433682 
L 160.460218 172.499332 
L 159.12408 170.403922 
L 157.901273 168.075688 
L 156.80191 165.514631 
L 155.762774 162.487928 
L 154.893523 159.228401 
L 154.194887 155.73605 
L 153.670978 152.010876 
L 153.345069 148.285702 
L 153.345069 148.285702 
" style="fill:none;stroke:#90d743;stroke-width:1.5;"/>
    <path clip-path="url(#p8cda959ac2)" d="M 320.626274 145.724645 
L 320.608219 141.533825 
L 320.80922 137.343004 
L 321.212256 133.385007 
L 321.803601 129.659833 
L 322.577629 126.167483 
L 323.53313 122.907955 
L 324.585407 120.090277 
L 325.761545 117.553018 
L 327.144684 115.13272 
L 328.543499 113.129374 
L 330.169284 111.217253 
L 331.808954 109.637024 
L 333.659208 108.183604 
L 335.5205 107.00685 
L 337.614454 105.965363 
L 339.708409 105.177895 
L 341.802363 104.612699 
L 344.128978 104.220207 
L 346.455594 104.059591 
L 348.78221 104.124225 
L 351.108826 104.416729 
L 353.435441 104.949446 
L 355.593476 105.679026 
L 357.645412 106.61032 
L 359.63849 107.774437 
L 361.345935 109.013843 
L 363.095318 110.568317 
L 364.606007 112.198081 
L 366.039898 114.060668 
L 367.395136 116.189114 
L 368.598824 118.484312 
L 369.721751 121.106637 
L 370.73723 124.072072 
L 371.606582 127.331599 
L 372.305211 130.82395 
L 372.829029 134.549124 
L 373.169084 138.507121 
L 373.308406 142.697942 
L 373.229978 146.888762 
L 372.928185 151.079583 
L 372.419655 155.03758 
L 371.712525 158.762754 
L 370.876127 162.022281 
L 369.874644 165.048985 
L 368.708405 167.842865 
L 367.509339 170.171099 
L 366.201438 172.266509 
L 364.800321 174.129096 
L 363.207227 175.881172 
L 361.540345 177.388623 
L 359.717304 178.733864 
L 357.856011 179.839587 
L 355.762057 180.813851 
L 353.543206 181.579444 
L 351.341487 182.10111 
L 349.014871 182.416902 
L 346.688256 182.504056 
L 344.36164 182.366099 
L 342.035024 181.997387 
L 339.94107 181.4554 
L 337.739505 180.64815 
L 335.753162 179.682735 
L 333.891869 178.538005 
L 332.030577 177.114046 
L 330.343994 175.526036 
L 328.773315 173.725313 
L 327.377345 171.787901 
L 326.005671 169.472629 
L 324.818068 167.015052 
L 323.772411 164.350515 
L 322.825458 161.323811 
L 322.026129 158.017159 
L 321.373502 154.33911 
L 320.90534 150.381113 
L 320.64174 146.190292 
L 320.626274 145.724645 
L 320.626274 145.724645 
" style="fill:none;stroke:#90d743;stroke-width:1.5;"/>
   </g>
   <g id="LineCollection_7">
    <path clip-path="url(#p8cda959ac2)" d="M 163.572231 145.724645 
L 163.492397 142.930765 
L 163.626116 140.136885 
L 163.98189 137.343004 
L 164.521222 134.781947 
L 165.29778 132.22089 
L 166.253986 129.892656 
L 167.306185 127.914606 
L 168.480845 126.167483 
L 169.869524 124.537719 
L 171.261432 123.255803 
L 172.717753 122.209485 
L 174.286032 121.360244 
L 175.914663 120.740538 
L 177.623814 120.346898 
L 179.171925 120.20117 
L 180.800556 120.258947 
L 182.429187 120.535145 
L 184.068499 121.045369 
L 185.686449 121.799712 
L 187.082418 122.678324 
L 188.513459 123.839249 
L 189.874357 125.243633 
L 191.121076 126.865953 
L 192.257679 128.72854 
L 193.260945 130.82395 
L 194.114758 133.152184 
L 194.800155 135.713241 
L 195.294327 138.507121 
L 195.555732 141.301001 
L 195.600209 144.094882 
L 195.430479 146.888762 
L 195.03603 149.682643 
L 194.45617 152.2437 
L 193.718257 154.571933 
L 192.846152 156.667344 
L 191.723082 158.762754 
L 190.440222 160.625341 
L 189.176372 162.077904 
L 187.695263 163.419221 
L 186.382968 164.350515 
L 184.755803 165.226322 
L 183.127172 165.83703 
L 181.478243 166.213102 
L 179.86991 166.360479 
L 178.241279 166.294995 
L 176.491533 165.980278 
L 174.984017 165.496215 
L 173.355386 164.728071 
L 171.959416 163.839806 
L 170.563447 162.69981 
L 169.167477 161.248342 
L 167.978635 159.694047 
L 166.840862 157.829421 
L 165.838993 155.73605 
L 164.979569 153.3906 
L 164.281584 150.764148 
L 163.805425 148.052879 
L 163.572231 145.724645 
L 163.572231 145.724645 
" style="fill:none;stroke:#fde725;stroke-width:1.5;"/>
    <path clip-path="url(#p8cda959ac2)" d="M 331.09346 147.121586 
L 330.905562 144.327705 
L 330.932331 141.533825 
L 331.175325 138.739944 
L 331.649238 135.946064 
L 332.312712 133.385007 
L 333.193885 130.931356 
L 334.124531 128.948209 
L 335.287839 126.999535 
L 336.451147 125.449165 
L 337.847116 123.968398 
L 339.243085 122.805035 
L 340.639055 121.897358 
L 342.267686 121.110008 
L 343.896317 120.577955 
L 345.524948 120.277951 
L 347.153579 120.197047 
L 348.875986 120.346898 
L 350.410841 120.688709 
L 352.039472 121.281489 
L 353.668103 122.138286 
L 355.095633 123.140779 
L 356.460042 124.363894 
L 357.840652 125.934659 
L 358.979163 127.564423 
L 360.020575 129.42701 
L 360.943129 131.52242 
L 361.725808 133.850654 
L 362.34689 136.411711 
L 362.780755 139.205591 
L 362.987163 141.999471 
L 362.974566 144.878221 
L 362.741904 147.683393 
L 362.299922 150.381113 
L 361.657564 152.94217 
L 360.851884 155.270403 
L 359.903084 157.365814 
L 358.786657 159.297121 
L 357.62335 160.898785 
L 356.22738 162.425522 
L 354.794948 163.652045 
L 353.20278 164.695523 
L 351.574149 165.473256 
L 349.945518 165.996601 
L 348.316887 166.28866 
L 346.688256 166.361853 
L 345.022519 166.213102 
L 343.430994 165.854306 
L 341.802363 165.252573 
L 340.173732 164.385835 
L 338.777762 163.398234 
L 337.381793 162.137225 
L 336.059711 160.625341 
L 334.921049 158.995577 
L 333.879122 157.13299 
L 332.956561 155.03758 
L 332.174198 152.709346 
L 331.552861 150.148289 
L 331.11915 147.354409 
L 331.09346 147.121586 
L 331.09346 147.121586 
" style="fill:none;stroke:#fde725;stroke-width:1.5;"/>
   </g>
   <g id="line2d_1">
    <path clip-path="url(#p8cda959ac2)" d="M 54 195.36 
L 388.8 195.36 
" style="fill:none;stroke:#ff0000;stroke-linecap:square;stroke-width:1.5;"/>
   </g>
   <g id="line2d_2">
    <path clip-path="url(#p8cda959ac2)" d="M 54 91.2 
L 388.8 91.2 
" style="fill:none;stroke:#ff0000;stroke-linecap:square;stroke-width:1.5;"/>
   </g>
   <g id="patch_3">
    <path d="M 54 252 
L 54 34.56 
" style="fill:none;stroke:#000000;stroke-linecap:square;stroke-linejoin:miter;stroke-width:0.8;"/>
   </g>
   <g id="patch_4">
    <path d="M 388.8 252 
L 388.8 34.56 
" style="fill:none;stroke:#000000;stroke-linecap:square;stroke-linejoin:miter;stroke-width:0.8;"/>
   </g>
   <g id="patch_5">
    <path d="M 54 252 
L 388.8 252 
" style="fill:none;stroke:#000000;stroke-linecap:square;stroke-linejoin:miter;stroke-width:0.8;"/>
   </g>
   <g id="patch_6">
    <path d="M 54 34.56 
L 388.8 34.56 
" style="fill:none;stroke:#000000;stroke-linecap:square;stroke-linejoin:miter;stroke-width:0.8;"/>
   </g>
  </g>
 </g>
 <defs>
  <clipPath id="p8cda959ac2">
   <rect height="217.44" width="334.8" x="54" y="34.56"/>
  </clipPath>
 </defs>
</svg>
