<?xml version="1.0" encoding="utf-8" standalone="no"?>
<!DOCTYPE svg PUBLIC "-//W3C//DTD SVG 1.1//EN"
  "http://www.w3.org/Graphics/SVG/1.1/DTD/svg11.dtd">
<!-- Created with matplotlib (http://matplotlib.org/) -->
<svg height="288pt" version="1.1" viewBox="0 0 432 288" width="432pt" xmlns="http://www.w3.org/2000/svg" xmlns:xlink="http://www.w3.org/1999/xlink">
 <defs>
  <style type="text/css">
*{stroke-linecap:butt;stroke-linejoin:round;}
  </style>
 </defs>
 <g id="figure_1">
  <g id="patch_1">
   <path d="M 0 288 
L 432 288 
L 432 0 
L 0 0 
z
" style="fill:#ffffff;"/>
  </g>
  <g id="axes_1">
   <g id="patch_2">
    <path d="M 54 252 
L 388.8 252 
L 388.8 34.56 
L 54 34.56 
z
" style="fill:#ffffff;"/>
   </g>
   <g id="matplotlib.axis_1"/>
   <g id="matplotlib.axis_2"/>
   <g id="LineCollection_1">
    <path clip-path="url(#p449eef67db)" d="M 125.414682 147.587232 
L 125.825444 150.613936 
L 126.431268 153.407816 
L 127.224359 155.968873 
L 128.095336 158.064284 
L 129.149687 160.006718 
L 130.312995 161.645988 
L 131.527802 162.953574 
L 132.659228 163.884868 
L 134.03558 164.712242 
L 135.43155 165.258072 
L 136.827519 165.539022 
L 138.223489 165.569853 
L 139.619458 165.352231 
L 141.015427 164.874901 
L 142.178735 164.260205 
L 143.344626 163.419221 
L 144.561685 162.255104 
L 145.685017 160.858164 
L 146.707032 159.228401 
L 147.62132 157.365814 
L 148.460598 155.142382 
L 149.158582 152.645286 
L 149.690359 149.915466 
L 150.047681 146.888762 
L 150.189162 143.862058 
L 150.113471 140.602531 
L 149.824785 137.575828 
L 149.351233 134.781947 
L 148.693259 132.163702 
L 147.910727 129.892656 
L 146.957479 127.797246 
L 145.90132 126.014372 
L 144.738013 124.500952 
L 143.574705 123.336695 
L 142.401921 122.442309 
L 141.015427 121.685099 
L 139.619458 121.207769 
L 138.223489 120.990147 
L 136.827519 121.020978 
L 135.43155 121.301928 
L 134.03558 121.847758 
L 132.872272 122.526421 
L 131.708965 123.439831 
L 130.545657 124.63514 
L 129.382349 126.18893 
L 128.323158 128.03007 
L 127.398424 130.12548 
L 126.622263 132.453713 
L 126.001132 135.014771 
L 125.545373 137.808651 
L 125.273452 140.835355 
L 125.214138 144.094882 
L 125.392691 147.354409 
L 125.414682 147.587232 
L 125.414682 147.587232 
" style="fill:none;stroke:#440154;stroke-width:1.5;"/>
    <path clip-path="url(#p449eef67db)" d="M 236.86104 145.491822 
L 237.116267 148.518526 
L 237.600869 151.545229 
L 238.289869 154.33911 
L 239.089314 156.667344 
L 240.042482 158.762754 
L 241.059903 160.487895 
L 242.229765 162.022281 
L 243.386518 163.189363 
L 244.598794 164.117691 
L 245.945796 164.857753 
L 247.341765 165.342576 
L 248.737735 165.567191 
L 250.133704 165.543212 
L 251.529673 165.26938 
L 252.925643 164.731217 
L 254.088951 164.059816 
L 255.252259 163.154912 
L 256.415566 161.970011 
L 257.578874 160.429782 
L 258.557703 158.762754 
L 259.510775 156.667344 
L 260.309901 154.33911 
L 260.951021 151.778053 
L 261.424539 148.984172 
L 261.713318 145.957469 
L 261.789445 142.697942 
L 261.647493 139.671238 
L 261.290662 136.644534 
L 260.743038 133.850654 
L 260.018034 131.289597 
L 259.118959 128.961363 
L 258.175578 127.098776 
L 257.113551 125.464629 
L 255.94414 124.072072 
L 254.652681 122.907955 
L 253.390966 122.071516 
L 251.994997 121.439605 
L 250.599027 121.07991 
L 249.203058 120.973416 
L 247.807088 121.114504 
L 246.409321 121.511015 
L 245.015149 122.182518 
L 243.851842 122.98187 
L 242.656225 124.072072 
L 241.483674 125.469013 
L 240.424284 127.098776 
L 239.480873 128.961363 
L 238.660363 131.056773 
L 237.913293 133.61783 
L 237.346454 136.411711 
L 236.992919 139.205591 
L 236.819118 142.232295 
L 236.86104 145.491822 
L 236.86104 145.491822 
" style="fill:none;stroke:#440154;stroke-width:1.5;"/>
    <path clip-path="url(#p449eef67db)" d="M 348.533863 146.655939 
L 348.874021 149.682643 
L 349.402371 152.476523 
L 350.105688 155.03758 
L 350.9787 157.365814 
L 351.892926 159.228401 
L 352.970118 160.93541 
L 354.133426 162.358517 
L 355.296734 163.453255 
L 356.571009 164.350515 
L 357.856011 164.989055 
L 359.251981 165.41432 
L 360.64795 165.583163 
L 362.043919 165.504276 
L 363.439889 165.173289 
L 364.835858 164.573257 
L 365.999166 163.842902 
L 367.162474 162.868667 
L 368.358834 161.556634 
L 369.499688 159.926871 
L 370.504708 158.064284 
L 371.375873 155.968873 
L 372.106983 153.64064 
L 372.733266 150.846759 
L 373.136851 148.052879 
L 373.359125 145.026175 
L 373.367573 141.766648 
L 373.161675 138.739944 
L 372.733266 135.713241 
L 372.106983 132.91936 
L 371.350382 130.520931 
L 370.419736 128.317696 
L 369.48909 126.615775 
L 368.325782 124.96183 
L 367.071923 123.606426 
L 365.940186 122.675132 
L 364.603197 121.86695 
L 363.207227 121.313436 
L 361.811258 121.025358 
L 360.415288 120.987674 
L 359.019319 121.19831 
L 357.62335 121.668161 
L 356.460042 122.275843 
L 355.255992 123.140779 
L 354.038532 124.304896 
L 352.915345 125.701836 
L 351.892926 127.331599 
L 350.9787 129.194186 
L 350.178179 131.299423 
L 349.456659 133.850654 
L 348.909724 136.644534 
L 348.549548 139.703025 
L 348.408427 142.930765 
L 348.50121 146.190292 
L 348.533863 146.655939 
L 348.533863 146.655939 
" style="fill:none;stroke:#440154;stroke-width:1.5;"/>
   </g>
   <g id="LineCollection_2">
    <path clip-path="url(#p449eef67db)" d="M 119.37712 147.587232 
L 119.686226 151.778053 
L 120.19269 155.73605 
L 120.850099 159.228401 
L 121.690829 162.487928 
L 122.635163 165.265705 
L 123.651414 167.610042 
L 124.790668 169.705452 
L 126.05957 171.568039 
L 127.288395 173.020299 
L 128.704104 174.361919 
L 130.282547 175.526036 
L 131.708965 176.331243 
L 133.337596 177.006655 
L 134.966227 177.45251 
L 136.594858 177.688254 
L 138.223489 177.723653 
L 139.85212 177.560129 
L 141.597356 177.1558 
L 143.109382 176.600512 
L 144.742498 175.75886 
L 146.133982 174.812875 
L 147.529951 173.609963 
L 148.925921 172.092363 
L 150.166667 170.403922 
L 151.273876 168.541335 
L 152.381943 166.213102 
L 153.26437 163.884868 
L 154.100276 161.090987 
L 154.839629 157.83146 
L 155.443816 154.106287 
L 155.859737 150.148289 
L 156.093133 145.724645 
L 156.104623 141.301001 
L 155.895372 136.877357 
L 155.474177 132.686537 
L 154.884305 128.961363 
L 154.160695 125.701836 
L 153.26437 122.675132 
L 152.282228 120.114075 
L 151.147412 117.785841 
L 150.010815 115.923255 
L 148.693259 114.189429 
L 147.29729 112.729655 
L 145.800358 111.499611 
L 144.272689 110.531231 
L 142.644058 109.766856 
L 141.015427 109.241822 
L 139.386796 108.932635 
L 137.758165 108.82625 
L 135.970526 108.938554 
L 134.500903 109.212791 
L 132.872272 109.721766 
L 131.243641 110.467992 
L 129.61501 111.487972 
L 128.17446 112.663727 
L 126.817597 114.060668 
L 125.549557 115.690431 
L 124.382002 117.553018 
L 123.323531 119.648428 
L 122.297048 122.209485 
L 121.424621 125.003366 
L 120.652756 128.262893 
L 120.052507 131.755243 
L 119.598526 135.713241 
L 119.337106 139.904061 
L 119.279834 144.327705 
L 119.37712 147.587232 
L 119.37712 147.587232 
" style="fill:none;stroke:#443983;stroke-width:1.5;"/>
    <path clip-path="url(#p449eef67db)" d="M 231.041527 148.751349 
L 231.411884 152.94217 
L 231.987311 156.900167 
L 232.721977 160.392517 
L 233.614732 163.52307 
L 234.618184 166.213102 
L 235.726103 168.541335 
L 236.989233 170.636745 
L 238.267964 172.324971 
L 239.663933 173.794197 
L 241.199623 175.060389 
L 242.688534 176.007378 
L 244.317165 176.777843 
L 245.945796 177.308257 
L 247.574427 177.622392 
L 249.203058 177.733526 
L 251.030929 177.621446 
L 252.46032 177.356643 
L 254.088951 176.852996 
L 255.717582 176.112779 
L 257.346213 175.099875 
L 258.825349 173.896273 
L 260.182121 172.499332 
L 261.450478 170.869569 
L 262.618039 169.006982 
L 263.676288 166.911572 
L 264.702968 164.350515 
L 265.575296 161.556634 
L 266.347281 158.297107 
L 266.947389 154.804757 
L 267.40136 150.846759 
L 267.662821 146.655939 
L 267.720167 142.232295 
L 267.558436 137.808651 
L 267.188153 133.61783 
L 266.612546 129.659833 
L 265.877927 126.167483 
L 265.019214 123.140779 
L 263.981768 120.346898 
L 262.873715 118.018665 
L 261.766782 116.155649 
L 260.573643 114.526314 
L 259.207505 113.025418 
L 257.714024 111.732434 
L 256.182905 110.706787 
L 254.497822 109.869847 
L 252.925643 109.324629 
L 251.297012 108.975613 
L 249.668381 108.831186 
L 248.03975 108.885479 
L 246.277191 109.171377 
L 244.701196 109.637024 
L 243.096896 110.335494 
L 241.525226 111.270289 
L 240.033782 112.430904 
L 238.733287 113.706835 
L 237.484494 115.224784 
L 236.250903 117.087371 
L 235.139659 119.182782 
L 234.152638 121.511015 
L 233.29105 124.072072 
L 232.502126 127.098776 
L 231.82983 130.591127 
L 231.334217 134.3163 
L 231.001113 138.507121 
L 230.874362 142.930765 
L 230.96636 147.354409 
L 231.041527 148.751349 
L 231.041527 148.751349 
" style="fill:none;stroke:#443983;stroke-width:1.5;"/>
    <path clip-path="url(#p449eef67db)" d="M 342.495284 145.258999 
L 342.704687 149.682643 
L 343.125911 153.873463 
L 343.715627 157.598637 
L 344.499793 161.090987 
L 345.41548 164.117691 
L 346.455594 166.760388 
L 347.618902 169.072939 
L 348.78221 170.916794 
L 350.018013 172.499332 
L 351.374375 173.896273 
L 352.799486 175.060389 
L 354.366088 176.050004 
L 355.994719 176.808309 
L 357.62335 177.327977 
L 359.251981 177.632223 
L 360.880612 177.733862 
L 362.628952 177.621446 
L 364.137874 177.337654 
L 365.766505 176.823339 
L 367.395136 176.071084 
L 369.000845 175.060389 
L 370.187074 174.111279 
L 371.583044 172.724996 
L 372.88544 171.102392 
L 374.085363 169.239805 
L 375.169521 167.144395 
L 376.1344 164.816161 
L 377.044935 162.022281 
L 377.800891 158.995577 
L 378.443602 155.503227 
L 378.9367 151.545229 
L 379.23376 147.354409 
L 379.325614 142.930765 
L 379.198871 138.507121 
L 378.865735 134.3163 
L 378.330229 130.345664 
L 377.632245 126.811766 
L 376.767085 123.606426 
L 375.867303 121.045369 
L 374.834439 118.717135 
L 373.666028 116.621725 
L 372.359786 114.759138 
L 371.117721 113.336768 
L 369.611818 111.965257 
L 368.09312 110.892667 
L 366.464489 110.028145 
L 364.798135 109.4042 
L 363.207227 109.025989 
L 361.578596 108.843308 
L 359.949965 108.859824 
L 358.321334 109.076202 
L 356.692703 109.50138 
L 355.064072 110.15378 
L 353.435441 111.06406 
L 351.90456 112.198081 
L 350.643502 113.376824 
L 349.247533 115.00723 
L 347.990746 116.854548 
L 346.851378 118.949958 
L 345.841676 121.278192 
L 344.961256 123.839249 
L 344.128978 126.980165 
L 343.4678 130.358303 
L 342.959209 134.083477 
L 342.614047 138.274298 
L 342.475493 142.697942 
L 342.495284 145.258999 
L 342.495284 145.258999 
" style="fill:none;stroke:#443983;stroke-width:1.5;"/>
   </g>
   <g id="LineCollection_3">
    <path clip-path="url(#p449eef67db)" d="M 114.492003 150.381113 
L 114.818887 156.43452 
L 115.320186 161.789458 
L 115.975944 166.445925 
L 116.758254 170.403922 
L 117.620098 173.663449 
L 118.576071 176.45733 
L 119.610563 178.84348 
L 120.773871 180.984035 
L 121.958856 182.743561 
L 123.333148 184.396019 
L 124.749612 185.770264 
L 126.357748 187.021693 
L 128.122845 188.098498 
L 129.847672 188.911325 
L 131.941626 189.634286 
L 134.03558 190.110506 
L 136.129534 190.367069 
L 138.223489 190.417605 
L 140.317443 190.265111 
L 142.411397 189.901152 
L 144.505351 189.305909 
L 146.366644 188.554365 
L 148.227936 187.552999 
L 149.856567 186.424339 
L 151.485198 184.995844 
L 152.896421 183.442031 
L 154.251744 181.579444 
L 155.345688 179.716857 
L 156.371091 177.569459 
L 157.331476 175.060389 
L 158.240015 172.033686 
L 159.040552 168.541335 
L 159.715654 164.583338 
L 160.280729 159.926871 
L 160.705743 154.571933 
L 160.966141 148.518526 
L 161.028881 141.766648 
L 160.871743 135.247594 
L 160.509956 129.194186 
L 159.967336 123.839249 
L 159.303201 119.415605 
L 158.53233 115.690431 
L 157.636381 112.430904 
L 156.640036 109.637024 
L 155.58705 107.30879 
L 154.400906 105.21338 
L 153.083337 103.350793 
L 151.641896 101.721029 
L 150.089229 100.319658 
L 148.460598 99.152623 
L 146.599305 98.115996 
L 144.628459 97.297385 
L 142.644058 96.713019 
L 140.550104 96.324692 
L 138.45615 96.149241 
L 136.362196 96.177302 
L 134.268242 96.410553 
L 132.174288 96.861348 
L 130.080334 97.555055 
L 128.122845 98.461502 
L 126.57182 99.392796 
L 124.961779 100.607322 
L 123.531379 101.953853 
L 122.135177 103.583616 
L 120.853605 105.446203 
L 119.812834 107.30879 
L 118.760045 109.637024 
L 117.837561 112.198081 
L 116.981306 115.224784 
L 116.224499 118.717135 
L 115.553855 122.907955 
L 115.008736 127.797246 
L 114.61536 133.385007 
L 114.397819 139.671238 
L 114.390006 146.423115 
L 114.492003 150.381113 
L 114.492003 150.381113 
" style="fill:none;stroke:#31688e;stroke-width:1.5;"/>
    <path clip-path="url(#p449eef67db)" d="M 226.169196 152.2437 
L 226.54758 158.064284 
L 227.100208 163.249081 
L 227.798193 167.702731 
L 228.581321 171.335216 
L 229.513017 174.594743 
L 230.552111 177.388623 
L 231.654314 179.716857 
L 232.748372 181.579444 
L 234.10362 183.442031 
L 235.592737 185.071794 
L 237.104656 186.39415 
L 238.733287 187.529102 
L 240.59458 188.536265 
L 242.455872 189.29248 
L 244.549826 189.892327 
L 246.64378 190.260327 
L 248.737735 190.416637 
L 250.831689 190.369849 
L 252.925643 190.117186 
L 255.019597 189.64523 
L 257.113551 188.927191 
L 258.974844 188.046291 
L 260.766769 186.934381 
L 262.250402 185.770264 
L 263.68757 184.373324 
L 265.041165 182.743561 
L 266.288116 180.880974 
L 267.417282 178.785563 
L 268.423937 176.45733 
L 269.379934 173.663449 
L 270.187582 170.636745 
L 270.944222 166.911572 
L 271.567407 162.720751 
L 272.091158 157.598637 
L 272.45191 151.778053 
L 272.62478 145.258999 
L 272.577814 138.507121 
L 272.319737 132.22089 
L 271.880687 126.633129 
L 271.281574 121.743839 
L 270.546371 117.553018 
L 269.714879 114.060668 
L 268.769366 111.033964 
L 267.743218 108.472907 
L 266.561002 106.144673 
L 265.37872 104.282086 
L 264.093398 102.63899 
L 262.697429 101.192442 
L 261.068798 99.842559 
L 259.298861 98.694325 
L 257.578874 97.829915 
L 255.525018 97.064562 
L 253.623628 96.574858 
L 251.529673 96.251037 
L 249.435719 96.136522 
L 247.341765 96.224622 
L 245.247811 96.520513 
L 243.07532 97.064562 
L 241.17634 97.763032 
L 239.431272 98.62046 
L 237.802641 99.64685 
L 236.17401 100.944625 
L 234.700549 102.419499 
L 233.382071 104.056713 
L 232.173626 105.91185 
L 231.055455 108.041053 
L 229.999778 110.568317 
L 229.082175 113.362197 
L 228.252799 116.621725 
L 227.537043 120.346898 
L 226.920152 124.770542 
L 226.436059 129.892656 
L 226.109562 135.713241 
L 225.968213 142.232295 
L 226.046712 148.984172 
L 226.169196 152.2437 
L 226.169196 152.2437 
" style="fill:none;stroke:#31688e;stroke-width:1.5;"/>
    <path clip-path="url(#p449eef67db)" d="M 337.611513 147.587232 
L 337.853212 153.873463 
L 338.296234 159.694047 
L 338.884354 164.583338 
L 339.606116 168.774159 
L 340.421934 172.266509 
L 341.348702 175.293213 
L 342.352989 177.85427 
L 343.507585 180.182503 
L 344.65929 182.04509 
L 345.990271 183.785986 
L 347.435703 185.304618 
L 349.014871 186.631293 
L 350.643502 187.716672 
L 352.504795 188.678543 
L 354.366088 189.397245 
L 356.462061 189.961085 
L 358.553996 190.296566 
L 360.64795 190.422442 
L 362.741904 190.345629 
L 364.835858 190.061603 
L 366.929812 189.555204 
L 368.791105 188.895352 
L 370.652397 188.00399 
L 372.366723 186.934381 
L 373.909659 185.718561 
L 375.305629 184.354112 
L 376.701598 182.662362 
L 377.888283 180.880974 
L 379.028214 178.763308 
L 380.11303 176.224506 
L 381.049569 173.430626 
L 381.894906 170.171099 
L 382.62405 166.445925 
L 383.252539 162.022281 
L 383.746305 156.900167 
L 384.081243 151.079583 
L 384.230404 144.560529 
L 384.159924 137.808651 
L 383.876767 131.52242 
L 383.409005 125.934659 
L 382.775275 121.045369 
L 382.048704 117.087371 
L 381.18481 113.595021 
L 380.285622 110.80114 
L 379.237153 108.240083 
L 378.097568 106.033818 
L 376.812217 104.049263 
L 375.499568 102.419499 
L 374.112213 101.022559 
L 372.51369 99.729687 
L 370.885059 98.686124 
L 369.023767 97.762745 
L 367.125048 97.064562 
L 365.06852 96.543332 
L 362.974566 96.235514 
L 360.880612 96.136107 
L 358.786657 96.239287 
L 356.692703 96.551095 
L 354.598749 97.088115 
L 352.737457 97.779374 
L 350.876164 98.708206 
L 349.110152 99.858442 
L 347.618902 101.085028 
L 346.095391 102.652323 
L 344.821011 104.282086 
L 343.638848 106.144673 
L 342.500347 108.376282 
L 341.51433 110.80114 
L 340.615117 113.595021 
L 339.801702 116.854548 
L 339.098989 120.579722 
L 338.493329 125.003366 
L 338.018865 130.12548 
L 337.692095 136.178887 
L 337.566358 142.697942 
L 337.611513 147.587232 
L 337.611513 147.587232 
" style="fill:none;stroke:#31688e;stroke-width:1.5;"/>
   </g>
   <g id="LineCollection_4">
    <path clip-path="url(#p449eef67db)" d="M 54 226.747177 
L 54 59.812823 
L 54.232662 59.58 
L 109.606115 59.58 
L 109.799999 59.812823 
L 109.799999 226.747177 
L 109.606115 226.98 
L 54.232662 226.98 
L 54 226.747177 
L 54 226.747177 
" style="fill:none;stroke:#21908d;stroke-width:1.5;"/>
    <path clip-path="url(#p449eef67db)" d="M 165.6 226.747177 
L 165.677554 59.58 
L 221.283669 59.58 
L 221.4 60.045647 
L 221.4 226.747177 
L 221.283669 226.98 
L 165.677554 226.98 
L 165.6 226.747177 
L 165.6 226.747177 
" style="fill:none;stroke:#21908d;stroke-width:1.5;"/>
    <path clip-path="url(#p449eef67db)" d="M 277.2 226.747177 
L 277.2 59.812823 
L 277.355108 59.58 
L 332.961223 59.58 
L 333.000001 60.27847 
L 332.961223 226.98 
L 277.355108 226.98 
L 277.2 226.747177 
L 277.2 226.747177 
" style="fill:none;stroke:#21908d;stroke-width:1.5;"/>
   </g>
   <g id="LineCollection_5">
    <path clip-path="url(#p449eef67db)" d="M 58.646622 148.984172 
L 58.567189 142.465118 
L 58.700662 135.946064 
L 59.036105 129.892656 
L 59.547461 124.537719 
L 60.17595 120.114075 
L 60.958186 116.156078 
L 61.820091 112.896551 
L 62.776033 110.10267 
L 63.782569 107.774437 
L 64.935094 105.640014 
L 66.158991 103.816439 
L 67.512258 102.186676 
L 68.9498 100.789736 
L 70.518972 99.565219 
L 72.322701 98.461502 
L 74.008895 97.664648 
L 75.870188 97.004796 
L 77.964142 96.498397 
L 80.058096 96.214371 
L 82.15205 96.137558 
L 84.246004 96.263434 
L 86.339958 96.599332 
L 88.433912 97.162755 
L 90.295205 97.881457 
L 92.156498 98.843328 
L 93.785129 99.928707 
L 95.41376 101.30174 
L 96.903431 102.885146 
L 98.205698 104.609751 
L 99.420657 106.61032 
L 100.548669 108.938554 
L 101.531402 111.499611 
L 102.43993 114.526314 
L 103.240563 118.018665 
L 103.915646 121.976662 
L 104.487561 126.70134 
L 104.919782 132.22089 
L 105.177902 138.507121 
L 105.224814 145.258999 
L 105.051837 151.778053 
L 104.672021 157.83146 
L 104.137876 162.953574 
L 103.461414 167.377218 
L 102.676078 171.102392 
L 101.762463 174.361919 
L 100.745058 177.1558 
L 99.601668 179.611326 
L 98.43836 181.600209 
L 97.096267 183.442031 
L 95.842027 184.838971 
L 94.250452 186.27149 
L 92.621821 187.432024 
L 90.760528 188.462693 
L 88.828598 189.262615 
L 86.805281 189.856214 
L 84.711327 190.240458 
L 82.617373 190.412073 
L 80.523419 190.380268 
L 78.429465 190.143146 
L 76.335511 189.688141 
L 74.241557 188.989604 
L 72.322701 188.098498 
L 70.751633 187.153788 
L 69.123002 185.91983 
L 67.727033 184.601806 
L 66.331063 182.971243 
L 65.053632 181.113797 
L 63.896515 179.018387 
L 62.84114 176.624832 
L 61.891018 173.896273 
L 61.012397 170.636745 
L 60.281862 167.060751 
L 59.632623 162.720751 
L 59.118555 157.718114 
L 58.758576 152.010876 
L 58.646622 148.984172 
L 58.646622 148.984172 
" style="fill:none;stroke:#35b779;stroke-width:1.5;"/>
    <path clip-path="url(#p449eef67db)" d="M 170.328168 151.312406 
L 170.171198 144.793352 
L 170.233881 138.041474 
L 170.508569 131.755243 
L 170.966644 126.167483 
L 171.58872 121.278192 
L 172.302094 117.320195 
L 173.149477 113.827844 
L 174.114341 110.80114 
L 175.162924 108.240083 
L 176.238998 106.144673 
L 177.42128 104.282086 
L 178.706602 102.63899 
L 180.102571 101.192442 
L 181.731202 99.842559 
L 183.501139 98.694325 
L 185.221126 97.829915 
L 187.274982 97.064562 
L 189.176372 96.574858 
L 191.270327 96.251037 
L 193.364281 96.136522 
L 195.458235 96.224622 
L 197.552189 96.520513 
L 199.72468 97.064562 
L 201.62366 97.763032 
L 203.368728 98.62046 
L 204.997359 99.64685 
L 206.62599 100.944625 
L 208.099451 102.419499 
L 209.417929 104.056713 
L 210.626374 105.91185 
L 211.744545 108.041053 
L 212.800222 110.568317 
L 213.717825 113.362197 
L 214.547201 116.621725 
L 215.262957 120.346898 
L 215.879848 124.770542 
L 216.363941 129.892656 
L 216.690438 135.713241 
L 216.831787 142.232295 
L 216.753288 148.984172 
L 216.461706 155.270403 
L 215.98414 160.858164 
L 215.375196 165.514631 
L 214.648563 169.472629 
L 213.784822 172.964979 
L 212.800222 175.991683 
L 211.728557 178.55274 
L 210.581237 180.725204 
L 209.412493 182.510737 
L 208.02196 184.226973 
L 206.62599 185.615375 
L 204.966963 186.934381 
L 203.368728 187.93954 
L 201.507436 188.846791 
L 199.646143 189.519974 
L 197.552189 190.039487 
L 195.458235 190.335378 
L 193.364281 190.423478 
L 191.270327 190.308963 
L 189.063501 189.961085 
L 187.082418 189.434981 
L 185.221126 188.730085 
L 183.359833 187.784861 
L 181.709843 186.701558 
L 180.102571 185.367558 
L 178.695113 183.907677 
L 177.310632 182.120026 
L 176.107503 180.182503 
L 174.952885 177.85427 
L 173.948856 175.293213 
L 173.022057 172.266509 
L 172.206004 168.774159 
L 171.518426 164.816161 
L 170.942753 160.159694 
L 170.508569 154.804757 
L 170.328168 151.312406 
L 170.328168 151.312406 
" style="fill:none;stroke:#35b779;stroke-width:1.5;"/>
    <path clip-path="url(#p449eef67db)" d="M 281.775131 145.258999 
L 281.82215 138.507121 
L 282.080257 132.22089 
L 282.519271 126.633129 
L 283.118468 121.743839 
L 283.85355 117.553018 
L 284.6852 114.060668 
L 285.630757 111.033964 
L 286.661571 108.461858 
L 287.838808 106.144673 
L 289.021128 104.282086 
L 290.384156 102.550189 
L 291.888011 101.022559 
L 293.408756 99.785773 
L 295.101044 98.694325 
L 296.89868 97.796111 
L 298.87543 97.064562 
L 300.853926 96.558937 
L 302.94788 96.243132 
L 305.041835 96.136176 
L 307.135789 96.231812 
L 309.229743 96.535647 
L 311.325578 97.064562 
L 313.224002 97.763032 
L 315.099014 98.694325 
L 316.674913 99.701903 
L 318.31234 101.022559 
L 319.699764 102.419499 
L 321.095483 104.164369 
L 322.360995 106.144673 
L 323.437182 108.240083 
L 324.485618 110.80114 
L 325.384776 113.595021 
L 326.214038 116.926384 
L 326.938518 120.812545 
L 327.532963 125.236189 
L 327.997969 130.358303 
L 328.316278 136.411711 
L 328.434142 142.930765 
L 328.331963 149.682643 
L 328.014459 155.968873 
L 327.532963 161.323811 
L 326.901115 165.980278 
L 326.1471 169.938275 
L 325.283391 173.31635 
L 324.313097 176.224506 
L 323.217374 178.785563 
L 322.08817 180.880974 
L 320.841144 182.743561 
L 319.466852 184.396019 
L 318.050388 185.770264 
L 316.442252 187.021693 
L 314.677155 188.098498 
L 312.952328 188.911325 
L 310.858374 189.634286 
L 308.76442 190.110506 
L 306.670466 190.367069 
L 304.576511 190.417605 
L 302.482557 190.265111 
L 300.388603 189.901152 
L 298.294649 189.305909 
L 296.433356 188.554365 
L 294.572064 187.552999 
L 292.943433 186.424339 
L 291.314802 184.995844 
L 289.903579 183.442031 
L 288.548256 181.579444 
L 287.454312 179.716857 
L 286.428909 177.569459 
L 285.468524 175.060389 
L 284.559985 172.033686 
L 283.759448 168.541335 
L 283.084346 164.583338 
L 282.519271 159.926871 
L 282.094257 154.571933 
L 281.833859 148.518526 
L 281.775131 145.258999 
L 281.775131 145.258999 
" style="fill:none;stroke:#35b779;stroke-width:1.5;"/>
   </g>
   <g id="LineCollection_6">
    <path clip-path="url(#p449eef67db)" d="M 63.536984 146.655939 
L 63.479785 142.232295 
L 63.641702 137.808651 
L 64.011674 133.61783 
L 64.587564 129.659833 
L 65.322075 126.167483 
L 66.181047 123.140779 
L 67.120898 120.579722 
L 68.202957 118.251488 
L 69.433335 116.156078 
L 70.751633 114.373685 
L 72.147603 112.875614 
L 73.543572 111.688203 
L 75.172203 110.61774 
L 76.800834 109.828875 
L 78.429465 109.28224 
L 80.171048 108.938554 
L 81.686727 108.82782 
L 83.315358 108.90103 
L 84.943989 109.175781 
L 86.57262 109.663521 
L 88.201251 110.385829 
L 89.829882 111.377682 
L 91.225851 112.483061 
L 92.621821 113.878327 
L 93.885431 115.457608 
L 95.085268 117.320195 
L 96.169603 119.415605 
L 97.13441 121.743839 
L 98.044978 124.537719 
L 98.80084 127.564423 
L 99.443635 131.056773 
L 99.936693 135.014771 
L 100.233669 139.205591 
L 100.325705 143.629235 
L 100.198825 148.052879 
L 99.865824 152.2437 
L 99.3322 156.201697 
L 98.644736 159.694047 
L 97.838744 162.720751 
L 96.86738 165.514631 
L 95.834238 167.842865 
L 94.665812 169.938275 
L 93.35995 171.800862 
L 92.142244 173.197803 
L 90.611872 174.594743 
L 89.131897 175.643354 
L 87.503266 176.514336 
L 85.79755 177.1558 
L 84.246004 177.52719 
L 82.617373 177.714671 
L 80.988742 177.702874 
L 79.360111 177.491324 
L 77.73148 177.071289 
L 76.102849 176.424598 
L 74.474218 175.520939 
L 72.90441 174.361919 
L 71.657841 173.197803 
L 70.259372 171.568039 
L 68.990755 169.705452 
L 67.851437 167.610042 
L 66.796386 165.164621 
L 65.86574 162.403496 
L 65.050131 159.228401 
L 64.392661 155.73605 
L 63.886255 151.778053 
L 63.577242 147.587232 
L 63.536984 146.655939 
L 63.536984 146.655939 
" style="fill:none;stroke:#90d743;stroke-width:1.5;"/>
    <path clip-path="url(#p449eef67db)" d="M 175.213829 148.285702 
L 175.075623 143.862058 
L 175.155974 139.438414 
L 175.463127 135.014771 
L 175.956295 131.056773 
L 176.650006 127.331599 
L 177.490972 124.072072 
L 178.441526 121.278192 
L 179.451305 118.949958 
L 180.590485 116.854548 
L 181.859659 114.991961 
L 183.127172 113.498603 
L 184.523141 112.18193 
L 186.082873 111.033964 
L 187.547741 110.209793 
L 189.176372 109.540159 
L 190.805003 109.09949 
L 192.433634 108.868596 
L 194.062265 108.837919 
L 195.690896 109.006226 
L 197.397542 109.4042 
L 198.948158 109.976441 
L 200.576789 110.821727 
L 201.972759 111.776888 
L 203.368728 112.98761 
L 204.773797 114.526314 
L 205.966816 116.156078 
L 207.091313 118.051107 
L 208.181816 120.346898 
L 209.142591 122.907955 
L 209.960727 125.701836 
L 210.684297 128.961363 
L 211.279222 132.725062 
L 211.695256 136.877357 
L 211.904541 141.301001 
L 211.893067 145.724645 
L 211.659669 150.148289 
L 211.212359 154.33911 
L 210.581237 158.129177 
L 209.838509 161.323811 
L 208.903055 164.350515 
L 207.876187 166.911572 
L 206.818171 169.006982 
L 205.650618 170.869569 
L 204.299375 172.59422 
L 202.903405 174.007607 
L 201.507436 175.127538 
L 199.878805 176.133396 
L 198.250174 176.867623 
L 196.522809 177.388623 
L 194.992912 177.650511 
L 193.364281 177.733189 
L 191.73565 177.617307 
L 190.107019 177.298214 
L 188.478388 176.762407 
L 186.849757 175.985829 
L 185.221126 174.929947 
L 183.726275 173.663449 
L 182.418688 172.266509 
L 181.189179 170.636745 
L 180.052461 168.774159 
L 178.939263 166.496195 
L 178.008617 164.098731 
L 177.161578 161.323811 
L 176.405897 158.064284 
L 175.819756 154.571933 
L 175.378539 150.613936 
L 175.213829 148.285702 
L 175.213829 148.285702 
" style="fill:none;stroke:#90d743;stroke-width:1.5;"/>
    <path clip-path="url(#p449eef67db)" d="M 286.887849 149.449819 
L 286.690544 145.026175 
L 286.713525 140.602531 
L 286.959076 136.178887 
L 287.419708 131.988067 
L 288.05754 128.238154 
L 288.824677 125.003366 
L 289.696784 122.209485 
L 290.723835 119.648428 
L 291.781604 117.553018 
L 292.949136 115.690431 
L 294.339402 113.921918 
L 295.735372 112.517618 
L 297.131341 111.404981 
L 298.759972 110.40614 
L 300.388603 109.677882 
L 302.076713 109.171377 
L 303.645865 108.905202 
L 305.274496 108.827259 
L 306.903127 108.947891 
L 308.531758 109.271952 
L 310.160389 109.813166 
L 311.78902 110.595877 
L 313.200924 111.499611 
L 314.62554 112.663727 
L 315.982403 114.060668 
L 317.250443 115.690431 
L 318.417998 117.553018 
L 319.476469 119.648428 
L 320.502952 122.209485 
L 321.375379 125.003366 
L 322.147244 128.262893 
L 322.747493 131.755243 
L 323.201474 135.713241 
L 323.462894 139.904061 
L 323.520166 144.327705 
L 323.358341 148.751349 
L 322.988243 152.94217 
L 322.453359 156.667344 
L 321.734715 160.159694 
L 320.862821 163.284025 
L 319.879189 165.980278 
L 318.768867 168.362354 
L 317.566816 170.403922 
L 316.20959 172.232857 
L 314.813621 173.721218 
L 313.417651 174.900967 
L 311.78902 175.964123 
L 310.160389 176.746834 
L 308.531758 177.288048 
L 306.829474 177.621446 
L 305.274496 177.732741 
L 303.645865 177.654798 
L 302.017234 177.375148 
L 300.388603 176.882118 
L 298.759972 176.15386 
L 297.131341 175.155019 
L 295.735372 174.042382 
L 294.339402 172.638082 
L 293.114472 171.102392 
L 291.914734 169.239805 
L 290.830234 167.144395 
L 289.780398 164.583338 
L 288.889197 161.789458 
L 288.100389 158.52993 
L 287.486395 155.03758 
L 287.019545 151.079583 
L 286.887849 149.449819 
L 286.887849 149.449819 
" style="fill:none;stroke:#90d743;stroke-width:1.5;"/>
   </g>
   <g id="LineCollection_7">
    <path clip-path="url(#p449eef67db)" d="M 69.571739 147.121586 
L 69.410723 143.862058 
L 69.486806 140.602531 
L 69.775289 137.575828 
L 70.28631 134.60378 
L 70.959614 131.988067 
L 71.78292 129.659833 
L 72.765668 127.564423 
L 73.776233 125.90038 
L 74.939541 124.413606 
L 76.102849 123.269607 
L 77.266157 122.39792 
L 78.662126 121.651434 
L 80.058096 121.189048 
L 81.454065 120.985392 
L 82.850035 121.02993 
L 84.246004 121.325146 
L 85.641974 121.886359 
L 86.939902 122.675132 
L 88.071885 123.606426 
L 89.168569 124.770542 
L 90.295205 126.308283 
L 91.277041 128.03007 
L 92.201791 130.12548 
L 92.97746 132.453713 
L 93.599044 135.014771 
L 94.054844 137.808651 
L 94.326557 140.835355 
L 94.385563 144.094882 
L 94.207261 147.354409 
L 93.814813 150.381113 
L 93.228623 153.174993 
L 92.458837 155.73605 
L 91.61349 157.83146 
L 90.639666 159.694047 
L 89.541036 161.323811 
L 88.313848 162.720751 
L 87.253544 163.652045 
L 85.874635 164.552397 
L 84.478666 165.16037 
L 83.082696 165.49852 
L 81.686727 165.584304 
L 80.290757 165.422406 
L 78.894788 165.004526 
L 77.57079 164.350515 
L 76.546536 163.652045 
L 75.404864 162.640418 
L 74.241557 161.301787 
L 73.160274 159.694047 
L 72.186301 157.83146 
L 71.341252 155.73605 
L 70.631337 153.407816 
L 70.053648 150.774235 
L 69.638325 147.820056 
L 69.571739 147.121586 
L 69.571739 147.121586 
" style="fill:none;stroke:#fde725;stroke-width:1.5;"/>
    <path clip-path="url(#p449eef67db)" d="M 181.032037 144.793352 
L 181.04051 141.533825 
L 181.265879 138.479058 
L 181.709902 135.480417 
L 182.293131 132.91936 
L 183.024466 130.591127 
L 183.895239 128.495716 
L 184.900866 126.633129 
L 185.91911 125.157809 
L 187.085192 123.839249 
L 188.245726 122.832048 
L 189.584295 121.976662 
L 190.805003 121.439605 
L 192.200973 121.07991 
L 193.596942 120.973416 
L 194.992912 121.114504 
L 196.390679 121.511015 
L 197.784851 122.182518 
L 198.948158 122.98187 
L 200.143775 124.072072 
L 201.316326 125.469013 
L 202.375716 127.098776 
L 203.319127 128.961363 
L 204.139637 131.056773 
L 204.886707 133.61783 
L 205.453546 136.411711 
L 205.807081 139.205591 
L 205.980882 142.232295 
L 205.93896 145.491822 
L 205.683733 148.518526 
L 205.199131 151.545229 
L 204.510131 154.33911 
L 203.710686 156.667344 
L 202.757518 158.762754 
L 201.740097 160.487895 
L 200.570235 162.022281 
L 199.413482 163.189363 
L 198.201206 164.117691 
L 196.854204 164.857753 
L 195.458235 165.342576 
L 194.062265 165.567191 
L 192.666296 165.543212 
L 191.270327 165.26938 
L 189.874357 164.731217 
L 188.711049 164.059816 
L 187.547741 163.154912 
L 186.384434 161.970011 
L 185.221126 160.429782 
L 184.242297 158.762754 
L 183.289225 156.667344 
L 182.490099 154.33911 
L 181.848979 151.778053 
L 181.375461 148.984172 
L 181.086682 145.957469 
L 181.032037 144.793352 
L 181.032037 144.793352 
" style="fill:none;stroke:#fde725;stroke-width:1.5;"/>
    <path clip-path="url(#p449eef67db)" d="M 292.700985 146.190292 
L 292.60844 142.930765 
L 292.752319 139.671238 
L 293.109641 136.644534 
L 293.656599 133.850654 
L 294.381744 131.289597 
L 295.280565 128.961363 
L 296.223988 127.098776 
L 297.364003 125.360727 
L 298.527311 123.998362 
L 299.747024 122.907955 
L 301.086588 122.028685 
L 302.482557 121.412752 
L 303.878527 121.06743 
L 305.274496 120.974746 
L 306.670466 121.129702 
L 308.066435 121.54021 
L 309.42978 122.209485 
L 310.452941 122.907955 
L 311.556359 123.880626 
L 312.741364 125.236189 
L 313.882974 126.938378 
L 314.814042 128.72854 
L 315.658785 130.82395 
L 316.368732 133.152184 
L 316.93318 135.713241 
L 317.361903 138.739944 
L 317.567726 141.766648 
L 317.559256 145.026175 
L 317.337013 148.052879 
L 316.890124 151.079583 
L 316.243399 153.873463 
L 315.49021 156.201697 
L 314.580959 158.321866 
L 313.553601 160.159694 
L 312.487005 161.645988 
L 311.272198 162.953574 
L 310.140772 163.884868 
L 308.76442 164.712242 
L 307.36845 165.258072 
L 305.972481 165.539022 
L 304.576511 165.569853 
L 303.180542 165.352231 
L 301.784573 164.874901 
L 300.621265 164.260205 
L 299.455374 163.419221 
L 298.238315 162.255104 
L 297.114983 160.858164 
L 296.092968 159.228401 
L 295.17868 157.365814 
L 294.339402 155.142382 
L 293.641418 152.645286 
L 293.109641 149.915466 
L 292.752319 146.888762 
L 292.700985 146.190292 
L 292.700985 146.190292 
" style="fill:none;stroke:#fde725;stroke-width:1.5;"/>
   </g>
   <g id="line2d_1">
    <path clip-path="url(#p449eef67db)" d="M 54 195.36 
L 388.8 195.36 
" style="fill:none;stroke:#ff0000;stroke-linecap:square;stroke-width:1.5;"/>
   </g>
   <g id="line2d_2">
    <path clip-path="url(#p449eef67db)" d="M 54 91.2 
L 388.8 91.2 
" style="fill:none;stroke:#ff0000;stroke-linecap:square;stroke-width:1.5;"/>
   </g>
   <g id="patch_3">
    <path d="M 54 252 
L 54 34.56 
" style="fill:none;stroke:#000000;stroke-linecap:square;stroke-linejoin:miter;stroke-width:0.8;"/>
   </g>
   <g id="patch_4">
    <path d="M 388.8 252 
L 388.8 34.56 
" style="fill:none;stroke:#000000;stroke-linecap:square;stroke-linejoin:miter;stroke-width:0.8;"/>
   </g>
   <g id="patch_5">
    <path d="M 54 252 
L 388.8 252 
" style="fill:none;stroke:#000000;stroke-linecap:square;stroke-linejoin:miter;stroke-width:0.8;"/>
   </g>
   <g id="patch_6">
    <path d="M 54 34.56 
L 388.8 34.56 
" style="fill:none;stroke:#000000;stroke-linecap:square;stroke-linejoin:miter;stroke-width:0.8;"/>
   </g>
  </g>
 </g>
 <defs>
  <clipPath id="p449eef67db">
   <rect height="217.44" width="334.8" x="54" y="34.56"/>
  </clipPath>
 </defs>
</svg>
