<?xml version="1.0" encoding="utf-8" standalone="no"?>
<!DOCTYPE svg PUBLIC "-//W3C//DTD SVG 1.1//EN"
  "http://www.w3.org/Graphics/SVG/1.1/DTD/svg11.dtd">
<!-- Created with matplotlib (http://matplotlib.org/) -->
<svg height="288pt" version="1.1" viewBox="0 0 432 288" width="432pt" xmlns="http://www.w3.org/2000/svg" xmlns:xlink="http://www.w3.org/1999/xlink">
 <defs>
  <style type="text/css">
*{stroke-linecap:butt;stroke-linejoin:round;}
  </style>
 </defs>
 <g id="figure_1">
  <g id="patch_1">
   <path d="M 0 288 
L 432 288 
L 432 0 
L 0 0 
z
" style="fill:#ffffff;"/>
  </g>
  <g id="axes_1">
   <g id="patch_2">
    <path d="M 54 252 
L 388.8 252 
L 388.8 34.56 
L 54 34.56 
z
" style="fill:#ffffff;"/>
   </g>
   <g id="matplotlib.axis_1"/>
   <g id="matplotlib.axis_2"/>
   <g id="LineCollection_1">
    <path clip-path="url(#pb7741023f6)" d="M 268.474239 209.518248 
L 268.793864 210.216718 
L 269.444614 210.991663 
L 270.375261 211.728623 
L 271.538568 212.406254 
L 273.167199 213.12968 
L 275.493815 213.91344 
L 278.285754 214.623792 
L 281.543016 215.252061 
L 285.730924 215.84968 
L 291.08214 216.37183 
L 297.131341 216.724794 
L 303.645865 216.877842 
L 310.393051 216.813716 
L 316.674913 216.541307 
L 322.258791 216.09338 
L 327.144684 215.491062 
L 331.099931 214.797296 
L 334.357192 214.013026 
L 336.738711 213.243421 
L 338.777762 212.347045 
L 339.995002 211.613658 
L 340.871716 210.878171 
L 341.406107 210.216718 
L 341.725712 209.518248 
L 341.802363 208.766108 
L 341.656537 208.121307 
L 341.267821 207.422837 
L 340.629464 206.724367 
L 339.475747 205.872043 
L 338.079778 205.123525 
L 336.3045 204.396134 
L 333.659208 203.574749 
L 330.634607 202.865745 
L 326.912022 202.210629 
L 322.258791 201.621196 
L 316.907575 201.170569 
L 310.858374 200.884456 
L 304.34385 200.800538 
L 297.829326 200.936322 
L 291.780125 201.277494 
L 286.428909 201.78977 
L 282.008339 202.414056 
L 278.285754 203.142143 
L 275.261154 203.94174 
L 272.701876 204.8635 
L 270.840584 205.799196 
L 269.570671 206.724367 
L 268.932149 207.422837 
L 268.513968 208.210567 
L 268.392154 208.819777 
L 268.474239 209.518248 
L 268.474239 209.518248 
" style="fill:none;stroke:#440154;stroke-width:1.5;"/>
    <path clip-path="url(#pb7741023f6)" d="M 268.466958 78.205869 
L 268.775583 78.904339 
L 269.444614 79.714741 
L 270.375261 80.461248 
L 271.538568 81.149217 
L 273.276333 81.931043 
L 275.726477 82.756806 
L 278.751077 83.522372 
L 282.241001 84.184585 
L 286.661571 84.797279 
L 292.012787 85.299877 
L 298.061987 85.632538 
L 304.34385 85.759462 
L 310.858374 85.675544 
L 317.140236 85.373895 
L 322.724114 84.888744 
L 327.610007 84.241574 
L 331.565254 83.496493 
L 334.822516 82.653571 
L 337.149131 81.839922 
L 339.010424 80.962184 
L 340.35756 80.068456 
L 341.104378 79.344029 
L 341.569701 78.635828 
L 341.783487 77.973046 
L 341.7792 77.274576 
L 341.53967 76.576106 
L 341.055396 75.877636 
L 340.173732 75.078873 
L 339.010424 74.338375 
L 337.381793 73.568721 
L 335.38113 72.850932 
L 332.4959 72.069461 
L 329.005976 71.367367 
L 324.585407 70.724237 
L 319.23419 70.19719 
L 313.18499 69.840019 
L 306.670466 69.683025 
L 299.92328 69.743258 
L 293.641418 70.011646 
L 288.05754 70.455027 
L 283.171647 71.051622 
L 278.983739 71.78693 
L 275.726477 72.579557 
L 273.399861 73.340149 
L 271.354084 74.247872 
L 270.142599 74.992412 
L 269.211953 75.805545 
L 268.74663 76.42529 
L 268.474239 77.041752 
L 268.392154 77.740223 
L 268.466958 78.205869 
L 268.466958 78.205869 
" style="fill:none;stroke:#440154;stroke-width:1.5;"/>
   </g>
   <g id="LineCollection_2">
    <path clip-path="url(#pb7741023f6)" d="M 103.996608 175.526036 
L 104.571941 176.224506 
L 105.552283 176.922976 
L 107.046838 177.638761 
L 109.140792 178.350161 
L 111.932731 179.036558 
L 115.825132 179.716857 
L 120.541209 180.280013 
L 126.125087 180.708669 
L 132.639611 180.97168 
L 139.619458 181.022689 
L 146.366644 180.854361 
L 152.648506 180.476023 
L 157.851645 179.94968 
L 162.18763 179.287845 
L 165.212231 178.633218 
L 167.538846 177.942667 
L 169.167477 177.278954 
L 170.330785 176.61359 
L 171.062629 175.991683 
L 171.511961 175.293213 
L 171.609057 174.827566 
L 171.494093 174.219227 
L 171.261432 173.801775 
L 170.694889 173.197803 
L 169.632801 172.484484 
L 168.00417 171.738786 
L 165.910215 171.046528 
L 162.885615 170.3184 
L 159.16303 169.673763 
L 154.509798 169.112088 
L 149.158582 168.691131 
L 142.87672 168.424628 
L 136.129534 168.364808 
L 129.382349 168.529861 
L 123.333148 168.894548 
L 118.214593 169.408202 
L 114.026685 170.03034 
L 110.536762 170.766813 
L 107.977484 171.523969 
L 106.348853 172.187719 
L 105.185546 172.840942 
L 104.451062 173.430626 
L 103.940707 174.129096 
L 103.790775 174.827566 
L 103.888159 175.293213 
L 103.996608 175.526036 
L 103.996608 175.526036 
" style="fill:none;stroke:#443983;stroke-width:1.5;"/>
    <path clip-path="url(#pb7741023f6)" d="M 103.940707 112.430904 
L 104.451062 113.129374 
L 105.347237 113.827844 
L 106.814177 114.583714 
L 108.675469 115.269007 
L 111.234746 115.962805 
L 114.72467 116.650327 
L 119.14524 117.26253 
L 124.031133 117.719628 
L 129.847672 118.048917 
L 136.594858 118.198241 
L 143.342043 118.122942 
L 149.623905 117.840246 
L 155.207783 117.377173 
L 159.861015 116.780696 
L 163.5836 116.093965 
L 166.6082 115.305089 
L 168.469493 114.632782 
L 169.865462 113.939735 
L 170.796108 113.269942 
L 171.330035 112.663727 
L 171.598504 111.965257 
L 171.580271 111.499611 
L 171.403294 111.033964 
L 170.828139 110.335494 
L 169.847845 109.637024 
L 168.236831 108.876012 
L 166.142877 108.177022 
L 163.350938 107.499672 
L 159.574891 106.843143 
L 154.74246 106.26875 
L 149.158582 105.844643 
L 142.644058 105.585604 
L 135.664211 105.538378 
L 128.917026 105.710621 
L 122.635163 106.093273 
L 117.516609 106.614353 
L 113.011885 107.30879 
L 109.606115 108.079797 
L 107.2795 108.831066 
L 105.88353 109.455825 
L 104.720222 110.211307 
L 104.146142 110.80114 
L 103.819646 111.499611 
L 103.801359 111.965257 
L 103.940707 112.430904 
L 103.940707 112.430904 
" style="fill:none;stroke:#443983;stroke-width:1.5;"/>
    <path clip-path="url(#pb7741023f6)" d="M 250.337029 209.983894 
L 250.680773 210.915188 
L 251.297012 211.904911 
L 252.227658 212.919512 
L 253.390966 213.848776 
L 254.786935 214.7086 
L 256.648228 215.604508 
L 259.055108 216.502949 
L 261.999444 217.349552 
L 265.546639 218.132712 
L 269.909937 218.859065 
L 275.430819 219.529652 
L 281.775678 220.06727 
L 289.453509 220.48761 
L 298.294649 220.740919 
L 307.833773 220.788269 
L 317.140236 220.617211 
L 325.748714 220.238685 
L 332.961223 219.704137 
L 339.010424 219.035524 
L 343.896317 218.274235 
L 347.863097 217.434242 
L 351.144933 216.502949 
L 353.668103 215.554863 
L 355.762057 214.51229 
L 357.158026 213.596052 
L 358.321334 212.579658 
L 359.019319 211.746656 
L 359.519258 210.915188 
L 359.862933 209.983894 
L 359.994546 209.052601 
L 359.920562 208.121307 
L 359.639498 207.190014 
L 359.141908 206.25872 
L 358.321334 205.235193 
L 357.390688 204.379316 
L 355.994719 203.39692 
L 354.133426 202.394541 
L 352.039472 201.515897 
L 349.247533 200.600356 
L 345.839116 199.739666 
L 341.802363 198.96283 
L 336.91647 198.258135 
L 331.031055 197.644256 
L 324.120083 197.153769 
L 315.976928 196.80785 
L 307.135789 196.65561 
L 297.829326 196.719634 
L 288.988186 197.004877 
L 281.310354 197.469554 
L 274.79583 198.079221 
L 269.444614 198.792866 
L 265.256706 199.548255 
L 261.526588 200.438136 
L 258.509521 201.387323 
L 256.182905 202.339568 
L 254.321612 203.325926 
L 252.925643 204.287243 
L 251.790738 205.327427 
L 251.058021 206.25872 
L 250.560476 207.190014 
L 250.279476 208.121307 
L 250.205472 209.052601 
L 250.337029 209.983894 
L 250.337029 209.983894 
" style="fill:none;stroke:#443983;stroke-width:1.5;"/>
    <path clip-path="url(#pb7741023f6)" d="M 250.330063 78.671516 
L 250.66403 79.602809 
L 251.297012 80.639194 
L 252.013825 81.465396 
L 253.158304 82.452168 
L 254.554274 83.372778 
L 256.415566 84.327112 
L 258.742182 85.255263 
L 261.534121 86.123917 
L 265.024044 86.962946 
L 269.211953 87.730368 
L 274.097846 88.400212 
L 279.914385 88.978965 
L 287.126894 89.463222 
L 295.270049 89.781563 
L 304.34385 89.909045 
L 313.417651 89.818527 
L 322.026129 89.516368 
L 329.703961 89.026486 
L 335.985823 88.413917 
L 341.33704 87.673994 
L 345.757609 86.838169 
L 349.014871 86.026035 
L 351.80681 85.130121 
L 354.133426 84.165459 
L 355.994719 83.16308 
L 357.411808 82.163866 
L 358.553996 81.06988 
L 359.251981 80.125549 
L 359.717304 79.169073 
L 359.949965 78.257456 
L 359.994546 77.507399 
L 359.862933 76.576106 
L 359.484642 75.577726 
L 358.948139 74.713519 
L 358.088673 73.749112 
L 356.925365 72.793106 
L 355.529395 71.914764 
L 353.629611 70.988345 
L 351.108826 70.045345 
L 348.084225 69.181067 
L 344.594302 68.416017 
L 340.173732 67.684392 
L 334.769198 67.030348 
L 328.307992 66.484696 
L 320.63016 66.067614 
L 311.78902 65.817157 
L 302.249896 65.772519 
L 292.943433 65.946389 
L 284.334955 66.328122 
L 277.355108 66.845209 
L 271.305907 67.509022 
L 266.420014 68.264535 
L 262.464767 69.094791 
L 259.440167 69.933666 
L 256.88089 70.858313 
L 254.786935 71.8514 
L 253.390966 72.711224 
L 252.227658 73.640488 
L 251.297012 74.655089 
L 250.801385 75.411989 
L 250.366366 76.471734 
L 250.218985 77.274576 
L 250.241763 78.205869 
L 250.330063 78.671516 
L 250.330063 78.671516 
" style="fill:none;stroke:#443983;stroke-width:1.5;"/>
    <path clip-path="url(#pb7741023f6)" d="M 279.140792 143.629235 
L 279.449062 144.123568 
L 280.147047 144.700119 
L 281.198694 145.258999 
L 283.166026 145.957469 
L 285.730924 146.5789 
L 288.988186 147.132737 
L 293.408756 147.629403 
L 298.527311 147.963338 
L 304.111188 148.10481 
L 309.927728 148.031347 
L 315.511605 147.733563 
L 320.164837 147.271186 
L 324.09055 146.655939 
L 327.033711 145.957469 
L 329.005976 145.256936 
L 330.262818 144.560529 
L 330.867269 143.973189 
L 331.05928 143.629235 
L 331.099931 143.100244 
L 330.867269 142.586811 
L 330.401946 142.111183 
L 329.703961 141.650782 
L 328.433185 141.068178 
L 326.214038 140.378368 
L 323.887422 139.866052 
L 320.164837 139.288814 
L 315.976928 138.862818 
L 310.858374 138.562284 
L 305.274496 138.452124 
L 299.457957 138.557751 
L 294.106741 138.872179 
L 289.453509 139.364412 
L 285.963586 139.933508 
L 283.166026 140.602531 
L 281.077693 141.357689 
L 279.914385 142.017557 
L 279.421289 142.465118 
L 279.140792 142.930765 
L 279.085186 143.396412 
L 279.140792 143.629235 
L 279.140792 143.629235 
" style="fill:none;stroke:#443983;stroke-width:1.5;"/>
   </g>
   <g id="LineCollection_3">
    <path clip-path="url(#pb7741023f6)" d="M 76.083022 175.293213 
L 76.335511 176.310855 
L 76.800834 177.246251 
L 77.498819 178.159251 
L 78.429465 179.032082 
L 79.825434 179.993688 
L 81.553322 180.880974 
L 83.780681 181.741584 
L 86.4052 182.510737 
L 89.829882 183.263864 
L 94.01779 183.943349 
L 99.369006 184.567521 
L 105.88353 185.094681 
L 114.300203 185.537441 
L 124.496456 185.840499 
L 136.362196 185.967995 
L 148.693259 185.88072 
L 159.861015 185.585724 
L 168.934816 185.132471 
L 175.914663 184.578929 
L 181.639134 183.907677 
L 186.151772 183.150912 
L 189.641696 182.339494 
L 192.200973 181.539552 
L 194.348798 180.64815 
L 196.022613 179.716857 
L 197.319527 178.734466 
L 198.250174 177.74461 
L 198.788429 176.922976 
L 199.18082 175.959306 
L 199.339121 175.060389 
L 199.29993 174.129096 
L 199.054877 173.197803 
L 198.593801 172.266509 
L 197.784851 171.215798 
L 196.854204 170.349365 
L 195.458235 169.375282 
L 193.829604 168.509584 
L 191.625246 167.610042 
L 188.943711 166.776664 
L 185.686449 166.005312 
L 181.731202 165.299459 
L 176.845309 164.654912 
L 170.796108 164.083194 
L 163.118277 163.592928 
L 153.811814 163.231653 
L 142.87672 163.036242 
L 131.243641 163.04831 
L 120.075886 163.276673 
L 110.536762 163.68626 
L 102.85893 164.228034 
L 96.809729 164.862259 
L 91.923836 165.586188 
L 87.968589 166.391921 
L 84.943989 167.219014 
L 82.384712 168.148569 
L 80.523419 169.039799 
L 78.894788 170.077859 
L 77.954274 170.869569 
L 77.033495 171.926908 
L 76.547556 172.732156 
L 76.196477 173.663449 
L 76.054949 174.594743 
L 76.083022 175.293213 
L 76.083022 175.293213 
" style="fill:none;stroke:#31688e;stroke-width:1.5;"/>
    <path clip-path="url(#pb7741023f6)" d="M 76.100017 112.430904 
L 76.345076 113.362197 
L 76.806146 114.293491 
L 77.50501 115.224784 
L 78.478029 116.156078 
L 79.825434 117.114178 
L 81.502097 118.018665 
L 83.780681 118.952072 
L 86.57262 119.814905 
L 89.834517 120.579722 
L 94.01779 121.313666 
L 99.200236 121.976662 
L 105.650869 122.556738 
L 113.561362 123.029736 
L 123.100486 123.368727 
L 134.03558 123.534552 
L 145.668659 123.49391 
L 156.603753 123.241459 
L 165.910215 122.812895 
L 173.355386 122.259419 
L 179.171925 121.623217 
L 183.825156 120.912049 
L 187.657921 120.114075 
L 190.805003 119.229278 
L 193.131619 118.36203 
L 194.992912 117.455305 
L 196.388881 116.568269 
L 197.552189 115.584882 
L 198.276008 114.759138 
L 198.852407 113.827844 
L 199.203557 112.896551 
L 199.345041 111.965257 
L 199.281833 111.033964 
L 198.948158 109.96556 
L 198.482835 109.134372 
L 197.752004 108.240083 
L 196.621543 107.258484 
L 195.225573 106.36542 
L 193.305439 105.446203 
L 191.037665 104.629331 
L 188.245726 103.864813 
L 184.755803 103.146458 
L 180.567894 102.507065 
L 175.216678 101.914819 
L 168.236831 101.383699 
L 159.628353 100.965594 
L 149.158582 100.687087 
L 137.060181 100.591011 
L 124.729117 100.714889 
L 114.026685 101.033856 
L 105.185546 101.512632 
L 98.205698 102.110616 
L 92.854482 102.785089 
L 88.666574 103.527554 
L 85.409312 104.317002 
L 82.678522 105.21338 
L 80.58515 106.144673 
L 79.031058 107.075967 
L 77.882467 108.00726 
L 77.033495 108.968815 
L 76.494277 109.869847 
L 76.166341 110.80114 
L 76.051526 111.732434 
L 76.100017 112.430904 
L 76.100017 112.430904 
" style="fill:none;stroke:#31688e;stroke-width:1.5;"/>
    <path clip-path="url(#pb7741023f6)" d="M 235.430755 210.682364 
L 235.808896 212.079305 
L 236.440648 213.476245 
L 237.202304 214.640362 
L 238.267964 215.836124 
L 239.624148 216.968595 
L 241.08176 217.899889 
L 242.964796 218.831182 
L 245.247811 219.695598 
L 248.03975 220.499447 
L 251.529673 221.25111 
L 255.717582 221.915671 
L 261.068798 222.52626 
L 267.815983 223.058176 
L 276.424461 223.500702 
L 287.359555 223.827646 
L 300.621265 223.994223 
L 315.046282 223.951238 
L 328.07533 223.697132 
L 338.545101 223.281383 
L 346.688256 222.74345 
L 352.970118 222.110653 
L 357.62335 221.437495 
L 361.355791 220.693769 
L 364.370535 219.882328 
L 366.697151 219.05672 
L 368.791105 218.079852 
L 370.419736 217.07936 
L 371.719134 216.037302 
L 372.815041 214.873185 
L 373.676998 213.620288 
L 374.30464 212.312128 
L 374.722172 210.915188 
L 374.914893 209.518248 
L 374.899768 208.121307 
L 374.677796 206.724367 
L 374.234419 205.327427 
L 373.536917 203.930487 
L 372.721124 202.76637 
L 371.583044 201.552322 
L 370.187074 200.425714 
L 368.558443 199.414627 
L 366.697151 198.511827 
L 364.370535 197.632 
L 361.578596 196.818581 
L 358.088673 196.045682 
L 353.900764 195.353262 
L 348.78221 194.733037 
L 342.267686 194.174474 
L 334.124531 193.707496 
L 323.887422 193.352239 
L 311.556359 193.153394 
L 298.061987 193.158178 
L 285.265601 193.379497 
L 274.563169 193.779502 
L 266.187352 194.304512 
L 259.672828 194.922494 
L 254.554274 195.617 
L 250.366366 196.404609 
L 247.109104 197.232439 
L 244.491567 198.109903 
L 242.223211 199.108436 
L 240.361918 200.186483 
L 238.965949 201.241128 
L 237.802641 202.38421 
L 236.871994 203.59936 
L 236.167577 204.86178 
L 235.644194 206.25872 
L 235.35086 207.655661 
L 235.267402 209.052601 
L 235.389798 210.449541 
L 235.430755 210.682364 
L 235.430755 210.682364 
" style="fill:none;stroke:#31688e;stroke-width:1.5;"/>
    <path clip-path="url(#pb7741023f6)" d="M 235.470404 79.602809 
L 235.875175 80.99975 
L 236.527125 82.39669 
L 237.337318 83.613645 
L 238.321275 84.724924 
L 239.675676 85.88904 
L 241.292564 86.949285 
L 243.153857 87.894772 
L 245.480473 88.809493 
L 248.272411 89.651013 
L 251.762335 90.446309 
L 255.950243 91.156417 
L 261.068798 91.790671 
L 267.583322 92.360492 
L 275.726477 92.836401 
L 285.730924 93.192842 
L 298.061987 93.401822 
L 311.556359 93.406606 
L 324.352745 93.195871 
L 335.055177 92.808884 
L 343.663655 92.28249 
L 350.410841 91.650793 
L 355.529395 90.96162 
L 359.717304 90.180871 
L 362.974566 89.361622 
L 365.766505 88.427624 
L 367.860459 87.510256 
L 369.721751 86.449859 
L 371.117721 85.418362 
L 372.323434 84.259277 
L 373.238952 83.09516 
L 374.032391 81.69822 
L 374.55581 80.30128 
L 374.849169 78.904339 
L 374.932579 77.507399 
L 374.810218 76.110459 
L 374.470583 74.713519 
L 373.884364 73.316579 
L 373.169623 72.152462 
L 372.196745 70.988345 
L 370.887812 69.824228 
L 369.48909 68.876121 
L 367.627797 67.9039 
L 365.440772 67.030348 
L 362.741904 66.210388 
L 359.484642 65.464881 
L 355.529395 64.79181 
L 350.643502 64.18549 
L 344.36164 63.636935 
L 336.451147 63.175407 
L 326.214038 62.811503 
L 313.650313 62.594571 
L 299.457957 62.572129 
L 285.730924 62.768449 
L 274.563169 63.138271 
L 265.722029 63.645361 
L 258.974844 64.247666 
L 253.722624 64.934937 
L 249.668381 65.681572 
L 246.411119 66.501842 
L 243.851842 67.365211 
L 241.757887 68.29734 
L 240.129256 69.242651 
L 238.733287 70.297232 
L 237.569979 71.464564 
L 236.639333 72.744055 
L 235.98902 74.015049 
L 235.531081 75.411989 
L 235.302539 76.808929 
L 235.283501 78.205869 
L 235.470404 79.602809 
L 235.470404 79.602809 
" style="fill:none;stroke:#31688e;stroke-width:1.5;"/>
    <path clip-path="url(#pb7741023f6)" d="M 245.916634 144.327705 
L 246.303688 145.258999 
L 246.952657 146.190292 
L 247.900895 147.121586 
L 249.208084 148.052879 
L 250.967947 148.984172 
L 253.158304 149.85606 
L 255.717582 150.635073 
L 259.207505 151.436885 
L 263.395413 152.149179 
L 268.513968 152.783602 
L 275.028492 153.349807 
L 282.938985 153.801657 
L 292.47811 154.117132 
L 303.413204 154.253153 
L 314.813621 154.174369 
L 325.283391 153.885095 
L 333.891869 153.437927 
L 340.871716 152.866956 
L 346.455594 152.199698 
L 350.876164 151.45987 
L 354.366088 150.665704 
L 357.158026 149.815176 
L 359.251981 148.974886 
L 361.113273 147.976162 
L 362.299147 147.121586 
L 363.247363 146.190292 
L 363.905212 145.24197 
L 364.283335 144.327705 
L 364.429332 143.396412 
L 364.341949 142.465118 
L 364.01656 141.533825 
L 363.435915 140.602531 
L 362.509243 139.620548 
L 361.345935 138.73293 
L 359.717304 137.806667 
L 357.528813 136.877357 
L 354.831411 136.02011 
L 351.608713 135.247594 
L 347.618902 134.532634 
L 342.500347 133.863699 
L 336.451147 133.305032 
L 328.773315 132.829222 
L 319.466852 132.485471 
L 308.76442 132.31585 
L 297.364003 132.35567 
L 286.661571 132.610072 
L 277.587769 133.040618 
L 270.375261 133.591505 
L 264.558721 134.2475 
L 259.90549 134.988147 
L 256.415566 135.744504 
L 253.329064 136.644534 
L 250.967947 137.575828 
L 249.203058 138.510281 
L 247.807088 139.519312 
L 246.876442 140.463329 
L 246.303688 141.301001 
L 245.916634 142.232295 
L 245.770668 143.163588 
L 245.858083 144.094882 
L 245.916634 144.327705 
L 245.916634 144.327705 
" style="fill:none;stroke:#31688e;stroke-width:1.5;"/>
   </g>
   <g id="LineCollection_4">
    <path clip-path="url(#pb7741023f6)" d="M 388.8 189.69801 
L 221.516331 189.69801 
L 221.4 189.495438 
L 221.4 158.762754 
L 221.283669 158.692566 
L 54.232662 158.692566 
L 54 158.52993 
L 54 128.03007 
L 54.232662 127.867434 
L 221.4 127.797246 
L 221.4 97.064562 
L 221.516331 96.86199 
L 388.8 96.86199 
L 388.8 96.86199 
" style="fill:none;stroke:#21918c;stroke-width:1.5;"/>
    <path clip-path="url(#pb7741023f6)" d="M 388.8 127.867434 
L 221.516331 127.867434 
L 221.4 128.03007 
L 221.4 158.52993 
L 221.516331 158.692566 
L 388.8 158.692566 
L 388.8 158.692566 
" style="fill:none;stroke:#21918c;stroke-width:1.5;"/>
    <path clip-path="url(#pb7741023f6)" d="M 54 226.747177 
L 54 189.728261 
L 54.930646 189.69801 
L 221.4 189.728261 
L 221.4 226.747177 
L 221.283669 226.98 
L 54.232662 226.98 
L 54 226.747177 
L 54 226.747177 
" style="fill:none;stroke:#21918c;stroke-width:1.5;"/>
    <path clip-path="url(#pb7741023f6)" d="M 54 96.831739 
L 54 59.812823 
L 54.232662 59.58 
L 221.283669 59.58 
L 221.4 60.045647 
L 221.4 96.831739 
L 221.051008 96.86199 
L 54 96.831739 
L 54 96.831739 
" style="fill:none;stroke:#21918c;stroke-width:1.5;"/>
   </g>
   <g id="LineCollection_5">
    <path clip-path="url(#pb7741023f6)" d="M 67.954796 210.216718 
L 67.867112 208.819777 
L 67.984818 207.422837 
L 68.314654 206.025897 
L 68.890341 204.607984 
L 69.588325 203.425452 
L 70.518972 202.254536 
L 71.688209 201.136606 
L 73.078249 200.110141 
L 74.70688 199.167806 
L 76.800834 198.223674 
L 79.360111 197.336587 
L 82.384712 196.535833 
L 86.162777 195.781669 
L 90.760528 195.104025 
L 96.344406 194.509271 
L 103.556915 193.976707 
L 112.398054 193.553791 
L 123.56581 193.251984 
L 136.594858 193.128909 
L 150.089229 193.2226 
L 162.18763 193.524182 
L 171.959416 193.983735 
L 179.637248 194.562348 
L 185.453787 195.209436 
L 190.107019 195.936563 
L 193.829604 196.730586 
L 196.854204 197.593685 
L 199.18082 198.462218 
L 201.274774 199.478624 
L 202.903405 200.509101 
L 204.299375 201.661563 
L 205.321102 202.76637 
L 206.160667 203.970793 
L 206.834439 205.327427 
L 207.277803 206.724367 
L 207.499769 208.121307 
L 207.514902 209.518248 
L 207.322205 210.915188 
L 206.904648 212.312128 
L 206.225741 213.709068 
L 205.415048 214.873185 
L 204.299375 216.055231 
L 202.903405 217.160641 
L 201.507436 218.016555 
L 199.646143 218.911753 
L 197.319527 219.772009 
L 194.527589 220.556909 
L 191.037665 221.293836 
L 186.849757 221.946927 
L 181.414613 222.556356 
L 174.518694 223.087759 
L 165.677554 223.52819 
L 154.509798 223.846578 
L 141.248089 223.998242 
L 126.823072 223.940464 
L 114.026685 223.676312 
L 103.751862 223.254826 
L 95.879083 222.724061 
L 89.667163 222.090709 
L 84.913191 221.392239 
L 81.221404 220.641163 
L 78.196803 219.80915 
L 75.870188 218.960607 
L 74.008895 218.079852 
L 72.380264 217.07936 
L 71.080866 216.037302 
L 69.984959 214.873185 
L 69.123002 213.620288 
L 68.49536 212.312128 
L 68.077828 210.915188 
L 67.954796 210.216718 
L 67.954796 210.216718 
" style="fill:none;stroke:#35b779;stroke-width:1.5;"/>
    <path clip-path="url(#pb7741023f6)" d="M 67.950831 78.904339 
L 67.867421 77.507399 
L 67.989782 76.110459 
L 68.329417 74.713519 
L 68.915636 73.316579 
L 69.630377 72.152462 
L 70.603255 70.988345 
L 71.912188 69.824228 
L 73.31091 68.876121 
L 75.172203 67.9039 
L 77.359228 67.030348 
L 80.058096 66.210388 
L 83.315358 65.464881 
L 87.270605 64.79181 
L 92.156498 64.18549 
L 98.43836 63.636935 
L 106.348853 63.175407 
L 116.585962 62.811503 
L 129.149687 62.594571 
L 143.342043 62.572129 
L 157.069076 62.768449 
L 168.236831 63.138271 
L 177.077971 63.645361 
L 183.825156 64.247666 
L 189.077376 64.934937 
L 193.131619 65.681572 
L 196.388881 66.501842 
L 198.948158 67.365211 
L 201.042113 68.29734 
L 202.670744 69.242651 
L 204.066713 70.297232 
L 205.230021 71.464564 
L 206.160667 72.744055 
L 206.81098 74.015049 
L 207.268919 75.411989 
L 207.497461 76.808929 
L 207.516499 78.205869 
L 207.323975 79.628183 
L 206.924825 80.99975 
L 206.272875 82.39669 
L 205.462682 83.613645 
L 204.478725 84.724924 
L 203.124324 85.88904 
L 201.507436 86.949285 
L 199.646143 87.894772 
L 197.319527 88.809493 
L 194.527589 89.651013 
L 191.037665 90.446309 
L 186.849757 91.156417 
L 181.731202 91.790671 
L 175.216678 92.360492 
L 167.073523 92.836401 
L 157.069076 93.192842 
L 144.738013 93.401822 
L 131.243641 93.406606 
L 118.447255 93.195871 
L 107.744823 92.808884 
L 99.136345 92.28249 
L 92.389159 91.650793 
L 87.270605 90.96162 
L 83.082696 90.180871 
L 79.825434 89.361622 
L 77.033495 88.427624 
L 74.939541 87.510256 
L 73.078249 86.449859 
L 71.682279 85.418362 
L 70.476566 84.259277 
L 69.561048 83.09516 
L 68.767609 81.69822 
L 68.24419 80.30128 
L 67.950831 78.904339 
L 67.950831 78.904339 
" style="fill:none;stroke:#35b779;stroke-width:1.5;"/>
    <path clip-path="url(#pb7741023f6)" d="M 78.414268 143.862058 
L 78.385188 142.930765 
L 78.590243 141.999471 
L 79.040227 141.068178 
L 79.825434 140.068884 
L 80.79106 139.205591 
L 82.201011 138.274298 
L 84.094342 137.343004 
L 86.339958 136.508437 
L 89.139729 135.713241 
L 92.854482 134.923857 
L 97.275052 134.231913 
L 102.85893 133.602376 
L 109.838777 133.062276 
L 118.214593 132.648105 
L 128.219041 132.381736 
L 139.386796 132.306847 
L 150.554552 132.448147 
L 160.558999 132.790283 
L 168.702154 133.278522 
L 175.216678 133.876675 
L 180.567894 134.587335 
L 184.755803 135.364677 
L 188.013065 136.184722 
L 190.739079 137.110181 
L 192.776163 138.041474 
L 194.295294 138.972768 
L 195.458235 139.949401 
L 196.206483 140.835355 
L 196.720923 141.766648 
L 196.985686 142.697942 
L 197.014797 143.629235 
L 196.809772 144.560529 
L 196.359805 145.491822 
L 195.640241 146.423115 
L 194.527589 147.415367 
L 193.131619 148.323323 
L 191.270327 149.231819 
L 188.943711 150.089409 
L 186.151772 150.873218 
L 182.429187 151.657281 
L 178.008617 152.343573 
L 172.424739 152.968495 
L 165.444892 153.504989 
L 157.069076 153.916248 
L 146.831967 154.183919 
L 135.664211 154.252049 
L 124.496456 154.103703 
L 114.492008 153.753253 
L 106.348853 153.254968 
L 99.834329 152.643903 
L 94.715775 151.954076 
L 90.527867 151.169917 
L 87.270605 150.340699 
L 84.66091 149.449819 
L 82.617373 148.515062 
L 80.988742 147.501825 
L 79.986255 146.655939 
L 79.12745 145.624741 
L 78.662126 144.74922 
L 78.414268 143.862058 
L 78.414268 143.862058 
" style="fill:none;stroke:#35b779;stroke-width:1.5;"/>
    <path clip-path="url(#pb7741023f6)" d="M 243.566336 175.75886 
L 243.451533 174.827566 
L 243.541812 173.896273 
L 243.851842 172.938165 
L 244.357459 172.033686 
L 245.247811 170.975118 
L 246.178457 170.164832 
L 247.574427 169.236307 
L 249.435719 168.298075 
L 251.852289 167.377218 
L 254.786935 166.53393 
L 258.276859 165.775934 
L 262.464767 165.094014 
L 267.583322 164.48043 
L 274.097846 163.927654 
L 282.008339 163.482273 
L 291.780125 163.160839 
L 302.94788 163.01837 
L 314.580959 163.087753 
L 325.283391 163.364018 
L 334.357192 163.811492 
L 341.569701 164.376687 
L 347.413299 165.048985 
L 352.039472 165.798098 
L 355.762057 166.622449 
L 358.553996 167.446896 
L 360.880612 168.350014 
L 362.741904 169.305403 
L 364.137874 170.256497 
L 365.079242 171.102392 
L 365.842524 172.033686 
L 366.360496 172.964979 
L 366.658206 173.896273 
L 366.748474 174.827566 
L 366.633659 175.75886 
L 366.305723 176.690153 
L 365.745089 177.621446 
L 364.835858 178.628108 
L 363.67255 179.54955 
L 362.21485 180.415327 
L 360.182627 181.322736 
L 358.069639 182.04509 
L 355.064072 182.830076 
L 351.341487 183.553483 
L 346.688256 184.213763 
L 340.871716 184.799186 
L 333.659208 185.291971 
L 324.818068 185.671083 
L 313.882974 185.913119 
L 301.551911 185.960205 
L 289.453509 185.786496 
L 279.2164 185.428083 
L 270.840584 184.920114 
L 264.32606 184.309235 
L 259.207505 183.611127 
L 255.252259 182.856214 
L 252.130417 182.04509 
L 249.668381 181.184187 
L 247.807088 180.320528 
L 246.411119 179.469807 
L 245.247811 178.518678 
L 244.454948 177.621446 
L 243.851842 176.59444 
L 243.566336 175.75886 
L 243.566336 175.75886 
" style="fill:none;stroke:#35b779;stroke-width:1.5;"/>
    <path clip-path="url(#pb7741023f6)" d="M 243.596443 112.896551 
L 243.454959 111.965257 
L 243.518167 111.033964 
L 243.851842 109.96556 
L 244.317165 109.134372 
L 245.047996 108.240083 
L 246.178457 107.258484 
L 247.574427 106.36542 
L 249.494561 105.446203 
L 251.762335 104.629331 
L 254.554274 103.864813 
L 258.044197 103.146458 
L 262.232106 102.507065 
L 267.583322 101.914819 
L 274.563169 101.383699 
L 283.171647 100.965594 
L 293.641418 100.687087 
L 305.739819 100.591011 
L 318.070883 100.714889 
L 328.773315 101.033856 
L 337.614454 101.512632 
L 344.594302 102.110616 
L 349.945518 102.785089 
L 354.133426 103.527554 
L 357.390688 104.317002 
L 360.121478 105.21338 
L 362.21485 106.144673 
L 363.768942 107.075967 
L 364.917533 108.00726 
L 365.766505 108.968815 
L 366.305723 109.869847 
L 366.633659 110.80114 
L 366.748474 111.732434 
L 366.658206 112.663727 
L 366.360496 113.595021 
L 365.766505 114.633092 
L 365.06852 115.468413 
L 363.905212 116.482141 
L 362.509243 117.389805 
L 360.64795 118.312197 
L 358.321334 119.191431 
L 355.296734 120.055129 
L 351.772389 120.812545 
L 347.38624 121.514714 
L 341.802363 122.160761 
L 335.055177 122.703528 
L 326.679361 123.142076 
L 316.674913 123.435672 
L 305.274496 123.545325 
L 293.641418 123.437908 
L 283.171647 123.127742 
L 274.330507 122.648584 
L 267.35066 122.055711 
L 261.766782 121.365459 
L 257.346213 120.602253 
L 254.088951 119.84623 
L 251.174754 118.949958 
L 248.902109 118.018665 
L 247.109104 117.041215 
L 245.713134 116.015414 
L 244.782488 115.081718 
L 244.206199 114.293491 
L 243.745123 113.362197 
L 243.596443 112.896551 
L 243.596443 112.896551 
" style="fill:none;stroke:#35b779;stroke-width:1.5;"/>
   </g>
   <g id="LineCollection_6">
    <path clip-path="url(#pb7741023f6)" d="M 82.845292 209.518248 
L 82.816838 208.586954 
L 82.993714 207.655661 
L 83.381288 206.724367 
L 84.013343 205.768586 
L 84.943989 204.780029 
L 86.107297 203.855258 
L 87.735928 202.862535 
L 89.59722 201.97831 
L 91.923836 201.105094 
L 95.003802 200.205313 
L 98.671022 199.384437 
L 103.091591 198.634343 
L 108.210146 197.989669 
L 114.492008 197.425654 
L 121.704517 196.999522 
L 130.080334 196.726576 
L 139.154135 196.652964 
L 148.227936 196.797693 
L 156.603753 197.147243 
L 163.816261 197.660543 
L 170.098124 198.331035 
L 174.984017 199.061926 
L 179.171925 199.906444 
L 182.429187 200.772511 
L 185.221126 201.739907 
L 187.31508 202.680135 
L 189.063884 203.697663 
L 190.33968 204.675144 
L 191.270327 205.626367 
L 191.968311 206.634584 
L 192.329534 207.422837 
L 192.558237 208.354131 
L 192.581015 209.285424 
L 192.397361 210.216718 
L 191.968311 211.200479 
L 191.270327 212.193954 
L 190.33968 213.127505 
L 189.176372 214.007662 
L 187.547741 214.954314 
L 185.453787 215.889263 
L 182.89451 216.77077 
L 179.637248 217.630315 
L 175.914663 218.378797 
L 171.02877 219.111042 
L 165.212231 219.735898 
L 158.465045 220.231878 
L 150.32189 220.59883 
L 141.248089 220.782064 
L 131.708965 220.753676 
L 122.635163 220.511085 
L 114.72467 220.09121 
L 107.977484 219.524175 
L 102.315628 218.831182 
L 97.740375 218.052754 
L 94.01779 217.199625 
L 90.969777 216.270125 
L 88.645585 215.338832 
L 86.805281 214.375862 
L 85.409312 213.41684 
L 84.444408 212.544951 
L 83.686574 211.613658 
L 83.174291 210.682364 
L 82.884646 209.751071 
L 82.845292 209.518248 
L 82.845292 209.518248 
" style="fill:none;stroke:#90d743;stroke-width:1.5;"/>
    <path clip-path="url(#pb7741023f6)" d="M 82.841697 78.205869 
L 82.818949 77.274576 
L 83.002668 76.343282 
L 83.401422 75.411989 
L 84.032872 74.480695 
L 84.943989 73.533636 
L 86.124403 72.618108 
L 87.735928 71.664977 
L 89.829882 70.716368 
L 92.389344 69.824228 
L 95.646421 68.956752 
L 99.40936 68.194465 
L 104.254899 67.463781 
L 110.071438 66.834622 
L 116.871343 66.331878 
L 124.961779 65.96496 
L 134.03558 65.778955 
L 143.574705 65.804637 
L 152.648506 66.044342 
L 160.791661 66.476716 
L 167.538846 67.047862 
L 173.122724 67.734429 
L 177.775956 68.530479 
L 181.498541 69.391686 
L 184.523141 70.323089 
L 186.849757 71.265736 
L 188.711049 72.255294 
L 190.107019 73.236892 
L 191.037665 74.103802 
L 191.73565 74.980558 
L 192.225754 75.877636 
L 192.515323 76.808929 
L 192.595225 77.740223 
L 192.433634 78.804653 
L 192.13597 79.602809 
L 191.502988 80.639194 
L 190.786175 81.465396 
L 189.641696 82.452168 
L 188.245726 83.372778 
L 186.384434 84.327112 
L 184.057818 85.255263 
L 181.265879 86.123917 
L 177.775956 86.962946 
L 173.588047 87.730368 
L 168.702154 88.400212 
L 162.885615 88.978965 
L 155.673106 89.463222 
L 147.529951 89.781563 
L 138.45615 89.909045 
L 129.382349 89.818527 
L 120.773871 89.516368 
L 113.096039 89.026486 
L 106.814177 88.413917 
L 101.46296 87.673994 
L 97.042391 86.838169 
L 93.785129 86.026035 
L 90.99319 85.130121 
L 88.666574 84.165459 
L 86.805281 83.16308 
L 85.388192 82.163866 
L 84.246004 81.06988 
L 83.548019 80.125549 
L 83.082696 79.169073 
L 82.850035 78.257456 
L 82.841697 78.205869 
L 82.841697 78.205869 
" style="fill:none;stroke:#90d743;stroke-width:1.5;"/>
    <path clip-path="url(#pb7741023f6)" d="M 111.685009 143.396412 
L 111.74072 142.930765 
L 112.021416 142.465118 
L 112.630716 141.936967 
L 113.561362 141.412677 
L 115.019548 140.835355 
L 117.516609 140.154516 
L 120.308548 139.621484 
L 124.263794 139.100135 
L 128.917026 138.713621 
L 134.500903 138.485191 
L 140.317443 138.474216 
L 145.90132 138.679457 
L 150.787213 139.063691 
L 154.975122 139.603043 
L 157.999722 140.181723 
L 160.558999 140.898084 
L 162.18763 141.586342 
L 163.151197 142.232295 
L 163.5836 142.772643 
L 163.714814 143.163588 
L 163.659208 143.629235 
L 163.350938 144.123568 
L 162.652953 144.700119 
L 161.601306 145.258999 
L 159.633974 145.957469 
L 157.069076 146.5789 
L 153.811814 147.132737 
L 149.391244 147.629403 
L 144.272689 147.963338 
L 138.688812 148.10481 
L 132.872272 148.031347 
L 127.288395 147.733563 
L 122.635163 147.271186 
L 118.70945 146.655939 
L 115.766289 145.957469 
L 113.794024 145.256936 
L 112.537182 144.560529 
L 111.932731 143.973189 
L 111.74072 143.629235 
L 111.685009 143.396412 
L 111.685009 143.396412 
" style="fill:none;stroke:#90d743;stroke-width:1.5;"/>
    <path clip-path="url(#pb7741023f6)" d="M 271.288039 175.293213 
L 271.190943 174.827566 
L 271.305907 174.219227 
L 271.538568 173.801775 
L 272.105111 173.197803 
L 273.167199 172.484484 
L 274.79583 171.738786 
L 276.889785 171.046528 
L 279.914385 170.3184 
L 283.63697 169.673763 
L 288.290202 169.112088 
L 293.641418 168.691131 
L 299.92328 168.424628 
L 306.670466 168.364808 
L 313.417651 168.529861 
L 319.466852 168.894548 
L 324.585407 169.408202 
L 328.773315 170.03034 
L 332.263238 170.766813 
L 334.822516 171.523969 
L 336.451147 172.187719 
L 337.614454 172.840942 
L 338.348938 173.430626 
L 338.859293 174.129096 
L 339.009225 174.827566 
L 338.911841 175.293213 
L 338.545101 175.891713 
L 337.948777 176.45733 
L 336.820785 177.1558 
L 335.055177 177.902234 
L 332.728562 178.603838 
L 329.703961 179.266663 
L 325.516053 179.915564 
L 320.790063 180.415327 
L 314.813621 180.807015 
L 308.299097 181.007484 
L 301.319249 180.998044 
L 294.572064 180.766246 
L 288.755525 180.356792 
L 283.63697 179.774761 
L 279.914385 179.153885 
L 276.889785 178.447998 
L 274.563169 177.683988 
L 273.167199 177.040938 
L 272.236553 176.445331 
L 271.538568 175.747372 
L 271.288039 175.293213 
L 271.288039 175.293213 
" style="fill:none;stroke:#90d743;stroke-width:1.5;"/>
    <path clip-path="url(#pb7741023f6)" d="M 271.251314 112.198081 
L 271.190943 111.732434 
L 271.305907 111.228266 
L 271.54599 110.80114 
L 272.251088 110.10267 
L 273.399861 109.394019 
L 275.028492 108.698452 
L 277.355108 107.985728 
L 280.61237 107.272155 
L 284.800278 106.62934 
L 289.453509 106.140985 
L 295.50271 105.747444 
L 302.017234 105.550818 
L 308.997081 105.564034 
L 315.744267 105.799863 
L 321.560806 106.213909 
L 326.679361 106.801442 
L 330.401946 107.429277 
L 333.426546 108.14441 
L 335.5205 108.831066 
L 336.91647 109.455825 
L 338.079778 110.211307 
L 338.653858 110.80114 
L 338.980354 111.499611 
L 338.998641 111.965257 
L 338.777762 112.578214 
L 338.348938 113.129374 
L 337.452763 113.827844 
L 335.985823 114.583714 
L 334.124531 115.269007 
L 331.565254 115.962805 
L 328.07533 116.650327 
L 323.65476 117.26253 
L 318.768867 117.719628 
L 312.952328 118.048917 
L 306.205142 118.198241 
L 299.457957 118.122942 
L 293.176095 117.840246 
L 287.592217 117.377173 
L 282.938985 116.780696 
L 279.2164 116.093965 
L 276.1918 115.305089 
L 274.330507 114.632782 
L 272.934538 113.939735 
L 272.003892 113.269942 
L 271.469965 112.663727 
L 271.251314 112.198081 
L 271.251314 112.198081 
" style="fill:none;stroke:#90d743;stroke-width:1.5;"/>
   </g>
   <g id="LineCollection_7">
    <path clip-path="url(#pb7741023f6)" d="M 100.99342 209.052601 
L 101.066988 208.354131 
L 101.375662 207.655661 
L 101.928801 206.957191 
L 102.85893 206.179455 
L 104.022238 205.471946 
L 105.650869 204.720078 
L 107.897267 203.930487 
L 110.769423 203.168691 
L 114.492008 202.433573 
L 118.912578 201.803449 
L 124.263794 201.286306 
L 130.312995 200.940863 
L 136.594858 200.802203 
L 143.109382 200.874377 
L 149.391244 201.162924 
L 154.975122 201.633562 
L 159.861015 202.263714 
L 163.816261 202.986801 
L 166.840862 203.735436 
L 169.523667 204.628957 
L 171.544344 205.56025 
L 172.957534 206.491544 
L 173.820709 207.362904 
L 174.153758 207.888484 
L 174.383382 208.586954 
L 174.379107 209.285424 
L 174.139595 209.983894 
L 173.588047 210.754455 
L 172.890063 211.394128 
L 171.726755 212.157103 
L 170.098124 212.942293 
L 168.00417 213.701687 
L 165.677554 214.350789 
L 162.420292 215.047298 
L 158.465045 215.67185 
L 153.579152 216.215856 
L 147.995274 216.614627 
L 141.713412 216.84326 
L 134.966227 216.864615 
L 128.451703 216.667849 
L 122.402502 216.26791 
L 117.051286 215.687384 
L 112.863377 215.025539 
L 109.373454 214.26273 
L 106.71122 213.476245 
L 104.487561 212.579465 
L 103.091591 211.806521 
L 101.963314 210.915188 
L 101.393893 210.216718 
L 101.074288 209.518248 
L 100.99342 209.052601 
L 100.99342 209.052601 
" style="fill:none;stroke:#fde725;stroke-width:1.5;"/>
    <path clip-path="url(#pb7741023f6)" d="M 100.992015 77.740223 
L 101.074288 77.041752 
L 101.46296 76.243083 
L 101.963314 75.644812 
L 102.85893 74.909759 
L 104.254899 74.094902 
L 105.88353 73.385095 
L 107.977484 72.681251 
L 110.769423 71.962521 
L 114.259347 71.288392 
L 118.447255 70.696506 
L 123.798471 70.179233 
L 129.847672 69.830466 
L 136.362196 69.681357 
L 143.109382 69.749379 
L 149.391244 70.025816 
L 154.975122 70.478307 
L 159.861015 71.086373 
L 163.816261 71.78693 
L 167.073523 72.579557 
L 169.400139 73.340149 
L 171.445916 74.247872 
L 172.657401 74.992412 
L 173.588047 75.805545 
L 174.05337 76.42529 
L 174.325761 77.041752 
L 174.407846 77.740223 
L 174.256613 78.438693 
L 173.820709 79.197096 
L 173.122724 79.927483 
L 172.192078 80.614658 
L 170.796108 81.380714 
L 168.904592 82.163866 
L 166.142877 83.016497 
L 163.118277 83.718001 
L 159.395691 84.366822 
L 154.678465 84.957747 
L 149.158582 85.412121 
L 143.109382 85.685623 
L 136.594858 85.757797 
L 130.080334 85.609831 
L 124.031133 85.255814 
L 118.647079 84.724924 
L 113.908313 84.026453 
L 110.071438 83.224753 
L 107.167574 82.39669 
L 104.952884 81.542412 
L 103.450562 80.766926 
L 102.170536 79.835633 
L 101.46296 79.034644 
L 101.143463 78.438693 
L 100.992015 77.740223 
L 100.992015 77.740223 
" style="fill:none;stroke:#fde725;stroke-width:1.5;"/>
   </g>
   <g id="line2d_1">
    <path clip-path="url(#pb7741023f6)" d="M 54 195.36 
L 388.8 195.36 
" style="fill:none;stroke:#ff0000;stroke-linecap:square;stroke-width:1.5;"/>
   </g>
   <g id="line2d_2">
    <path clip-path="url(#pb7741023f6)" d="M 54 91.2 
L 388.8 91.2 
" style="fill:none;stroke:#ff0000;stroke-linecap:square;stroke-width:1.5;"/>
   </g>
   <g id="patch_3">
    <path d="M 54 252 
L 54 34.56 
" style="fill:none;stroke:#000000;stroke-linecap:square;stroke-linejoin:miter;stroke-width:0.8;"/>
   </g>
   <g id="patch_4">
    <path d="M 388.8 252 
L 388.8 34.56 
" style="fill:none;stroke:#000000;stroke-linecap:square;stroke-linejoin:miter;stroke-width:0.8;"/>
   </g>
   <g id="patch_5">
    <path d="M 54 252 
L 388.8 252 
" style="fill:none;stroke:#000000;stroke-linecap:square;stroke-linejoin:miter;stroke-width:0.8;"/>
   </g>
   <g id="patch_6">
    <path d="M 54 34.56 
L 388.8 34.56 
" style="fill:none;stroke:#000000;stroke-linecap:square;stroke-linejoin:miter;stroke-width:0.8;"/>
   </g>
  </g>
 </g>
 <defs>
  <clipPath id="pb7741023f6">
   <rect height="217.44" width="334.8" x="54" y="34.56"/>
  </clipPath>
 </defs>
</svg>
