<?xml version="1.0" encoding="utf-8" standalone="no"?>
<!DOCTYPE svg PUBLIC "-//W3C//DTD SVG 1.1//EN"
  "http://www.w3.org/Graphics/SVG/1.1/DTD/svg11.dtd">
<!-- Created with matplotlib (http://matplotlib.org/) -->
<svg height="288pt" version="1.1" viewBox="0 0 432 288" width="432pt" xmlns="http://www.w3.org/2000/svg" xmlns:xlink="http://www.w3.org/1999/xlink">
 <defs>
  <style type="text/css">
*{stroke-linecap:butt;stroke-linejoin:round;}
  </style>
 </defs>
 <g id="figure_1">
  <g id="patch_1">
   <path d="M 0 288 
L 432 288 
L 432 0 
L 0 0 
z
" style="fill:#ffffff;"/>
  </g>
  <g id="axes_1">
   <g id="patch_2">
    <path d="M 54 252 
L 388.8 252 
L 388.8 34.56 
L 54 34.56 
z
" style="fill:#ffffff;"/>
   </g>
   <g id="matplotlib.axis_1"/>
   <g id="matplotlib.axis_2"/>
   <g id="LineCollection_1">
    <path clip-path="url(#p298dbf7d03)" d="M 133.335225 189.262615 
L 133.337596 189.27199 
L 133.397177 189.495438 
L 133.492768 189.728261 
L 133.570257 189.868091 
L 133.624796 189.961085 
L 133.796663 190.193908 
L 133.802919 190.200943 
L 134.016212 190.426732 
L 134.03558 190.444263 
L 134.268242 190.641722 
L 134.290748 190.659555 
L 134.500903 190.805074 
L 134.636668 190.892378 
L 134.733565 190.947741 
L 134.966227 191.070515 
L 135.079191 191.125202 
L 135.198888 191.177367 
L 135.43155 191.269664 
L 135.664211 191.352852 
L 135.680442 191.358025 
L 135.896873 191.420795 
L 136.129534 191.480037 
L 136.362196 191.531064 
L 136.594858 191.573895 
L 136.708666 191.590848 
L 136.827519 191.607103 
L 137.060181 191.631429 
L 137.292842 191.648263 
L 137.525504 191.657614 
L 137.758165 191.659484 
L 137.990827 191.653874 
L 138.223489 191.640782 
L 138.45615 191.620203 
L 138.688812 191.592129 
L 138.697189 191.590848 
L 138.921473 191.553503 
L 139.154135 191.506576 
L 139.386796 191.451444 
L 139.619458 191.388086 
L 139.717167 191.358025 
L 139.85212 191.312394 
L 140.084781 191.224656 
L 140.317443 191.127793 
L 140.323134 191.125202 
L 140.550104 191.010405 
L 140.764843 190.892378 
L 140.782766 190.881292 
L 141.015427 190.725964 
L 141.10805 190.659555 
L 141.248089 190.544659 
L 141.382564 190.426732 
L 141.480751 190.326034 
L 141.601799 190.193908 
L 141.713412 190.047112 
L 141.775103 189.961085 
L 141.907771 189.728261 
L 141.946074 189.637538 
L 142.002861 189.495438 
L 142.0633 189.262615 
L 142.091044 189.029791 
L 142.085994 188.796968 
L 142.048021 188.564145 
L 141.976965 188.331321 
L 141.946074 188.262351 
L 141.868536 188.098498 
L 141.723015 187.865675 
L 141.713412 187.85332 
L 141.531698 187.632851 
L 141.480751 187.581218 
L 141.290456 187.400028 
L 141.248089 187.36541 
L 141.015427 187.187548 
L 140.986855 187.167204 
L 140.782766 187.039989 
L 140.599805 186.934381 
L 140.550104 186.908877 
L 140.317443 186.79894 
L 140.091862 186.701558 
L 140.084781 186.698807 
L 139.85212 186.616865 
L 139.619458 186.543415 
L 139.386796 186.478427 
L 139.346936 186.468734 
L 139.154135 186.426112 
L 138.921473 186.382328 
L 138.688812 186.346183 
L 138.45615 186.317663 
L 138.223489 186.296757 
L 137.990827 186.283457 
L 137.758165 186.277758 
L 137.525504 186.279657 
L 137.292842 186.289156 
L 137.060181 186.306259 
L 136.827519 186.330971 
L 136.594858 186.363302 
L 136.362196 186.403264 
L 136.129534 186.450873 
L 136.054324 186.468734 
L 135.896873 186.509865 
L 135.664211 186.57908 
L 135.43155 186.656773 
L 135.310623 186.701558 
L 135.198888 186.747537 
L 134.966227 186.852719 
L 134.80054 186.934381 
L 134.733565 186.971511 
L 134.500903 187.111161 
L 134.414178 187.167204 
L 134.268242 187.27493 
L 134.110059 187.400028 
L 134.03558 187.468663 
L 133.868524 187.632851 
L 133.802919 187.710037 
L 133.678382 187.865675 
L 133.570257 188.033791 
L 133.530937 188.098498 
L 133.423776 188.331321 
L 133.350791 188.564145 
L 133.337596 188.642898 
L 133.313116 188.796968 
L 133.308196 189.029791 
L 133.335225 189.262615 
" style="fill:none;stroke:#440154;stroke-width:1.5;"/>
    <path clip-path="url(#p298dbf7d03)" d="M 133.313116 97.763032 
L 133.337596 97.917102 
L 133.350791 97.995855 
L 133.423776 98.228679 
L 133.530937 98.461502 
L 133.570257 98.526209 
L 133.678382 98.694325 
L 133.802919 98.849963 
L 133.868524 98.927149 
L 134.03558 99.091337 
L 134.110059 99.159972 
L 134.268242 99.28507 
L 134.414178 99.392796 
L 134.500903 99.448839 
L 134.733565 99.588489 
L 134.80054 99.625619 
L 134.966227 99.707281 
L 135.198888 99.812463 
L 135.310623 99.858442 
L 135.43155 99.903227 
L 135.664211 99.98092 
L 135.896873 100.050135 
L 136.054324 100.091266 
L 136.129534 100.109127 
L 136.362196 100.156736 
L 136.594858 100.196698 
L 136.827519 100.229029 
L 137.060181 100.253741 
L 137.292842 100.270844 
L 137.525504 100.280343 
L 137.758165 100.282242 
L 137.990827 100.276543 
L 138.223489 100.263243 
L 138.45615 100.242337 
L 138.688812 100.213817 
L 138.921473 100.177672 
L 139.154135 100.133888 
L 139.346936 100.091266 
L 139.386796 100.081573 
L 139.619458 100.016585 
L 139.85212 99.943135 
L 140.084781 99.861193 
L 140.091862 99.858442 
L 140.317443 99.76106 
L 140.550104 99.651123 
L 140.599805 99.625619 
L 140.782766 99.520011 
L 140.986855 99.392796 
L 141.015427 99.372452 
L 141.248089 99.19459 
L 141.290456 99.159972 
L 141.480751 98.978782 
L 141.531698 98.927149 
L 141.713412 98.70668 
L 141.723015 98.694325 
L 141.868536 98.461502 
L 141.946074 98.297649 
L 141.976965 98.228679 
L 142.048021 97.995855 
L 142.085994 97.763032 
L 142.091044 97.530209 
L 142.0633 97.297385 
L 142.002861 97.064562 
L 141.946074 96.922462 
L 141.907771 96.831739 
L 141.775103 96.598915 
L 141.713412 96.512888 
L 141.601799 96.366092 
L 141.480751 96.233966 
L 141.382564 96.133268 
L 141.248089 96.015341 
L 141.10805 95.900445 
L 141.015427 95.834036 
L 140.782766 95.678708 
L 140.764843 95.667622 
L 140.550104 95.549595 
L 140.323134 95.434798 
L 140.317443 95.432207 
L 140.084781 95.335344 
L 139.85212 95.247606 
L 139.717167 95.201975 
L 139.619458 95.171914 
L 139.386796 95.108556 
L 139.154135 95.053424 
L 138.921473 95.006497 
L 138.697189 94.969152 
L 138.688812 94.967871 
L 138.45615 94.939797 
L 138.223489 94.919218 
L 137.990827 94.906126 
L 137.758165 94.900516 
L 137.525504 94.902386 
L 137.292842 94.911737 
L 137.060181 94.928571 
L 136.827519 94.952897 
L 136.708666 94.969152 
L 136.594858 94.986105 
L 136.362196 95.028936 
L 136.129534 95.079963 
L 135.896873 95.139205 
L 135.680442 95.201975 
L 135.664211 95.207148 
L 135.43155 95.290336 
L 135.198888 95.382633 
L 135.079191 95.434798 
L 134.966227 95.489485 
L 134.733565 95.612259 
L 134.636668 95.667622 
L 134.500903 95.754926 
L 134.290748 95.900445 
L 134.268242 95.918278 
L 134.03558 96.115737 
L 134.016212 96.133268 
L 133.802919 96.359057 
L 133.796663 96.366092 
L 133.624796 96.598915 
L 133.570257 96.691909 
L 133.492768 96.831739 
L 133.397177 97.064562 
L 133.337596 97.28801 
L 133.335225 97.297385 
L 133.308196 97.530209 
L 133.313116 97.763032 
" style="fill:none;stroke:#440154;stroke-width:1.5;"/>
    <path clip-path="url(#p298dbf7d03)" d="M 300.797139 189.495438 
L 300.853926 189.637538 
L 300.892229 189.728261 
L 301.024897 189.961085 
L 301.086588 190.047112 
L 301.198201 190.193908 
L 301.319249 190.326034 
L 301.417436 190.426732 
L 301.551911 190.544659 
L 301.69195 190.659555 
L 301.784573 190.725964 
L 302.017234 190.881292 
L 302.035157 190.892378 
L 302.249896 191.010405 
L 302.476866 191.125202 
L 302.482557 191.127793 
L 302.715219 191.224656 
L 302.94788 191.312394 
L 303.082833 191.358025 
L 303.180542 191.388086 
L 303.413204 191.451444 
L 303.645865 191.506576 
L 303.878527 191.553503 
L 304.102811 191.590848 
L 304.111188 191.592129 
L 304.34385 191.620203 
L 304.576511 191.640782 
L 304.809173 191.653874 
L 305.041835 191.659484 
L 305.274496 191.657614 
L 305.507158 191.648263 
L 305.739819 191.631429 
L 305.972481 191.607103 
L 306.091334 191.590848 
L 306.205142 191.573895 
L 306.437804 191.531064 
L 306.670466 191.480037 
L 306.903127 191.420795 
L 307.119558 191.358025 
L 307.135789 191.352852 
L 307.36845 191.269664 
L 307.601112 191.177367 
L 307.720809 191.125202 
L 307.833773 191.070515 
L 308.066435 190.947741 
L 308.163332 190.892378 
L 308.299097 190.805074 
L 308.509252 190.659555 
L 308.531758 190.641722 
L 308.76442 190.444263 
L 308.783788 190.426732 
L 308.997081 190.200943 
L 309.003337 190.193908 
L 309.175204 189.961085 
L 309.229743 189.868091 
L 309.307232 189.728261 
L 309.402823 189.495438 
L 309.462404 189.27199 
L 309.464775 189.262615 
L 309.491804 189.029791 
L 309.486884 188.796968 
L 309.462404 188.642898 
L 309.449209 188.564145 
L 309.376224 188.331321 
L 309.269063 188.098498 
L 309.229743 188.033791 
L 309.121618 187.865675 
L 308.997081 187.710037 
L 308.931476 187.632851 
L 308.76442 187.468663 
L 308.689941 187.400028 
L 308.531758 187.27493 
L 308.385822 187.167204 
L 308.299097 187.111161 
L 308.066435 186.971511 
L 307.99946 186.934381 
L 307.833773 186.852719 
L 307.601112 186.747537 
L 307.489377 186.701558 
L 307.36845 186.656773 
L 307.135789 186.57908 
L 306.903127 186.509865 
L 306.745676 186.468734 
L 306.670466 186.450873 
L 306.437804 186.403264 
L 306.205142 186.363302 
L 305.972481 186.330971 
L 305.739819 186.306259 
L 305.507158 186.289156 
L 305.274496 186.279657 
L 305.041835 186.277758 
L 304.809173 186.283457 
L 304.576511 186.296757 
L 304.34385 186.317663 
L 304.111188 186.346183 
L 303.878527 186.382328 
L 303.645865 186.426112 
L 303.453064 186.468734 
L 303.413204 186.478427 
L 303.180542 186.543415 
L 302.94788 186.616865 
L 302.715219 186.698807 
L 302.708138 186.701558 
L 302.482557 186.79894 
L 302.249896 186.908877 
L 302.200195 186.934381 
L 302.017234 187.039989 
L 301.813145 187.167204 
L 301.784573 187.187548 
L 301.551911 187.36541 
L 301.509544 187.400028 
L 301.319249 187.581218 
L 301.268302 187.632851 
L 301.086588 187.85332 
L 301.076985 187.865675 
L 300.931464 188.098498 
L 300.853926 188.262351 
L 300.823035 188.331321 
L 300.751979 188.564145 
L 300.714006 188.796968 
L 300.708956 189.029791 
L 300.7367 189.262615 
L 300.797139 189.495438 
" style="fill:none;stroke:#440154;stroke-width:1.5;"/>
    <path clip-path="url(#p298dbf7d03)" d="M 300.823035 98.228679 
L 300.853926 98.297649 
L 300.931464 98.461502 
L 301.076985 98.694325 
L 301.086588 98.70668 
L 301.268302 98.927149 
L 301.319249 98.978782 
L 301.509544 99.159972 
L 301.551911 99.19459 
L 301.784573 99.372452 
L 301.813145 99.392796 
L 302.017234 99.520011 
L 302.200195 99.625619 
L 302.249896 99.651123 
L 302.482557 99.76106 
L 302.708138 99.858442 
L 302.715219 99.861193 
L 302.94788 99.943135 
L 303.180542 100.016585 
L 303.413204 100.081573 
L 303.453064 100.091266 
L 303.645865 100.133888 
L 303.878527 100.177672 
L 304.111188 100.213817 
L 304.34385 100.242337 
L 304.576511 100.263243 
L 304.809173 100.276543 
L 305.041835 100.282242 
L 305.274496 100.280343 
L 305.507158 100.270844 
L 305.739819 100.253741 
L 305.972481 100.229029 
L 306.205142 100.196698 
L 306.437804 100.156736 
L 306.670466 100.109127 
L 306.745676 100.091266 
L 306.903127 100.050135 
L 307.135789 99.98092 
L 307.36845 99.903227 
L 307.489377 99.858442 
L 307.601112 99.812463 
L 307.833773 99.707281 
L 307.99946 99.625619 
L 308.066435 99.588489 
L 308.299097 99.448839 
L 308.385822 99.392796 
L 308.531758 99.28507 
L 308.689941 99.159972 
L 308.76442 99.091337 
L 308.931476 98.927149 
L 308.997081 98.849963 
L 309.121618 98.694325 
L 309.229743 98.526209 
L 309.269063 98.461502 
L 309.376224 98.228679 
L 309.449209 97.995855 
L 309.462404 97.917102 
L 309.486884 97.763032 
L 309.491804 97.530209 
L 309.464775 97.297385 
L 309.462404 97.28801 
L 309.402823 97.064562 
L 309.307232 96.831739 
L 309.229743 96.691909 
L 309.175204 96.598915 
L 309.003337 96.366092 
L 308.997081 96.359057 
L 308.783788 96.133268 
L 308.76442 96.115737 
L 308.531758 95.918278 
L 308.509252 95.900445 
L 308.299097 95.754926 
L 308.163332 95.667622 
L 308.066435 95.612259 
L 307.833773 95.489485 
L 307.720809 95.434798 
L 307.601112 95.382633 
L 307.36845 95.290336 
L 307.135789 95.207148 
L 307.119558 95.201975 
L 306.903127 95.139205 
L 306.670466 95.079963 
L 306.437804 95.028936 
L 306.205142 94.986105 
L 306.091334 94.969152 
L 305.972481 94.952897 
L 305.739819 94.928571 
L 305.507158 94.911737 
L 305.274496 94.902386 
L 305.041835 94.900516 
L 304.809173 94.906126 
L 304.576511 94.919218 
L 304.34385 94.939797 
L 304.111188 94.967871 
L 304.102811 94.969152 
L 303.878527 95.006497 
L 303.645865 95.053424 
L 303.413204 95.108556 
L 303.180542 95.171914 
L 303.082833 95.201975 
L 302.94788 95.247606 
L 302.715219 95.335344 
L 302.482557 95.432207 
L 302.476866 95.434798 
L 302.249896 95.549595 
L 302.035157 95.667622 
L 302.017234 95.678708 
L 301.784573 95.834036 
L 301.69195 95.900445 
L 301.551911 96.015341 
L 301.417436 96.133268 
L 301.319249 96.233966 
L 301.198201 96.366092 
L 301.086588 96.512888 
L 301.024897 96.598915 
L 300.892229 96.831739 
L 300.853926 96.922462 
L 300.797139 97.064562 
L 300.7367 97.297385 
L 300.708956 97.530209 
L 300.714006 97.763032 
L 300.751979 97.995855 
L 300.823035 98.228679 
" style="fill:none;stroke:#440154;stroke-width:1.5;"/>
   </g>
   <g id="LineCollection_2">
    <path clip-path="url(#p298dbf7d03)" d="M 54 150.773221 
L 56.791939 150.656714 
L 59.351216 150.330395 
L 61.677832 149.813071 
L 63.539124 149.198404 
L 65.167755 148.445249 
L 66.563725 147.546066 
L 67.550373 146.655939 
L 68.269831 145.724645 
L 68.730773 144.793352 
L 68.966423 143.862058 
L 68.992226 142.930765 
L 68.809926 141.999471 
L 68.407894 141.068178 
L 67.727033 140.1022 
L 66.796386 139.197984 
L 65.453395 138.274298 
L 64.004448 137.552338 
L 62.133005 136.877357 
L 59.816539 136.314687 
L 57.257262 135.945622 
L 54.465323 135.790001 
L 54 135.786779 
L 54 135.786779 
" style="fill:none;stroke:#443983;stroke-width:1.5;"/>
    <path clip-path="url(#p298dbf7d03)" d="M 388.8 135.786779 
L 386.008061 135.903286 
L 383.448784 136.229605 
L 381.122168 136.746929 
L 379.260876 137.361596 
L 377.632245 138.114751 
L 376.236275 139.013934 
L 375.249627 139.904061 
L 374.530169 140.835355 
L 374.069227 141.766648 
L 373.833577 142.697942 
L 373.807774 143.629235 
L 373.990074 144.560529 
L 374.392106 145.491822 
L 375.072967 146.4578 
L 376.003614 147.362016 
L 377.346605 148.285702 
L 378.795552 149.007662 
L 380.666995 149.682643 
L 382.983461 150.245313 
L 385.542738 150.614378 
L 388.334677 150.769999 
L 388.8 150.773221 
L 388.8 150.773221 
" style="fill:none;stroke:#443983;stroke-width:1.5;"/>
    <path clip-path="url(#p298dbf7d03)" d="M 115.17664 191.125202 
L 115.609296 192.754965 
L 116.188014 194.151905 
L 117.051286 195.644325 
L 118.051763 196.945786 
L 119.377901 198.275932 
L 120.773871 199.372809 
L 122.491071 200.438136 
L 124.496456 201.402979 
L 126.823072 202.248918 
L 129.382349 202.923292 
L 132.174288 203.416684 
L 135.198888 203.711803 
L 138.223489 203.782733 
L 141.248089 203.635777 
L 144.272689 203.258377 
L 147.064628 202.675746 
L 149.391244 201.981148 
L 151.512147 201.136606 
L 153.346491 200.191011 
L 155.082693 199.041196 
L 156.457128 197.877079 
L 157.546864 196.712962 
L 158.562859 195.316022 
L 159.395691 193.758109 
L 159.939674 192.289318 
L 160.302402 190.659555 
L 160.429387 189.029791 
L 160.323614 187.400028 
L 159.970451 185.770264 
L 159.395691 184.264311 
L 158.680146 182.976384 
L 157.76706 181.759006 
L 156.603753 180.580365 
L 155.191725 179.484033 
L 153.579152 178.519642 
L 151.615495 177.621446 
L 149.391244 176.860262 
L 146.822267 176.224506 
L 143.807366 175.729282 
L 140.550104 175.435499 
L 137.292842 175.357834 
L 134.03558 175.487683 
L 130.778318 175.840225 
L 127.986379 176.351726 
L 125.427102 177.037905 
L 123.220436 177.85427 
L 121.333487 178.785563 
L 119.843224 179.740738 
L 118.447255 180.901265 
L 117.283947 182.185355 
L 116.434359 183.442031 
L 115.754008 184.838971 
L 115.301981 186.235911 
L 115.022004 187.865675 
L 114.983206 189.495438 
L 115.17664 191.125202 
L 115.17664 191.125202 
" style="fill:none;stroke:#443983;stroke-width:1.5;"/>
    <path clip-path="url(#p298dbf7d03)" d="M 115.151092 99.625619 
L 115.501768 101.022559 
L 116.120639 102.535485 
L 116.875146 103.816439 
L 117.790107 104.980556 
L 118.985481 106.144673 
L 120.308548 107.143159 
L 121.937179 108.10073 
L 123.798471 108.944215 
L 126.125087 109.73352 
L 128.684364 110.357118 
L 131.708965 110.845184 
L 134.966227 111.130868 
L 138.223489 111.201114 
L 141.480751 111.063767 
L 144.738013 110.702606 
L 147.529951 110.182086 
L 150.089229 109.484929 
L 152.183183 108.704344 
L 154.066736 107.774437 
L 155.673106 106.733539 
L 156.93145 105.679026 
L 158.005622 104.51491 
L 158.965739 103.117969 
L 159.646156 101.721029 
L 160.098229 100.324089 
L 160.378022 98.694325 
L 160.416672 97.064562 
L 160.223187 95.434798 
L 159.790655 93.805035 
L 159.16303 92.30984 
L 158.412774 91.011154 
L 157.301737 89.561369 
L 156.138429 88.387677 
L 154.74246 87.2692 
L 153.113829 86.235957 
L 151.252536 85.307396 
L 149.137228 84.4921 
L 146.599305 83.769537 
L 143.807366 83.227583 
L 140.782766 82.887071 
L 137.758165 82.774069 
L 134.733565 82.878617 
L 131.708965 83.209999 
L 128.917026 83.74212 
L 126.357748 84.46052 
L 124.263794 85.256511 
L 122.402502 86.170758 
L 120.63424 87.285981 
L 119.14524 88.493409 
L 117.853353 89.847038 
L 116.818624 91.273495 
L 116.07712 92.640918 
L 115.460245 94.270682 
L 115.09773 95.900445 
L 114.970442 97.530209 
L 115.076599 99.159972 
L 115.151092 99.625619 
L 115.151092 99.625619 
" style="fill:none;stroke:#443983;stroke-width:1.5;"/>
    <path clip-path="url(#p298dbf7d03)" d="M 206.589918 144.560529 
L 206.992404 145.491822 
L 207.642864 146.423115 
L 208.59461 147.354409 
L 209.883252 148.248229 
L 211.340585 148.984172 
L 213.26766 149.682643 
L 215.46713 150.222846 
L 218.026407 150.602425 
L 220.585685 150.763352 
L 223.377623 150.714899 
L 225.936901 150.45883 
L 228.263516 150.021652 
L 230.35747 149.41392 
L 232.218763 148.628035 
L 233.614732 147.801771 
L 234.77804 146.833849 
L 235.516134 145.957469 
L 236.037561 145.026175 
L 236.327523 144.094882 
L 236.405512 143.163588 
L 236.275395 142.232295 
L 235.930336 141.301001 
L 235.345348 140.369708 
L 234.475932 139.438414 
L 233.237258 138.507121 
L 231.75344 137.707852 
L 230.124809 137.066252 
L 228.030855 136.484401 
L 225.704239 136.068937 
L 223.144962 135.832162 
L 220.353023 135.803098 
L 217.561084 136.009764 
L 215.001807 136.432508 
L 212.907853 136.990114 
L 211.04656 137.707852 
L 209.562742 138.507121 
L 208.324068 139.438414 
L 207.454652 140.369708 
L 206.858652 141.324553 
L 206.524605 142.232295 
L 206.394488 143.163588 
L 206.472477 144.094882 
L 206.589918 144.560529 
L 206.589918 144.560529 
" style="fill:none;stroke:#443983;stroke-width:1.5;"/>
    <path clip-path="url(#p298dbf7d03)" d="M 282.465194 190.426732 
L 282.793597 192.056495 
L 283.372183 193.686259 
L 284.102293 195.097117 
L 285.063631 196.480139 
L 286.342872 197.877079 
L 287.717307 199.041196 
L 289.220848 200.053028 
L 291.08214 201.04144 
L 293.176095 201.899372 
L 295.50271 202.615622 
L 298.061987 203.177942 
L 300.853926 203.569942 
L 303.878527 203.768331 
L 306.903127 203.747491 
L 309.927728 203.505664 
L 312.719666 203.068438 
L 315.278944 202.456671 
L 317.605559 201.683757 
L 319.699514 200.758711 
L 321.560806 199.688157 
L 323.189437 198.476825 
L 324.540576 197.178609 
L 325.65524 195.781669 
L 326.495094 194.384729 
L 327.190704 192.754965 
L 327.62336 191.125202 
L 327.816794 189.495438 
L 327.777996 187.865675 
L 327.498019 186.235911 
L 327.045992 184.838971 
L 326.365641 183.442031 
L 325.405382 182.04509 
L 324.331634 180.880974 
L 322.923952 179.716857 
L 321.328145 178.708332 
L 319.466852 177.806431 
L 317.372898 177.037905 
L 314.813621 176.351726 
L 312.021682 175.840225 
L 308.997081 175.505061 
L 305.739819 175.360201 
L 302.249896 175.435499 
L 298.992634 175.729282 
L 295.968033 176.226492 
L 293.197013 176.922976 
L 291.08214 177.662476 
L 289.157969 178.55274 
L 287.592217 179.495037 
L 286.119994 180.64815 
L 284.987057 181.812267 
L 283.973201 183.209207 
L 283.250433 184.606147 
L 282.762928 186.003088 
L 282.446718 187.632851 
L 282.374614 189.262615 
L 282.465194 190.426732 
L 282.465194 190.426732 
" style="fill:none;stroke:#443983;stroke-width:1.5;"/>
    <path clip-path="url(#p298dbf7d03)" d="M 282.446718 98.927149 
L 282.762928 100.556912 
L 283.250433 101.953853 
L 283.973201 103.350793 
L 284.800278 104.52215 
L 285.963586 105.768024 
L 287.359555 106.902541 
L 288.988186 107.915566 
L 290.849479 108.802158 
L 292.943433 109.558777 
L 295.50271 110.234077 
L 298.294649 110.736625 
L 301.319249 111.063767 
L 304.576511 111.201114 
L 308.066435 111.117863 
L 311.323697 110.815949 
L 314.348297 110.309212 
L 317.002649 109.637024 
L 319.23419 108.85014 
L 321.095483 107.978679 
L 322.724114 106.984256 
L 324.120083 105.875405 
L 325.283391 104.663324 
L 326.226994 103.350793 
L 326.949651 101.953853 
L 327.437066 100.556912 
L 327.753162 98.927149 
L 327.825543 97.297385 
L 327.665191 95.667622 
L 327.267755 94.037858 
L 326.611986 92.408095 
L 325.748714 90.915675 
L 324.748237 89.614214 
L 323.422099 88.284068 
L 322.026129 87.187191 
L 320.308929 86.121864 
L 318.303544 85.157021 
L 315.976928 84.311082 
L 313.417651 83.636708 
L 310.625712 83.143316 
L 307.601112 82.848197 
L 304.576511 82.777267 
L 301.551911 82.924223 
L 298.527311 83.301623 
L 295.735372 83.884254 
L 293.408756 84.578852 
L 291.287853 85.423394 
L 289.453509 86.368989 
L 287.717307 87.518804 
L 286.342872 88.682921 
L 285.253136 89.847038 
L 284.237141 91.243978 
L 283.404309 92.801891 
L 282.860326 94.270682 
L 282.497598 95.900445 
L 282.370613 97.530209 
L 282.446718 98.927149 
L 282.446718 98.927149 
" style="fill:none;stroke:#443983;stroke-width:1.5;"/>
   </g>
   <g id="LineCollection_3">
    <path clip-path="url(#p298dbf7d03)" d="M 54 158.302278 
L 59.118555 158.187551 
L 63.771786 157.864142 
L 67.790322 157.365814 
L 70.984295 156.763263 
L 73.776233 156.01458 
L 75.870188 155.250147 
L 77.752504 154.33911 
L 79.360111 153.305218 
L 80.616069 152.2437 
L 81.686727 151.055542 
L 82.617373 149.662 
L 83.315358 148.195025 
L 83.809145 146.655939 
L 84.113203 145.026175 
L 84.220462 143.163588 
L 84.082269 141.301001 
L 83.748235 139.671238 
L 83.182748 138.041474 
L 82.469801 136.644534 
L 81.668069 135.480417 
L 80.523419 134.228137 
L 79.220428 133.152184 
L 77.73148 132.20923 
L 75.821929 131.289597 
L 73.543572 130.472862 
L 70.984295 129.796737 
L 67.727033 129.184349 
L 64.004448 128.718403 
L 59.583878 128.394672 
L 54.697985 128.259805 
L 54 128.257722 
L 54 128.257722 
" style="fill:none;stroke:#31688e;stroke-width:1.5;"/>
    <path clip-path="url(#p298dbf7d03)" d="M 388.8 128.257722 
L 383.681445 128.372449 
L 379.028214 128.695858 
L 375.009678 129.194186 
L 371.815705 129.796737 
L 369.023767 130.54542 
L 366.929812 131.309853 
L 365.047496 132.22089 
L 363.439889 133.254782 
L 362.183931 134.3163 
L 361.113273 135.504458 
L 360.182627 136.898 
L 359.484642 138.364975 
L 358.990855 139.904061 
L 358.686797 141.533825 
L 358.579538 143.396412 
L 358.717731 145.258999 
L 359.051765 146.888762 
L 359.617252 148.518526 
L 360.330199 149.915466 
L 361.131931 151.079583 
L 362.276581 152.331863 
L 363.579572 153.407816 
L 365.06852 154.35077 
L 366.978071 155.270403 
L 369.256428 156.087138 
L 371.815705 156.763263 
L 375.072967 157.375651 
L 378.795552 157.841597 
L 383.216122 158.165328 
L 388.102015 158.300195 
L 388.8 158.302278 
L 388.8 158.302278 
" style="fill:none;stroke:#31688e;stroke-width:1.5;"/>
    <path clip-path="url(#p298dbf7d03)" d="M 104.944228 192.056495 
L 105.298758 194.384729 
L 105.88353 196.730914 
L 106.634976 198.808373 
L 107.547929 200.67096 
L 108.675469 202.418459 
L 109.934047 203.930487 
L 111.414131 205.327427 
L 112.965302 206.491544 
L 114.72467 207.551741 
L 116.894967 208.586954 
L 119.377901 209.506029 
L 122.16984 210.293478 
L 125.427102 210.968042 
L 128.917026 211.467362 
L 132.872272 211.809273 
L 137.060181 211.949266 
L 141.248089 211.875136 
L 145.435997 211.579222 
L 149.158582 211.103208 
L 152.648506 210.431122 
L 155.673106 209.617214 
L 158.232384 208.700285 
L 160.480228 207.655661 
L 162.18763 206.655209 
L 163.816261 205.467695 
L 165.243182 204.16331 
L 166.461325 202.76637 
L 167.580512 201.136606 
L 168.560419 199.274019 
L 169.297131 197.411433 
L 169.898846 195.316022 
L 170.33873 192.987789 
L 170.585723 190.426732 
L 170.602954 187.865675 
L 170.413131 185.537441 
L 169.998783 183.209207 
L 169.385513 181.113797 
L 168.584364 179.25121 
L 167.767914 177.85427 
L 166.694895 176.45733 
L 165.444892 175.219747 
L 164.0098 174.129096 
L 162.420292 173.194883 
L 160.349367 172.266509 
L 158.232384 171.547763 
L 155.440445 170.841196 
L 152.183183 170.254767 
L 148.227936 169.778247 
L 143.574705 169.451786 
L 138.45615 169.316726 
L 133.104934 169.397822 
L 128.219041 169.685298 
L 124.031133 170.138301 
L 120.541209 170.7204 
L 117.516609 171.446443 
L 115.050768 172.266509 
L 113.096039 173.135343 
L 111.390254 174.129096 
L 110.071438 175.120046 
L 108.908131 176.232434 
L 107.790909 177.621446 
L 106.937098 179.018387 
L 106.189073 180.64815 
L 105.577118 182.510737 
L 105.123162 184.606147 
L 104.848428 186.934381 
L 104.78164 189.495438 
L 104.944228 192.056495 
L 104.944228 192.056495 
" style="fill:none;stroke:#31688e;stroke-width:1.5;"/>
    <path clip-path="url(#p298dbf7d03)" d="M 104.932169 100.556912 
L 105.298095 102.885146 
L 105.855017 104.980556 
L 106.588068 106.843143 
L 107.512161 108.522231 
L 108.504596 109.869847 
L 109.613263 111.033964 
L 111.05112 112.198081 
L 112.630716 113.179325 
L 114.492008 114.068714 
L 116.818624 114.906277 
L 119.377901 115.589631 
L 122.635163 116.215429 
L 126.357748 116.700713 
L 130.778318 117.053222 
L 135.896873 117.232807 
L 141.248089 117.196073 
L 146.366644 116.938593 
L 150.787213 116.498493 
L 154.509798 115.90857 
L 157.534399 115.211038 
L 160.093676 114.390747 
L 162.18763 113.483319 
L 163.816261 112.55763 
L 165.25788 111.499611 
L 166.48445 110.335494 
L 167.609066 108.938554 
L 168.469493 107.529327 
L 169.210954 105.91185 
L 169.822908 104.049263 
L 170.276845 101.953853 
L 170.551643 99.625619 
L 170.618365 97.064562 
L 170.455695 94.503505 
L 170.098124 92.15934 
L 169.521889 89.847038 
L 168.765015 87.751627 
L 167.852025 85.88904 
L 166.810536 84.259277 
L 165.677554 82.85908 
L 164.258216 81.465396 
L 162.652953 80.217404 
L 160.791661 79.07145 
L 158.697707 78.054944 
L 156.371091 77.169075 
L 153.539325 76.343282 
L 150.554552 75.696147 
L 147.064628 75.162082 
L 143.109382 74.787569 
L 138.921473 74.617281 
L 134.733565 74.661688 
L 130.545657 74.925502 
L 126.59041 75.402592 
L 123.100486 76.050025 
L 120.075886 76.835638 
L 117.4648 77.740223 
L 115.189993 78.764047 
L 113.319265 79.835633 
L 111.697943 80.99975 
L 110.156889 82.39669 
L 108.908131 83.832998 
L 107.819524 85.423394 
L 106.947462 87.053157 
L 106.116192 89.109604 
L 105.557702 91.011154 
L 105.095648 93.339388 
L 104.827199 95.900445 
L 104.789139 98.461502 
L 104.932169 100.556912 
L 104.932169 100.556912 
" style="fill:none;stroke:#31688e;stroke-width:1.5;"/>
    <path clip-path="url(#p298dbf7d03)" d="M 191.259737 144.793352 
L 191.534515 146.423115 
L 192.02925 148.052879 
L 192.666296 149.45134 
L 193.553862 150.846759 
L 194.549635 152.010876 
L 195.866574 153.174993 
L 197.319527 154.150773 
L 199.18082 155.099748 
L 201.274774 155.901329 
L 203.834051 156.627506 
L 206.858652 157.24323 
L 210.581237 157.75666 
L 214.769145 158.107651 
L 219.655038 158.289167 
L 224.773593 158.252903 
L 229.659486 157.995155 
L 233.847394 157.559542 
L 237.337318 156.985702 
L 240.129256 156.325513 
L 242.640478 155.503227 
L 244.549826 154.659366 
L 246.178457 153.71371 
L 247.574427 152.649591 
L 248.737735 151.480075 
L 249.726299 150.148289 
L 250.480066 148.751349 
L 251.08268 147.121586 
L 251.447263 145.491822 
L 251.6166 143.629235 
L 251.540263 141.766648 
L 251.265485 140.136885 
L 250.77075 138.507121 
L 250.133704 137.10866 
L 249.246138 135.713241 
L 248.250365 134.549124 
L 246.933426 133.385007 
L 245.480473 132.409227 
L 243.61918 131.460252 
L 241.525226 130.658671 
L 238.965949 129.932494 
L 235.941348 129.31677 
L 232.218763 128.80334 
L 228.030855 128.452349 
L 223.144962 128.270833 
L 218.026407 128.307097 
L 213.140514 128.564845 
L 208.952606 129.000458 
L 205.462682 129.574298 
L 202.670744 130.234487 
L 200.159522 131.056773 
L 198.250174 131.900634 
L 196.621543 132.84629 
L 195.225573 133.910409 
L 194.062265 135.079925 
L 193.073701 136.411711 
L 192.319934 137.808651 
L 191.71732 139.438414 
L 191.352737 141.068178 
L 191.1834 142.930765 
L 191.259737 144.793352 
L 191.259737 144.793352 
" style="fill:none;stroke:#31688e;stroke-width:1.5;"/>
    <path clip-path="url(#p298dbf7d03)" d="M 272.227125 190.659555 
L 272.495598 193.220612 
L 272.957643 195.548846 
L 273.632523 197.780839 
L 274.459232 199.739666 
L 275.493815 201.575644 
L 276.523121 202.999193 
L 277.820431 204.42748 
L 279.394327 205.793074 
L 281.09044 206.957191 
L 282.938985 207.97058 
L 285.265601 208.975321 
L 287.824878 209.827865 
L 290.849479 210.586013 
L 294.339402 211.209672 
L 298.061987 211.645013 
L 302.249896 211.90244 
L 306.437804 211.940918 
L 310.625712 211.764526 
L 314.600951 211.380834 
L 318.070883 210.842252 
L 321.328145 210.117082 
L 324.120083 209.271446 
L 326.446699 208.351921 
L 328.540653 207.293561 
L 330.401946 206.094957 
L 331.919414 204.86178 
L 333.286744 203.46484 
L 334.375823 202.0679 
L 335.380755 200.438136 
L 336.261967 198.575549 
L 336.991228 196.480139 
L 337.546195 194.151905 
L 337.880065 191.823672 
L 338.02184 189.262615 
L 337.933734 186.701558 
L 337.614454 184.249695 
L 337.149131 182.246143 
L 336.517668 180.415327 
L 335.736046 178.785563 
L 334.822516 177.360865 
L 333.659208 175.987251 
L 332.263238 174.74299 
L 330.66759 173.663449 
L 329.005976 172.797488 
L 326.912022 171.959214 
L 324.352745 171.195538 
L 321.328145 170.542583 
L 317.838221 170.017737 
L 313.650313 169.612836 
L 308.76442 169.367247 
L 303.413204 169.325605 
L 298.294649 169.500165 
L 293.641418 169.871513 
L 289.669783 170.403922 
L 286.428909 171.051944 
L 283.756552 171.800862 
L 281.543016 172.640803 
L 279.681723 173.57657 
L 278.131078 174.594743 
L 276.768936 175.75886 
L 275.713386 176.922976 
L 274.735401 178.319917 
L 273.865184 179.986889 
L 273.167199 181.855699 
L 272.65052 183.907677 
L 272.30813 186.235911 
L 272.176855 188.796968 
L 272.227125 190.659555 
L 272.227125 190.659555 
" style="fill:none;stroke:#31688e;stroke-width:1.5;"/>
    <path clip-path="url(#p298dbf7d03)" d="M 272.232528 99.392796 
L 272.48555 101.721029 
L 272.934538 103.88891 
L 273.499874 105.679026 
L 274.215636 107.30879 
L 275.032086 108.70573 
L 276.105105 110.10267 
L 277.355108 111.340253 
L 278.7902 112.430904 
L 280.379708 113.365117 
L 282.450633 114.293491 
L 284.567616 115.012237 
L 287.359555 115.718804 
L 290.616817 116.305233 
L 294.572064 116.781753 
L 299.225295 117.108214 
L 304.34385 117.243274 
L 309.695066 117.162178 
L 314.580959 116.874702 
L 318.768867 116.421699 
L 322.258791 115.8396 
L 325.283391 115.113557 
L 327.749232 114.293491 
L 329.703961 113.424657 
L 331.409746 112.430904 
L 332.728562 111.439954 
L 333.891869 110.327566 
L 335.009091 108.938554 
L 335.862902 107.541613 
L 336.610927 105.91185 
L 337.222882 104.049263 
L 337.676838 101.953853 
L 337.951572 99.625619 
L 338.01836 97.064562 
L 337.847116 94.426551 
L 337.501242 92.175271 
L 336.91647 89.829086 
L 336.165024 87.751627 
L 335.252071 85.88904 
L 334.124531 84.141541 
L 332.865953 82.629513 
L 331.385869 81.232573 
L 329.834698 80.068456 
L 328.07533 79.008259 
L 325.905033 77.973046 
L 323.422099 77.053971 
L 320.63016 76.266522 
L 317.372898 75.591958 
L 313.882974 75.092638 
L 309.927728 74.750727 
L 305.739819 74.610734 
L 301.551911 74.684864 
L 297.364003 74.980778 
L 293.641418 75.456792 
L 290.151494 76.128878 
L 287.126894 76.942786 
L 284.567616 77.859715 
L 282.319772 78.904339 
L 280.61237 79.904791 
L 278.983739 81.092305 
L 277.556818 82.39669 
L 276.338675 83.79363 
L 275.219488 85.423394 
L 274.239581 87.285981 
L 273.502869 89.148567 
L 272.901154 91.243978 
L 272.46127 93.572211 
L 272.214277 96.133268 
L 272.197046 98.694325 
L 272.232528 99.392796 
L 272.232528 99.392796 
" style="fill:none;stroke:#31688e;stroke-width:1.5;"/>
   </g>
   <g id="LineCollection_4">
    <path clip-path="url(#p298dbf7d03)" d="M 54 163.933085 
L 95.85 163.884868 
L 95.85 122.675132 
L 95.181098 122.626915 
L 54 122.626915 
L 54 122.626915 
" style="fill:none;stroke:#21918c;stroke-width:1.5;"/>
    <path clip-path="url(#p298dbf7d03)" d="M 54 59.58 
L 95.646421 59.58 
L 95.85 59.812823 
L 95.879083 122.626915 
L 179.55 122.675132 
L 179.55 163.884868 
L 179.171925 163.933085 
L 95.879083 163.933085 
L 95.85 164.816161 
L 95.85 226.747177 
L 95.646421 226.98 
L 54 226.98 
L 54 226.98 
" style="fill:none;stroke:#21918c;stroke-width:1.5;"/>
    <path clip-path="url(#p298dbf7d03)" d="M 388.8 226.98 
L 347.153579 226.98 
L 346.95 226.747177 
L 346.920917 163.933085 
L 263.25 163.884868 
L 263.25 122.675132 
L 263.628075 122.626915 
L 346.920917 122.626915 
L 346.95 121.743839 
L 346.95 59.812823 
L 347.153579 59.58 
L 388.8 59.58 
L 388.8 59.58 
" style="fill:none;stroke:#21918c;stroke-width:1.5;"/>
    <path clip-path="url(#p298dbf7d03)" d="M 388.8 122.626915 
L 346.95 122.675132 
L 346.95 163.884868 
L 347.618902 163.933085 
L 388.8 163.933085 
L 388.8 163.933085 
" style="fill:none;stroke:#21918c;stroke-width:1.5;"/>
    <path clip-path="url(#p298dbf7d03)" d="M 179.55 226.747177 
L 179.637248 163.933085 
L 263.162752 163.933085 
L 263.25 164.350515 
L 263.162752 226.98 
L 179.637248 226.98 
L 179.55 226.747177 
L 179.55 226.747177 
" style="fill:none;stroke:#21918c;stroke-width:1.5;"/>
    <path clip-path="url(#p298dbf7d03)" d="M 179.55 122.442309 
L 179.637248 59.58 
L 263.162752 59.58 
L 263.25 60.045647 
L 263.162752 122.626915 
L 179.637248 122.626915 
L 179.55 122.442309 
L 179.55 122.442309 
" style="fill:none;stroke:#21918c;stroke-width:1.5;"/>
   </g>
   <g id="LineCollection_5">
    <path clip-path="url(#p298dbf7d03)" d="M 54 169.314497 
L 59.351216 169.428009 
L 64.237109 169.751174 
L 68.425017 170.246091 
L 71.914941 170.87898 
L 74.70688 171.600151 
L 77.033495 172.419442 
L 78.894788 173.286717 
L 80.523419 174.274413 
L 81.919388 175.373629 
L 83.082696 176.558207 
L 84.067836 177.85427 
L 85.000627 179.484033 
L 85.685476 181.113797 
L 86.243058 182.976384 
L 86.649599 185.071794 
L 86.881216 187.400028 
L 86.905756 189.961085 
L 86.701163 192.522142 
L 86.304687 194.850376 
L 85.674971 197.178609 
L 84.943989 199.087734 
L 84.013343 200.913023 
L 82.93909 202.533547 
L 81.686727 204.014302 
L 80.285974 205.327427 
L 78.662126 206.540243 
L 76.780355 207.655661 
L 74.70688 208.628213 
L 72.147603 209.562122 
L 69.355664 210.335671 
L 66.098402 210.998073 
L 62.375817 211.512832 
L 58.42057 211.832437 
L 54.232662 211.951412 
L 54 211.951739 
L 54 211.951739 
" style="fill:none;stroke:#35b779;stroke-width:1.5;"/>
    <path clip-path="url(#p298dbf7d03)" d="M 54 74.608261 
L 58.187908 74.715284 
L 62.375817 75.047168 
L 66.098402 75.561927 
L 69.355664 76.224329 
L 72.283972 77.041752 
L 74.70688 77.931787 
L 76.800834 78.915108 
L 78.734722 80.068456 
L 80.290757 81.236577 
L 81.765964 82.629513 
L 82.93909 84.026453 
L 84.018753 85.656217 
L 84.964601 87.518804 
L 85.749814 89.614214 
L 86.339958 91.875259 
L 86.701163 94.037858 
L 86.905756 96.598915 
L 86.881216 99.159972 
L 86.649599 101.488206 
L 86.243058 103.583616 
L 85.641974 105.565594 
L 84.88439 107.30879 
L 83.909048 108.938554 
L 82.784475 110.335494 
L 81.454065 111.585232 
L 79.949922 112.663727 
L 78.196803 113.625962 
L 76.102849 114.497842 
L 73.776233 115.226909 
L 70.751633 115.919818 
L 67.26171 116.475967 
L 63.073801 116.90751 
L 58.187908 117.176437 
L 54 117.245503 
L 54 117.245503 
" style="fill:none;stroke:#35b779;stroke-width:1.5;"/>
    <path clip-path="url(#p298dbf7d03)" d="M 388.8 211.951739 
L 384.612092 211.844716 
L 380.424183 211.512832 
L 376.701598 210.998073 
L 373.444336 210.335671 
L 370.516028 209.518248 
L 368.09312 208.628213 
L 365.999166 207.644892 
L 364.065278 206.491544 
L 362.509243 205.323423 
L 361.034036 203.930487 
L 359.86091 202.533547 
L 358.781247 200.903783 
L 357.835399 199.041196 
L 357.050186 196.945786 
L 356.460042 194.684741 
L 356.098837 192.522142 
L 355.894244 189.961085 
L 355.918784 187.400028 
L 356.150401 185.071794 
L 356.556942 182.976384 
L 357.158026 180.994406 
L 357.91561 179.25121 
L 358.890952 177.621446 
L 360.015525 176.224506 
L 361.345935 174.974768 
L 362.850078 173.896273 
L 364.603197 172.934038 
L 366.697151 172.062158 
L 369.023767 171.333091 
L 372.048367 170.640182 
L 375.53829 170.084033 
L 379.726199 169.65249 
L 384.612092 169.383563 
L 388.8 169.314497 
L 388.8 169.314497 
" style="fill:none;stroke:#35b779;stroke-width:1.5;"/>
    <path clip-path="url(#p298dbf7d03)" d="M 388.8 117.245503 
L 383.448784 117.131991 
L 378.562891 116.808826 
L 374.374983 116.313909 
L 370.885059 115.68102 
L 368.09312 114.959849 
L 365.766505 114.140558 
L 363.905212 113.273283 
L 362.276581 112.285587 
L 360.880612 111.186371 
L 359.717304 110.001793 
L 358.732164 108.70573 
L 357.799373 107.075967 
L 357.114524 105.446203 
L 356.556942 103.583616 
L 356.150401 101.488206 
L 355.918784 99.159972 
L 355.894244 96.598915 
L 356.098837 94.037858 
L 356.495313 91.709624 
L 357.125029 89.381391 
L 357.856011 87.472266 
L 358.786657 85.646977 
L 359.86091 84.026453 
L 361.113273 82.545698 
L 362.514026 81.232573 
L 364.137874 80.019757 
L 366.019645 78.904339 
L 368.09312 77.931787 
L 370.652397 76.997878 
L 373.444336 76.224329 
L 376.701598 75.561927 
L 380.424183 75.047168 
L 384.37943 74.727563 
L 388.567338 74.608588 
L 388.8 74.608261 
L 388.8 74.608261 
" style="fill:none;stroke:#35b779;stroke-width:1.5;"/>
    <path clip-path="url(#p298dbf7d03)" d="M 107.502332 144.094882 
L 107.517582 142.232295 
L 107.744823 140.554349 
L 108.163086 138.972768 
L 108.728674 137.575828 
L 109.525233 136.178887 
L 110.536762 134.882459 
L 111.700069 133.760579 
L 113.096039 132.731888 
L 114.72467 131.813219 
L 116.585962 131.008768 
L 118.912578 130.250727 
L 121.704517 129.585936 
L 124.961779 129.039995 
L 128.917026 128.607227 
L 133.570257 128.331983 
L 138.688812 128.261904 
L 143.574705 128.409616 
L 147.995274 128.747706 
L 151.950521 129.268096 
L 155.207783 129.91842 
L 157.76706 130.63939 
L 160.059275 131.52242 
L 161.855815 132.453713 
L 163.350938 133.476627 
L 164.550336 134.549124 
L 165.546082 135.713241 
L 166.434433 137.110181 
L 167.073523 138.514333 
L 167.565493 140.136885 
L 167.840184 141.766648 
L 167.916599 143.629235 
L 167.747328 145.491822 
L 167.382606 147.121586 
L 166.780096 148.751349 
L 166.026263 150.148289 
L 165.18003 151.312406 
L 164.048923 152.494176 
L 162.652953 153.595903 
L 161.256984 154.446092 
L 159.395691 155.322342 
L 157.069076 156.140358 
L 154.509798 156.802245 
L 151.252536 157.402276 
L 147.29729 157.88062 
L 142.87672 158.184886 
L 137.990827 158.301916 
L 132.872272 158.200399 
L 128.219041 157.891403 
L 124.263794 157.419747 
L 121.006532 156.827835 
L 118.214593 156.104991 
L 115.877953 155.270403 
L 113.947612 154.33911 
L 112.398054 153.348224 
L 111.083924 152.2437 
L 110.031971 151.079583 
L 109.094231 149.682643 
L 108.420356 148.285702 
L 107.890918 146.655939 
L 107.586784 145.026175 
L 107.502332 144.094882 
L 107.502332 144.094882 
" style="fill:none;stroke:#35b779;stroke-width:1.5;"/>
    <path clip-path="url(#p298dbf7d03)" d="M 188.478094 189.262615 
L 188.566267 186.701558 
L 188.863145 184.373324 
L 189.341753 182.277914 
L 189.982351 180.415327 
L 190.805003 178.712869 
L 191.73565 177.28255 
L 192.836556 175.991683 
L 194.128511 174.827566 
L 195.690896 173.748159 
L 197.319527 172.878823 
L 199.413482 172.020431 
L 201.972759 171.240518 
L 204.997359 170.574509 
L 208.487283 170.039411 
L 212.675191 169.625743 
L 217.561084 169.372436 
L 222.9123 169.323423 
L 228.030855 169.490479 
L 232.684086 169.853236 
L 236.639333 170.372619 
L 239.896595 171.010774 
L 242.688534 171.782899 
L 244.782488 172.565217 
L 246.64378 173.477251 
L 248.272411 174.523315 
L 249.486655 175.526036 
L 250.599027 176.694376 
L 251.619529 178.087093 
L 252.511869 179.716857 
L 253.244932 181.579444 
L 253.801931 183.674854 
L 254.167779 186.003088 
L 254.321026 188.564145 
L 254.241415 191.125202 
L 253.929526 193.686259 
L 253.421933 196.014492 
L 252.745642 198.109903 
L 251.924993 199.97249 
L 250.988926 201.602253 
L 249.78546 203.232017 
L 248.470398 204.628957 
L 246.876442 205.966596 
L 245.247811 207.055271 
L 243.153857 208.165646 
L 240.827241 209.126579 
L 238.123438 209.983894 
L 235.188214 210.682364 
L 231.75344 211.267942 
L 228.030855 211.680302 
L 223.842946 211.915565 
L 219.655038 211.933315 
L 215.46713 211.735431 
L 211.511883 211.331073 
L 208.02196 210.764425 
L 204.764698 210.008184 
L 201.972759 209.126579 
L 199.552197 208.121307 
L 197.552189 207.055271 
L 195.923558 205.966596 
L 194.294927 204.596043 
L 192.898958 203.092441 
L 191.811074 201.602253 
L 190.805003 199.832519 
L 190.054358 198.109903 
L 189.378067 196.014492 
L 188.870474 193.686259 
L 188.558585 191.125202 
L 188.478094 189.262615 
L 188.478094 189.262615 
" style="fill:none;stroke:#35b779;stroke-width:1.5;"/>
    <path clip-path="url(#p298dbf7d03)" d="M 188.476791 97.763032 
L 188.577138 95.201975 
L 188.911027 92.640918 
L 189.442092 90.312684 
L 190.144521 88.217274 
L 191.037665 86.273908 
L 191.968311 84.719636 
L 193.21325 83.09516 
L 194.580539 81.69822 
L 196.15622 80.422953 
L 198.017512 79.233364 
L 200.111466 78.182136 
L 202.438082 77.268359 
L 205.230021 76.427742 
L 208.254621 75.750676 
L 211.744545 75.198714 
L 215.699792 74.80767 
L 219.8877 74.622093 
L 224.075608 74.651683 
L 228.263516 74.899577 
L 232.218763 75.358889 
L 235.708687 75.986462 
L 238.733287 76.749135 
L 241.292564 77.606817 
L 243.61918 78.618041 
L 245.480473 79.646433 
L 247.109104 80.769472 
L 248.711473 82.163866 
L 249.976893 83.560807 
L 251.1373 85.19057 
L 252.040809 86.820334 
L 252.832564 88.682921 
L 253.483344 90.778331 
L 253.967977 93.106565 
L 254.258068 95.667622 
L 254.316932 98.228679 
L 254.141565 100.789736 
L 253.751707 103.117969 
L 253.158304 105.238652 
L 252.400624 107.075967 
L 251.467828 108.70573 
L 250.366366 110.134842 
L 249.203058 111.289747 
L 247.709731 112.430904 
L 246.125817 113.362197 
L 244.084503 114.279819 
L 241.990549 114.994964 
L 239.19861 115.706307 
L 235.941348 116.296502 
L 231.986101 116.776223 
L 227.33287 117.105425 
L 222.214315 117.242917 
L 216.863099 117.1643 
L 211.977206 116.879496 
L 207.789298 116.4296 
L 204.299375 115.851273 
L 201.274774 115.130066 
L 198.750668 114.293491 
L 196.854204 113.454096 
L 195.090269 112.430904 
L 193.829604 111.489158 
L 192.615507 110.335494 
L 191.490855 108.938554 
L 190.572342 107.418359 
L 189.874357 105.873962 
L 189.27713 104.049263 
L 188.823182 101.953853 
L 188.548415 99.625619 
L 188.476791 97.763032 
L 188.476791 97.763032 
" style="fill:none;stroke:#35b779;stroke-width:1.5;"/>
    <path clip-path="url(#p298dbf7d03)" d="M 275.017652 145.258999 
L 274.879601 143.396412 
L 274.98675 141.533825 
L 275.290858 139.904061 
L 275.820436 138.274298 
L 276.494259 136.877357 
L 277.43202 135.480417 
L 278.518416 134.283258 
L 279.87949 133.152184 
L 281.347539 132.22089 
L 283.27815 131.289597 
L 285.498263 130.490829 
L 288.05754 129.809892 
L 291.314802 129.193337 
L 295.037387 128.724142 
L 299.457957 128.397595 
L 304.34385 128.260167 
L 309.462404 128.340689 
L 314.115636 128.627057 
L 318.303544 129.105973 
L 321.793468 129.732165 
L 324.585407 130.455009 
L 326.922047 131.289597 
L 328.852388 132.22089 
L 330.401946 133.211776 
L 331.716076 134.3163 
L 332.768029 135.480417 
L 333.705769 136.877357 
L 334.379644 138.274298 
L 334.909082 139.904061 
L 335.213216 141.533825 
L 335.320451 143.396412 
L 335.18225 145.258999 
L 334.822516 146.980598 
L 334.282762 148.518526 
L 333.569798 149.915466 
L 332.579962 151.312406 
L 331.468317 152.476523 
L 330.169284 153.51496 
L 328.540653 154.508517 
L 326.679361 155.369484 
L 324.352745 156.17528 
L 321.793468 156.827835 
L 318.536206 157.419747 
L 314.580959 157.891403 
L 310.160389 158.190184 
L 305.274496 158.302147 
L 300.155942 158.195355 
L 295.50271 157.88062 
L 291.547464 157.402276 
L 288.290202 156.802245 
L 285.498263 156.069171 
L 283.171647 155.225501 
L 281.310354 154.318197 
L 279.681723 153.26188 
L 278.483857 152.2437 
L 277.355108 150.979984 
L 276.494259 149.682643 
L 275.820436 148.285702 
L 275.290858 146.655939 
L 275.017652 145.258999 
L 275.017652 145.258999 
" style="fill:none;stroke:#35b779;stroke-width:1.5;"/>
   </g>
   <g id="LineCollection_6">
    <path clip-path="url(#p298dbf7d03)" d="M 54 175.356224 
L 57.257262 175.45992 
L 60.514524 175.782633 
L 63.539124 176.313164 
L 66.098402 176.983063 
L 68.425017 177.830954 
L 70.28631 178.740578 
L 71.823801 179.716857 
L 73.231469 180.880974 
L 74.305436 182.04509 
L 75.265628 183.442031 
L 75.946016 184.838971 
L 76.398068 186.235911 
L 76.677953 187.865675 
L 76.716677 189.495438 
L 76.523268 191.125202 
L 76.090806 192.754965 
L 75.395216 194.384729 
L 74.474218 195.89686 
L 73.440472 197.178609 
L 72.147603 198.427371 
L 70.732743 199.506843 
L 68.890341 200.608994 
L 67.029048 201.475435 
L 64.702432 202.302845 
L 62.143155 202.961092 
L 59.351216 203.440198 
L 56.326616 203.721823 
L 54 203.785971 
L 54 203.785971 
" style="fill:none;stroke:#90d743;stroke-width:1.5;"/>
    <path clip-path="url(#p298dbf7d03)" d="M 54 82.774029 
L 57.0246 82.882802 
L 60.049201 83.218745 
L 62.84114 83.755775 
L 65.400417 84.479781 
L 67.494371 85.281873 
L 69.355664 86.203256 
L 71.065778 87.285981 
L 72.612926 88.547382 
L 73.846687 89.847038 
L 74.862881 91.243978 
L 75.637526 92.672931 
L 76.239657 94.270682 
L 76.602373 95.900445 
L 76.729417 97.530209 
L 76.623463 99.159972 
L 76.270495 100.789736 
L 75.746611 102.186676 
L 74.939541 103.645039 
L 74.008895 104.867878 
L 72.845587 106.030792 
L 71.449618 107.104303 
L 69.820987 108.070638 
L 67.915659 108.938554 
L 65.633079 109.716685 
L 63.073801 110.345373 
L 60.049201 110.837989 
L 56.791939 111.127718 
L 54 111.203776 
L 54 111.203776 
" style="fill:none;stroke:#90d743;stroke-width:1.5;"/>
    <path clip-path="url(#p298dbf7d03)" d="M 388.8 203.785971 
L 385.7754 203.677198 
L 382.750799 203.341255 
L 379.95886 202.804225 
L 377.399583 202.080219 
L 375.305629 201.278127 
L 373.444336 200.356744 
L 371.734222 199.274019 
L 370.187074 198.012618 
L 368.953313 196.712962 
L 367.937119 195.316022 
L 367.162474 193.887069 
L 366.560343 192.289318 
L 366.197627 190.659555 
L 366.070583 189.029791 
L 366.176537 187.400028 
L 366.529505 185.770264 
L 367.053389 184.373324 
L 367.860459 182.914961 
L 368.791105 181.692122 
L 369.954413 180.529208 
L 371.350382 179.455697 
L 372.979013 178.489362 
L 374.884341 177.621446 
L 377.166921 176.843315 
L 379.726199 176.214627 
L 382.750799 175.722011 
L 386.008061 175.432282 
L 388.8 175.356224 
L 388.8 175.356224 
" style="fill:none;stroke:#90d743;stroke-width:1.5;"/>
    <path clip-path="url(#p298dbf7d03)" d="M 388.8 111.203776 
L 385.542738 111.10008 
L 382.285476 110.777367 
L 379.260876 110.246836 
L 376.701598 109.576937 
L 374.374983 108.729046 
L 372.51369 107.819422 
L 370.976199 106.843143 
L 369.568531 105.679026 
L 368.494564 104.51491 
L 367.534372 103.117969 
L 366.853984 101.721029 
L 366.401932 100.324089 
L 366.122047 98.694325 
L 366.083323 97.064562 
L 366.276732 95.434798 
L 366.709194 93.805035 
L 367.404784 92.175271 
L 368.325782 90.66314 
L 369.359528 89.381391 
L 370.652397 88.132629 
L 372.067257 87.053157 
L 373.909659 85.951006 
L 375.770952 85.084565 
L 378.097568 84.257155 
L 380.656845 83.598908 
L 383.448784 83.119802 
L 386.473384 82.838177 
L 388.8 82.774029 
L 388.8 82.774029 
" style="fill:none;stroke:#90d743;stroke-width:1.5;"/>
    <path clip-path="url(#p298dbf7d03)" d="M 122.824452 144.327705 
L 122.694787 143.396412 
L 122.772505 142.465118 
L 123.100486 141.450281 
L 123.583742 140.602531 
L 124.376384 139.671238 
L 125.511446 138.739944 
L 126.823072 137.961408 
L 128.451703 137.251457 
L 130.403382 136.644534 
L 132.648221 136.178887 
L 135.198888 135.880193 
L 137.990827 135.788037 
L 140.782766 135.928966 
L 143.342043 136.281888 
L 145.668659 136.82924 
L 147.529951 137.479492 
L 149.158582 138.277143 
L 150.50555 139.205591 
L 151.485198 140.170781 
L 152.183183 141.210803 
L 152.509903 141.999471 
L 152.692376 142.930765 
L 152.648506 143.971565 
L 152.415844 144.831705 
L 151.950521 145.754663 
L 151.250691 146.655939 
L 150.210348 147.587232 
L 148.925921 148.413236 
L 147.29729 149.175173 
L 145.435997 149.79689 
L 143.342043 150.278112 
L 140.782766 150.631034 
L 137.990827 150.771963 
L 135.198888 150.679807 
L 132.639611 150.379728 
L 130.312995 149.891895 
L 128.207864 149.216996 
L 126.59041 148.477043 
L 125.189197 147.587232 
L 124.14975 146.655939 
L 123.430205 145.724645 
L 122.969277 144.793352 
L 122.824452 144.327705 
L 122.824452 144.327705 
" style="fill:none;stroke:#90d743;stroke-width:1.5;"/>
    <path clip-path="url(#p298dbf7d03)" d="M 198.7147 189.961085 
L 198.68695 188.331321 
L 198.896114 186.701558 
L 199.279843 185.304618 
L 199.87932 183.907677 
L 200.739059 182.510737 
L 201.740097 181.309134 
L 202.965923 180.182503 
L 204.532036 179.081456 
L 206.160667 178.198983 
L 208.254621 177.331653 
L 210.581237 176.618841 
L 213.373176 176.016818 
L 216.397776 175.603902 
L 219.655038 175.385851 
L 223.144962 175.385851 
L 226.402224 175.603902 
L 229.426824 176.016818 
L 232.218763 176.618841 
L 234.545379 177.331653 
L 236.639333 178.198983 
L 238.267964 179.081456 
L 239.834077 180.182503 
L 241.09575 181.34662 
L 242.060941 182.510737 
L 242.921195 183.908695 
L 243.520157 185.304618 
L 243.903886 186.701558 
L 244.11305 188.331321 
L 244.084503 189.969237 
L 243.824827 191.590848 
L 243.320292 193.220612 
L 242.672003 194.617552 
L 241.757887 196.058691 
L 240.59458 197.441156 
L 239.19861 198.717012 
L 237.781951 199.739666 
L 235.941348 200.787952 
L 233.847394 201.706025 
L 231.520778 202.473162 
L 228.961501 203.079832 
L 226.169562 203.512482 
L 223.144962 203.749938 
L 220.120361 203.766609 
L 217.095761 203.563902 
L 214.303822 203.167432 
L 211.744545 202.600308 
L 209.297936 201.835076 
L 207.323975 201.014122 
L 205.387983 199.97249 
L 203.715577 198.808373 
L 202.404427 197.644256 
L 201.182696 196.247316 
L 200.257786 194.850376 
L 199.573164 193.453435 
L 199.031935 191.823672 
L 198.73764 190.193908 
L 198.7147 189.961085 
L 198.7147 189.961085 
" style="fill:none;stroke:#90d743;stroke-width:1.5;"/>
    <path clip-path="url(#p298dbf7d03)" d="M 198.701965 98.461502 
L 198.696617 96.831739 
L 198.923472 95.201975 
L 199.391694 93.572211 
L 200.004988 92.175271 
L 200.844643 90.778331 
L 201.972759 89.366761 
L 203.368728 88.034029 
L 204.764698 86.987541 
L 206.62599 85.890127 
L 208.487283 85.03703 
L 210.813899 84.222121 
L 213.437906 83.560807 
L 216.239544 83.09516 
L 219.189715 82.831904 
L 222.214315 82.781865 
L 225.238916 82.950171 
L 228.263516 83.351108 
L 231.055455 83.959692 
L 233.502064 84.724924 
L 235.476025 85.545878 
L 237.412017 86.58751 
L 239.084423 87.751627 
L 240.395573 88.915744 
L 241.617304 90.312684 
L 242.542214 91.709624 
L 243.226836 93.106565 
L 243.768065 94.736328 
L 244.06236 96.366092 
L 244.123276 97.995855 
L 243.948814 99.625619 
L 243.598364 101.022559 
L 243.036983 102.419499 
L 242.223211 103.819066 
L 241.292564 104.999775 
L 240.114707 106.144673 
L 238.733287 107.181775 
L 237.104656 108.130638 
L 235.243363 108.96699 
L 232.916748 109.750241 
L 230.35747 110.368773 
L 227.33287 110.852304 
L 224.075608 111.13395 
L 220.818346 111.20049 
L 217.561084 111.059388 
L 214.303822 110.693902 
L 211.511883 110.168847 
L 208.952606 109.466163 
L 206.858652 108.679062 
L 204.997359 107.753918 
L 203.368728 106.690276 
L 202.168425 105.679026 
L 201.042113 104.448756 
L 200.111466 103.077967 
L 199.413482 101.617252 
L 199.001915 100.324089 
L 198.721849 98.694325 
L 198.701965 98.461502 
L 198.701965 98.461502 
" style="fill:none;stroke:#90d743;stroke-width:1.5;"/>
    <path clip-path="url(#p298dbf7d03)" d="M 290.133338 143.862058 
L 290.107624 142.930765 
L 290.290097 141.999471 
L 290.692362 141.068178 
L 291.342635 140.136885 
L 292.29445 139.205591 
L 293.408756 138.417063 
L 294.804726 137.681309 
L 296.433356 137.046989 
L 298.527311 136.471236 
L 300.853926 136.061155 
L 303.413204 135.829182 
L 306.205142 135.804963 
L 308.997081 136.016777 
L 311.556359 136.44529 
L 313.650313 137.008921 
L 315.511605 137.734584 
L 316.93752 138.507121 
L 318.175859 139.438414 
L 319.045511 140.369708 
L 319.630061 141.301001 
L 319.975548 142.232295 
L 320.105213 143.163588 
L 320.027495 144.094882 
L 319.699514 145.109719 
L 319.216258 145.957469 
L 318.423616 146.888762 
L 317.288554 147.820056 
L 315.976928 148.598592 
L 314.348297 149.308543 
L 312.396618 149.915466 
L 310.151779 150.381113 
L 307.601112 150.679807 
L 304.809173 150.771963 
L 302.017234 150.631034 
L 299.457957 150.278112 
L 297.131341 149.73076 
L 295.270049 149.080508 
L 293.641418 148.282857 
L 292.29445 147.354409 
L 291.314802 146.389219 
L 290.616817 145.349197 
L 290.290097 144.560529 
L 290.133338 143.862058 
L 290.133338 143.862058 
" style="fill:none;stroke:#90d743;stroke-width:1.5;"/>
   </g>
   <g id="LineCollection_7">
    <path clip-path="url(#p298dbf7d03)" d="M 54 186.27752 
L 54.232662 186.281319 
L 54.465323 186.292719 
L 54.697985 186.311723 
L 54.930646 186.338339 
L 55.163308 186.372576 
L 55.395969 186.414449 
L 55.628631 186.463972 
L 55.648013 186.468734 
L 55.861293 186.526375 
L 56.093954 186.597708 
L 56.326616 186.677524 
L 56.389959 186.701558 
L 56.559277 186.772942 
L 56.791939 186.8805 
L 56.899057 186.934381 
L 57.0246 187.005414 
L 57.257262 187.147759 
L 57.286829 187.167204 
L 57.489924 187.319782 
L 57.589737 187.400028 
L 57.722585 187.524486 
L 57.831151 187.632851 
L 57.955247 187.781133 
L 58.021914 187.865675 
L 58.169497 188.098498 
L 58.187908 188.136847 
L 58.27621 188.331321 
L 58.348217 188.564145 
L 58.386699 188.796968 
L 58.391817 189.029791 
L 58.363701 189.262615 
L 58.302453 189.495438 
L 58.208142 189.728261 
L 58.187908 189.765282 
L 58.07474 189.961085 
L 57.955247 190.125335 
L 57.902307 190.193908 
L 57.722585 190.38711 
L 57.68332 190.426732 
L 57.489924 190.593607 
L 57.408142 190.659555 
L 57.257262 190.765881 
L 57.064226 190.892378 
L 57.0246 190.91545 
L 56.791939 191.040779 
L 56.621367 191.125202 
L 56.559277 191.152866 
L 56.326616 191.247445 
L 56.093954 191.332907 
L 56.017473 191.358025 
L 55.861293 191.404698 
L 55.628631 191.465997 
L 55.395969 191.519076 
L 55.163308 191.563955 
L 54.99281 191.590848 
L 54.930646 191.599851 
L 54.697985 191.62605 
L 54.465323 191.644756 
L 54.232662 191.655977 
L 54 191.659717 
" style="fill:none;stroke:#fde725;stroke-width:1.5;"/>
    <path clip-path="url(#p298dbf7d03)" d="M 54 94.900283 
L 54.232662 94.904023 
L 54.465323 94.915244 
L 54.697985 94.93395 
L 54.930646 94.960149 
L 54.99281 94.969152 
L 55.163308 94.996045 
L 55.395969 95.040924 
L 55.628631 95.094003 
L 55.861293 95.155302 
L 56.017473 95.201975 
L 56.093954 95.227093 
L 56.326616 95.312555 
L 56.559277 95.407134 
L 56.621367 95.434798 
L 56.791939 95.519221 
L 57.0246 95.64455 
L 57.064226 95.667622 
L 57.257262 95.794119 
L 57.408142 95.900445 
L 57.489924 95.966393 
L 57.68332 96.133268 
L 57.722585 96.17289 
L 57.902307 96.366092 
L 57.955247 96.434665 
L 58.07474 96.598915 
L 58.187908 96.794718 
L 58.208142 96.831739 
L 58.302453 97.064562 
L 58.363701 97.297385 
L 58.391817 97.530209 
L 58.386699 97.763032 
L 58.348217 97.995855 
L 58.27621 98.228679 
L 58.187908 98.423153 
L 58.169497 98.461502 
L 58.021914 98.694325 
L 57.955247 98.778867 
L 57.831151 98.927149 
L 57.722585 99.035514 
L 57.589737 99.159972 
L 57.489924 99.240218 
L 57.286829 99.392796 
L 57.257262 99.412241 
L 57.0246 99.554586 
L 56.899057 99.625619 
L 56.791939 99.6795 
L 56.559277 99.787058 
L 56.389959 99.858442 
L 56.326616 99.882476 
L 56.093954 99.962292 
L 55.861293 100.033625 
L 55.648013 100.091266 
L 55.628631 100.096028 
L 55.395969 100.145551 
L 55.163308 100.187424 
L 54.930646 100.221661 
L 54.697985 100.248277 
L 54.465323 100.267281 
L 54.232662 100.278681 
L 54 100.28248 
" style="fill:none;stroke:#fde725;stroke-width:1.5;"/>
    <path clip-path="url(#p298dbf7d03)" d="M 388.8 191.659717 
L 388.567338 191.655977 
L 388.334677 191.644756 
L 388.102015 191.62605 
L 387.869354 191.599851 
L 387.80719 191.590848 
L 387.636692 191.563955 
L 387.404031 191.519076 
L 387.171369 191.465997 
L 386.938707 191.404698 
L 386.782527 191.358025 
L 386.706046 191.332907 
L 386.473384 191.247445 
L 386.240723 191.152866 
L 386.178633 191.125202 
L 386.008061 191.040779 
L 385.7754 190.91545 
L 385.735774 190.892378 
L 385.542738 190.765881 
L 385.391858 190.659555 
L 385.310076 190.593607 
L 385.11668 190.426732 
L 385.077415 190.38711 
L 384.897693 190.193908 
L 384.844753 190.125335 
L 384.72526 189.961085 
L 384.612092 189.765282 
L 384.591858 189.728261 
L 384.497547 189.495438 
L 384.436299 189.262615 
L 384.408183 189.029791 
L 384.413301 188.796968 
L 384.451783 188.564145 
L 384.52379 188.331321 
L 384.612092 188.136847 
L 384.630503 188.098498 
L 384.778086 187.865675 
L 384.844753 187.781133 
L 384.968849 187.632851 
L 385.077415 187.524486 
L 385.210263 187.400028 
L 385.310076 187.319782 
L 385.513171 187.167204 
L 385.542738 187.147759 
L 385.7754 187.005414 
L 385.900943 186.934381 
L 386.008061 186.8805 
L 386.240723 186.772942 
L 386.410041 186.701558 
L 386.473384 186.677524 
L 386.706046 186.597708 
L 386.938707 186.526375 
L 387.151987 186.468734 
L 387.171369 186.463972 
L 387.404031 186.414449 
L 387.636692 186.372576 
L 387.869354 186.338339 
L 388.102015 186.311723 
L 388.334677 186.292719 
L 388.567338 186.281319 
L 388.8 186.27752 
" style="fill:none;stroke:#fde725;stroke-width:1.5;"/>
    <path clip-path="url(#p298dbf7d03)" d="M 388.8 100.28248 
L 388.567338 100.278681 
L 388.334677 100.267281 
L 388.102015 100.248277 
L 387.869354 100.221661 
L 387.636692 100.187424 
L 387.404031 100.145551 
L 387.171369 100.096028 
L 387.151987 100.091266 
L 386.938707 100.033625 
L 386.706046 99.962292 
L 386.473384 99.882476 
L 386.410041 99.858442 
L 386.240723 99.787058 
L 386.008061 99.6795 
L 385.900943 99.625619 
L 385.7754 99.554586 
L 385.542738 99.412241 
L 385.513171 99.392796 
L 385.310076 99.240218 
L 385.210263 99.159972 
L 385.077415 99.035514 
L 384.968849 98.927149 
L 384.844753 98.778867 
L 384.778086 98.694325 
L 384.630503 98.461502 
L 384.612092 98.423153 
L 384.52379 98.228679 
L 384.451783 97.995855 
L 384.413301 97.763032 
L 384.408183 97.530209 
L 384.436299 97.297385 
L 384.497547 97.064562 
L 384.591858 96.831739 
L 384.612092 96.794718 
L 384.72526 96.598915 
L 384.844753 96.434665 
L 384.897693 96.366092 
L 385.077415 96.17289 
L 385.11668 96.133268 
L 385.310076 95.966393 
L 385.391858 95.900445 
L 385.542738 95.794119 
L 385.735774 95.667622 
L 385.7754 95.64455 
L 386.008061 95.519221 
L 386.178633 95.434798 
L 386.240723 95.407134 
L 386.473384 95.312555 
L 386.706046 95.227093 
L 386.782527 95.201975 
L 386.938707 95.155302 
L 387.171369 95.094003 
L 387.404031 95.040924 
L 387.636692 94.996045 
L 387.80719 94.969152 
L 387.869354 94.960149 
L 388.102015 94.93395 
L 388.334677 94.915244 
L 388.567338 94.904023 
L 388.8 94.900283 
" style="fill:none;stroke:#fde725;stroke-width:1.5;"/>
    <path clip-path="url(#p298dbf7d03)" d="M 217.036332 189.262615 
L 217.00895 189.029791 
L 217.013934 188.796968 
L 217.051412 188.564145 
L 217.095761 188.416886 
L 217.12296 188.331321 
L 217.231598 188.098498 
L 217.328423 187.941377 
L 217.377838 187.865675 
L 217.561084 187.640033 
L 217.567285 187.632851 
L 217.793746 187.413747 
L 217.808884 187.400028 
L 218.026407 187.230852 
L 218.114187 187.167204 
L 218.259069 187.075238 
L 218.49173 186.938281 
L 218.498912 186.934381 
L 218.724392 186.825532 
L 218.957054 186.722724 
L 219.009784 186.701558 
L 219.189715 186.636553 
L 219.422377 186.560983 
L 219.655038 186.493882 
L 219.754754 186.468734 
L 219.8877 186.438253 
L 220.120361 186.392557 
L 220.353023 186.354504 
L 220.585685 186.324079 
L 220.818346 186.30127 
L 221.051008 186.286069 
L 221.283669 186.27847 
L 221.516331 186.27847 
L 221.748992 186.286069 
L 221.981654 186.30127 
L 222.214315 186.324079 
L 222.446977 186.354504 
L 222.679639 186.392557 
L 222.9123 186.438253 
L 223.045246 186.468734 
L 223.144962 186.493882 
L 223.377623 186.560983 
L 223.610285 186.636553 
L 223.790216 186.701558 
L 223.842946 186.722724 
L 224.075608 186.825532 
L 224.301088 186.934381 
L 224.30827 186.938281 
L 224.540931 187.075238 
L 224.685813 187.167204 
L 224.773593 187.230852 
L 224.991116 187.400028 
L 225.006254 187.413747 
L 225.232715 187.632851 
L 225.238916 187.640033 
L 225.422162 187.865675 
L 225.471577 187.941377 
L 225.568402 188.098498 
L 225.67704 188.331321 
L 225.704239 188.416886 
L 225.748588 188.564145 
L 225.786066 188.796968 
L 225.79105 189.029791 
L 225.763668 189.262615 
L 225.704239 189.494573 
L 225.704005 189.495438 
L 225.607097 189.728261 
L 225.476257 189.961085 
L 225.471577 189.967703 
L 225.302155 190.193908 
L 225.238916 190.263979 
L 225.082734 190.426732 
L 225.006254 190.494878 
L 224.808925 190.659555 
L 224.773593 190.685322 
L 224.540931 190.843544 
L 224.463516 190.892378 
L 224.30827 190.979393 
L 224.075608 191.099615 
L 224.021544 191.125202 
L 223.842946 191.201297 
L 223.610285 191.291313 
L 223.418489 191.358025 
L 223.377623 191.370958 
L 223.144962 191.436377 
L 222.9123 191.493563 
L 222.679639 191.542539 
L 222.446977 191.583325 
L 222.393309 191.590848 
L 222.214315 191.613887 
L 221.981654 191.636339 
L 221.748992 191.651302 
L 221.516331 191.658782 
L 221.283669 191.658782 
L 221.051008 191.651302 
L 220.818346 191.636339 
L 220.585685 191.613887 
L 220.406691 191.590848 
L 220.353023 191.583325 
L 220.120361 191.542539 
L 219.8877 191.493563 
L 219.655038 191.436377 
L 219.422377 191.370958 
L 219.381511 191.358025 
L 219.189715 191.291313 
L 218.957054 191.201297 
L 218.778456 191.125202 
L 218.724392 191.099615 
L 218.49173 190.979393 
L 218.336484 190.892378 
L 218.259069 190.843544 
L 218.026407 190.685322 
L 217.991075 190.659555 
L 217.793746 190.494878 
L 217.717266 190.426732 
L 217.561084 190.263979 
L 217.497845 190.193908 
L 217.328423 189.967703 
L 217.323743 189.961085 
L 217.192903 189.728261 
L 217.095995 189.495438 
L 217.095761 189.494573 
L 217.036332 189.262615 
" style="fill:none;stroke:#fde725;stroke-width:1.5;"/>
    <path clip-path="url(#p298dbf7d03)" d="M 217.051412 97.995855 
L 217.013934 97.763032 
L 217.00895 97.530209 
L 217.036332 97.297385 
L 217.095761 97.065427 
L 217.095995 97.064562 
L 217.192903 96.831739 
L 217.323743 96.598915 
L 217.328423 96.592297 
L 217.497845 96.366092 
L 217.561084 96.296021 
L 217.717266 96.133268 
L 217.793746 96.065122 
L 217.991075 95.900445 
L 218.026407 95.874678 
L 218.259069 95.716456 
L 218.336484 95.667622 
L 218.49173 95.580607 
L 218.724392 95.460385 
L 218.778456 95.434798 
L 218.957054 95.358703 
L 219.189715 95.268687 
L 219.381511 95.201975 
L 219.422377 95.189042 
L 219.655038 95.123623 
L 219.8877 95.066437 
L 220.120361 95.017461 
L 220.353023 94.976675 
L 220.406691 94.969152 
L 220.585685 94.946113 
L 220.818346 94.923661 
L 221.051008 94.908698 
L 221.283669 94.901218 
L 221.516331 94.901218 
L 221.748992 94.908698 
L 221.981654 94.923661 
L 222.214315 94.946113 
L 222.393309 94.969152 
L 222.446977 94.976675 
L 222.679639 95.017461 
L 222.9123 95.066437 
L 223.144962 95.123623 
L 223.377623 95.189042 
L 223.418489 95.201975 
L 223.610285 95.268687 
L 223.842946 95.358703 
L 224.021544 95.434798 
L 224.075608 95.460385 
L 224.30827 95.580607 
L 224.463516 95.667622 
L 224.540931 95.716456 
L 224.773593 95.874678 
L 224.808925 95.900445 
L 225.006254 96.065122 
L 225.082734 96.133268 
L 225.238916 96.296021 
L 225.302155 96.366092 
L 225.471577 96.592297 
L 225.476257 96.598915 
L 225.607097 96.831739 
L 225.704005 97.064562 
L 225.704239 97.065427 
L 225.763668 97.297385 
L 225.79105 97.530209 
L 225.786066 97.763032 
L 225.748588 97.995855 
L 225.704239 98.143114 
L 225.67704 98.228679 
L 225.568402 98.461502 
L 225.471577 98.618623 
L 225.422162 98.694325 
L 225.238916 98.919967 
L 225.232715 98.927149 
L 225.006254 99.146253 
L 224.991116 99.159972 
L 224.773593 99.329148 
L 224.685813 99.392796 
L 224.540931 99.484762 
L 224.30827 99.621719 
L 224.301088 99.625619 
L 224.075608 99.734468 
L 223.842946 99.837276 
L 223.790216 99.858442 
L 223.610285 99.923447 
L 223.377623 99.999017 
L 223.144962 100.066118 
L 223.045246 100.091266 
L 222.9123 100.121747 
L 222.679639 100.167443 
L 222.446977 100.205496 
L 222.214315 100.235921 
L 221.981654 100.25873 
L 221.748992 100.273931 
L 221.516331 100.28153 
L 221.283669 100.28153 
L 221.051008 100.273931 
L 220.818346 100.25873 
L 220.585685 100.235921 
L 220.353023 100.205496 
L 220.120361 100.167443 
L 219.8877 100.121747 
L 219.754754 100.091266 
L 219.655038 100.066118 
L 219.422377 99.999017 
L 219.189715 99.923447 
L 219.009784 99.858442 
L 218.957054 99.837276 
L 218.724392 99.734468 
L 218.498912 99.625619 
L 218.49173 99.621719 
L 218.259069 99.484762 
L 218.114187 99.392796 
L 218.026407 99.329148 
L 217.808884 99.159972 
L 217.793746 99.146253 
L 217.567285 98.927149 
L 217.561084 98.919967 
L 217.377838 98.694325 
L 217.328423 98.618623 
L 217.231598 98.461502 
L 217.12296 98.228679 
L 217.095761 98.143114 
L 217.051412 97.995855 
" style="fill:none;stroke:#fde725;stroke-width:1.5;"/>
   </g>
   <g id="line2d_1">
    <path clip-path="url(#p298dbf7d03)" d="M 54 195.36 
L 388.8 195.36 
" style="fill:none;stroke:#ff0000;stroke-linecap:square;stroke-width:1.5;"/>
   </g>
   <g id="line2d_2">
    <path clip-path="url(#p298dbf7d03)" d="M 54 91.2 
L 388.8 91.2 
" style="fill:none;stroke:#ff0000;stroke-linecap:square;stroke-width:1.5;"/>
   </g>
   <g id="patch_3">
    <path d="M 54 252 
L 54 34.56 
" style="fill:none;stroke:#000000;stroke-linecap:square;stroke-linejoin:miter;stroke-width:0.8;"/>
   </g>
   <g id="patch_4">
    <path d="M 388.8 252 
L 388.8 34.56 
" style="fill:none;stroke:#000000;stroke-linecap:square;stroke-linejoin:miter;stroke-width:0.8;"/>
   </g>
   <g id="patch_5">
    <path d="M 54 252 
L 388.8 252 
" style="fill:none;stroke:#000000;stroke-linecap:square;stroke-linejoin:miter;stroke-width:0.8;"/>
   </g>
   <g id="patch_6">
    <path d="M 54 34.56 
L 388.8 34.56 
" style="fill:none;stroke:#000000;stroke-linecap:square;stroke-linejoin:miter;stroke-width:0.8;"/>
   </g>
  </g>
 </g>
 <defs>
  <clipPath id="p298dbf7d03">
   <rect height="217.44" width="334.8" x="54" y="34.56"/>
  </clipPath>
 </defs>
</svg>
