<?xml version="1.0" encoding="utf-8" standalone="no"?>
<!DOCTYPE svg PUBLIC "-//W3C//DTD SVG 1.1//EN"
  "http://www.w3.org/Graphics/SVG/1.1/DTD/svg11.dtd">
<!-- Created with matplotlib (http://matplotlib.org/) -->
<svg height="288pt" version="1.1" viewBox="0 0 432 288" width="432pt" xmlns="http://www.w3.org/2000/svg" xmlns:xlink="http://www.w3.org/1999/xlink">
 <defs>
  <style type="text/css">
*{stroke-linecap:butt;stroke-linejoin:round;}
  </style>
 </defs>
 <g id="figure_1">
  <g id="patch_1">
   <path d="M 0 288 
L 432 288 
L 432 0 
L 0 0 
z
" style="fill:#ffffff;"/>
  </g>
  <g id="axes_1">
   <g id="patch_2">
    <path d="M 54 252 
L 388.8 252 
L 388.8 34.56 
L 54 34.56 
z
" style="fill:#ffffff;"/>
   </g>
   <g id="matplotlib.axis_1"/>
   <g id="matplotlib.axis_2"/>
   <g id="LineCollection_1">
    <path clip-path="url(#pd56a403e29)" d="M 54 73.539462 
L 388.8 73.539462 
L 388.8 73.539462 
" style="fill:none;stroke:#440154;stroke-width:1.5;"/>
   </g>
   <g id="LineCollection_2">
    <path clip-path="url(#pd56a403e29)" d="M 54 81.893746 
L 388.8 81.893746 
L 388.8 81.893746 
" style="fill:none;stroke:#443983;stroke-width:1.5;"/>
   </g>
   <g id="LineCollection_3">
    <path clip-path="url(#pd56a403e29)" d="M 54 181.820353 
L 388.8 181.820353 
L 388.8 181.820353 
" style="fill:none;stroke:#31688e;stroke-width:1.5;"/>
    <path clip-path="url(#pd56a403e29)" d="M 54 88.945532 
L 388.8 88.945532 
L 388.8 88.945532 
" style="fill:none;stroke:#31688e;stroke-width:1.5;"/>
    <path clip-path="url(#pd56a403e29)" d="M 388.8 153.471521 
L 54 153.471521 
L 54 153.471521 
" style="fill:none;stroke:#31688e;stroke-width:1.5;"/>
   </g>
   <g id="LineCollection_4">
    <path clip-path="url(#pd56a403e29)" d="M 54 190.494558 
L 388.8 190.494558 
L 388.8 190.494558 
" style="fill:none;stroke:#21918c;stroke-width:1.5;"/>
    <path clip-path="url(#pd56a403e29)" d="M 54 96.065442 
L 388.8 96.065442 
L 388.8 96.065442 
" style="fill:none;stroke:#21918c;stroke-width:1.5;"/>
    <path clip-path="url(#pd56a403e29)" d="M 388.8 143.28 
L 54 143.28 
L 54 143.28 
" style="fill:none;stroke:#21918c;stroke-width:1.5;"/>
   </g>
   <g id="LineCollection_5">
    <path clip-path="url(#pd56a403e29)" d="M 54 197.614468 
L 388.8 197.614468 
L 388.8 197.614468 
" style="fill:none;stroke:#35b779;stroke-width:1.5;"/>
    <path clip-path="url(#pd56a403e29)" d="M 54 104.739647 
L 388.8 104.739647 
L 388.8 104.739647 
" style="fill:none;stroke:#35b779;stroke-width:1.5;"/>
    <path clip-path="url(#pd56a403e29)" d="M 388.8 133.088479 
L 54 133.088479 
L 54 133.088479 
" style="fill:none;stroke:#35b779;stroke-width:1.5;"/>
   </g>
   <g id="LineCollection_6">
    <path clip-path="url(#pd56a403e29)" d="M 54 204.666254 
L 388.8 204.666254 
L 388.8 204.666254 
" style="fill:none;stroke:#90d743;stroke-width:1.5;"/>
   </g>
   <g id="LineCollection_7">
    <path clip-path="url(#pd56a403e29)" d="M 54 213.020538 
L 388.8 213.020538 
L 388.8 213.020538 
" style="fill:none;stroke:#fde725;stroke-width:1.5;"/>
   </g>
   <g id="line2d_1">
    <path clip-path="url(#pd56a403e29)" d="M 54 195.36 
L 388.8 195.36 
" style="fill:none;stroke:#ff0000;stroke-linecap:square;stroke-width:1.5;"/>
   </g>
   <g id="line2d_2">
    <path clip-path="url(#pd56a403e29)" d="M 54 91.2 
L 388.8 91.2 
" style="fill:none;stroke:#ff0000;stroke-linecap:square;stroke-width:1.5;"/>
   </g>
   <g id="patch_3">
    <path d="M 54 252 
L 54 34.56 
" style="fill:none;stroke:#000000;stroke-linecap:square;stroke-linejoin:miter;stroke-width:0.8;"/>
   </g>
   <g id="patch_4">
    <path d="M 388.8 252 
L 388.8 34.56 
" style="fill:none;stroke:#000000;stroke-linecap:square;stroke-linejoin:miter;stroke-width:0.8;"/>
   </g>
   <g id="patch_5">
    <path d="M 54 252 
L 388.8 252 
" style="fill:none;stroke:#000000;stroke-linecap:square;stroke-linejoin:miter;stroke-width:0.8;"/>
   </g>
   <g id="patch_6">
    <path d="M 54 34.56 
L 388.8 34.56 
" style="fill:none;stroke:#000000;stroke-linecap:square;stroke-linejoin:miter;stroke-width:0.8;"/>
   </g>
  </g>
 </g>
 <defs>
  <clipPath id="pd56a403e29">
   <rect height="217.44" width="334.8" x="54" y="34.56"/>
  </clipPath>
 </defs>
</svg>
