<?xml version="1.0" encoding="utf-8" standalone="no"?>
<!DOCTYPE svg PUBLIC "-//W3C//DTD SVG 1.1//EN"
  "http://www.w3.org/Graphics/SVG/1.1/DTD/svg11.dtd">
<!-- Created with matplotlib (http://matplotlib.org/) -->
<svg height="288pt" version="1.1" viewBox="0 0 432 288" width="432pt" xmlns="http://www.w3.org/2000/svg" xmlns:xlink="http://www.w3.org/1999/xlink">
 <defs>
  <style type="text/css">
*{stroke-linecap:butt;stroke-linejoin:round;}
  </style>
 </defs>
 <g id="figure_1">
  <g id="patch_1">
   <path d="M 0 288 
L 432 288 
L 432 0 
L 0 0 
z
" style="fill:#ffffff;"/>
  </g>
  <g id="axes_1">
   <g id="patch_2">
    <path d="M 54 252 
L 388.8 252 
L 388.8 34.56 
L 54 34.56 
z
" style="fill:#ffffff;"/>
   </g>
   <g id="matplotlib.axis_1"/>
   <g id="matplotlib.axis_2"/>
   <g id="LineCollection_1">
    <path clip-path="url(#p02905cd28b)" d="M 54 89.806338 
L 59.118555 89.696888 
L 64.004448 89.377502 
L 68.425017 88.872952 
L 72.380264 88.196656 
L 75.637526 87.410903 
L 78.196803 86.571583 
L 80.290757 85.634845 
L 81.754471 84.724924 
L 82.781726 83.79363 
L 83.315358 83.026092 
L 83.563715 82.39669 
L 83.640126 81.69822 
L 83.511479 80.99975 
L 83.082696 80.170955 
L 82.612505 79.602809 
L 81.686727 78.815268 
L 80.523419 78.088813 
L 78.794684 77.274576 
L 76.568172 76.488486 
L 73.776233 75.747334 
L 70.518972 75.106629 
L 66.563725 74.553608 
L 62.143155 74.152439 
L 57.0246 73.916565 
L 54 73.879769 
L 54 73.879769 
" style="fill:none;stroke:#440154;stroke-width:1.5;"/>
    <path clip-path="url(#p02905cd28b)" d="M 388.8 73.879769 
L 383.448784 73.995279 
L 378.562891 74.317308 
L 374.142321 74.820262 
L 370.419736 75.447795 
L 367.162474 76.216734 
L 364.599555 77.041752 
L 362.489817 77.973046 
L 360.989499 78.904339 
L 359.97513 79.835633 
L 359.484642 80.545837 
L 359.222623 81.232573 
L 359.16263 81.931043 
L 359.307616 82.629513 
L 359.717304 83.406749 
L 360.415288 84.200216 
L 361.345935 84.938593 
L 362.548868 85.656217 
L 364.370535 86.480273 
L 366.727499 87.285981 
L 369.721751 88.04842 
L 373.211675 88.699608 
L 377.399583 89.241919 
L 382.052814 89.615615 
L 387.171369 89.795295 
L 388.8 89.806338 
L 388.8 89.806338 
" style="fill:none;stroke:#440154;stroke-width:1.5;"/>
    <path clip-path="url(#p02905cd28b)" d="M 191.888597 205.56025 
L 192.227235 206.25872 
L 192.898958 207.066085 
L 193.829604 207.827756 
L 195.089974 208.586954 
L 196.854204 209.38395 
L 199.18082 210.177201 
L 201.740097 210.839284 
L 204.997359 211.472698 
L 208.952606 212.019719 
L 213.373176 212.415476 
L 218.49173 212.646214 
L 223.842946 212.656238 
L 228.961501 212.445959 
L 233.847394 212.019719 
L 238.035302 211.433886 
L 241.525226 210.731636 
L 244.317165 209.962754 
L 246.742135 209.052601 
L 248.52724 208.121307 
L 249.773138 207.190014 
L 250.411355 206.491544 
L 250.831689 205.768948 
L 251.020195 205.094604 
L 251.011921 204.396134 
L 250.798051 203.697663 
L 250.366366 202.9914 
L 249.668381 202.253474 
L 248.505073 201.393171 
L 247.188835 200.67096 
L 245.247811 199.859018 
L 242.921195 199.116243 
L 240.129256 198.436622 
L 236.639333 197.806783 
L 232.451425 197.28241 
L 227.798193 196.925049 
L 222.679639 196.760478 
L 217.561084 196.815124 
L 212.44253 197.095338 
L 208.02196 197.546783 
L 204.066713 198.159523 
L 200.576789 198.928206 
L 197.882469 199.739666 
L 195.611165 200.67096 
L 193.973334 201.602253 
L 192.834632 202.533547 
L 192.200973 203.330999 
L 191.907624 203.930487 
L 191.762521 204.628957 
L 191.822724 205.327427 
L 191.888597 205.56025 
L 191.888597 205.56025 
" style="fill:none;stroke:#440154;stroke-width:1.5;"/>
   </g>
   <g id="LineCollection_2">
    <path clip-path="url(#p02905cd28b)" d="M 54 169.522778 
L 59.583878 169.414535 
L 64.935094 169.092496 
L 69.588325 168.599469 
L 73.31091 168.009519 
L 76.568172 167.279555 
L 79.12745 166.47624 
L 80.808753 165.747455 
L 82.15205 164.919793 
L 82.850035 164.285601 
L 83.315358 163.600223 
L 83.500447 162.953574 
L 83.427304 162.255104 
L 83.071754 161.556634 
L 82.384712 160.830176 
L 81.440185 160.159694 
L 79.825434 159.349943 
L 77.964142 158.663181 
L 75.404864 157.954932 
L 72.147603 157.293037 
L 68.192356 156.723704 
L 63.771786 156.301687 
L 58.653231 156.028482 
L 54 155.950932 
L 54 155.950932 
" style="fill:none;stroke:#443983;stroke-width:1.5;"/>
    <path clip-path="url(#p02905cd28b)" d="M 54 95.894127 
L 61.677832 95.785997 
L 69.123002 95.461816 
L 75.637526 94.966117 
L 81.454065 94.305887 
L 86.339958 93.534717 
L 90.569761 92.640918 
L 94.01779 91.686974 
L 96.809729 90.695972 
L 99.199441 89.614214 
L 101.193278 88.450097 
L 102.722665 87.285981 
L 103.876219 86.121864 
L 104.720222 84.943744 
L 105.268337 83.79363 
L 105.568008 82.629513 
L 105.622508 81.465396 
L 105.418207 80.251851 
L 104.988593 79.137163 
L 104.254899 77.954318 
L 103.238543 76.808929 
L 101.928284 75.709452 
L 100.402458 74.713519 
L 98.43836 73.702935 
L 96.111744 72.755452 
L 93.319805 71.855261 
L 89.829882 70.976084 
L 85.641974 70.169907 
L 80.756081 69.467063 
L 74.939541 68.867538 
L 68.192356 68.408868 
L 60.747186 68.130303 
L 54 68.052067 
L 54 68.052067 
" style="fill:none;stroke:#443983;stroke-width:1.5;"/>
    <path clip-path="url(#p02905cd28b)" d="M 388.8 155.950932 
L 383.216122 156.063003 
L 377.864906 156.393958 
L 373.210562 156.900167 
L 369.256428 157.550478 
L 366.231828 158.25039 
L 363.865721 158.995577 
L 362.043919 159.782803 
L 360.880612 160.473588 
L 360.129034 161.090987 
L 359.577819 161.789458 
L 359.317231 162.487928 
L 359.337399 163.186398 
L 359.640346 163.884868 
L 360.24066 164.583338 
L 361.167884 165.281808 
L 362.741904 166.099386 
L 364.603197 166.800043 
L 367.162474 167.514549 
L 370.187074 168.136788 
L 374.142321 168.717039 
L 378.562891 169.147941 
L 383.681445 169.432156 
L 388.8 169.522778 
L 388.8 169.522778 
" style="fill:none;stroke:#443983;stroke-width:1.5;"/>
    <path clip-path="url(#p02905cd28b)" d="M 388.8 68.052067 
L 380.656845 68.166376 
L 373.211675 68.486299 
L 366.464489 68.992099 
L 360.64795 69.646301 
L 355.762057 70.414242 
L 351.80681 71.244425 
L 348.316887 72.204664 
L 345.524948 73.201836 
L 343.243992 74.247872 
L 341.33704 75.379992 
L 340.072528 76.343282 
L 338.903115 77.507399 
L 338.064437 78.671516 
L 337.513668 79.835633 
L 337.223879 80.99975 
L 337.181019 82.163866 
L 337.381807 83.327983 
L 337.847116 84.518551 
L 338.553734 85.656217 
L 339.574614 86.820334 
L 340.945054 87.984451 
L 342.500347 89.009033 
L 344.556577 90.079861 
L 346.920917 91.053542 
L 349.945518 92.036482 
L 353.435441 92.921761 
L 357.62335 93.740153 
L 362.509243 94.457542 
L 368.09312 95.050777 
L 374.607644 95.515227 
L 381.820153 95.804898 
L 388.8 95.894127 
L 388.8 95.894127 
" style="fill:none;stroke:#443983;stroke-width:1.5;"/>
    <path clip-path="url(#p02905cd28b)" d="M 169.861719 205.793074 
L 170.202295 206.957191 
L 170.808022 208.121307 
L 171.726755 209.304703 
L 172.951384 210.449541 
L 174.518694 211.557984 
L 176.303361 212.544951 
L 178.47394 213.497787 
L 181.265879 214.463656 
L 184.523141 215.343564 
L 188.478388 216.166983 
L 193.131619 216.897985 
L 198.482835 217.512737 
L 204.764698 218.009958 
L 211.977206 218.354233 
L 219.8877 218.504027 
L 228.030855 218.432389 
L 235.708687 218.145048 
L 242.636625 217.667065 
L 248.505073 217.049587 
L 253.390966 216.331172 
L 257.578874 215.505438 
L 261.068798 214.603486 
L 264.093398 213.587527 
L 266.496639 212.544951 
L 268.513968 211.410989 
L 269.909937 210.39876 
L 271.091259 209.285424 
L 272.003892 208.102103 
L 272.597705 206.957191 
L 272.938281 205.793074 
L 273.029822 204.628957 
L 272.877973 203.46484 
L 272.469215 202.282815 
L 271.77123 201.077868 
L 270.840584 199.957067 
L 269.560127 198.808373 
L 268.048645 197.761289 
L 266.134045 196.712962 
L 263.860737 195.726312 
L 261.068798 194.765016 
L 257.811536 193.88105 
L 253.856289 193.046775 
L 249.203058 192.301669 
L 243.851842 191.672762 
L 237.569979 191.163297 
L 230.590132 190.821382 
L 222.9123 190.670034 
L 215.001807 190.740764 
L 207.556637 191.025725 
L 200.809451 191.498978 
L 194.992912 192.117192 
L 189.874357 192.879999 
L 185.686449 193.717169 
L 182.196525 194.624726 
L 179.171925 195.637146 
L 176.665955 196.712962 
L 174.751355 197.761289 
L 173.122724 198.902152 
L 171.944291 199.97249 
L 170.986893 201.136606 
L 170.322284 202.300723 
L 169.922027 203.46484 
L 169.770178 204.628957 
L 169.861719 205.793074 
L 169.861719 205.793074 
" style="fill:none;stroke:#443983;stroke-width:1.5;"/>
    <path clip-path="url(#p02905cd28b)" d="M 191.917206 124.072072 
L 192.200973 124.806772 
L 192.72905 125.469013 
L 193.596942 126.168944 
L 194.992912 126.948972 
L 196.854204 127.702053 
L 199.18082 128.401989 
L 202.20542 129.076831 
L 205.928006 129.675395 
L 210.581237 130.175767 
L 215.699792 130.492233 
L 221.283669 130.609021 
L 226.867547 130.501661 
L 232.218763 130.175767 
L 236.871994 129.675395 
L 240.59458 129.076831 
L 243.851842 128.340614 
L 246.334198 127.564423 
L 248.272411 126.717077 
L 249.435719 126.00321 
L 250.133704 125.402205 
L 250.622306 124.770542 
L 250.882794 124.072072 
L 250.862697 123.373602 
L 250.559721 122.675132 
L 249.901042 121.926111 
L 248.970396 121.240883 
L 247.574427 120.511724 
L 245.713134 119.798096 
L 243.153857 119.073547 
L 239.896595 118.403 
L 235.941348 117.828841 
L 231.520778 117.403196 
L 226.402224 117.123682 
L 220.818346 117.038371 
L 215.234468 117.169688 
L 209.883252 117.516704 
L 205.374597 118.018665 
L 201.507436 118.663249 
L 198.482835 119.374642 
L 196.15622 120.127181 
L 194.294927 120.970914 
L 193.364281 121.552598 
L 192.606038 122.209485 
L 192.107327 122.907955 
L 191.89959 123.606426 
L 191.917206 124.072072 
L 191.917206 124.072072 
" style="fill:none;stroke:#443983;stroke-width:1.5;"/>
   </g>
   <g id="LineCollection_3">
    <path clip-path="url(#p02905cd28b)" d="M 54 176.356449 
L 64.702432 176.244818 
L 74.474218 175.924223 
L 82.617373 175.444595 
L 89.402335 174.827566 
L 94.948436 174.09661 
L 99.369006 173.286817 
L 102.85893 172.426098 
L 105.650869 171.519233 
L 107.977484 170.531235 
L 109.838777 169.498432 
L 111.234746 168.488046 
L 112.398054 167.374634 
L 113.272426 166.213102 
L 113.859451 165.048985 
L 114.193138 163.884868 
L 114.293606 162.720751 
L 114.167828 161.556634 
L 113.794024 160.353019 
L 113.205398 159.228401 
L 112.318689 158.064284 
L 111.0982 156.900167 
L 109.606115 155.826997 
L 107.977484 154.909039 
L 105.88353 153.973906 
L 103.324253 153.076667 
L 100.282237 152.2437 
L 96.344406 151.418571 
L 91.691174 150.688594 
L 86.107297 150.048017 
L 79.360111 149.505708 
L 71.449618 149.093357 
L 62.143155 148.831548 
L 54 148.762173 
L 54 148.762173 
" style="fill:none;stroke:#31688e;stroke-width:1.5;"/>
    <path clip-path="url(#p02905cd28b)" d="M 54 100.68308 
L 65.633079 100.571793 
L 76.102849 100.258059 
L 84.943989 99.781082 
L 92.156498 99.178963 
L 97.973037 98.479975 
L 102.626268 97.711011 
L 106.593793 96.831739 
L 109.838777 95.881092 
L 112.398054 94.911206 
L 114.673696 93.805035 
L 116.537543 92.640918 
L 118.002339 91.476801 
L 119.366213 90.079861 
L 120.400932 88.682921 
L 121.239194 87.151927 
L 121.816318 85.656217 
L 122.212895 84.026453 
L 122.393005 82.39669 
L 122.367167 80.766926 
L 122.131887 79.137163 
L 121.668759 77.507399 
L 121.006532 76.002067 
L 120.225644 74.713519 
L 119.097895 73.316579 
L 117.74927 72.050234 
L 116.304095 70.988345 
L 114.492008 69.93706 
L 112.398054 68.980305 
L 109.838777 68.064304 
L 106.814177 67.224844 
L 103.091591 66.435364 
L 98.671022 65.731374 
L 93.319805 65.104699 
L 86.57262 64.546486 
L 78.196803 64.088981 
L 68.192356 63.770026 
L 56.559277 63.622884 
L 54 63.618084 
L 54 63.618084 
" style="fill:none;stroke:#31688e;stroke-width:1.5;"/>
    <path clip-path="url(#p02905cd28b)" d="M 388.8 148.762173 
L 378.562891 148.872442 
L 369.023767 149.193893 
L 360.935596 149.682643 
L 354.366088 150.289561 
L 349.014871 150.990361 
L 344.594302 151.779391 
L 340.871716 152.668422 
L 338.079778 153.538642 
L 335.753162 154.465624 
L 333.72541 155.503227 
L 332.263238 156.462341 
L 330.925647 157.598637 
L 329.913085 158.762754 
L 329.199968 159.926871 
L 328.746475 161.090987 
L 328.529521 162.255104 
L 328.540653 163.429945 
L 328.778073 164.583338 
L 329.26043 165.747455 
L 330.015678 166.911572 
L 331.099931 168.082509 
L 332.4959 169.189948 
L 333.891869 170.049198 
L 335.753162 170.958695 
L 338.079778 171.849146 
L 341.104378 172.741247 
L 344.826963 173.570496 
L 349.014871 174.271697 
L 354.133426 174.906684 
L 360.64795 175.47875 
L 368.325782 175.924223 
L 377.632245 176.234715 
L 388.102015 176.355982 
L 388.8 176.356449 
L 388.8 176.356449 
" style="fill:none;stroke:#31688e;stroke-width:1.5;"/>
    <path clip-path="url(#p02905cd28b)" d="M 388.8 63.618084 
L 376.701598 63.727588 
L 365.766505 64.040781 
L 356.692703 64.515104 
L 349.480195 65.104699 
L 343.663655 65.796188 
L 339.010424 66.567058 
L 335.287839 67.400079 
L 332.263238 68.292015 
L 329.703961 69.2745 
L 327.610007 70.312329 
L 325.820796 71.453992 
L 324.352745 72.663882 
L 323.097248 74.015049 
L 322.123546 75.411989 
L 321.407809 76.808929 
L 320.837027 78.438693 
L 320.50733 80.068456 
L 320.392959 81.69822 
L 320.484374 83.327983 
L 320.785928 84.957747 
L 321.328145 86.615018 
L 322.026129 88.062502 
L 322.956776 89.483046 
L 324.068939 90.778331 
L 325.34272 91.942448 
L 326.953281 93.106565 
L 328.773315 94.148704 
L 330.867269 95.105877 
L 333.426546 96.033767 
L 336.451147 96.893673 
L 340.173732 97.711011 
L 344.697259 98.461502 
L 350.178179 99.131243 
L 356.692703 99.699239 
L 364.835858 100.176378 
L 374.607644 100.515688 
L 385.7754 100.675696 
L 388.8 100.68308 
L 388.8 100.68308 
" style="fill:none;stroke:#31688e;stroke-width:1.5;"/>
    <path clip-path="url(#p02905cd28b)" d="M 153.107297 206.491544 
L 153.437049 208.121307 
L 154.007794 209.751071 
L 154.74246 211.179147 
L 155.697222 212.544951 
L 156.836414 213.785508 
L 158.232384 214.966647 
L 159.861015 216.046911 
L 161.954969 217.129757 
L 164.281584 218.06644 
L 167.073523 218.942439 
L 170.470091 219.762476 
L 174.518694 220.50261 
L 179.637248 221.194118 
L 185.91911 221.798405 
L 193.596942 222.299818 
L 202.903405 222.677666 
L 214.071161 222.902283 
L 226.402224 222.923531 
L 238.267964 222.724224 
L 248.505073 222.335766 
L 256.648228 221.81695 
L 263.162752 221.194118 
L 268.513968 220.465578 
L 272.701876 219.682747 
L 276.1918 218.811466 
L 278.983739 217.896988 
L 281.310354 216.912269 
L 283.339535 215.804478 
L 284.989434 214.640362 
L 286.275986 213.476245 
L 287.459798 212.079305 
L 288.340967 210.682364 
L 288.988186 209.269282 
L 289.480316 207.655661 
L 289.746628 206.025897 
L 289.801823 204.396134 
L 289.651476 202.76637 
L 289.287036 201.136606 
L 288.684678 199.506843 
L 287.94674 198.109903 
L 286.894232 196.63397 
L 285.656476 195.316022 
L 284.258759 194.151905 
L 282.473662 192.981505 
L 280.379708 191.90583 
L 278.053092 190.962451 
L 275.261154 190.069709 
L 272.003892 189.255572 
L 267.815983 188.455003 
L 262.93009 187.757408 
L 256.88089 187.129532 
L 249.435719 186.595577 
L 240.59458 186.191286 
L 230.124809 185.938969 
L 218.49173 185.883746 
L 207.091313 186.047157 
L 196.854204 186.41099 
L 188.478388 186.921136 
L 181.731202 187.540853 
L 176.147325 188.269278 
L 171.726755 189.057186 
L 167.927734 189.961085 
L 164.942037 190.892378 
L 162.420292 191.90583 
L 160.31546 192.987789 
L 158.465045 194.209126 
L 157.069076 195.386756 
L 155.840777 196.712962 
L 154.85326 198.109903 
L 154.044475 199.668146 
L 153.512964 201.136606 
L 153.148524 202.76637 
L 152.998177 204.396134 
L 153.053372 206.025897 
L 153.107297 206.491544 
L 153.107297 206.491544 
" style="fill:none;stroke:#31688e;stroke-width:1.5;"/>
    <path clip-path="url(#p02905cd28b)" d="M 161.232137 125.003366 
L 161.589063 126.167483 
L 162.194546 127.331599 
L 163.118277 128.536053 
L 164.301755 129.659833 
L 165.677554 130.65886 
L 167.538846 131.709432 
L 169.632801 132.63213 
L 172.192078 133.519247 
L 175.216678 134.339933 
L 179.171925 135.162532 
L 183.825156 135.88709 
L 189.409034 136.52322 
L 196.15622 137.061931 
L 204.299375 137.480428 
L 213.605837 137.734323 
L 223.842946 137.791638 
L 234.080056 137.627228 
L 243.153857 137.267531 
L 250.831689 136.752448 
L 257.113551 136.122937 
L 262.464767 135.3645 
L 266.680913 134.549124 
L 270.283997 133.61783 
L 273.167199 132.63213 
L 275.493815 131.592 
L 277.22776 130.591127 
L 278.772447 129.42701 
L 279.920755 128.262893 
L 280.747713 127.098776 
L 281.310354 125.909259 
L 281.611147 124.770542 
L 281.691638 123.606426 
L 281.543016 122.431939 
L 281.163206 121.278192 
L 280.521752 120.114075 
L 279.580989 118.949958 
L 278.518416 117.976733 
L 277.122446 116.988744 
L 275.493815 116.085664 
L 273.399861 115.172925 
L 270.808168 114.293491 
L 267.583322 113.452988 
L 263.860737 112.712676 
L 259.207505 112.018732 
L 253.623628 111.412995 
L 246.64378 110.888221 
L 238.267964 110.489837 
L 228.496178 110.252162 
L 217.793746 110.216037 
L 207.323975 110.399829 
L 198.017512 110.780697 
L 190.33968 111.309979 
L 184.013635 111.965257 
L 178.939263 112.712676 
L 174.984017 113.506477 
L 171.726755 114.374191 
L 169.167477 115.263716 
L 167.073523 116.20217 
L 165.212231 117.290442 
L 163.952523 118.251488 
L 162.803328 119.415605 
L 161.954969 120.640267 
L 161.454376 121.743839 
L 161.168522 122.907955 
L 161.113488 124.072072 
L 161.232137 125.003366 
L 161.232137 125.003366 
" style="fill:none;stroke:#31688e;stroke-width:1.5;"/>
   </g>
   <g id="LineCollection_4">
    <path clip-path="url(#p02905cd28b)" d="M 54 181.310799 
L 137.7 181.34662 
L 137.7 226.747177 
L 137.525504 226.98 
L 54 226.98 
L 54 226.98 
" style="fill:none;stroke:#21918c;stroke-width:1.5;"/>
    <path clip-path="url(#p02905cd28b)" d="M 54 105.249201 
L 137.7 105.21338 
L 137.758165 59.58 
L 305.041835 59.58 
L 305.1 60.045647 
L 305.1 105.21338 
L 305.739819 105.249201 
L 388.8 105.249201 
L 388.8 105.249201 
" style="fill:none;stroke:#21918c;stroke-width:1.5;"/>
    <path clip-path="url(#p02905cd28b)" d="M 388.8 226.98 
L 305.274496 226.98 
L 305.1 226.747177 
L 305.1 181.34662 
L 305.739819 181.310799 
L 388.8 181.310799 
L 388.8 181.310799 
" style="fill:none;stroke:#21918c;stroke-width:1.5;"/>
    <path clip-path="url(#p02905cd28b)" d="M 388.8 143.28 
L 305.274496 143.28 
L 305.1 143.163588 
L 305.041835 105.249201 
L 137.758165 105.249201 
L 137.7 105.679026 
L 137.7 143.163588 
L 137.525504 143.28 
L 54 143.28 
L 54 143.28 
" style="fill:none;stroke:#21918c;stroke-width:1.5;"/>
    <path clip-path="url(#p02905cd28b)" d="M 137.7 181.113797 
L 137.758165 143.28 
L 305.041835 143.28 
L 305.1 143.629235 
L 305.041835 181.310799 
L 137.758165 181.310799 
L 137.7 181.113797 
L 137.7 181.113797 
" style="fill:none;stroke:#21918c;stroke-width:1.5;"/>
   </g>
   <g id="LineCollection_5">
    <path clip-path="url(#p02905cd28b)" d="M 54 185.87692 
L 65.633079 185.988207 
L 76.102849 186.301941 
L 84.943989 186.778918 
L 92.156498 187.381037 
L 97.973037 188.080025 
L 102.626268 188.848989 
L 106.593793 189.728261 
L 109.838777 190.678908 
L 112.398054 191.648794 
L 114.673696 192.754965 
L 116.537543 193.919082 
L 118.002339 195.083199 
L 119.366213 196.480139 
L 120.400932 197.877079 
L 121.239194 199.408073 
L 121.816318 200.903783 
L 122.212895 202.533547 
L 122.393005 204.16331 
L 122.367167 205.793074 
L 122.131887 207.422837 
L 121.668759 209.052601 
L 121.006532 210.557933 
L 120.225644 211.846481 
L 119.097895 213.243421 
L 117.74927 214.509766 
L 116.304095 215.571655 
L 114.492008 216.62294 
L 112.398054 217.579695 
L 109.838777 218.495696 
L 106.814177 219.335156 
L 103.091591 220.124636 
L 98.671022 220.828626 
L 93.319805 221.455301 
L 86.57262 222.013514 
L 78.196803 222.471019 
L 68.192356 222.789974 
L 56.559277 222.937116 
L 54 222.941916 
L 54 222.941916 
" style="fill:none;stroke:#35b779;stroke-width:1.5;"/>
    <path clip-path="url(#p02905cd28b)" d="M 54 110.203551 
L 64.702432 110.315182 
L 74.474218 110.635777 
L 82.617373 111.115405 
L 89.402335 111.732434 
L 94.948436 112.46339 
L 99.369006 113.273183 
L 102.85893 114.133902 
L 105.650869 115.040767 
L 107.977484 116.028765 
L 109.838777 117.061568 
L 111.234746 118.071954 
L 112.398054 119.185366 
L 113.272426 120.346898 
L 113.859451 121.511015 
L 114.193138 122.675132 
L 114.293606 123.839249 
L 114.167828 125.003366 
L 113.794024 126.206981 
L 113.205398 127.331599 
L 112.318689 128.495716 
L 111.0982 129.659833 
L 109.606115 130.733003 
L 107.977484 131.650961 
L 105.88353 132.586094 
L 103.324253 133.483333 
L 100.282237 134.3163 
L 96.344406 135.141429 
L 91.691174 135.871406 
L 86.107297 136.511983 
L 79.360111 137.054292 
L 71.449618 137.466643 
L 62.143155 137.728452 
L 54 137.797827 
L 54 137.797827 
" style="fill:none;stroke:#35b779;stroke-width:1.5;"/>
    <path clip-path="url(#p02905cd28b)" d="M 388.8 222.941916 
L 376.701598 222.832412 
L 365.766505 222.519219 
L 356.692703 222.044896 
L 349.480195 221.455301 
L 343.663655 220.763812 
L 339.010424 219.992942 
L 335.287839 219.159921 
L 332.263238 218.267985 
L 329.703961 217.2855 
L 327.610007 216.247671 
L 325.820796 215.106008 
L 324.352745 213.896118 
L 323.097248 212.544951 
L 322.123546 211.148011 
L 321.407809 209.751071 
L 320.837027 208.121307 
L 320.50733 206.491544 
L 320.392959 204.86178 
L 320.484374 203.232017 
L 320.785928 201.602253 
L 321.328145 199.944982 
L 322.026129 198.497498 
L 322.956776 197.076954 
L 324.068939 195.781669 
L 325.34272 194.617552 
L 326.953281 193.453435 
L 328.773315 192.411296 
L 330.867269 191.454123 
L 333.426546 190.526233 
L 336.451147 189.666327 
L 340.173732 188.848989 
L 344.697259 188.098498 
L 350.178179 187.428757 
L 356.692703 186.860761 
L 364.835858 186.383622 
L 374.607644 186.044312 
L 385.7754 185.884304 
L 388.8 185.87692 
L 388.8 185.87692 
" style="fill:none;stroke:#35b779;stroke-width:1.5;"/>
    <path clip-path="url(#p02905cd28b)" d="M 388.8 137.797827 
L 378.562891 137.687558 
L 369.023767 137.366107 
L 360.935596 136.877357 
L 354.366088 136.270439 
L 349.014871 135.569639 
L 344.594302 134.780609 
L 340.871716 133.891578 
L 338.079778 133.021358 
L 335.753162 132.094376 
L 333.72541 131.056773 
L 332.263238 130.097659 
L 330.925647 128.961363 
L 329.913085 127.797246 
L 329.199968 126.633129 
L 328.746475 125.469013 
L 328.529521 124.304896 
L 328.540653 123.130055 
L 328.778073 121.976662 
L 329.26043 120.812545 
L 330.015678 119.648428 
L 331.099931 118.477491 
L 332.4959 117.370052 
L 333.891869 116.510802 
L 335.753162 115.601305 
L 338.079778 114.710854 
L 341.104378 113.818753 
L 344.826963 112.989504 
L 349.014871 112.288303 
L 354.133426 111.653316 
L 360.64795 111.08125 
L 368.325782 110.635777 
L 377.632245 110.325285 
L 388.102015 110.204018 
L 388.8 110.203551 
L 388.8 110.203551 
" style="fill:none;stroke:#35b779;stroke-width:1.5;"/>
    <path clip-path="url(#p02905cd28b)" d="M 153.084355 83.327983 
L 152.992993 81.69822 
L 153.113829 80.022954 
L 153.437049 78.438693 
L 154.007794 76.808929 
L 154.74246 75.380853 
L 155.697222 74.015049 
L 156.836414 72.774492 
L 158.232384 71.593353 
L 159.861015 70.513089 
L 161.954969 69.430243 
L 164.281584 68.49356 
L 167.073523 67.617561 
L 170.470091 66.797524 
L 174.518694 66.05739 
L 179.637248 65.365882 
L 185.91911 64.761595 
L 193.596942 64.260182 
L 202.903405 63.882334 
L 214.071161 63.657717 
L 226.402224 63.636469 
L 238.267964 63.835776 
L 248.505073 64.224234 
L 256.648228 64.74305 
L 263.162752 65.365882 
L 268.513968 66.094422 
L 272.701876 66.877253 
L 276.1918 67.748534 
L 278.983739 68.663012 
L 281.310354 69.647731 
L 283.339535 70.755522 
L 284.989434 71.919638 
L 286.275986 73.083755 
L 287.459798 74.480695 
L 288.340967 75.877636 
L 288.988186 77.290718 
L 289.480316 78.904339 
L 289.746628 80.534103 
L 289.801823 82.163866 
L 289.651476 83.79363 
L 289.287036 85.423394 
L 288.684678 87.053157 
L 287.94674 88.450097 
L 286.894232 89.92603 
L 285.656476 91.243978 
L 284.258759 92.408095 
L 282.473662 93.578495 
L 280.379708 94.65417 
L 278.053092 95.597549 
L 275.261154 96.490291 
L 272.003892 97.304428 
L 267.815983 98.104997 
L 262.93009 98.802592 
L 256.88089 99.430468 
L 249.435719 99.964423 
L 240.59458 100.368714 
L 230.124809 100.621031 
L 218.49173 100.676254 
L 207.091313 100.512843 
L 196.854204 100.14901 
L 188.478388 99.638864 
L 181.731202 99.019147 
L 176.147325 98.290722 
L 171.726755 97.502814 
L 167.927734 96.598915 
L 164.942037 95.667622 
L 162.420292 94.65417 
L 160.31546 93.572211 
L 158.465045 92.350874 
L 157.069076 91.173244 
L 155.840777 89.847038 
L 154.85326 88.450097 
L 154.044475 86.891854 
L 153.512964 85.423394 
L 153.148524 83.79363 
L 153.084355 83.327983 
L 153.084355 83.327983 
" style="fill:none;stroke:#35b779;stroke-width:1.5;"/>
    <path clip-path="url(#p02905cd28b)" d="M 161.254452 164.117691 
L 161.108362 162.953574 
L 161.188853 161.789458 
L 161.498497 160.625341 
L 162.052287 159.461224 
L 162.885615 158.289698 
L 164.048923 157.114643 
L 165.444892 156.053931 
L 167.073523 155.088713 
L 168.934816 154.211939 
L 171.261432 153.33879 
L 174.286032 152.451381 
L 178.008617 151.615936 
L 182.429187 150.868074 
L 187.547741 150.226049 
L 193.829604 149.660582 
L 201.507436 149.199325 
L 210.581237 148.885554 
L 220.585685 148.76286 
L 230.822794 148.855375 
L 240.361918 149.156964 
L 248.505073 149.626399 
L 255.252259 150.226049 
L 260.836136 150.937283 
L 265.256706 151.708384 
L 268.979291 152.573882 
L 272.003892 153.497781 
L 274.330507 154.413466 
L 276.424461 155.474361 
L 277.899501 156.43452 
L 279.274354 157.598637 
L 280.286877 158.762754 
L 281.000011 159.926871 
L 281.453492 161.090987 
L 281.670431 162.255104 
L 281.660628 163.419221 
L 281.421872 164.583338 
L 280.939531 165.747455 
L 280.184345 166.911572 
L 279.2164 167.972564 
L 277.964186 169.006982 
L 276.424461 169.98475 
L 274.563169 170.908165 
L 272.236553 171.809908 
L 269.211953 172.711055 
L 265.954691 173.456131 
L 261.766782 174.185815 
L 256.648228 174.844403 
L 250.366366 175.41841 
L 242.688534 175.886149 
L 233.614732 176.21012 
L 223.377623 176.352699 
L 212.675191 176.282684 
L 202.670744 175.99951 
L 194.294927 175.552184 
L 187.31508 174.967066 
L 181.731202 174.288546 
L 177.077971 173.502343 
L 173.588047 172.711055 
L 170.536791 171.800862 
L 168.00417 170.804191 
L 166.142877 169.851612 
L 164.514246 168.767126 
L 163.219011 167.610042 
L 162.278248 166.445925 
L 161.636794 165.281808 
L 161.254452 164.117691 
L 161.254452 164.117691 
" style="fill:none;stroke:#35b779;stroke-width:1.5;"/>
   </g>
   <g id="LineCollection_6">
    <path clip-path="url(#p02905cd28b)" d="M 54 190.665873 
L 61.677832 190.774003 
L 69.123002 191.098184 
L 75.637526 191.593883 
L 81.454065 192.254113 
L 86.339958 193.025283 
L 90.569761 193.919082 
L 94.01779 194.873026 
L 96.809729 195.864028 
L 99.199441 196.945786 
L 101.193278 198.109903 
L 102.722665 199.274019 
L 103.876219 200.438136 
L 104.720222 201.616256 
L 105.268337 202.76637 
L 105.568008 203.930487 
L 105.622508 205.094604 
L 105.418207 206.308149 
L 104.988593 207.422837 
L 104.254899 208.605682 
L 103.238543 209.751071 
L 101.928284 210.850548 
L 100.402458 211.846481 
L 98.43836 212.857065 
L 96.111744 213.804548 
L 93.319805 214.704739 
L 89.829882 215.583916 
L 85.641974 216.390093 
L 80.756081 217.092937 
L 74.939541 217.692462 
L 68.192356 218.151132 
L 60.747186 218.429697 
L 54 218.507933 
L 54 218.507933 
" style="fill:none;stroke:#90d743;stroke-width:1.5;"/>
    <path clip-path="url(#p02905cd28b)" d="M 54 117.037222 
L 59.583878 117.145465 
L 64.935094 117.467504 
L 69.588325 117.960531 
L 73.31091 118.550481 
L 76.568172 119.280445 
L 79.12745 120.08376 
L 80.808753 120.812545 
L 82.15205 121.640207 
L 82.850035 122.274399 
L 83.315358 122.959777 
L 83.500447 123.606426 
L 83.427304 124.304896 
L 83.071754 125.003366 
L 82.384712 125.729824 
L 81.440185 126.400306 
L 79.825434 127.210057 
L 77.964142 127.896819 
L 75.404864 128.605068 
L 72.147603 129.266963 
L 68.192356 129.836296 
L 63.771786 130.258313 
L 58.653231 130.531518 
L 54 130.609068 
L 54 130.609068 
" style="fill:none;stroke:#90d743;stroke-width:1.5;"/>
    <path clip-path="url(#p02905cd28b)" d="M 388.8 218.507933 
L 380.656845 218.393624 
L 373.211675 218.073701 
L 366.464489 217.567901 
L 360.64795 216.913699 
L 355.762057 216.145758 
L 351.80681 215.315575 
L 348.316887 214.355336 
L 345.524948 213.358164 
L 343.243992 212.312128 
L 341.33704 211.180008 
L 340.072528 210.216718 
L 338.903115 209.052601 
L 338.064437 207.888484 
L 337.513668 206.724367 
L 337.223879 205.56025 
L 337.181019 204.396134 
L 337.381807 203.232017 
L 337.847116 202.041449 
L 338.553734 200.903783 
L 339.574614 199.739666 
L 340.945054 198.575549 
L 342.500347 197.550967 
L 344.556577 196.480139 
L 346.920917 195.506458 
L 349.945518 194.523518 
L 353.435441 193.638239 
L 357.62335 192.819847 
L 362.509243 192.102458 
L 368.09312 191.509223 
L 374.607644 191.044773 
L 381.820153 190.755102 
L 388.8 190.665873 
L 388.8 190.665873 
" style="fill:none;stroke:#90d743;stroke-width:1.5;"/>
    <path clip-path="url(#p02905cd28b)" d="M 388.8 130.609068 
L 383.216122 130.496997 
L 377.864906 130.166042 
L 373.210562 129.659833 
L 369.256428 129.009522 
L 366.231828 128.30961 
L 363.865721 127.564423 
L 362.043919 126.777197 
L 360.880612 126.086412 
L 360.129034 125.469013 
L 359.577819 124.770542 
L 359.317231 124.072072 
L 359.337399 123.373602 
L 359.640346 122.675132 
L 360.24066 121.976662 
L 361.167884 121.278192 
L 362.741904 120.460614 
L 364.603197 119.759957 
L 367.162474 119.045451 
L 370.187074 118.423212 
L 374.142321 117.842961 
L 378.562891 117.412059 
L 383.681445 117.127844 
L 388.8 117.037222 
L 388.8 117.037222 
" style="fill:none;stroke:#90d743;stroke-width:1.5;"/>
    <path clip-path="url(#p02905cd28b)" d="M 169.831954 82.629513 
L 169.777536 81.465396 
L 169.967475 80.30128 
L 170.411441 79.137163 
L 171.130809 77.973046 
L 172.161411 76.808929 
L 173.355386 75.796073 
L 174.997459 74.713519 
L 177.077971 73.65007 
L 179.404587 72.713436 
L 182.196525 71.822178 
L 185.686449 70.950626 
L 189.874357 70.150508 
L 194.76025 69.452796 
L 200.576789 68.857724 
L 207.323975 68.402841 
L 214.769145 68.127611 
L 222.679639 68.054863 
L 230.590132 68.198094 
L 238.035302 68.550042 
L 244.549826 69.069857 
L 250.133704 69.725869 
L 254.786935 70.478709 
L 258.742182 71.329716 
L 261.999444 72.241632 
L 264.791383 73.249175 
L 266.955984 74.247872 
L 268.74663 75.302108 
L 270.142599 76.356479 
L 271.305907 77.518133 
L 272.135496 78.671516 
L 272.701876 79.881544 
L 272.976146 80.99975 
L 273.018941 82.163866 
L 272.818105 83.327983 
L 272.366581 84.4921 
L 271.646187 85.656217 
L 270.607922 86.837198 
L 269.211953 88.015866 
L 267.46006 89.148567 
L 265.489368 90.14994 
L 262.93009 91.179923 
L 260.138151 92.06975 
L 256.648228 92.94759 
L 252.46032 93.759957 
L 247.574427 94.472182 
L 241.990549 95.061022 
L 235.476025 95.521635 
L 228.263516 95.807868 
L 220.585685 95.892921 
L 212.907853 95.761585 
L 205.695344 95.426386 
L 199.18082 94.910164 
L 193.364281 94.225826 
L 188.478388 93.425916 
L 184.523141 92.565036 
L 181.265879 91.64997 
L 178.47394 90.649052 
L 176.147325 89.586515 
L 174.206759 88.450097 
L 172.657401 87.268251 
L 171.494093 86.085994 
L 170.687881 84.957747 
L 170.131625 83.79363 
L 169.831954 82.629513 
L 169.831954 82.629513 
" style="fill:none;stroke:#90d743;stroke-width:1.5;"/>
    <path clip-path="url(#p02905cd28b)" d="M 191.937303 163.186398 
L 191.917206 162.487928 
L 192.200973 161.753228 
L 192.72905 161.090987 
L 193.596942 160.391056 
L 194.992912 159.611028 
L 196.854204 158.857947 
L 199.18082 158.158011 
L 202.20542 157.483169 
L 205.928006 156.884605 
L 210.581237 156.384233 
L 215.699792 156.067767 
L 221.283669 155.950979 
L 226.867547 156.058339 
L 232.218763 156.384233 
L 236.871994 156.884605 
L 240.59458 157.483169 
L 243.851842 158.219386 
L 246.334198 158.995577 
L 248.272411 159.842923 
L 249.435719 160.55679 
L 250.133704 161.157795 
L 250.622306 161.789458 
L 250.882794 162.487928 
L 250.862697 163.186398 
L 250.559721 163.884868 
L 249.901042 164.633889 
L 248.970396 165.319117 
L 247.574427 166.048276 
L 245.713134 166.761904 
L 243.153857 167.486453 
L 239.896595 168.157 
L 235.941348 168.731159 
L 231.520778 169.156804 
L 226.402224 169.436318 
L 220.818346 169.521629 
L 215.234468 169.390312 
L 209.883252 169.043296 
L 205.374597 168.541335 
L 201.507436 167.896751 
L 198.482835 167.185358 
L 196.15622 166.432819 
L 194.294927 165.589086 
L 193.364281 165.007402 
L 192.606038 164.350515 
L 192.107327 163.652045 
L 191.937303 163.186398 
L 191.937303 163.186398 
" style="fill:none;stroke:#90d743;stroke-width:1.5;"/>
   </g>
   <g id="LineCollection_7">
    <path clip-path="url(#p02905cd28b)" d="M 54 196.753662 
L 59.118555 196.863112 
L 64.004448 197.182498 
L 68.425017 197.687048 
L 72.380264 198.363344 
L 75.637526 199.149097 
L 78.196803 199.988417 
L 80.290757 200.925155 
L 81.754471 201.835076 
L 82.781726 202.76637 
L 83.315358 203.533908 
L 83.563715 204.16331 
L 83.640126 204.86178 
L 83.511479 205.56025 
L 83.082696 206.389045 
L 82.612505 206.957191 
L 81.686727 207.744732 
L 80.523419 208.471187 
L 78.794684 209.285424 
L 76.568172 210.071514 
L 73.776233 210.812666 
L 70.518972 211.453371 
L 66.563725 212.006392 
L 62.143155 212.407561 
L 57.0246 212.643435 
L 54 212.680231 
L 54 212.680231 
" style="fill:none;stroke:#fde725;stroke-width:1.5;"/>
    <path clip-path="url(#p02905cd28b)" d="M 388.8 212.680231 
L 383.448784 212.564721 
L 378.562891 212.242692 
L 374.142321 211.739738 
L 370.419736 211.112205 
L 367.162474 210.343266 
L 364.599555 209.518248 
L 362.489817 208.586954 
L 360.989499 207.655661 
L 359.97513 206.724367 
L 359.484642 206.014163 
L 359.222623 205.327427 
L 359.16263 204.628957 
L 359.307616 203.930487 
L 359.717304 203.153251 
L 360.415288 202.359784 
L 361.345935 201.621407 
L 362.548868 200.903783 
L 364.370535 200.079727 
L 366.727499 199.274019 
L 369.721751 198.51158 
L 373.211675 197.860392 
L 377.399583 197.318081 
L 382.052814 196.944385 
L 387.171369 196.764705 
L 388.8 196.753662 
L 388.8 196.753662 
" style="fill:none;stroke:#fde725;stroke-width:1.5;"/>
    <path clip-path="url(#p02905cd28b)" d="M 191.907624 82.629513 
L 191.762521 81.931043 
L 191.822724 81.232573 
L 192.090549 80.534103 
L 192.666296 79.735299 
L 193.364281 79.081132 
L 194.527589 78.286292 
L 196.057865 77.507399 
L 198.250174 76.673605 
L 200.809451 75.941524 
L 203.834051 75.29145 
L 207.556637 74.709241 
L 212.209868 74.229033 
L 217.328423 73.946521 
L 222.679639 73.886348 
L 227.798193 74.046032 
L 232.684086 74.416326 
L 236.923153 74.946342 
L 240.723075 75.644812 
L 243.851842 76.453016 
L 246.194866 77.274576 
L 248.136225 78.205869 
L 249.506276 79.137163 
L 250.411355 80.068456 
L 250.831689 80.791052 
L 251.020195 81.465396 
L 251.011921 82.163866 
L 250.798051 82.862337 
L 250.366366 83.5686 
L 249.668381 84.306526 
L 248.505073 85.166829 
L 247.188835 85.88904 
L 245.247811 86.700982 
L 242.921195 87.443757 
L 240.129256 88.123378 
L 236.639333 88.753217 
L 232.451425 89.27759 
L 227.798193 89.634951 
L 222.679639 89.799522 
L 217.561084 89.744876 
L 212.44253 89.464662 
L 208.02196 89.013217 
L 204.066713 88.400477 
L 200.576789 87.631794 
L 197.882469 86.820334 
L 195.611165 85.88904 
L 193.973334 84.957747 
L 192.834632 84.026453 
L 192.200973 83.229001 
L 191.907624 82.629513 
L 191.907624 82.629513 
" style="fill:none;stroke:#fde725;stroke-width:1.5;"/>
   </g>
   <g id="line2d_1">
    <path clip-path="url(#p02905cd28b)" d="M 54 195.36 
L 388.8 195.36 
" style="fill:none;stroke:#ff0000;stroke-linecap:square;stroke-width:1.5;"/>
   </g>
   <g id="line2d_2">
    <path clip-path="url(#p02905cd28b)" d="M 54 91.2 
L 388.8 91.2 
" style="fill:none;stroke:#ff0000;stroke-linecap:square;stroke-width:1.5;"/>
   </g>
   <g id="patch_3">
    <path d="M 54 252 
L 54 34.56 
" style="fill:none;stroke:#000000;stroke-linecap:square;stroke-linejoin:miter;stroke-width:0.8;"/>
   </g>
   <g id="patch_4">
    <path d="M 388.8 252 
L 388.8 34.56 
" style="fill:none;stroke:#000000;stroke-linecap:square;stroke-linejoin:miter;stroke-width:0.8;"/>
   </g>
   <g id="patch_5">
    <path d="M 54 252 
L 388.8 252 
" style="fill:none;stroke:#000000;stroke-linecap:square;stroke-linejoin:miter;stroke-width:0.8;"/>
   </g>
   <g id="patch_6">
    <path d="M 54 34.56 
L 388.8 34.56 
" style="fill:none;stroke:#000000;stroke-linecap:square;stroke-linejoin:miter;stroke-width:0.8;"/>
   </g>
  </g>
 </g>
 <defs>
  <clipPath id="p02905cd28b">
   <rect height="217.44" width="334.8" x="54" y="34.56"/>
  </clipPath>
 </defs>
</svg>
