<?xml version="1.0" encoding="utf-8" standalone="no"?>
<!DOCTYPE svg PUBLIC "-//W3C//DTD SVG 1.1//EN"
  "http://www.w3.org/Graphics/SVG/1.1/DTD/svg11.dtd">
<!-- Created with matplotlib (http://matplotlib.org/) -->
<svg height="288pt" version="1.1" viewBox="0 0 432 288" width="432pt" xmlns="http://www.w3.org/2000/svg" xmlns:xlink="http://www.w3.org/1999/xlink">
 <defs>
  <style type="text/css">
*{stroke-linecap:butt;stroke-linejoin:round;}
  </style>
 </defs>
 <g id="figure_1">
  <g id="patch_1">
   <path d="M 0 288 
L 432 288 
L 432 0 
L 0 0 
z
" style="fill:#ffffff;"/>
  </g>
  <g id="axes_1">
   <g id="patch_2">
    <path d="M 54 252 
L 388.8 252 
L 388.8 34.56 
L 54 34.56 
z
" style="fill:#ffffff;"/>
   </g>
   <g id="matplotlib.axis_1"/>
   <g id="matplotlib.axis_2"/>
   <g id="LineCollection_1">
    <path clip-path="url(#pa6c67f8ceb)" d="M 65.606593 170.403922 
L 65.950085 172.266509 
L 66.51393 174.129096 
L 67.26171 175.809843 
L 68.192356 177.303834 
L 69.123002 178.408095 
L 70.28631 179.42333 
L 71.537214 180.182503 
L 72.711221 180.64815 
L 74.008895 180.925325 
L 75.404864 180.966007 
L 76.800834 180.743785 
L 77.964142 180.344466 
L 79.136812 179.716857 
L 80.3386 178.785563 
L 81.415751 177.621446 
L 82.221463 176.45733 
L 82.953984 175.060389 
L 83.576498 173.430626 
L 84.052705 171.568039 
L 84.341226 169.472629 
L 84.390784 167.377218 
L 84.228575 165.514631 
L 83.841139 163.652045 
L 83.268077 162.022281 
L 82.535275 160.625341 
L 81.673536 159.461224 
L 80.723816 158.52993 
L 79.592773 157.732084 
L 78.358017 157.13299 
L 77.033495 156.728813 
L 75.637526 156.523042 
L 74.241557 156.520952 
L 72.845587 156.722307 
L 71.449618 157.149193 
L 70.092453 157.83146 
L 69.123002 158.532185 
L 68.176499 159.461224 
L 67.26171 160.710537 
L 66.563725 162.06404 
L 66.008975 163.652045 
L 65.621372 165.514631 
L 65.459107 167.377218 
L 65.508791 169.472629 
L 65.606593 170.403922 
L 65.606593 170.403922 
" style="fill:none;stroke:#440154;stroke-width:1.5;"/>
    <path clip-path="url(#pa6c67f8ceb)" d="M 107.506512 121.278192 
L 107.85901 122.907955 
L 108.442808 124.563294 
L 109.16429 125.934659 
L 110.071438 127.14959 
L 111.002085 128.051879 
L 112.165393 128.861838 
L 113.34072 129.42701 
L 114.72467 129.844105 
L 116.120639 130.04105 
L 117.516609 130.034781 
L 118.912578 129.824586 
L 120.308548 129.387296 
L 121.606988 128.72854 
L 122.635163 127.97815 
L 123.56581 127.049698 
L 124.385209 125.934659 
L 125.117912 124.537719 
L 125.691332 122.907955 
L 126.078354 121.045369 
L 126.240749 119.182782 
L 126.191317 117.087371 
L 125.902947 114.991961 
L 125.426781 113.129374 
L 124.729117 111.335614 
L 123.9266 109.869847 
L 123.076459 108.70573 
L 121.925987 107.541613 
L 120.773871 106.71066 
L 119.610563 106.130407 
L 118.447255 105.76695 
L 117.051286 105.583728 
L 115.655316 105.662428 
L 114.492008 105.932552 
L 113.3287 106.405801 
L 112.165393 107.115391 
L 111.002085 108.122132 
L 110.071438 109.216507 
L 109.140792 110.695585 
L 108.442808 112.222031 
L 107.857713 114.060668 
L 107.488548 115.923255 
L 107.307143 118.018665 
L 107.364917 120.114075 
L 107.506512 121.278192 
L 107.506512 121.278192 
" style="fill:none;stroke:#440154;stroke-width:1.5;"/>
    <path clip-path="url(#pa6c67f8ceb)" d="M 149.156911 168.541335 
L 149.338751 170.636745 
L 149.707664 172.499332 
L 150.32189 174.412112 
L 151.05978 175.991683 
L 151.954828 177.388623 
L 152.967222 178.55274 
L 154.070436 179.484033 
L 155.236218 180.182503 
L 156.409952 180.64815 
L 157.76706 180.932227 
L 159.16303 180.962057 
L 160.558999 180.728637 
L 161.722307 180.318925 
L 162.885615 179.685209 
L 164.048923 178.776717 
L 165.115348 177.621446 
L 165.922 176.45733 
L 166.756621 174.827566 
L 167.348499 173.197803 
L 167.797157 171.335216 
L 168.058573 169.239805 
L 168.081512 167.144395 
L 167.892938 165.281808 
L 167.474231 163.419221 
L 166.864021 161.789458 
L 166.142877 160.480597 
L 165.372949 159.461224 
L 164.423298 158.52993 
L 163.350938 157.766524 
L 162.057757 157.13299 
L 160.791661 156.742108 
L 159.395691 156.527484 
L 157.999722 156.517034 
L 156.603753 156.709577 
L 155.190861 157.13299 
L 154.044475 157.681394 
L 152.826446 158.52993 
L 151.877058 159.461224 
L 151.014079 160.625341 
L 150.281866 162.022281 
L 149.708965 163.652045 
L 149.356761 165.281808 
L 149.168057 167.144395 
L 149.156911 168.541335 
L 149.156911 168.541335 
" style="fill:none;stroke:#440154;stroke-width:1.5;"/>
    <path clip-path="url(#pa6c67f8ceb)" d="M 191.030393 119.648428 
L 191.270327 121.64922 
L 191.697118 123.373602 
L 192.23609 124.770542 
L 193.015519 126.167483 
L 193.93796 127.331599 
L 194.992912 128.282779 
L 196.15622 129.022527 
L 197.552189 129.609157 
L 198.948158 129.942671 
L 200.344128 130.062185 
L 201.740097 129.980553 
L 203.234596 129.659833 
L 204.532036 129.154898 
L 205.695344 128.473377 
L 206.785168 127.564423 
L 207.602705 126.633129 
L 208.359852 125.469013 
L 209.008348 124.072072 
L 209.511603 122.442309 
L 209.838448 120.579722 
L 209.950439 118.717135 
L 209.848324 116.621725 
L 209.504081 114.526314 
L 208.952606 112.613232 
L 208.254621 110.975819 
L 207.474312 109.637024 
L 206.57512 108.472907 
L 205.462682 107.405999 
L 204.299375 106.60814 
L 203.136067 106.063012 
L 201.972759 105.729336 
L 200.576789 105.579331 
L 199.18082 105.690788 
L 198.017512 105.990142 
L 196.854204 106.496241 
L 195.609992 107.30879 
L 194.527589 108.30471 
L 193.596942 109.459249 
L 192.78548 110.80114 
L 192.064137 112.430904 
L 191.499533 114.293491 
L 191.127945 116.388901 
L 190.99907 118.484312 
L 191.030393 119.648428 
L 191.030393 119.648428 
" style="fill:none;stroke:#440154;stroke-width:1.5;"/>
    <path clip-path="url(#pa6c67f8ceb)" d="M 232.908282 169.472629 
L 233.197354 171.568039 
L 233.673723 173.430626 
L 234.312717 175.098436 
L 235.173273 176.690153 
L 236.024083 177.85427 
L 237.104656 178.958659 
L 238.267964 179.813986 
L 239.454803 180.415327 
L 240.59458 180.779568 
L 241.990549 180.973904 
L 243.386518 180.906074 
L 244.549826 180.645656 
L 245.714574 180.182503 
L 246.880044 179.484033 
L 248.03975 178.496813 
L 248.99489 177.388623 
L 249.901042 175.972547 
L 250.647545 174.361919 
L 251.242466 172.499332 
L 251.611121 170.636745 
L 251.792838 168.541335 
L 251.735392 166.445925 
L 251.465749 164.583338 
L 251.026543 162.953574 
L 250.366366 161.38381 
L 249.624154 160.159694 
L 248.635048 158.995577 
L 247.574427 158.107211 
L 246.411119 157.419333 
L 245.084927 156.900167 
L 243.851842 156.617329 
L 242.455872 156.497815 
L 241.059903 156.579447 
L 239.565404 156.900167 
L 238.267964 157.405102 
L 237.104656 158.086623 
L 236.014832 158.995577 
L 235.197295 159.926871 
L 234.440148 161.090987 
L 233.791652 162.487928 
L 233.288397 164.117691 
L 232.961552 165.980278 
L 232.849561 167.842865 
L 232.908282 169.472629 
L 232.908282 169.472629 
" style="fill:none;stroke:#440154;stroke-width:1.5;"/>
    <path clip-path="url(#pa6c67f8ceb)" d="M 274.78624 120.346898 
L 275.084233 122.209485 
L 275.555003 123.839249 
L 276.1918 125.287961 
L 277.0475 126.633129 
L 277.864585 127.564423 
L 278.986505 128.495716 
L 280.200709 129.194186 
L 281.543016 129.697801 
L 282.938985 129.984317 
L 284.334955 130.06175 
L 285.730924 129.938015 
L 287.126894 129.599664 
L 288.522863 129.007217 
L 289.686171 128.260808 
L 290.712068 127.331599 
L 291.634533 126.167483 
L 292.413704 124.770542 
L 292.953139 123.373602 
L 293.361999 121.743839 
L 293.603905 119.881252 
L 293.63458 117.785841 
L 293.426492 115.690431 
L 293.031253 113.827844 
L 292.404369 111.965257 
L 291.609123 110.335494 
L 290.845172 109.171377 
L 289.832778 108.00726 
L 288.729564 107.075967 
L 287.563782 106.377497 
L 286.390048 105.91185 
L 285.03294 105.627773 
L 283.63697 105.597943 
L 282.241001 105.831363 
L 281.077693 106.241075 
L 279.914385 106.874791 
L 278.751077 107.783283 
L 277.684652 108.938554 
L 276.878 110.10267 
L 276.043379 111.732434 
L 275.451501 113.362197 
L 275.002843 115.224784 
L 274.741427 117.320195 
L 274.718488 119.415605 
L 274.78624 120.346898 
L 274.78624 120.346898 
" style="fill:none;stroke:#440154;stroke-width:1.5;"/>
    <path clip-path="url(#pa6c67f8ceb)" d="M 316.651585 169.938275 
L 316.944841 171.800862 
L 317.449823 173.663449 
L 318.103336 175.293213 
L 319.001529 176.887772 
L 319.932175 178.09601 
L 321.095483 179.20092 
L 322.258791 179.98454 
L 323.422099 180.518437 
L 324.801253 180.880974 
L 325.981376 180.981233 
L 327.377345 180.858782 
L 328.540653 180.549666 
L 329.851623 179.94968 
L 330.890731 179.25121 
L 332.030577 178.19221 
L 333.024422 176.922976 
L 333.891869 175.40751 
L 334.589854 173.695459 
L 335.055177 172.03137 
L 335.398034 169.938275 
L 335.500738 167.842865 
L 335.359962 165.747455 
L 335.003622 163.884868 
L 334.465924 162.255104 
L 333.776774 160.858164 
L 332.961223 159.683415 
L 332.030577 158.708952 
L 330.858088 157.83146 
L 329.703961 157.233403 
L 328.307992 156.769834 
L 326.912022 156.537421 
L 325.516053 156.510247 
L 324.120083 156.68524 
L 322.724114 157.08227 
L 321.560806 157.615595 
L 320.397498 158.390469 
L 319.466852 159.25021 
L 318.536206 160.435978 
L 317.786218 161.789458 
L 317.175582 163.419221 
L 316.795816 165.048985 
L 316.580891 166.911572 
L 316.577298 169.006982 
L 316.651585 169.938275 
L 316.651585 169.938275 
" style="fill:none;stroke:#440154;stroke-width:1.5;"/>
    <path clip-path="url(#pa6c67f8ceb)" d="M 358.539663 120.812545 
L 358.896572 122.675132 
L 359.433858 124.304896 
L 360.123041 125.701836 
L 360.930592 126.865953 
L 361.811258 127.799014 
L 362.974566 128.68611 
L 364.137874 129.301543 
L 365.533843 129.775733 
L 366.929812 130.017084 
L 368.325782 130.052623 
L 369.721751 129.88637 
L 371.117721 129.49909 
L 372.308016 128.961363 
L 373.444336 128.215482 
L 374.412474 127.331599 
L 375.334936 126.167483 
L 376.113565 124.770542 
L 376.701598 123.216556 
L 377.104312 121.511015 
L 377.319142 119.648428 
L 377.322753 117.553018 
L 377.088035 115.457608 
L 376.666882 113.595021 
L 376.003614 111.723997 
L 375.171347 110.10267 
L 374.366139 108.938554 
L 373.288328 107.774437 
L 372.281028 106.972119 
L 371.117721 106.307246 
L 369.954413 105.871333 
L 368.558443 105.6098 
L 367.162474 105.612511 
L 365.999166 105.816215 
L 364.835858 106.215534 
L 363.663188 106.843143 
L 362.4614 107.774437 
L 361.384249 108.938554 
L 360.578537 110.10267 
L 359.846016 111.499611 
L 359.223502 113.129374 
L 358.747295 114.991961 
L 358.458774 117.087371 
L 358.409216 119.182782 
L 358.539663 120.812545 
L 358.539663 120.812545 
" style="fill:none;stroke:#440154;stroke-width:1.5;"/>
   </g>
   <g id="LineCollection_2">
    <path clip-path="url(#pa6c67f8ceb)" d="M 61.203496 171.335216 
L 61.569538 174.129096 
L 62.143155 176.754678 
L 62.865264 179.018387 
L 63.771786 181.081767 
L 64.744326 182.743561 
L 65.86574 184.211345 
L 67.029048 185.382903 
L 68.425017 186.448001 
L 69.820987 187.229811 
L 71.449618 187.857614 
L 73.078249 188.227934 
L 74.70688 188.367884 
L 76.335511 188.287296 
L 77.964142 187.980609 
L 79.592773 187.425617 
L 81.018486 186.701558 
L 82.384712 185.750923 
L 83.624225 184.606147 
L 84.781424 183.209207 
L 85.813323 181.579444 
L 86.609836 179.94968 
L 87.3861 177.85427 
L 88.006239 175.526036 
L 88.461069 172.964979 
L 88.733405 170.171099 
L 88.792946 167.377218 
L 88.631012 164.583338 
L 88.248909 162.022281 
L 87.713987 159.926871 
L 86.996622 158.064284 
L 86.238611 156.667344 
L 85.392652 155.503227 
L 84.246004 154.3385 
L 82.97899 153.407816 
L 81.673872 152.709346 
L 80.058096 152.101834 
L 78.196803 151.658611 
L 76.102849 151.413706 
L 74.008895 151.399697 
L 71.914941 151.614369 
L 70.053648 152.024412 
L 68.425017 152.599622 
L 67.029048 153.310969 
L 65.86574 154.120647 
L 64.702432 155.221038 
L 63.761965 156.43452 
L 62.964435 157.83146 
L 62.29054 159.461224 
L 61.753582 161.323811 
L 61.329014 163.652045 
L 61.096007 166.213102 
L 61.066134 169.006982 
L 61.203496 171.335216 
L 61.203496 171.335216 
" style="fill:none;stroke:#443983;stroke-width:1.5;"/>
    <path clip-path="url(#pa6c67f8ceb)" d="M 103.068935 121.976662 
L 103.405451 124.304896 
L 103.914471 126.400306 
L 104.597978 128.262893 
L 105.418207 129.823941 
L 106.348853 131.105927 
L 107.453736 132.22089 
L 108.675469 133.123902 
L 110.071438 133.871149 
L 111.700069 134.475809 
L 113.561362 134.91157 
L 115.655316 135.149713 
L 117.74927 135.157496 
L 119.843224 134.936147 
L 121.704517 134.518819 
L 123.333148 133.935291 
L 124.828997 133.152184 
L 126.096456 132.22089 
L 127.055733 131.274019 
L 127.986379 130.051921 
L 128.735691 128.72854 
L 129.409648 127.098776 
L 129.946386 125.236189 
L 130.371065 122.907955 
L 130.604069 120.346898 
L 130.633865 117.553018 
L 130.450986 114.759138 
L 130.046477 111.965257 
L 129.445872 109.4042 
L 128.684364 107.152385 
L 127.789782 105.21338 
L 126.797 103.583616 
L 125.659764 102.153004 
L 124.492724 101.022559 
L 123.100486 100.000211 
L 121.704517 99.249284 
L 120.075886 98.651018 
L 118.447255 98.306364 
L 116.818624 98.190227 
L 115.189993 98.294494 
L 113.561362 98.626421 
L 111.932731 99.210141 
L 110.536762 99.945923 
L 109.140792 100.952139 
L 107.977484 102.05808 
L 106.814177 103.496168 
L 105.88353 104.9856 
L 104.952884 106.936463 
L 104.241264 108.938554 
L 103.643504 111.266787 
L 103.207956 113.827844 
L 102.953627 116.621725 
L 102.911655 119.415605 
L 103.068935 121.976662 
L 103.068935 121.976662 
" style="fill:none;stroke:#443983;stroke-width:1.5;"/>
    <path clip-path="url(#pa6c67f8ceb)" d="M 144.948821 171.800862 
L 145.353658 174.594743 
L 145.954096 177.1558 
L 146.654334 179.25121 
L 147.529951 181.194434 
L 148.460598 182.768267 
L 149.623905 184.277404 
L 150.787213 185.433997 
L 152.183183 186.485741 
L 153.579152 187.257171 
L 155.207783 187.875052 
L 156.836414 188.236793 
L 158.465045 188.368794 
L 160.093676 188.280321 
L 161.722307 187.965251 
L 163.352496 187.400028 
L 164.746908 186.684827 
L 166.142877 185.703827 
L 167.324616 184.606147 
L 168.48178 183.209207 
L 169.513218 181.579444 
L 170.408298 179.716857 
L 171.158451 177.621446 
L 171.756662 175.293213 
L 172.192356 172.732156 
L 172.446562 169.938275 
L 172.488319 167.144395 
L 172.306245 164.350515 
L 171.949064 162.022281 
L 171.413787 159.926871 
L 170.696465 158.064284 
L 169.865462 156.552801 
L 168.891698 155.270403 
L 167.771508 154.191908 
L 166.6082 153.363786 
L 165.212231 152.637374 
L 163.5836 152.049658 
L 161.722307 151.628669 
L 159.628353 151.403973 
L 157.534399 151.408643 
L 155.440445 151.643415 
L 153.579152 152.075464 
L 151.876728 152.709346 
L 150.554552 153.417714 
L 149.303848 154.33911 
L 148.227936 155.420015 
L 147.29729 156.689228 
L 146.553396 158.064284 
L 145.90132 159.724315 
L 145.34939 161.789458 
L 144.969941 164.117691 
L 144.775601 166.678748 
L 144.781867 169.472629 
L 144.948821 171.800862 
L 144.948821 171.800862 
" style="fill:none;stroke:#443983;stroke-width:1.5;"/>
    <path clip-path="url(#pa6c67f8ceb)" d="M 186.611473 119.415605 
L 186.793672 122.209485 
L 187.151152 124.537719 
L 187.686233 126.633129 
L 188.403491 128.495716 
L 189.176372 129.916828 
L 190.107019 131.173822 
L 191.153886 132.22089 
L 192.42044 133.152184 
L 193.726838 133.850654 
L 195.225573 134.422115 
L 197.086866 134.880421 
L 199.18082 135.138929 
L 201.274774 135.165397 
L 203.368728 134.964007 
L 205.297662 134.549124 
L 206.858652 134.009593 
L 208.254621 133.317947 
L 209.515864 132.453713 
L 210.581237 131.465879 
L 211.511883 130.310574 
L 212.319018 128.961363 
L 213.026541 127.331599 
L 213.605837 125.405903 
L 214.038772 123.140779 
L 214.291692 120.579722 
L 214.339716 117.785841 
L 214.174369 114.991961 
L 213.78938 112.198081 
L 213.210994 109.637024 
L 212.534504 107.541613 
L 211.729267 105.679026 
L 210.808539 104.049263 
L 209.650591 102.483454 
L 208.458377 101.255382 
L 207.091313 100.188936 
L 205.695344 99.386097 
L 204.299375 98.81386 
L 202.670744 98.3914 
L 201.042113 98.20346 
L 199.413482 98.236856 
L 197.784851 98.493842 
L 196.15622 98.992741 
L 194.76025 99.641642 
L 193.340184 100.556912 
L 192.001931 101.721029 
L 190.970637 102.885146 
L 189.874357 104.479878 
L 188.943711 106.262912 
L 188.166275 108.240083 
L 187.500499 110.568317 
L 187.006251 113.129374 
L 186.69704 115.923255 
L 186.601999 118.717135 
L 186.611473 119.415605 
L 186.611473 119.415605 
" style="fill:none;stroke:#443983;stroke-width:1.5;"/>
    <path clip-path="url(#pa6c67f8ceb)" d="M 228.491803 169.705452 
L 228.728839 172.505392 
L 229.194163 175.297745 
L 229.863685 177.85427 
L 230.640225 179.94968 
L 231.567679 181.812267 
L 232.640755 183.442031 
L 233.625307 184.606147 
L 234.8902 185.770264 
L 236.231826 186.701558 
L 237.59805 187.400028 
L 239.19861 187.957453 
L 240.827241 188.276725 
L 242.455872 188.369144 
L 244.084503 188.241113 
L 245.772148 187.865675 
L 247.341765 187.270703 
L 248.792425 186.468734 
L 250.133704 185.459307 
L 251.297012 184.310127 
L 252.46032 182.81137 
L 253.390966 181.250071 
L 254.203515 179.484033 
L 254.928338 177.388623 
L 255.50518 175.060389 
L 255.950243 172.263731 
L 256.168246 169.472629 
L 256.17452 166.678748 
L 255.951653 163.884868 
L 255.549879 161.556634 
L 254.959517 159.461224 
L 254.285757 157.83146 
L 253.390966 156.291591 
L 252.46032 155.125544 
L 251.365954 154.106287 
L 250.133704 153.259122 
L 248.737735 152.562592 
L 247.109104 151.999832 
L 245.247811 151.600513 
L 243.153857 151.395811 
L 241.059903 151.419164 
L 238.965949 151.674261 
L 237.104656 152.128776 
L 235.476025 152.755589 
L 234.080056 153.529741 
L 232.916748 154.414938 
L 231.857715 155.503227 
L 231.011223 156.667344 
L 230.253538 158.064284 
L 229.611431 159.694047 
L 229.049394 161.789458 
L 228.670169 164.117691 
L 228.475534 166.678748 
L 228.481752 169.472629 
L 228.491803 169.705452 
L 228.491803 169.705452 
" style="fill:none;stroke:#443983;stroke-width:1.5;"/>
    <path clip-path="url(#pa6c67f8ceb)" d="M 270.372438 120.812545 
L 270.645689 123.373602 
L 271.118757 125.701836 
L 271.77123 127.721124 
L 272.469215 129.223645 
L 273.399861 130.670626 
L 274.349429 131.755243 
L 275.493815 132.728915 
L 276.889785 133.590021 
L 278.285754 134.203693 
L 279.914385 134.695669 
L 281.775678 135.033299 
L 283.869632 135.179314 
L 285.963586 135.099726 
L 288.058249 134.781947 
L 289.918833 134.256522 
L 291.547464 133.544209 
L 292.943433 132.66463 
L 294.106741 131.648302 
L 295.037387 130.554207 
L 295.896521 129.194186 
L 296.639797 127.564423 
L 297.231125 125.701836 
L 297.667652 123.606426 
L 297.961443 121.045369 
L 298.046851 118.251488 
L 297.916644 115.457608 
L 297.570101 112.663727 
L 297.034477 110.10267 
L 296.320419 107.774437 
L 295.50271 105.828851 
L 294.508172 104.049263 
L 293.408756 102.552231 
L 292.158003 101.255382 
L 290.849479 100.22815 
L 289.408293 99.392796 
L 288.05754 98.833618 
L 286.428909 98.402328 
L 284.800278 98.206334 
L 283.171647 98.231877 
L 281.543016 98.48067 
L 279.914385 98.970404 
L 278.490113 99.625619 
L 277.040647 100.556912 
L 275.940107 101.488206 
L 274.79583 102.728232 
L 273.695044 104.282086 
L 272.807647 105.91185 
L 272.003892 107.844855 
L 271.305907 110.139333 
L 270.780015 112.663727 
L 270.4333 115.457608 
L 270.303329 118.251488 
L 270.372438 120.812545 
L 270.372438 120.812545 
" style="fill:none;stroke:#443983;stroke-width:1.5;"/>
    <path clip-path="url(#pa6c67f8ceb)" d="M 312.246804 170.636745 
L 312.556239 173.430626 
L 313.050614 175.991683 
L 313.716244 178.319917 
L 314.54794 180.415327 
L 315.403883 182.04509 
L 316.442252 183.57506 
L 317.605559 184.892736 
L 318.890721 186.003088 
L 320.164837 186.837444 
L 321.560806 187.509841 
L 323.189437 188.031877 
L 324.818068 188.309455 
L 326.446699 188.362494 
L 328.07533 188.194617 
L 329.703961 187.794051 
L 331.257993 187.167204 
L 332.4959 186.466929 
L 333.891869 185.408529 
L 335.145254 184.140501 
L 336.218485 182.724789 
L 337.161758 181.113797 
L 337.995585 179.25121 
L 338.695827 177.1558 
L 339.251835 174.827566 
L 339.676225 172.033686 
L 339.87672 169.239805 
L 339.864958 166.445925 
L 339.65143 163.884868 
L 339.243085 161.525677 
L 338.659433 159.461224 
L 337.985578 157.83146 
L 337.149131 156.376782 
L 336.218485 155.189001 
L 335.055177 154.097311 
L 333.68825 153.174993 
L 332.263238 152.490652 
L 330.634607 151.952565 
L 328.773315 151.574119 
L 326.679361 151.389213 
L 324.585407 151.431269 
L 322.491452 151.706936 
L 320.63016 152.184405 
L 319.001529 152.838801 
L 317.605559 153.646067 
L 316.442252 154.572232 
L 315.368602 155.73605 
L 314.567945 156.900167 
L 313.747438 158.52993 
L 313.096061 160.392517 
L 312.61215 162.487928 
L 312.296218 164.816161 
L 312.153882 167.610042 
L 312.230933 170.403922 
L 312.246804 170.636745 
L 312.246804 170.636745 
" style="fill:none;stroke:#443983;stroke-width:1.5;"/>
    <path clip-path="url(#pa6c67f8ceb)" d="M 354.125077 121.511015 
L 354.462143 124.072072 
L 354.946081 126.167483 
L 355.597382 128.03007 
L 356.41811 129.659833 
L 357.218514 130.82395 
L 358.321334 132.014402 
L 359.484642 132.933679 
L 360.880612 133.735287 
L 362.509243 134.385029 
L 364.370535 134.858638 
L 366.464489 135.130859 
L 368.558443 135.169796 
L 370.652397 134.981603 
L 372.51369 134.599705 
L 374.142321 134.057552 
L 375.538587 133.385007 
L 376.916298 132.453713 
L 377.928004 131.52242 
L 378.878295 130.358303 
L 379.726199 128.94802 
L 380.426893 127.331599 
L 380.990188 125.469013 
L 381.438635 123.140779 
L 381.691456 120.579722 
L 381.7396 117.785841 
L 381.574606 114.991961 
L 381.189331 112.198081 
L 380.611068 109.637024 
L 379.845555 107.30879 
L 379.01173 105.446203 
L 378.055674 103.816439 
L 376.93426 102.348655 
L 375.770952 101.177097 
L 374.374983 100.111999 
L 372.979013 99.330189 
L 371.350382 98.702386 
L 369.721751 98.332066 
L 368.09312 98.192116 
L 366.464489 98.272704 
L 364.835858 98.579391 
L 363.207227 99.134383 
L 361.781514 99.858442 
L 360.415288 100.809077 
L 359.175775 101.953853 
L 358.018576 103.350793 
L 356.986677 104.980556 
L 356.190164 106.61032 
L 355.4139 108.70573 
L 354.793761 111.033964 
L 354.338931 113.595021 
L 354.066595 116.388901 
L 354.007054 119.182782 
L 354.125077 121.511015 
L 354.125077 121.511015 
" style="fill:none;stroke:#443983;stroke-width:1.5;"/>
   </g>
   <g id="LineCollection_3">
    <path clip-path="url(#pa6c67f8ceb)" d="M 57.487847 171.800862 
L 57.794556 175.991683 
L 58.294457 179.716857 
L 58.919395 182.743561 
L 59.669636 185.304618 
L 60.514524 187.430682 
L 61.47608 189.262615 
L 62.608478 190.910309 
L 63.845401 192.289318 
L 65.20188 193.453435 
L 66.614863 194.384729 
L 68.192356 195.1699 
L 70.053648 195.82569 
L 71.939342 196.247316 
L 74.008895 196.468819 
L 76.102849 196.45406 
L 78.196803 196.197813 
L 80.058096 195.748798 
L 81.919388 195.055499 
L 83.548019 194.19969 
L 84.949684 193.220612 
L 86.339958 191.950573 
L 87.503266 190.567838 
L 88.511025 189.029791 
L 89.453736 187.167204 
L 90.295205 184.96359 
L 90.99319 182.487479 
L 91.594492 179.484033 
L 92.055426 175.991683 
L 92.351055 172.033686 
L 92.449521 167.842865 
L 92.326677 163.652045 
L 92.006493 160.159694 
L 91.530408 157.365814 
L 90.962623 155.270403 
L 90.295205 153.597452 
L 89.529086 152.2437 
L 88.60792 151.079583 
L 87.503266 150.083922 
L 86.339958 149.327843 
L 84.943989 148.671738 
L 83.082696 148.069073 
L 80.988742 147.629742 
L 78.429465 147.317945 
L 75.404864 147.178275 
L 72.380264 147.249658 
L 69.588325 147.519733 
L 67.26171 147.946516 
L 65.310975 148.518526 
L 63.714896 149.216996 
L 62.375817 150.061954 
L 61.44517 150.86955 
L 60.481542 152.010876 
L 59.647536 153.407816 
L 58.966599 155.03758 
L 58.42057 156.924413 
L 57.939899 159.461224 
L 57.603944 162.487928 
L 57.420001 166.213102 
L 57.435614 170.403922 
L 57.487847 171.800862 
L 57.487847 171.800862 
" style="fill:none;stroke:#31688e;stroke-width:1.5;"/>
    <path clip-path="url(#pa6c67f8ceb)" d="M 99.359819 122.675132 
L 99.664116 126.167483 
L 100.119588 128.961363 
L 100.662059 131.056773 
L 101.277036 132.686537 
L 102.019911 134.083477 
L 102.881757 135.247594 
L 103.826148 136.178887 
L 104.952884 136.993839 
L 106.348853 137.71901 
L 107.977484 138.311142 
L 110.071438 138.816863 
L 112.630716 139.182888 
L 115.655316 139.370172 
L 118.679917 139.343144 
L 121.704517 139.093932 
L 124.263794 138.653723 
L 126.125087 138.134079 
L 127.753718 137.461536 
L 129.149687 136.626418 
L 130.312995 135.631624 
L 131.243641 134.513627 
L 132.052419 133.152184 
L 132.733391 131.52242 
L 133.273535 129.659833 
L 133.724861 127.331599 
L 134.077131 124.304896 
L 134.274513 120.579722 
L 134.268242 116.29194 
L 134.053013 112.198081 
L 133.65516 108.472907 
L 133.098586 105.21338 
L 132.401955 102.419499 
L 131.597799 100.091266 
L 130.744981 98.228679 
L 129.78074 96.598915 
L 128.684364 95.154896 
L 127.354208 93.805035 
L 126.125087 92.835829 
L 124.496456 91.853942 
L 122.867825 91.134825 
L 121.006532 90.565978 
L 119.14524 90.221159 
L 117.051286 90.070585 
L 114.957331 90.157851 
L 113.096039 90.441525 
L 111.234746 90.940187 
L 109.606115 91.583805 
L 107.977484 92.468559 
L 106.465898 93.572211 
L 105.185546 94.795532 
L 104.022238 96.232254 
L 103.056419 97.763032 
L 102.144906 99.625619 
L 101.364354 101.721029 
L 100.657306 104.282086 
L 100.066991 107.31225 
L 99.621026 110.80114 
L 99.337904 114.759138 
L 99.251253 118.949958 
L 99.359819 122.675132 
L 99.359819 122.675132 
" style="fill:none;stroke:#31688e;stroke-width:1.5;"/>
    <path clip-path="url(#pa6c67f8ceb)" d="M 141.236014 172.732156 
L 141.569948 176.690153 
L 142.075882 180.182503 
L 142.738406 183.209207 
L 143.534588 185.770264 
L 144.420367 187.865675 
L 145.435997 189.682027 
L 146.481317 191.125202 
L 147.545113 192.289318 
L 148.925921 193.471731 
L 150.32189 194.389072 
L 151.950521 195.194511 
L 153.811814 195.842183 
L 155.673106 196.253055 
L 157.76706 196.471593 
L 159.861015 196.450273 
L 161.954969 196.187111 
L 163.816261 195.731141 
L 165.677554 195.029396 
L 167.325233 194.151905 
L 168.702154 193.17887 
L 170.098124 191.889265 
L 171.261432 190.48886 
L 172.211207 189.029791 
L 173.153864 187.167204 
L 173.959177 185.071794 
L 174.687454 182.510737 
L 175.294507 179.484033 
L 175.755445 175.991683 
L 176.050998 172.033686 
L 176.149616 167.842865 
L 176.026649 163.652045 
L 175.706574 160.159694 
L 175.230515 157.365814 
L 174.662528 155.270403 
L 174.015725 153.64064 
L 173.229044 152.2437 
L 172.307846 151.079583 
L 171.261432 150.128361 
L 170.098124 149.360364 
L 168.702154 148.694916 
L 166.840862 148.084426 
L 164.746908 147.639393 
L 162.18763 147.322853 
L 159.16303 147.178942 
L 156.138429 147.246266 
L 153.346491 147.511735 
L 151.019875 147.932936 
L 149.010965 148.518526 
L 147.529951 149.15717 
L 146.275945 149.915466 
L 145.168131 150.846759 
L 144.181668 152.010876 
L 143.347373 153.407816 
L 142.7497 154.804757 
L 142.178735 156.686377 
L 141.711729 158.995577 
L 141.342925 162.022281 
L 141.131915 165.747455 
L 141.12342 169.938275 
L 141.236014 172.732156 
L 141.236014 172.732156 
" style="fill:none;stroke:#31688e;stroke-width:1.5;"/>
    <path clip-path="url(#pa6c67f8ceb)" d="M 183.118795 123.606426 
L 183.456398 126.865953 
L 183.921862 129.42701 
L 184.523141 131.541558 
L 185.221126 133.199271 
L 186.031681 134.549124 
L 186.849757 135.541508 
L 187.812947 136.411711 
L 188.943711 137.166659 
L 190.33968 137.841607 
L 192.200973 138.46003 
L 194.294927 138.910828 
L 196.854204 139.232149 
L 199.878805 139.380315 
L 202.903405 139.317044 
L 205.695344 139.056151 
L 208.02196 138.640476 
L 210.089337 138.041474 
L 211.511883 137.432381 
L 212.824065 136.644534 
L 213.931726 135.713241 
L 214.769145 134.752906 
L 215.506383 133.61783 
L 216.171405 132.22089 
L 216.794034 130.358303 
L 217.309744 128.03007 
L 217.690661 125.236189 
L 217.935381 121.743839 
L 217.993345 117.553018 
L 217.835767 113.362197 
L 217.47545 109.4042 
L 216.937791 105.91185 
L 216.299472 103.117969 
L 215.565315 100.789736 
L 214.679626 98.694325 
L 213.634066 96.831739 
L 212.618786 95.434798 
L 211.511883 94.228572 
L 210.115914 93.044916 
L 208.719944 92.137533 
L 207.091313 91.341189 
L 205.230021 90.701568 
L 203.368728 90.297461 
L 201.274774 90.085815 
L 199.18082 90.113699 
L 197.086866 90.383799 
L 195.225573 90.846769 
L 193.364281 91.557038 
L 191.73565 92.432183 
L 190.33968 93.428019 
L 189.162573 94.503505 
L 187.965651 95.900445 
L 186.888875 97.530209 
L 186.050784 99.159972 
L 185.219427 101.255382 
L 184.469435 103.816439 
L 183.84434 106.843143 
L 183.393901 110.10267 
L 183.073033 114.060668 
L 182.950989 118.251488 
L 183.047359 122.442309 
L 183.118795 123.606426 
L 183.118795 123.606426 
" style="fill:none;stroke:#31688e;stroke-width:1.5;"/>
    <path clip-path="url(#pa6c67f8ceb)" d="M 224.995141 173.663449 
L 225.382799 177.621446 
L 225.936901 181.030671 
L 226.564469 183.674854 
L 227.33287 186.03489 
L 228.263516 188.153896 
L 229.319319 189.961085 
L 230.375515 191.358025 
L 231.520778 192.551766 
L 232.921248 193.686259 
L 234.435754 194.617552 
L 235.949267 195.316022 
L 237.802641 195.921034 
L 239.663933 196.29845 
L 241.757887 196.482755 
L 243.851842 196.428553 
L 245.945796 196.130447 
L 247.807088 195.639019 
L 249.435719 195.002962 
L 251.06435 194.127817 
L 252.46032 193.131981 
L 253.637427 192.056495 
L 254.834349 190.659555 
L 255.911125 189.029791 
L 256.749216 187.400028 
L 257.580573 185.304618 
L 258.330565 182.743561 
L 258.95566 179.716857 
L 259.406099 176.45733 
L 259.726967 172.499332 
L 259.849011 168.308512 
L 259.752641 164.117691 
L 259.464008 160.625341 
L 259.02823 157.83146 
L 258.437966 155.503227 
L 257.811536 153.847892 
L 257.080207 152.476523 
L 256.182905 151.272116 
L 255.252259 150.362798 
L 253.95364 149.449819 
L 252.540248 148.751349 
L 250.831689 148.164101 
L 248.737735 147.68959 
L 246.178457 147.348763 
L 243.153857 147.183424 
L 240.129256 147.230543 
L 237.337318 147.473407 
L 234.77804 147.919524 
L 232.710663 148.518526 
L 231.288117 149.127619 
L 229.975935 149.915466 
L 228.868274 150.846759 
L 228.030855 151.807094 
L 227.293617 152.94217 
L 226.628595 154.33911 
L 226.005966 156.201697 
L 225.490256 158.52993 
L 225.109339 161.323811 
L 224.864619 164.816161 
L 224.806655 169.006982 
L 224.964233 173.197803 
L 224.995141 173.663449 
L 224.995141 173.663449 
" style="fill:none;stroke:#31688e;stroke-width:1.5;"/>
    <path clip-path="url(#pa6c67f8ceb)" d="M 266.652533 119.182782 
L 266.787636 123.140779 
L 267.124119 126.633129 
L 267.62179 129.42701 
L 268.216576 131.52242 
L 268.89756 133.152184 
L 269.731606 134.549124 
L 270.718287 135.713241 
L 271.825858 136.644534 
L 273.167199 137.447008 
L 274.79583 138.124154 
L 276.657123 138.64712 
L 278.983739 139.060052 
L 281.775678 139.318667 
L 284.800278 139.379915 
L 287.824878 139.229615 
L 290.616817 138.865209 
L 292.710771 138.387658 
L 294.572064 137.731653 
L 295.968033 137.011718 
L 297.131341 136.17267 
L 298.068318 135.247594 
L 298.992634 133.982835 
L 299.690618 132.647101 
L 300.287941 131.056773 
L 300.830469 128.961363 
L 301.25651 126.400306 
L 301.562475 123.140779 
L 301.697342 119.182782 
L 301.622406 114.991961 
L 301.328997 110.80114 
L 300.844629 107.075967 
L 300.237434 104.049263 
L 299.509241 101.488206 
L 298.703791 99.392796 
L 297.761041 97.530209 
L 296.666018 95.875787 
L 295.487416 94.503505 
L 294.106741 93.265885 
L 292.710771 92.307388 
L 291.08214 91.46584 
L 289.453509 90.85582 
L 287.592217 90.389333 
L 285.498263 90.115754 
L 283.404309 90.084588 
L 281.310354 90.292795 
L 279.449062 90.693534 
L 277.587769 91.329155 
L 275.865057 92.175271 
L 274.452161 93.106565 
L 273.167199 94.200406 
L 272.003892 95.467867 
L 270.868345 97.064562 
L 269.970324 98.694325 
L 269.170997 100.556912 
L 268.414497 102.885146 
L 267.757291 105.679026 
L 267.232808 108.938554 
L 266.861717 112.663727 
L 266.668175 116.854548 
L 266.652533 119.182782 
L 266.652533 119.182782 
" style="fill:none;stroke:#31688e;stroke-width:1.5;"/>
    <path clip-path="url(#pa6c67f8ceb)" d="M 308.529085 170.171099 
L 308.746987 174.361919 
L 309.14484 178.087093 
L 309.701414 181.34662 
L 310.398045 184.140501 
L 311.202201 186.468734 
L 312.055019 188.331321 
L 313.01926 189.961085 
L 314.115636 191.405104 
L 315.445792 192.754965 
L 316.674913 193.724171 
L 318.303544 194.706058 
L 319.932175 195.425175 
L 321.793468 195.994022 
L 323.65476 196.338841 
L 325.748714 196.489415 
L 327.842669 196.402149 
L 329.703961 196.118475 
L 331.565254 195.619813 
L 333.193885 194.976195 
L 334.822516 194.091441 
L 336.334102 192.987789 
L 337.614454 191.764468 
L 338.777762 190.327746 
L 339.743581 188.796968 
L 340.655094 186.934381 
L 341.435646 184.838971 
L 342.142694 182.277914 
L 342.733009 179.24775 
L 343.178974 175.75886 
L 343.462096 171.800862 
L 343.548747 167.610042 
L 343.412457 163.419221 
L 343.075745 159.926871 
L 342.578154 157.13299 
L 341.983444 155.03758 
L 341.302531 153.407816 
L 340.468378 152.010876 
L 339.708151 151.079583 
L 338.545101 150.040153 
L 337.235016 149.216996 
L 335.753162 148.5602 
L 333.891869 147.995392 
L 331.565254 147.548619 
L 328.773315 147.262189 
L 325.748714 147.176542 
L 322.724114 147.301476 
L 319.932175 147.634552 
L 317.605559 148.13968 
L 315.744267 148.778595 
L 314.348297 149.478026 
L 313.076308 150.381113 
L 312.131947 151.312406 
L 311.269847 152.476523 
L 310.527108 153.873463 
L 309.911918 155.503227 
L 309.36963 157.598637 
L 308.943476 160.159694 
L 308.637639 163.419221 
L 308.50259 167.377218 
L 308.529085 170.171099 
L 308.529085 170.171099 
" style="fill:none;stroke:#31688e;stroke-width:1.5;"/>
    <path clip-path="url(#pa6c67f8ceb)" d="M 350.405179 121.511015 
L 350.659232 125.236189 
L 351.082177 128.262893 
L 351.621446 130.591127 
L 352.275172 132.453713 
L 352.977536 133.850654 
L 353.900764 135.153143 
L 354.926299 136.178887 
L 355.994719 136.957697 
L 357.390688 137.693477 
L 359.019319 138.293552 
L 361.113273 138.805737 
L 363.67255 139.176925 
L 366.697151 139.368659 
L 369.721751 139.34564 
L 372.746352 139.101165 
L 375.305629 138.666806 
L 377.399583 138.07358 
L 379.028214 137.372876 
L 380.224234 136.644534 
L 381.35483 135.69045 
L 382.318458 134.549124 
L 383.152464 133.152184 
L 383.833401 131.52242 
L 384.37943 129.635587 
L 384.860101 127.098776 
L 385.196056 124.072072 
L 385.379999 120.346898 
L 385.364386 116.156078 
L 385.134197 111.965257 
L 384.72265 108.240083 
L 384.146769 104.96837 
L 383.432017 102.186676 
L 382.602903 99.858442 
L 381.721315 97.995855 
L 380.656845 96.273233 
L 379.493537 94.827166 
L 378.184137 93.572211 
L 376.93426 92.637959 
L 375.305629 91.708488 
L 373.622737 91.011154 
L 371.815705 90.498093 
L 369.954413 90.185671 
L 367.860459 90.06852 
L 365.766505 90.189001 
L 363.730569 90.545508 
L 362.043919 91.039922 
L 360.415288 91.722641 
L 358.786657 92.657219 
L 357.29587 93.805035 
L 356.128805 94.969152 
L 355.028259 96.366092 
L 354.028688 97.995855 
L 353.147046 99.858442 
L 352.318063 102.186676 
L 351.651437 104.747733 
L 351.095279 107.774437 
L 350.655499 111.499611 
L 350.400368 115.690431 
L 350.360949 119.881252 
L 350.405179 121.511015 
L 350.405179 121.511015 
" style="fill:none;stroke:#31688e;stroke-width:1.5;"/>
   </g>
   <g id="LineCollection_4">
    <path clip-path="url(#pa6c67f8ceb)" d="M 388.8 226.98 
L 347.153579 226.98 
L 346.950001 226.747177 
L 346.920917 143.28 
L 305.274496 143.28 
L 305.100001 143.163588 
L 305.100001 59.812823 
L 305.274496 59.58 
L 346.920917 59.58 
L 346.950001 60.511293 
L 346.950001 143.163588 
L 347.153579 143.28 
L 388.8 143.28 
L 388.8 143.28 
" style="fill:none;stroke:#21908d;stroke-width:1.5;"/>
    <path clip-path="url(#pa6c67f8ceb)" d="M 54 143.163588 
L 54 59.812823 
L 54.232662 59.58 
L 95.646421 59.58 
L 95.849999 59.812823 
L 95.849999 143.163588 
L 95.646421 143.28 
L 54.232662 143.28 
L 54 143.163588 
L 54 143.163588 
" style="fill:none;stroke:#21908d;stroke-width:1.5;"/>
    <path clip-path="url(#pa6c67f8ceb)" d="M 95.849999 226.747177 
L 95.879083 143.28 
L 137.525504 143.28 
L 137.699999 143.163588 
L 137.758165 59.58 
L 179.404587 59.58 
L 179.549999 59.812823 
L 179.549999 143.163588 
L 179.404587 143.28 
L 137.758165 143.28 
L 137.699999 143.629235 
L 137.699999 226.747177 
L 137.525504 226.98 
L 95.879083 226.98 
L 95.849999 226.747177 
L 95.849999 226.747177 
" style="fill:none;stroke:#21908d;stroke-width:1.5;"/>
    <path clip-path="url(#pa6c67f8ceb)" d="M 179.549999 226.747177 
L 179.637248 143.28 
L 221.283669 143.28 
L 221.4 143.396412 
L 221.4 226.747177 
L 221.283669 226.98 
L 179.637248 226.98 
L 179.549999 226.747177 
L 179.549999 226.747177 
" style="fill:none;stroke:#21908d;stroke-width:1.5;"/>
    <path clip-path="url(#pa6c67f8ceb)" d="M 221.4 143.163588 
L 221.4 59.812823 
L 221.516331 59.58 
L 263.162752 59.58 
L 263.250001 60.045647 
L 263.250001 143.163588 
L 263.395413 143.28 
L 305.041835 143.28 
L 305.100001 143.629235 
L 305.041835 226.98 
L 263.395413 226.98 
L 263.250001 226.747177 
L 263.162752 143.28 
L 221.516331 143.28 
L 221.4 143.163588 
L 221.4 143.163588 
" style="fill:none;stroke:#21908d;stroke-width:1.5;"/>
   </g>
   <g id="LineCollection_5">
    <path clip-path="url(#pa6c67f8ceb)" d="M 57.485519 122.209485 
L 57.401015 118.251488 
L 57.523005 114.060668 
L 57.843975 110.10267 
L 58.334559 106.61032 
L 58.978077 103.583616 
L 59.750862 101.022559 
L 60.608765 98.927149 
L 61.618454 97.064562 
L 62.608478 95.649691 
L 63.845401 94.270682 
L 65.20188 93.106565 
L 66.614863 92.175271 
L 68.192356 91.3901 
L 70.053648 90.73431 
L 71.939342 90.312684 
L 74.008895 90.091181 
L 76.102849 90.10594 
L 78.196803 90.362187 
L 80.058096 90.811202 
L 81.919388 91.504501 
L 83.548019 92.36031 
L 84.949684 93.339388 
L 86.339958 94.609427 
L 87.503266 95.992162 
L 88.511025 97.530209 
L 89.453736 99.392796 
L 90.295205 101.59641 
L 90.99319 104.072521 
L 91.594492 107.075967 
L 92.055426 110.568317 
L 92.351055 114.526314 
L 92.449521 118.717135 
L 92.326677 122.907955 
L 92.006493 126.400306 
L 91.530408 129.194186 
L 90.962623 131.289597 
L 90.295205 132.962548 
L 89.529086 134.3163 
L 88.60792 135.480417 
L 87.503266 136.476078 
L 86.339958 137.232157 
L 84.943989 137.888262 
L 83.082696 138.490927 
L 80.988742 138.930258 
L 78.429465 139.242055 
L 75.404864 139.381725 
L 72.380264 139.310342 
L 69.588325 139.040267 
L 67.26171 138.613484 
L 65.310975 138.041474 
L 63.714896 137.343004 
L 62.375817 136.498046 
L 61.44517 135.69045 
L 60.481542 134.549124 
L 59.647536 133.152184 
L 58.966599 131.52242 
L 58.42057 129.635587 
L 57.939899 127.098776 
L 57.603944 124.072072 
L 57.485519 122.209485 
L 57.485519 122.209485 
" style="fill:none;stroke:#35b779;stroke-width:1.5;"/>
    <path clip-path="url(#pa6c67f8ceb)" d="M 99.360584 172.266509 
L 99.250436 168.075688 
L 99.359819 163.884868 
L 99.664116 160.392517 
L 100.119588 157.598637 
L 100.662059 155.503227 
L 101.277036 153.873463 
L 102.019911 152.476523 
L 102.881757 151.312406 
L 103.826148 150.381113 
L 104.952884 149.566161 
L 106.348853 148.84099 
L 107.977484 148.248858 
L 110.071438 147.743137 
L 112.630716 147.377112 
L 115.655316 147.189828 
L 118.679917 147.216856 
L 121.704517 147.466068 
L 124.263794 147.906277 
L 126.125087 148.425921 
L 127.753718 149.098464 
L 129.149687 149.933582 
L 130.312995 150.928376 
L 131.243641 152.046373 
L 132.052419 153.407816 
L 132.733391 155.03758 
L 133.273535 156.900167 
L 133.724861 159.228401 
L 134.077131 162.255104 
L 134.274513 165.980278 
L 134.268242 170.26806 
L 134.053013 174.361919 
L 133.65516 178.087093 
L 133.098586 181.34662 
L 132.401955 184.140501 
L 131.597799 186.468734 
L 130.744981 188.331321 
L 129.78074 189.961085 
L 128.684364 191.405104 
L 127.354208 192.754965 
L 126.125087 193.724171 
L 124.496456 194.706058 
L 122.867825 195.425175 
L 121.006532 195.994022 
L 119.14524 196.338841 
L 117.051286 196.489415 
L 114.957331 196.402149 
L 113.096039 196.118475 
L 111.234746 195.619813 
L 109.606115 194.976195 
L 107.977484 194.091441 
L 106.465898 192.987789 
L 105.185546 191.764468 
L 104.022238 190.327746 
L 103.056419 188.796968 
L 102.144906 186.934381 
L 101.364354 184.838971 
L 100.657306 182.277914 
L 100.066991 179.24775 
L 99.621026 175.75886 
L 99.360584 172.266509 
L 99.360584 172.266509 
" style="fill:none;stroke:#35b779;stroke-width:1.5;"/>
    <path clip-path="url(#pa6c67f8ceb)" d="M 141.237525 123.140779 
L 141.102658 119.182782 
L 141.177594 114.991961 
L 141.471003 110.80114 
L 141.955371 107.075967 
L 142.562566 104.049263 
L 143.290759 101.488206 
L 144.096209 99.392796 
L 145.038959 97.530209 
L 146.133982 95.875787 
L 147.312584 94.503505 
L 148.693259 93.265885 
L 150.089229 92.307388 
L 151.71786 91.46584 
L 153.346491 90.85582 
L 155.207783 90.389333 
L 157.301737 90.115754 
L 159.395691 90.084588 
L 161.489646 90.292795 
L 163.350938 90.693534 
L 165.212231 91.329155 
L 166.934943 92.175271 
L 168.347839 93.106565 
L 169.632801 94.200406 
L 170.796108 95.467867 
L 171.931655 97.064562 
L 172.829676 98.694325 
L 173.629003 100.556912 
L 174.385503 102.885146 
L 175.042709 105.679026 
L 175.567192 108.938554 
L 175.938283 112.663727 
L 176.131825 116.854548 
L 176.111103 121.045369 
L 175.886103 124.770542 
L 175.499789 127.797246 
L 174.984017 130.210849 
L 174.413006 131.988067 
L 173.656319 133.61783 
L 172.890063 134.791353 
L 171.959416 135.832266 
L 170.796108 136.768166 
L 169.400139 137.560544 
L 168.00417 138.124154 
L 166.142877 138.64712 
L 163.816261 139.060052 
L 161.024322 139.318667 
L 157.999722 139.379915 
L 154.975122 139.229615 
L 152.183183 138.865209 
L 150.089229 138.387658 
L 148.227936 137.731653 
L 146.831967 137.011718 
L 145.668659 136.17267 
L 144.731682 135.247594 
L 143.807366 133.982835 
L 143.109382 132.647101 
L 142.512059 131.056773 
L 141.969531 128.961363 
L 141.54349 126.400306 
L 141.237525 123.140779 
L 141.237525 123.140779 
" style="fill:none;stroke:#35b779;stroke-width:1.5;"/>
    <path clip-path="url(#pa6c67f8ceb)" d="M 183.114181 173.197803 
L 182.956694 169.006982 
L 183.014624 164.816161 
L 183.283706 161.090987 
L 183.726059 158.064284 
L 184.290479 155.734305 
L 184.988464 153.847892 
L 185.719793 152.476523 
L 186.617095 151.272116 
L 187.547741 150.362798 
L 188.84636 149.449819 
L 190.259752 148.751349 
L 191.968311 148.164101 
L 194.062265 147.68959 
L 196.621543 147.348763 
L 199.646143 147.183424 
L 202.670744 147.230543 
L 205.462682 147.473407 
L 208.02196 147.919524 
L 210.089337 148.518526 
L 211.511883 149.127619 
L 212.824065 149.915466 
L 213.931726 150.846759 
L 214.769145 151.807094 
L 215.506383 152.94217 
L 216.171405 154.33911 
L 216.794034 156.201697 
L 217.309744 158.52993 
L 217.690661 161.323811 
L 217.935381 164.816161 
L 217.993345 169.006982 
L 217.835767 173.197803 
L 217.47545 177.1558 
L 216.937791 180.64815 
L 216.299472 183.442031 
L 215.565315 185.770264 
L 214.679626 187.865675 
L 213.634066 189.728261 
L 212.618786 191.125202 
L 211.511883 192.331428 
L 210.115914 193.515084 
L 208.719944 194.422467 
L 207.091313 195.218811 
L 205.230021 195.858432 
L 203.368728 196.262539 
L 201.274774 196.474185 
L 199.18082 196.446301 
L 197.086866 196.176201 
L 195.225573 195.713231 
L 193.364281 195.002962 
L 191.73565 194.127817 
L 190.33968 193.131981 
L 189.162573 192.056495 
L 187.965651 190.659555 
L 186.888875 189.029791 
L 186.050784 187.400028 
L 185.219427 185.304618 
L 184.469435 182.743561 
L 183.84434 179.716857 
L 183.393901 176.45733 
L 183.114181 173.197803 
L 183.114181 173.197803 
" style="fill:none;stroke:#35b779;stroke-width:1.5;"/>
    <path clip-path="url(#pa6c67f8ceb)" d="M 225.003809 124.072072 
L 224.819976 120.346898 
L 224.835625 116.156078 
L 225.065809 111.965257 
L 225.477205 108.240083 
L 226.050792 104.980556 
L 226.768136 102.186676 
L 227.596982 99.858442 
L 228.496178 97.96294 
L 229.47832 96.366092 
L 230.590132 94.955956 
L 231.75344 93.797884 
L 233.149409 92.715643 
L 234.77804 91.765595 
L 236.577335 91.011154 
L 238.267964 90.524669 
L 240.129256 90.199284 
L 242.223211 90.068796 
L 244.317165 90.175967 
L 246.178457 90.478744 
L 248.072988 91.011154 
L 249.757181 91.709624 
L 251.297012 92.580436 
L 252.692981 93.621347 
L 253.859449 94.736328 
L 255.019597 96.151242 
L 256.043444 97.763032 
L 256.954935 99.625619 
L 257.735666 101.721029 
L 258.442726 104.282086 
L 259.032336 107.30879 
L 259.478939 110.80114 
L 259.76203 114.759138 
L 259.848781 118.949958 
L 259.712422 123.140779 
L 259.375774 126.633129 
L 258.878138 129.42701 
L 258.276859 131.541558 
L 257.578874 133.199271 
L 256.768319 134.549124 
L 255.950243 135.541508 
L 254.987053 136.411711 
L 253.856289 137.166659 
L 252.46032 137.841607 
L 250.599027 138.46003 
L 248.505073 138.910828 
L 245.945796 139.232149 
L 242.921195 139.380315 
L 239.896595 139.317044 
L 237.104656 139.056151 
L 234.77804 138.640476 
L 232.710663 138.041474 
L 231.288117 137.432381 
L 229.975935 136.644534 
L 228.868274 135.713241 
L 228.030855 134.752906 
L 227.293617 133.61783 
L 226.628595 132.22089 
L 226.005966 130.358303 
L 225.490256 128.03007 
L 225.109339 125.236189 
L 225.003809 124.072072 
L 225.003809 124.072072 
" style="fill:none;stroke:#35b779;stroke-width:1.5;"/>
    <path clip-path="url(#pa6c67f8ceb)" d="M 266.652137 168.541335 
L 266.735634 164.350515 
L 267.009292 160.858164 
L 267.426043 158.064284 
L 267.99009 155.73605 
L 268.677077 153.873463 
L 269.444614 152.437248 
L 270.375261 151.206919 
L 271.305907 150.314408 
L 272.546324 149.449819 
L 273.959786 148.751349 
L 275.726477 148.14777 
L 277.820431 147.679288 
L 280.379708 147.343396 
L 283.404309 147.182374 
L 286.428909 147.233523 
L 289.220848 147.480854 
L 291.547464 147.880273 
L 293.641418 148.466 
L 295.270049 149.15717 
L 296.524055 149.915466 
L 297.631869 150.846759 
L 298.618332 152.010876 
L 299.452627 153.407816 
L 300.0503 154.804757 
L 300.621265 156.686377 
L 301.088271 158.995577 
L 301.457075 162.022281 
L 301.668085 165.747455 
L 301.67658 169.938275 
L 301.47093 174.129096 
L 301.055231 178.087093 
L 300.498423 181.34662 
L 299.80176 184.140501 
L 298.992634 186.482221 
L 298.021434 188.564145 
L 297.021572 190.193908 
L 295.921334 191.590848 
L 294.572064 192.913926 
L 293.176095 193.960509 
L 291.547464 194.879828 
L 289.918833 195.550484 
L 288.05754 196.074862 
L 286.196247 196.380847 
L 284.102293 196.491342 
L 282.008339 196.364192 
L 280.030965 196.014492 
L 278.285754 195.499477 
L 276.657123 194.808812 
L 275.028492 193.863953 
L 273.595653 192.754965 
L 272.428637 191.590848 
L 271.305907 190.162063 
L 270.328583 188.564145 
L 269.444614 186.69613 
L 268.618139 184.373324 
L 267.951451 181.812267 
L 267.395347 178.785563 
L 266.976654 175.293213 
L 266.708835 171.102392 
L 266.652137 168.541335 
L 266.652137 168.541335 
" style="fill:none;stroke:#35b779;stroke-width:1.5;"/>
    <path clip-path="url(#pa6c67f8ceb)" d="M 308.525487 120.579722 
L 308.531758 116.29194 
L 308.746987 112.198081 
L 309.14484 108.472907 
L 309.701414 105.21338 
L 310.398045 102.419499 
L 311.202201 100.091266 
L 312.055019 98.228679 
L 313.01926 96.598915 
L 314.115636 95.154896 
L 315.445792 93.805035 
L 316.674913 92.835829 
L 318.303544 91.853942 
L 319.932175 91.134825 
L 321.793468 90.565978 
L 323.65476 90.221159 
L 325.748714 90.070585 
L 327.842669 90.157851 
L 329.703961 90.441525 
L 331.565254 90.940187 
L 333.193885 91.583805 
L 334.822516 92.468559 
L 336.334102 93.572211 
L 337.614454 94.795532 
L 338.777762 96.232254 
L 339.743581 97.763032 
L 340.655094 99.625619 
L 341.435646 101.721029 
L 342.142694 104.282086 
L 342.733009 107.31225 
L 343.178974 110.80114 
L 343.462096 114.759138 
L 343.548747 118.949958 
L 343.412457 123.140779 
L 343.075745 126.633129 
L 342.578154 129.42701 
L 341.983444 131.52242 
L 341.302531 133.152184 
L 340.468378 134.549124 
L 339.708151 135.480417 
L 338.545101 136.519847 
L 337.235016 137.343004 
L 335.753162 137.9998 
L 333.891869 138.564608 
L 331.565254 139.011381 
L 328.773315 139.297811 
L 325.748714 139.383458 
L 322.724114 139.258524 
L 319.932175 138.925448 
L 317.605559 138.42032 
L 315.744267 137.781405 
L 314.348297 137.081974 
L 313.076308 136.178887 
L 312.131947 135.247594 
L 311.269847 134.083477 
L 310.527108 132.686537 
L 309.911918 131.056773 
L 309.36963 128.961363 
L 308.943476 126.400306 
L 308.637639 123.140779 
L 308.525487 120.579722 
L 308.525487 120.579722 
" style="fill:none;stroke:#35b779;stroke-width:1.5;"/>
    <path clip-path="url(#pa6c67f8ceb)" d="M 350.408739 171.102392 
L 350.357489 166.911572 
L 350.518915 162.953574 
L 350.876164 159.555612 
L 351.341487 157.047951 
L 351.916616 155.03758 
L 352.597573 153.407816 
L 353.435441 152.005253 
L 354.418192 150.846759 
L 355.529395 149.912763 
L 356.925365 149.084034 
L 358.553996 148.416057 
L 360.415288 147.899715 
L 362.741904 147.492228 
L 365.533843 147.238147 
L 368.558443 147.180943 
L 371.583044 147.33552 
L 374.142321 147.664083 
L 376.468937 148.188979 
L 378.330229 148.853715 
L 379.726199 149.584167 
L 380.889507 150.43728 
L 381.820153 151.372631 
L 382.630079 152.476523 
L 383.372912 153.873463 
L 383.987965 155.503227 
L 384.530376 157.598637 
L 384.95648 160.159694 
L 385.262407 163.419221 
L 385.397343 167.377218 
L 385.322493 171.568039 
L 385.028922 175.75886 
L 384.544516 179.484033 
L 383.914107 182.607568 
L 383.20937 185.071794 
L 382.403721 187.167204 
L 381.460991 189.029791 
L 380.384377 190.659555 
L 379.187138 192.056495 
L 377.864906 193.248318 
L 376.468937 194.21744 
L 374.806412 195.083199 
L 373.211675 195.685887 
L 371.350382 196.159441 
L 369.256428 196.439995 
L 367.162474 196.477729 
L 365.06852 196.276385 
L 363.207227 195.882354 
L 361.345935 195.254683 
L 359.717304 194.471792 
L 358.152046 193.453435 
L 356.925365 192.415359 
L 355.731104 191.125202 
L 354.598749 189.544413 
L 353.668103 187.861564 
L 352.784608 185.770264 
L 352.039472 183.401763 
L 351.412207 180.64815 
L 350.903129 177.388623 
L 350.545252 173.663449 
L 350.408739 171.102392 
L 350.408739 171.102392 
" style="fill:none;stroke:#35b779;stroke-width:1.5;"/>
   </g>
   <g id="LineCollection_6">
    <path clip-path="url(#pa6c67f8ceb)" d="M 61.196116 121.743839 
L 61.053849 118.949958 
L 61.131099 116.156078 
L 61.421685 113.362197 
L 61.910493 110.738399 
L 62.538732 108.472907 
L 63.342247 106.377497 
L 64.303797 104.51491 
L 65.420341 102.885146 
L 66.563725 101.610005 
L 67.790547 100.556912 
L 69.123002 99.689863 
L 70.518972 99.02692 
L 72.147603 98.514178 
L 73.776233 98.244856 
L 75.404864 98.199677 
L 77.033495 98.375567 
L 78.662126 98.784861 
L 80.157861 99.392796 
L 81.454065 100.131048 
L 82.850035 101.202881 
L 84.045548 102.419499 
L 85.17665 103.923267 
L 86.107297 105.53547 
L 86.895576 107.30879 
L 87.595812 109.4042 
L 88.15166 111.732434 
L 88.549616 114.293491 
L 88.768024 117.087371 
L 88.774265 119.881252 
L 88.551351 122.675132 
L 88.149915 125.003366 
L 87.559532 127.098776 
L 86.885603 128.72854 
L 86.087968 130.12548 
L 85.17665 131.306716 
L 84.013343 132.415747 
L 82.850035 133.231534 
L 81.454065 133.947874 
L 79.747572 134.549124 
L 77.964142 134.940914 
L 75.870188 135.158921 
L 73.776233 135.148025 
L 71.682279 134.906505 
L 69.820987 134.467019 
L 68.176172 133.850654 
L 66.796386 133.105404 
L 65.603549 132.22089 
L 64.457315 131.056773 
L 63.539124 129.776785 
L 62.747962 128.262893 
L 62.135933 126.633129 
L 61.601167 124.537719 
L 61.243592 122.209485 
L 61.196116 121.743839 
L 61.196116 121.743839 
" style="fill:none;stroke:#90d743;stroke-width:1.5;"/>
    <path clip-path="url(#pa6c67f8ceb)" d="M 103.075408 171.568039 
L 102.910336 168.774159 
L 102.958542 165.980278 
L 103.211389 163.419221 
L 103.659814 161.090987 
L 104.254899 159.142626 
L 104.952884 157.555724 
L 105.771744 156.201697 
L 106.722086 155.03758 
L 107.744823 154.097311 
L 109.11175 153.174993 
L 110.536762 152.490652 
L 112.165393 151.952565 
L 114.026685 151.574119 
L 116.120639 151.389213 
L 118.214593 151.431269 
L 120.308548 151.706936 
L 122.16984 152.184405 
L 123.798471 152.838801 
L 125.194441 153.646067 
L 126.357748 154.572232 
L 127.431398 155.73605 
L 128.232055 156.900167 
L 129.052562 158.52993 
L 129.703939 160.392517 
L 130.18785 162.487928 
L 130.503782 164.816161 
L 130.646118 167.610042 
L 130.569067 170.403922 
L 130.278267 173.197803 
L 129.803864 175.75886 
L 129.149687 178.12313 
L 128.357563 180.182503 
L 127.396117 182.04509 
L 126.357748 183.57506 
L 125.194441 184.892736 
L 123.909279 186.003088 
L 122.635163 186.837444 
L 121.239194 187.509841 
L 119.610563 188.031877 
L 117.981932 188.309455 
L 116.353301 188.362494 
L 114.72467 188.194617 
L 113.096039 187.794051 
L 111.542007 187.167204 
L 110.3041 186.466929 
L 108.908131 185.408529 
L 107.654746 184.140501 
L 106.581515 182.724789 
L 105.638242 181.113797 
L 104.804415 179.25121 
L 104.104173 177.1558 
L 103.548165 174.827566 
L 103.123775 172.033686 
L 103.075408 171.568039 
L 103.075408 171.568039 
" style="fill:none;stroke:#90d743;stroke-width:1.5;"/>
    <path clip-path="url(#pa6c67f8ceb)" d="M 144.969941 122.442309 
L 144.775601 119.881252 
L 144.781867 117.087371 
L 145.000212 114.293491 
L 145.444764 111.499611 
L 146.091403 108.938554 
L 146.841398 106.843143 
L 147.762613 104.933259 
L 148.768597 103.350793 
L 149.925747 101.953853 
L 151.190025 100.789736 
L 152.415844 99.928062 
L 153.898751 99.159972 
L 155.440445 98.618383 
L 157.069076 98.290682 
L 158.697707 98.190367 
L 160.326338 98.310465 
L 161.954969 98.659378 
L 163.5836 99.262525 
L 165.092154 100.091266 
L 166.375539 101.050539 
L 167.540311 102.186676 
L 168.702154 103.663253 
L 169.63997 105.21338 
L 170.50361 107.075967 
L 171.228509 109.171377 
L 171.804988 111.499611 
L 172.221789 114.060668 
L 172.458073 116.854548 
L 172.482113 119.648428 
L 172.279774 122.442309 
L 171.900667 124.770542 
L 171.338486 126.865953 
L 170.696465 128.495716 
L 169.865462 130.007199 
L 168.891698 131.289597 
L 167.771508 132.368092 
L 166.6082 133.196214 
L 165.212231 133.922626 
L 163.5836 134.510342 
L 161.722307 134.931331 
L 159.628353 135.156027 
L 157.534399 135.151357 
L 155.440445 134.916585 
L 153.579152 134.484536 
L 151.876728 133.850654 
L 150.554552 133.142286 
L 149.303848 132.22089 
L 148.227936 131.139985 
L 147.29729 129.870772 
L 146.553396 128.495716 
L 145.90132 126.835685 
L 145.34939 124.770542 
L 144.969941 122.442309 
L 144.969941 122.442309 
" style="fill:none;stroke:#90d743;stroke-width:1.5;"/>
    <path clip-path="url(#pa6c67f8ceb)" d="M 186.615861 169.006982 
L 186.645838 166.213102 
L 186.878839 163.652045 
L 187.31508 161.274652 
L 187.923439 159.228401 
L 188.630943 157.598637 
L 189.471646 156.201697 
L 190.422065 155.03758 
L 191.502988 154.051454 
L 192.812141 153.174993 
L 194.272205 152.476523 
L 195.690896 151.999832 
L 197.552189 151.600513 
L 199.646143 151.395811 
L 201.740097 151.419164 
L 203.834051 151.674261 
L 205.695344 152.128776 
L 207.323975 152.755589 
L 208.719944 153.529741 
L 209.883252 154.414938 
L 210.942285 155.503227 
L 211.788777 156.667344 
L 212.546462 158.064284 
L 213.188569 159.694047 
L 213.750606 161.789458 
L 214.129831 164.117691 
L 214.324466 166.678748 
L 214.318248 169.472629 
L 214.099794 172.266509 
L 213.655064 175.060389 
L 213.0784 177.388623 
L 212.353537 179.484033 
L 211.489864 181.34662 
L 210.496714 182.976384 
L 209.390055 184.373324 
L 208.192163 185.537441 
L 206.858652 186.523004 
L 205.462682 187.284138 
L 203.834051 187.89218 
L 202.20542 188.24536 
L 200.576789 188.369424 
L 198.948158 188.273058 
L 197.319527 187.949575 
L 195.690896 187.375476 
L 194.294927 186.649684 
L 192.898958 185.656142 
L 191.73565 184.564229 
L 190.572342 183.1456 
L 189.586649 181.579444 
L 188.691461 179.716857 
L 187.941497 177.621446 
L 187.31508 175.158586 
L 186.878208 172.499332 
L 186.641896 169.705452 
L 186.615861 169.006982 
L 186.615861 169.006982 
" style="fill:none;stroke:#90d743;stroke-width:1.5;"/>
    <path clip-path="url(#pa6c67f8ceb)" d="M 228.49571 120.346898 
L 228.465989 117.553018 
L 228.648993 114.759138 
L 229.053673 111.965257 
L 229.659486 109.384563 
L 230.446463 107.075967 
L 231.310136 105.21338 
L 232.303286 103.583616 
L 233.409945 102.186676 
L 234.607837 101.022559 
L 235.941348 100.036996 
L 237.337318 99.275862 
L 238.965949 98.66782 
L 240.59458 98.31464 
L 242.223211 98.190576 
L 243.851842 98.286942 
L 245.480473 98.610425 
L 247.109104 99.184524 
L 248.505073 99.910316 
L 249.901042 100.903858 
L 251.06435 101.995771 
L 252.227658 103.4144 
L 253.213351 104.980556 
L 254.108539 106.843143 
L 254.858503 108.938554 
L 255.48492 111.401414 
L 255.921792 114.060668 
L 256.158104 116.854548 
L 256.18233 119.648428 
L 255.979927 122.442309 
L 255.600588 124.770542 
L 255.019597 126.923002 
L 254.285757 128.72854 
L 253.390966 130.268409 
L 252.46032 131.434456 
L 251.365954 132.453713 
L 250.133704 133.300878 
L 248.737735 133.997408 
L 247.109104 134.560168 
L 245.247811 134.959487 
L 243.153857 135.164189 
L 241.059903 135.140836 
L 238.965949 134.885739 
L 237.104656 134.431224 
L 235.476025 133.804411 
L 234.080056 133.030259 
L 232.916748 132.145062 
L 231.857715 131.056773 
L 231.011223 129.892656 
L 230.253538 128.495716 
L 229.611431 126.865953 
L 229.049394 124.770542 
L 228.670169 122.442309 
L 228.49571 120.346898 
L 228.49571 120.346898 
" style="fill:none;stroke:#90d743;stroke-width:1.5;"/>
    <path clip-path="url(#pa6c67f8ceb)" d="M 270.366394 170.171099 
L 270.307004 167.377218 
L 270.469124 164.583338 
L 270.850936 162.022281 
L 271.386213 159.926871 
L 272.103535 158.064284 
L 272.934538 156.552801 
L 273.908302 155.270403 
L 275.028492 154.191908 
L 276.1918 153.363786 
L 277.587769 152.637374 
L 279.2164 152.049658 
L 281.077693 151.628669 
L 283.171647 151.403973 
L 285.265601 151.408643 
L 287.359555 151.643415 
L 289.220848 152.075464 
L 290.923272 152.709346 
L 292.245448 153.417714 
L 293.496152 154.33911 
L 294.572064 155.420015 
L 295.50271 156.689228 
L 296.246604 158.064284 
L 296.89868 159.724315 
L 297.45061 161.789458 
L 297.830059 164.117691 
L 298.024399 166.678748 
L 298.018133 169.472629 
L 297.799788 172.266509 
L 297.355236 175.060389 
L 296.708597 177.621446 
L 295.958602 179.716857 
L 295.037387 181.626741 
L 294.031403 183.209207 
L 292.874253 184.606147 
L 291.609975 185.770264 
L 290.384156 186.631938 
L 288.901249 187.400028 
L 287.359555 187.941617 
L 285.730924 188.269318 
L 284.102293 188.369633 
L 282.473662 188.249535 
L 280.845031 187.900622 
L 279.2164 187.297475 
L 277.707846 186.468734 
L 276.424461 185.509461 
L 275.259689 184.373324 
L 274.097846 182.896747 
L 273.16003 181.34662 
L 272.29639 179.484033 
L 271.571491 177.388623 
L 270.995012 175.060389 
L 270.578211 172.499332 
L 270.366394 170.171099 
L 270.366394 170.171099 
" style="fill:none;stroke:#90d743;stroke-width:1.5;"/>
    <path clip-path="url(#pa6c67f8ceb)" d="M 312.238337 121.045369 
L 312.153368 118.251488 
L 312.283205 115.457608 
L 312.630072 112.663727 
L 313.18499 110.026219 
L 313.882974 107.764072 
L 314.770891 105.679026 
L 315.744267 103.967725 
L 316.708171 102.652323 
L 317.838221 101.44248 
L 319.23419 100.308093 
L 320.63016 99.472881 
L 322.026129 98.874163 
L 323.65476 98.425085 
L 325.283391 98.212925 
L 326.983157 98.228679 
L 328.568693 98.461502 
L 330.170215 98.927149 
L 331.709309 99.625619 
L 332.961223 100.410912 
L 334.25941 101.488206 
L 335.341697 102.652323 
L 336.451147 104.195198 
L 337.392714 105.91185 
L 338.253546 108.00726 
L 338.88447 110.10267 
L 339.419996 112.663727 
L 339.766701 115.457608 
L 339.896739 118.251488 
L 339.811442 121.045369 
L 339.517733 123.606426 
L 339.019365 125.934659 
L 338.398346 127.797246 
L 337.614454 129.433065 
L 336.68185 130.82395 
L 335.606887 131.988067 
L 334.435918 132.91936 
L 333.193885 133.649413 
L 331.565254 134.327426 
L 329.703961 134.824416 
L 327.842669 135.097018 
L 325.748714 135.179744 
L 323.65476 135.036922 
L 321.793468 134.70265 
L 320.164837 134.214401 
L 318.768867 133.605102 
L 317.372898 132.749985 
L 316.199355 131.755243 
L 315.190226 130.591127 
L 314.303381 129.194186 
L 313.560407 127.564423 
L 312.952328 125.638297 
L 312.495562 123.373602 
L 312.238337 121.045369 
L 312.238337 121.045369 
" style="fill:none;stroke:#90d743;stroke-width:1.5;"/>
    <path clip-path="url(#pa6c67f8ceb)" d="M 354.133073 171.102392 
L 354.00337 168.308512 
L 354.088447 165.514631 
L 354.382162 162.953574 
L 354.880816 160.625341 
L 355.529395 158.693855 
L 356.28238 157.13299 
L 357.218514 155.73605 
L 358.321334 154.545598 
L 359.484642 153.626321 
L 360.880612 152.824713 
L 362.509243 152.174971 
L 364.370535 151.701362 
L 366.464489 151.429141 
L 368.558443 151.390204 
L 370.652397 151.578397 
L 372.51369 151.960295 
L 374.142321 152.502448 
L 375.538587 153.174993 
L 376.916298 154.106287 
L 377.928004 155.03758 
L 378.878295 156.201697 
L 379.726199 157.61198 
L 380.426893 159.228401 
L 380.990188 161.090987 
L 381.438635 163.419221 
L 381.691456 165.980278 
L 381.7396 168.774159 
L 381.574606 171.568039 
L 381.189331 174.361919 
L 380.611068 176.922976 
L 379.845555 179.25121 
L 379.01173 181.113797 
L 378.055674 182.743561 
L 376.93426 184.211345 
L 375.770952 185.382903 
L 374.374983 186.448001 
L 372.979013 187.229811 
L 371.350382 187.857614 
L 369.721751 188.227934 
L 368.09312 188.367884 
L 366.464489 188.287296 
L 364.835858 187.980609 
L 363.207227 187.425617 
L 361.781514 186.701558 
L 360.415288 185.750923 
L 359.175775 184.606147 
L 358.018576 183.209207 
L 356.986677 181.579444 
L 356.190164 179.94968 
L 355.4139 177.85427 
L 354.793761 175.526036 
L 354.338931 172.964979 
L 354.133073 171.102392 
L 354.133073 171.102392 
" style="fill:none;stroke:#90d743;stroke-width:1.5;"/>
   </g>
   <g id="LineCollection_7">
    <path clip-path="url(#pa6c67f8ceb)" d="M 65.621372 121.045369 
L 65.459107 119.182782 
L 65.508791 117.087371 
L 65.797461 114.991961 
L 66.273711 113.129374 
L 66.89601 111.499611 
L 67.727033 109.942306 
L 68.657679 108.66501 
L 69.77458 107.541613 
L 70.751633 106.818506 
L 72.056173 106.144673 
L 73.078249 105.808821 
L 74.474218 105.592187 
L 75.870188 105.638297 
L 77.138734 105.91185 
L 78.312668 106.377497 
L 79.478704 107.075967 
L 80.582971 108.00726 
L 81.59435 109.171377 
L 82.384712 110.379373 
L 83.154381 111.965257 
L 83.781849 113.827844 
L 84.17615 115.690431 
L 84.384077 117.785841 
L 84.353637 119.881252 
L 84.111795 121.743839 
L 83.702658 123.373602 
L 83.053158 125.003366 
L 82.223958 126.400306 
L 81.454065 127.340974 
L 80.432373 128.262893 
L 79.358579 128.961363 
L 77.964142 129.570573 
L 76.568172 129.923505 
L 75.172203 130.059926 
L 73.776233 129.995075 
L 72.380264 129.722195 
L 70.984295 129.210317 
L 69.737585 128.495716 
L 68.657679 127.606846 
L 67.727033 126.539471 
L 66.914999 125.236189 
L 66.30475 123.839249 
L 65.834069 122.209485 
L 65.621372 121.045369 
L 65.621372 121.045369 
" style="fill:none;stroke:#fde725;stroke-width:1.5;"/>
    <path clip-path="url(#pa6c67f8ceb)" d="M 107.488548 170.636745 
L 107.307143 168.541335 
L 107.364917 166.445925 
L 107.634375 164.583338 
L 108.073739 162.953574 
L 108.675469 161.498846 
L 109.476153 160.159694 
L 110.3041 159.158357 
L 111.267078 158.297107 
L 112.398054 157.568215 
L 113.794024 156.969931 
L 115.189993 156.626732 
L 116.585962 156.498771 
L 117.981932 156.572009 
L 119.377901 156.85397 
L 120.773871 157.376993 
L 121.963065 158.064284 
L 123.100486 159.010064 
L 124.074167 160.159694 
L 124.7852 161.323811 
L 125.427102 162.810623 
L 125.892425 164.472161 
L 126.163526 166.213102 
L 126.248057 168.308512 
L 126.093364 170.403922 
L 125.692618 172.499332 
L 125.097323 174.361919 
L 124.339973 175.991683 
L 123.444313 177.388623 
L 122.402502 178.583328 
L 121.239194 179.547861 
L 120.075886 180.225349 
L 118.912578 180.671835 
L 117.516609 180.944664 
L 116.120639 180.952798 
L 114.957331 180.758455 
L 113.794024 180.369479 
L 112.564215 179.716857 
L 111.467408 178.881825 
L 110.473954 177.85427 
L 109.606115 176.664068 
L 108.745911 175.060389 
L 108.123839 173.430626 
L 107.647551 171.568039 
L 107.488548 170.636745 
L 107.488548 170.636745 
" style="fill:none;stroke:#fde725;stroke-width:1.5;"/>
    <path clip-path="url(#pa6c67f8ceb)" d="M 149.152435 118.949958 
L 149.228821 116.854548 
L 149.545063 114.759138 
L 150.049604 112.896551 
L 150.703665 111.266787 
L 151.485198 109.850231 
L 152.525202 108.472907 
L 153.579152 107.453605 
L 154.798033 106.61032 
L 155.905768 106.084968 
L 157.069076 105.741403 
L 158.465045 105.580345 
L 159.861015 105.680824 
L 161.024322 105.970449 
L 162.18763 106.465537 
L 163.350938 107.201483 
L 164.283784 108.00726 
L 165.294392 109.171377 
L 166.190159 110.568317 
L 166.94731 112.198081 
L 167.542885 114.060668 
L 167.943181 116.156078 
L 168.098078 118.251488 
L 168.01376 120.346898 
L 167.715767 122.209485 
L 167.244997 123.839249 
L 166.6082 125.287961 
L 165.7525 126.633129 
L 164.935415 127.564423 
L 163.813495 128.495716 
L 162.599291 129.194186 
L 161.256984 129.697801 
L 159.861015 129.984317 
L 158.465045 130.06175 
L 157.069076 129.938015 
L 155.673106 129.599664 
L 154.277137 129.007217 
L 153.113829 128.260808 
L 152.087932 127.331599 
L 151.165467 126.167483 
L 150.386296 124.770542 
L 149.846861 123.373602 
L 149.438001 121.743839 
L 149.196095 119.881252 
L 149.152435 118.949958 
L 149.152435 118.949958 
" style="fill:none;stroke:#fde725;stroke-width:1.5;"/>
    <path clip-path="url(#pa6c67f8ceb)" d="M 191.026827 169.006982 
L 191.030393 166.911572 
L 191.270327 164.91078 
L 191.697118 163.186398 
L 192.23609 161.789458 
L 193.015519 160.392517 
L 193.93796 159.228401 
L 194.992912 158.277221 
L 196.15622 157.537473 
L 197.552189 156.950843 
L 198.948158 156.617329 
L 200.344128 156.497815 
L 201.740097 156.579447 
L 203.234596 156.900167 
L 204.532036 157.405102 
L 205.695344 158.086623 
L 206.785168 158.995577 
L 207.602705 159.926871 
L 208.359852 161.090987 
L 209.008348 162.487928 
L 209.511603 164.117691 
L 209.838448 165.980278 
L 209.950439 167.842865 
L 209.848324 169.938275 
L 209.504081 172.033686 
L 208.952606 173.946768 
L 208.254621 175.584181 
L 207.474312 176.922976 
L 206.57512 178.087093 
L 205.462682 179.154001 
L 204.299375 179.95186 
L 203.136067 180.496988 
L 201.972759 180.830664 
L 200.576789 180.980669 
L 199.18082 180.869212 
L 198.017512 180.569858 
L 196.854204 180.063759 
L 195.609992 179.25121 
L 194.527589 178.25529 
L 193.596942 177.100751 
L 192.78548 175.75886 
L 192.064137 174.129096 
L 191.499533 172.266509 
L 191.127945 170.171099 
L 191.026827 169.006982 
L 191.026827 169.006982 
" style="fill:none;stroke:#fde725;stroke-width:1.5;"/>
    <path clip-path="url(#pa6c67f8ceb)" d="M 232.914387 120.114075 
L 232.857342 118.018665 
L 233.038933 115.923255 
L 233.407321 114.060668 
L 234.002616 112.198081 
L 234.77804 110.534637 
L 235.708687 109.100252 
L 236.66664 108.00726 
L 237.802641 107.052787 
L 238.965949 106.362594 
L 240.129256 105.905482 
L 241.525226 105.621327 
L 242.921195 105.602346 
L 244.084503 105.787351 
L 245.247811 106.166031 
L 246.535506 106.843143 
L 247.574427 107.626772 
L 248.625836 108.70573 
L 249.476948 109.869847 
L 250.246276 111.266787 
L 250.900216 112.896551 
L 251.404874 114.759138 
L 251.721335 116.854548 
L 251.797325 118.949958 
L 251.659882 120.812545 
L 251.297012 122.701581 
L 250.766052 124.304896 
L 250.076976 125.701836 
L 249.203058 126.946488 
L 248.272411 127.902397 
L 247.109104 128.758515 
L 245.75845 129.42701 
L 244.549826 129.804219 
L 243.153857 130.027723 
L 241.757887 130.046534 
L 240.361918 129.862779 
L 238.892012 129.42701 
L 237.802641 128.91176 
L 236.639333 128.122948 
L 235.708687 127.246323 
L 234.865469 126.167483 
L 234.197245 125.003366 
L 233.614732 123.581106 
L 233.149409 121.803613 
L 232.914387 120.114075 
L 232.914387 120.114075 
" style="fill:none;stroke:#fde725;stroke-width:1.5;"/>
    <path clip-path="url(#pa6c67f8ceb)" d="M 274.778481 169.705452 
L 274.70294 167.610042 
L 274.839895 165.747455 
L 275.196448 163.884868 
L 275.733468 162.255104 
L 276.424461 160.854812 
L 277.355108 159.544487 
L 278.376702 158.52993 
L 279.449062 157.766524 
L 280.742243 157.13299 
L 282.008339 156.742108 
L 283.404309 156.527484 
L 284.800278 156.517034 
L 286.196247 156.709577 
L 287.609139 157.13299 
L 288.755525 157.681394 
L 289.973554 158.52993 
L 290.922942 159.461224 
L 291.785921 160.625341 
L 292.518134 162.022281 
L 293.091035 163.652045 
L 293.443239 165.281808 
L 293.631943 167.144395 
L 293.608709 169.239805 
L 293.346916 171.335216 
L 292.898478 173.197803 
L 292.204282 175.060389 
L 291.327272 176.690153 
L 290.47588 177.85427 
L 289.453509 178.907617 
L 288.290202 179.778038 
L 287.04391 180.415327 
L 285.963586 180.765611 
L 284.567616 180.971084 
L 283.171647 180.914117 
L 281.960251 180.64815 
L 280.786843 180.182503 
L 279.62097 179.484033 
L 278.516216 178.55274 
L 277.505608 177.388623 
L 276.609841 175.991683 
L 275.85269 174.361919 
L 275.257115 172.499332 
L 274.856819 170.403922 
L 274.778481 169.705452 
L 274.778481 169.705452 
" style="fill:none;stroke:#fde725;stroke-width:1.5;"/>
    <path clip-path="url(#pa6c67f8ceb)" d="M 316.661309 120.579722 
L 316.54933 118.484312 
L 316.677399 116.388901 
L 317.050099 114.293491 
L 317.613556 112.430904 
L 318.335067 110.80114 
L 319.23419 109.336245 
L 320.164837 108.212053 
L 321.328145 107.179715 
L 322.491452 106.450395 
L 323.810938 105.91185 
L 325.05073 105.642033 
L 326.446699 105.590495 
L 327.842669 105.801545 
L 329.005976 106.190521 
L 330.235785 106.843143 
L 331.332592 107.678175 
L 332.326046 108.70573 
L 333.193885 109.895932 
L 334.054089 111.499611 
L 334.676161 113.129374 
L 335.152449 114.991961 
L 335.441266 117.087371 
L 335.491078 119.182782 
L 335.328396 121.045369 
L 334.94099 122.907955 
L 334.357192 124.563294 
L 333.63571 125.934659 
L 332.728562 127.14959 
L 331.797915 128.051879 
L 330.634607 128.861838 
L 329.45928 129.42701 
L 328.07533 129.844105 
L 326.679361 130.04105 
L 325.283391 130.034781 
L 323.887422 129.824586 
L 322.491452 129.387296 
L 321.193012 128.72854 
L 320.164837 127.97815 
L 319.23419 127.049698 
L 318.414791 125.934659 
L 317.682088 124.537719 
L 317.108668 122.907955 
L 316.721646 121.045369 
L 316.661309 120.579722 
L 316.661309 120.579722 
" style="fill:none;stroke:#fde725;stroke-width:1.5;"/>
    <path clip-path="url(#pa6c67f8ceb)" d="M 358.527614 170.171099 
L 358.39927 168.075688 
L 358.511534 165.980278 
L 358.838227 164.117691 
L 359.341803 162.487928 
L 359.98983 161.090987 
L 360.880612 159.755886 
L 361.811258 158.760986 
L 362.974566 157.87389 
L 364.137874 157.258457 
L 365.533843 156.784267 
L 366.929812 156.542916 
L 368.325782 156.507377 
L 369.721751 156.67363 
L 371.117721 157.06091 
L 372.308016 157.598637 
L 373.444336 158.344518 
L 374.412474 159.228401 
L 375.334936 160.392517 
L 376.113565 161.789458 
L 376.701598 163.343444 
L 377.104312 165.048985 
L 377.319142 166.911572 
L 377.322753 169.006982 
L 377.088035 171.102392 
L 376.666882 172.964979 
L 376.003614 174.836003 
L 375.171347 176.45733 
L 374.366139 177.621446 
L 373.288328 178.785563 
L 372.281028 179.587881 
L 371.117721 180.252754 
L 369.954413 180.688667 
L 368.558443 180.9502 
L 367.162474 180.947489 
L 365.999166 180.743785 
L 364.835858 180.344466 
L 363.663188 179.716857 
L 362.4614 178.785563 
L 361.384249 177.621446 
L 360.578537 176.45733 
L 359.846016 175.060389 
L 359.223502 173.430626 
L 358.747295 171.568039 
L 358.527614 170.171099 
L 358.527614 170.171099 
" style="fill:none;stroke:#fde725;stroke-width:1.5;"/>
   </g>
   <g id="line2d_1">
    <path clip-path="url(#pa6c67f8ceb)" d="M 54 195.36 
L 388.8 195.36 
" style="fill:none;stroke:#ff0000;stroke-linecap:square;stroke-width:1.5;"/>
   </g>
   <g id="line2d_2">
    <path clip-path="url(#pa6c67f8ceb)" d="M 54 91.2 
L 388.8 91.2 
" style="fill:none;stroke:#ff0000;stroke-linecap:square;stroke-width:1.5;"/>
   </g>
   <g id="patch_3">
    <path d="M 54 252 
L 54 34.56 
" style="fill:none;stroke:#000000;stroke-linecap:square;stroke-linejoin:miter;stroke-width:0.8;"/>
   </g>
   <g id="patch_4">
    <path d="M 388.8 252 
L 388.8 34.56 
" style="fill:none;stroke:#000000;stroke-linecap:square;stroke-linejoin:miter;stroke-width:0.8;"/>
   </g>
   <g id="patch_5">
    <path d="M 54 252 
L 388.8 252 
" style="fill:none;stroke:#000000;stroke-linecap:square;stroke-linejoin:miter;stroke-width:0.8;"/>
   </g>
   <g id="patch_6">
    <path d="M 54 34.56 
L 388.8 34.56 
" style="fill:none;stroke:#000000;stroke-linecap:square;stroke-linejoin:miter;stroke-width:0.8;"/>
   </g>
  </g>
 </g>
 <defs>
  <clipPath id="pa6c67f8ceb">
   <rect height="217.44" width="334.8" x="54" y="34.56"/>
  </clipPath>
 </defs>
</svg>
