<?xml version="1.0" encoding="utf-8" standalone="no"?>
<!DOCTYPE svg PUBLIC "-//W3C//DTD SVG 1.1//EN"
  "http://www.w3.org/Graphics/SVG/1.1/DTD/svg11.dtd">
<!-- Created with matplotlib (http://matplotlib.org/) -->
<svg height="288pt" version="1.1" viewBox="0 0 432 288" width="432pt" xmlns="http://www.w3.org/2000/svg" xmlns:xlink="http://www.w3.org/1999/xlink">
 <defs>
  <style type="text/css">
*{stroke-linecap:butt;stroke-linejoin:round;}
  </style>
 </defs>
 <g id="figure_1">
  <g id="patch_1">
   <path d="M 0 288 
L 432 288 
L 432 0 
L 0 0 
z
" style="fill:#ffffff;"/>
  </g>
  <g id="axes_1">
   <g id="patch_2">
    <path d="M 54 252 
L 388.8 252 
L 388.8 34.56 
L 54 34.56 
z
" style="fill:#ffffff;"/>
   </g>
   <g id="matplotlib.axis_1"/>
   <g id="matplotlib.axis_2"/>
   <g id="LineCollection_1">
    <path clip-path="url(#pbdbfac6744)" d="M 54 123.841689 
L 56.326616 123.73094 
L 58.653231 123.39084 
L 60.747186 122.86199 
L 62.608478 122.178325 
L 64.395808 121.278192 
L 65.86574 120.295539 
L 67.147458 119.182782 
L 68.192356 118.009535 
L 69.128634 116.621725 
L 69.820987 115.213501 
L 70.357242 113.595021 
L 70.658263 111.965257 
L 70.74357 110.335494 
L 70.621897 108.70573 
L 70.28631 107.055686 
L 69.737128 105.446203 
L 68.927047 103.816439 
L 67.959694 102.384239 
L 66.755829 101.022559 
L 65.400417 99.836158 
L 63.771786 98.738074 
L 62.143155 97.900175 
L 60.281862 97.188091 
L 58.187908 96.64205 
L 56.093954 96.328081 
L 54 96.225671 
L 54 96.225671 
" style="fill:none;stroke:#440154;stroke-width:1.5;"/>
    <path clip-path="url(#pbdbfac6744)" d="M 388.8 96.225671 
L 386.706046 96.328081 
L 384.612092 96.64205 
L 382.518138 97.188091 
L 380.656845 97.900175 
L 379.028214 98.738074 
L 377.370805 99.858442 
L 376.003614 101.063041 
L 374.813039 102.419499 
L 373.872953 103.816439 
L 373.062872 105.446203 
L 372.508084 107.075967 
L 372.178103 108.70573 
L 372.05643 110.335494 
L 372.141737 111.965257 
L 372.442758 113.595021 
L 372.98359 115.224784 
L 373.676998 116.631369 
L 374.614732 118.018665 
L 375.770952 119.298178 
L 377.001891 120.346898 
L 378.562891 121.369488 
L 380.264422 122.209485 
L 382.20349 122.907955 
L 384.146769 123.39084 
L 386.473384 123.73094 
L 388.8 123.841689 
L 388.8 123.841689 
" style="fill:none;stroke:#440154;stroke-width:1.5;"/>
    <path clip-path="url(#pbdbfac6744)" d="M 121.000612 177.1558 
L 121.240257 178.785563 
L 121.704517 180.439447 
L 122.402502 182.06677 
L 123.333148 183.620206 
L 124.286813 184.838971 
L 125.436026 186.003088 
L 126.904646 187.167204 
L 128.451703 188.116395 
L 130.312995 188.977729 
L 132.174288 189.597823 
L 134.268242 190.056537 
L 136.362196 190.292591 
L 138.45615 190.321004 
L 140.550104 190.143627 
L 142.728673 189.728261 
L 144.738013 189.110802 
L 146.599305 188.298891 
L 148.227936 187.349209 
L 149.699197 186.235911 
L 151.019875 184.943695 
L 152.028708 183.674854 
L 152.887503 182.277914 
L 153.62003 180.64815 
L 154.107983 179.018387 
L 154.377562 177.388623 
L 154.440279 175.75886 
L 154.277137 174.018141 
L 153.928559 172.499332 
L 153.312014 170.869569 
L 152.545278 169.472629 
L 151.501583 168.075688 
L 150.32189 166.885289 
L 148.84101 165.747455 
L 147.239476 164.816161 
L 145.435997 164.03328 
L 143.342043 163.390366 
L 141.083039 162.953574 
L 138.921473 162.748738 
L 136.594858 162.743207 
L 134.268242 162.96032 
L 131.941626 163.419424 
L 129.847672 164.076577 
L 128.160527 164.816161 
L 126.558728 165.747455 
L 125.194441 166.783987 
L 124.031133 167.925587 
L 123.00749 169.239805 
L 122.16984 170.6975 
L 121.543253 172.266509 
L 121.143284 173.896273 
L 120.967469 175.526036 
L 121.000612 177.1558 
L 121.000612 177.1558 
" style="fill:none;stroke:#440154;stroke-width:1.5;"/>
    <path clip-path="url(#pbdbfac6744)" d="M 204.741524 111.965257 
L 205.042679 113.595021 
L 205.583937 115.224784 
L 206.271726 116.621725 
L 207.21511 118.018665 
L 208.254621 119.185275 
L 209.650591 120.383371 
L 211.04656 121.302966 
L 212.864229 122.209485 
L 214.769145 122.897794 
L 216.863099 123.413567 
L 219.189715 123.741773 
L 221.516331 123.841417 
L 223.842946 123.719544 
L 226.169562 123.367407 
L 228.263516 122.825493 
L 230.124809 122.127494 
L 231.795975 121.278192 
L 233.382071 120.205677 
L 234.54791 119.182782 
L 235.708687 117.857588 
L 236.528274 116.621725 
L 237.216063 115.224784 
L 237.757321 113.595021 
L 238.058476 111.965257 
L 238.143269 110.335494 
L 238.022169 108.70573 
L 237.691589 107.075967 
L 237.104656 105.368818 
L 236.326896 103.816439 
L 235.386727 102.419499 
L 234.155682 101.022559 
L 232.828913 99.858442 
L 231.288117 98.807172 
L 229.659486 97.95266 
L 227.798193 97.225857 
L 225.704239 96.666097 
L 223.610285 96.339809 
L 221.516331 96.225986 
L 219.422377 96.316993 
L 217.328423 96.618688 
L 215.234468 97.151082 
L 213.373176 97.848554 
L 211.703152 98.694325 
L 210.115914 99.747577 
L 208.719944 100.948158 
L 207.556637 102.235956 
L 206.612332 103.583616 
L 205.761931 105.21338 
L 205.17327 106.843143 
L 204.81217 108.472907 
L 204.661501 110.10267 
L 204.71662 111.732434 
L 204.741524 111.965257 
L 204.741524 111.965257 
" style="fill:none;stroke:#440154;stroke-width:1.5;"/>
    <path clip-path="url(#pbdbfac6744)" d="M 288.512003 178.087093 
L 288.873366 179.716857 
L 289.46167 181.34662 
L 290.31259 182.976384 
L 291.314802 184.396904 
L 292.58457 185.770264 
L 293.979285 186.934381 
L 295.50271 187.922812 
L 297.271118 188.796968 
L 298.992634 189.427139 
L 301.086588 189.952736 
L 303.180542 190.248312 
L 305.274496 190.33362 
L 307.548864 190.193908 
L 309.462404 189.881621 
L 311.556359 189.314974 
L 313.453404 188.564145 
L 315.185545 187.632851 
L 316.674913 186.586696 
L 318.070883 185.319463 
L 319.086736 184.140501 
L 320.026871 182.743561 
L 320.837329 181.113797 
L 321.391663 179.484033 
L 321.721944 177.85427 
L 321.843381 176.224506 
L 321.758421 174.594743 
L 321.457191 172.964979 
L 320.916173 171.335216 
L 320.164837 169.830026 
L 319.23419 168.477201 
L 318.070883 167.205912 
L 316.89847 166.213102 
L 315.278944 165.157607 
L 313.636061 164.350515 
L 311.696464 163.652045 
L 309.695066 163.157721 
L 307.36845 162.823573 
L 305.041835 162.718379 
L 302.715219 162.834688 
L 300.361118 163.186398 
L 298.294649 163.716172 
L 296.433356 164.40699 
L 294.704262 165.281808 
L 293.176095 166.309243 
L 291.952432 167.377218 
L 290.849479 168.626201 
L 289.918833 170.031322 
L 289.220848 171.491288 
L 288.742529 172.964979 
L 288.441718 174.594743 
L 288.356669 176.224506 
L 288.477975 177.85427 
L 288.512003 178.087093 
L 288.512003 178.087093 
" style="fill:none;stroke:#440154;stroke-width:1.5;"/>
   </g>
   <g id="LineCollection_2">
    <path clip-path="url(#pbdbfac6744)" d="M 54 131.574206 
L 57.489924 131.459777 
L 60.747186 131.135621 
L 63.771786 130.617633 
L 66.331063 129.977775 
L 68.657679 129.190288 
L 70.751633 128.2592 
L 72.612926 127.191106 
L 74.241557 125.998922 
L 75.637526 124.704882 
L 76.800834 123.348759 
L 77.883667 121.743839 
L 78.735417 120.114075 
L 79.471643 118.251488 
L 80.059424 116.156078 
L 80.467859 113.827844 
L 80.656075 111.499611 
L 80.631894 108.938554 
L 80.371164 106.377497 
L 79.918598 104.049263 
L 79.236007 101.721029 
L 78.390142 99.625619 
L 77.412942 97.763032 
L 76.16853 95.900445 
L 74.79551 94.270682 
L 73.31091 92.849872 
L 71.5268 91.476801 
L 69.632597 90.312684 
L 67.727033 89.374 
L 65.323927 88.450097 
L 62.84114 87.739406 
L 60.049201 87.184452 
L 57.257262 86.852222 
L 54.232662 86.720299 
L 54 86.719627 
L 54 86.719627 
" style="fill:none;stroke:#443983;stroke-width:1.5;"/>
    <path clip-path="url(#pbdbfac6744)" d="M 388.8 86.719627 
L 385.7754 86.833844 
L 382.983461 87.148638 
L 380.191522 87.683901 
L 377.632245 88.398509 
L 375.305629 89.272929 
L 373.167403 90.312684 
L 371.2732 91.476801 
L 369.721751 92.652389 
L 368.09312 94.17707 
L 366.809584 95.667622 
L 365.670485 97.297385 
L 364.603197 99.219595 
L 363.731438 101.255382 
L 363.060483 103.350793 
L 362.542128 105.679026 
L 362.235229 108.00726 
L 362.125348 110.568317 
L 362.253683 113.129374 
L 362.593165 115.457608 
L 363.106734 117.553018 
L 363.858963 119.648428 
L 364.780833 121.511015 
L 365.842733 123.140779 
L 367.004239 124.537719 
L 368.325782 125.803283 
L 369.954413 127.037638 
L 371.608499 128.03007 
L 373.676998 129.003739 
L 376.003614 129.837752 
L 378.562891 130.516314 
L 381.492937 131.056773 
L 384.612092 131.408731 
L 388.102015 131.569679 
L 388.8 131.574206 
L 388.8 131.574206 
" style="fill:none;stroke:#443983;stroke-width:1.5;"/>
    <path clip-path="url(#pbdbfac6744)" d="M 111.233744 179.484033 
L 111.622883 181.812267 
L 112.232911 184.140501 
L 113.000801 186.235911 
L 113.8927 188.098498 
L 115.029028 189.961085 
L 116.353301 191.678024 
L 117.842054 193.220612 
L 119.522039 194.617552 
L 121.257939 195.781669 
L 123.333148 196.893428 
L 125.427102 197.775747 
L 127.911701 198.575549 
L 130.312995 199.13925 
L 133.104934 199.574753 
L 136.129534 199.809704 
L 139.154135 199.814085 
L 142.178735 199.588195 
L 144.970674 199.161899 
L 147.529951 198.564214 
L 150.089229 197.732142 
L 152.415844 196.724641 
L 154.277137 195.699497 
L 156.184806 194.384729 
L 157.804522 192.987789 
L 159.16303 191.542189 
L 160.371024 189.961085 
L 161.507443 188.098498 
L 162.495998 186.003088 
L 163.238896 183.907677 
L 163.825645 181.579444 
L 164.19373 179.25121 
L 164.36799 176.690153 
L 164.305686 174.129096 
L 164.032624 171.800862 
L 163.526317 169.472629 
L 162.831701 167.377218 
L 161.954969 165.475857 
L 160.989278 163.884868 
L 159.861015 162.427767 
L 158.465045 161.0116 
L 157.069076 159.886922 
L 155.313845 158.762754 
L 153.346491 157.779251 
L 151.019875 156.889577 
L 148.460598 156.165089 
L 145.668659 155.606119 
L 142.644058 155.217522 
L 139.386796 155.01227 
L 135.896873 155.016055 
L 132.406949 155.252016 
L 129.382349 155.664616 
L 126.59041 156.25079 
L 124.031133 157.007568 
L 121.704517 157.936287 
L 119.686069 158.995577 
L 117.963731 160.159694 
L 116.585962 161.333719 
L 115.28998 162.720751 
L 114.2537 164.117691 
L 113.302914 165.747455 
L 112.47831 167.610042 
L 111.811441 169.705452 
L 111.367496 171.800862 
L 111.09441 174.129096 
L 111.031931 176.690153 
L 111.206186 179.25121 
L 111.233744 179.484033 
L 111.233744 179.484033 
" style="fill:none;stroke:#443983;stroke-width:1.5;"/>
    <path clip-path="url(#pbdbfac6744)" d="M 194.753382 111.732434 
L 194.962568 114.060668 
L 195.394969 116.388901 
L 196.008408 118.484312 
L 196.773261 120.346898 
L 197.656871 121.976662 
L 198.800578 123.606426 
L 200.111466 125.057594 
L 201.507436 126.279214 
L 203.136067 127.412272 
L 204.997359 128.431713 
L 207.091313 129.322988 
L 209.590045 130.12548 
L 212.209868 130.735432 
L 215.234468 131.210067 
L 218.49173 131.495036 
L 221.981654 131.571062 
L 225.471577 131.417907 
L 228.728839 131.053673 
L 231.75344 130.49 
L 234.312717 129.8014 
L 236.639333 128.955579 
L 238.733287 127.95318 
L 240.59458 126.797602 
L 242.223211 125.496144 
L 243.408719 124.304896 
L 244.549826 122.874918 
L 245.549736 121.278192 
L 246.438224 119.415605 
L 247.161249 117.320195 
L 247.651111 115.224784 
L 247.96811 112.896551 
L 248.074717 110.568317 
L 247.964723 108.00726 
L 247.615892 105.446203 
L 247.075166 103.117969 
L 246.380673 101.022559 
L 245.451177 98.927149 
L 244.317165 96.966058 
L 243.153857 95.369063 
L 241.742755 93.805035 
L 240.129256 92.367379 
L 238.267964 91.041764 
L 236.406671 89.981411 
L 234.312717 89.031594 
L 231.986101 88.215142 
L 229.426824 87.552721 
L 226.634885 87.065702 
L 223.842946 86.793991 
L 220.818346 86.723829 
L 217.793746 86.882409 
L 215.001807 87.241048 
L 212.209868 87.826116 
L 209.650591 88.595219 
L 207.323975 89.530965 
L 205.230021 90.616893 
L 203.368728 91.834193 
L 201.740097 93.157898 
L 200.180397 94.736328 
L 198.891383 96.366092 
L 197.72018 98.228679 
L 196.800615 100.091266 
L 196.007324 102.186676 
L 195.373491 104.51491 
L 194.963443 106.843143 
L 194.746057 109.4042 
L 194.753382 111.732434 
L 194.753382 111.732434 
" style="fill:none;stroke:#443983;stroke-width:1.5;"/>
    <path clip-path="url(#pbdbfac6744)" d="M 278.515417 178.319917 
L 278.842207 180.880974 
L 279.360485 183.209207 
L 280.031483 185.304618 
L 280.932465 187.400028 
L 282.008339 189.322787 
L 283.171647 190.971892 
L 284.567616 192.56371 
L 286.196247 194.051626 
L 287.919407 195.316022 
L 289.902427 196.480139 
L 291.90074 197.411433 
L 294.106741 198.217842 
L 296.666018 198.916581 
L 299.457957 199.437228 
L 302.259221 199.739666 
L 305.274496 199.839995 
L 308.299097 199.712503 
L 311.091035 199.384644 
L 313.882974 198.834635 
L 316.442252 198.103958 
L 318.843426 197.178609 
L 320.862821 196.175355 
L 322.724114 195.016038 
L 324.438372 193.686259 
L 325.981376 192.197477 
L 327.268487 190.659555 
L 328.373394 189.029791 
L 329.380499 187.167204 
L 330.253657 185.071794 
L 330.961232 182.743561 
L 331.435432 180.415327 
L 331.718034 177.85427 
L 331.763758 175.293213 
L 331.596188 172.964979 
L 331.21095 170.636745 
L 330.634607 168.498385 
L 329.936623 166.670546 
L 328.98378 164.816161 
L 327.842669 163.135831 
L 326.674474 161.789458 
L 325.283391 160.513368 
L 323.65476 159.331298 
L 321.793468 158.27157 
L 319.699514 157.347218 
L 317.372898 156.565289 
L 314.813621 155.930188 
L 311.78902 155.416602 
L 308.531758 155.096401 
L 305.041835 154.985825 
L 301.551911 155.104111 
L 298.294649 155.432232 
L 295.203616 155.968873 
L 292.47811 156.668595 
L 290.151494 157.485215 
L 288.05754 158.451045 
L 286.196247 159.561608 
L 284.567616 160.806635 
L 283.304265 162.022281 
L 282.142754 163.419221 
L 281.077693 165.054283 
L 280.147047 166.939691 
L 279.406666 169.006982 
L 278.893169 171.102392 
L 278.55371 173.430626 
L 278.427041 175.75886 
L 278.515417 178.319917 
L 278.515417 178.319917 
" style="fill:none;stroke:#443983;stroke-width:1.5;"/>
   </g>
   <g id="LineCollection_3">
    <path clip-path="url(#pbdbfac6744)" d="M 54 137.677861 
L 59.118555 137.570074 
L 64.004448 137.245782 
L 68.192356 136.74639 
L 71.682279 136.10919 
L 74.474218 135.388046 
L 76.870201 134.549124 
L 78.894788 133.608216 
L 80.523419 132.627077 
L 81.960041 131.52242 
L 83.315358 130.180783 
L 84.285645 128.961363 
L 85.306131 127.331599 
L 86.195089 125.469013 
L 86.944301 123.373602 
L 87.603311 120.812545 
L 88.089116 118.018665 
L 88.433912 114.658832 
L 88.571175 111.266787 
L 88.50818 107.541613 
L 88.223212 103.816439 
L 87.729642 100.324089 
L 87.083907 97.297385 
L 86.334207 94.736328 
L 85.409312 92.336647 
L 84.408321 90.312684 
L 83.24947 88.450097 
L 81.919388 86.741878 
L 80.412024 85.19057 
L 78.894788 83.923118 
L 76.980634 82.629513 
L 74.939541 81.526103 
L 72.612926 80.526114 
L 70.053648 79.665101 
L 67.029048 78.894515 
L 63.771786 78.298239 
L 60.049201 77.85653 
L 56.093954 77.625523 
L 54 77.594636 
L 54 77.594636 
" style="fill:none;stroke:#31688e;stroke-width:1.5;"/>
    <path clip-path="url(#pbdbfac6744)" d="M 388.8 77.594636 
L 384.844753 77.705574 
L 381.122168 78.021241 
L 377.632245 78.527387 
L 374.374983 79.220931 
L 371.466767 80.068456 
L 369.016128 80.99975 
L 366.697151 82.12478 
L 364.732581 83.327983 
L 362.974566 84.670407 
L 361.443753 86.121864 
L 360.05899 87.751627 
L 358.938333 89.381391 
L 357.856011 91.336839 
L 356.8837 93.572211 
L 356.030561 96.133268 
L 355.340053 98.927149 
L 354.777363 102.186676 
L 354.405529 105.679026 
L 354.233136 109.4042 
L 354.280115 113.129374 
L 354.539411 116.621725 
L 354.968778 119.648428 
L 355.587918 122.442309 
L 356.329809 124.770542 
L 357.158026 126.687815 
L 358.088673 128.333062 
L 359.235907 129.892656 
L 360.415288 131.13878 
L 361.811258 132.297998 
L 363.498384 133.385007 
L 365.375351 134.3163 
L 367.627797 135.168371 
L 370.187074 135.893669 
L 373.211675 136.520289 
L 376.93426 137.0534 
L 381.35483 137.445381 
L 386.240723 137.651231 
L 388.8 137.677861 
L 388.8 137.677861 
" style="fill:none;stroke:#31688e;stroke-width:1.5;"/>
    <path clip-path="url(#pbdbfac6744)" d="M 103.323678 181.113797 
L 103.71014 184.606147 
L 104.289526 187.865675 
L 104.998518 190.659555 
L 105.88353 193.245038 
L 106.919515 195.548846 
L 107.984767 197.411433 
L 109.140792 199.043817 
L 110.567999 200.67096 
L 112.165393 202.132778 
L 113.979787 203.46484 
L 115.887978 204.591953 
L 117.981932 205.58845 
L 120.541209 206.549781 
L 123.333148 207.353612 
L 126.59041 208.042907 
L 130.080334 208.545366 
L 133.802919 208.857694 
L 137.758165 208.96534 
L 141.713412 208.851108 
L 145.435997 208.532093 
L 148.925921 208.022247 
L 152.183183 207.324435 
L 155.033317 206.491544 
L 157.534399 205.538576 
L 159.861015 204.403233 
L 161.767492 203.232017 
L 163.350938 202.036599 
L 164.979569 200.518735 
L 166.375539 198.894063 
L 167.561735 197.178609 
L 168.702154 195.104352 
L 169.632801 192.94458 
L 170.4694 190.426732 
L 171.159916 187.632851 
L 171.722687 184.373324 
L 172.094441 180.880974 
L 172.266872 177.1558 
L 172.219922 173.430626 
L 171.959416 169.927085 
L 171.494093 166.707505 
L 170.912062 164.117691 
L 170.170204 161.789458 
L 169.369086 159.926871 
L 168.456327 158.297107 
L 167.306185 156.717794 
L 166.142877 155.476029 
L 164.746908 154.304848 
L 163.118277 153.241534 
L 161.256984 152.301856 
L 159.16303 151.488696 
L 156.603753 150.738463 
L 153.579152 150.091296 
L 149.856567 149.540712 
L 145.668659 149.149821 
L 140.782766 148.920845 
L 135.664211 148.898966 
L 130.545657 149.096234 
L 125.892425 149.499913 
L 121.937179 150.07047 
L 118.679917 150.767956 
L 116.072089 151.545229 
L 113.794024 152.460048 
L 111.932731 153.447356 
L 110.303254 154.571933 
L 108.908131 155.818817 
L 107.744823 157.15323 
L 106.658614 158.762754 
L 105.809554 160.392517 
L 104.980937 162.487928 
L 104.309031 164.816161 
L 103.750031 167.610042 
L 103.347824 170.869569 
L 103.147351 174.361919 
L 103.155673 178.087093 
L 103.323678 181.113797 
L 103.323678 181.113797 
" style="fill:none;stroke:#31688e;stroke-width:1.5;"/>
    <path clip-path="url(#pbdbfac6744)" d="M 186.847301 112.198081 
L 187.047834 115.690431 
L 187.450063 118.949958 
L 188.013065 121.760472 
L 188.711049 124.160093 
L 189.509565 126.167483 
L 190.498505 128.03007 
L 191.502988 129.481619 
L 192.690128 130.82395 
L 194.062265 132.034124 
L 195.698208 133.152184 
L 197.552189 134.126793 
L 199.772169 135.014771 
L 202.20542 135.7471 
L 205.230021 136.4155 
L 208.719944 136.954988 
L 212.907853 137.372203 
L 217.793746 137.624784 
L 222.9123 137.668585 
L 228.030855 137.494799 
L 232.758532 137.110181 
L 236.639333 136.580121 
L 239.896595 135.921894 
L 242.688534 135.129929 
L 245.015149 134.232248 
L 246.876442 133.284865 
L 248.505073 132.211882 
L 249.901042 131.028437 
L 251.155636 129.659833 
L 252.227658 128.149377 
L 253.181732 126.400306 
L 254.038842 124.304896 
L 254.733303 121.976662 
L 255.272274 119.415605 
L 255.685134 116.388901 
L 255.929471 112.896551 
L 255.962553 109.171377 
L 255.776268 105.446203 
L 255.389854 101.953853 
L 254.810486 98.694325 
L 254.088951 95.858141 
L 253.226023 93.339388 
L 252.227658 91.103806 
L 251.115163 89.148567 
L 249.901042 87.442447 
L 248.505073 85.861529 
L 246.876442 84.379673 
L 245.120142 83.09516 
L 243.141861 81.931043 
L 240.827241 80.849389 
L 238.267964 79.915681 
L 235.476025 79.135013 
L 232.218763 78.466669 
L 228.640474 77.973046 
L 225.006254 77.686716 
L 221.051008 77.595492 
L 217.095761 77.726239 
L 213.373176 78.0621 
L 209.883252 78.590651 
L 206.62599 79.310122 
L 203.834051 80.147189 
L 201.274774 81.148641 
L 199.18082 82.188893 
L 197.319527 83.336778 
L 195.511006 84.724924 
L 194.043649 86.121864 
L 192.658871 87.751627 
L 191.3959 89.614214 
L 190.33968 91.576301 
L 189.39572 93.805035 
L 188.564387 96.366092 
L 187.891942 99.159972 
L 187.345636 102.419499 
L 186.988264 105.91185 
L 186.829569 109.637024 
L 186.847301 112.198081 
L 186.847301 112.198081 
" style="fill:none;stroke:#31688e;stroke-width:1.5;"/>
    <path clip-path="url(#pbdbfac6744)" d="M 270.602937 179.25121 
L 270.902477 182.976384 
L 271.412248 186.468734 
L 272.075768 189.495438 
L 272.84519 192.056495 
L 273.762296 194.384729 
L 274.822641 196.480139 
L 276.015 198.342726 
L 277.355108 200.016023 
L 278.751077 201.427533 
L 280.379708 202.767438 
L 282.241001 204.003547 
L 284.334955 205.117449 
L 286.661571 206.099902 
L 289.26005 206.957191 
L 292.245448 207.703171 
L 295.50271 208.287789 
L 299.225295 208.718607 
L 303.180542 208.939421 
L 307.135789 208.936173 
L 311.091035 208.708569 
L 314.813621 208.270502 
L 318.17352 207.655661 
L 321.095483 206.912011 
L 323.73355 206.025897 
L 325.981376 205.061902 
L 328.080767 203.930487 
L 329.936623 202.680727 
L 331.565254 201.320324 
L 333.087152 199.739666 
L 334.357192 198.098941 
L 335.5205 196.225478 
L 336.540552 194.151905 
L 337.43415 191.823672 
L 338.183876 189.262615 
L 338.829596 186.235911 
L 339.297528 182.976384 
L 339.596997 179.25121 
L 339.673666 175.526036 
L 339.526888 171.800862 
L 339.189138 168.541335 
L 338.652861 165.514631 
L 337.971666 162.953574 
L 337.149131 160.747539 
L 336.218485 158.895009 
L 335.21603 157.365814 
L 334.037611 155.968873 
L 332.728562 154.758114 
L 331.099931 153.590765 
L 329.238638 152.569896 
L 327.144684 151.693543 
L 324.585407 150.889922 
L 321.793468 150.244902 
L 318.303544 149.673177 
L 314.115636 149.228671 
L 309.462404 148.960086 
L 304.34385 148.884456 
L 299.225295 149.024942 
L 294.572064 149.364011 
L 290.616817 149.857871 
L 287.126894 150.515798 
L 284.334955 151.261242 
L 282.008339 152.101935 
L 280.147047 152.982966 
L 278.518416 153.972755 
L 277.122446 155.052794 
L 275.735761 156.43452 
L 274.651392 157.83146 
L 273.632523 159.529815 
L 272.810104 161.323811 
L 272.085414 163.419221 
L 271.447917 165.980278 
L 270.979301 168.774159 
L 270.656942 172.033686 
L 270.524767 175.75886 
L 270.602937 179.25121 
L 270.602937 179.25121 
" style="fill:none;stroke:#31688e;stroke-width:1.5;"/>
   </g>
   <g id="LineCollection_4">
    <path clip-path="url(#pbdbfac6744)" d="M 54 143.28 
L 95.646421 143.28 
L 95.85 143.163588 
L 95.879083 59.58 
L 179.404587 59.58 
L 179.55 59.812823 
L 179.55 143.163588 
L 179.404587 143.28 
L 95.879083 143.28 
L 95.85 143.629235 
L 95.85 226.747177 
L 95.646421 226.98 
L 54 226.98 
L 54 226.98 
" style="fill:none;stroke:#21908d;stroke-width:1.5;"/>
    <path clip-path="url(#pbdbfac6744)" d="M 388.8 226.98 
L 347.153579 226.98 
L 346.95 226.747177 
L 346.920917 143.28 
L 263.395413 143.28 
L 263.25 143.163588 
L 263.25 59.812823 
L 263.395413 59.58 
L 346.920917 59.58 
L 346.95 60.511293 
L 346.95 143.163588 
L 347.153579 143.28 
L 388.8 143.28 
L 388.8 143.28 
" style="fill:none;stroke:#21908d;stroke-width:1.5;"/>
    <path clip-path="url(#pbdbfac6744)" d="M 179.55 226.747177 
L 179.637248 143.28 
L 263.162752 143.28 
L 263.25 143.396412 
L 263.162752 226.98 
L 179.637248 226.98 
L 179.55 226.747177 
L 179.55 226.747177 
" style="fill:none;stroke:#21908d;stroke-width:1.5;"/>
   </g>
   <g id="LineCollection_5">
    <path clip-path="url(#pbdbfac6744)" d="M 54 148.882139 
L 59.118555 148.989926 
L 64.004448 149.314218 
L 68.192356 149.81361 
L 71.682279 150.45081 
L 74.474218 151.171954 
L 76.870201 152.010876 
L 78.894788 152.951784 
L 80.523419 153.932923 
L 81.960041 155.03758 
L 83.315358 156.379217 
L 84.285645 157.598637 
L 85.306131 159.228401 
L 86.195089 161.090987 
L 86.944301 163.186398 
L 87.603311 165.747455 
L 88.089116 168.541335 
L 88.433912 171.901168 
L 88.571175 175.293213 
L 88.50818 179.018387 
L 88.223212 182.743561 
L 87.729642 186.235911 
L 87.083907 189.262615 
L 86.334207 191.823672 
L 85.409312 194.223353 
L 84.408321 196.247316 
L 83.24947 198.109903 
L 81.919388 199.818122 
L 80.412024 201.36943 
L 78.894788 202.636882 
L 76.980634 203.930487 
L 74.939541 205.033897 
L 72.612926 206.033886 
L 70.053648 206.894899 
L 67.029048 207.665485 
L 63.771786 208.261761 
L 60.049201 208.70347 
L 56.093954 208.934477 
L 54 208.965364 
L 54 208.965364 
" style="fill:none;stroke:#35b779;stroke-width:1.5;"/>
    <path clip-path="url(#pbdbfac6744)" d="M 388.8 208.965364 
L 384.844753 208.854426 
L 381.122168 208.538759 
L 377.632245 208.032613 
L 374.374983 207.339069 
L 371.466767 206.491544 
L 369.016128 205.56025 
L 366.697151 204.43522 
L 364.732581 203.232017 
L 362.974566 201.889593 
L 361.443753 200.438136 
L 360.05899 198.808373 
L 358.938333 197.178609 
L 357.856011 195.223161 
L 356.8837 192.987789 
L 356.030561 190.426732 
L 355.340053 187.632851 
L 354.777363 184.373324 
L 354.405529 180.880974 
L 354.233136 177.1558 
L 354.280115 173.430626 
L 354.539411 169.938275 
L 354.968778 166.911572 
L 355.587918 164.117691 
L 356.329809 161.789458 
L 357.158026 159.872185 
L 358.088673 158.226938 
L 359.235907 156.667344 
L 360.415288 155.42122 
L 361.811258 154.262002 
L 363.498384 153.174993 
L 365.375351 152.2437 
L 367.627797 151.391629 
L 370.187074 150.666331 
L 373.211675 150.039711 
L 376.93426 149.5066 
L 381.35483 149.114619 
L 386.240723 148.908769 
L 388.8 148.882139 
L 388.8 148.882139 
" style="fill:none;stroke:#35b779;stroke-width:1.5;"/>
    <path clip-path="url(#pbdbfac6744)" d="M 103.308408 115.224784 
L 103.13632 111.732434 
L 103.172047 108.00726 
L 103.428413 104.282086 
L 103.890362 100.789736 
L 104.501357 97.763032 
L 105.288578 94.969152 
L 106.159238 92.640918 
L 107.164238 90.545508 
L 108.290806 88.682921 
L 109.606115 86.945245 
L 111.039734 85.423394 
L 112.669938 84.026453 
L 114.492008 82.768324 
L 116.585962 81.611226 
L 118.912578 80.593113 
L 121.471855 79.717075 
L 124.496456 78.932759 
L 127.753718 78.324848 
L 131.243641 77.893733 
L 134.966227 77.647379 
L 138.921473 77.605128 
L 142.87672 77.785603 
L 146.599305 78.173559 
L 150.089229 78.759837 
L 153.113829 79.481906 
L 155.905768 80.37398 
L 158.232384 81.333366 
L 160.326338 82.419794 
L 162.18763 83.622687 
L 163.85517 84.957747 
L 165.273379 86.354687 
L 166.615669 87.984451 
L 167.842616 89.847038 
L 168.934816 91.948119 
L 169.873501 94.270682 
L 170.662982 96.831739 
L 171.344719 99.858442 
L 171.84325 103.117969 
L 172.158334 106.61032 
L 172.275853 110.335494 
L 172.172496 114.060668 
L 171.851043 117.553018 
L 171.352083 120.579722 
L 170.714586 123.140779 
L 169.989896 125.236189 
L 169.131502 127.098776 
L 168.148608 128.72854 
L 167.064239 130.12548 
L 165.677554 131.507206 
L 164.281584 132.587245 
L 162.576599 133.61783 
L 160.558999 134.553719 
L 158.232384 135.37042 
L 155.440445 136.096353 
L 152.183183 136.702129 
L 148.227936 137.195989 
L 143.574705 137.535058 
L 138.45615 137.675544 
L 133.337596 137.599914 
L 128.451703 137.312174 
L 124.263794 136.855157 
L 120.773871 136.268645 
L 117.74927 135.541378 
L 115.189993 134.691622 
L 113.096039 133.759819 
L 111.264373 132.686537 
L 109.838777 131.607355 
L 108.544482 130.358303 
L 107.414403 128.961363 
L 106.393831 127.331599 
L 105.504911 125.469013 
L 104.720222 123.256828 
L 104.09668 120.812545 
L 103.610862 118.018665 
L 103.308408 115.224784 
L 103.308408 115.224784 
" style="fill:none;stroke:#35b779;stroke-width:1.5;"/>
    <path clip-path="url(#pbdbfac6744)" d="M 186.848708 177.85427 
L 186.854143 174.129096 
L 187.082418 170.497439 
L 187.4882 167.377218 
L 188.066697 164.583338 
L 188.761158 162.255104 
L 189.641696 160.110753 
L 190.643745 158.297107 
L 191.73565 156.788162 
L 192.928517 155.503227 
L 194.30696 154.33911 
L 195.923558 153.275135 
L 197.784851 152.327752 
L 199.878805 151.508498 
L 202.438082 150.753163 
L 205.462682 150.101806 
L 209.185268 149.547671 
L 213.373176 149.153902 
L 218.259069 148.922328 
L 223.377623 148.898016 
L 228.496178 149.092656 
L 233.149409 149.49327 
L 237.104656 150.060154 
L 240.361918 150.753163 
L 243.027831 151.545229 
L 245.247811 152.433207 
L 247.109104 153.412203 
L 248.796633 154.571933 
L 250.133704 155.759958 
L 251.33954 157.13299 
L 252.441451 158.762754 
L 253.290435 160.392517 
L 254.119061 162.487928 
L 254.791023 164.816161 
L 255.349937 167.610042 
L 255.730915 170.636745 
L 255.945857 174.129096 
L 255.950243 177.88967 
L 255.737201 181.579444 
L 255.321109 185.071794 
L 254.707356 188.331321 
L 253.960174 191.125202 
L 253.038307 193.686259 
L 251.994997 195.904171 
L 250.831689 197.843877 
L 249.584452 199.506843 
L 248.272411 200.931152 
L 246.64378 202.366987 
L 244.758328 203.697663 
L 242.688534 204.861953 
L 240.361918 205.898652 
L 237.802641 206.789979 
L 235.010702 207.535246 
L 231.75344 208.170765 
L 228.263516 208.626392 
L 224.540931 208.895643 
L 220.585685 208.960703 
L 216.630438 208.803482 
L 212.907853 208.440136 
L 209.417929 207.880967 
L 206.393329 207.188546 
L 203.60139 206.332006 
L 201.042113 205.306683 
L 198.813858 204.16331 
L 196.999048 202.999193 
L 195.458235 201.789687 
L 194.043649 200.438136 
L 192.658871 198.808373 
L 191.3959 196.945786 
L 190.33968 194.983699 
L 189.39572 192.754965 
L 188.564387 190.193908 
L 187.891942 187.400028 
L 187.345636 184.140501 
L 186.988264 180.64815 
L 186.848708 177.85427 
L 186.848708 177.85427 
" style="fill:none;stroke:#35b779;stroke-width:1.5;"/>
    <path clip-path="url(#pbdbfac6744)" d="M 270.601901 113.595021 
L 270.526939 109.869847 
L 270.671848 106.144673 
L 271.045633 102.419499 
L 271.591918 99.159972 
L 272.3306 96.133268 
L 273.183668 93.572211 
L 274.202033 91.243978 
L 275.261154 89.344564 
L 276.538873 87.518804 
L 277.968071 85.88904 
L 279.486847 84.4921 
L 281.310354 83.140825 
L 283.171647 82.030108 
L 285.316282 80.99975 
L 287.824878 80.048861 
L 290.616817 79.235565 
L 293.874079 78.537753 
L 297.364003 78.027907 
L 301.086588 77.708892 
L 305.041835 77.59466 
L 308.997081 77.702306 
L 312.719666 78.014634 
L 316.20959 78.517093 
L 319.466852 79.206388 
L 322.433317 80.068456 
L 324.883684 80.99975 
L 327.144684 82.093009 
L 329.167446 83.327983 
L 330.867269 84.621021 
L 332.456309 86.121864 
L 333.661261 87.518804 
L 334.96166 89.381391 
L 335.998055 91.243978 
L 336.92609 93.339388 
L 337.801482 95.900445 
L 338.510474 98.694325 
L 339.056046 101.721029 
L 339.457207 105.21338 
L 339.657305 108.938554 
L 339.638068 112.663727 
L 339.408532 116.156078 
L 338.972255 119.415605 
L 338.37369 122.209485 
L 337.614454 124.651109 
L 336.769039 126.633129 
L 335.753162 128.422847 
L 334.664016 129.892656 
L 333.426546 131.193093 
L 332.030577 132.340487 
L 330.401753 133.385007 
L 328.524779 134.3163 
L 326.214038 135.187403 
L 323.65476 135.907826 
L 320.63016 136.530416 
L 316.907575 137.060087 
L 312.487005 137.449124 
L 307.601112 137.652432 
L 302.482557 137.650001 
L 297.364003 137.426162 
L 292.943433 137.019288 
L 289.220848 136.468704 
L 285.963586 135.762176 
L 283.404309 134.991179 
L 281.158711 134.083477 
L 279.398307 133.152184 
L 277.820431 132.079131 
L 276.424461 130.858079 
L 275.261154 129.55553 
L 274.198518 128.03007 
L 273.318324 126.400306 
L 272.461108 124.304896 
L 271.766644 121.976662 
L 271.188219 119.182782 
L 270.791456 116.156078 
L 270.601901 113.595021 
L 270.601901 113.595021 
" style="fill:none;stroke:#35b779;stroke-width:1.5;"/>
   </g>
   <g id="LineCollection_6">
    <path clip-path="url(#pbdbfac6744)" d="M 54 154.985794 
L 57.489924 155.100223 
L 60.747186 155.424379 
L 63.771786 155.942367 
L 66.331063 156.582225 
L 68.657679 157.369712 
L 70.751633 158.3008 
L 72.612926 159.368894 
L 74.241557 160.561078 
L 75.637526 161.855118 
L 76.800834 163.211241 
L 77.883667 164.816161 
L 78.735417 166.445925 
L 79.471643 168.308512 
L 80.059424 170.403922 
L 80.467859 172.732156 
L 80.656075 175.060389 
L 80.631894 177.621446 
L 80.371164 180.182503 
L 79.918598 182.510737 
L 79.236007 184.838971 
L 78.390142 186.934381 
L 77.412942 188.796968 
L 76.16853 190.659555 
L 74.79551 192.289318 
L 73.31091 193.710128 
L 71.5268 195.083199 
L 69.632597 196.247316 
L 67.727033 197.186 
L 65.323927 198.109903 
L 62.84114 198.820594 
L 60.049201 199.375548 
L 57.257262 199.707778 
L 54.232662 199.839701 
L 54 199.840373 
L 54 199.840373 
" style="fill:none;stroke:#90d743;stroke-width:1.5;"/>
    <path clip-path="url(#pbdbfac6744)" d="M 388.8 199.840373 
L 385.7754 199.726156 
L 382.983461 199.411362 
L 380.191522 198.876099 
L 377.632245 198.161491 
L 375.305629 197.287071 
L 373.167403 196.247316 
L 371.2732 195.083199 
L 369.721751 193.907611 
L 368.09312 192.38293 
L 366.809584 190.892378 
L 365.670485 189.262615 
L 364.603197 187.340405 
L 363.731438 185.304618 
L 363.060483 183.209207 
L 362.542128 180.880974 
L 362.235229 178.55274 
L 362.125348 175.991683 
L 362.253683 173.430626 
L 362.593165 171.102392 
L 363.106734 169.006982 
L 363.858963 166.911572 
L 364.780833 165.048985 
L 365.842733 163.419221 
L 367.004239 162.022281 
L 368.325782 160.756717 
L 369.954413 159.522362 
L 371.608499 158.52993 
L 373.676998 157.556261 
L 376.003614 156.722248 
L 378.562891 156.043686 
L 381.492937 155.503227 
L 384.612092 155.151269 
L 388.102015 154.990321 
L 388.8 154.985794 
L 388.8 154.985794 
" style="fill:none;stroke:#90d743;stroke-width:1.5;"/>
    <path clip-path="url(#pbdbfac6744)" d="M 111.232028 113.827844 
L 111.043861 111.499611 
L 111.068076 108.938554 
L 111.328846 106.377497 
L 111.781394 104.049263 
L 112.46396 101.721029 
L 113.3287 99.585115 
L 114.28695 97.763032 
L 115.531513 95.900445 
L 116.904487 94.270682 
L 118.447255 92.800032 
L 120.173229 91.476801 
L 122.067544 90.312684 
L 124.031133 89.348492 
L 126.375737 88.450097 
L 128.917026 87.725365 
L 131.708965 87.175356 
L 134.500903 86.847497 
L 137.525504 86.720005 
L 140.550104 86.820974 
L 143.574705 87.157449 
L 146.366644 87.697613 
L 149.023876 88.450097 
L 151.252536 89.297957 
L 153.346491 90.320199 
L 155.226992 91.476801 
L 156.836414 92.701293 
L 158.27291 94.037858 
L 159.690467 95.667622 
L 160.829606 97.297385 
L 161.867535 99.159972 
L 162.768517 101.255382 
L 163.439515 103.350793 
L 163.957793 105.679026 
L 164.284583 108.240083 
L 164.372959 110.80114 
L 164.222262 113.362197 
L 163.860189 115.690431 
L 163.322508 117.785841 
L 162.641119 119.648428 
L 161.719301 121.511015 
L 160.657246 123.140779 
L 159.395691 124.643869 
L 157.999722 125.950903 
L 156.371091 127.153274 
L 154.444088 128.262893 
L 152.347358 129.194186 
L 150.089229 129.960728 
L 147.529951 130.605364 
L 144.505351 131.127768 
L 141.248089 131.455889 
L 137.758165 131.574175 
L 134.268242 131.463599 
L 131.01098 131.143398 
L 127.986379 130.629812 
L 125.194441 129.926298 
L 122.867825 129.121418 
L 120.773871 128.169611 
L 118.912578 127.076639 
L 117.283947 125.852879 
L 115.887978 124.520356 
L 114.72467 123.11639 
L 113.680889 121.511015 
L 112.759029 119.648428 
L 112.077582 117.785841 
L 111.539853 115.690431 
L 111.232028 113.827844 
L 111.232028 113.827844 
" style="fill:none;stroke:#90d743;stroke-width:1.5;"/>
    <path clip-path="url(#pbdbfac6744)" d="M 194.756023 177.388623 
L 194.753382 174.827566 
L 194.962568 172.499332 
L 195.394969 170.171099 
L 196.008408 168.075688 
L 196.773261 166.213102 
L 197.656871 164.583338 
L 198.800578 162.953574 
L 200.111466 161.502406 
L 201.507436 160.280786 
L 203.136067 159.147728 
L 204.997359 158.128287 
L 207.091313 157.237012 
L 209.590045 156.43452 
L 212.209868 155.824568 
L 215.234468 155.349933 
L 218.49173 155.064964 
L 221.981654 154.988938 
L 225.471577 155.142093 
L 228.728839 155.506327 
L 231.75344 156.07 
L 234.312717 156.7586 
L 236.639333 157.604421 
L 238.733287 158.60682 
L 240.59458 159.762398 
L 242.223211 161.063856 
L 243.408719 162.255104 
L 244.549826 163.685082 
L 245.549736 165.281808 
L 246.438224 167.144395 
L 247.161249 169.239805 
L 247.651111 171.335216 
L 247.96811 173.663449 
L 248.074717 175.991683 
L 247.964723 178.55274 
L 247.615892 181.113797 
L 247.075166 183.442031 
L 246.380673 185.537441 
L 245.451177 187.632851 
L 244.317165 189.593942 
L 243.153857 191.190937 
L 241.742755 192.754965 
L 240.129256 194.192621 
L 238.267964 195.518236 
L 236.406671 196.578589 
L 234.312717 197.528406 
L 231.986101 198.344858 
L 229.426824 199.007279 
L 226.634885 199.494298 
L 223.842946 199.766009 
L 220.818346 199.836171 
L 217.793746 199.677591 
L 215.001807 199.318952 
L 212.209868 198.733884 
L 209.650591 197.964781 
L 207.323975 197.029035 
L 205.230021 195.943107 
L 203.368728 194.725807 
L 201.740097 193.402102 
L 200.180397 191.823672 
L 198.891383 190.193908 
L 197.72018 188.331321 
L 196.800615 186.468734 
L 196.007324 184.373324 
L 195.373491 182.04509 
L 194.963443 179.716857 
L 194.756023 177.388623 
L 194.756023 177.388623 
" style="fill:none;stroke:#90d743;stroke-width:1.5;"/>
    <path clip-path="url(#pbdbfac6744)" d="M 278.511984 112.663727 
L 278.427845 110.10267 
L 278.580608 107.541613 
L 278.974355 104.980556 
L 279.561104 102.652323 
L 280.379708 100.374144 
L 281.310354 98.428682 
L 282.473662 96.534198 
L 283.678363 94.969152 
L 285.03294 93.536274 
L 286.661571 92.139427 
L 288.522863 90.860503 
L 290.384156 89.835359 
L 292.480855 88.915744 
L 294.804726 88.128348 
L 297.364003 87.491152 
L 300.155942 87.027751 
L 303.180542 86.765474 
L 306.205142 86.734803 
L 309.229743 86.93364 
L 312.021682 87.332574 
L 314.813621 87.963876 
L 317.140236 88.698743 
L 319.466852 89.666572 
L 321.560806 90.789609 
L 323.422099 92.050672 
L 325.05073 93.426049 
L 326.521567 94.969152 
L 327.842669 96.704074 
L 328.9073 98.461502 
L 329.799199 100.324089 
L 330.567089 102.419499 
L 331.177117 104.747733 
L 331.566256 107.075967 
L 331.761946 109.637024 
L 331.721262 112.198081 
L 331.469721 114.526314 
L 330.988559 116.854548 
L 330.32169 118.949958 
L 329.4713 120.86246 
L 328.540653 122.450793 
L 327.313239 124.072072 
L 325.953152 125.469013 
L 324.352745 126.756357 
L 322.714115 127.797246 
L 320.63016 128.831476 
L 318.303544 129.708446 
L 315.744267 130.422559 
L 312.952328 130.972737 
L 309.927728 131.353422 
L 306.670466 131.551261 
L 303.180542 131.539905 
L 299.92328 131.31976 
L 296.666018 130.875235 
L 293.874079 130.27974 
L 291.314802 129.51206 
L 289.220848 128.676883 
L 287.359555 127.724825 
L 285.675844 126.633129 
L 284.102293 125.335519 
L 282.886737 124.072072 
L 281.775678 122.623685 
L 280.824266 121.045369 
L 279.968299 119.182782 
L 279.338804 117.320195 
L 278.848904 115.224784 
L 278.531786 112.896551 
L 278.511984 112.663727 
L 278.511984 112.663727 
" style="fill:none;stroke:#90d743;stroke-width:1.5;"/>
   </g>
   <g id="LineCollection_7">
    <path clip-path="url(#pbdbfac6744)" d="M 54 162.718311 
L 56.326616 162.82906 
L 58.653231 163.16916 
L 60.747186 163.69801 
L 62.608478 164.381675 
L 64.395808 165.281808 
L 65.86574 166.264461 
L 67.147458 167.377218 
L 68.192356 168.550465 
L 69.128634 169.938275 
L 69.820987 171.346499 
L 70.357242 172.964979 
L 70.658263 174.594743 
L 70.74357 176.224506 
L 70.621897 177.85427 
L 70.28631 179.504314 
L 69.737128 181.113797 
L 68.927047 182.743561 
L 67.959694 184.175761 
L 66.755829 185.537441 
L 65.400417 186.723842 
L 63.771786 187.821926 
L 62.143155 188.659825 
L 60.281862 189.371909 
L 58.187908 189.91795 
L 56.093954 190.231919 
L 54 190.334329 
L 54 190.334329 
" style="fill:none;stroke:#fde725;stroke-width:1.5;"/>
    <path clip-path="url(#pbdbfac6744)" d="M 388.8 190.334329 
L 386.706046 190.231919 
L 384.612092 189.91795 
L 382.518138 189.371909 
L 380.656845 188.659825 
L 379.028214 187.821926 
L 377.370805 186.701558 
L 376.003614 185.496959 
L 374.813039 184.140501 
L 373.872953 182.743561 
L 373.062872 181.113797 
L 372.508084 179.484033 
L 372.178103 177.85427 
L 372.05643 176.224506 
L 372.141737 174.594743 
L 372.442758 172.964979 
L 372.98359 171.335216 
L 373.676998 169.928631 
L 374.614732 168.541335 
L 375.770952 167.261822 
L 377.001891 166.213102 
L 378.562891 165.190512 
L 380.264422 164.350515 
L 382.20349 163.652045 
L 384.146769 163.16916 
L 386.473384 162.82906 
L 388.8 162.718311 
L 388.8 162.718311 
" style="fill:none;stroke:#fde725;stroke-width:1.5;"/>
    <path clip-path="url(#pbdbfac6744)" d="M 120.995787 111.499611 
L 120.970297 109.869847 
L 121.150729 108.240083 
L 121.542881 106.61032 
L 122.16984 104.972411 
L 123.058519 103.350793 
L 124.087081 101.953853 
L 125.194441 100.780022 
L 126.59041 99.617096 
L 128.219041 98.571598 
L 129.870612 97.763032 
L 131.817358 97.064562 
L 133.802919 96.585087 
L 135.896873 96.301559 
L 137.990827 96.227642 
L 140.14859 96.366092 
L 142.178735 96.703459 
L 144.272689 97.283937 
L 146.133982 98.033536 
L 147.785929 98.927149 
L 149.391244 100.066555 
L 150.684853 101.255382 
L 151.861524 102.652323 
L 152.760056 104.049263 
L 153.531148 105.679026 
L 154.052306 107.30879 
L 154.351879 108.938554 
L 154.443913 110.568317 
L 154.328964 112.198081 
L 153.995476 113.827844 
L 153.416965 115.457608 
L 152.648506 116.922813 
L 151.69821 118.251488 
L 150.554552 119.463595 
L 149.158582 120.594703 
L 147.529951 121.593245 
L 145.660881 122.442309 
L 143.574705 123.110375 
L 141.480751 123.546682 
L 139.154135 123.798535 
L 136.827519 123.826191 
L 134.500903 123.631673 
L 132.406949 123.252981 
L 130.312995 122.652194 
L 128.451703 121.886947 
L 126.823072 120.984479 
L 125.317424 119.881252 
L 124.031133 118.634413 
L 123.00749 117.320195 
L 122.16984 115.8625 
L 121.543253 114.293491 
L 121.143284 112.663727 
L 120.995787 111.499611 
L 120.995787 111.499611 
" style="fill:none;stroke:#fde725;stroke-width:1.5;"/>
    <path clip-path="url(#pbdbfac6744)" d="M 204.747908 177.621446 
L 204.656151 175.991683 
L 204.770828 174.361919 
L 205.104643 172.732156 
L 205.682792 171.102392 
L 206.40927 169.705452 
L 207.402045 168.308512 
L 208.493603 167.144395 
L 209.920337 165.980278 
L 211.511883 164.997635 
L 213.373176 164.143382 
L 215.234468 163.527999 
L 217.328423 163.061537 
L 219.655038 162.780504 
L 221.981654 162.725176 
L 224.30827 162.891689 
L 226.634885 163.29368 
L 228.728839 163.887532 
L 230.590132 164.64516 
L 232.218763 165.538448 
L 233.614732 166.539832 
L 234.77804 167.610996 
L 235.932109 169.006982 
L 236.783147 170.403922 
L 237.397363 171.800862 
L 237.866413 173.430626 
L 238.103984 175.060389 
L 238.129549 176.690153 
L 237.949274 178.319917 
L 237.557355 179.94968 
L 236.933681 181.579444 
L 236.17401 182.99846 
L 235.204125 184.373324 
L 233.915513 185.770264 
L 232.520804 186.934381 
L 231.055455 187.889649 
L 229.194163 188.811918 
L 227.283005 189.495438 
L 225.238916 189.985702 
L 223.144962 190.263267 
L 221.051008 190.331491 
L 218.94956 190.193908 
L 216.863099 189.843741 
L 214.769145 189.25624 
L 212.907853 188.498861 
L 211.279222 187.611239 
L 209.678417 186.468734 
L 208.415084 185.304618 
L 207.23847 183.907677 
L 206.339828 182.510737 
L 205.568979 180.880974 
L 205.047893 179.25121 
L 204.747908 177.621446 
L 204.747908 177.621446 
" style="fill:none;stroke:#fde725;stroke-width:1.5;"/>
    <path clip-path="url(#pbdbfac6744)" d="M 288.504722 112.430904 
L 288.359721 110.80114 
L 288.422438 109.171377 
L 288.692017 107.541613 
L 289.220848 105.803896 
L 289.918833 104.270328 
L 290.849479 102.775192 
L 291.896255 101.488206 
L 293.176095 100.259877 
L 294.649003 99.159972 
L 296.265037 98.228679 
L 298.061987 97.449198 
L 300.071327 96.831739 
L 302.017234 96.44923 
L 304.111188 96.248462 
L 306.205142 96.254144 
L 308.299097 96.466646 
L 310.393051 96.89934 
L 312.352902 97.530209 
L 314.115636 98.321004 
L 315.744267 99.289085 
L 317.140236 100.359371 
L 318.304209 101.488206 
L 319.466852 102.939794 
L 320.408644 104.51491 
L 321.104087 106.144673 
L 321.560806 107.779646 
L 321.799388 109.4042 
L 321.832531 111.033964 
L 321.656716 112.663727 
L 321.256747 114.293491 
L 320.600848 115.923255 
L 319.79251 117.320195 
L 318.768867 118.634413 
L 317.605559 119.776013 
L 316.20959 120.833592 
L 314.580959 121.773235 
L 312.719666 122.569278 
L 310.625712 123.19805 
L 308.483368 123.606426 
L 306.205142 123.816793 
L 303.878527 123.811262 
L 301.551911 123.582601 
L 299.343571 123.140779 
L 297.364003 122.52672 
L 295.50271 121.714516 
L 293.874079 120.755354 
L 292.448394 119.648428 
L 291.298417 118.484312 
L 290.254722 117.087371 
L 289.453509 115.614755 
L 288.871441 114.060668 
L 288.504722 112.430904 
L 288.504722 112.430904 
" style="fill:none;stroke:#fde725;stroke-width:1.5;"/>
   </g>
   <g id="line2d_1">
    <path clip-path="url(#pbdbfac6744)" d="M 54 195.36 
L 388.8 195.36 
" style="fill:none;stroke:#ff0000;stroke-linecap:square;stroke-width:1.5;"/>
   </g>
   <g id="line2d_2">
    <path clip-path="url(#pbdbfac6744)" d="M 54 91.2 
L 388.8 91.2 
" style="fill:none;stroke:#ff0000;stroke-linecap:square;stroke-width:1.5;"/>
   </g>
   <g id="patch_3">
    <path d="M 54 252 
L 54 34.56 
" style="fill:none;stroke:#000000;stroke-linecap:square;stroke-linejoin:miter;stroke-width:0.8;"/>
   </g>
   <g id="patch_4">
    <path d="M 388.8 252 
L 388.8 34.56 
" style="fill:none;stroke:#000000;stroke-linecap:square;stroke-linejoin:miter;stroke-width:0.8;"/>
   </g>
   <g id="patch_5">
    <path d="M 54 252 
L 388.8 252 
" style="fill:none;stroke:#000000;stroke-linecap:square;stroke-linejoin:miter;stroke-width:0.8;"/>
   </g>
   <g id="patch_6">
    <path d="M 54 34.56 
L 388.8 34.56 
" style="fill:none;stroke:#000000;stroke-linecap:square;stroke-linejoin:miter;stroke-width:0.8;"/>
   </g>
  </g>
 </g>
 <defs>
  <clipPath id="pbdbfac6744">
   <rect height="217.44" width="334.8" x="54" y="34.56"/>
  </clipPath>
 </defs>
</svg>
