<?xml version="1.0" encoding="utf-8" standalone="no"?>
<!DOCTYPE svg PUBLIC "-//W3C//DTD SVG 1.1//EN"
  "http://www.w3.org/Graphics/SVG/1.1/DTD/svg11.dtd">
<!-- Created with matplotlib (http://matplotlib.org/) -->
<svg height="288pt" version="1.1" viewBox="0 0 432 288" width="432pt" xmlns="http://www.w3.org/2000/svg" xmlns:xlink="http://www.w3.org/1999/xlink">
 <defs>
  <style type="text/css">
*{stroke-linecap:butt;stroke-linejoin:round;}
  </style>
 </defs>
 <g id="figure_1">
  <g id="patch_1">
   <path d="M 0 288 
L 432 288 
L 432 0 
L 0 0 
z
" style="fill:#ffffff;"/>
  </g>
  <g id="axes_1">
   <g id="patch_2">
    <path d="M 54 252 
L 388.8 252 
L 388.8 34.56 
L 54 34.56 
z
" style="fill:#ffffff;"/>
   </g>
   <g id="matplotlib.axis_1"/>
   <g id="matplotlib.axis_2"/>
   <g id="LineCollection_1">
    <path clip-path="url(#pe68fccc3fc)" d="M 79.120156 176.690153 
L 79.300664 178.319917 
L 79.692929 179.94968 
L 80.316169 181.579444 
L 81.208361 183.209207 
L 82.23717 184.606147 
L 83.334222 185.770264 
L 84.728877 186.934381 
L 86.339958 187.972096 
L 88.020898 188.796968 
L 89.967326 189.495438 
L 91.923836 189.969456 
L 94.01779 190.255969 
L 96.111744 190.332733 
L 98.298144 190.193908 
L 100.299653 189.862875 
L 102.393607 189.285863 
L 104.254899 188.540182 
L 105.935715 187.632851 
L 107.512161 186.516875 
L 108.834912 185.304618 
L 109.838777 184.138344 
L 110.777209 182.743561 
L 111.587099 181.113797 
L 112.165393 179.393851 
L 112.471939 177.85427 
L 112.593428 176.224506 
L 112.508251 174.594743 
L 112.207334 172.964979 
L 111.666251 171.335216 
L 110.978527 169.938275 
L 110.035092 168.541335 
L 108.908131 167.289912 
L 107.64803 166.213102 
L 106.116192 165.207053 
L 104.385483 164.350515 
L 102.44672 163.652045 
L 100.532314 163.174936 
L 98.205698 162.831856 
L 95.879083 162.718328 
L 93.552467 162.826299 
L 91.225851 163.163421 
L 89.131897 163.688995 
L 87.270605 164.369093 
L 85.45404 165.281808 
L 84.013343 166.242182 
L 82.617373 167.462569 
L 81.487094 168.774159 
L 80.590845 170.171099 
L 79.940534 171.568039 
L 79.435805 173.197803 
L 79.166587 174.827566 
L 79.111247 176.45733 
L 79.120156 176.690153 
L 79.120156 176.690153 
" style="fill:none;stroke:#440154;stroke-width:1.5;"/>
    <path clip-path="url(#pe68fccc3fc)" d="M 162.866496 111.732434 
L 163.135589 113.362197 
L 163.640436 114.991961 
L 164.290579 116.388901 
L 165.212231 117.819302 
L 166.375539 119.156131 
L 167.538846 120.183025 
L 168.934816 121.147126 
L 170.563447 122.010152 
L 172.424739 122.740828 
L 174.518694 123.311772 
L 176.612648 123.664807 
L 178.939263 123.834116 
L 181.265879 123.781557 
L 183.592495 123.503452 
L 185.686449 123.040024 
L 187.547741 122.427997 
L 189.409034 121.577833 
L 190.805003 120.735511 
L 192.201819 119.648428 
L 193.364281 118.469564 
L 194.39528 117.087371 
L 195.161903 115.690431 
L 195.706965 114.293491 
L 196.106822 112.663727 
L 196.282379 111.033964 
L 196.249086 109.4042 
L 196.009417 107.774437 
L 195.553781 106.144673 
L 194.858333 104.51491 
L 194.038771 103.117969 
L 192.898958 101.648772 
L 191.73565 100.487145 
L 190.33968 99.388509 
L 188.711049 98.397188 
L 186.849757 97.548052 
L 184.988464 96.938274 
L 182.89451 96.489346 
L 180.800556 96.262137 
L 178.706602 96.242249 
L 176.612648 96.428386 
L 174.518694 96.832089 
L 172.424739 97.481623 
L 170.563447 98.305943 
L 168.934816 99.269408 
L 167.538846 100.334069 
L 166.345994 101.488206 
L 165.212231 102.89769 
L 164.281584 104.437141 
L 163.629992 105.91185 
L 163.118277 107.647532 
L 162.87217 109.171377 
L 162.809734 110.80114 
L 162.866496 111.732434 
L 162.866496 111.732434 
" style="fill:none;stroke:#440154;stroke-width:1.5;"/>
    <path clip-path="url(#pe68fccc3fc)" d="M 246.627845 177.85427 
L 246.958381 179.484033 
L 247.512817 181.113797 
L 248.272411 182.655978 
L 249.203058 184.061341 
L 250.265146 185.304618 
L 251.529673 186.469936 
L 253.158304 187.629401 
L 254.786935 188.512691 
L 256.648228 189.266216 
L 258.742182 189.850162 
L 260.836136 190.198121 
L 262.93009 190.331945 
L 265.024044 190.260874 
L 267.218685 189.961085 
L 269.211953 189.471871 
L 271.079598 188.796968 
L 272.947102 187.865675 
L 274.563169 186.790391 
L 275.959138 185.583466 
L 277.122446 184.287149 
L 278.053092 182.950962 
L 278.888011 181.34662 
L 279.476845 179.716857 
L 279.837747 178.087093 
L 279.988541 176.45733 
L 279.933504 174.827566 
L 279.664411 173.197803 
L 279.159564 171.568039 
L 278.509421 170.171099 
L 277.587769 168.740698 
L 276.424461 167.403869 
L 275.261154 166.376975 
L 273.865184 165.412874 
L 272.236553 164.549848 
L 270.375261 163.819172 
L 268.281306 163.248228 
L 266.187352 162.895193 
L 263.860737 162.725884 
L 261.534121 162.778443 
L 259.207505 163.056548 
L 257.113551 163.519976 
L 255.252259 164.132003 
L 253.390966 164.982167 
L 251.994997 165.824489 
L 250.598181 166.911572 
L 249.435719 168.090436 
L 248.40472 169.472629 
L 247.638097 170.869569 
L 247.093035 172.266509 
L 246.693178 173.896273 
L 246.517621 175.526036 
L 246.550914 177.1558 
L 246.627845 177.85427 
L 246.627845 177.85427 
" style="fill:none;stroke:#440154;stroke-width:1.5;"/>
    <path clip-path="url(#pe68fccc3fc)" d="M 330.392993 112.663727 
L 330.793259 114.293491 
L 331.337826 115.690431 
L 332.104674 117.087371 
L 333.14858 118.484312 
L 334.357192 119.70016 
L 335.808876 120.812545 
L 337.410309 121.743839 
L 339.243085 122.537429 
L 341.33704 123.176797 
L 343.567251 123.606426 
L 345.757609 123.812697 
L 348.084225 123.815462 
L 350.410841 123.595465 
L 352.737457 123.133087 
L 354.831411 122.472482 
L 356.489682 121.743839 
L 358.091513 120.812545 
L 359.601332 119.648428 
L 360.75126 118.484312 
L 361.795578 117.087371 
L 362.56194 115.690431 
L 363.178767 114.060668 
L 363.545029 112.430904 
L 363.690473 110.80114 
L 363.627687 109.171377 
L 363.35794 107.541613 
L 362.869877 105.91185 
L 362.137164 104.282086 
L 361.278737 102.885146 
L 360.154011 101.488206 
L 358.786657 100.186605 
L 357.390688 99.152905 
L 355.762057 98.216964 
L 353.900764 97.41722 
L 351.978879 96.831739 
L 349.945518 96.4366 
L 347.851564 96.244616 
L 345.757609 96.258821 
L 343.663655 96.480142 
L 341.569701 96.922565 
L 339.696388 97.530209 
L 337.847116 98.366538 
L 336.154578 99.392796 
L 334.686448 100.556912 
L 333.426546 101.848637 
L 332.461289 103.117969 
L 331.565254 104.667948 
L 330.946193 106.144673 
L 330.490588 107.774437 
L 330.250897 109.4042 
L 330.217503 111.033964 
L 330.392993 112.663727 
L 330.392993 112.663727 
" style="fill:none;stroke:#440154;stroke-width:1.5;"/>
   </g>
   <g id="LineCollection_2">
    <path clip-path="url(#pe68fccc3fc)" d="M 69.330541 179.018387 
L 69.678257 181.34662 
L 70.241711 183.674854 
L 70.984295 185.830691 
L 71.918788 187.865675 
L 73.078249 189.812901 
L 74.241557 191.368812 
L 75.745601 192.987789 
L 77.365298 194.384729 
L 79.12745 195.609638 
L 81.221404 196.767432 
L 83.315358 197.676826 
L 85.641974 198.457094 
L 88.201251 199.086796 
L 90.99319 199.543183 
L 94.01779 199.798608 
L 97.042391 199.822704 
L 100.066991 199.617121 
L 102.85893 199.211382 
L 105.650869 198.572245 
L 108.210146 197.743097 
L 110.536762 196.738949 
L 112.398054 195.717303 
L 114.259347 194.442866 
L 115.887978 193.051415 
L 117.283947 191.576519 
L 118.520969 189.961085 
L 119.657369 188.098498 
L 120.645977 186.003088 
L 121.388911 183.907677 
L 121.975578 181.579444 
L 122.34376 179.25121 
L 122.517979 176.690153 
L 122.455632 174.129096 
L 122.16984 171.725167 
L 121.676373 169.472629 
L 120.981762 167.377218 
L 120.075886 165.421887 
L 119.139366 163.884868 
L 117.981932 162.394541 
L 116.703006 161.090987 
L 115.189993 159.866003 
L 113.46385 158.762754 
L 111.467408 157.76651 
L 109.140792 156.880025 
L 106.581515 156.158141 
L 103.789576 155.601375 
L 100.764976 155.21476 
L 97.507714 155.011364 
L 94.01779 155.017041 
L 90.527867 155.255003 
L 87.503266 155.669622 
L 84.711327 156.25812 
L 82.15205 157.017613 
L 79.825434 157.949682 
L 77.836105 158.995577 
L 76.102849 160.168 
L 74.70688 161.361603 
L 73.439981 162.720751 
L 72.380264 164.153458 
L 71.449618 165.753816 
L 70.628327 167.610042 
L 69.961433 169.705452 
L 69.480283 172.033686 
L 69.228755 174.361919 
L 69.1881 176.922976 
L 69.330541 179.018387 
L 69.330541 179.018387 
" style="fill:none;stroke:#443983;stroke-width:1.5;"/>
    <path clip-path="url(#pe68fccc3fc)" d="M 152.880539 111.033964 
L 153.027766 113.362197 
L 153.389811 115.690431 
L 153.927593 117.785841 
L 154.609028 119.648428 
L 155.530879 121.511015 
L 156.603753 123.155796 
L 157.76706 124.55158 
L 159.230906 125.934659 
L 160.795777 127.098776 
L 162.652953 128.184658 
L 164.746908 129.132986 
L 167.073523 129.934948 
L 169.653294 130.591127 
L 172.657401 131.115849 
L 175.914663 131.449933 
L 179.404587 131.57401 
L 182.89451 131.469208 
L 186.151772 131.154925 
L 189.176372 130.647913 
L 191.968311 129.952163 
L 194.294927 129.156014 
L 196.388881 128.214613 
L 198.304031 127.098776 
L 199.878805 125.926675 
L 201.345767 124.537719 
L 202.507277 123.140779 
L 203.60139 121.454176 
L 204.491047 119.648428 
L 205.172452 117.785841 
L 205.710252 115.690431 
L 206.072232 113.362197 
L 206.219341 111.033964 
L 206.152339 108.472907 
L 205.847664 105.91185 
L 205.351542 103.583616 
L 204.61853 101.255382 
L 203.717523 99.159972 
L 202.670744 97.283165 
L 201.507436 95.625156 
L 200.111466 94.025991 
L 198.482835 92.532176 
L 196.730583 91.243978 
L 194.992912 90.209742 
L 192.898958 89.211051 
L 190.572342 88.351469 
L 188.013065 87.650098 
L 185.221126 87.127024 
L 182.38981 86.820334 
L 179.404587 86.719889 
L 176.379986 86.845167 
L 173.588047 87.170843 
L 170.796108 87.718386 
L 168.225679 88.450097 
L 165.806627 89.381391 
L 163.816261 90.368458 
L 161.954969 91.523757 
L 160.211649 92.873741 
L 158.697707 94.331229 
L 157.301737 96.007133 
L 156.136868 97.763032 
L 155.159875 99.625619 
L 154.277137 101.827923 
L 153.631357 104.049263 
L 153.17882 106.377497 
L 152.918031 108.938554 
L 152.880539 111.033964 
L 152.880539 111.033964 
" style="fill:none;stroke:#443983;stroke-width:1.5;"/>
    <path clip-path="url(#pe68fccc3fc)" d="M 236.631839 177.85427 
L 236.914503 180.415327 
L 237.388721 182.743561 
L 238.096316 185.071794 
L 238.969325 187.167204 
L 239.976627 189.029791 
L 241.08136 190.659555 
L 242.455872 192.291037 
L 244.084503 193.834139 
L 245.722962 195.083199 
L 247.617398 196.247316 
L 249.668381 197.24947 
L 251.994997 198.132879 
L 254.554274 198.85549 
L 257.346213 199.39811 
L 260.138151 199.719427 
L 263.162752 199.840279 
L 266.187352 199.732689 
L 269.211953 199.389157 
L 272.003892 198.841614 
L 274.574321 198.109903 
L 276.993373 197.178609 
L 278.983739 196.191542 
L 280.845031 195.036243 
L 282.588351 193.686259 
L 284.102293 192.228771 
L 285.498263 190.552867 
L 286.663132 188.796968 
L 287.640125 186.934381 
L 288.522863 184.732077 
L 289.168643 182.510737 
L 289.62118 180.182503 
L 289.881969 177.621446 
L 289.906201 175.060389 
L 289.717902 172.732156 
L 289.309267 170.403922 
L 288.721732 168.308512 
L 287.985418 166.445925 
L 287.126894 164.804539 
L 286.031745 163.186398 
L 284.800278 161.764718 
L 283.28409 160.392517 
L 281.643375 159.228401 
L 279.914385 158.257042 
L 277.820431 157.336042 
L 275.493815 156.556863 
L 272.934538 155.924132 
L 269.909937 155.412741 
L 266.652675 155.094515 
L 263.162752 154.985865 
L 259.672828 155.10608 
L 256.415566 155.436186 
L 253.353437 155.968873 
L 250.599027 156.677465 
L 248.272411 157.496964 
L 246.178457 158.466326 
L 244.495969 159.461224 
L 242.921195 160.633325 
L 241.454233 162.022281 
L 240.292723 163.419221 
L 239.19861 165.105824 
L 238.308953 166.911572 
L 237.627548 168.774159 
L 237.089748 170.869569 
L 236.727768 173.197803 
L 236.580659 175.526036 
L 236.631839 177.85427 
L 236.631839 177.85427 
" style="fill:none;stroke:#443983;stroke-width:1.5;"/>
    <path clip-path="url(#pe68fccc3fc)" d="M 320.381791 112.896551 
L 320.698881 115.224784 
L 321.188798 117.320195 
L 321.911885 119.415605 
L 322.800273 121.278192 
L 323.887422 122.996569 
L 325.05073 124.425429 
L 326.446699 125.778364 
L 328.07533 127.018046 
L 329.75861 128.03007 
L 331.797915 128.991769 
L 334.124531 129.828708 
L 336.683808 130.509771 
L 339.642797 131.056773 
L 342.733009 131.406395 
L 346.222933 131.569294 
L 349.712856 131.502828 
L 352.970118 131.227533 
L 355.994719 130.763515 
L 358.786657 130.11823 
L 361.345935 129.290288 
L 363.439889 128.389192 
L 365.343494 127.331599 
L 366.984167 126.167483 
L 368.325782 124.971542 
L 369.549458 123.606426 
L 370.693214 121.976662 
L 371.583044 120.333848 
L 372.34162 118.484312 
L 372.955103 116.388901 
L 373.387385 114.060668 
L 373.596489 111.732434 
L 373.593839 109.171377 
L 373.35483 106.61032 
L 372.923718 104.282086 
L 372.265799 101.953853 
L 371.446315 99.858442 
L 370.419736 97.859863 
L 369.256428 96.085776 
L 367.860459 94.393918 
L 366.464489 93.027851 
L 364.809097 91.709624 
L 362.974566 90.532595 
L 360.880612 89.46483 
L 358.553996 88.544759 
L 355.994719 87.789488 
L 353.20278 87.217045 
L 350.410841 86.869447 
L 347.38624 86.72199 
L 344.36164 86.803143 
L 341.33704 87.118544 
L 338.545101 87.636767 
L 335.985823 88.332879 
L 333.659208 89.186575 
L 331.565254 90.178629 
L 329.703961 91.287123 
L 327.885625 92.640918 
L 326.377158 94.037858 
L 324.959573 95.667622 
L 323.820453 97.297385 
L 322.724114 99.279438 
L 321.881472 101.255382 
L 321.210495 103.350793 
L 320.692178 105.679026 
L 320.365486 108.240083 
L 320.277049 110.80114 
L 320.381791 112.896551 
L 320.381791 112.896551 
" style="fill:none;stroke:#443983;stroke-width:1.5;"/>
   </g>
   <g id="LineCollection_3">
    <path clip-path="url(#pe68fccc3fc)" d="M 61.438202 180.64815 
L 61.795678 184.140501 
L 62.3419 187.400028 
L 63.073801 190.403286 
L 63.845784 192.754965 
L 64.837663 195.083199 
L 65.86574 196.978761 
L 67.108978 198.808373 
L 68.493732 200.438136 
L 70.053648 201.914335 
L 71.78258 203.232017 
L 73.676355 204.396134 
L 75.637526 205.372391 
L 77.964142 206.301182 
L 80.756081 207.16528 
L 83.907304 207.888484 
L 87.270605 208.42888 
L 90.99319 208.797462 
L 94.948436 208.95965 
L 98.903683 208.899483 
L 102.85893 208.611493 
L 106.581515 208.10812 
L 109.934445 207.422837 
L 112.863377 206.597415 
L 115.422655 205.650016 
L 117.74927 204.545486 
L 119.610563 203.438386 
L 121.471855 202.060767 
L 123.100486 200.549009 
L 124.496456 198.931763 
L 125.711693 197.178609 
L 126.823072 195.16392 
L 127.766338 192.987789 
L 128.619414 190.426732 
L 129.309926 187.632851 
L 129.872663 184.373324 
L 130.244452 180.880974 
L 130.416864 177.1558 
L 130.369899 173.430626 
L 130.110612 169.938275 
L 129.681234 166.911572 
L 129.062067 164.117691 
L 128.320192 161.789458 
L 127.51913 159.926871 
L 126.59041 158.272196 
L 125.427102 156.682871 
L 124.263794 155.448562 
L 122.867825 154.28338 
L 121.151583 153.174993 
L 119.274625 152.2437 
L 117.051286 151.401192 
L 114.492008 150.673443 
L 111.467408 150.044798 
L 107.744823 149.509961 
L 103.324253 149.116504 
L 98.43836 148.909381 
L 93.319805 148.908165 
L 88.201251 149.127984 
L 83.780681 149.53036 
L 80.058096 150.075653 
L 76.800834 150.775388 
L 74.222004 151.545229 
L 71.908549 152.476523 
L 70.053648 153.465036 
L 68.425017 154.59427 
L 67.029048 155.848454 
L 65.86574 157.191198 
L 64.808625 158.762754 
L 63.854501 160.625341 
L 63.05334 162.720751 
L 62.375817 165.166719 
L 61.863256 167.842865 
L 61.477612 171.102392 
L 61.29141 174.594743 
L 61.313444 178.319917 
L 61.438202 180.64815 
L 61.438202 180.64815 
" style="fill:none;stroke:#31688e;stroke-width:1.5;"/>
    <path clip-path="url(#pe68fccc3fc)" d="M 145.197804 115.690431 
L 145.600051 118.949958 
L 146.159003 121.743839 
L 146.831967 124.075202 
L 147.659566 126.167483 
L 148.648478 128.03007 
L 149.623905 129.444383 
L 150.840174 130.82395 
L 152.183183 132.011476 
L 153.84828 133.152184 
L 155.673106 134.113397 
L 157.922144 135.014771 
L 160.326338 135.739526 
L 163.359702 136.411711 
L 166.840862 136.951304 
L 171.02877 137.37001 
L 175.914663 137.623918 
L 181.033218 137.668939 
L 186.151772 137.496446 
L 190.805003 137.121388 
L 194.76025 136.585007 
L 198.017512 135.928895 
L 200.809451 135.139587 
L 203.136067 134.245219 
L 204.997359 133.301698 
L 206.643029 132.22089 
L 208.02196 131.056376 
L 209.30563 129.659833 
L 210.348575 128.195858 
L 211.279222 126.509586 
L 212.105907 124.537719 
L 212.823677 122.209485 
L 213.381287 119.648428 
L 213.810613 116.621725 
L 214.071161 113.099913 
L 214.11689 109.4042 
L 213.94444 105.679026 
L 213.572654 102.186676 
L 213.009916 98.927149 
L 212.319397 96.133268 
L 211.466295 93.572211 
L 210.447969 91.243978 
L 209.411765 89.381391 
L 208.111135 87.518804 
L 206.858652 86.071669 
L 205.230021 84.547663 
L 203.60139 83.316879 
L 201.723811 82.163866 
L 199.646143 81.135735 
L 197.086866 80.137228 
L 194.294927 79.302561 
L 191.270327 78.628758 
L 187.780403 78.086905 
L 184.057818 77.739137 
L 180.102571 77.596782 
L 176.147325 77.676545 
L 172.192078 77.985606 
L 168.702154 78.471634 
L 165.444892 79.142062 
L 162.652953 79.925004 
L 160.093676 80.861431 
L 157.76706 81.952662 
L 155.673106 83.198876 
L 153.936926 84.4921 
L 152.415844 85.891166 
L 150.988798 87.518804 
L 149.68832 89.381391 
L 148.651988 91.243978 
L 147.72395 93.339388 
L 146.848484 95.900445 
L 146.133982 98.720075 
L 145.560148 101.953853 
L 145.17371 105.446203 
L 144.987452 109.171377 
L 145.020554 112.896551 
L 145.197804 115.690431 
L 145.197804 115.690431 
" style="fill:none;stroke:#31688e;stroke-width:1.5;"/>
    <path clip-path="url(#pe68fccc3fc)" d="M 228.72199 178.55274 
L 228.978359 182.277914 
L 229.440302 185.770264 
L 230.051411 188.796968 
L 230.838509 191.590848 
L 231.75344 194.022532 
L 232.714175 196.014492 
L 233.847394 197.886977 
L 235.065519 199.506843 
L 236.406671 200.959697 
L 238.035302 202.389938 
L 239.896595 203.700817 
L 241.990549 204.876543 
L 244.317165 205.910114 
L 246.876442 206.798871 
L 249.668381 207.541954 
L 252.925643 208.175472 
L 256.415566 208.62933 
L 260.138151 208.896935 
L 264.093398 208.960364 
L 268.048645 208.801488 
L 271.77123 208.436399 
L 275.261154 207.875318 
L 278.285754 207.180814 
L 281.077693 206.321763 
L 283.63697 205.293449 
L 285.836139 204.16331 
L 287.650989 202.999193 
L 289.405152 201.602253 
L 290.849479 200.176928 
L 292.245448 198.466732 
L 293.408756 196.68553 
L 294.482116 194.617552 
L 295.423426 192.289318 
L 296.213051 189.728261 
L 296.894788 186.701558 
L 297.393293 183.442031 
L 297.708298 179.94968 
L 297.825914 176.224506 
L 297.722447 172.499332 
L 297.401078 169.006982 
L 296.89868 165.963571 
L 296.264596 163.419221 
L 295.50271 161.2317 
L 294.681453 159.461224 
L 293.641418 157.748836 
L 292.47811 156.281658 
L 291.209981 155.03758 
L 289.6857 153.873463 
L 288.05754 152.905667 
L 286.120191 152.010876 
L 283.869632 151.216235 
L 281.077693 150.483052 
L 277.820431 149.871422 
L 273.865184 149.372624 
L 269.444614 149.041326 
L 264.32606 148.886832 
L 259.207505 148.948966 
L 254.321612 149.221639 
L 249.901042 149.69286 
L 246.411119 150.2738 
L 243.386518 150.993987 
L 240.827241 151.834783 
L 238.733287 152.755807 
L 236.871994 153.835005 
L 235.476025 154.878767 
L 234.094383 156.201697 
L 232.964366 157.598637 
L 231.943827 159.228401 
L 231.054821 161.090987 
L 230.305674 163.186398 
L 229.646626 165.747455 
L 229.160845 168.541335 
L 228.823132 171.800862 
L 228.678804 175.293213 
L 228.72199 178.55274 
L 228.72199 178.55274 
" style="fill:none;stroke:#31688e;stroke-width:1.5;"/>
    <path clip-path="url(#pe68fccc3fc)" d="M 312.477493 114.060668 
L 312.79895 117.553018 
L 313.297921 120.579722 
L 313.935396 123.140779 
L 314.660095 125.236189 
L 315.518455 127.098776 
L 316.501371 128.72854 
L 317.605559 130.147947 
L 318.768867 131.326458 
L 320.176861 132.453713 
L 321.793468 133.466022 
L 323.65476 134.372123 
L 325.981376 135.234438 
L 328.554261 135.946064 
L 331.797915 136.594734 
L 335.591456 137.110181 
L 339.94107 137.47265 
L 344.826963 137.659557 
L 349.945518 137.641326 
L 355.064072 137.399912 
L 359.484642 136.97323 
L 363.207227 136.399164 
L 366.273722 135.713241 
L 368.791105 134.939822 
L 370.891451 134.083477 
L 372.746352 133.094964 
L 374.374983 131.96573 
L 375.770952 130.711546 
L 376.93426 129.368802 
L 377.991375 127.797246 
L 378.945499 125.934659 
L 379.74666 123.839249 
L 380.424183 121.393281 
L 380.936744 118.717135 
L 381.322388 115.457608 
L 381.50859 111.965257 
L 381.486556 108.240083 
L 381.244375 104.51491 
L 380.797926 101.022559 
L 380.191522 97.943837 
L 379.436779 95.201975 
L 378.562891 92.812418 
L 377.609859 90.778331 
L 376.468937 88.846776 
L 375.134473 87.053157 
L 373.850061 85.656217 
L 372.277116 84.259277 
L 370.419736 82.932858 
L 368.558443 81.861193 
L 366.231828 80.789747 
L 363.67255 79.869496 
L 360.880612 79.099957 
L 357.602744 78.438693 
L 354.133426 77.966848 
L 350.410841 77.679389 
L 346.455594 77.596354 
L 342.426759 77.740223 
L 338.777762 78.079744 
L 335.287839 78.617779 
L 332.030577 79.348281 
L 329.238638 80.197457 
L 326.638045 81.232573 
L 324.585407 82.270116 
L 322.724114 83.437252 
L 321.060971 84.724924 
L 319.466852 86.256887 
L 318.208986 87.751627 
L 316.945847 89.614214 
L 315.937618 91.476801 
L 314.945795 93.805035 
L 314.114305 96.366092 
L 313.417651 99.279993 
L 312.895657 102.419499 
L 312.538244 105.91185 
L 312.379617 109.637024 
L 312.440554 113.362197 
L 312.477493 114.060668 
L 312.477493 114.060668 
" style="fill:none;stroke:#31688e;stroke-width:1.5;"/>
   </g>
   <g id="LineCollection_4">
    <path clip-path="url(#pe68fccc3fc)" d="M 388.8 226.98 
L 305.274496 226.98 
L 305.1 226.747177 
L 305.041835 143.28 
L 221.516331 143.28 
L 221.4 143.163588 
L 221.4 59.812823 
L 221.516331 59.58 
L 305.041835 59.58 
L 305.1 60.045647 
L 305.1 143.163588 
L 305.274496 143.28 
L 388.8 143.28 
L 388.8 143.28 
" style="fill:none;stroke:#21908d;stroke-width:1.5;"/>
    <path clip-path="url(#pe68fccc3fc)" d="M 54 143.163588 
L 54 59.812823 
L 54.232662 59.58 
L 137.525504 59.58 
L 137.7 59.812823 
L 137.7 143.163588 
L 137.525504 143.28 
L 54.232662 143.28 
L 54 143.163588 
L 54 143.163588 
" style="fill:none;stroke:#21908d;stroke-width:1.5;"/>
    <path clip-path="url(#pe68fccc3fc)" d="M 137.7 226.747177 
L 137.758165 143.28 
L 221.283669 143.28 
L 221.4 143.396412 
L 221.4 226.747177 
L 221.283669 226.98 
L 137.758165 226.98 
L 137.7 226.747177 
L 137.7 226.747177 
" style="fill:none;stroke:#21908d;stroke-width:1.5;"/>
   </g>
   <g id="LineCollection_5">
    <path clip-path="url(#pe68fccc3fc)" d="M 61.440229 114.991961 
L 61.28214 111.499611 
L 61.331514 107.774437 
L 61.602138 104.049263 
L 62.079791 100.556912 
L 62.708015 97.530209 
L 63.515818 94.736328 
L 64.40943 92.408095 
L 65.441649 90.312684 
L 66.600494 88.450097 
L 67.959694 86.708526 
L 69.437962 85.19057 
L 71.128446 83.79363 
L 72.869293 82.629513 
L 74.939541 81.512077 
L 77.266157 80.515025 
L 79.825434 79.656532 
L 82.850035 78.888183 
L 86.107297 78.293861 
L 89.829882 77.853974 
L 93.785129 77.624669 
L 97.740375 77.619797 
L 101.695622 77.838917 
L 105.418207 78.267929 
L 108.675469 78.850618 
L 111.700069 79.605669 
L 114.492008 80.537224 
L 116.818624 81.540174 
L 118.912578 82.679047 
L 120.773871 83.945164 
L 122.402502 85.321212 
L 123.837216 86.820334 
L 125.194441 88.587619 
L 126.357748 90.49366 
L 127.290646 92.408095 
L 128.219041 94.840739 
L 128.991994 97.530209 
L 129.620265 100.556912 
L 130.080334 103.883199 
L 130.358198 107.541613 
L 130.421173 111.266787 
L 130.259725 114.991961 
L 129.906297 118.251488 
L 129.382349 121.137615 
L 128.721707 123.606426 
L 127.947036 125.701836 
L 127.026238 127.564423 
L 125.966029 129.194186 
L 124.787636 130.591127 
L 123.535338 131.755243 
L 121.929128 132.91936 
L 120.075886 133.948045 
L 117.981932 134.83448 
L 115.422655 135.646444 
L 112.630716 136.297813 
L 109.123774 136.877357 
L 104.952884 137.324215 
L 100.299653 137.596728 
L 95.181098 137.676048 
L 90.062543 137.539363 
L 85.409312 137.204511 
L 81.454065 136.715553 
L 77.964142 136.063911 
L 75.172203 135.32585 
L 72.845587 134.494258 
L 70.751633 133.498041 
L 69.076931 132.453713 
L 67.628261 131.289597 
L 66.331063 129.945985 
L 65.244609 128.495716 
L 64.297622 126.865953 
L 63.468427 125.003366 
L 62.767404 122.907955 
L 62.143155 120.308471 
L 61.669754 117.320195 
L 61.440229 114.991961 
L 61.440229 114.991961 
" style="fill:none;stroke:#35b779;stroke-width:1.5;"/>
    <path clip-path="url(#pe68fccc3fc)" d="M 145.192784 181.34662 
L 144.992671 177.621446 
L 145.011913 173.896273 
L 145.241448 170.403922 
L 145.677713 167.144395 
L 146.276325 164.350515 
L 146.99408 162.022281 
L 147.880968 159.926871 
L 148.793759 158.297107 
L 149.856567 156.82361 
L 151.078561 155.503227 
L 152.457021 154.33911 
L 154.044475 153.292034 
L 155.905768 152.340769 
L 157.999722 151.518449 
L 160.558999 150.760548 
L 163.5836 150.107085 
L 167.306185 149.551167 
L 171.494093 149.155956 
L 176.379986 148.92308 
L 181.498541 148.897551 
L 186.617095 149.090879 
L 191.270327 149.489965 
L 195.225573 150.055019 
L 198.482835 150.745801 
L 201.177836 151.545229 
L 203.368728 152.419859 
L 205.251754 153.407816 
L 206.858652 154.503325 
L 208.25991 155.73605 
L 209.489509 157.13299 
L 210.591465 158.762754 
L 211.545541 160.625341 
L 212.346601 162.720751 
L 212.996734 165.048985 
L 213.536728 167.842865 
L 213.922356 171.102392 
L 214.108615 174.594743 
L 214.086609 178.319917 
L 213.838499 182.106014 
L 213.397972 185.537441 
L 212.803689 188.564145 
L 212.036778 191.358025 
L 211.188311 193.686259 
L 210.115914 195.958591 
L 208.952606 197.886977 
L 207.734481 199.506843 
L 206.393329 200.959697 
L 204.764698 202.389938 
L 202.903405 203.700817 
L 200.809451 204.876543 
L 198.482835 205.910114 
L 195.923558 206.798871 
L 193.131619 207.541954 
L 189.874357 208.175472 
L 186.384434 208.62933 
L 182.661849 208.896935 
L 178.706602 208.960364 
L 174.751355 208.801488 
L 171.02877 208.436399 
L 167.538846 207.875318 
L 164.514246 207.180814 
L 161.722307 206.321763 
L 159.16303 205.293449 
L 156.963861 204.16331 
L 155.149011 202.999193 
L 153.394848 201.602253 
L 151.950521 200.176928 
L 150.554552 198.466732 
L 149.391244 196.68553 
L 148.317884 194.617552 
L 147.376574 192.289318 
L 146.586949 189.728261 
L 145.905212 186.701558 
L 145.406707 183.442031 
L 145.192784 181.34662 
L 145.192784 181.34662 
" style="fill:none;stroke:#35b779;stroke-width:1.5;"/>
    <path clip-path="url(#pe68fccc3fc)" d="M 228.720515 112.896551 
L 228.687474 109.171377 
L 228.873746 105.446203 
L 229.260134 101.953853 
L 229.839542 98.694325 
L 230.590132 95.760864 
L 231.423992 93.339388 
L 232.451425 91.046454 
L 233.534864 89.148567 
L 234.77804 87.405832 
L 236.17401 85.832016 
L 237.802641 84.356035 
L 239.529855 83.09516 
L 241.525226 81.922016 
L 243.851842 80.837385 
L 246.411119 79.906387 
L 249.203058 79.127958 
L 252.46032 78.461722 
L 256.009358 77.973046 
L 259.672828 77.685226 
L 263.628075 77.59564 
L 267.583322 77.728044 
L 271.305907 78.065599 
L 274.79583 78.59604 
L 278.053092 79.317706 
L 280.845031 80.15718 
L 283.404309 81.161588 
L 285.498263 82.205028 
L 287.359555 83.356727 
L 289.138958 84.724924 
L 290.616817 86.13287 
L 292.012787 87.780141 
L 293.254112 89.614214 
L 294.373738 91.709624 
L 295.339918 94.037858 
L 296.15015 96.598915 
L 296.804893 99.392796 
L 297.335031 102.652323 
L 297.678144 106.144673 
L 297.823117 109.869847 
L 297.74804 113.595021 
L 297.458137 117.087371 
L 296.994756 120.114075 
L 296.39843 122.675132 
L 295.631559 125.003366 
L 294.802454 126.865953 
L 293.855458 128.495716 
L 292.710771 130.014031 
L 291.471753 131.289597 
L 290.023011 132.453713 
L 288.522863 133.401247 
L 286.661571 134.322053 
L 284.334955 135.196872 
L 281.645504 135.946064 
L 278.518416 136.57522 
L 274.79583 137.089634 
L 270.375261 137.465559 
L 265.489368 137.65749 
L 260.370813 137.644122 
L 255.252259 137.408143 
L 250.831689 136.987611 
L 247.059892 136.411711 
L 243.926358 135.713241 
L 241.525226 134.980976 
L 239.308729 134.083477 
L 237.548246 133.152184 
L 235.941348 132.056675 
L 234.54009 130.82395 
L 233.310491 129.42701 
L 232.208535 127.797246 
L 231.254459 125.934659 
L 230.453399 123.839249 
L 229.803266 121.511015 
L 229.263272 118.717135 
L 228.877644 115.457608 
L 228.720515 112.896551 
L 228.720515 112.896551 
" style="fill:none;stroke:#35b779;stroke-width:1.5;"/>
    <path clip-path="url(#pe68fccc3fc)" d="M 312.477874 179.716857 
L 312.374035 175.991683 
L 312.491709 172.266509 
L 312.829304 168.774159 
L 313.346678 165.747455 
L 314.005702 163.186398 
L 314.813621 160.950841 
L 315.643868 159.228401 
L 316.674913 157.583842 
L 317.838221 156.154156 
L 319.23419 154.830052 
L 320.63016 153.796544 
L 322.258791 152.845052 
L 324.352745 151.902321 
L 326.787174 151.079583 
L 329.590321 150.381113 
L 332.728562 149.817974 
L 336.683808 149.338714 
L 341.33704 149.012236 
L 346.455594 148.883129 
L 351.574149 148.969842 
L 356.460042 149.270084 
L 360.64795 149.741486 
L 364.137874 150.345006 
L 367.112913 151.079583 
L 369.48909 151.879654 
L 371.583044 152.815082 
L 373.385576 153.873463 
L 374.840306 154.977489 
L 376.105518 156.201697 
L 377.235614 157.598637 
L 378.256144 159.228401 
L 379.145083 161.090987 
L 379.894315 163.186398 
L 380.553311 165.747455 
L 381.039122 168.541335 
L 381.376913 171.800862 
L 381.521186 175.293213 
L 381.458171 179.018387 
L 381.173187 182.743561 
L 380.679623 186.235911 
L 380.033887 189.262615 
L 379.20483 192.056495 
L 378.287745 194.384729 
L 377.227317 196.480139 
L 376.035035 198.342726 
L 374.733548 199.97249 
L 373.211675 201.506828 
L 371.583044 202.831733 
L 369.721751 204.055237 
L 367.627797 205.158727 
L 365.301181 206.132448 
L 362.741904 206.971152 
L 359.717304 207.721743 
L 356.460042 208.300588 
L 352.737457 208.725995 
L 348.78221 208.94173 
L 344.826963 208.933611 
L 340.871716 208.7009 
L 337.149131 208.257367 
L 333.876131 207.655661 
L 330.867269 206.886303 
L 328.307992 206.022776 
L 325.981376 205.019826 
L 323.887422 203.880953 
L 322.026129 202.614836 
L 320.397498 201.238788 
L 318.962784 199.739666 
L 317.605559 197.972381 
L 316.442252 196.06634 
L 315.509354 194.151905 
L 314.580959 191.719261 
L 313.808006 189.029791 
L 313.179735 186.003088 
L 312.719666 182.676801 
L 312.477874 179.716857 
L 312.477874 179.716857 
" style="fill:none;stroke:#35b779;stroke-width:1.5;"/>
   </g>
   <g id="LineCollection_6">
    <path clip-path="url(#pe68fccc3fc)" d="M 69.353741 113.595021 
L 69.186289 111.266787 
L 69.231981 108.70573 
L 69.514548 106.144673 
L 69.98874 103.816439 
L 70.696306 101.488206 
L 71.56951 99.392796 
L 72.612926 97.470761 
L 73.859565 95.667622 
L 75.277198 94.037858 
L 76.800834 92.628136 
L 78.429465 91.404219 
L 80.290757 90.272549 
L 82.384712 89.260474 
L 84.711327 88.389036 
L 87.270605 87.677087 
L 90.062543 87.144268 
L 93.010946 86.820334 
L 95.879083 86.719637 
L 98.903683 86.836065 
L 101.695622 87.153031 
L 104.487561 87.690744 
L 107.046838 88.408014 
L 109.373454 89.285423 
L 111.482739 90.312684 
L 113.376876 91.476801 
L 114.957331 92.676803 
L 116.585962 94.207601 
L 117.840427 95.667622 
L 118.979547 97.297385 
L 120.075886 99.279438 
L 120.918528 101.255382 
L 121.589505 103.350793 
L 122.107822 105.679026 
L 122.434514 108.240083 
L 122.522951 110.80114 
L 122.372313 113.362197 
L 122.010147 115.690431 
L 121.471855 117.788151 
L 120.690114 119.881252 
L 119.733648 121.743839 
L 118.631783 123.373602 
L 117.424262 124.770542 
L 116.120639 125.974951 
L 114.492008 127.17222 
L 112.594186 128.262893 
L 110.497469 129.194186 
L 108.210146 129.969266 
L 105.650869 130.61151 
L 102.626268 131.131704 
L 99.369006 131.457841 
L 95.879083 131.574198 
L 92.389159 131.461696 
L 89.131897 131.139519 
L 86.107297 130.623734 
L 83.315358 129.91762 
L 80.988742 129.109814 
L 78.894788 128.154517 
L 77.033495 127.057169 
L 75.404864 125.828121 
L 74.008895 124.48882 
L 72.845587 123.076589 
L 71.830874 121.511015 
L 70.909008 119.648428 
L 70.227549 117.785841 
L 69.689874 115.690431 
L 69.353741 113.595021 
L 69.353741 113.595021 
" style="fill:none;stroke:#90d743;stroke-width:1.5;"/>
    <path clip-path="url(#pe68fccc3fc)" d="M 152.8777 176.45733 
L 152.962115 173.896273 
L 153.25702 171.568039 
L 153.723717 169.472629 
L 154.418343 167.377218 
L 155.274363 165.514631 
L 156.260825 163.884868 
L 157.336695 162.487928 
L 158.697707 161.090112 
L 160.326338 159.782988 
L 161.954969 158.751981 
L 164.048923 157.71594 
L 166.375539 156.842123 
L 168.934816 156.13059 
L 171.726755 155.582599 
L 174.751355 155.203885 
L 178.008617 155.007896 
L 181.498541 155.021144 
L 184.755803 155.243158 
L 188.013065 155.689854 
L 190.805003 156.28769 
L 193.364281 157.058113 
L 195.458235 157.896348 
L 197.319527 158.851993 
L 198.974248 159.926871 
L 200.576789 161.251622 
L 201.763341 162.487928 
L 202.996118 164.117691 
L 203.946968 165.747455 
L 204.771833 167.610042 
L 205.438668 169.705452 
L 205.882563 171.800862 
L 206.160667 174.202194 
L 206.218021 176.690153 
L 206.04372 179.25121 
L 205.675618 181.579444 
L 205.088904 183.907677 
L 204.299375 186.116009 
L 203.357462 188.098498 
L 202.20542 189.983851 
L 200.971573 191.590848 
L 199.646143 192.995947 
L 198.017512 194.39821 
L 196.15622 195.681636 
L 194.289477 196.712962 
L 192.168933 197.644256 
L 189.874357 198.423111 
L 187.31508 199.062814 
L 184.523141 199.528559 
L 181.498541 199.793124 
L 178.47394 199.825986 
L 175.44934 199.629395 
L 172.657401 199.232723 
L 169.865462 198.604023 
L 167.306185 197.786559 
L 164.979569 196.795739 
L 162.885615 195.645748 
L 161.024322 194.353086 
L 159.395691 192.939763 
L 157.932787 191.358025 
L 156.721549 189.728261 
L 155.618919 187.865675 
L 154.660238 185.770264 
L 153.941776 183.674854 
L 153.378176 181.34662 
L 153.030629 179.018387 
L 152.8777 176.45733 
L 152.8777 176.45733 
" style="fill:none;stroke:#90d743;stroke-width:1.5;"/>
    <path clip-path="url(#pe68fccc3fc)" d="M 236.628622 112.198081 
L 236.58808 109.637024 
L 236.783897 107.075967 
L 237.172874 104.747733 
L 237.802641 102.357064 
L 238.550746 100.324089 
L 239.570213 98.228679 
L 240.741426 96.366092 
L 242.030331 94.736328 
L 243.391814 93.339388 
L 245.071976 91.942448 
L 246.876442 90.737197 
L 248.994279 89.614214 
L 251.297012 88.667296 
L 253.856289 87.878584 
L 256.589695 87.285981 
L 259.207505 86.924602 
L 262.232106 86.7325 
L 265.256706 86.769746 
L 268.281306 87.038891 
L 271.11774 87.518804 
L 273.632523 88.154063 
L 275.959138 88.95085 
L 278.053092 89.878668 
L 280.147047 91.060274 
L 282.008339 92.390591 
L 283.592656 93.805035 
L 284.867213 95.201975 
L 286.078451 96.831739 
L 287.181081 98.694325 
L 288.139762 100.789736 
L 288.858224 102.885146 
L 289.421824 105.21338 
L 289.769371 107.541613 
L 289.9223 110.10267 
L 289.837885 112.663727 
L 289.54298 114.991961 
L 289.076283 117.087371 
L 288.381657 119.182782 
L 287.525637 121.045369 
L 286.539175 122.675132 
L 285.463305 124.072072 
L 284.102293 125.469888 
L 282.473662 126.777012 
L 280.845031 127.808019 
L 278.751077 128.84406 
L 276.424461 129.717877 
L 273.865184 130.42941 
L 271.073245 130.977401 
L 268.048645 131.356115 
L 264.791383 131.552104 
L 261.301459 131.538856 
L 258.044197 131.316842 
L 254.786935 130.870146 
L 251.994997 130.27231 
L 249.435719 129.501887 
L 247.341765 128.663652 
L 245.480473 127.708007 
L 243.825752 126.633129 
L 242.223211 125.308378 
L 241.036659 124.072072 
L 239.803882 122.442309 
L 238.853032 120.812545 
L 238.028167 118.949958 
L 237.361332 116.854548 
L 236.917437 114.759138 
L 236.639333 112.357806 
L 236.628622 112.198081 
L 236.628622 112.198081 
" style="fill:none;stroke:#90d743;stroke-width:1.5;"/>
    <path clip-path="url(#pe68fccc3fc)" d="M 320.385167 178.55274 
L 320.275362 175.991683 
L 320.403642 173.430626 
L 320.743178 171.102392 
L 321.256711 169.006982 
L 322.008896 166.911572 
L 322.800273 165.281808 
L 323.887422 163.563431 
L 325.05073 162.134571 
L 326.446699 160.781636 
L 328.07533 159.541954 
L 329.75861 158.52993 
L 331.797915 157.568231 
L 334.124531 156.731292 
L 336.683808 156.050229 
L 339.642797 155.503227 
L 342.733009 155.153605 
L 346.222933 154.990706 
L 349.712856 155.057172 
L 352.970118 155.332467 
L 355.994719 155.796485 
L 358.786657 156.44177 
L 361.345935 157.269712 
L 363.439889 158.170808 
L 365.343494 159.228401 
L 366.984167 160.392517 
L 368.325782 161.588458 
L 369.549458 162.953574 
L 370.693214 164.583338 
L 371.583044 166.226152 
L 372.34162 168.075688 
L 372.955103 170.171099 
L 373.387385 172.499332 
L 373.596489 174.827566 
L 373.593839 177.388623 
L 373.35483 179.94968 
L 372.923718 182.277914 
L 372.265799 184.606147 
L 371.446315 186.701558 
L 370.419736 188.700137 
L 369.256428 190.474224 
L 367.860459 192.166082 
L 366.464489 193.532149 
L 364.809097 194.850376 
L 362.974566 196.027405 
L 360.880612 197.09517 
L 358.553996 198.015241 
L 355.994719 198.770512 
L 353.20278 199.342955 
L 350.410841 199.690553 
L 347.38624 199.83801 
L 344.36164 199.756857 
L 341.33704 199.441456 
L 338.545101 198.923233 
L 335.985823 198.227121 
L 333.659208 197.373425 
L 331.565254 196.381371 
L 329.703961 195.272877 
L 327.885625 193.919082 
L 326.377158 192.522142 
L 324.959573 190.892378 
L 323.820453 189.262615 
L 322.724114 187.280562 
L 321.881472 185.304618 
L 321.210495 183.209207 
L 320.692178 180.880974 
L 320.385167 178.55274 
L 320.385167 178.55274 
" style="fill:none;stroke:#90d743;stroke-width:1.5;"/>
   </g>
   <g id="LineCollection_7">
    <path clip-path="url(#pe68fccc3fc)" d="M 79.117331 111.033964 
L 79.150704 109.4042 
L 79.390413 107.774437 
L 79.84598 106.144673 
L 80.541396 104.51491 
L 81.454065 102.982031 
L 82.43697 101.721029 
L 83.780681 100.384757 
L 85.17665 99.308831 
L 86.805281 98.336123 
L 88.666574 97.503489 
L 90.527867 96.907037 
L 92.621821 96.471103 
L 94.715775 96.255664 
L 96.809729 96.24714 
L 98.903683 96.444979 
L 100.997637 96.861531 
L 103.091591 97.525555 
L 104.720222 98.24628 
L 106.348853 99.191389 
L 107.849137 100.324089 
L 109.140792 101.583941 
L 110.178664 102.885146 
L 111.037341 104.282086 
L 111.769933 105.91185 
L 112.257924 107.541613 
L 112.527559 109.171377 
L 112.590372 110.80114 
L 112.445151 112.430904 
L 112.078582 114.060668 
L 111.462174 115.690431 
L 110.695326 117.087371 
L 109.65142 118.484312 
L 108.442808 119.70016 
L 106.991124 120.812545 
L 105.389691 121.743839 
L 103.556915 122.537429 
L 101.46296 123.176797 
L 99.232749 123.606426 
L 97.042391 123.812697 
L 94.715775 123.815462 
L 92.389159 123.595465 
L 90.062543 123.133087 
L 87.968589 122.472482 
L 86.310318 121.743839 
L 84.708487 120.812545 
L 83.198668 119.648428 
L 82.04874 118.484312 
L 81.004422 117.087371 
L 80.23806 115.690431 
L 79.621233 114.060668 
L 79.254971 112.430904 
L 79.117331 111.033964 
L 79.117331 111.033964 
" style="fill:none;stroke:#fde725;stroke-width:1.5;"/>
    <path clip-path="url(#pe68fccc3fc)" d="M 162.87217 177.388623 
L 162.809734 175.75886 
L 162.954917 174.129096 
L 163.350938 172.402373 
L 163.938174 170.869569 
L 164.746908 169.407343 
L 165.748679 168.075688 
L 166.898543 166.911572 
L 168.236831 165.864379 
L 169.865462 164.890541 
L 171.589811 164.117691 
L 173.588047 163.472706 
L 175.682001 163.027395 
L 178.008617 162.766811 
L 180.335233 162.730856 
L 182.661849 162.916961 
L 184.755803 163.287069 
L 186.87086 163.884868 
L 188.711049 164.631294 
L 190.33968 165.520007 
L 191.73565 166.5161 
L 192.926941 167.610042 
L 194.062265 168.979346 
L 194.809218 170.171099 
L 195.459829 171.568039 
L 195.964303 173.197803 
L 196.233299 174.827566 
L 196.288501 176.45733 
L 196.137958 178.087093 
L 195.77666 179.716857 
L 195.188175 181.34662 
L 194.337514 182.976384 
L 193.354302 184.373324 
L 192.06544 185.770264 
L 190.670724 186.934381 
L 189.176372 187.906262 
L 187.379018 188.796968 
L 185.686449 189.418052 
L 183.592495 189.947045 
L 181.498541 190.24568 
L 179.404587 190.333836 
L 177.310632 190.217158 
L 175.216678 189.887784 
L 173.122724 189.324582 
L 171.196817 188.564145 
L 169.464352 187.632851 
L 168.00417 186.609813 
L 166.6082 185.349285 
L 165.563296 184.140501 
L 164.623142 182.743561 
L 163.812546 181.113797 
L 163.258397 179.484033 
L 162.927966 177.85427 
L 162.87217 177.388623 
L 162.87217 177.388623 
" style="fill:none;stroke:#fde725;stroke-width:1.5;"/>
    <path clip-path="url(#pe68fccc3fc)" d="M 246.620917 112.198081 
L 246.506141 110.568317 
L 246.598036 108.938554 
L 246.897768 107.30879 
L 247.418939 105.679026 
L 248.189911 104.049263 
L 249.0885 102.652323 
L 250.265146 101.255382 
L 251.529673 100.090064 
L 253.158304 98.930599 
L 254.786935 98.047309 
L 256.648228 97.293784 
L 258.742182 96.709838 
L 260.836136 96.361879 
L 262.93009 96.228055 
L 265.024044 96.299126 
L 267.218685 96.598915 
L 269.211953 97.088129 
L 271.079598 97.763032 
L 272.947102 98.694325 
L 274.563169 99.769609 
L 275.959138 100.976534 
L 277.122446 102.272851 
L 278.053092 103.609038 
L 278.888011 105.21338 
L 279.476845 106.843143 
L 279.837747 108.472907 
L 279.988541 110.10267 
L 279.933504 111.732434 
L 279.664411 113.362197 
L 279.159564 114.991961 
L 278.509421 116.388901 
L 277.587769 117.819302 
L 276.424461 119.156131 
L 275.261154 120.183025 
L 273.865184 121.147126 
L 272.236553 122.010152 
L 270.375261 122.740828 
L 268.281306 123.311772 
L 266.187352 123.664807 
L 263.860737 123.834116 
L 261.534121 123.781557 
L 259.207505 123.503452 
L 257.113551 123.040024 
L 255.252259 122.427997 
L 253.390966 121.577833 
L 251.994997 120.735511 
L 250.598181 119.648428 
L 249.435719 118.469564 
L 248.40472 117.087371 
L 247.638097 115.690431 
L 247.093035 114.293491 
L 246.693178 112.663727 
L 246.620917 112.198081 
L 246.620917 112.198081 
" style="fill:none;stroke:#fde725;stroke-width:1.5;"/>
    <path clip-path="url(#pe68fccc3fc)" d="M 330.400404 178.319917 
L 330.220353 176.690153 
L 330.246035 175.060389 
L 330.483629 173.430626 
L 330.952698 171.800862 
L 331.566493 170.403922 
L 332.4959 168.898937 
L 333.573294 167.610042 
L 334.851137 166.445925 
L 336.218485 165.483972 
L 337.890835 164.583338 
L 339.708409 163.857943 
L 341.802363 163.273966 
L 343.896317 162.909562 
L 346.222933 162.72906 
L 348.549548 162.770549 
L 350.876164 163.036965 
L 352.970118 163.488298 
L 355.064072 164.177806 
L 356.933817 165.048985 
L 358.553996 166.069906 
L 359.949965 167.233822 
L 361.113273 168.513638 
L 361.940435 169.705452 
L 362.666954 171.102392 
L 363.245518 172.732156 
L 363.578868 174.361919 
L 363.69408 175.991683 
L 363.601888 177.621446 
L 363.302005 179.25121 
L 362.741904 180.979154 
L 362.010257 182.510737 
L 361.111922 183.907677 
L 359.935211 185.304618 
L 358.553996 186.5635 
L 357.035522 187.632851 
L 355.30372 188.564145 
L 353.561376 189.262615 
L 351.574149 189.824217 
L 349.398269 190.193908 
L 347.38624 190.329895 
L 345.292286 190.270207 
L 343.198332 190.00157 
L 341.066844 189.495438 
L 339.12115 188.796968 
L 337.381793 187.939302 
L 335.753162 186.878072 
L 334.357192 185.696418 
L 333.145916 184.373324 
L 332.162643 182.976384 
L 331.311743 181.34662 
L 330.723345 179.716857 
L 330.400404 178.319917 
L 330.400404 178.319917 
" style="fill:none;stroke:#fde725;stroke-width:1.5;"/>
   </g>
   <g id="line2d_1">
    <path clip-path="url(#pe68fccc3fc)" d="M 54 195.36 
L 388.8 195.36 
" style="fill:none;stroke:#ff0000;stroke-linecap:square;stroke-width:1.5;"/>
   </g>
   <g id="line2d_2">
    <path clip-path="url(#pe68fccc3fc)" d="M 54 91.2 
L 388.8 91.2 
" style="fill:none;stroke:#ff0000;stroke-linecap:square;stroke-width:1.5;"/>
   </g>
   <g id="patch_3">
    <path d="M 54 252 
L 54 34.56 
" style="fill:none;stroke:#000000;stroke-linecap:square;stroke-linejoin:miter;stroke-width:0.8;"/>
   </g>
   <g id="patch_4">
    <path d="M 388.8 252 
L 388.8 34.56 
" style="fill:none;stroke:#000000;stroke-linecap:square;stroke-linejoin:miter;stroke-width:0.8;"/>
   </g>
   <g id="patch_5">
    <path d="M 54 252 
L 388.8 252 
" style="fill:none;stroke:#000000;stroke-linecap:square;stroke-linejoin:miter;stroke-width:0.8;"/>
   </g>
   <g id="patch_6">
    <path d="M 54 34.56 
L 388.8 34.56 
" style="fill:none;stroke:#000000;stroke-linecap:square;stroke-linejoin:miter;stroke-width:0.8;"/>
   </g>
  </g>
 </g>
 <defs>
  <clipPath id="pe68fccc3fc">
   <rect height="217.44" width="334.8" x="54" y="34.56"/>
  </clipPath>
 </defs>
</svg>
