<?xml version="1.0" encoding="utf-8" standalone="no"?>
<!DOCTYPE svg PUBLIC "-//W3C//DTD SVG 1.1//EN"
  "http://www.w3.org/Graphics/SVG/1.1/DTD/svg11.dtd">
<!-- Created with matplotlib (http://matplotlib.org/) -->
<svg height="288pt" version="1.1" viewBox="0 0 432 288" width="432pt" xmlns="http://www.w3.org/2000/svg" xmlns:xlink="http://www.w3.org/1999/xlink">
 <defs>
  <style type="text/css">
*{stroke-linecap:butt;stroke-linejoin:round;}
  </style>
 </defs>
 <g id="figure_1">
  <g id="patch_1">
   <path d="M 0 288 
L 432 288 
L 432 0 
L 0 0 
z
" style="fill:#ffffff;"/>
  </g>
  <g id="axes_1">
   <g id="patch_2">
    <path d="M 54 252 
L 388.8 252 
L 388.8 34.56 
L 54 34.56 
z
" style="fill:#ffffff;"/>
   </g>
   <g id="matplotlib.axis_1"/>
   <g id="matplotlib.axis_2"/>
   <g id="LineCollection_1">
    <path clip-path="url(#pd5481760b2)" d="M 97.492572 147.354409 
L 97.885424 150.381113 
L 98.471136 153.174993 
L 99.241249 155.73605 
L 100.086143 157.83146 
L 101.060184 159.694047 
L 102.160945 161.327169 
L 103.385931 162.720751 
L 104.487561 163.683824 
L 105.650869 164.455773 
L 107.046838 165.09972 
L 108.442808 165.470221 
L 109.838777 165.587083 
L 111.234746 165.456384 
L 112.630716 165.071439 
L 113.794024 164.541884 
L 114.957331 163.800258 
L 116.213887 162.720751 
L 117.283947 161.525543 
L 118.399339 159.926871 
L 119.292558 158.297107 
L 120.189828 156.201697 
L 120.943243 153.873463 
L 121.545176 151.312406 
L 121.983525 148.518526 
L 122.238664 145.491822 
L 122.280749 142.232295 
L 122.107178 139.205591 
L 121.704517 136.117688 
L 121.128601 133.385007 
L 120.358927 130.82395 
L 119.513438 128.72854 
L 118.539695 126.865953 
L 117.440915 125.236189 
L 116.213887 123.839249 
L 115.153224 122.907955 
L 113.794024 122.018116 
L 112.398054 121.406166 
L 111.002085 121.064431 
L 109.606115 120.975198 
L 108.210146 121.133624 
L 106.814177 121.547816 
L 105.470549 122.209485 
L 104.44683 122.907955 
L 103.324253 123.900068 
L 102.158391 125.236189 
L 101.060184 126.865953 
L 100.195332 128.495716 
L 99.324258 130.591127 
L 98.593089 132.91936 
L 97.966682 135.713241 
L 97.538224 138.739944 
L 97.332363 141.766648 
L 97.340822 145.026175 
L 97.492572 147.354409 
L 97.492572 147.354409 
" style="fill:none;stroke:#440154;stroke-width:1.5;"/>
    <path clip-path="url(#pd5481760b2)" d="M 208.950117 145.258999 
L 209.188824 148.285702 
L 209.654434 151.312406 
L 210.322224 154.106287 
L 211.098247 156.43452 
L 212.022925 158.52993 
L 213.096852 160.392517 
L 214.131642 161.789458 
L 215.234468 162.960462 
L 216.397776 163.91255 
L 217.793746 164.740624 
L 219.189715 165.274959 
L 220.585685 165.545235 
L 221.981654 165.565788 
L 223.377623 165.337674 
L 224.773593 164.849099 
L 226.100971 164.117691 
L 227.100208 163.37277 
L 228.263516 162.253847 
L 229.426824 160.799038 
L 230.407253 159.228401 
L 231.321602 157.365814 
L 232.194577 155.03758 
L 232.843086 152.709346 
L 233.390679 149.915466 
L 233.747502 146.888762 
L 233.889337 143.862058 
L 233.813413 140.602531 
L 233.524561 137.575828 
L 233.051032 134.781947 
L 232.410001 132.22089 
L 231.610714 129.892656 
L 230.657593 127.797246 
L 229.659486 126.101114 
L 228.469971 124.537719 
L 227.316568 123.373602 
L 226.100971 122.442309 
L 224.773593 121.710901 
L 223.377623 121.222326 
L 221.981654 120.994212 
L 220.585685 121.014765 
L 219.189715 121.285041 
L 217.793746 121.819376 
L 216.630438 122.487155 
L 215.46713 123.387817 
L 214.303822 124.567531 
L 213.140514 126.101114 
L 212.142407 127.797246 
L 211.189286 129.892656 
L 210.389999 132.22089 
L 209.748968 134.781947 
L 209.275439 137.575828 
L 208.986587 140.602531 
L 208.908274 143.629235 
L 208.950117 145.258999 
L 208.950117 145.258999 
" style="fill:none;stroke:#440154;stroke-width:1.5;"/>
    <path clip-path="url(#pd5481760b2)" d="M 320.616804 146.423115 
L 320.939727 149.449819 
L 321.449595 152.2437 
L 322.131775 154.804757 
L 322.978968 157.13299 
L 323.992966 159.228401 
L 325.05073 160.90843 
L 326.214038 162.337735 
L 327.377345 163.437357 
L 328.67099 164.350515 
L 329.936623 164.981241 
L 331.332592 165.410203 
L 332.728562 165.582522 
L 334.124531 165.507082 
L 335.5205 165.179673 
L 336.916954 164.583338 
L 338.079778 163.856994 
L 339.243085 162.887176 
L 340.458656 161.556634 
L 341.599491 159.926871 
L 342.604668 158.064284 
L 343.475742 155.968873 
L 344.206911 153.64064 
L 344.833318 150.846759 
L 345.261776 147.820056 
L 345.467637 144.793352 
L 345.459178 141.533825 
L 345.236919 138.507121 
L 344.789999 135.480417 
L 344.128978 132.634277 
L 343.301582 130.12548 
L 342.376838 128.03007 
L 341.33704 126.218622 
L 340.173732 124.657834 
L 338.915792 123.373602 
L 337.700829 122.442309 
L 336.446169 121.743839 
L 335.055177 121.242425 
L 333.659208 121.0003 
L 332.263238 121.007151 
L 330.867269 121.263316 
L 329.4713 121.782288 
L 328.298088 122.442309 
L 327.083993 123.373602 
L 325.930286 124.537719 
L 324.818068 125.985647 
L 323.742485 127.797246 
L 322.882851 129.659833 
L 322.059676 131.988067 
L 321.39838 134.549124 
L 320.906744 137.343004 
L 320.60111 140.369708 
L 320.508446 143.629235 
L 320.616804 146.423115 
L 320.616804 146.423115 
" style="fill:none;stroke:#440154;stroke-width:1.5;"/>
   </g>
   <g id="LineCollection_2">
    <path clip-path="url(#pd5481760b2)" d="M 91.45581 147.121586 
L 91.741 151.312406 
L 92.220921 155.270403 
L 92.899061 158.995577 
L 93.722279 162.255104 
L 94.652615 165.048985 
L 95.646421 167.392202 
L 96.809729 169.571867 
L 97.984131 171.335216 
L 99.369006 172.999654 
L 100.804277 174.361919 
L 102.382316 175.526036 
L 103.789576 176.321705 
L 105.418207 177.000014 
L 107.046838 177.448466 
L 108.675469 177.686637 
L 110.3041 177.724396 
L 111.932731 177.563263 
L 113.697404 177.1558 
L 115.189993 176.608935 
L 116.842236 175.75886 
L 118.214746 174.827566 
L 119.610563 173.628663 
L 121.006532 172.11596 
L 122.266629 170.403922 
L 123.373779 168.541335 
L 124.496456 166.179048 
L 125.442702 163.652045 
L 126.320048 160.625341 
L 127.028127 157.365814 
L 127.603753 153.64064 
L 128.012085 149.449819 
L 128.209519 145.026175 
L 128.186523 140.602531 
L 127.940965 136.178887 
L 127.480339 131.988067 
L 126.847411 128.262893 
L 126.07537 125.003366 
L 125.194441 122.18465 
L 124.176185 119.648428 
L 123.100486 117.521287 
L 121.937179 115.670822 
L 120.541209 113.900089 
L 119.14524 112.500312 
L 117.74927 111.391309 
L 116.120639 110.395966 
L 114.492008 109.670685 
L 112.823721 109.171377 
L 111.234746 108.903102 
L 109.606115 108.827526 
L 107.977484 108.950534 
L 106.348853 109.277081 
L 104.602512 109.869847 
L 103.091591 110.606789 
L 101.695622 111.501965 
L 100.274311 112.663727 
L 98.903683 114.076655 
L 97.649536 115.690431 
L 96.481988 117.553018 
L 95.41376 119.669956 
L 94.397028 122.209485 
L 93.524555 125.003366 
L 92.752752 128.262893 
L 92.152434 131.755243 
L 91.691174 135.797588 
L 91.428592 140.136885 
L 91.382819 144.560529 
L 91.45581 147.121586 
L 91.45581 147.121586 
" style="fill:none;stroke:#443983;stroke-width:1.5;"/>
    <path clip-path="url(#pd5481760b2)" d="M 203.127358 148.518526 
L 203.48528 152.709346 
L 204.046581 156.667344 
L 204.765075 160.159694 
L 205.606215 163.186398 
L 206.525752 165.747455 
L 207.582922 168.075688 
L 208.781715 170.171099 
L 210.115914 172.021107 
L 211.511883 173.553516 
L 212.985915 174.827566 
L 214.536484 175.864484 
L 216.201922 176.690153 
L 217.793746 177.240778 
L 219.422377 177.587289 
L 221.051008 177.729333 
L 222.679639 177.672676 
L 224.422759 177.388623 
L 225.998987 176.922976 
L 227.603308 176.224506 
L 229.194163 175.276444 
L 230.666276 174.129096 
L 232.076085 172.732156 
L 233.385867 171.102392 
L 234.585434 169.239805 
L 235.708687 167.060163 
L 236.719622 164.583338 
L 237.610921 161.789458 
L 238.399509 158.52993 
L 239.01369 155.03758 
L 239.480532 151.079583 
L 239.753708 146.888762 
L 239.822594 142.465118 
L 239.672642 138.041474 
L 239.31472 133.850654 
L 238.753419 129.892656 
L 238.034925 126.400306 
L 237.193785 123.373602 
L 236.274248 120.812545 
L 235.217078 118.484312 
L 234.018285 116.388901 
L 232.684086 114.538893 
L 231.288117 113.006484 
L 229.814085 111.732434 
L 228.263516 110.695516 
L 226.598078 109.869847 
L 225.006254 109.319222 
L 223.377623 108.972711 
L 221.748992 108.830667 
L 220.120361 108.887324 
L 218.377241 109.171377 
L 216.801013 109.637024 
L 215.196692 110.335494 
L 213.605837 111.283556 
L 212.133724 112.430904 
L 210.723915 113.827844 
L 209.414133 115.457608 
L 208.214566 117.320195 
L 207.091313 119.499837 
L 206.080378 121.976662 
L 205.189079 124.770542 
L 204.400491 128.03007 
L 203.78631 131.52242 
L 203.319468 135.480417 
L 203.046292 139.671238 
L 202.977406 144.094882 
L 203.127358 148.518526 
L 203.127358 148.518526 
" style="fill:none;stroke:#443983;stroke-width:1.5;"/>
    <path clip-path="url(#pd5481760b2)" d="M 314.57962 144.327705 
L 314.741671 148.751349 
L 315.11184 152.94217 
L 315.687496 156.900167 
L 316.421913 160.392517 
L 317.281058 163.419221 
L 318.220883 165.980278 
L 319.303216 168.308512 
L 320.533371 170.403922 
L 321.793468 172.11596 
L 323.225997 173.663449 
L 324.585407 174.827684 
L 326.214038 175.909166 
L 327.842669 176.707305 
L 329.4713 177.262095 
L 331.270211 177.621446 
L 332.728562 177.731128 
L 334.357192 177.665015 
L 336.023766 177.388623 
L 337.614454 176.917771 
L 339.243085 176.204353 
L 340.871716 175.222927 
L 342.267686 174.128369 
L 343.676497 172.732156 
L 344.985484 171.102392 
L 346.049152 169.472629 
L 347.160665 167.377218 
L 348.147385 165.048985 
L 349.077721 162.255104 
L 349.849877 159.228401 
L 350.507318 155.73605 
L 351.013753 151.778053 
L 351.322816 147.587232 
L 351.426186 143.163588 
L 351.311179 138.739944 
L 350.990083 134.549124 
L 350.470202 130.591127 
L 349.797808 127.098776 
L 349.009208 124.072072 
L 348.058502 121.278192 
L 347.048564 118.949958 
L 345.909277 116.854548 
L 344.640516 114.991961 
L 343.430994 113.560346 
L 341.995723 112.198081 
L 340.417684 111.033964 
L 339.010424 110.238295 
L 337.381793 109.559986 
L 335.753162 109.111534 
L 334.124531 108.873363 
L 332.4959 108.835604 
L 330.867269 108.996737 
L 329.102596 109.4042 
L 327.610007 109.951065 
L 325.957764 110.80114 
L 324.585254 111.732434 
L 323.189437 112.931337 
L 321.793468 114.44404 
L 320.533371 116.156078 
L 319.426221 118.018665 
L 318.303544 120.380952 
L 317.357298 122.907955 
L 316.479952 125.934659 
L 315.771873 129.194186 
L 315.196247 132.91936 
L 314.787915 137.110181 
L 314.590481 141.533825 
L 314.57962 144.327705 
L 314.57962 144.327705 
" style="fill:none;stroke:#443983;stroke-width:1.5;"/>
   </g>
   <g id="LineCollection_3">
    <path clip-path="url(#pd5481760b2)" d="M 86.568007 149.682643 
L 86.885555 155.968873 
L 87.367047 161.323811 
L 87.998922 165.980278 
L 88.752917 169.938275 
L 89.59722 173.250074 
L 90.586942 176.224506 
L 91.691174 178.803464 
L 92.854482 180.952072 
L 94.058932 182.743561 
L 95.41376 184.375062 
L 96.849718 185.770264 
L 98.43836 187.008258 
L 100.22279 188.098498 
L 101.928284 188.903352 
L 103.789576 189.560997 
L 105.88353 190.065221 
L 107.977484 190.347276 
L 110.071438 190.422209 
L 112.165393 190.294437 
L 114.259347 189.956547 
L 116.353301 189.390875 
L 118.214593 188.669855 
L 120.075886 187.705183 
L 121.704517 186.616792 
L 123.333148 185.239884 
L 124.803463 183.674854 
L 126.125087 181.921622 
L 127.32071 179.94968 
L 128.451703 177.614542 
L 129.431434 175.060389 
L 130.339968 172.033686 
L 131.140553 168.541335 
L 131.815647 164.583338 
L 132.380756 159.926871 
L 132.805755 154.571933 
L 133.066161 148.518526 
L 133.130457 141.999471 
L 132.981225 135.480417 
L 132.628386 129.42701 
L 132.096263 124.072072 
L 131.444293 119.648428 
L 130.687529 115.923255 
L 129.808936 112.663727 
L 128.832936 109.869847 
L 127.753718 107.440923 
L 126.59041 105.355409 
L 125.364733 103.583616 
L 123.968514 101.953853 
L 122.402502 100.493669 
L 120.773871 99.290215 
L 118.912578 98.220938 
L 117.051286 97.413668 
L 114.957331 96.765281 
L 112.863377 96.35434 
L 110.769423 96.15771 
L 108.675469 96.165192 
L 106.581515 96.377237 
L 104.386448 96.831739 
L 102.393607 97.472145 
L 100.532314 98.299168 
L 98.903683 99.239655 
L 97.275052 100.429704 
L 95.857894 101.721029 
L 94.416778 103.350793 
L 93.098871 105.21338 
L 92.032201 107.075967 
L 90.954991 109.4042 
L 90.012967 111.965257 
L 89.131897 115.022533 
L 88.368628 118.484312 
L 87.685543 122.675132 
L 87.130002 127.564423 
L 86.727668 133.152184 
L 86.502126 139.438414 
L 86.486502 146.190292 
L 86.568007 149.682643 
L 86.568007 149.682643 
" style="fill:none;stroke:#31688e;stroke-width:1.5;"/>
    <path clip-path="url(#pd5481760b2)" d="M 198.248065 151.778053 
L 198.62801 157.83146 
L 199.18082 163.099883 
L 199.838529 167.377218 
L 200.623919 171.102392 
L 201.53747 174.361919 
L 202.555088 177.1558 
L 203.63207 179.484033 
L 204.848406 181.579444 
L 206.203699 183.442031 
L 207.692725 185.071794 
L 209.185268 186.378984 
L 210.813899 187.517098 
L 212.675191 188.527171 
L 214.536484 189.285729 
L 216.630438 189.887884 
L 218.724392 190.257907 
L 220.818346 190.416127 
L 222.9123 190.371213 
L 225.006254 190.120497 
L 227.100208 189.65067 
L 229.194163 188.935085 
L 231.055455 188.056784 
L 232.866851 186.934381 
L 234.350295 185.770264 
L 235.787521 184.373324 
L 237.141086 182.743561 
L 238.388111 180.880974 
L 239.517255 178.785563 
L 240.59458 176.273618 
L 241.525226 173.513013 
L 242.341709 170.403922 
L 243.084523 166.678748 
L 243.72463 162.255104 
L 244.228301 157.13299 
L 244.571802 151.312406 
L 244.728817 144.793352 
L 244.666116 138.041474 
L 244.391415 131.755243 
L 243.933341 126.167483 
L 243.311292 121.278192 
L 242.597912 117.320195 
L 241.750572 113.827844 
L 240.785696 110.80114 
L 239.737041 108.240083 
L 238.661028 106.144673 
L 237.478733 104.282086 
L 236.17401 102.616677 
L 234.77804 101.174396 
L 233.149409 99.828296 
L 231.398834 98.694325 
L 229.659486 97.821422 
L 227.624821 97.064562 
L 225.704239 96.570848 
L 223.610285 96.249034 
L 221.516331 96.13641 
L 219.422377 96.226393 
L 217.328423 96.524268 
L 215.175179 97.064562 
L 213.276318 97.763032 
L 211.511883 98.631319 
L 209.883252 99.660549 
L 208.254621 100.962016 
L 206.8005 102.419499 
L 205.462682 104.083481 
L 204.273565 105.91185 
L 203.136067 108.082348 
L 202.099777 110.568317 
L 201.182168 113.362197 
L 200.344128 116.660769 
L 199.637005 120.346898 
L 199.020171 124.770542 
L 198.536083 129.892656 
L 198.209542 135.713241 
L 198.068235 142.232295 
L 198.146711 148.984172 
L 198.248065 151.778053 
L 198.248065 151.778053 
" style="fill:none;stroke:#31688e;stroke-width:1.5;"/>
    <path clip-path="url(#pd5481760b2)" d="M 309.69368 146.655939 
L 309.915275 153.174993 
L 310.329982 158.995577 
L 310.88551 163.884868 
L 311.56854 168.075688 
L 312.399374 171.800862 
L 313.290034 174.827566 
L 314.252203 177.388623 
L 315.35429 179.716857 
L 316.601749 181.812267 
L 317.838221 183.484564 
L 319.29264 185.071794 
L 320.862821 186.439363 
L 322.491452 187.564892 
L 324.354434 188.564145 
L 326.214038 189.312587 
L 328.307992 189.905534 
L 330.401946 190.267476 
L 332.4959 190.418063 
L 334.589854 190.365652 
L 336.683808 190.107137 
L 338.777762 189.62878 
L 340.871716 188.903352 
L 342.733009 188.014615 
L 344.466692 186.934381 
L 345.990271 185.735568 
L 347.387835 184.373324 
L 348.78221 182.688547 
L 349.988219 180.880974 
L 351.117439 178.785563 
L 352.123943 176.45733 
L 353.0799 173.663449 
L 353.941776 170.403922 
L 354.68451 166.678748 
L 355.3247 162.255104 
L 355.828317 157.13299 
L 356.171761 151.312406 
L 356.328791 144.793352 
L 356.266162 138.041474 
L 355.991503 131.755243 
L 355.529395 126.12862 
L 354.91129 121.278192 
L 354.197936 117.320195 
L 353.350433 113.827844 
L 352.385615 110.80114 
L 351.33722 108.240083 
L 350.126355 105.91185 
L 348.91222 104.049263 
L 347.599657 102.419499 
L 346.212328 101.022559 
L 344.594302 99.715774 
L 342.965671 98.675095 
L 341.104378 97.754421 
L 339.225317 97.064562 
L 337.149131 96.53948 
L 335.055177 96.233654 
L 332.961223 96.136133 
L 330.867269 96.241201 
L 328.773315 96.555006 
L 326.679361 97.094209 
L 324.818068 97.787728 
L 322.956776 98.719275 
L 321.210168 99.858442 
L 319.699514 101.102787 
L 318.195392 102.652323 
L 316.907575 104.301095 
L 315.738773 106.144673 
L 314.580959 108.418977 
L 313.61429 110.80114 
L 312.715067 113.595021 
L 311.901708 116.854548 
L 311.198996 120.579722 
L 310.593304 125.003366 
L 310.118845 130.12548 
L 309.792104 136.178887 
L 309.666336 142.697942 
L 309.69368 146.655939 
L 309.69368 146.655939 
" style="fill:none;stroke:#31688e;stroke-width:1.5;"/>
   </g>
   <g id="LineCollection_4">
    <path clip-path="url(#pd5481760b2)" d="M 54 59.58 
L 81.686727 59.58 
L 81.9 59.812823 
L 81.9 226.747177 
L 81.686727 226.98 
L 54 226.98 
L 54 226.98 
" style="fill:none;stroke:#21908d;stroke-width:1.5;"/>
    <path clip-path="url(#pd5481760b2)" d="M 388.8 226.98 
L 361.113273 226.98 
L 360.9 226.747177 
L 360.9 59.812823 
L 361.113273 59.58 
L 388.8 59.58 
L 388.8 59.58 
" style="fill:none;stroke:#21908d;stroke-width:1.5;"/>
    <path clip-path="url(#pd5481760b2)" d="M 137.699999 226.747177 
L 137.758165 59.58 
L 193.364281 59.58 
L 193.5 59.812823 
L 193.5 226.747177 
L 193.364281 226.98 
L 137.758165 226.98 
L 137.699999 226.747177 
L 137.699999 226.747177 
" style="fill:none;stroke:#21908d;stroke-width:1.5;"/>
    <path clip-path="url(#pd5481760b2)" d="M 249.3 226.747177 
L 249.3 59.812823 
L 249.435719 59.58 
L 305.041835 59.58 
L 305.100001 60.045647 
L 305.041835 226.98 
L 249.435719 226.98 
L 249.3 226.747177 
L 249.3 226.747177 
" style="fill:none;stroke:#21908d;stroke-width:1.5;"/>
   </g>
   <g id="LineCollection_5">
    <path clip-path="url(#pd5481760b2)" d="M 54 96.136099 
L 56.093954 96.237391 
L 58.187908 96.547204 
L 60.281862 97.082045 
L 62.143155 97.771047 
L 64.004448 98.697172 
L 65.78989 99.858442 
L 67.26171 101.067326 
L 68.657679 102.484373 
L 70.053648 104.24614 
L 71.261092 106.144673 
L 72.380264 108.333771 
L 73.385641 110.80114 
L 74.284842 113.595021 
L 75.098312 116.854548 
L 75.801026 120.579722 
L 76.406651 125.003366 
L 76.88112 130.12548 
L 77.207919 136.178887 
L 77.333625 142.697942 
L 77.239376 149.449819 
L 76.930547 155.73605 
L 76.432953 161.323811 
L 75.801026 165.980278 
L 75.047074 169.938275 
L 74.217936 173.197803 
L 73.300387 175.991683 
L 72.228408 178.55274 
L 71.126287 180.64815 
L 69.820987 182.636083 
L 68.425017 184.333098 
L 66.950142 185.770264 
L 65.400417 186.981262 
L 63.577423 188.098498 
L 61.910493 188.887326 
L 60.049201 189.549389 
L 57.955247 190.057966 
L 55.861293 190.343965 
L 54 190.423901 
L 54 190.423901 
" style="fill:none;stroke:#35b779;stroke-width:1.5;"/>
    <path clip-path="url(#pd5481760b2)" d="M 388.8 190.423901 
L 386.706046 190.322609 
L 384.612092 190.012796 
L 382.518138 189.477955 
L 380.656845 188.788953 
L 378.795552 187.862828 
L 377.01011 186.701558 
L 375.53829 185.492674 
L 374.142321 184.075627 
L 372.746352 182.31386 
L 371.538908 180.415327 
L 370.419736 178.226229 
L 369.414359 175.75886 
L 368.515158 172.964979 
L 367.701688 169.705452 
L 366.998974 165.980278 
L 366.393349 161.556634 
L 365.91888 156.43452 
L 365.592081 150.381113 
L 365.466375 143.862058 
L 365.560624 137.110181 
L 365.869453 130.82395 
L 366.367047 125.236189 
L 366.998974 120.579722 
L 367.752926 116.621725 
L 368.582064 113.362197 
L 369.499613 110.568317 
L 370.571592 108.00726 
L 371.673713 105.91185 
L 372.979013 103.923917 
L 374.374983 102.226902 
L 375.849858 100.789736 
L 377.399583 99.578738 
L 379.222577 98.461502 
L 380.889507 97.672674 
L 382.750799 97.010611 
L 384.844753 96.502034 
L 386.938707 96.216035 
L 388.8 96.136099 
L 388.8 96.136099 
" style="fill:none;stroke:#35b779;stroke-width:1.5;"/>
    <path clip-path="url(#pd5481760b2)" d="M 142.409486 150.846759 
L 142.268261 144.327705 
L 142.346692 137.575828 
L 142.644058 131.200914 
L 143.11579 125.701836 
L 143.724798 121.045369 
L 144.451393 117.087371 
L 145.315227 113.595021 
L 146.299742 110.568317 
L 147.371584 108.00726 
L 148.473517 105.91185 
L 149.687722 104.049263 
L 151.019875 102.397561 
L 152.415844 100.996963 
L 154.044475 99.688076 
L 155.673106 98.653139 
L 157.534399 97.737854 
L 159.395691 97.057947 
L 161.489646 96.531835 
L 163.5836 96.229988 
L 165.677554 96.136237 
L 167.771508 96.245081 
L 169.865462 96.562887 
L 171.959416 97.106464 
L 173.820709 97.80452 
L 175.682001 98.741517 
L 177.389882 99.858442 
L 178.939263 101.138477 
L 180.404663 102.652323 
L 181.731202 104.356342 
L 182.992392 106.377497 
L 184.057818 108.504895 
L 185.069258 111.033964 
L 185.950513 113.827844 
L 186.748565 117.087371 
L 187.475209 121.045369 
L 188.058815 125.469013 
L 188.53058 130.82395 
L 188.831898 136.877357 
L 188.934493 143.396412 
L 188.81619 150.148289 
L 188.481214 156.43452 
L 187.979874 161.789458 
L 187.31508 166.499808 
L 186.541728 170.403922 
L 185.68006 173.663449 
L 184.724035 176.45733 
L 183.603678 179.018387 
L 182.588147 180.880974 
L 181.265879 182.844034 
L 179.86991 184.499766 
L 178.47394 185.836797 
L 176.845309 187.08825 
L 175.177415 188.098498 
L 173.355386 188.950793 
L 171.261432 189.661484 
L 169.167477 190.127063 
L 167.073523 190.373888 
L 164.979569 190.415056 
L 162.885615 190.253014 
L 160.791661 189.878938 
L 158.670994 189.262615 
L 156.836414 188.508896 
L 154.975122 187.492979 
L 153.346491 186.348511 
L 151.892637 185.071794 
L 150.554552 183.625166 
L 149.201675 181.812267 
L 148.079403 179.94968 
L 147.052825 177.85427 
L 146.048844 175.293213 
L 145.122045 172.266509 
L 144.306044 168.774159 
L 143.618457 164.816161 
L 143.042739 160.159694 
L 142.608547 154.804757 
L 142.409486 150.846759 
L 142.409486 150.846759 
" style="fill:none;stroke:#35b779;stroke-width:1.5;"/>
    <path clip-path="url(#pd5481760b2)" d="M 254.080247 152.476523 
L 253.886455 146.190292 
L 253.902106 139.438414 
L 254.140296 132.91936 
L 254.573696 127.098776 
L 255.150821 122.209485 
L 255.859441 118.018665 
L 256.659996 114.526314 
L 257.578874 111.469061 
L 258.551404 108.938554 
L 259.679197 106.61032 
L 260.959345 104.51491 
L 262.232106 102.842543 
L 263.735834 101.255382 
L 265.256706 99.972346 
L 266.885337 98.877901 
L 268.74663 97.907608 
L 270.607922 97.181937 
L 272.763169 96.598915 
L 274.79583 96.269875 
L 276.889785 96.138309 
L 278.983739 96.209485 
L 281.077693 96.4876 
L 283.171647 96.987484 
L 285.03294 97.640729 
L 286.894232 98.524235 
L 288.666715 99.625619 
L 290.151494 100.790579 
L 291.587639 102.186676 
L 292.943433 103.819362 
L 294.188136 105.679026 
L 295.317322 107.774437 
L 296.323927 110.10267 
L 297.279913 112.896551 
L 298.141725 116.156078 
L 298.884501 119.881252 
L 299.524652 124.304896 
L 300.028296 129.42701 
L 300.371809 135.247594 
L 300.528793 141.766648 
L 300.466128 148.518526 
L 300.191453 154.804757 
L 299.733378 160.392517 
L 299.111276 165.281808 
L 298.397907 169.239805 
L 297.550483 172.732156 
L 296.585633 175.75886 
L 295.50271 178.39453 
L 294.326483 180.64815 
L 293.112278 182.510737 
L 291.780125 184.162439 
L 290.384156 185.563037 
L 288.755525 186.871924 
L 287.126894 187.906861 
L 285.265601 188.822146 
L 283.404309 189.502053 
L 281.310354 190.028165 
L 279.2164 190.330012 
L 277.122446 190.423763 
L 275.028492 190.314919 
L 272.934538 189.997113 
L 270.840584 189.453536 
L 268.979291 188.75548 
L 267.117999 187.818483 
L 265.410118 186.701558 
L 263.860737 185.421523 
L 262.395337 183.907677 
L 261.068798 182.203658 
L 259.807608 180.182503 
L 258.742182 178.055105 
L 257.730742 175.526036 
L 256.849487 172.732156 
L 256.051435 169.472629 
L 255.324791 165.514631 
L 254.741185 161.090987 
L 254.26942 155.73605 
L 254.080247 152.476523 
L 254.080247 152.476523 
" style="fill:none;stroke:#35b779;stroke-width:1.5;"/>
   </g>
   <g id="LineCollection_6">
    <path clip-path="url(#pd5481760b2)" d="M 54 108.826124 
L 55.729023 108.938554 
L 57.257262 109.227169 
L 58.885893 109.744159 
L 60.514524 110.499437 
L 62.100657 111.499611 
L 63.306463 112.465864 
L 64.702432 113.856632 
L 65.985422 115.457608 
L 67.185304 117.320195 
L 68.269552 119.415605 
L 69.234396 121.743839 
L 70.144948 124.537719 
L 70.900857 127.564423 
L 71.543612 131.056773 
L 72.03669 135.014771 
L 72.333708 139.205591 
L 72.425653 143.629235 
L 72.298842 148.052879 
L 71.965773 152.2437 
L 71.432266 156.201697 
L 70.744816 159.694047 
L 69.867138 162.953574 
L 68.890341 165.708299 
L 67.816867 168.075688 
L 66.618314 170.171099 
L 65.400417 171.876353 
L 64.004448 173.439026 
L 62.608478 174.677411 
L 61.041856 175.75886 
L 59.583878 176.523113 
L 57.897793 177.1558 
L 56.326616 177.530615 
L 54.697985 177.715696 
L 54 177.733876 
L 54 177.733876 
" style="fill:none;stroke:#90d743;stroke-width:1.5;"/>
    <path clip-path="url(#pd5481760b2)" d="M 388.8 177.733876 
L 387.070977 177.621446 
L 385.542738 177.332831 
L 383.914107 176.815841 
L 382.285476 176.060563 
L 380.699343 175.060389 
L 379.493537 174.094136 
L 378.097568 172.703368 
L 376.814578 171.102392 
L 375.614696 169.239805 
L 374.530448 167.144395 
L 373.565604 164.816161 
L 372.655052 162.022281 
L 371.899143 158.995577 
L 371.256388 155.503227 
L 370.76331 151.545229 
L 370.466292 147.354409 
L 370.374347 142.930765 
L 370.501158 138.507121 
L 370.834227 134.3163 
L 371.367734 130.358303 
L 372.055184 126.865953 
L 372.932862 123.606426 
L 373.909659 120.851701 
L 374.983133 118.484312 
L 376.181686 116.388901 
L 377.399583 114.683647 
L 378.795552 113.120974 
L 380.191522 111.882589 
L 381.758144 110.80114 
L 383.216122 110.036887 
L 384.902207 109.4042 
L 386.473384 109.029385 
L 388.102015 108.844304 
L 388.8 108.826124 
L 388.8 108.826124 
" style="fill:none;stroke:#90d743;stroke-width:1.5;"/>
    <path clip-path="url(#pd5481760b2)" d="M 147.288749 147.820056 
L 147.17383 143.396412 
L 147.277188 138.972768 
L 147.586192 134.781947 
L 148.092684 130.82395 
L 148.75006 127.331599 
L 149.590909 124.072072 
L 150.541436 121.278192 
L 151.55137 118.949958 
L 152.690589 116.854548 
L 153.959628 114.991961 
L 155.207783 113.51912 
L 156.603892 112.198081 
L 158.182733 111.033964 
L 159.628353 110.219256 
L 161.256984 109.546736 
L 162.885615 109.103475 
L 164.514246 108.870156 
L 166.142877 108.837119 
L 167.771508 109.003034 
L 169.497402 109.4042 
L 171.02877 109.967947 
L 172.657401 110.810048 
L 174.05337 111.761982 
L 175.44934 112.968794 
L 176.873654 114.526314 
L 178.066729 116.156078 
L 179.173994 118.018665 
L 180.28187 120.346898 
L 181.242667 122.907955 
L 182.060703 125.701836 
L 182.784294 128.961363 
L 183.374242 132.686537 
L 183.795307 136.877357 
L 184.004575 141.301001 
L 183.993094 145.724645 
L 183.759696 150.148289 
L 183.312401 154.33911 
L 182.694083 158.064284 
L 181.938577 161.323811 
L 181.003127 164.350515 
L 179.976166 166.911572 
L 178.918272 169.006982 
L 177.750728 170.869569 
L 176.379986 172.616185 
L 174.984017 174.025022 
L 173.588047 175.141301 
L 171.959416 176.143647 
L 170.330785 176.874887 
L 168.622984 177.388623 
L 167.073523 177.652669 
L 165.444892 177.732979 
L 163.816261 177.614722 
L 162.18763 177.293147 
L 160.558999 176.754638 
L 158.930368 175.974996 
L 157.301737 174.915481 
L 155.826226 173.663449 
L 154.509798 172.256021 
L 153.289114 170.636745 
L 152.152373 168.774159 
L 151.01744 166.445925 
L 150.035564 163.884868 
L 149.158582 160.93375 
L 148.460117 157.83146 
L 147.856407 154.106287 
L 147.440335 150.148289 
L 147.288749 147.820056 
L 147.288749 147.820056 
" style="fill:none;stroke:#90d743;stroke-width:1.5;"/>
    <path clip-path="url(#pd5481760b2)" d="M 258.971733 149.216996 
L 258.786371 144.793352 
L 258.820826 140.369708 
L 259.078573 135.946064 
L 259.519741 131.988067 
L 260.152552 128.262893 
L 260.924709 125.003366 
L 261.796873 122.209485 
L 262.823834 119.648428 
L 263.881728 117.553018 
L 265.049272 115.690431 
L 266.420014 113.943815 
L 267.815983 112.534978 
L 269.211953 111.418699 
L 270.840584 110.416353 
L 272.469215 109.685113 
L 274.177016 109.171377 
L 275.726477 108.907331 
L 277.355108 108.827021 
L 278.983739 108.945278 
L 280.61237 109.266853 
L 282.241001 109.805362 
L 283.869632 110.585004 
L 285.498263 111.644519 
L 286.973774 112.896551 
L 288.290202 114.303979 
L 289.510886 115.923255 
L 290.647627 117.785841 
L 291.78256 120.114075 
L 292.764436 122.675132 
L 293.641418 125.62625 
L 294.339883 128.72854 
L 294.943593 132.453713 
L 295.359665 136.411711 
L 295.593061 140.835355 
L 295.604513 145.258999 
L 295.395181 149.682643 
L 294.974104 153.873463 
L 294.384393 157.598637 
L 293.641418 160.93375 
L 292.764436 163.884868 
L 291.780125 166.451572 
L 290.616817 168.830378 
L 289.350448 170.869569 
L 288.05754 172.527918 
L 286.661571 173.955032 
L 285.265601 175.085975 
L 283.63697 176.102413 
L 282.008339 176.845632 
L 280.223026 177.388623 
L 278.751077 177.643868 
L 277.122446 177.733652 
L 275.468656 177.621446 
L 273.865184 177.313233 
L 272.236553 176.78551 
L 270.560888 175.991683 
L 268.979291 174.973064 
L 267.583322 173.812299 
L 266.187352 172.347806 
L 264.889221 170.636745 
L 263.75259 168.774159 
L 262.697429 166.629169 
L 261.715381 164.117691 
L 260.836136 161.229295 
L 260.105917 158.064284 
L 259.487599 154.33911 
L 259.059104 150.381113 
L 258.971733 149.216996 
L 258.971733 149.216996 
" style="fill:none;stroke:#90d743;stroke-width:1.5;"/>
   </g>
   <g id="LineCollection_7">
    <path clip-path="url(#pd5481760b2)" d="M 54 120.972822 
L 55.395969 121.0966 
L 56.791939 121.474318 
L 57.955247 121.997146 
L 59.118555 122.731251 
L 60.413865 123.839249 
L 61.459058 125.003366 
L 62.608478 126.647325 
L 63.604782 128.495716 
L 64.476036 130.591127 
L 65.268671 133.152184 
L 65.874878 135.946064 
L 66.285119 138.972768 
L 66.474763 141.999471 
L 66.449451 145.258999 
L 66.210741 148.285702 
L 65.745109 151.312406 
L 65.143463 153.873463 
L 64.389884 156.201697 
L 63.492745 158.297107 
L 62.453662 160.159694 
L 61.44517 161.574137 
L 60.171875 162.953574 
L 59.040007 163.884868 
L 57.722585 164.683372 
L 56.326616 165.240734 
L 54.930646 165.53238 
L 54 165.587178 
L 54 165.587178 
" style="fill:none;stroke:#fde725;stroke-width:1.5;"/>
    <path clip-path="url(#pd5481760b2)" d="M 388.8 165.587178 
L 387.404031 165.4634 
L 386.008061 165.085682 
L 384.844753 164.562854 
L 383.681445 163.828749 
L 382.386135 162.720751 
L 381.340942 161.556634 
L 380.191522 159.912675 
L 379.195218 158.064284 
L 378.323964 155.968873 
L 377.531329 153.407816 
L 376.925122 150.613936 
L 376.514881 147.587232 
L 376.325237 144.560529 
L 376.350549 141.301001 
L 376.589259 138.274298 
L 377.054891 135.247594 
L 377.656537 132.686537 
L 378.410116 130.358303 
L 379.307255 128.262893 
L 380.346338 126.400306 
L 381.35483 124.985863 
L 382.628125 123.606426 
L 383.759993 122.675132 
L 385.077415 121.876628 
L 386.473384 121.319266 
L 387.869354 121.02762 
L 388.8 120.972822 
L 388.8 120.972822 
" style="fill:none;stroke:#fde725;stroke-width:1.5;"/>
    <path clip-path="url(#pd5481760b2)" d="M 153.110423 143.862058 
L 153.186751 140.602531 
L 153.475456 137.575828 
L 153.948963 134.781947 
L 154.590169 132.22089 
L 155.440445 129.763595 
L 156.371091 127.741584 
L 157.453341 125.934659 
L 158.530399 124.537719 
L 159.683946 123.373602 
L 160.899257 122.442309 
L 162.18763 121.728367 
L 163.5836 121.232277 
L 164.979569 120.997161 
L 166.375539 121.010863 
L 167.785545 121.278192 
L 169.167477 121.800724 
L 170.330785 122.461275 
L 171.516473 123.373602 
L 172.670147 124.537719 
L 173.820709 126.043191 
L 174.85748 127.797246 
L 175.717358 129.659833 
L 176.540127 131.988067 
L 177.201544 134.549124 
L 177.693113 137.343004 
L 177.999016 140.369708 
L 178.092787 143.396412 
L 177.965978 146.655939 
L 177.625998 149.682643 
L 177.077971 152.562571 
L 176.379986 155.08301 
L 175.521381 157.365814 
L 174.607068 159.228401 
L 173.585184 160.858164 
L 172.424739 162.295947 
L 171.244361 163.419221 
L 169.9293 164.350515 
L 168.702154 164.965457 
L 167.306185 165.401823 
L 165.910215 165.581096 
L 164.514246 165.512548 
L 163.118277 165.192288 
L 161.722307 164.603993 
L 160.558828 163.884868 
L 159.395691 162.923985 
L 158.232384 161.669775 
L 157.146337 160.159694 
L 156.223117 158.52993 
L 155.389132 156.667344 
L 154.590169 154.33911 
L 153.948963 151.778053 
L 153.475456 148.984172 
L 153.186751 145.957469 
L 153.110423 143.862058 
L 153.110423 143.862058 
" style="fill:none;stroke:#fde725;stroke-width:1.5;"/>
    <path clip-path="url(#pd5481760b2)" d="M 264.786399 145.957469 
L 264.710804 142.697942 
L 264.872033 139.438414 
L 265.256706 136.349283 
L 265.813271 133.61783 
L 266.560417 131.056773 
L 267.380737 128.961363 
L 268.324156 127.098776 
L 269.444614 125.386572 
L 270.607922 124.018238 
L 271.847201 122.907955 
L 273.167199 122.039309 
L 274.563169 121.419389 
L 275.959138 121.070477 
L 277.355108 120.974342 
L 278.751077 121.12583 
L 280.147047 121.532656 
L 281.543016 122.21697 
L 282.843556 123.140779 
L 283.869632 124.098691 
L 285.03294 125.491032 
L 286.075567 127.098776 
L 287.018927 128.961363 
L 287.839981 131.056773 
L 288.58681 133.61783 
L 289.153224 136.411711 
L 289.527984 139.438414 
L 289.686171 142.476074 
L 289.626609 145.724645 
L 289.354637 148.751349 
L 288.898893 151.545229 
L 288.277881 154.106287 
L 287.501602 156.43452 
L 286.576883 158.52993 
L 285.498263 160.400583 
L 284.334955 161.947475 
L 283.116054 163.186398 
L 281.900743 164.117691 
L 280.61237 164.831633 
L 279.2164 165.327723 
L 277.820431 165.562839 
L 276.424461 165.549137 
L 275.014455 165.281808 
L 273.632523 164.759276 
L 272.469215 164.098725 
L 271.283527 163.186398 
L 270.129853 162.022281 
L 268.979291 160.516809 
L 267.94252 158.762754 
L 267.082642 156.900167 
L 266.259873 154.571933 
L 265.598456 152.010876 
L 265.106887 149.216996 
L 264.800984 146.190292 
L 264.786399 145.957469 
L 264.786399 145.957469 
" style="fill:none;stroke:#fde725;stroke-width:1.5;"/>
   </g>
   <g id="line2d_1">
    <path clip-path="url(#pd5481760b2)" d="M 54 195.36 
L 388.8 195.36 
" style="fill:none;stroke:#ff0000;stroke-linecap:square;stroke-width:1.5;"/>
   </g>
   <g id="line2d_2">
    <path clip-path="url(#pd5481760b2)" d="M 54 91.2 
L 388.8 91.2 
" style="fill:none;stroke:#ff0000;stroke-linecap:square;stroke-width:1.5;"/>
   </g>
   <g id="patch_3">
    <path d="M 54 252 
L 54 34.56 
" style="fill:none;stroke:#000000;stroke-linecap:square;stroke-linejoin:miter;stroke-width:0.8;"/>
   </g>
   <g id="patch_4">
    <path d="M 388.8 252 
L 388.8 34.56 
" style="fill:none;stroke:#000000;stroke-linecap:square;stroke-linejoin:miter;stroke-width:0.8;"/>
   </g>
   <g id="patch_5">
    <path d="M 54 252 
L 388.8 252 
" style="fill:none;stroke:#000000;stroke-linecap:square;stroke-linejoin:miter;stroke-width:0.8;"/>
   </g>
   <g id="patch_6">
    <path d="M 54 34.56 
L 388.8 34.56 
" style="fill:none;stroke:#000000;stroke-linecap:square;stroke-linejoin:miter;stroke-width:0.8;"/>
   </g>
  </g>
 </g>
 <defs>
  <clipPath id="pd5481760b2">
   <rect height="217.44" width="334.8" x="54" y="34.56"/>
  </clipPath>
 </defs>
</svg>
