<?xml version="1.0" encoding="utf-8" standalone="no"?>
<!DOCTYPE svg PUBLIC "-//W3C//DTD SVG 1.1//EN"
  "http://www.w3.org/Graphics/SVG/1.1/DTD/svg11.dtd">
<!-- Created with matplotlib (http://matplotlib.org/) -->
<svg height="288pt" version="1.1" viewBox="0 0 432 288" width="432pt" xmlns="http://www.w3.org/2000/svg" xmlns:xlink="http://www.w3.org/1999/xlink">
 <defs>
  <style type="text/css">
*{stroke-linecap:butt;stroke-linejoin:round;}
  </style>
 </defs>
 <g id="figure_1">
  <g id="patch_1">
   <path d="M 0 288 
L 432 288 
L 432 0 
L 0 0 
z
" style="fill:#ffffff;"/>
  </g>
  <g id="axes_1">
   <g id="patch_2">
    <path d="M 54 252 
L 388.8 252 
L 388.8 34.56 
L 54 34.56 
z
" style="fill:#ffffff;"/>
   </g>
   <g id="matplotlib.axis_1"/>
   <g id="matplotlib.axis_2"/>
   <g id="LineCollection_1">
    <path clip-path="url(#pbdc396356a)" d="M 205.190556 198.808373 
L 205.572796 199.506843 
L 206.223105 200.205313 
L 207.323975 200.9867 
L 208.719944 201.68359 
L 210.581237 202.351987 
L 212.907853 202.937449 
L 215.46713 203.365967 
L 218.49173 203.65426 
L 221.748992 203.740638 
L 225.006254 203.60609 
L 228.030855 203.268243 
L 230.671759 202.76637 
L 233.090915 202.0679 
L 234.77804 201.365253 
L 236.17401 200.526673 
L 236.871994 199.923165 
L 237.383136 199.274019 
L 237.68113 198.575549 
L 237.7363 197.877079 
L 237.551845 197.178609 
L 237.104656 196.464166 
L 236.406671 195.776996 
L 235.243363 195.002092 
L 233.847394 194.33694 
L 231.971162 193.686259 
L 229.426824 193.07739 
L 226.634885 192.651396 
L 223.610285 192.409488 
L 220.353023 192.369795 
L 217.095761 192.554006 
L 214.071161 192.949545 
L 211.511883 193.497787 
L 209.417929 194.153785 
L 207.789298 194.874933 
L 206.62599 195.597662 
L 205.885078 196.247316 
L 205.364454 196.945786 
L 205.098498 197.644256 
L 205.073864 198.342726 
L 205.190556 198.808373 
L 205.190556 198.808373 
" style="fill:none;stroke:#440154;stroke-width:1.5;"/>
    <path clip-path="url(#pbdc396356a)" d="M 205.15989 89.148567 
L 205.508518 89.847038 
L 206.160667 90.581552 
L 207.091313 91.281905 
L 208.487283 92.023111 
L 210.348575 92.72579 
L 212.675191 93.340785 
L 215.46713 93.822881 
L 218.49173 94.113047 
L 221.748992 94.200404 
L 225.006254 94.065308 
L 228.030855 93.722808 
L 230.822794 93.179305 
L 232.916748 92.571982 
L 234.77804 91.802934 
L 235.941348 91.127352 
L 236.871994 90.355818 
L 237.337318 89.773718 
L 237.64011 89.148567 
L 237.744515 88.450097 
L 237.609444 87.751627 
L 237.227204 87.053157 
L 236.576895 86.354687 
L 235.476025 85.5733 
L 234.080056 84.87641 
L 232.218763 84.208013 
L 229.892147 83.622551 
L 227.33287 83.194033 
L 224.30827 82.90574 
L 221.051008 82.819362 
L 217.793746 82.95391 
L 214.769145 83.291757 
L 212.128241 83.79363 
L 209.709085 84.4921 
L 208.02196 85.194747 
L 206.62599 86.033327 
L 205.928006 86.636835 
L 205.416864 87.285981 
L 205.11887 87.984451 
L 205.0637 88.682921 
L 205.15989 89.148567 
L 205.15989 89.148567 
" style="fill:none;stroke:#440154;stroke-width:1.5;"/>
   </g>
   <g id="LineCollection_2">
    <path clip-path="url(#pbdc396356a)" d="M 54 151.377814 
L 58.653231 151.266662 
L 63.073801 150.942519 
L 67.029048 150.440854 
L 70.518972 149.782729 
L 73.31091 149.053762 
L 75.637526 148.239335 
L 77.522928 147.354409 
L 78.967613 146.423115 
L 79.971571 145.491822 
L 80.598868 144.560529 
L 80.844132 143.862058 
L 80.904972 143.163588 
L 80.756081 142.387344 
L 80.475096 141.766648 
L 79.825434 140.90847 
L 78.967613 140.136885 
L 77.73148 139.32399 
L 76.084974 138.507121 
L 73.776233 137.651209 
L 71.216956 136.93951 
L 68.192356 136.312962 
L 64.469771 135.769123 
L 60.281862 135.386769 
L 55.628631 135.195616 
L 54 135.182186 
L 54 135.182186 
" style="fill:none;stroke:#443983;stroke-width:1.5;"/>
    <path clip-path="url(#pbdc396356a)" d="M 388.8 135.182186 
L 384.146769 135.293338 
L 379.726199 135.617481 
L 375.770952 136.119146 
L 372.281028 136.777271 
L 369.48909 137.506238 
L 367.162474 138.320665 
L 365.277072 139.205591 
L 363.832387 140.136885 
L 362.828429 141.068178 
L 362.201132 141.999471 
L 361.955868 142.697942 
L 361.895028 143.396412 
L 362.043919 144.172656 
L 362.324904 144.793352 
L 362.974566 145.65153 
L 363.832387 146.423115 
L 365.06852 147.23601 
L 366.715026 148.052879 
L 369.023767 148.908791 
L 371.583044 149.62049 
L 374.607644 150.247038 
L 378.330229 150.790877 
L 382.518138 151.173231 
L 387.171369 151.364384 
L 388.8 151.377814 
L 388.8 151.377814 
" style="fill:none;stroke:#443983;stroke-width:1.5;"/>
    <path clip-path="url(#pbdc396356a)" d="M 174.491737 199.274019 
L 174.837093 200.67096 
L 175.451662 202.0679 
L 176.189256 203.232017 
L 177.310632 204.555878 
L 178.47394 205.629397 
L 180.102571 206.832935 
L 181.963864 207.936474 
L 184.30299 209.052601 
L 187.082418 210.110249 
L 190.107019 211.029374 
L 193.829604 211.921216 
L 198.017512 212.691529 
L 202.903405 213.356405 
L 208.254621 213.860682 
L 214.303822 214.202795 
L 220.585685 214.336465 
L 227.100208 214.251072 
L 233.416504 213.941892 
L 239.19861 213.434468 
L 244.317165 212.76496 
L 248.737735 211.969791 
L 252.46032 211.092187 
L 255.717582 210.110249 
L 258.509521 209.047219 
L 260.926237 207.888484 
L 262.93009 206.677307 
L 264.558721 205.432022 
L 265.856231 204.16331 
L 266.885337 202.836075 
L 267.584579 201.602253 
L 268.106972 200.205313 
L 268.366396 198.808373 
L 268.374364 197.411433 
L 268.132187 196.014492 
L 267.631146 194.617552 
L 266.8514 193.220612 
L 265.954691 192.04454 
L 264.791383 190.853997 
L 263.395413 189.712779 
L 261.534121 188.492893 
L 259.440167 187.387952 
L 256.88089 186.29873 
L 253.972743 185.304618 
L 250.547298 184.373324 
L 246.64378 183.54442 
L 242.223211 182.82954 
L 237.104656 182.230891 
L 231.520778 181.801678 
L 225.471577 181.558369 
L 219.189715 181.525987 
L 212.907853 181.714989 
L 207.091313 182.103508 
L 201.740097 182.6739 
L 197.086866 183.376116 
L 192.898958 184.221126 
L 189.176372 185.199499 
L 186.083954 186.235911 
L 183.334296 187.400028 
L 181.033218 188.631117 
L 179.171925 189.887228 
L 177.718645 191.125202 
L 176.452824 192.522142 
L 175.522195 193.919082 
L 174.885035 195.316022 
L 174.515058 196.712962 
L 174.398506 198.109903 
L 174.491737 199.274019 
L 174.491737 199.274019 
" style="fill:none;stroke:#443983;stroke-width:1.5;"/>
    <path clip-path="url(#pbdc396356a)" d="M 174.515058 89.847038 
L 174.885035 91.243978 
L 175.522195 92.640918 
L 176.452824 94.037858 
L 177.543294 95.262653 
L 178.939263 96.492845 
L 180.567894 97.641123 
L 182.429187 98.709497 
L 184.905771 99.858442 
L 187.780403 100.92214 
L 191.037665 101.880991 
L 194.76025 102.743212 
L 199.18082 103.526915 
L 204.066713 104.161892 
L 209.650591 104.654557 
L 215.699792 104.957157 
L 221.981654 105.046575 
L 228.263516 104.915944 
L 234.312717 104.570085 
L 239.896595 104.029867 
L 244.782488 103.342403 
L 249.203058 102.496379 
L 252.925643 101.563719 
L 256.182905 100.520498 
L 258.974844 99.3887 
L 261.301459 98.202142 
L 263.162752 97.015442 
L 264.791383 95.706003 
L 265.965167 94.503505 
L 267.001881 93.106565 
L 267.733298 91.709624 
L 268.190161 90.312684 
L 268.390317 88.915744 
L 268.340817 87.518804 
L 268.038693 86.121864 
L 267.470385 84.724924 
L 266.652675 83.386831 
L 265.722029 82.249903 
L 264.558721 81.127978 
L 263.162752 80.043158 
L 261.301459 78.877989 
L 258.974844 77.716044 
L 256.415566 76.693399 
L 253.390966 75.725008 
L 249.901042 74.841075 
L 245.713134 74.021434 
L 241.059903 73.342151 
L 235.941348 72.810966 
L 230.124809 72.427742 
L 223.842946 72.237712 
L 217.328423 72.266132 
L 211.04656 72.513889 
L 205.230021 72.958606 
L 199.878805 73.588794 
L 195.225573 74.35804 
L 191.270327 75.226969 
L 187.780403 76.21894 
L 184.861764 77.274576 
L 182.315766 78.438693 
L 180.292037 79.602809 
L 178.6731 80.766926 
L 177.310632 82.004122 
L 176.189256 83.327983 
L 175.329615 84.724924 
L 174.751355 86.155649 
L 174.459183 87.518804 
L 174.409683 88.915744 
L 174.515058 89.847038 
L 174.515058 89.847038 
" style="fill:none;stroke:#443983;stroke-width:1.5;"/>
   </g>
   <g id="LineCollection_3">
    <path clip-path="url(#pbdc396356a)" d="M 54 161.06839 
L 63.073801 160.956788 
L 71.449618 160.639745 
L 78.894788 160.143078 
L 85.17665 159.510991 
L 90.527867 158.754991 
L 94.948436 157.912251 
L 98.671022 156.980868 
L 101.802544 155.968873 
L 104.254899 154.963457 
L 106.378587 153.873463 
L 108.210146 152.689519 
L 109.61955 151.545229 
L 110.962415 150.148289 
L 111.971556 148.751349 
L 112.705019 147.354409 
L 113.20099 145.957469 
L 113.483447 144.560529 
L 113.561362 142.98896 
L 113.45052 141.766648 
L 113.096039 140.249898 
L 112.600123 138.972768 
L 111.823761 137.575828 
L 110.763748 136.178887 
L 109.606115 135.0027 
L 108.183104 133.850654 
L 106.348853 132.669578 
L 104.092926 131.52242 
L 101.695622 130.55233 
L 98.671022 129.579132 
L 95.181098 128.698997 
L 90.99319 127.883274 
L 86.107297 127.163955 
L 80.290757 126.538208 
L 73.31091 126.023337 
L 65.400417 125.669036 
L 56.559277 125.500389 
L 54 125.49161 
L 54 125.49161 
" style="fill:none;stroke:#31688e;stroke-width:1.5;"/>
    <path clip-path="url(#pbdc396356a)" d="M 388.8 125.49161 
L 379.726199 125.603212 
L 371.350382 125.920255 
L 363.905212 126.416922 
L 357.62335 127.049009 
L 352.272133 127.805009 
L 347.851564 128.647749 
L 344.128978 129.579132 
L 340.997456 130.591127 
L 338.545101 131.596543 
L 336.421413 132.686537 
L 334.589854 133.870481 
L 333.18045 135.014771 
L 331.837585 136.411711 
L 330.828444 137.808651 
L 330.094981 139.205591 
L 329.59901 140.602531 
L 329.316553 141.999471 
L 329.238638 143.57104 
L 329.34948 144.793352 
L 329.703961 146.310102 
L 330.199877 147.587232 
L 330.976239 148.984172 
L 332.036252 150.381113 
L 333.193885 151.5573 
L 334.616896 152.709346 
L 336.451147 153.890422 
L 338.707074 155.03758 
L 341.104378 156.00767 
L 344.128978 156.980868 
L 347.618902 157.861003 
L 351.80681 158.676726 
L 356.692703 159.396045 
L 362.509243 160.021792 
L 369.48909 160.536663 
L 377.399583 160.890964 
L 386.240723 161.059611 
L 388.8 161.06839 
L 388.8 161.06839 
" style="fill:none;stroke:#31688e;stroke-width:1.5;"/>
    <path clip-path="url(#pbdc396356a)" d="M 154.96934 199.274019 
L 155.21946 201.36943 
L 155.673106 203.303597 
L 156.309194 205.094604 
L 157.10196 206.724367 
L 158.143106 208.354131 
L 159.395691 209.874934 
L 160.791661 211.219725 
L 162.51219 212.544951 
L 164.514246 213.774187 
L 166.840862 214.913648 
L 169.400139 215.915562 
L 172.424739 216.859922 
L 175.914663 217.719879 
L 180.102571 218.521609 
L 184.988464 219.232982 
L 191.037665 219.879539 
L 198.250174 220.413294 
L 206.62599 220.802176 
L 216.165115 221.017157 
L 226.169562 221.022237 
L 235.941348 220.810086 
L 244.782488 220.399272 
L 252.227658 219.837163 
L 258.509521 219.143248 
L 263.628075 218.361281 
L 267.815983 217.510304 
L 271.305907 216.592223 
L 274.34355 215.571655 
L 276.889785 214.488484 
L 278.983739 213.376365 
L 280.845031 212.147788 
L 282.352438 210.915188 
L 283.726463 209.518248 
L 284.823027 208.121307 
L 285.82527 206.491544 
L 286.661571 204.671477 
L 287.213731 202.999193 
L 287.62024 201.136606 
L 287.843907 199.041196 
L 287.836125 196.945786 
L 287.592217 194.819021 
L 287.113725 192.754965 
L 286.428909 190.841568 
L 285.527695 189.029791 
L 284.459174 187.400028 
L 283.171647 185.864034 
L 281.775678 184.531654 
L 280.059385 183.209207 
L 278.053092 181.966849 
L 275.726477 180.809802 
L 272.974168 179.716857 
L 269.909937 178.749266 
L 266.187352 177.823413 
L 261.766782 176.97552 
L 256.648228 176.233588 
L 250.599027 175.590763 
L 243.386518 175.05927 
L 235.010702 174.67566 
L 225.704239 174.476507 
L 215.932453 174.48976 
L 206.393329 174.724959 
L 198.017512 175.145821 
L 190.805003 175.720725 
L 184.755803 176.415098 
L 179.637248 177.219079 
L 175.44934 178.088362 
L 171.726755 179.091064 
L 168.702154 180.13313 
L 166.142877 181.242395 
L 164.048923 182.368947 
L 162.092884 183.674854 
L 160.422384 185.071794 
L 159.084445 186.468734 
L 157.849391 188.098498 
L 156.836414 189.839004 
L 156.072785 191.590848 
L 155.496023 193.453435 
L 155.096621 195.548846 
L 154.935951 197.644256 
L 154.96934 199.274019 
L 154.96934 199.274019 
" style="fill:none;stroke:#31688e;stroke-width:1.5;"/>
    <path clip-path="url(#pbdc396356a)" d="M 154.963875 89.614214 
L 155.207783 91.740979 
L 155.686275 93.805035 
L 156.371091 95.718432 
L 157.272305 97.530209 
L 158.340826 99.159972 
L 159.628353 100.695966 
L 161.024322 102.028346 
L 162.740615 103.350793 
L 164.746908 104.593151 
L 167.073523 105.750198 
L 169.825832 106.843143 
L 172.890063 107.810734 
L 176.612648 108.736587 
L 181.033218 109.58448 
L 186.151772 110.326412 
L 192.200973 110.969237 
L 199.413482 111.50073 
L 207.789298 111.88434 
L 217.095761 112.083493 
L 226.867547 112.07024 
L 236.406671 111.835041 
L 244.782488 111.414179 
L 251.994997 110.839275 
L 258.044197 110.144902 
L 263.162752 109.340921 
L 267.35066 108.471638 
L 271.073245 107.468936 
L 274.097846 106.42687 
L 276.657123 105.317605 
L 278.751077 104.191053 
L 280.707116 102.885146 
L 282.377616 101.488206 
L 283.715555 100.091266 
L 284.950609 98.461502 
L 285.963586 96.720996 
L 286.727215 94.969152 
L 287.303977 93.106565 
L 287.703379 91.011154 
L 287.864049 88.915744 
L 287.795555 86.820334 
L 287.491792 84.724924 
L 287.006168 82.862337 
L 286.286774 80.99975 
L 285.428258 79.369986 
L 284.305473 77.740223 
L 282.938985 76.203124 
L 281.537305 74.946342 
L 279.681723 73.613107 
L 277.820431 72.536479 
L 275.493815 71.447007 
L 272.701876 70.406423 
L 269.444614 69.449922 
L 265.722029 68.595664 
L 261.301459 67.81396 
L 255.950243 67.104393 
L 249.668381 66.502612 
L 242.223211 66.016928 
L 233.382071 65.672064 
L 223.610285 65.518335 
L 213.605837 65.579433 
L 204.066713 65.854428 
L 195.690896 66.311643 
L 188.711049 66.903793 
L 182.89451 67.607329 
L 177.932349 68.427288 
L 173.820709 69.330808 
L 170.4539 70.289875 
L 167.538846 71.35072 
L 165.212231 72.416035 
L 163.118277 73.613107 
L 161.256984 74.950988 
L 159.721507 76.343282 
L 158.465045 77.778254 
L 157.371742 79.369986 
L 156.513226 80.99975 
L 155.793832 82.862337 
L 155.308208 84.724924 
L 155.004445 86.820334 
L 154.935951 88.915744 
L 154.963875 89.614214 
L 154.963875 89.614214 
" style="fill:none;stroke:#31688e;stroke-width:1.5;"/>
   </g>
   <g id="LineCollection_4">
    <path clip-path="url(#pbdc396356a)" d="M 54 167.985437 
L 137.7 168.075688 
L 137.7 226.747177 
L 137.525504 226.98 
L 54 226.98 
L 54 226.98 
" style="fill:none;stroke:#21918c;stroke-width:1.5;"/>
    <path clip-path="url(#pbdc396356a)" d="M 54 59.58 
L 137.525504 59.58 
L 137.7 59.812823 
L 137.7 118.484312 
L 137.292842 118.574563 
L 54 118.574563 
L 54 118.574563 
" style="fill:none;stroke:#21918c;stroke-width:1.5;"/>
    <path clip-path="url(#pbdc396356a)" d="M 388.8 226.98 
L 305.274496 226.98 
L 305.1 226.747177 
L 305.1 168.075688 
L 305.507158 167.985437 
L 388.8 167.985437 
L 388.8 167.985437 
" style="fill:none;stroke:#21918c;stroke-width:1.5;"/>
    <path clip-path="url(#pbdc396356a)" d="M 388.8 118.574563 
L 305.1 118.484312 
L 305.1 59.812823 
L 305.274496 59.58 
L 388.8 59.58 
L 388.8 59.58 
" style="fill:none;stroke:#21918c;stroke-width:1.5;"/>
    <path clip-path="url(#pbdc396356a)" d="M 137.7 167.842865 
L 137.758165 118.574563 
L 305.041835 118.574563 
L 305.1 118.949958 
L 305.041835 167.985437 
L 137.758165 167.985437 
L 137.7 167.842865 
L 137.7 167.842865 
" style="fill:none;stroke:#21918c;stroke-width:1.5;"/>
   </g>
   <g id="LineCollection_5">
    <path clip-path="url(#pbdc396356a)" d="M 54 174.455004 
L 63.771786 174.567104 
L 72.845587 174.889729 
L 80.756081 175.38606 
L 87.503266 176.025745 
L 93.087144 176.769227 
L 97.838841 177.621446 
L 101.794845 178.55274 
L 105.185546 179.581569 
L 107.977484 180.656529 
L 110.371277 181.812267 
L 112.398054 183.031454 
L 114.18957 184.373324 
L 115.683078 185.770264 
L 116.883192 187.167204 
L 117.991302 188.796968 
L 118.912578 190.574507 
L 119.569839 192.289318 
L 120.075886 194.205608 
L 120.382662 196.247316 
L 120.466642 198.342726 
L 120.321217 200.438136 
L 119.934848 202.533547 
L 119.365948 204.396134 
L 118.547635 206.25872 
L 117.516609 207.985606 
L 116.326492 209.518248 
L 114.952491 210.915188 
L 113.3287 212.232929 
L 111.467408 213.444931 
L 109.373454 214.543663 
L 106.814177 215.620287 
L 103.789576 216.626696 
L 100.299653 217.537193 
L 96.111744 218.381808 
L 91.225851 219.127962 
L 85.409312 219.782694 
L 78.429465 220.333809 
L 70.28631 220.747249 
L 60.979847 220.99381 
L 54 221.04696 
L 54 221.04696 
" style="fill:none;stroke:#35b779;stroke-width:1.5;"/>
    <path clip-path="url(#pbdc396356a)" d="M 54 65.51304 
L 64.004448 65.623068 
L 73.31091 65.942007 
L 81.454065 66.438899 
L 88.201251 67.065118 
L 93.785129 67.796067 
L 98.43836 68.619246 
L 102.393607 69.541711 
L 105.650869 70.523516 
L 108.442808 71.595865 
L 110.769423 72.7224 
L 112.630716 73.841135 
L 114.41967 75.179166 
L 115.902713 76.576106 
L 117.084479 77.973046 
L 118.165744 79.602809 
L 118.990919 81.232573 
L 119.678899 83.09516 
L 120.13772 84.957747 
L 120.414511 87.053157 
L 120.457539 89.148567 
L 120.271142 91.243978 
L 119.843224 93.34192 
L 119.238897 95.201975 
L 118.385689 97.064562 
L 117.392682 98.694325 
L 116.315574 100.091266 
L 114.957331 101.507125 
L 113.307155 102.885146 
L 111.467408 104.121158 
L 109.373454 105.260971 
L 106.814177 106.381712 
L 103.789576 107.43312 
L 100.299653 108.38796 
L 96.344406 109.233274 
L 91.691174 109.999105 
L 86.107297 110.686691 
L 79.529018 111.266787 
L 71.914941 111.714369 
L 63.073801 112.008527 
L 54 112.104996 
L 54 112.104996 
" style="fill:none;stroke:#35b779;stroke-width:1.5;"/>
    <path clip-path="url(#pbdc396356a)" d="M 388.8 221.04696 
L 378.795552 220.936932 
L 369.48909 220.617993 
L 361.345935 220.121101 
L 354.598749 219.494882 
L 349.014871 218.763933 
L 344.36164 217.940754 
L 340.406393 217.018289 
L 337.149131 216.036484 
L 334.357192 214.964135 
L 332.030577 213.8376 
L 330.169284 212.718865 
L 328.38033 211.380834 
L 326.897287 209.983894 
L 325.715521 208.586954 
L 324.634256 206.957191 
L 323.809081 205.327427 
L 323.121101 203.46484 
L 322.66228 201.602253 
L 322.385489 199.506843 
L 322.342461 197.411433 
L 322.528858 195.316022 
L 322.956776 193.21808 
L 323.561103 191.358025 
L 324.414311 189.495438 
L 325.407318 187.865675 
L 326.484426 186.468734 
L 327.842669 185.052875 
L 329.492845 183.674854 
L 331.332592 182.438842 
L 333.426546 181.299029 
L 335.985823 180.178288 
L 339.010424 179.12688 
L 342.500347 178.17204 
L 346.455594 177.326726 
L 351.108826 176.560895 
L 356.692703 175.873309 
L 363.270982 175.293213 
L 370.885059 174.845631 
L 379.726199 174.551473 
L 388.8 174.455004 
L 388.8 174.455004 
" style="fill:none;stroke:#35b779;stroke-width:1.5;"/>
    <path clip-path="url(#pbdc396356a)" d="M 388.8 112.104996 
L 379.028214 111.992896 
L 369.954413 111.670271 
L 362.043919 111.17394 
L 355.296734 110.534255 
L 349.712856 109.790773 
L 344.961159 108.938554 
L 341.005155 108.00726 
L 337.614454 106.978431 
L 334.822516 105.903471 
L 332.428723 104.747733 
L 330.401946 103.528546 
L 328.61043 102.186676 
L 327.116922 100.789736 
L 325.916808 99.392796 
L 324.808698 97.763032 
L 323.887422 95.985493 
L 323.230161 94.270682 
L 322.724114 92.354392 
L 322.417338 90.312684 
L 322.333358 88.217274 
L 322.478783 86.121864 
L 322.865152 84.026453 
L 323.434052 82.163866 
L 324.252365 80.30128 
L 325.283391 78.574394 
L 326.473508 77.041752 
L 327.847509 75.644812 
L 329.4713 74.327071 
L 331.332592 73.115069 
L 333.426546 72.016337 
L 335.985823 70.939713 
L 339.010424 69.933304 
L 342.500347 69.022807 
L 346.688256 68.178192 
L 351.574149 67.432038 
L 357.390688 66.777306 
L 364.370535 66.226191 
L 372.51369 65.812751 
L 381.820153 65.56619 
L 388.8 65.51304 
L 388.8 65.51304 
" style="fill:none;stroke:#35b779;stroke-width:1.5;"/>
    <path clip-path="url(#pbdc396356a)" d="M 161.949424 144.793352 
L 161.834614 143.396412 
L 161.916532 141.999471 
L 162.198959 140.602531 
L 162.694964 139.205591 
L 163.428466 137.808651 
L 164.437607 136.411711 
L 165.677554 135.109948 
L 167.073523 133.956319 
L 168.702154 132.874161 
L 170.804149 131.755243 
L 173.355386 130.681142 
L 176.147325 129.748784 
L 179.404587 128.885609 
L 183.359833 128.067123 
L 188.018292 127.331599 
L 193.596942 126.681018 
L 200.111466 126.147269 
L 207.789298 125.746992 
L 216.397776 125.525241 
L 225.471577 125.513863 
L 234.312717 125.720648 
L 242.455872 126.131895 
L 249.435719 126.704198 
L 255.252259 127.397094 
L 260.138151 128.196766 
L 264.093398 129.054 
L 267.583322 130.036522 
L 270.407536 131.056773 
L 272.701876 132.103375 
L 274.563169 133.160102 
L 276.196978 134.3163 
L 277.587769 135.560293 
L 278.751077 136.90228 
L 279.681723 138.343102 
L 280.295294 139.671238 
L 280.718019 141.068178 
L 280.932672 142.465118 
L 280.949038 143.862058 
L 280.767868 145.258999 
L 280.379708 146.659377 
L 279.769961 148.052879 
L 278.904492 149.449819 
L 277.737309 150.846759 
L 276.424461 152.05937 
L 274.79583 153.249984 
L 272.930168 154.33911 
L 270.607922 155.420379 
L 268.048645 156.371533 
L 265.024044 157.268228 
L 261.301459 158.134012 
L 256.88089 158.922358 
L 251.762335 159.606459 
L 245.713134 160.190598 
L 238.500625 160.657553 
L 230.124809 160.965303 
L 221.051008 161.068227 
L 211.977206 160.947922 
L 203.60139 160.621476 
L 196.15622 160.113635 
L 189.812595 159.461224 
L 184.523141 158.696477 
L 180.086171 157.83146 
L 176.379986 156.880219 
L 173.355386 155.878858 
L 170.796108 154.800911 
L 168.62637 153.64064 
L 166.840862 152.428727 
L 165.444892 151.22986 
L 164.248084 149.915466 
L 163.288307 148.518526 
L 162.596617 147.121586 
L 162.137562 145.724645 
L 161.949424 144.793352 
L 161.949424 144.793352 
" style="fill:none;stroke:#35b779;stroke-width:1.5;"/>
   </g>
   <g id="LineCollection_6">
    <path clip-path="url(#pbdc396356a)" d="M 54 181.51249 
L 60.281862 181.622473 
L 66.331063 181.946592 
L 71.914941 182.462738 
L 76.800834 183.123731 
L 81.221404 183.937669 
L 85.17665 184.898344 
L 88.433912 185.915359 
L 91.225851 187.015151 
L 93.552467 188.162137 
L 95.41376 189.301173 
L 97.042391 190.545243 
L 98.35952 191.823672 
L 99.451354 193.220612 
L 100.231127 194.617552 
L 100.732233 196.014492 
L 100.974427 197.411433 
L 100.966444 198.808373 
L 100.706972 200.205313 
L 100.184474 201.602253 
L 99.531818 202.76637 
L 98.659602 203.930487 
L 97.507714 205.121609 
L 96.111744 206.266415 
L 94.250452 207.48222 
L 92.137117 208.586954 
L 89.59722 209.652979 
L 86.805281 210.595436 
L 83.548019 211.475718 
L 79.591497 212.312128 
L 74.939541 213.051642 
L 69.820987 213.634645 
L 64.004448 214.065879 
L 57.722585 214.301163 
L 54 214.338235 
L 54 214.338235 
" style="fill:none;stroke:#90d743;stroke-width:1.5;"/>
    <path clip-path="url(#pbdc396356a)" d="M 54 72.221765 
L 60.514524 72.335778 
L 66.563725 72.656469 
L 72.147603 73.164113 
L 77.266157 73.849928 
L 81.686727 74.663303 
L 85.409312 75.562325 
L 88.685679 76.576106 
L 91.458513 77.664749 
L 93.785129 78.813497 
L 95.646421 79.962663 
L 97.042391 81.027921 
L 98.43836 82.37697 
L 99.375829 83.560807 
L 100.184474 84.957747 
L 100.706972 86.354687 
L 100.966444 87.751627 
L 100.974427 89.148567 
L 100.732233 90.545508 
L 100.231127 91.942448 
L 99.451354 93.339388 
L 98.43836 94.647481 
L 97.275052 95.810748 
L 95.879083 96.931607 
L 94.01779 98.134841 
L 91.923836 99.226723 
L 89.316073 100.324089 
L 86.339958 101.325708 
L 82.850035 102.25736 
L 78.894788 103.080026 
L 74.474218 103.778568 
L 69.355664 104.362221 
L 63.539124 104.791116 
L 57.489924 105.013825 
L 54 105.04751 
L 54 105.04751 
" style="fill:none;stroke:#90d743;stroke-width:1.5;"/>
    <path clip-path="url(#pbdc396356a)" d="M 388.8 214.338235 
L 382.285476 214.224222 
L 376.236275 213.903531 
L 370.652397 213.395887 
L 365.533843 212.710072 
L 361.113273 211.896697 
L 357.390688 210.997675 
L 354.114321 209.983894 
L 351.341487 208.895251 
L 349.014871 207.746503 
L 347.153579 206.597337 
L 345.757609 205.532079 
L 344.36164 204.18303 
L 343.424171 202.999193 
L 342.615526 201.602253 
L 342.093028 200.205313 
L 341.833556 198.808373 
L 341.825573 197.411433 
L 342.067767 196.014492 
L 342.568873 194.617552 
L 343.348646 193.220612 
L 344.36164 191.912519 
L 345.524948 190.749252 
L 346.920917 189.628393 
L 348.78221 188.425159 
L 350.876164 187.333277 
L 353.483927 186.235911 
L 356.460042 185.234292 
L 359.949965 184.30264 
L 363.905212 183.479974 
L 368.325782 182.781432 
L 373.444336 182.197779 
L 379.260876 181.768884 
L 385.310076 181.546175 
L 388.8 181.51249 
L 388.8 181.51249 
" style="fill:none;stroke:#90d743;stroke-width:1.5;"/>
    <path clip-path="url(#pbdc396356a)" d="M 388.8 105.04751 
L 382.518138 104.937527 
L 376.468937 104.613408 
L 370.885059 104.097262 
L 365.999166 103.436269 
L 361.578596 102.622331 
L 357.62335 101.661656 
L 354.366088 100.644641 
L 351.574149 99.544849 
L 349.247533 98.397863 
L 347.38624 97.258827 
L 345.757609 96.014757 
L 344.44048 94.736328 
L 343.348646 93.339388 
L 342.568873 91.942448 
L 342.067767 90.545508 
L 341.825573 89.148567 
L 341.833556 87.751627 
L 342.093028 86.354687 
L 342.615526 84.957747 
L 343.268182 83.79363 
L 344.140398 82.629513 
L 345.292286 81.438391 
L 346.688256 80.293585 
L 348.549548 79.07778 
L 350.662883 77.973046 
L 353.20278 76.907021 
L 355.994719 75.964564 
L 359.251981 75.084282 
L 363.208503 74.247872 
L 367.860459 73.508358 
L 372.979013 72.925355 
L 378.795552 72.494121 
L 385.077415 72.258837 
L 388.8 72.221765 
L 388.8 72.221765 
" style="fill:none;stroke:#90d743;stroke-width:1.5;"/>
    <path clip-path="url(#pbdc396356a)" d="M 194.51512 143.629235 
L 194.527589 142.858901 
L 194.76025 142.091641 
L 195.070436 141.533825 
L 195.690896 140.78723 
L 196.748945 139.904061 
L 198.250174 139.008509 
L 199.878805 138.273064 
L 202.20542 137.471374 
L 204.997359 136.751338 
L 208.254621 136.13731 
L 212.209868 135.629123 
L 216.630438 135.299074 
L 221.283669 135.182255 
L 225.936901 135.287744 
L 230.35747 135.605994 
L 234.312717 136.101159 
L 237.802641 136.751338 
L 240.827241 137.541361 
L 242.924341 138.274298 
L 244.92277 139.205591 
L 246.411119 140.171497 
L 247.371687 141.068178 
L 247.998937 141.999471 
L 248.272411 142.858901 
L 248.305072 143.396412 
L 248.183103 144.094882 
L 247.807088 144.902672 
L 247.341765 145.524696 
L 246.367677 146.423115 
L 244.92277 147.354409 
L 243.153857 148.191345 
L 240.940235 148.984172 
L 238.035302 149.756582 
L 234.77804 150.385826 
L 230.822794 150.907125 
L 226.402224 151.249022 
L 221.748992 151.377197 
L 217.095761 151.283012 
L 212.675191 150.976513 
L 208.719944 150.494282 
L 205.230021 149.85989 
L 202.20542 149.088626 
L 199.875659 148.285702 
L 197.87723 147.354409 
L 196.388881 146.388503 
L 195.428313 145.491822 
L 194.801063 144.560529 
L 194.527589 143.701099 
L 194.51512 143.629235 
L 194.51512 143.629235 
" style="fill:none;stroke:#90d743;stroke-width:1.5;"/>
   </g>
   <g id="LineCollection_7">
    <path clip-path="url(#pbdc396356a)" d="M 54 192.358321 
L 57.257262 192.469536 
L 60.281862 192.785337 
L 63.073801 193.298292 
L 65.400417 193.94771 
L 67.26171 194.69981 
L 68.657679 195.512657 
L 69.355664 196.088665 
L 69.891395 196.712962 
L 70.240193 197.411433 
L 70.344515 198.109903 
L 70.209314 198.808373 
L 69.820987 199.515223 
L 69.123002 200.25035 
L 68.192356 200.918432 
L 66.796386 201.634316 
L 64.935094 202.31706 
L 62.608478 202.912939 
L 60.049201 203.350451 
L 57.0246 203.646953 
L 54 203.741873 
L 54 203.741873 
" style="fill:none;stroke:#fde725;stroke-width:1.5;"/>
    <path clip-path="url(#pbdc396356a)" d="M 54 82.818127 
L 57.257262 82.928527 
L 60.281862 83.241506 
L 63.073801 83.748588 
L 65.167755 84.317049 
L 67.029048 85.030305 
L 68.425017 85.790537 
L 69.355664 86.521324 
L 69.827572 87.053157 
L 70.209314 87.751627 
L 70.344515 88.450097 
L 70.240193 89.148567 
L 69.820987 89.942488 
L 69.280057 90.545508 
L 68.192356 91.353511 
L 66.796386 92.07463 
L 65.167755 92.688882 
L 62.84114 93.314831 
L 60.281862 93.774663 
L 57.489924 94.07398 
L 54.232662 94.201113 
L 54 94.201679 
L 54 94.201679 
" style="fill:none;stroke:#fde725;stroke-width:1.5;"/>
    <path clip-path="url(#pbdc396356a)" d="M 388.8 203.741873 
L 385.542738 203.631473 
L 382.518138 203.318494 
L 379.726199 202.811412 
L 377.632245 202.242951 
L 375.770952 201.529695 
L 374.374983 200.769463 
L 373.444336 200.038676 
L 372.972428 199.506843 
L 372.590686 198.808373 
L 372.455485 198.109903 
L 372.559807 197.411433 
L 372.979013 196.617512 
L 373.519943 196.014492 
L 374.607644 195.206489 
L 376.003614 194.48537 
L 377.632245 193.871118 
L 379.95886 193.245169 
L 382.518138 192.785337 
L 385.310076 192.48602 
L 388.567338 192.358887 
L 388.8 192.358321 
L 388.8 192.358321 
" style="fill:none;stroke:#fde725;stroke-width:1.5;"/>
    <path clip-path="url(#pbdc396356a)" d="M 388.8 94.201679 
L 385.542738 94.090464 
L 382.518138 93.774663 
L 379.726199 93.261708 
L 377.399583 92.61229 
L 375.53829 91.86019 
L 374.142321 91.047343 
L 373.444336 90.471335 
L 372.908605 89.847038 
L 372.559807 89.148567 
L 372.455485 88.450097 
L 372.590686 87.751627 
L 372.979013 87.044777 
L 373.676998 86.30965 
L 374.607644 85.641568 
L 376.003614 84.925684 
L 377.864906 84.24294 
L 380.191522 83.647061 
L 382.750799 83.209549 
L 385.7754 82.913047 
L 388.8 82.818127 
L 388.8 82.818127 
" style="fill:none;stroke:#fde725;stroke-width:1.5;"/>
   </g>
   <g id="line2d_1">
    <path clip-path="url(#pbdc396356a)" d="M 54 195.36 
L 388.8 195.36 
" style="fill:none;stroke:#ff0000;stroke-linecap:square;stroke-width:1.5;"/>
   </g>
   <g id="line2d_2">
    <path clip-path="url(#pbdc396356a)" d="M 54 91.2 
L 388.8 91.2 
" style="fill:none;stroke:#ff0000;stroke-linecap:square;stroke-width:1.5;"/>
   </g>
   <g id="patch_3">
    <path d="M 54 252 
L 54 34.56 
" style="fill:none;stroke:#000000;stroke-linecap:square;stroke-linejoin:miter;stroke-width:0.8;"/>
   </g>
   <g id="patch_4">
    <path d="M 388.8 252 
L 388.8 34.56 
" style="fill:none;stroke:#000000;stroke-linecap:square;stroke-linejoin:miter;stroke-width:0.8;"/>
   </g>
   <g id="patch_5">
    <path d="M 54 252 
L 388.8 252 
" style="fill:none;stroke:#000000;stroke-linecap:square;stroke-linejoin:miter;stroke-width:0.8;"/>
   </g>
   <g id="patch_6">
    <path d="M 54 34.56 
L 388.8 34.56 
" style="fill:none;stroke:#000000;stroke-linecap:square;stroke-linejoin:miter;stroke-width:0.8;"/>
   </g>
  </g>
 </g>
 <defs>
  <clipPath id="pbdc396356a">
   <rect height="217.44" width="334.8" x="54" y="34.56"/>
  </clipPath>
 </defs>
</svg>
