<?xml version="1.0" encoding="utf-8" standalone="no"?>
<!DOCTYPE svg PUBLIC "-//W3C//DTD SVG 1.1//EN"
  "http://www.w3.org/Graphics/SVG/1.1/DTD/svg11.dtd">
<!-- Created with matplotlib (http://matplotlib.org/) -->
<svg height="288pt" version="1.1" viewBox="0 0 432 288" width="432pt" xmlns="http://www.w3.org/2000/svg" xmlns:xlink="http://www.w3.org/1999/xlink">
 <defs>
  <style type="text/css">
*{stroke-linecap:butt;stroke-linejoin:round;}
  </style>
 </defs>
 <g id="figure_1">
  <g id="patch_1">
   <path d="M 0 288 
L 432 288 
L 432 0 
L 0 0 
z
" style="fill:#ffffff;"/>
  </g>
  <g id="axes_1">
   <g id="patch_2">
    <path d="M 54 252 
L 388.8 252 
L 388.8 34.56 
L 54 34.56 
z
" style="fill:#ffffff;"/>
   </g>
   <g id="matplotlib.axis_1"/>
   <g id="matplotlib.axis_2"/>
   <g id="LineCollection_1">
    <path clip-path="url(#p59d0db1324)" d="M 70.039798 116.854548 
L 70.338766 118.717135 
L 70.823679 120.346898 
L 71.449618 121.751414 
L 72.321493 123.140779 
L 73.323091 124.304896 
L 74.474218 125.297061 
L 75.870188 126.17426 
L 77.463724 126.865953 
L 78.894788 127.272916 
L 80.523419 127.532677 
L 82.384712 127.591685 
L 84.246004 127.402456 
L 85.874635 127.017036 
L 87.503266 126.387657 
L 88.899236 125.597193 
L 90.062543 124.696434 
L 91.113214 123.606426 
L 91.953393 122.442309 
L 92.692239 121.045369 
L 93.281645 119.415605 
L 93.641574 117.785841 
L 93.820234 115.923255 
L 93.775261 114.060668 
L 93.511293 112.198081 
L 93.01347 110.335494 
L 92.355031 108.70573 
L 91.432987 107.075967 
L 90.355477 105.679026 
L 89.364559 104.694322 
L 88.201251 103.796231 
L 86.805281 102.996588 
L 85.353219 102.419499 
L 83.780681 102.039596 
L 82.15205 101.886518 
L 80.523419 101.966748 
L 78.894788 102.286679 
L 77.498819 102.769339 
L 76.102849 103.476468 
L 74.930853 104.282086 
L 73.658394 105.446203 
L 72.612926 106.719229 
L 71.678023 108.240083 
L 70.951353 109.869847 
L 70.390317 111.732434 
L 70.069993 113.595021 
L 69.970818 115.457608 
L 70.039798 116.854548 
L 70.039798 116.854548 
" style="fill:none;stroke:#440154;stroke-width:1.5;"/>
    <path clip-path="url(#p59d0db1324)" d="M 125.870034 172.964979 
L 126.190226 174.827566 
L 126.751549 176.690153 
L 127.478332 178.319917 
L 128.325736 179.716857 
L 129.382349 181.03272 
L 130.545657 182.129111 
L 131.941626 183.106618 
L 133.337596 183.80692 
L 134.733565 184.283871 
L 136.362196 184.597911 
L 137.990827 184.672564 
L 139.619458 184.513851 
L 141.248089 184.110102 
L 142.644058 183.544676 
L 144.040028 182.737644 
L 145.224858 181.812267 
L 146.366644 180.63876 
L 147.383641 179.25121 
L 148.227936 177.69902 
L 148.8134 176.224506 
L 149.311134 174.361919 
L 149.575019 172.499332 
L 149.620451 170.636745 
L 149.441705 168.774159 
L 149.081473 167.144395 
L 148.492443 165.514631 
L 147.753568 164.117691 
L 146.831967 162.857012 
L 145.778727 161.789458 
L 144.505351 160.835958 
L 143.109382 160.082944 
L 141.480751 159.484981 
L 139.85212 159.12596 
L 137.990827 158.963032 
L 136.129534 159.047858 
L 134.500903 159.331974 
L 132.872272 159.838769 
L 131.476303 160.490931 
L 130.193145 161.323811 
L 129.123239 162.255104 
L 128.121632 163.419221 
L 127.245893 164.816161 
L 126.59041 166.303919 
L 126.125087 167.903255 
L 125.840027 169.705452 
L 125.775396 171.568039 
L 125.870034 172.964979 
L 125.870034 172.964979 
" style="fill:none;stroke:#440154;stroke-width:1.5;"/>
    <path clip-path="url(#p59d0db1324)" d="M 181.722821 117.553018 
L 182.054223 119.182782 
L 182.607322 120.812545 
L 183.359833 122.300259 
L 184.290479 123.611598 
L 185.453787 124.799262 
L 186.660161 125.701836 
L 188.013065 126.441835 
L 189.641696 127.052202 
L 191.270327 127.421742 
L 193.131619 127.595172 
L 194.992912 127.520684 
L 196.621543 127.246336 
L 198.250174 126.751046 
L 199.646143 126.111684 
L 201.042113 125.209763 
L 202.20542 124.173444 
L 203.136067 123.062048 
L 203.953877 121.743839 
L 204.576448 120.346898 
L 205.061186 118.717135 
L 205.359833 116.854548 
L 205.424821 114.991961 
L 205.270964 113.129374 
L 204.893321 111.266787 
L 204.299375 109.486777 
L 203.596821 108.00726 
L 202.670744 106.558902 
L 201.516655 105.21338 
L 200.344128 104.185651 
L 198.948158 103.276153 
L 197.552189 102.628942 
L 195.923558 102.143813 
L 194.294927 101.911337 
L 192.666296 101.914097 
L 191.037665 102.152291 
L 189.641696 102.557046 
L 188.245726 103.171909 
L 186.838146 104.049263 
L 185.686449 105.014502 
L 184.523141 106.303493 
L 183.592495 107.67521 
L 182.833038 109.171377 
L 182.196525 110.943159 
L 181.801931 112.663727 
L 181.593488 114.526314 
L 181.60301 116.388901 
L 181.722821 117.553018 
L 181.722821 117.553018 
" style="fill:none;stroke:#440154;stroke-width:1.5;"/>
    <path clip-path="url(#p59d0db1324)" d="M 237.563438 173.663449 
L 237.97054 175.526036 
L 238.534324 177.1558 
L 239.334877 178.785563 
L 240.266184 180.182503 
L 241.292564 181.355912 
L 242.455872 182.374349 
L 243.851842 183.283847 
L 245.247811 183.931058 
L 246.876442 184.416187 
L 248.505073 184.648663 
L 250.133704 184.645903 
L 251.762335 184.407709 
L 253.158304 184.002954 
L 254.554274 183.388091 
L 255.961854 182.510737 
L 257.113551 181.545498 
L 258.276859 180.256507 
L 259.207505 178.88479 
L 259.966962 177.388623 
L 260.603475 175.616841 
L 260.998069 173.896273 
L 261.206512 172.033686 
L 261.19699 170.171099 
L 260.959414 168.308512 
L 260.538815 166.678748 
L 259.873416 165.048985 
L 259.045758 163.652045 
L 258.044197 162.426817 
L 256.88089 161.380207 
L 255.717582 160.600324 
L 254.321612 159.915696 
L 252.692981 159.379829 
L 251.06435 159.071133 
L 249.203058 158.960391 
L 247.341765 159.097162 
L 245.603658 159.461224 
L 244.084503 159.997424 
L 242.688534 160.715724 
L 241.496358 161.556634 
L 240.361918 162.635872 
L 239.431272 163.83192 
L 238.726381 165.048985 
L 238.060972 166.678748 
L 237.640512 168.308512 
L 237.402924 170.171099 
L 237.393375 172.033686 
L 237.563438 173.663449 
L 237.563438 173.663449 
" style="fill:none;stroke:#440154;stroke-width:1.5;"/>
    <path clip-path="url(#p59d0db1324)" d="M 293.173253 115.690431 
L 293.323207 117.553018 
L 293.653844 119.182782 
L 294.207466 120.812545 
L 294.905751 122.209485 
L 295.735372 123.420189 
L 296.764178 124.537719 
L 297.913089 125.469013 
L 299.225295 126.25401 
L 300.663853 126.865953 
L 302.372453 127.331599 
L 304.111188 127.565557 
L 305.972481 127.573179 
L 307.601112 127.375169 
L 309.229743 126.968382 
L 310.675972 126.400306 
L 312.021682 125.648669 
L 313.18499 124.765679 
L 314.348297 123.564308 
L 315.29468 122.209485 
L 315.992927 120.812545 
L 316.545759 119.182782 
L 316.877023 117.553018 
L 317.026291 115.690431 
L 316.954129 113.827844 
L 316.66262 111.965257 
L 316.133126 110.10267 
L 315.440935 108.472907 
L 314.580959 106.998428 
L 313.555329 105.679026 
L 312.355306 104.51491 
L 311.072913 103.583616 
L 309.695066 102.853027 
L 308.299097 102.341587 
L 306.670466 101.992062 
L 305.041835 101.883894 
L 303.413204 102.00887 
L 301.784573 102.37627 
L 300.388603 102.905398 
L 298.992634 103.668903 
L 297.829326 104.527182 
L 296.644207 105.679026 
L 295.567277 107.075967 
L 294.75894 108.472907 
L 294.066706 110.10267 
L 293.537774 111.965257 
L 293.245969 113.827844 
L 293.173253 115.690431 
L 293.173253 115.690431 
" style="fill:none;stroke:#440154;stroke-width:1.5;"/>
    <path clip-path="url(#p59d0db1324)" d="M 349.007211 172.266509 
L 349.247533 174.151588 
L 349.712856 176.000519 
L 350.410841 177.782144 
L 351.216398 179.25121 
L 352.241571 180.64815 
L 353.375505 181.812267 
L 354.598749 182.763769 
L 355.994719 183.563412 
L 357.446781 184.140501 
L 359.019319 184.520404 
L 360.64795 184.673482 
L 362.276581 184.593252 
L 363.905212 184.273321 
L 365.301181 183.790661 
L 366.697151 183.083532 
L 367.869147 182.277914 
L 369.141606 181.113797 
L 370.187074 179.840771 
L 371.121977 178.319917 
L 371.848647 176.690153 
L 372.409683 174.827566 
L 372.730007 172.964979 
L 372.829182 171.102392 
L 372.708386 169.239805 
L 372.345852 167.377218 
L 371.792873 165.747455 
L 371.094617 164.350515 
L 370.187074 163.043429 
L 369.236317 162.022281 
L 368.087649 161.090987 
L 366.697151 160.267042 
L 365.301181 159.681677 
L 363.628489 159.228401 
L 361.811258 158.989255 
L 359.949965 158.991796 
L 358.172266 159.228401 
L 356.692703 159.616708 
L 355.296734 160.172343 
L 353.900764 160.962807 
L 352.737457 161.863566 
L 351.686786 162.953574 
L 350.846607 164.117691 
L 350.107761 165.514631 
L 349.518355 167.144395 
L 349.158426 168.774159 
L 348.979766 170.636745 
L 349.007211 172.266509 
L 349.007211 172.266509 
" style="fill:none;stroke:#440154;stroke-width:1.5;"/>
   </g>
   <g id="LineCollection_2">
    <path clip-path="url(#p59d0db1324)" d="M 63.767434 116.388901 
L 63.95553 118.949958 
L 64.335548 121.278192 
L 64.890409 123.373602 
L 65.633079 125.29101 
L 66.474292 126.865953 
L 67.494371 128.296433 
L 68.657679 129.529571 
L 69.973769 130.591127 
L 71.449618 131.49411 
L 73.078249 132.241202 
L 74.939541 132.86159 
L 77.033495 133.335462 
L 79.360111 133.642138 
L 81.919388 133.752304 
L 84.478666 133.638718 
L 86.805281 133.3285 
L 88.899236 132.850734 
L 90.773166 132.22089 
L 92.389159 131.473385 
L 93.826384 130.591127 
L 95.181098 129.493646 
L 96.344406 128.249142 
L 97.325794 126.865953 
L 98.205698 125.206175 
L 98.90973 123.373602 
L 99.464454 121.278192 
L 99.844589 118.949958 
L 100.032464 116.388901 
L 99.999761 113.595021 
L 99.729252 110.80114 
L 99.257946 108.240083 
L 98.612984 105.91185 
L 97.813758 103.816439 
L 96.878837 101.953853 
L 95.83043 100.324089 
L 94.699151 98.927149 
L 93.262376 97.530209 
L 91.691174 96.350152 
L 90.062543 95.413664 
L 88.201251 94.620998 
L 86.202783 94.037858 
L 84.246004 93.695105 
L 82.15205 93.555302 
L 80.058096 93.640622 
L 77.964142 93.956909 
L 75.939789 94.503505 
L 74.177955 95.201975 
L 72.449037 96.133268 
L 70.984295 97.162313 
L 69.540058 98.461502 
L 68.319299 99.858442 
L 67.195762 101.488206 
L 66.1978 103.350793 
L 65.344855 105.446203 
L 64.65314 107.774437 
L 64.139749 110.335494 
L 63.845369 112.896551 
L 63.753247 115.690431 
L 63.767434 116.388901 
L 63.767434 116.388901 
" style="fill:none;stroke:#443983;stroke-width:1.5;"/>
    <path clip-path="url(#p59d0db1324)" d="M 119.600086 172.964979 
L 119.870608 175.75886 
L 120.341924 178.319917 
L 121.006532 180.707655 
L 121.786258 182.743561 
L 122.721196 184.606147 
L 123.798471 186.275931 
L 124.961779 187.699761 
L 126.357748 189.047265 
L 127.885186 190.193908 
L 129.496067 191.125202 
L 131.243641 191.88278 
L 133.104934 192.452661 
L 135.198888 192.845418 
L 137.292842 193.002086 
L 139.386796 192.933454 
L 141.480751 192.634824 
L 143.342043 192.159688 
L 145.203336 191.45768 
L 146.831967 190.619841 
L 148.490884 189.495438 
L 149.856567 188.302157 
L 151.096174 186.934381 
L 152.259855 185.304618 
L 153.291289 183.442031 
L 154.086577 181.579444 
L 154.827078 179.25121 
L 155.38412 176.690153 
L 155.716382 174.129096 
L 155.847756 171.335216 
L 155.757228 168.774159 
L 155.440445 166.197059 
L 154.920521 163.884868 
L 154.277137 161.98931 
L 153.52955 160.392517 
L 152.648506 158.973607 
L 151.518321 157.598637 
L 150.32189 156.493672 
L 148.917255 155.503227 
L 147.29729 154.647128 
L 145.435997 153.931079 
L 143.342043 153.375886 
L 141.015427 152.997033 
L 138.45615 152.817379 
L 135.896873 152.86298 
L 133.337596 153.139952 
L 131.01098 153.624704 
L 129.149687 154.21467 
L 127.288395 155.045292 
L 125.659764 156.049947 
L 124.348003 157.13299 
L 123.267008 158.297107 
L 122.274306 159.694047 
L 121.408019 161.323811 
L 120.690489 163.186398 
L 120.135495 165.281808 
L 119.755596 167.610042 
L 119.567558 170.171099 
L 119.600086 172.964979 
L 119.600086 172.964979 
" style="fill:none;stroke:#443983;stroke-width:1.5;"/>
    <path clip-path="url(#p59d0db1324)" d="M 175.442582 117.785841 
L 175.756947 120.346898 
L 176.279547 122.675132 
L 176.909712 124.537719 
L 177.670548 126.167483 
L 178.536058 127.564423 
L 179.681731 128.961363 
L 180.951798 130.12548 
L 182.283157 131.056773 
L 183.825156 131.877396 
L 185.686449 132.603675 
L 187.780403 133.167547 
L 190.107019 133.55381 
L 192.666296 133.74053 
L 195.225573 133.701692 
L 197.784851 133.43209 
L 200.111466 132.95553 
L 201.972759 132.374229 
L 203.834051 131.555155 
L 205.230021 130.726364 
L 206.62599 129.635978 
L 207.789298 128.43578 
L 208.778767 127.098776 
L 209.683813 125.469013 
L 210.432755 123.606426 
L 211.013882 121.511015 
L 211.416021 119.182782 
L 211.624202 116.621725 
L 211.611489 113.827844 
L 211.361132 111.033964 
L 210.910436 108.472907 
L 210.288038 106.144673 
L 209.51448 104.049263 
L 208.609407 102.186676 
L 207.556637 100.500504 
L 206.298848 98.927149 
L 204.997359 97.646717 
L 203.60139 96.559213 
L 201.972759 95.572879 
L 200.111466 94.735131 
L 198.250174 94.14647 
L 196.15622 93.735349 
L 194.062265 93.561756 
L 191.968311 93.613726 
L 189.874357 93.894814 
L 188.013065 94.352557 
L 186.151772 95.034137 
L 184.436497 95.900445 
L 182.89451 96.922827 
L 181.498541 98.107665 
L 180.295256 99.392796 
L 179.089489 101.022559 
L 178.023193 102.885146 
L 177.202065 104.747733 
L 176.501552 106.843143 
L 175.914663 109.323501 
L 175.553671 111.732434 
L 175.363016 114.526314 
L 175.410561 117.320195 
L 175.442582 117.785841 
L 175.442582 117.785841 
" style="fill:none;stroke:#443983;stroke-width:1.5;"/>
    <path clip-path="url(#p59d0db1324)" d="M 231.283494 174.129096 
L 231.615937 176.690153 
L 232.172844 179.25121 
L 232.916748 181.588712 
L 233.847394 183.722994 
L 234.88952 185.537441 
L 236.095392 187.167204 
L 237.337318 188.489269 
L 238.817307 189.728261 
L 240.361918 190.732104 
L 242.104581 191.590848 
L 243.851842 192.219139 
L 245.713134 192.672564 
L 247.807088 192.949284 
L 249.901042 192.997091 
L 251.994997 192.819257 
L 254.088951 192.403519 
L 255.950243 191.810123 
L 257.811536 190.966628 
L 259.45842 189.961085 
L 260.928438 188.796968 
L 262.232106 187.48418 
L 263.396344 186.003088 
L 264.409434 184.373324 
L 265.314548 182.510737 
L 266.087981 180.415327 
L 266.710494 178.087093 
L 267.161207 175.526036 
L 267.411538 172.732156 
L 267.424233 169.938275 
L 267.21602 167.377218 
L 266.813789 165.048985 
L 266.232835 162.953574 
L 265.48393 161.090987 
L 264.558721 159.430136 
L 263.53819 158.064284 
L 262.399263 156.900167 
L 261.068798 155.859969 
L 259.672828 155.024963 
L 258.044197 154.288568 
L 256.04839 153.64064 
L 253.856289 153.171103 
L 251.529673 152.892426 
L 248.970396 152.80953 
L 246.411119 152.950653 
L 244.084503 153.289467 
L 241.990549 153.798907 
L 240.129256 154.460958 
L 238.477277 155.270403 
L 237.052915 156.201697 
L 235.708345 157.365814 
L 234.545379 158.708211 
L 233.59902 160.159694 
L 232.804983 161.789458 
L 232.146726 163.652045 
L 231.64155 165.747455 
L 231.288117 168.245178 
L 231.156467 170.636745 
L 231.228662 173.430626 
L 231.283494 174.129096 
L 231.283494 174.129096 
" style="fill:none;stroke:#443983;stroke-width:1.5;"/>
    <path clip-path="url(#p59d0db1324)" d="M 287.104613 118.484312 
L 287.441529 120.812545 
L 287.946764 122.907955 
L 288.604959 124.770542 
L 289.453509 126.49547 
L 290.384156 127.903103 
L 291.508563 129.194186 
L 292.710771 130.250087 
L 294.106741 131.190835 
L 295.735372 132.016368 
L 297.596664 132.702491 
L 299.690618 133.232229 
L 302.017234 133.589096 
L 304.576511 133.747668 
L 307.135789 133.681747 
L 309.695066 133.382464 
L 312.021682 132.872369 
L 313.972648 132.22089 
L 315.744267 131.389188 
L 317.140236 130.510053 
L 318.451997 129.42701 
L 319.532992 128.262893 
L 320.525694 126.865953 
L 321.391981 125.236189 
L 322.109511 123.373602 
L 322.664505 121.278192 
L 323.044404 118.949958 
L 323.232442 116.388901 
L 323.199914 113.595021 
L 322.929392 110.80114 
L 322.458076 108.240083 
L 321.793468 105.852345 
L 321.013742 103.816439 
L 320.078804 101.953853 
L 319.001529 100.284069 
L 317.838221 98.860239 
L 316.442252 97.512735 
L 314.914814 96.366092 
L 313.303933 95.434798 
L 311.556359 94.67722 
L 309.695066 94.107339 
L 307.601112 93.714582 
L 305.507158 93.557914 
L 303.413204 93.626546 
L 301.319249 93.925176 
L 299.457957 94.400312 
L 297.596664 95.10232 
L 295.968033 95.940159 
L 294.309116 97.064562 
L 292.943433 98.257843 
L 291.703826 99.625619 
L 290.540145 101.255382 
L 289.508711 103.117969 
L 288.713423 104.980556 
L 287.972922 107.30879 
L 287.41588 109.869847 
L 287.083618 112.430904 
L 286.952244 115.224784 
L 287.042772 117.785841 
L 287.104613 118.484312 
L 287.104613 118.484312 
" style="fill:none;stroke:#443983;stroke-width:1.5;"/>
    <path clip-path="url(#p59d0db1324)" d="M 342.953482 174.827566 
L 343.344087 177.388623 
L 343.901307 179.716857 
L 344.693508 182.04509 
L 345.541618 183.907677 
L 346.643911 185.770264 
L 347.695388 187.167204 
L 349.016692 188.564145 
L 350.416839 189.728261 
L 352.039472 190.775998 
L 353.704159 191.590848 
L 355.529395 192.242242 
L 357.390688 192.687065 
L 359.484642 192.955069 
L 361.578596 192.994554 
L 363.67255 192.808226 
L 365.766505 192.383223 
L 367.627797 191.780309 
L 369.48909 190.925242 
L 371.117721 189.919571 
L 372.528793 188.796968 
L 373.909659 187.395856 
L 375.155978 185.770264 
L 376.236275 183.950298 
L 377.106554 182.04509 
L 377.864906 179.833416 
L 378.455898 177.388623 
L 378.846403 174.827566 
L 379.037167 172.033686 
L 378.989438 169.239805 
L 378.718641 166.678748 
L 378.246074 164.350515 
L 377.581546 162.255104 
L 376.852689 160.625341 
L 376.003614 159.196776 
L 374.933499 157.83146 
L 373.73183 156.667344 
L 372.483959 155.73605 
L 370.834296 154.804757 
L 369.023767 154.060743 
L 366.929812 153.46191 
L 364.603197 153.045076 
L 362.043919 152.829886 
L 359.484642 152.8417 
L 356.925365 153.082102 
L 354.598749 153.526444 
L 352.504795 154.157245 
L 350.643502 154.96498 
L 349.247533 155.781459 
L 347.800684 156.900167 
L 346.661609 158.064284 
L 345.621304 159.461224 
L 344.826963 160.862417 
L 344.04741 162.720751 
L 343.439276 164.816161 
L 343.0143 167.144395 
L 342.785602 169.705452 
L 342.769783 172.266509 
L 342.953482 174.827566 
L 342.953482 174.827566 
" style="fill:none;stroke:#443983;stroke-width:1.5;"/>
   </g>
   <g id="LineCollection_3">
    <path clip-path="url(#p59d0db1324)" d="M 58.884717 120.579722 
L 59.250526 123.839249 
L 59.784738 126.633129 
L 60.386873 128.72854 
L 61.14401 130.591127 
L 61.918124 131.988067 
L 62.963019 133.385007 
L 64.004448 134.422956 
L 65.167755 135.309784 
L 66.685918 136.178887 
L 68.425017 136.908009 
L 70.518972 137.53697 
L 73.078249 138.06116 
L 76.102849 138.447004 
L 79.592773 138.668935 
L 83.548019 138.688535 
L 87.270605 138.485699 
L 90.527867 138.092497 
L 93.124174 137.575828 
L 95.41376 136.894142 
L 97.11413 136.178887 
L 98.671022 135.283858 
L 99.916317 134.3163 
L 101.035436 133.152184 
L 102.026573 131.755243 
L 102.870387 130.12548 
L 103.566254 128.262893 
L 104.173076 125.934659 
L 104.647722 123.140779 
L 104.966267 119.881252 
L 105.10698 116.156078 
L 105.043434 112.198081 
L 104.765957 108.240083 
L 104.3161 104.747733 
L 103.671641 101.488206 
L 102.882857 98.694325 
L 101.991834 96.366092 
L 100.997637 94.380495 
L 99.879273 92.640918 
L 98.671022 91.156181 
L 97.275052 89.7966 
L 95.646421 88.552733 
L 93.904085 87.518804 
L 92.156498 86.711681 
L 90.062543 85.980883 
L 87.735928 85.409878 
L 85.17665 85.023526 
L 82.617373 84.859746 
L 80.058096 84.9056 
L 77.498819 85.164523 
L 74.939541 85.657501 
L 72.612926 86.34501 
L 70.518972 87.207301 
L 68.657679 88.226109 
L 67.024379 89.381391 
L 65.633079 90.627629 
L 64.454806 91.942448 
L 63.288284 93.572211 
L 62.242958 95.434798 
L 61.331255 97.530209 
L 60.514524 100.005807 
L 59.868821 102.652323 
L 59.309663 105.91185 
L 58.910328 109.637024 
L 58.710251 113.595021 
L 58.721527 117.553018 
L 58.884717 120.579722 
L 58.884717 120.579722 
" style="fill:none;stroke:#31688e;stroke-width:1.5;"/>
    <path clip-path="url(#p59d0db1324)" d="M 114.491426 171.800862 
L 114.643861 175.991683 
L 115.017275 179.94968 
L 115.574675 183.442031 
L 116.29045 186.468734 
L 117.131239 189.029791 
L 118.042919 191.125202 
L 119.14524 193.077038 
L 120.308548 194.684045 
L 121.704517 196.198466 
L 123.122603 197.411433 
L 124.729117 198.500213 
L 126.59041 199.479649 
L 128.684364 200.308835 
L 131.01098 200.967164 
L 133.337596 201.401089 
L 135.896873 201.65666 
L 138.45615 201.699347 
L 141.015427 201.532347 
L 143.603008 201.136606 
L 145.90132 200.567601 
L 147.995274 199.832525 
L 149.856567 198.961184 
L 151.636574 197.877079 
L 153.132863 196.712962 
L 154.550329 195.316022 
L 155.845347 193.686259 
L 156.866918 192.056495 
L 157.791908 190.193908 
L 158.682877 187.865675 
L 159.415428 185.304618 
L 160.038883 182.277914 
L 160.51805 178.785563 
L 160.822245 174.827566 
L 160.909064 170.636745 
L 160.766248 166.678748 
L 160.416309 163.186398 
L 159.9225 160.392517 
L 159.29118 158.064284 
L 158.565478 156.201697 
L 157.681729 154.571933 
L 156.835544 153.407816 
L 155.673106 152.205095 
L 154.509798 151.302267 
L 153.113829 150.480983 
L 151.485198 149.765929 
L 149.391244 149.102943 
L 146.831967 148.551252 
L 143.807366 148.143346 
L 140.317443 147.902613 
L 136.594858 147.86029 
L 132.872272 148.030049 
L 129.61501 148.384968 
L 126.823072 148.901713 
L 124.496456 149.557382 
L 122.635163 150.308952 
L 121.230581 151.079583 
L 119.843224 152.103439 
L 118.679917 153.270959 
L 117.718185 154.571933 
L 116.834407 156.201697 
L 116.120639 158.028228 
L 115.530125 160.159694 
L 115.050524 162.720751 
L 114.684775 165.980278 
L 114.503747 169.705452 
L 114.491426 171.800862 
L 114.491426 171.800862 
" style="fill:none;stroke:#31688e;stroke-width:1.5;"/>
    <path clip-path="url(#p59d0db1324)" d="M 170.328922 117.785841 
L 170.566557 121.511015 
L 171.001431 124.770542 
L 171.562213 127.331599 
L 172.241164 129.42701 
L 172.978401 131.056773 
L 173.830458 132.453713 
L 174.772861 133.61783 
L 175.914663 134.683176 
L 177.077971 135.5101 
L 178.706602 136.377221 
L 180.567894 137.09309 
L 182.661849 137.667208 
L 185.221126 138.146416 
L 188.478388 138.514792 
L 192.200973 138.69623 
L 196.15622 138.655837 
L 199.878805 138.388526 
L 202.903405 137.960578 
L 205.462682 137.383807 
L 207.556637 136.689237 
L 209.185268 135.937103 
L 210.654348 135.014771 
L 211.768046 134.083477 
L 212.907853 132.809758 
L 213.838499 131.392855 
L 214.570659 129.892656 
L 215.238272 128.03007 
L 215.821732 125.701836 
L 216.277822 122.907955 
L 216.58135 119.648428 
L 216.709076 115.923255 
L 216.622278 111.732434 
L 216.318015 107.774437 
L 215.838854 104.282086 
L 215.215429 101.255382 
L 214.482803 98.694325 
L 213.591935 96.366092 
L 212.534522 94.270682 
L 211.479306 92.640918 
L 210.348575 91.241851 
L 208.932859 89.847038 
L 207.323975 88.60523 
L 205.504282 87.518804 
L 203.834051 86.743367 
L 201.740097 86.003992 
L 199.403294 85.423394 
L 196.854204 85.031833 
L 194.294927 84.861608 
L 191.73565 84.901129 
L 189.176372 85.153354 
L 186.617095 85.638703 
L 184.290479 86.317772 
L 182.196525 87.170467 
L 180.272214 88.217274 
L 178.624665 89.381391 
L 177.310632 90.550441 
L 176.054988 91.942448 
L 174.888434 93.572211 
L 173.820709 95.479505 
L 172.890063 97.638647 
L 172.090479 100.091266 
L 171.421101 102.885146 
L 170.877926 106.144673 
L 170.492581 109.869847 
L 170.305023 113.827844 
L 170.328922 117.785841 
L 170.328922 117.785841 
" style="fill:none;stroke:#31688e;stroke-width:1.5;"/>
    <path clip-path="url(#p59d0db1324)" d="M 226.166726 174.594743 
L 226.45758 178.55274 
L 226.921945 182.04509 
L 227.565532 185.22655 
L 228.317197 187.865675 
L 229.208065 190.193908 
L 230.265478 192.289318 
L 231.320694 193.919082 
L 232.451425 195.318149 
L 233.867141 196.712962 
L 235.476025 197.95477 
L 237.295718 199.041196 
L 238.965949 199.816633 
L 241.059903 200.556008 
L 243.396706 201.136606 
L 245.945796 201.528167 
L 248.505073 201.698392 
L 251.06435 201.658871 
L 253.623628 201.406646 
L 256.182905 200.921297 
L 258.509521 200.242228 
L 260.603475 199.389533 
L 262.527786 198.342726 
L 264.175335 197.178609 
L 265.489368 196.009559 
L 266.745012 194.617552 
L 267.911566 192.987789 
L 268.979291 191.080495 
L 269.909937 188.921353 
L 270.709521 186.468734 
L 271.378899 183.674854 
L 271.922074 180.415327 
L 272.307419 176.690153 
L 272.494977 172.732156 
L 272.469215 168.721605 
L 272.233443 165.048985 
L 271.798569 161.789458 
L 271.237787 159.228401 
L 270.558836 157.13299 
L 269.821599 155.503227 
L 268.969542 154.106287 
L 268.027139 152.94217 
L 266.885337 151.876824 
L 265.722029 151.0499 
L 264.093398 150.182779 
L 262.232106 149.46691 
L 260.138151 148.892792 
L 257.578874 148.413584 
L 254.321612 148.045208 
L 250.599027 147.86377 
L 246.64378 147.904163 
L 242.921195 148.171474 
L 239.896595 148.599422 
L 237.337318 149.176193 
L 235.243363 149.870763 
L 233.614732 150.622897 
L 232.145652 151.545229 
L 231.031954 152.476523 
L 229.892147 153.750242 
L 228.961501 155.167145 
L 228.229341 156.667344 
L 227.561728 158.52993 
L 226.978268 160.858164 
L 226.522178 163.652045 
L 226.21865 166.911572 
L 226.090924 170.636745 
L 226.166726 174.594743 
L 226.166726 174.594743 
" style="fill:none;stroke:#31688e;stroke-width:1.5;"/>
    <path clip-path="url(#p59d0db1324)" d="M 282.00436 119.415605 
L 282.322169 122.907955 
L 282.77825 125.701836 
L 283.404309 128.168446 
L 284.129649 130.12548 
L 284.973389 131.755243 
L 285.776929 132.91936 
L 286.894232 134.142385 
L 288.05754 135.095642 
L 289.453509 135.957857 
L 291.08214 136.704509 
L 293.176095 137.394468 
L 295.50271 137.924848 
L 298.294649 138.341265 
L 301.784573 138.625847 
L 305.507158 138.707576 
L 309.229743 138.579035 
L 312.719666 138.239962 
L 315.511605 137.761787 
L 317.979033 137.110181 
L 319.816542 136.411711 
L 321.328145 135.628675 
L 322.724114 134.651689 
L 323.887422 133.552227 
L 324.929501 132.22089 
L 325.748714 130.809712 
L 326.447249 129.194186 
L 327.099282 127.098776 
L 327.638592 124.537719 
L 328.033384 121.511015 
L 328.262735 118.018665 
L 328.299474 114.060668 
L 328.124453 110.10267 
L 327.752868 106.377497 
L 327.178946 102.885146 
L 326.50955 100.091266 
L 325.668761 97.530209 
L 324.757081 95.434798 
L 323.65476 93.482962 
L 322.491452 91.875955 
L 321.095483 90.361534 
L 319.677397 89.148567 
L 318.070883 88.059787 
L 316.20959 87.080351 
L 314.115636 86.251165 
L 311.78902 85.592836 
L 309.462404 85.158911 
L 306.903127 84.90334 
L 304.34385 84.860653 
L 301.784573 85.027653 
L 299.196992 85.423394 
L 296.89868 85.992399 
L 294.804726 86.727475 
L 292.943433 87.598816 
L 291.163426 88.682921 
L 289.667137 89.847038 
L 288.249671 91.243978 
L 286.954653 92.873741 
L 285.933082 94.503505 
L 285.008092 96.366092 
L 284.117123 98.694325 
L 283.384572 101.255382 
L 282.761117 104.282086 
L 282.28195 107.774437 
L 281.977755 111.732434 
L 281.890936 115.923255 
L 282.00436 119.415605 
L 282.00436 119.415605 
" style="fill:none;stroke:#31688e;stroke-width:1.5;"/>
    <path clip-path="url(#p59d0db1324)" d="M 337.843771 175.991683 
L 338.18841 179.716857 
L 338.729491 183.209207 
L 339.425886 186.235911 
L 340.243723 188.796968 
L 341.129283 190.892378 
L 342.142923 192.754965 
L 343.270628 194.384729 
L 344.594302 195.893349 
L 346.024525 197.178609 
L 347.67218 198.342726 
L 349.480195 199.334111 
L 351.585732 200.205313 
L 353.668103 200.835178 
L 355.994719 201.317995 
L 358.553996 201.62054 
L 361.113273 201.707696 
L 363.67255 201.585497 
L 366.231828 201.24523 
L 368.558443 200.722573 
L 370.842588 199.97249 
L 372.746352 199.123039 
L 374.607644 198.033261 
L 376.236275 196.796882 
L 377.632245 195.446167 
L 378.879202 193.919082 
L 379.95886 192.247379 
L 380.889507 190.423499 
L 381.804629 188.098498 
L 382.518138 185.692452 
L 383.157077 182.743561 
L 383.639597 179.484033 
L 383.970869 175.75886 
L 384.108518 171.800862 
L 384.032936 167.842865 
L 383.760795 164.350515 
L 383.31357 161.323811 
L 382.707387 158.762754 
L 381.970595 156.667344 
L 381.122168 154.964855 
L 380.191522 153.600591 
L 379.167909 152.476523 
L 378.054415 151.545229 
L 376.568312 150.613936 
L 375.068666 149.915466 
L 372.979013 149.208574 
L 370.652397 148.664551 
L 367.860459 148.236875 
L 364.370535 147.942226 
L 360.64795 147.851663 
L 356.925365 147.971196 
L 353.435441 148.299534 
L 350.643502 148.765385 
L 348.316887 149.356825 
L 346.455594 150.029814 
L 344.814677 150.846759 
L 343.430994 151.783871 
L 342.172996 152.94217 
L 341.230616 154.106287 
L 340.378313 155.503227 
L 339.641186 157.13299 
L 338.962189 159.228401 
L 338.443133 161.556634 
L 338.013893 164.583338 
L 337.756307 168.075688 
L 337.693824 172.033686 
L 337.843771 175.991683 
L 337.843771 175.991683 
" style="fill:none;stroke:#31688e;stroke-width:1.5;"/>
   </g>
   <g id="LineCollection_4">
    <path clip-path="url(#p59d0db1324)" d="M 388.8 143.28 
L 333.193885 143.28 
L 333.000001 143.163588 
L 333.000001 59.812823 
L 333.193885 59.58 
L 388.8 59.58 
L 388.8 59.58 
" style="fill:none;stroke:#21908d;stroke-width:1.5;"/>
    <path clip-path="url(#p59d0db1324)" d="M 54 226.747177 
L 54 143.396412 
L 54.465323 143.28 
L 109.606115 143.28 
L 109.799999 143.163588 
L 109.838777 59.58 
L 165.444892 59.58 
L 165.6 59.812823 
L 165.6 143.163588 
L 165.444892 143.28 
L 109.838777 143.28 
L 109.799999 143.629235 
L 109.799999 226.747177 
L 109.606115 226.98 
L 54.232662 226.98 
L 54 226.747177 
L 54 226.747177 
" style="fill:none;stroke:#21908d;stroke-width:1.5;"/>
    <path clip-path="url(#p59d0db1324)" d="M 165.6 226.747177 
L 165.677554 143.28 
L 221.283669 143.28 
L 221.4 143.396412 
L 221.4 226.747177 
L 221.283669 226.98 
L 165.677554 226.98 
L 165.6 226.747177 
L 165.6 226.747177 
" style="fill:none;stroke:#21908d;stroke-width:1.5;"/>
    <path clip-path="url(#p59d0db1324)" d="M 221.4 143.163588 
L 221.4 59.812823 
L 221.516331 59.58 
L 277.122446 59.58 
L 277.2 60.045647 
L 277.2 143.163588 
L 277.355108 143.28 
L 332.961223 143.28 
L 333.000001 143.629235 
L 332.961223 226.98 
L 277.355108 226.98 
L 277.2 226.747177 
L 277.122446 143.28 
L 221.516331 143.28 
L 221.4 143.163588 
L 221.4 143.163588 
" style="fill:none;stroke:#21908d;stroke-width:1.5;"/>
   </g>
   <g id="LineCollection_5">
    <path clip-path="url(#p59d0db1324)" d="M 58.875495 176.45733 
L 58.700578 172.499332 
L 58.737296 168.541335 
L 58.989737 164.816161 
L 59.401464 161.789458 
L 59.962226 159.228401 
L 60.641212 157.13299 
L 61.44517 155.37806 
L 62.230606 154.106287 
L 63.306463 152.800962 
L 64.469771 151.753566 
L 65.86574 150.81722 
L 67.494371 150.013403 
L 69.355664 149.344984 
L 71.711268 148.751349 
L 74.543248 148.285702 
L 77.73148 147.983471 
L 81.454065 147.85267 
L 85.409312 147.944305 
L 88.899236 148.241491 
L 91.923836 148.717799 
L 94.250452 149.286881 
L 96.344406 150.029814 
L 97.985323 150.846759 
L 99.369006 151.783871 
L 100.627004 152.94217 
L 101.569384 154.106287 
L 102.421687 155.503227 
L 103.158814 157.13299 
L 103.837811 159.228401 
L 104.356867 161.556634 
L 104.786107 164.583338 
L 105.043693 168.075688 
L 105.106176 172.033686 
L 104.940742 176.224506 
L 104.552885 180.182503 
L 104.022238 183.458215 
L 103.30963 186.468734 
L 102.468767 189.029791 
L 101.557046 191.125202 
L 100.511707 192.987789 
L 99.345161 194.617552 
L 97.973037 196.123719 
L 96.477172 197.411433 
L 94.948436 198.45343 
L 93.087144 199.443936 
L 90.99319 200.282445 
L 88.666574 200.949015 
L 86.339958 201.389811 
L 83.780681 201.65209 
L 81.221404 201.701113 
L 78.662126 201.54055 
L 76.102849 201.157797 
L 73.776233 200.590559 
L 71.682279 199.864015 
L 69.820987 199.00225 
L 68.192356 198.033261 
L 66.563725 196.796882 
L 65.167755 195.446167 
L 63.920798 193.919082 
L 62.84114 192.247379 
L 61.910493 190.423499 
L 60.995371 188.098498 
L 60.281862 185.692452 
L 59.642923 182.743561 
L 59.160403 179.484033 
L 58.875495 176.45733 
L 58.875495 176.45733 
" style="fill:none;stroke:#35b779;stroke-width:1.5;"/>
    <path clip-path="url(#p59d0db1324)" d="M 114.490835 115.923255 
L 114.566813 111.965257 
L 114.857607 108.00726 
L 115.321976 104.51491 
L 115.928301 101.488206 
L 116.717239 98.694325 
L 117.608196 96.366092 
L 118.53318 94.503505 
L 119.610563 92.794182 
L 120.849755 91.243978 
L 122.267355 89.847038 
L 123.798471 88.658417 
L 125.427102 87.661385 
L 127.288395 86.775447 
L 129.382349 86.027406 
L 131.797562 85.423394 
L 134.268242 85.040345 
L 136.827519 84.863661 
L 139.386796 84.896853 
L 141.946074 85.142404 
L 144.505351 85.620158 
L 146.831967 86.290876 
L 148.925921 87.134087 
L 150.787213 88.130186 
L 152.415844 89.255087 
L 153.884119 90.545508 
L 155.207783 92.020429 
L 156.371091 93.666175 
L 157.357092 95.434798 
L 158.268825 97.530209 
L 159.043182 99.858442 
L 159.731142 102.652323 
L 160.290343 105.91185 
L 160.689606 109.637024 
L 160.889726 113.595021 
L 160.878463 117.553018 
L 160.65535 121.278192 
L 160.23853 124.537719 
L 159.699254 127.098776 
L 159.047103 129.194186 
L 158.232384 131.036446 
L 157.369416 132.453713 
L 156.371091 133.677641 
L 155.161468 134.781947 
L 153.785261 135.713241 
L 152.183183 136.513665 
L 150.32189 137.191259 
L 147.995274 137.786484 
L 145.203336 138.255392 
L 141.946074 138.57144 
L 138.223489 138.70677 
L 134.268242 138.619829 
L 130.778318 138.327709 
L 127.753718 137.857652 
L 125.427102 137.295855 
L 123.333148 136.562899 
L 121.6149 135.713241 
L 120.238582 134.781947 
L 119.14524 133.799201 
L 118.199086 132.686537 
L 117.283947 131.253401 
L 116.533271 129.659833 
L 115.887978 127.781474 
L 115.331451 125.469013 
L 114.893294 122.675132 
L 114.604459 119.415605 
L 114.490835 115.923255 
L 114.490835 115.923255 
" style="fill:none;stroke:#35b779;stroke-width:1.5;"/>
    <path clip-path="url(#p59d0db1324)" d="M 170.33007 173.663449 
L 170.308888 169.472629 
L 170.503732 165.747455 
L 170.886033 162.487928 
L 171.441616 159.694047 
L 172.068177 157.598637 
L 172.858475 155.73605 
L 173.670484 154.33911 
L 174.56294 153.174993 
L 175.751927 152.010876 
L 177.077971 151.0499 
L 178.706602 150.182779 
L 180.567894 149.46691 
L 182.661849 148.892792 
L 185.221126 148.413584 
L 188.478388 148.045208 
L 192.200973 147.86377 
L 196.15622 147.904163 
L 199.878805 148.171474 
L 202.903405 148.599422 
L 205.462682 149.176193 
L 207.556637 149.870763 
L 209.185268 150.622897 
L 210.654348 151.545229 
L 211.768046 152.476523 
L 212.907853 153.750242 
L 213.838499 155.167145 
L 214.570659 156.667344 
L 215.238272 158.52993 
L 215.821732 160.858164 
L 216.277822 163.652045 
L 216.58135 166.911572 
L 216.709076 170.636745 
L 216.622278 174.827566 
L 216.318015 178.785563 
L 215.838854 182.277914 
L 215.215429 185.304618 
L 214.482803 187.865675 
L 213.591935 190.193908 
L 212.534522 192.289318 
L 211.479306 193.919082 
L 210.348575 195.318149 
L 208.932859 196.712962 
L 207.323975 197.95477 
L 205.504282 199.041196 
L 203.834051 199.816633 
L 201.740097 200.556008 
L 199.403294 201.136606 
L 196.854204 201.528167 
L 194.294927 201.698392 
L 191.73565 201.658871 
L 189.176372 201.406646 
L 186.617095 200.921297 
L 184.290479 200.242228 
L 182.196525 199.389533 
L 180.272214 198.342726 
L 178.624665 197.178609 
L 177.310632 196.009559 
L 176.054988 194.617552 
L 174.888434 192.987789 
L 173.820709 191.080495 
L 172.890063 188.921353 
L 172.090479 186.468734 
L 171.421101 183.674854 
L 170.877926 180.415327 
L 170.492581 176.690153 
L 170.33007 173.663449 
L 170.33007 173.663449 
" style="fill:none;stroke:#35b779;stroke-width:1.5;"/>
    <path clip-path="url(#p59d0db1324)" d="M 226.166964 118.717135 
L 226.091516 114.759138 
L 226.243858 110.568317 
L 226.617218 106.61032 
L 227.174672 103.117969 
L 227.890475 100.091266 
L 228.731094 97.530209 
L 229.659486 95.40112 
L 230.688436 93.572211 
L 231.854995 91.942448 
L 233.149409 90.512124 
L 234.545379 89.285412 
L 236.17401 88.153953 
L 238.035302 87.152221 
L 240.129256 86.304281 
L 242.455872 85.629397 
L 244.782488 85.181688 
L 247.341765 84.912675 
L 249.901042 84.857312 
L 252.46032 85.011451 
L 255.019597 85.387034 
L 257.346213 85.946783 
L 259.440167 86.664883 
L 261.304535 87.518804 
L 262.93009 88.475255 
L 264.558721 89.696851 
L 265.954691 91.030094 
L 267.279218 92.640918 
L 268.334574 94.270682 
L 269.287885 96.133268 
L 270.142599 98.281389 
L 270.898029 100.789736 
L 271.557137 103.816439 
L 272.066622 107.30879 
L 272.384804 111.033964 
L 272.510097 114.991961 
L 272.421373 118.949958 
L 272.134327 122.442309 
L 271.668545 125.469013 
L 271.073245 127.913085 
L 270.370724 129.892656 
L 269.564542 131.52242 
L 268.622999 132.91936 
L 267.568073 134.083477 
L 266.420014 135.039895 
L 264.96839 135.946064 
L 263.395413 136.673864 
L 261.301459 137.373081 
L 258.974844 137.91024 
L 256.182905 138.33226 
L 252.692981 138.621859 
L 248.970396 138.708001 
L 245.247811 138.58397 
L 241.757887 138.250283 
L 238.965949 137.778303 
L 236.639333 137.179269 
L 234.77804 136.497033 
L 233.149409 135.674897 
L 231.75344 134.71441 
L 230.572847 133.61783 
L 229.63051 132.453713 
L 228.728839 130.96175 
L 228.030855 129.400421 
L 227.362161 127.331599 
L 226.84306 125.003366 
L 226.413826 121.976662 
L 226.166964 118.717135 
L 226.166964 118.717135 
" style="fill:none;stroke:#35b779;stroke-width:1.5;"/>
    <path clip-path="url(#p59d0db1324)" d="M 282.001903 175.293213 
L 281.888972 171.102392 
L 282.008339 167.079019 
L 282.322169 163.652045 
L 282.77825 160.858164 
L 283.404309 158.391554 
L 284.129649 156.43452 
L 284.973389 154.804757 
L 285.776929 153.64064 
L 286.894232 152.417615 
L 288.05754 151.464358 
L 289.453509 150.602143 
L 291.08214 149.855491 
L 293.176095 149.165532 
L 295.50271 148.635152 
L 298.294649 148.218735 
L 301.784573 147.934153 
L 305.507158 147.852424 
L 309.229743 147.980965 
L 312.719666 148.320038 
L 315.511605 148.798213 
L 317.979033 149.449819 
L 319.816542 150.148289 
L 321.328145 150.931325 
L 322.724114 151.908311 
L 323.887422 153.007773 
L 324.929501 154.33911 
L 325.748714 155.750288 
L 326.447249 157.365814 
L 327.099282 159.461224 
L 327.638592 162.022281 
L 328.033384 165.048985 
L 328.262735 168.541335 
L 328.299474 172.499332 
L 328.124453 176.45733 
L 327.752868 180.182503 
L 327.178946 183.674854 
L 326.50955 186.468734 
L 325.668761 189.029791 
L 324.757081 191.125202 
L 323.65476 193.077038 
L 322.491452 194.684045 
L 321.095483 196.198466 
L 319.677397 197.411433 
L 318.070883 198.500213 
L 316.20959 199.479649 
L 314.115636 200.308835 
L 311.78902 200.967164 
L 309.462404 201.401089 
L 306.903127 201.65666 
L 304.34385 201.699347 
L 301.784573 201.532347 
L 299.196992 201.136606 
L 296.89868 200.567601 
L 294.804726 199.832525 
L 292.943433 198.961184 
L 291.163426 197.877079 
L 289.667137 196.712962 
L 288.249671 195.316022 
L 286.954653 193.686259 
L 285.933082 192.056495 
L 285.008092 190.193908 
L 284.117123 187.865675 
L 283.384572 185.304618 
L 282.761117 182.277914 
L 282.28195 178.785563 
L 282.001903 175.293213 
L 282.001903 175.293213 
" style="fill:none;stroke:#35b779;stroke-width:1.5;"/>
    <path clip-path="url(#p59d0db1324)" d="M 337.833733 119.881252 
L 337.69302 116.156078 
L 337.756566 112.198081 
L 338.034043 108.240083 
L 338.4839 104.747733 
L 339.128359 101.488206 
L 339.917143 98.694325 
L 340.808166 96.366092 
L 341.802363 94.380495 
L 342.920727 92.640918 
L 344.128978 91.156181 
L 345.524948 89.7966 
L 347.153579 88.552733 
L 348.895915 87.518804 
L 350.643502 86.711681 
L 352.737457 85.980883 
L 355.064072 85.409878 
L 357.62335 85.023526 
L 360.182627 84.859746 
L 362.741904 84.9056 
L 365.301181 85.164523 
L 367.860459 85.657501 
L 370.187074 86.34501 
L 372.281028 87.207301 
L 374.142321 88.226109 
L 375.775621 89.381391 
L 377.166921 90.627629 
L 378.345194 91.942448 
L 379.511716 93.572211 
L 380.557042 95.434798 
L 381.468745 97.530209 
L 382.285476 100.005807 
L 382.931179 102.652323 
L 383.490337 105.91185 
L 383.889672 109.637024 
L 384.089749 113.595021 
L 384.078473 117.553018 
L 383.855372 121.278192 
L 383.438622 124.537719 
L 382.899243 127.098776 
L 382.247168 129.194186 
L 381.421621 131.056773 
L 380.569394 132.453713 
L 379.493537 133.759038 
L 378.330229 134.806434 
L 376.93426 135.74278 
L 375.305629 136.546597 
L 373.444336 137.215016 
L 371.088732 137.808651 
L 368.256752 138.274298 
L 365.06852 138.576529 
L 361.345935 138.70733 
L 357.390688 138.615695 
L 353.900764 138.318509 
L 350.876164 137.842201 
L 348.549548 137.273119 
L 346.455594 136.530186 
L 344.814677 135.713241 
L 343.430994 134.776129 
L 342.172996 133.61783 
L 341.230616 132.453713 
L 340.378313 131.056773 
L 339.641186 129.42701 
L 338.962189 127.331599 
L 338.443133 125.003366 
L 338.013893 121.976662 
L 337.833733 119.881252 
L 337.833733 119.881252 
" style="fill:none;stroke:#35b779;stroke-width:1.5;"/>
   </g>
   <g id="LineCollection_6">
    <path clip-path="url(#p59d0db1324)" d="M 63.769666 172.266509 
L 63.797145 169.472629 
L 64.046736 166.911572 
L 64.495212 164.583338 
L 65.131017 162.487928 
L 65.86574 160.78521 
L 66.796386 159.196776 
L 67.866501 157.83146 
L 69.06817 156.667344 
L 70.316041 155.73605 
L 71.965704 154.804757 
L 73.776233 154.060743 
L 75.870188 153.46191 
L 78.196803 153.045076 
L 80.756081 152.829886 
L 83.315358 152.8417 
L 85.874635 153.082102 
L 88.201251 153.526444 
L 90.295205 154.157245 
L 92.156498 154.96498 
L 93.552467 155.781459 
L 94.999316 156.900167 
L 96.138391 158.064284 
L 97.178696 159.461224 
L 97.973037 160.862417 
L 98.75259 162.720751 
L 99.360724 164.816161 
L 99.7857 167.144395 
L 100.014398 169.705452 
L 100.030217 172.266509 
L 99.819817 175.060389 
L 99.409479 177.621446 
L 98.830721 179.94968 
L 98.106492 182.04509 
L 97.258382 183.907677 
L 96.156089 185.770264 
L 95.104612 187.167204 
L 93.783308 188.564145 
L 92.383161 189.728261 
L 90.760528 190.775998 
L 89.095841 191.590848 
L 87.270605 192.242242 
L 85.409312 192.687065 
L 83.315358 192.955069 
L 81.221404 192.994554 
L 79.12745 192.808226 
L 77.033495 192.383223 
L 75.172203 191.780309 
L 73.31091 190.925242 
L 71.682279 189.919571 
L 70.271207 188.796968 
L 68.890341 187.395856 
L 67.644022 185.770264 
L 66.563725 183.950298 
L 65.693446 182.04509 
L 64.935094 179.833416 
L 64.344102 177.388623 
L 63.953597 174.827566 
L 63.769666 172.266509 
L 63.769666 172.266509 
" style="fill:none;stroke:#90d743;stroke-width:1.5;"/>
    <path clip-path="url(#p59d0db1324)" d="M 119.610431 117.320195 
L 119.557741 114.759138 
L 119.728675 111.965257 
L 120.099341 109.4042 
L 120.701514 106.843143 
L 121.471855 104.568943 
L 122.341781 102.652323 
L 123.333148 100.955651 
L 124.496456 99.391089 
L 125.892425 97.925541 
L 127.288395 96.779336 
L 128.917026 95.740665 
L 130.545657 94.951516 
L 132.492746 94.270682 
L 134.268242 93.858772 
L 136.362196 93.599458 
L 138.543975 93.572211 
L 140.550104 93.763132 
L 142.644058 94.197441 
L 144.505351 94.809938 
L 146.366644 95.676691 
L 147.995274 96.695476 
L 149.391244 97.819201 
L 150.787213 99.254055 
L 151.95628 100.789736 
L 153.058232 102.652323 
L 153.906496 104.51491 
L 154.630684 106.61032 
L 155.209615 108.938554 
L 155.619703 111.499611 
L 155.830137 114.293491 
L 155.802715 117.087371 
L 155.553167 119.648428 
L 155.104635 121.976662 
L 154.468969 124.072072 
L 153.652704 125.934659 
L 152.82497 127.331599 
L 151.71786 128.746132 
L 150.531989 129.892656 
L 149.158582 130.9052 
L 147.529951 131.805102 
L 145.668659 132.552159 
L 143.574705 133.133437 
L 141.248089 133.534821 
L 138.688812 133.735733 
L 136.129534 133.710411 
L 133.570257 133.455464 
L 131.243641 132.99512 
L 129.149687 132.34533 
L 127.288395 131.514708 
L 125.659764 130.510053 
L 124.348003 129.42701 
L 123.267008 128.262893 
L 122.274306 126.865953 
L 121.408019 125.236189 
L 120.690489 123.373602 
L 120.135495 121.278192 
L 119.755596 118.949958 
L 119.610431 117.320195 
L 119.610431 117.320195 
" style="fill:none;stroke:#90d743;stroke-width:1.5;"/>
    <path clip-path="url(#p59d0db1324)" d="M 175.445181 173.663449 
L 175.353405 170.869569 
L 175.482113 168.308512 
L 175.841516 165.747455 
L 176.379986 163.540709 
L 177.077971 161.617357 
L 177.799054 160.159694 
L 178.706602 158.759874 
L 179.86991 157.40464 
L 181.033218 156.370146 
L 182.429187 155.415025 
L 184.070512 154.571933 
L 185.945346 153.873463 
L 188.013065 153.343547 
L 190.33968 152.979391 
L 192.898958 152.81381 
L 195.458235 152.872952 
L 198.017512 153.164752 
L 200.344128 153.666303 
L 202.438082 154.365141 
L 204.066713 155.128453 
L 205.462682 155.994426 
L 206.858652 157.138982 
L 208.02196 158.407489 
L 208.952606 159.73764 
L 209.791934 161.323811 
L 210.509528 163.186398 
L 211.064625 165.281808 
L 211.444431 167.610042 
L 211.632349 170.171099 
L 211.599734 172.964979 
L 211.32933 175.75886 
L 210.858045 178.319917 
L 210.212922 180.64815 
L 209.414 182.743561 
L 208.479074 184.606147 
L 207.323975 186.381438 
L 206.083787 187.865675 
L 204.764698 189.112838 
L 203.314981 190.193908 
L 201.704298 191.125202 
L 199.878805 191.911101 
L 198.017512 192.471684 
L 195.923558 192.855317 
L 193.829604 193.003546 
L 191.73565 192.926573 
L 189.641696 192.61913 
L 187.780403 192.135225 
L 185.91911 191.422883 
L 184.290479 190.57389 
L 182.661849 189.45877 
L 181.265879 188.225396 
L 180.102571 186.933266 
L 178.939263 185.303713 
L 177.908791 183.442031 
L 177.027763 181.34662 
L 176.311949 179.018387 
L 175.776934 176.45733 
L 175.44934 173.71657 
L 175.445181 173.663449 
L 175.445181 173.663449 
" style="fill:none;stroke:#90d743;stroke-width:1.5;"/>
    <path clip-path="url(#p59d0db1324)" d="M 231.282022 118.251488 
L 231.153407 115.690431 
L 231.245305 112.896551 
L 231.539585 110.335494 
L 232.053181 107.774437 
L 232.744869 105.446203 
L 233.614732 103.31432 
L 234.595717 101.488206 
L 235.718973 99.858442 
L 236.940137 98.461502 
L 238.267964 97.255363 
L 239.896595 96.103557 
L 241.577879 95.201975 
L 243.386518 94.487667 
L 245.247811 93.981617 
L 247.341765 93.652006 
L 249.435719 93.55415 
L 251.529673 93.681339 
L 253.623628 94.042326 
L 255.48492 94.579925 
L 257.346213 95.356118 
L 258.974844 96.274532 
L 260.383763 97.297385 
L 261.766782 98.571218 
L 263.058649 100.091266 
L 264.143874 101.721029 
L 265.109681 103.583616 
L 265.954691 105.736027 
L 266.603492 108.00726 
L 267.095793 110.568317 
L 267.37144 113.129374 
L 267.443539 115.923255 
L 267.295296 118.484312 
L 266.958484 120.812545 
L 266.420014 123.019291 
L 265.722029 124.942643 
L 265.000946 126.400306 
L 264.093398 127.800126 
L 262.93009 129.15536 
L 261.766782 130.189854 
L 260.370813 131.144975 
L 258.729488 131.988067 
L 256.854654 132.686537 
L 254.786935 133.216453 
L 252.46032 133.580609 
L 249.901042 133.74619 
L 247.341765 133.687048 
L 244.782488 133.395248 
L 242.455872 132.893697 
L 240.361918 132.194859 
L 238.733287 131.431547 
L 237.337318 130.565574 
L 235.941348 129.421018 
L 234.77804 128.152511 
L 233.847394 126.82236 
L 233.008066 125.236189 
L 232.290472 123.373602 
L 231.735375 121.278192 
L 231.355569 118.949958 
L 231.282022 118.251488 
L 231.282022 118.251488 
" style="fill:none;stroke:#90d743;stroke-width:1.5;"/>
    <path clip-path="url(#p59d0db1324)" d="M 287.1052 174.361919 
L 286.954179 171.568039 
L 287.025821 169.006982 
L 287.317984 166.445925 
L 287.815093 164.117691 
L 288.418539 162.255104 
L 289.220848 160.485219 
L 290.151494 158.973607 
L 291.281679 157.598637 
L 292.47811 156.493672 
L 293.882745 155.503227 
L 295.50271 154.647128 
L 297.364003 153.931079 
L 299.457957 153.375886 
L 301.784573 152.997033 
L 304.34385 152.817379 
L 306.903127 152.86298 
L 309.462404 153.139952 
L 311.78902 153.624704 
L 313.650313 154.21467 
L 315.511605 155.045292 
L 317.140236 156.049947 
L 318.451997 157.13299 
L 319.532992 158.297107 
L 320.525694 159.694047 
L 321.391981 161.323811 
L 322.109511 163.186398 
L 322.664505 165.281808 
L 323.044404 167.610042 
L 323.232442 170.171099 
L 323.199914 172.964979 
L 322.929392 175.75886 
L 322.458076 178.319917 
L 321.793468 180.707655 
L 321.013742 182.743561 
L 320.078804 184.606147 
L 319.001529 186.275931 
L 317.838221 187.699761 
L 316.442252 189.047265 
L 314.914814 190.193908 
L 313.303933 191.125202 
L 311.556359 191.88278 
L 309.695066 192.452661 
L 307.601112 192.845418 
L 305.507158 193.002086 
L 303.413204 192.933454 
L 301.319249 192.634824 
L 299.457957 192.159688 
L 297.596664 191.45768 
L 295.968033 190.619841 
L 294.309116 189.495438 
L 292.943433 188.302157 
L 291.703826 186.934381 
L 290.540145 185.304618 
L 289.508711 183.442031 
L 288.713423 181.579444 
L 287.972922 179.25121 
L 287.41588 176.690153 
L 287.1052 174.361919 
L 287.1052 174.361919 
" style="fill:none;stroke:#90d743;stroke-width:1.5;"/>
    <path clip-path="url(#p59d0db1324)" d="M 342.955411 118.949958 
L 342.767536 116.388901 
L 342.800239 113.595021 
L 343.070748 110.80114 
L 343.542054 108.240083 
L 344.187016 105.91185 
L 344.986242 103.816439 
L 345.921163 101.953853 
L 346.96957 100.324089 
L 348.100849 98.927149 
L 349.537624 97.530209 
L 351.108826 96.350152 
L 352.737457 95.413664 
L 354.598749 94.620998 
L 356.597217 94.037858 
L 358.553996 93.695105 
L 360.64795 93.555302 
L 362.741904 93.640622 
L 364.835858 93.956909 
L 366.860211 94.503505 
L 368.622045 95.201975 
L 370.350963 96.133268 
L 371.815705 97.162313 
L 373.259942 98.461502 
L 374.480701 99.858442 
L 375.604238 101.488206 
L 376.6022 103.350793 
L 377.455145 105.446203 
L 378.14686 107.774437 
L 378.660251 110.335494 
L 378.954631 112.896551 
L 379.046753 115.690431 
L 378.917766 118.251488 
L 378.558679 120.812545 
L 378.053335 122.907955 
L 377.39528 124.770542 
L 376.600751 126.400306 
L 375.695248 127.797246 
L 374.607644 129.076251 
L 373.444336 130.128861 
L 372.048367 131.098545 
L 370.329004 131.988067 
L 368.454159 132.686537 
L 366.464489 133.200415 
L 364.137874 133.571899 
L 361.578596 133.744508 
L 359.019319 133.692138 
L 356.460042 133.407768 
L 354.133426 132.914723 
L 352.026834 132.22089 
L 350.410841 131.473385 
L 348.973616 130.591127 
L 347.618902 129.493646 
L 346.455594 128.249142 
L 345.474206 126.865953 
L 344.594302 125.206175 
L 343.89027 123.373602 
L 343.335546 121.278192 
L 342.955411 118.949958 
L 342.955411 118.949958 
" style="fill:none;stroke:#90d743;stroke-width:1.5;"/>
   </g>
   <g id="LineCollection_7">
    <path clip-path="url(#p59d0db1324)" d="M 70.045626 172.732156 
L 69.973662 170.869569 
L 70.123163 169.006982 
L 70.454148 167.377218 
L 71.007127 165.747455 
L 71.705383 164.350515 
L 72.612926 163.043429 
L 73.563683 162.022281 
L 74.712351 161.090987 
L 76.102849 160.267042 
L 77.498819 159.681677 
L 79.171511 159.228401 
L 80.988742 158.989255 
L 82.850035 158.991796 
L 84.627734 159.228401 
L 86.107297 159.616708 
L 87.503266 160.172343 
L 88.899236 160.962807 
L 90.062543 161.863566 
L 91.113214 162.953574 
L 91.953393 164.117691 
L 92.692239 165.514631 
L 93.281645 167.144395 
L 93.641574 168.774159 
L 93.820234 170.636745 
L 93.775261 172.499332 
L 93.511293 174.361919 
L 93.01347 176.224506 
L 92.355031 177.85427 
L 91.432987 179.484033 
L 90.355477 180.880974 
L 89.364559 181.865678 
L 88.201251 182.763769 
L 86.805281 183.563412 
L 85.353219 184.140501 
L 83.780681 184.520404 
L 82.15205 184.673482 
L 80.523419 184.593252 
L 78.894788 184.273321 
L 77.498819 183.790661 
L 76.102849 183.083532 
L 74.930853 182.277914 
L 73.658394 181.113797 
L 72.612926 179.840771 
L 71.678023 178.319917 
L 70.951353 176.690153 
L 70.390317 174.827566 
L 70.069993 172.964979 
L 70.045626 172.732156 
L 70.045626 172.732156 
" style="fill:none;stroke:#fde725;stroke-width:1.5;"/>
    <path clip-path="url(#p59d0db1324)" d="M 125.891357 117.320195 
L 125.770857 115.457608 
L 125.870034 113.595021 
L 126.190226 111.732434 
L 126.751549 109.869847 
L 127.478332 108.240083 
L 128.325736 106.843143 
L 129.382349 105.52728 
L 130.545657 104.430889 
L 131.941626 103.453382 
L 133.337596 102.75308 
L 134.733565 102.276129 
L 136.362196 101.962089 
L 137.990827 101.887436 
L 139.619458 102.046149 
L 141.248089 102.449898 
L 142.644058 103.015324 
L 144.040028 103.822356 
L 145.224858 104.747733 
L 146.366644 105.92124 
L 147.383641 107.30879 
L 148.227936 108.86098 
L 148.8134 110.335494 
L 149.311134 112.198081 
L 149.575019 114.060668 
L 149.620451 115.923255 
L 149.441705 117.785841 
L 149.081473 119.415605 
L 148.492443 121.045369 
L 147.753568 122.442309 
L 146.831967 123.702988 
L 145.778727 124.770542 
L 144.505351 125.724042 
L 143.109382 126.477056 
L 141.480751 127.075019 
L 139.85212 127.43404 
L 137.990827 127.596968 
L 136.129534 127.512142 
L 134.500903 127.228026 
L 132.872272 126.721231 
L 131.476303 126.069069 
L 130.193145 125.236189 
L 129.123239 124.304896 
L 128.121632 123.140779 
L 127.245893 121.743839 
L 126.59041 120.256081 
L 126.125087 118.656745 
L 125.891357 117.320195 
L 125.891357 117.320195 
" style="fill:none;stroke:#fde725;stroke-width:1.5;"/>
    <path clip-path="url(#p59d0db1324)" d="M 181.728774 173.430626 
L 181.575341 171.568039 
L 181.64015 169.705452 
L 181.938609 167.842865 
L 182.429187 166.197421 
L 183.127172 164.665003 
L 183.921631 163.419221 
L 184.988464 162.190748 
L 186.151772 161.206117 
L 187.547741 160.345554 
L 189.064451 159.694047 
L 190.572342 159.269952 
L 192.200973 159.019873 
L 194.062265 158.971168 
L 195.923558 159.170963 
L 197.552189 159.567037 
L 199.18082 160.209767 
L 200.576789 161.015016 
L 201.740097 161.933727 
L 202.713481 162.953574 
L 203.60139 164.195825 
L 204.299375 165.529997 
L 204.881415 167.144395 
L 205.241942 168.774159 
L 205.420192 170.636745 
L 205.374886 172.499332 
L 205.111087 174.361919 
L 204.613448 176.224506 
L 203.954747 177.85427 
L 203.136067 179.326089 
L 202.158292 180.64815 
L 201.024909 181.812267 
L 199.646143 182.866017 
L 198.165796 183.674854 
L 196.854204 184.171878 
L 195.225573 184.545256 
L 193.596942 184.675844 
L 191.968311 184.573271 
L 190.33968 184.229684 
L 188.834305 183.674854 
L 187.527125 182.976384 
L 186.151772 181.966652 
L 184.988464 180.818018 
L 183.967371 179.484033 
L 183.127172 178.023319 
L 182.429187 176.349834 
L 181.93748 174.594743 
L 181.728774 173.430626 
L 181.728774 173.430626 
" style="fill:none;stroke:#fde725;stroke-width:1.5;"/>
    <path clip-path="url(#p59d0db1324)" d="M 237.558058 117.785841 
L 237.379808 115.923255 
L 237.425114 114.060668 
L 237.688913 112.198081 
L 238.186552 110.335494 
L 238.845253 108.70573 
L 239.663933 107.233911 
L 240.641708 105.91185 
L 241.775091 104.747733 
L 243.153857 103.693983 
L 244.634204 102.885146 
L 245.945796 102.388122 
L 247.574427 102.014744 
L 249.203058 101.884156 
L 250.831689 101.986729 
L 252.46032 102.330316 
L 253.965695 102.885146 
L 255.272875 103.583616 
L 256.648228 104.593348 
L 257.811536 105.741982 
L 258.832629 107.075967 
L 259.672828 108.536681 
L 260.370813 110.210166 
L 260.86252 111.965257 
L 261.15399 113.827844 
L 261.22635 115.690431 
L 261.068798 117.609003 
L 260.681471 119.415605 
L 260.092354 121.045369 
L 259.353096 122.442309 
L 258.509521 123.611598 
L 257.346213 124.799262 
L 256.139839 125.701836 
L 254.786935 126.441835 
L 253.158304 127.052202 
L 251.529673 127.421742 
L 249.668381 127.595172 
L 247.807088 127.520684 
L 246.178457 127.246336 
L 244.549826 126.751046 
L 243.153857 126.111684 
L 241.757887 125.209763 
L 240.59458 124.173444 
L 239.663933 123.062048 
L 238.846123 121.743839 
L 238.223552 120.346898 
L 237.738814 118.717135 
L 237.558058 117.785841 
L 237.558058 117.785841 
" style="fill:none;stroke:#fde725;stroke-width:1.5;"/>
    <path clip-path="url(#p59d0db1324)" d="M 293.174926 171.568039 
L 293.240076 169.705452 
L 293.538909 167.842865 
L 294.023712 166.213102 
L 294.646048 164.816161 
L 295.5212 163.419221 
L 296.523637 162.255104 
L 297.596664 161.320545 
L 298.992634 160.42725 
L 300.388603 159.794249 
L 302.017234 159.304686 
L 303.645865 159.035209 
L 305.507158 158.965884 
L 307.36845 159.144575 
L 308.997081 159.519394 
L 310.625712 160.135995 
L 312.021682 160.911331 
L 313.18499 161.794321 
L 314.348297 162.995692 
L 315.29468 164.350515 
L 315.992927 165.747455 
L 316.545759 167.377218 
L 316.877023 169.006982 
L 317.026291 170.869569 
L 316.954129 172.732156 
L 316.66262 174.594743 
L 316.133126 176.45733 
L 315.440935 178.087093 
L 314.580959 179.561572 
L 313.555329 180.880974 
L 312.355306 182.04509 
L 311.072913 182.976384 
L 309.695066 183.706973 
L 308.299097 184.218413 
L 306.670466 184.567938 
L 305.041835 184.676106 
L 303.413204 184.55113 
L 301.784573 184.18373 
L 300.388603 183.654602 
L 298.992634 182.891097 
L 297.829326 182.032818 
L 296.644207 180.880974 
L 295.567277 179.484033 
L 294.75894 178.087093 
L 294.066706 176.45733 
L 293.537774 174.594743 
L 293.245969 172.732156 
L 293.174926 171.568039 
L 293.174926 171.568039 
" style="fill:none;stroke:#fde725;stroke-width:1.5;"/>
    <path clip-path="url(#p59d0db1324)" d="M 349.00263 116.388901 
L 348.993185 114.526314 
L 349.201824 112.663727 
L 349.638485 110.80114 
L 350.233008 109.171377 
L 351.072059 107.541613 
L 352.048777 106.144673 
L 353.20278 104.90497 
L 354.366088 103.957313 
L 355.762057 103.111525 
L 357.158026 102.515736 
L 358.786657 102.080964 
L 360.415288 101.893999 
L 362.043919 101.940932 
L 363.67255 102.225527 
L 365.06852 102.674157 
L 366.481877 103.350793 
L 367.869147 104.282086 
L 369.141606 105.446203 
L 370.187074 106.719229 
L 371.121977 108.240083 
L 371.848647 109.869847 
L 372.409683 111.732434 
L 372.730007 113.595021 
L 372.829182 115.457608 
L 372.708386 117.320195 
L 372.345852 119.182782 
L 371.792873 120.812545 
L 371.094617 122.209485 
L 370.187074 123.516571 
L 369.236317 124.537719 
L 368.087649 125.469013 
L 366.697151 126.292958 
L 365.301181 126.878323 
L 363.628489 127.331599 
L 361.811258 127.570745 
L 359.949965 127.568204 
L 358.172266 127.331599 
L 356.692703 126.943292 
L 355.296734 126.387657 
L 353.900764 125.597193 
L 352.737457 124.696434 
L 351.686786 123.606426 
L 350.846607 122.442309 
L 350.107761 121.045369 
L 349.518355 119.415605 
L 349.158426 117.785841 
L 349.00263 116.388901 
L 349.00263 116.388901 
" style="fill:none;stroke:#fde725;stroke-width:1.5;"/>
   </g>
   <g id="line2d_1">
    <path clip-path="url(#p59d0db1324)" d="M 54 195.36 
L 388.8 195.36 
" style="fill:none;stroke:#ff0000;stroke-linecap:square;stroke-width:1.5;"/>
   </g>
   <g id="line2d_2">
    <path clip-path="url(#p59d0db1324)" d="M 54 91.2 
L 388.8 91.2 
" style="fill:none;stroke:#ff0000;stroke-linecap:square;stroke-width:1.5;"/>
   </g>
   <g id="patch_3">
    <path d="M 54 252 
L 54 34.56 
" style="fill:none;stroke:#000000;stroke-linecap:square;stroke-linejoin:miter;stroke-width:0.8;"/>
   </g>
   <g id="patch_4">
    <path d="M 388.8 252 
L 388.8 34.56 
" style="fill:none;stroke:#000000;stroke-linecap:square;stroke-linejoin:miter;stroke-width:0.8;"/>
   </g>
   <g id="patch_5">
    <path d="M 54 252 
L 388.8 252 
" style="fill:none;stroke:#000000;stroke-linecap:square;stroke-linejoin:miter;stroke-width:0.8;"/>
   </g>
   <g id="patch_6">
    <path d="M 54 34.56 
L 388.8 34.56 
" style="fill:none;stroke:#000000;stroke-linecap:square;stroke-linejoin:miter;stroke-width:0.8;"/>
   </g>
  </g>
 </g>
 <defs>
  <clipPath id="p59d0db1324">
   <rect height="217.44" width="334.8" x="54" y="34.56"/>
  </clipPath>
 </defs>
</svg>
