<?xml version="1.0" encoding="utf-8" standalone="no"?>
<!DOCTYPE svg PUBLIC "-//W3C//DTD SVG 1.1//EN"
  "http://www.w3.org/Graphics/SVG/1.1/DTD/svg11.dtd">
<!-- Created with matplotlib (http://matplotlib.org/) -->
<svg height="288pt" version="1.1" viewBox="0 0 432 288" width="432pt" xmlns="http://www.w3.org/2000/svg" xmlns:xlink="http://www.w3.org/1999/xlink">
 <defs>
  <style type="text/css">
*{stroke-linecap:butt;stroke-linejoin:round;}
  </style>
 </defs>
 <g id="figure_1">
  <g id="patch_1">
   <path d="M 0 288 
L 432 288 
L 432 0 
L 0 0 
z
" style="fill:#ffffff;"/>
  </g>
  <g id="axes_1">
   <g id="patch_2">
    <path d="M 54 252 
L 388.8 252 
L 388.8 34.56 
L 54 34.56 
z
" style="fill:#ffffff;"/>
   </g>
   <g id="matplotlib.axis_1"/>
   <g id="matplotlib.axis_2"/>
   <g id="LineCollection_1">
    <path clip-path="url(#pfbac58303c)" d="M 91.457547 189.029791 
L 91.458513 189.038166 
L 91.4858 189.262615 
L 91.547461 189.495438 
L 91.642408 189.728261 
L 91.691174 189.816874 
L 91.775133 189.961085 
L 91.923836 190.164003 
L 91.947103 190.193908 
L 92.156498 190.417282 
L 92.165939 190.426732 
L 92.389159 190.617769 
L 92.441434 190.659555 
L 92.621821 190.785568 
L 92.786352 190.892378 
L 92.854482 190.931676 
L 93.087144 191.055727 
L 93.229068 191.125202 
L 93.319805 191.165188 
L 93.552467 191.258625 
L 93.785129 191.34295 
L 93.831717 191.358025 
L 94.01779 191.412811 
L 94.250452 191.473081 
L 94.483113 191.525134 
L 94.715775 191.568989 
L 94.858322 191.590848 
L 94.948436 191.603536 
L 95.181098 191.628798 
L 95.41376 191.646568 
L 95.646421 191.656854 
L 95.879083 191.659659 
L 96.111744 191.654984 
L 96.344406 191.642828 
L 96.577067 191.623185 
L 96.809729 191.596049 
L 96.844666 191.590848 
L 97.042391 191.558793 
L 97.275052 191.51289 
L 97.507714 191.458785 
L 97.740375 191.396457 
L 97.867107 191.358025 
L 97.973037 191.322722 
L 98.205698 191.236122 
L 98.43836 191.140401 
L 98.472104 191.125202 
L 98.671022 191.025672 
L 98.903683 190.899064 
L 98.91506 190.892378 
L 99.136345 190.746013 
L 99.257972 190.659555 
L 99.369006 190.569237 
L 99.532824 190.426732 
L 99.601668 190.356695 
L 99.751942 190.193908 
L 99.834329 190.086372 
L 99.924821 189.961085 
L 100.058422 189.728261 
L 100.066991 189.70811 
L 100.152562 189.495438 
L 100.213403 189.262615 
L 100.241331 189.029791 
L 100.236247 188.796968 
L 100.198022 188.564145 
L 100.126494 188.331321 
L 100.066991 188.199373 
L 100.018911 188.098498 
L 99.872366 187.865675 
L 99.834329 187.81709 
L 99.681318 187.632851 
L 99.601668 187.552738 
L 99.439984 187.400028 
L 99.369006 187.342499 
L 99.137691 187.167204 
L 99.136345 187.166312 
L 98.903683 187.022617 
L 98.749291 186.934381 
L 98.671022 186.894614 
L 98.43836 186.785867 
L 98.240751 186.701558 
L 98.205698 186.688099 
L 97.973037 186.60722 
L 97.740375 186.534829 
L 97.507714 186.470897 
L 97.498651 186.468734 
L 97.275052 186.42022 
L 97.042391 186.377392 
L 96.809729 186.342201 
L 96.577067 186.314633 
L 96.344406 186.294678 
L 96.111744 186.282329 
L 95.879083 186.27758 
L 95.646421 186.280429 
L 95.41376 186.290878 
L 95.181098 186.308931 
L 94.948436 186.334595 
L 94.715775 186.367879 
L 94.483113 186.408797 
L 94.250452 186.457363 
L 94.203382 186.468734 
L 94.01779 186.518054 
L 93.785129 186.588328 
L 93.552467 186.667082 
L 93.460504 186.701558 
L 93.319805 186.760165 
L 93.087144 186.866535 
L 92.95089 186.934381 
L 92.854482 186.988379 
L 92.621821 187.129375 
L 92.563796 187.167204 
L 92.389159 187.297259 
L 92.260279 187.400028 
L 92.156498 187.496461 
L 92.018798 187.632851 
L 91.923836 187.745449 
L 91.828336 187.865675 
L 91.691174 188.08051 
L 91.680319 188.098498 
L 91.573881 188.331321 
L 91.501388 188.564145 
L 91.462647 188.796968 
L 91.458513 188.983793 
L 91.457547 189.029791 
" style="fill:none;stroke:#440154;stroke-width:1.5;"/>
    <path clip-path="url(#pfbac58303c)" d="M 91.457547 97.530209 
L 91.458513 97.576207 
L 91.462647 97.763032 
L 91.501388 97.995855 
L 91.573881 98.228679 
L 91.680319 98.461502 
L 91.691174 98.47949 
L 91.828336 98.694325 
L 91.923836 98.814551 
L 92.018798 98.927149 
L 92.156498 99.063539 
L 92.260279 99.159972 
L 92.389159 99.262741 
L 92.563796 99.392796 
L 92.621821 99.430625 
L 92.854482 99.571621 
L 92.95089 99.625619 
L 93.087144 99.693465 
L 93.319805 99.799835 
L 93.460504 99.858442 
L 93.552467 99.892918 
L 93.785129 99.971672 
L 94.01779 100.041946 
L 94.203382 100.091266 
L 94.250452 100.102637 
L 94.483113 100.151203 
L 94.715775 100.192121 
L 94.948436 100.225405 
L 95.181098 100.251069 
L 95.41376 100.269122 
L 95.646421 100.279571 
L 95.879083 100.28242 
L 96.111744 100.277671 
L 96.344406 100.265322 
L 96.577067 100.245367 
L 96.809729 100.217799 
L 97.042391 100.182608 
L 97.275052 100.13978 
L 97.498651 100.091266 
L 97.507714 100.089103 
L 97.740375 100.025171 
L 97.973037 99.95278 
L 98.205698 99.871901 
L 98.240751 99.858442 
L 98.43836 99.774133 
L 98.671022 99.665386 
L 98.749291 99.625619 
L 98.903683 99.537383 
L 99.136345 99.393688 
L 99.137691 99.392796 
L 99.369006 99.217501 
L 99.439984 99.159972 
L 99.601668 99.007262 
L 99.681318 98.927149 
L 99.834329 98.74291 
L 99.872366 98.694325 
L 100.018911 98.461502 
L 100.066991 98.360627 
L 100.126494 98.228679 
L 100.198022 97.995855 
L 100.236247 97.763032 
L 100.241331 97.530209 
L 100.213403 97.297385 
L 100.152562 97.064562 
L 100.066991 96.85189 
L 100.058422 96.831739 
L 99.924821 96.598915 
L 99.834329 96.473628 
L 99.751942 96.366092 
L 99.601668 96.203305 
L 99.532824 96.133268 
L 99.369006 95.990763 
L 99.257972 95.900445 
L 99.136345 95.813987 
L 98.91506 95.667622 
L 98.903683 95.660936 
L 98.671022 95.534328 
L 98.472104 95.434798 
L 98.43836 95.419599 
L 98.205698 95.323878 
L 97.973037 95.237278 
L 97.867107 95.201975 
L 97.740375 95.163543 
L 97.507714 95.101215 
L 97.275052 95.04711 
L 97.042391 95.001207 
L 96.844666 94.969152 
L 96.809729 94.963951 
L 96.577067 94.936815 
L 96.344406 94.917172 
L 96.111744 94.905016 
L 95.879083 94.900341 
L 95.646421 94.903146 
L 95.41376 94.913432 
L 95.181098 94.931202 
L 94.948436 94.956464 
L 94.858322 94.969152 
L 94.715775 94.991011 
L 94.483113 95.034866 
L 94.250452 95.086919 
L 94.01779 95.147189 
L 93.831717 95.201975 
L 93.785129 95.21705 
L 93.552467 95.301375 
L 93.319805 95.394812 
L 93.229068 95.434798 
L 93.087144 95.504273 
L 92.854482 95.628324 
L 92.786352 95.667622 
L 92.621821 95.774432 
L 92.441434 95.900445 
L 92.389159 95.942231 
L 92.165939 96.133268 
L 92.156498 96.142718 
L 91.947103 96.366092 
L 91.923836 96.395997 
L 91.775133 96.598915 
L 91.691174 96.743126 
L 91.642408 96.831739 
L 91.547461 97.064562 
L 91.4858 97.297385 
L 91.458513 97.521834 
L 91.457547 97.530209 
" style="fill:none;stroke:#440154;stroke-width:1.5;"/>
    <path clip-path="url(#pfbac58303c)" d="M 258.946652 189.495438 
L 258.974844 189.56646 
L 259.042669 189.728261 
L 259.174417 189.961085 
L 259.207505 190.007556 
L 259.348129 190.193908 
L 259.440167 190.295129 
L 259.567464 190.426732 
L 259.672828 190.519873 
L 259.84163 190.659555 
L 259.90549 190.705734 
L 260.138151 190.862508 
L 260.185967 190.892378 
L 260.370813 190.994979 
L 260.603475 191.113926 
L 260.627576 191.125202 
L 260.836136 191.213048 
L 261.068798 191.301925 
L 261.232367 191.358025 
L 261.301459 191.379587 
L 261.534121 191.443975 
L 261.766782 191.500134 
L 261.999444 191.548085 
L 262.232106 191.587848 
L 262.254202 191.590848 
L 262.464767 191.617104 
L 262.697429 191.638619 
L 262.93009 191.652646 
L 263.162752 191.659191 
L 263.395413 191.658256 
L 263.628075 191.649841 
L 263.860737 191.633942 
L 264.093398 191.610554 
L 264.241851 191.590848 
L 264.32606 191.578674 
L 264.558721 191.536866 
L 264.791383 191.486864 
L 265.024044 191.42865 
L 265.256706 191.362201 
L 265.26972 191.358025 
L 265.489368 191.28056 
L 265.722029 191.189404 
L 265.87101 191.125202 
L 265.954691 191.085144 
L 266.187352 190.963647 
L 266.313285 190.892378 
L 266.420014 190.824399 
L 266.652675 190.664729 
L 266.65971 190.659555 
L 266.885337 190.469675 
L 266.933153 190.426732 
L 267.117999 190.232584 
L 267.152645 190.193908 
L 267.325757 189.961085 
L 267.35066 189.918935 
L 267.457065 189.728261 
L 267.553311 189.495438 
L 267.583322 189.383672 
L 267.614131 189.262615 
L 267.641335 189.029791 
L 267.636383 188.796968 
L 267.599148 188.564145 
L 267.583322 188.511241 
L 267.52653 188.331321 
L 267.418635 188.098498 
L 267.35066 187.987414 
L 267.271783 187.865675 
L 267.117999 187.674899 
L 267.081979 187.632851 
L 266.885337 187.441092 
L 266.840404 187.400028 
L 266.652675 187.252794 
L 266.53569 187.167204 
L 266.420014 187.093115 
L 266.187352 186.954812 
L 266.150117 186.934381 
L 265.954691 186.839051 
L 265.722029 186.735056 
L 265.639612 186.701558 
L 265.489368 186.646597 
L 265.256706 186.569965 
L 265.024044 186.501807 
L 264.89521 186.468734 
L 264.791383 186.444503 
L 264.558721 186.397851 
L 264.32606 186.358843 
L 264.093398 186.327465 
L 263.860737 186.303705 
L 263.628075 186.287553 
L 263.395413 186.279004 
L 263.162752 186.278054 
L 262.93009 186.284703 
L 262.697429 186.298954 
L 262.464767 186.320811 
L 262.232106 186.350284 
L 261.999444 186.387383 
L 261.766782 186.432123 
L 261.604188 186.468734 
L 261.534121 186.486088 
L 261.301459 186.552133 
L 261.068798 186.626643 
L 260.858797 186.701558 
L 260.836136 186.71054 
L 260.603475 186.812162 
L 260.370813 186.92329 
L 260.34941 186.934381 
L 260.138151 187.057529 
L 259.963801 187.167204 
L 259.90549 187.209103 
L 259.672828 187.388515 
L 259.658851 187.400028 
L 259.440167 187.609924 
L 259.417715 187.632851 
L 259.227239 187.865675 
L 259.207505 187.89568 
L 259.081632 188.098498 
L 258.974844 188.32578 
L 258.972378 188.331321 
L 258.901789 188.564145 
L 258.864066 188.796968 
L 258.859049 189.029791 
L 258.88661 189.262615 
L 258.946652 189.495438 
" style="fill:none;stroke:#440154;stroke-width:1.5;"/>
    <path clip-path="url(#pfbac58303c)" d="M 258.972378 98.228679 
L 258.974844 98.23422 
L 259.081632 98.461502 
L 259.207505 98.66432 
L 259.227239 98.694325 
L 259.417715 98.927149 
L 259.440167 98.950076 
L 259.658851 99.159972 
L 259.672828 99.171485 
L 259.90549 99.350897 
L 259.963801 99.392796 
L 260.138151 99.502471 
L 260.34941 99.625619 
L 260.370813 99.63671 
L 260.603475 99.747838 
L 260.836136 99.84946 
L 260.858797 99.858442 
L 261.068798 99.933357 
L 261.301459 100.007867 
L 261.534121 100.073912 
L 261.604188 100.091266 
L 261.766782 100.127877 
L 261.999444 100.172617 
L 262.232106 100.209716 
L 262.464767 100.239189 
L 262.697429 100.261046 
L 262.93009 100.275297 
L 263.162752 100.281946 
L 263.395413 100.280996 
L 263.628075 100.272447 
L 263.860737 100.256295 
L 264.093398 100.232535 
L 264.32606 100.201157 
L 264.558721 100.162149 
L 264.791383 100.115497 
L 264.89521 100.091266 
L 265.024044 100.058193 
L 265.256706 99.990035 
L 265.489368 99.913403 
L 265.639612 99.858442 
L 265.722029 99.824944 
L 265.954691 99.720949 
L 266.150117 99.625619 
L 266.187352 99.605188 
L 266.420014 99.466885 
L 266.53569 99.392796 
L 266.652675 99.307206 
L 266.840404 99.159972 
L 266.885337 99.118908 
L 267.081979 98.927149 
L 267.117999 98.885101 
L 267.271783 98.694325 
L 267.35066 98.572586 
L 267.418635 98.461502 
L 267.52653 98.228679 
L 267.583322 98.048759 
L 267.599148 97.995855 
L 267.636383 97.763032 
L 267.641335 97.530209 
L 267.614131 97.297385 
L 267.583322 97.176328 
L 267.553311 97.064562 
L 267.457065 96.831739 
L 267.35066 96.641065 
L 267.325757 96.598915 
L 267.152645 96.366092 
L 267.117999 96.327416 
L 266.933153 96.133268 
L 266.885337 96.090325 
L 266.65971 95.900445 
L 266.652675 95.895271 
L 266.420014 95.735601 
L 266.313285 95.667622 
L 266.187352 95.596353 
L 265.954691 95.474856 
L 265.87101 95.434798 
L 265.722029 95.370596 
L 265.489368 95.27944 
L 265.26972 95.201975 
L 265.256706 95.197799 
L 265.024044 95.13135 
L 264.791383 95.073136 
L 264.558721 95.023134 
L 264.32606 94.981326 
L 264.241851 94.969152 
L 264.093398 94.949446 
L 263.860737 94.926058 
L 263.628075 94.910159 
L 263.395413 94.901744 
L 263.162752 94.900809 
L 262.93009 94.907354 
L 262.697429 94.921381 
L 262.464767 94.942896 
L 262.254202 94.969152 
L 262.232106 94.972152 
L 261.999444 95.011915 
L 261.766782 95.059866 
L 261.534121 95.116025 
L 261.301459 95.180413 
L 261.232367 95.201975 
L 261.068798 95.258075 
L 260.836136 95.346952 
L 260.627576 95.434798 
L 260.603475 95.446074 
L 260.370813 95.565021 
L 260.185967 95.667622 
L 260.138151 95.697492 
L 259.90549 95.854266 
L 259.84163 95.900445 
L 259.672828 96.040127 
L 259.567464 96.133268 
L 259.440167 96.264871 
L 259.348129 96.366092 
L 259.207505 96.552444 
L 259.174417 96.598915 
L 259.042669 96.831739 
L 258.974844 96.99354 
L 258.946652 97.064562 
L 258.88661 97.297385 
L 258.859049 97.530209 
L 258.864066 97.763032 
L 258.901789 97.995855 
L 258.972378 98.228679 
" style="fill:none;stroke:#440154;stroke-width:1.5;"/>
   </g>
   <g id="LineCollection_2">
    <path clip-path="url(#pfbac58303c)" d="M 73.284737 190.892378 
L 73.682237 192.522142 
L 74.33805 194.151905 
L 75.172203 195.601185 
L 76.201801 196.945786 
L 77.498819 198.250151 
L 78.894788 199.352401 
L 80.641094 200.438136 
L 82.617373 201.390767 
L 84.943989 202.239817 
L 87.503266 202.916901 
L 90.295205 203.412686 
L 93.319805 203.710062 
L 96.344406 203.783083 
L 99.369006 203.638256 
L 102.393607 203.26318 
L 105.185546 202.683135 
L 107.744823 201.909714 
L 109.838777 201.055036 
L 111.700069 200.070463 
L 113.3287 198.968177 
L 114.72467 197.763266 
L 115.887978 196.478249 
L 116.85606 195.083199 
L 117.577746 193.686259 
L 118.156445 192.056495 
L 118.484717 190.426732 
L 118.578659 188.796968 
L 118.438836 187.167204 
L 118.048252 185.537441 
L 117.487117 184.140501 
L 116.674801 182.743561 
L 115.655316 181.464894 
L 114.492008 180.35424 
L 112.989056 179.25121 
L 111.234746 178.269119 
L 109.140792 177.383776 
L 106.814177 176.65696 
L 104.022238 176.042596 
L 100.997637 175.618878 
L 97.740375 175.391005 
L 94.250452 175.381112 
L 90.99319 175.589382 
L 87.967963 175.991683 
L 85.17665 176.581379 
L 82.850035 177.280358 
L 80.756081 178.129926 
L 78.894788 179.135489 
L 77.415963 180.182503 
L 76.102849 181.401846 
L 75.172203 182.534179 
L 74.329546 183.907677 
L 73.729764 185.304618 
L 73.301004 186.934381 
L 73.126748 188.564145 
L 73.187786 190.193908 
L 73.284737 190.892378 
L 73.284737 190.892378 
" style="fill:none;stroke:#443983;stroke-width:1.5;"/>
    <path clip-path="url(#pfbac58303c)" d="M 73.301004 99.625619 
L 73.65179 101.022559 
L 74.241557 102.477285 
L 75.025196 103.816439 
L 76.102849 105.158154 
L 77.266157 106.254244 
L 78.710832 107.30879 
L 80.523419 108.319066 
L 82.617373 109.197173 
L 84.943989 109.918367 
L 87.735928 110.52778 
L 90.760528 110.947167 
L 94.01779 111.171106 
L 97.507714 111.177042 
L 100.764976 110.964864 
L 103.789576 110.558393 
L 106.581515 109.963714 
L 108.908131 109.259223 
L 111.002085 108.40258 
L 112.863377 107.38821 
L 114.284201 106.377497 
L 115.545618 105.21338 
L 116.585962 103.943523 
L 117.370456 102.652323 
L 117.981932 101.221072 
L 118.398884 99.625619 
L 118.573178 97.995855 
L 118.512257 96.366092 
L 118.214593 94.72238 
L 117.676836 93.106565 
L 116.992257 91.709624 
L 116.06737 90.312684 
L 114.845425 88.915744 
L 113.534615 87.751627 
L 111.862026 86.58751 
L 110.071438 85.614932 
L 107.952383 84.724924 
L 105.650869 83.998477 
L 103.091591 83.419269 
L 100.299653 83.011573 
L 97.275052 82.798047 
L 94.250452 82.804298 
L 91.225851 83.030854 
L 88.433912 83.452117 
L 85.874635 84.046129 
L 83.548019 84.798939 
L 81.454065 85.69974 
L 79.592773 86.740696 
L 77.964142 87.91375 
L 76.626892 89.148567 
L 75.632463 90.312684 
L 74.70688 91.710826 
L 74.008895 93.141448 
L 73.481902 94.736328 
L 73.187786 96.366092 
L 73.126748 97.995855 
L 73.301004 99.625619 
L 73.301004 99.625619 
" style="fill:none;stroke:#443983;stroke-width:1.5;"/>
    <path clip-path="url(#pfbac58303c)" d="M 164.739752 144.560529 
L 165.142346 145.491822 
L 165.792894 146.423115 
L 166.744598 147.354409 
L 168.00417 148.230828 
L 169.490697 148.984172 
L 171.417572 149.682643 
L 173.588047 150.217154 
L 176.147325 150.599366 
L 178.706602 150.762634 
L 181.498541 150.716605 
L 184.057818 150.462956 
L 186.384434 150.028508 
L 188.478388 149.424235 
L 190.33968 148.64268 
L 191.739002 147.820056 
L 192.898958 146.863486 
L 193.666019 145.957469 
L 194.187551 145.026175 
L 194.477613 144.094882 
L 194.555351 143.163588 
L 194.425394 142.232295 
L 194.062265 141.266291 
L 193.495348 140.369708 
L 192.626058 139.438414 
L 191.387226 138.507121 
L 189.874357 137.694557 
L 188.245726 137.056601 
L 186.151772 136.477803 
L 183.825156 136.065032 
L 181.265879 135.83066 
L 178.47394 135.804018 
L 175.682001 136.013257 
L 173.122724 136.438883 
L 171.02877 136.999499 
L 169.167477 137.721194 
L 167.712644 138.507121 
L 166.474134 139.438414 
L 165.604598 140.369708 
L 164.979569 141.387319 
L 164.674554 142.232295 
L 164.544663 143.163588 
L 164.622517 144.094882 
L 164.739752 144.560529 
L 164.739752 144.560529 
" style="fill:none;stroke:#443983;stroke-width:1.5;"/>
    <path clip-path="url(#pfbac58303c)" d="M 240.587589 190.193908 
L 240.881889 191.823672 
L 241.423194 193.453435 
L 242.107803 194.850376 
L 243.032708 196.247316 
L 244.084503 197.471133 
L 245.480473 198.740453 
L 246.876442 199.745129 
L 248.737735 200.802505 
L 250.831689 201.717104 
L 253.158304 202.481363 
L 255.717582 203.085492 
L 258.509521 203.515858 
L 261.534121 203.751131 
L 264.558721 203.765718 
L 267.583322 203.56085 
L 270.375261 203.16214 
L 273.153987 202.533547 
L 275.493815 201.782825 
L 277.587769 200.888868 
L 279.449062 199.85605 
L 281.077693 198.693498 
L 282.473662 197.411077 
L 283.64044 196.014492 
L 284.567616 194.531846 
L 285.265601 192.967504 
L 285.730924 191.336631 
L 285.953412 189.728261 
L 285.948028 188.098498 
L 285.703719 186.468734 
L 285.265601 185.017947 
L 284.646764 183.674854 
L 283.737915 182.277914 
L 282.706324 181.100253 
L 281.310354 179.891456 
L 279.681723 178.822817 
L 278.053092 177.996678 
L 275.886368 177.1558 
L 273.399861 176.451934 
L 270.607922 175.906267 
L 267.408819 175.526036 
L 264.32606 175.367478 
L 260.836136 175.413012 
L 257.578874 175.676586 
L 254.554274 176.139893 
L 251.994997 176.735897 
L 249.668381 177.492286 
L 247.574427 178.414478 
L 245.945796 179.359006 
L 244.535293 180.415327 
L 243.340123 181.579444 
L 242.425075 182.743561 
L 241.613003 184.140501 
L 241.051592 185.537441 
L 240.661316 187.167204 
L 240.521314 188.796968 
L 240.587589 190.193908 
L 240.587589 190.193908 
" style="fill:none;stroke:#443983;stroke-width:1.5;"/>
    <path clip-path="url(#pfbac58303c)" d="M 240.571903 98.694325 
L 240.85184 100.324089 
L 241.303821 101.721029 
L 241.990549 103.12881 
L 242.944448 104.51491 
L 244.084503 105.740967 
L 245.480473 106.881954 
L 247.109104 107.899665 
L 248.970396 108.790068 
L 251.06435 109.549652 
L 253.623628 110.227662 
L 256.415566 110.732443 
L 259.440167 111.061586 
L 262.697429 111.20081 
L 266.187352 111.119548 
L 269.444614 110.81967 
L 272.469215 110.315321 
L 275.152633 109.637024 
L 277.355108 108.862042 
L 279.2164 107.994335 
L 280.845031 107.004526 
L 282.241001 105.902039 
L 283.404309 104.698334 
L 284.376899 103.350793 
L 285.099586 101.953853 
L 285.587025 100.556912 
L 285.903202 98.927149 
L 285.97556 97.297385 
L 285.815146 95.667622 
L 285.417776 94.037858 
L 284.762052 92.408095 
L 283.869632 90.872674 
L 282.898311 89.614214 
L 281.543016 88.258368 
L 280.147047 87.166847 
L 278.459001 86.121864 
L 276.424461 85.144848 
L 274.097846 84.302013 
L 271.538568 83.630343 
L 268.74663 83.139341 
L 265.722029 82.846476 
L 262.697429 82.777637 
L 259.672828 82.926723 
L 256.648228 83.306449 
L 253.856289 83.891671 
L 251.529673 84.588955 
L 249.435719 85.424287 
L 247.574427 86.386051 
L 245.867273 87.518804 
L 244.492815 88.682921 
L 243.213715 90.079861 
L 242.223211 91.511761 
L 241.522082 92.873741 
L 240.943611 94.503505 
L 240.615235 96.133268 
L 240.521314 97.763032 
L 240.571903 98.694325 
L 240.571903 98.694325 
" style="fill:none;stroke:#443983;stroke-width:1.5;"/>
    <path clip-path="url(#pfbac58303c)" d="M 332.02217 144.094882 
L 332.312313 145.026175 
L 332.834049 145.957469 
L 333.659208 146.920415 
L 334.822516 147.861524 
L 336.218485 148.671817 
L 337.847116 149.361738 
L 339.708409 149.929551 
L 342.035024 150.402644 
L 344.594302 150.690388 
L 347.38624 150.77039 
L 350.210769 150.613936 
L 352.737457 150.250854 
L 355.0829 149.682643 
L 357.009322 148.984172 
L 358.553996 148.195849 
L 359.755606 147.354409 
L 360.707214 146.423115 
L 361.357927 145.491822 
L 361.760015 144.560529 
L 361.942226 143.629235 
L 361.916379 142.697942 
L 361.680722 141.766648 
L 361.219786 140.835355 
L 360.500283 139.904061 
L 359.460662 138.972768 
L 358.088673 138.098827 
L 356.692703 137.443664 
L 354.831411 136.804177 
L 352.504795 136.265892 
L 349.945518 135.920989 
L 347.153579 135.787395 
L 344.36164 135.88685 
L 341.802363 136.194764 
L 339.475747 136.691389 
L 337.381793 137.373189 
L 335.753162 138.130731 
L 334.357192 139.03668 
L 333.399482 139.904061 
L 332.680071 140.835355 
L 332.219125 141.766648 
L 331.983482 142.697942 
L 331.957724 143.629235 
L 332.02217 144.094882 
L 332.02217 144.094882 
" style="fill:none;stroke:#443983;stroke-width:1.5;"/>
   </g>
   <g id="LineCollection_3">
    <path clip-path="url(#pfbac58303c)" d="M 63.069898 191.823672 
L 63.403819 194.151905 
L 63.958748 196.480139 
L 64.702432 198.610568 
L 65.633079 200.554455 
L 66.574161 202.0679 
L 67.727033 203.537734 
L 69.123002 204.945254 
L 70.751633 206.240877 
L 72.380264 207.276936 
L 74.50837 208.354131 
L 76.870419 209.285424 
L 79.592773 210.109459 
L 82.617373 210.792621 
L 86.107297 211.35006 
L 90.062543 211.746078 
L 94.250452 211.936262 
L 98.43836 211.911113 
L 102.626268 211.667967 
L 106.581515 211.21393 
L 110.071438 210.592221 
L 113.096039 209.836326 
L 115.655316 208.986337 
L 117.981932 207.984818 
L 119.859549 206.957191 
L 121.555637 205.793074 
L 123.100486 204.455872 
L 124.263794 203.198162 
L 125.439012 201.602253 
L 126.375058 199.97249 
L 127.195614 198.109903 
L 127.87188 196.014492 
L 128.379526 193.686259 
L 128.691485 191.125202 
L 128.770945 188.564145 
L 128.617786 186.003088 
L 128.251953 183.674854 
L 127.69495 181.579444 
L 126.961839 179.716857 
L 126.069555 178.087093 
L 125.045386 176.690153 
L 123.936615 175.526036 
L 122.49883 174.361919 
L 121.006532 173.428461 
L 119.077132 172.499332 
L 116.818624 171.680906 
L 114.259347 170.990476 
L 111.002085 170.35853 
L 107.2795 169.868441 
L 102.85893 169.51182 
L 97.740375 169.328454 
L 92.389159 169.361509 
L 87.270605 169.614966 
L 82.850035 170.050405 
L 79.116273 170.636745 
L 76.06606 171.335216 
L 73.543572 172.136741 
L 71.449618 173.03325 
L 69.820987 173.946362 
L 68.292174 175.060389 
L 67.029048 176.264179 
L 65.940938 177.621446 
L 65.087088 179.018387 
L 64.339085 180.64815 
L 63.727094 182.510737 
L 63.273134 184.606147 
L 62.998417 186.934381 
L 62.931656 189.495438 
L 63.069898 191.823672 
L 63.069898 191.823672 
" style="fill:none;stroke:#31688e;stroke-width:1.5;"/>
    <path clip-path="url(#pfbac58303c)" d="M 63.058075 100.324089 
L 63.400546 102.652323 
L 63.930621 104.747733 
L 64.631692 106.61032 
L 65.48542 108.240083 
L 66.463485 109.637024 
L 67.518849 110.80114 
L 68.890341 111.972251 
L 70.518972 113.033375 
L 72.380264 113.957191 
L 74.506424 114.759138 
L 77.033495 115.47315 
L 80.058096 116.09469 
L 83.782377 116.621725 
L 88.201251 117.009028 
L 93.087144 117.215619 
L 98.43836 117.219289 
L 103.556915 117.005276 
L 108.210146 116.587799 
L 111.932731 116.043573 
L 115.189993 115.342079 
L 117.74927 114.570332 
L 119.843224 113.722065 
L 121.704517 112.723047 
L 123.121565 111.732434 
L 124.496456 110.481951 
L 125.592891 109.171377 
L 126.485964 107.774437 
L 127.288395 106.093514 
L 127.908239 104.282086 
L 128.386864 102.186676 
L 128.684364 99.851324 
L 128.771823 97.297385 
L 128.630043 94.736328 
L 128.251291 92.175271 
L 127.671898 89.847038 
L 126.914997 87.751627 
L 126.002014 85.88904 
L 124.960594 84.259277 
L 123.798471 82.827068 
L 122.402502 81.460367 
L 120.773871 80.197296 
L 118.912578 79.055569 
L 116.818624 78.042454 
L 114.492008 77.159317 
L 111.689473 76.343282 
L 108.675469 75.69079 
L 105.185546 75.158482 
L 101.230299 74.785621 
L 97.042391 74.616856 
L 92.854482 74.662746 
L 88.666574 74.928161 
L 84.711327 75.407046 
L 81.221404 76.056491 
L 78.196803 76.844416 
L 75.614709 77.740223 
L 73.31091 78.778921 
L 71.449618 79.848258 
L 69.820987 81.021462 
L 68.306899 82.39669 
L 67.029048 83.870818 
L 65.969538 85.423394 
L 65.097446 87.053157 
L 64.333626 88.915744 
L 63.707686 91.011154 
L 63.245632 93.339388 
L 62.977197 95.900445 
L 62.939151 98.461502 
L 63.058075 100.324089 
L 63.058075 100.324089 
" style="fill:none;stroke:#31688e;stroke-width:1.5;"/>
    <path clip-path="url(#pfbac58303c)" d="M 149.386703 144.560529 
L 149.632579 146.190292 
L 150.093451 147.820056 
L 150.787213 149.396203 
L 151.535109 150.613936 
L 152.478179 151.778053 
L 153.721864 152.94217 
L 155.207783 153.992887 
L 156.836414 154.873459 
L 158.941031 155.73605 
L 161.489646 156.504284 
L 164.514246 157.156918 
L 168.00417 157.673397 
L 172.239216 158.064284 
L 177.077971 158.275871 
L 182.196525 158.271989 
L 187.082418 158.049026 
L 191.502988 157.623599 
L 194.992912 157.081774 
L 198.017512 156.397343 
L 200.576789 155.583917 
L 202.438082 154.789807 
L 204.083642 153.873463 
L 205.462682 152.872403 
L 206.62599 151.773627 
L 207.564969 150.613936 
L 208.406169 149.216996 
L 209.006468 147.820056 
L 209.467357 146.190292 
L 209.713212 144.560529 
L 209.75899 142.697942 
L 209.558153 140.835355 
L 209.162285 139.205591 
L 208.521354 137.575828 
L 207.724782 136.178887 
L 206.831535 135.014771 
L 205.656106 133.850654 
L 204.299375 132.827045 
L 202.670744 131.885937 
L 200.790566 131.056773 
L 198.482835 130.291775 
L 195.690896 129.615348 
L 192.433634 129.060249 
L 188.478388 128.619548 
L 183.825156 128.337366 
L 178.706602 128.260764 
L 173.820709 128.402042 
L 169.167477 128.756734 
L 165.212231 129.282539 
L 161.954969 129.939564 
L 159.395691 130.668358 
L 157.190837 131.52242 
L 155.394117 132.453713 
L 153.811814 133.545666 
L 152.648506 134.602149 
L 151.703806 135.713241 
L 150.787213 137.163797 
L 150.179272 138.507121 
L 149.684552 140.136885 
L 149.391244 141.953386 
L 149.333378 143.629235 
L 149.386703 144.560529 
L 149.386703 144.560529 
" style="fill:none;stroke:#31688e;stroke-width:1.5;"/>
    <path clip-path="url(#pfbac58303c)" d="M 230.353269 190.193908 
L 230.579011 192.754965 
L 230.99708 195.083199 
L 231.575053 197.178609 
L 232.389562 199.274019 
L 233.369442 201.136606 
L 234.312717 202.536115 
L 235.483923 203.930487 
L 236.964174 205.327427 
L 238.51516 206.491544 
L 240.469794 207.655661 
L 242.455872 208.591645 
L 244.965934 209.518248 
L 247.574427 210.257714 
L 250.831689 210.94256 
L 254.321612 211.450501 
L 258.276859 211.800479 
L 262.464767 211.948013 
L 266.652675 211.881328 
L 270.840584 211.593466 
L 274.563169 211.126038 
L 278.053092 210.464286 
L 281.077693 209.662345 
L 283.63697 208.759283 
L 285.963586 207.690756 
L 287.824878 206.598046 
L 289.535834 205.327427 
L 291.015976 203.930487 
L 292.245448 202.457871 
L 293.268648 200.903783 
L 294.214527 199.041196 
L 294.999859 196.945786 
L 295.554671 194.850376 
L 295.968033 192.384035 
L 296.155788 189.961085 
L 296.131219 187.400028 
L 295.899604 185.071794 
L 295.493136 182.976384 
L 294.935437 181.113797 
L 294.250604 179.484033 
L 293.317807 177.85427 
L 292.245018 176.45733 
L 291.079324 175.293213 
L 289.559728 174.129096 
L 287.975777 173.197803 
L 285.963586 172.291566 
L 283.850544 171.568039 
L 281.077693 170.859971 
L 277.820431 170.267883 
L 273.865184 169.786557 
L 269.211953 169.455981 
L 264.093398 169.317271 
L 258.742182 169.39465 
L 253.856289 169.67812 
L 249.668381 170.126468 
L 246.178457 170.702917 
L 243.153857 171.42172 
L 240.600576 172.266509 
L 238.733287 173.091265 
L 236.940245 174.129096 
L 235.476025 175.244945 
L 234.25508 176.45733 
L 233.149409 177.903875 
L 232.249343 179.484033 
L 231.520778 181.238028 
L 230.951217 183.209207 
L 230.567454 185.304618 
L 230.356872 187.632851 
L 230.353269 190.193908 
L 230.353269 190.193908 
" style="fill:none;stroke:#31688e;stroke-width:1.5;"/>
    <path clip-path="url(#pfbac58303c)" d="M 230.356872 98.927149 
L 230.590132 101.416288 
L 231.006912 103.583616 
L 231.564525 105.446203 
L 232.365629 107.30879 
L 233.182137 108.70573 
L 234.312717 110.167342 
L 235.476025 111.315055 
L 236.940245 112.430904 
L 238.524118 113.362197 
L 240.361918 114.199289 
L 242.688534 115.003614 
L 245.480473 115.712565 
L 248.737735 116.300875 
L 252.692981 116.778993 
L 257.346213 117.106823 
L 262.464767 117.243099 
L 267.815983 117.163242 
L 272.701876 116.877104 
L 276.889785 116.425656 
L 280.379708 115.845446 
L 283.404309 115.121824 
L 285.899268 114.293491 
L 287.824878 113.439404 
L 289.559728 112.430904 
L 290.849479 111.464609 
L 292.03454 110.335494 
L 293.176095 108.914038 
L 294.134428 107.30879 
L 294.850163 105.679026 
L 295.434463 103.816439 
L 295.864383 101.721029 
L 296.117396 99.392796 
L 296.163025 96.831739 
L 295.979489 94.270682 
L 295.604077 91.942448 
L 294.999859 89.614214 
L 294.214527 87.518804 
L 293.268648 85.656217 
L 292.189117 84.026453 
L 291.015976 82.629513 
L 289.535834 81.232573 
L 287.984721 80.068456 
L 286.196247 78.992599 
L 284.055094 77.973046 
L 281.775678 77.120589 
L 278.983739 76.316748 
L 275.726477 75.627751 
L 272.236553 75.116335 
L 268.281306 74.763116 
L 264.093398 74.612559 
L 259.90549 74.67627 
L 255.717582 74.960923 
L 251.994997 75.424938 
L 248.505073 76.082558 
L 245.480473 76.879798 
L 242.921195 77.777384 
L 240.59458 78.838928 
L 238.733287 79.923775 
L 237.104656 81.116108 
L 235.706753 82.39669 
L 234.488649 83.79363 
L 233.369442 85.423394 
L 232.389562 87.285981 
L 231.652868 89.148567 
L 231.051114 91.243978 
L 230.611288 93.572211 
L 230.364257 96.133268 
L 230.347011 98.694325 
L 230.356872 98.927149 
L 230.356872 98.927149 
" style="fill:none;stroke:#31688e;stroke-width:1.5;"/>
    <path clip-path="url(#pfbac58303c)" d="M 316.902636 145.491822 
L 317.267408 147.121586 
L 317.869865 148.751349 
L 318.623728 150.148289 
L 319.469905 151.312406 
L 320.63016 152.52034 
L 322.062201 153.64064 
L 323.65476 154.585104 
L 325.516053 155.427533 
L 327.786455 156.201697 
L 330.401946 156.85938 
L 333.659208 157.441274 
L 337.614454 157.904657 
L 342.035024 158.196628 
L 346.920917 158.302274 
L 352.039472 158.188872 
L 356.692703 157.866913 
L 360.740249 157.365814 
L 363.905212 156.76981 
L 366.697151 156.023751 
L 368.791105 155.262407 
L 370.702433 154.33911 
L 372.281028 153.326762 
L 373.566063 152.2437 
L 374.618087 151.079583 
L 375.555819 149.682643 
L 376.236275 148.268999 
L 376.759106 146.655939 
L 377.063202 145.026175 
L 377.170501 143.163588 
L 377.032252 141.301001 
L 376.698288 139.671238 
L 376.132747 138.041474 
L 375.419791 136.644534 
L 374.607644 135.467281 
L 373.444336 134.200745 
L 372.170421 133.152184 
L 370.652397 132.1932 
L 368.772014 131.289597 
L 366.464489 130.463921 
L 363.905212 129.79019 
L 360.64795 129.179876 
L 356.925365 128.715548 
L 352.504795 128.393222 
L 347.618902 128.259635 
L 342.500347 128.344082 
L 337.847116 128.634653 
L 333.891869 129.084989 
L 330.401946 129.70062 
L 327.610007 130.41087 
L 325.283391 131.225813 
L 323.422099 132.098219 
L 321.793468 133.106558 
L 320.58163 134.083477 
L 319.466852 135.251314 
L 318.480171 136.644534 
L 317.767235 138.041474 
L 317.201802 139.671238 
L 316.867699 141.301001 
L 316.729577 143.163588 
L 316.83678 145.026175 
L 316.902636 145.491822 
L 316.902636 145.491822 
" style="fill:none;stroke:#31688e;stroke-width:1.5;"/>
   </g>
   <g id="LineCollection_4">
    <path clip-path="url(#pfbac58303c)" d="M 388.8 226.98 
L 305.274496 226.98 
L 305.1 226.747177 
L 305.041835 163.933085 
L 221.516331 163.933085 
L 221.4 164.117691 
L 221.4 226.747177 
L 221.283669 226.98 
L 137.758165 226.98 
L 137.7 226.514353 
L 137.758165 163.933085 
L 221.4 163.884868 
L 221.4 122.675132 
L 221.051008 122.626915 
L 137.758165 122.626915 
L 137.7 122.209485 
L 137.758165 59.58 
L 221.283669 59.58 
L 221.4 60.045647 
L 221.4 122.442309 
L 221.516331 122.626915 
L 305.041835 122.626915 
L 305.1 122.209485 
L 305.1 59.812823 
L 305.274496 59.58 
L 388.8 59.58 
L 388.8 59.58 
" style="fill:none;stroke:#21918c;stroke-width:1.5;"/>
    <path clip-path="url(#pfbac58303c)" d="M 388.8 122.626915 
L 305.1 122.675132 
L 305.1 163.884868 
L 305.507158 163.933085 
L 388.8 163.933085 
L 388.8 163.933085 
" style="fill:none;stroke:#21918c;stroke-width:1.5;"/>
    <path clip-path="url(#pfbac58303c)" d="M 54 163.884868 
L 54 122.675132 
L 54.697985 122.626915 
L 137.7 122.675132 
L 137.7 163.884868 
L 137.292842 163.933085 
L 54 163.884868 
L 54 163.884868 
" style="fill:none;stroke:#21918c;stroke-width:1.5;"/>
   </g>
   <g id="LineCollection_5">
    <path clip-path="url(#pfbac58303c)" d="M 65.629499 143.396412 
L 65.736798 141.533825 
L 66.040894 139.904061 
L 66.570326 138.274298 
L 67.26171 136.846986 
L 68.192356 135.467281 
L 69.355664 134.200745 
L 70.629579 133.152184 
L 72.147603 132.1932 
L 74.027986 131.289597 
L 76.335511 130.463921 
L 78.894788 129.79019 
L 82.15205 129.179876 
L 85.874635 128.715548 
L 90.295205 128.393222 
L 95.181098 128.259635 
L 100.299653 128.344082 
L 104.952884 128.634653 
L 108.908131 129.084989 
L 112.398054 129.70062 
L 115.189993 130.41087 
L 117.516609 131.225813 
L 119.377901 132.098219 
L 121.006532 133.106558 
L 122.21837 134.083477 
L 123.333148 135.251314 
L 124.319829 136.644534 
L 125.032765 138.041474 
L 125.598198 139.671238 
L 125.932301 141.301001 
L 126.070423 143.163588 
L 125.96322 145.026175 
L 125.659196 146.655939 
L 125.129584 148.285702 
L 124.455777 149.682643 
L 123.518015 151.079583 
L 122.402502 152.304359 
L 121.070458 153.407816 
L 119.602544 154.33911 
L 117.671875 155.270403 
L 115.422655 156.078169 
L 112.863377 156.756696 
L 109.606115 157.371164 
L 105.88353 157.838733 
L 101.46296 158.16387 
L 96.577067 158.300017 
L 91.458513 158.218188 
L 86.805281 157.930421 
L 82.617373 157.449789 
L 79.360111 156.871863 
L 76.568172 156.166591 
L 74.241557 155.357757 
L 72.380264 154.492994 
L 70.751633 153.494531 
L 69.481686 152.476523 
L 68.370007 151.312406 
L 67.380209 149.915466 
L 66.667253 148.518526 
L 66.098402 146.876196 
L 65.767748 145.258999 
L 65.629499 143.396412 
L 65.629499 143.396412 
" style="fill:none;stroke:#35b779;stroke-width:1.5;"/>
    <path clip-path="url(#pfbac58303c)" d="M 146.820511 192.289318 
L 146.636975 189.728261 
L 146.682604 187.167204 
L 146.935617 184.838971 
L 147.365537 182.743561 
L 147.995274 180.761704 
L 148.693259 179.19758 
L 149.640864 177.621446 
L 150.787213 176.201178 
L 151.992114 175.060389 
L 153.346491 174.059053 
L 154.975122 173.120596 
L 156.900732 172.266509 
L 159.16303 171.505069 
L 161.954969 170.810292 
L 165.212231 170.233178 
L 169.167477 169.76459 
L 173.820709 169.444941 
L 178.939263 169.315951 
L 184.290479 169.403251 
L 189.270213 169.705452 
L 193.456033 170.171099 
L 196.854204 170.749901 
L 199.878805 171.488183 
L 202.20542 172.268835 
L 204.299375 173.210023 
L 205.928006 174.174982 
L 207.379225 175.293213 
L 208.54492 176.45733 
L 209.650591 177.903875 
L 210.550657 179.484033 
L 211.279222 181.238028 
L 211.848783 183.209207 
L 212.232546 185.304618 
L 212.443128 187.632851 
L 212.446731 190.193908 
L 212.220989 192.754965 
L 211.80292 195.083199 
L 211.224947 197.178609 
L 210.410438 199.274019 
L 209.430558 201.136606 
L 208.487283 202.536115 
L 207.316077 203.930487 
L 205.835826 205.327427 
L 204.28484 206.491544 
L 202.330206 207.655661 
L 200.344128 208.591645 
L 197.834066 209.518248 
L 195.225573 210.257714 
L 191.968311 210.94256 
L 188.478388 211.450501 
L 184.523141 211.800479 
L 180.335233 211.948013 
L 176.147325 211.881328 
L 171.959416 211.593466 
L 168.236831 211.126038 
L 164.746908 210.464286 
L 161.722307 209.662345 
L 159.16303 208.759283 
L 156.836414 207.690756 
L 154.975122 206.598046 
L 153.264166 205.327427 
L 151.784024 203.930487 
L 150.554552 202.457871 
L 149.531352 200.903783 
L 148.585473 199.041196 
L 147.800141 196.945786 
L 147.245329 194.850376 
L 146.831967 192.384035 
L 146.820511 192.289318 
L 146.820511 192.289318 
" style="fill:none;stroke:#35b779;stroke-width:1.5;"/>
    <path clip-path="url(#pfbac58303c)" d="M 146.808405 100.789736 
L 146.639115 98.461502 
L 146.67719 95.900445 
L 146.945653 93.339388 
L 147.407705 91.011154 
L 148.033583 88.915744 
L 148.797463 87.053157 
L 149.812669 85.19057 
L 150.788552 83.79363 
L 152.006859 82.39669 
L 153.346491 81.164 
L 154.975122 79.961954 
L 156.836414 78.869244 
L 158.930368 77.895575 
L 161.489646 76.970203 
L 164.281584 76.203525 
L 167.538846 75.547133 
L 171.261432 75.037754 
L 175.216678 74.722877 
L 179.404587 74.608389 
L 183.701738 74.713519 
L 187.780403 75.031541 
L 191.502988 75.537351 
L 194.76025 76.189763 
L 197.784851 77.025812 
L 200.355213 77.973046 
L 202.438082 78.961441 
L 204.299375 80.078224 
L 205.928006 81.310269 
L 207.323975 82.637935 
L 208.489212 84.026453 
L 209.568653 85.656217 
L 210.514546 87.518804 
L 211.279222 89.549533 
L 211.854642 91.709624 
L 212.2512 94.037858 
L 212.455824 96.598915 
L 212.431277 99.159972 
L 212.199665 101.488206 
L 211.744545 103.776913 
L 211.150126 105.679026 
L 210.348575 107.473994 
L 209.459098 108.938554 
L 208.487283 110.167342 
L 207.323975 111.315055 
L 205.859755 112.430904 
L 204.275882 113.362197 
L 202.438082 114.199289 
L 200.111466 115.003614 
L 197.319527 115.712565 
L 194.062265 116.300875 
L 190.107019 116.778993 
L 185.453787 117.106823 
L 180.335233 117.243099 
L 174.984017 117.163242 
L 170.098124 116.877104 
L 165.910215 116.425656 
L 162.420292 115.845446 
L 159.395691 115.121824 
L 156.900732 114.293491 
L 154.975122 113.439404 
L 153.240272 112.430904 
L 151.950521 111.464609 
L 150.76546 110.335494 
L 149.623905 108.914038 
L 148.665572 107.30879 
L 147.949837 105.679026 
L 147.365537 103.816439 
L 146.935617 101.721029 
L 146.808405 100.789736 
L 146.808405 100.789736 
" style="fill:none;stroke:#35b779;stroke-width:1.5;"/>
    <path clip-path="url(#pfbac58303c)" d="M 233.136704 145.026175 
L 233.02961 143.163588 
L 233.167666 141.301001 
L 233.501829 139.671238 
L 234.080056 138.011934 
L 234.780074 136.644534 
L 235.770016 135.247594 
L 236.881547 134.083477 
L 238.267964 132.984218 
L 239.663933 132.129654 
L 241.525226 131.249542 
L 243.851842 130.428442 
L 246.411119 129.764202 
L 249.668381 129.162126 
L 253.623628 128.682101 
L 258.044197 128.376459 
L 262.93009 128.25816 
L 268.048645 128.35836 
L 272.701876 128.665926 
L 276.657123 129.13592 
L 279.914385 129.725817 
L 282.706324 130.446125 
L 285.071953 131.289597 
L 287.002367 132.22089 
L 288.522863 133.190396 
L 289.918833 134.367929 
L 290.917989 135.480417 
L 291.855736 136.877357 
L 292.5296 138.274298 
L 293.059074 139.904061 
L 293.363245 141.533825 
L 293.470416 143.396412 
L 293.332263 145.258999 
L 292.998206 146.888762 
L 292.432794 148.518526 
L 291.719823 149.915466 
L 290.729951 151.312406 
L 289.618341 152.476523 
L 288.290202 153.53531 
L 286.894232 154.398686 
L 285.03294 155.286571 
L 282.706324 156.113875 
L 280.147047 156.782845 
L 276.889785 157.389027 
L 273.167199 157.850129 
L 268.74663 158.169652 
L 263.860737 158.300683 
L 258.742182 158.213617 
L 254.088951 157.920233 
L 250.133704 157.466657 
L 246.64378 156.84682 
L 243.851842 156.131558 
L 241.525226 155.310458 
L 239.663933 154.430346 
L 238.029415 153.407816 
L 236.633789 152.2437 
L 235.476025 150.941957 
L 234.644278 149.682643 
L 233.97044 148.285702 
L 233.440896 146.655939 
L 233.136704 145.026175 
L 233.136704 145.026175 
" style="fill:none;stroke:#35b779;stroke-width:1.5;"/>
    <path clip-path="url(#pfbac58303c)" d="M 314.108515 191.125202 
L 314.029055 188.564145 
L 314.182214 186.003088 
L 314.548047 183.674854 
L 315.10505 181.579444 
L 315.838161 179.716857 
L 316.730445 178.087093 
L 317.754614 176.690153 
L 318.863385 175.526036 
L 320.30117 174.361919 
L 321.793468 173.428461 
L 323.722868 172.499332 
L 325.981376 171.680906 
L 328.540653 170.990476 
L 331.797915 170.35853 
L 335.5205 169.868441 
L 339.94107 169.51182 
L 345.059625 169.328454 
L 350.410841 169.361509 
L 355.529395 169.614966 
L 359.949965 170.050405 
L 363.683727 170.636745 
L 366.73394 171.335216 
L 369.256428 172.136741 
L 371.350382 173.03325 
L 372.979013 173.946362 
L 374.507826 175.060389 
L 375.770952 176.264179 
L 376.859062 177.621446 
L 377.712912 179.018387 
L 378.460915 180.64815 
L 379.072906 182.510737 
L 379.526866 184.606147 
L 379.801583 186.934381 
L 379.868344 189.495438 
L 379.705756 192.056495 
L 379.351247 194.384729 
L 378.771953 196.712962 
L 378.015001 198.808373 
L 377.102037 200.67096 
L 376.003614 202.37886 
L 374.840306 203.796532 
L 373.444336 205.150073 
L 371.815705 206.402693 
L 369.954413 207.536026 
L 367.755006 208.586954 
L 365.301181 209.496601 
L 362.509243 210.286369 
L 359.251981 210.962979 
L 355.762057 211.464016 
L 351.80681 211.807536 
L 347.618902 211.949036 
L 343.430994 211.876395 
L 339.243085 211.582095 
L 335.5205 211.107805 
L 332.030577 210.437782 
L 329.005976 209.626296 
L 326.446699 208.712161 
L 324.169723 207.655661 
L 322.491452 206.674123 
L 320.862821 205.491403 
L 319.406863 204.16331 
L 318.188685 202.76637 
L 317.06952 201.136606 
L 316.089586 199.274019 
L 315.352857 197.411433 
L 314.751182 195.316022 
L 314.311307 192.987789 
L 314.108515 191.125202 
L 314.108515 191.125202 
" style="fill:none;stroke:#35b779;stroke-width:1.5;"/>
    <path clip-path="url(#pfbac58303c)" d="M 314.098364 99.625619 
L 314.031653 97.064562 
L 314.194296 94.503505 
L 314.580959 92.015599 
L 315.128102 89.847038 
L 315.885003 87.751627 
L 316.797986 85.88904 
L 317.839406 84.259277 
L 319.001529 82.827068 
L 320.397498 81.460367 
L 322.026129 80.197296 
L 323.887422 79.055569 
L 325.981376 78.042454 
L 328.307992 77.159317 
L 331.110527 76.343282 
L 334.124531 75.69079 
L 337.614454 75.158482 
L 341.569701 74.785621 
L 345.757609 74.616856 
L 349.945518 74.662746 
L 354.133426 74.928161 
L 358.088673 75.407046 
L 361.578596 76.056491 
L 364.603197 76.844416 
L 367.185291 77.740223 
L 369.48909 78.778921 
L 371.350382 79.848258 
L 372.979013 81.021462 
L 374.493101 82.39669 
L 375.770952 83.870818 
L 376.830462 85.423394 
L 377.702554 87.053157 
L 378.466374 88.915744 
L 379.092314 91.011154 
L 379.554368 93.339388 
L 379.822803 95.900445 
L 379.860849 98.461502 
L 379.663141 101.022559 
L 379.248858 103.350793 
L 378.63545 105.446203 
L 377.864906 107.248327 
L 377.017811 108.70573 
L 375.944918 110.10267 
L 374.779217 111.266787 
L 373.444336 112.305635 
L 371.815705 113.288737 
L 369.954413 114.152386 
L 367.627797 114.968676 
L 365.06852 115.635824 
L 361.811258 116.247499 
L 357.856011 116.745103 
L 353.20278 117.089547 
L 348.084225 117.240485 
L 342.733009 117.175464 
L 337.847116 116.905224 
L 333.426546 116.441358 
L 329.936623 115.868649 
L 326.912022 115.15463 
L 324.352745 114.313576 
L 322.491452 113.497849 
L 320.862821 112.576373 
L 319.392157 111.499611 
L 318.070883 110.231884 
L 317.04095 108.938554 
L 316.187025 107.541613 
L 315.439072 105.91185 
L 314.813621 103.998804 
L 314.348297 101.800404 
L 314.098364 99.625619 
L 314.098364 99.625619 
" style="fill:none;stroke:#35b779;stroke-width:1.5;"/>
   </g>
   <g id="LineCollection_6">
    <path clip-path="url(#pfbac58303c)" d="M 80.9743 144.327705 
L 80.84486 143.396412 
L 80.922443 142.465118 
L 81.221404 141.513441 
L 81.733899 140.602531 
L 82.526362 139.671238 
L 83.661484 138.739944 
L 84.943989 137.976206 
L 86.57262 137.262218 
L 88.666574 136.615919 
L 90.99319 136.148404 
L 93.552467 135.86556 
L 96.344406 135.790416 
L 99.136345 135.94856 
L 101.695622 136.320259 
L 104.022238 136.889362 
L 105.909657 137.575828 
L 107.512161 138.399366 
L 108.675469 139.222226 
L 109.607543 140.136885 
L 110.3041 141.155488 
L 110.659889 141.999471 
L 110.842276 142.930765 
L 110.816518 143.862058 
L 110.536762 144.904515 
L 110.071438 145.798882 
L 109.373454 146.684242 
L 108.360389 147.587232 
L 107.046838 148.429269 
L 105.650869 149.092495 
L 103.789576 149.739149 
L 101.46296 150.283474 
L 98.903683 150.633719 
L 96.111744 150.772202 
L 93.319805 150.677614 
L 90.760528 150.374926 
L 88.433912 149.884168 
L 86.339958 149.209955 
L 84.711327 148.461173 
L 83.315358 147.568738 
L 82.299717 146.655939 
L 81.580214 145.724645 
L 81.119278 144.793352 
L 80.9743 144.327705 
L 80.9743 144.327705 
" style="fill:none;stroke:#90d743;stroke-width:1.5;"/>
    <path clip-path="url(#pfbac58303c)" d="M 156.83313 189.495438 
L 156.87194 187.865675 
L 157.151962 186.235911 
L 157.603975 184.838971 
L 158.284306 183.442031 
L 159.244595 182.04509 
L 160.326338 180.873406 
L 161.725912 179.716857 
L 163.350938 178.692283 
L 165.212231 177.794226 
L 167.306185 177.028689 
L 169.865462 176.345239 
L 172.657401 175.835982 
L 175.682001 175.502828 
L 178.939263 175.359847 
L 182.429187 175.437134 
L 185.686449 175.732946 
L 188.711049 176.232531 
L 191.452802 176.922976 
L 193.596942 177.674266 
L 195.492139 178.55274 
L 197.086866 179.51512 
L 198.530075 180.64815 
L 199.663041 181.812267 
L 200.676802 183.209207 
L 201.399544 184.606147 
L 201.887027 186.003088 
L 202.20542 187.652042 
L 202.275417 189.262615 
L 202.115139 190.892378 
L 201.717906 192.522142 
L 201.06211 194.151905 
L 200.262719 195.548846 
L 199.18082 196.965778 
L 198.017512 198.146218 
L 196.616056 199.274019 
L 194.992912 200.307617 
L 193.131619 201.239781 
L 190.987035 202.0679 
L 188.478388 202.783541 
L 185.686449 203.327964 
L 182.661849 203.670763 
L 179.637248 203.785881 
L 176.612648 203.683445 
L 173.588047 203.354339 
L 170.796108 202.824667 
L 168.236831 202.109061 
L 166.142877 201.31611 
L 164.281584 200.405416 
L 162.484184 199.274019 
L 161.024322 198.093451 
L 159.703321 196.712962 
L 158.686938 195.316022 
L 157.92718 193.919082 
L 157.310152 192.289318 
L 156.947739 190.659555 
L 156.83313 189.495438 
L 156.83313 189.495438 
" style="fill:none;stroke:#90d743;stroke-width:1.5;"/>
    <path clip-path="url(#pfbac58303c)" d="M 156.826637 97.995855 
L 156.887717 96.366092 
L 157.181953 94.736328 
L 157.723105 93.106565 
L 158.465045 91.610946 
L 159.395691 90.230823 
L 160.558999 88.911077 
L 161.954969 87.681614 
L 163.5836 86.559602 
L 165.444892 85.559603 
L 167.538846 84.69186 
L 169.865462 83.967392 
L 172.424739 83.39786 
L 175.216678 82.99915 
L 178.241279 82.794282 
L 181.265879 82.808869 
L 184.290479 83.044142 
L 187.082418 83.474508 
L 189.641696 84.078637 
L 191.968311 84.842896 
L 194.062265 85.757495 
L 195.932018 86.820334 
L 197.552189 88.00957 
L 198.948158 89.335345 
L 199.94025 90.545508 
L 200.822018 91.942448 
L 201.558225 93.572211 
L 202.026453 95.201975 
L 202.253304 96.831739 
L 202.247951 98.461502 
L 202.003708 100.091266 
L 201.586157 101.488206 
L 200.946746 102.885146 
L 200.037945 104.282086 
L 198.948158 105.517052 
L 197.687521 106.61032 
L 196.15622 107.635678 
L 194.294927 108.589323 
L 192.18668 109.4042 
L 189.641696 110.121744 
L 186.849757 110.662801 
L 183.708415 111.033964 
L 180.567894 111.193707 
L 177.077971 111.144209 
L 173.820709 110.876631 
L 170.796108 110.408855 
L 168.236831 109.807884 
L 165.910215 109.045578 
L 164.048923 108.233868 
L 162.410661 107.30879 
L 160.835406 106.144673 
L 159.628353 104.967402 
L 158.570034 103.583616 
L 157.803277 102.186676 
L 157.2794 100.789736 
L 156.926588 99.159972 
L 156.826637 97.995855 
L 156.826637 97.995855 
" style="fill:none;stroke:#90d743;stroke-width:1.5;"/>
    <path clip-path="url(#pfbac58303c)" d="M 248.257474 143.629235 
L 248.283294 142.697942 
L 248.518965 141.766648 
L 248.979856 140.835355 
L 249.699506 139.904061 
L 250.739631 138.972768 
L 251.994997 138.162853 
L 253.623628 137.396507 
L 255.48492 136.771253 
L 257.578874 136.28728 
L 260.138151 135.931677 
L 262.93009 135.788301 
L 265.722029 135.878026 
L 268.301547 136.178887 
L 270.607922 136.660412 
L 272.741872 137.343004 
L 274.330507 138.067141 
L 275.760597 138.972768 
L 276.800274 139.904061 
L 277.519857 140.835355 
L 277.980775 141.766648 
L 278.21644 142.697942 
L 278.242378 143.629235 
L 278.053092 144.581795 
L 277.587769 145.610931 
L 277.007106 146.423115 
L 276.055402 147.354409 
L 274.79583 148.230828 
L 273.309303 148.984172 
L 271.382428 149.682643 
L 269.211953 150.217154 
L 266.652675 150.599366 
L 264.093398 150.762634 
L 261.301459 150.716605 
L 258.742182 150.462956 
L 256.415566 150.028508 
L 254.321612 149.424235 
L 252.46032 148.64268 
L 251.060998 147.820056 
L 249.901042 146.863486 
L 249.133981 145.957469 
L 248.612449 145.026175 
L 248.322387 144.094882 
L 248.257474 143.629235 
L 248.257474 143.629235 
" style="fill:none;stroke:#90d743;stroke-width:1.5;"/>
    <path clip-path="url(#pfbac58303c)" d="M 324.347535 190.659555 
L 324.220612 189.029791 
L 324.326465 187.400028 
L 324.679542 185.770264 
L 325.203367 184.373324 
L 325.981376 182.958849 
L 326.912022 181.72551 
L 328.07533 180.554746 
L 329.4713 179.475216 
L 331.099931 178.504479 
L 333.03445 177.621446 
L 335.287839 176.851774 
L 337.847116 176.220534 
L 340.871716 175.725637 
L 344.128978 175.433882 
L 347.38624 175.358072 
L 350.643502 175.489794 
L 353.900764 175.844487 
L 356.692703 176.358237 
L 359.251981 177.04715 
L 361.429596 177.85427 
L 363.316502 178.785563 
L 364.835858 179.762069 
L 366.231828 180.929423 
L 367.395136 182.222591 
L 368.215619 183.442031 
L 368.895989 184.838971 
L 369.348029 186.235911 
L 369.627961 187.865675 
L 369.666722 189.495438 
L 369.473352 191.125202 
L 369.023767 192.803384 
L 368.34518 194.384729 
L 367.505231 195.781669 
L 366.390506 197.178609 
L 365.06852 198.452136 
L 363.67255 199.513802 
L 361.811258 200.624285 
L 359.949965 201.487376 
L 357.62335 202.311649 
L 355.064072 202.967301 
L 352.272133 203.444039 
L 349.247533 203.723422 
L 346.222933 203.779724 
L 343.198332 203.617835 
L 340.173732 203.224043 
L 337.381793 202.623236 
L 335.055177 201.909714 
L 332.961223 201.055036 
L 331.099931 200.070463 
L 329.4713 198.968177 
L 328.07533 197.763266 
L 326.912022 196.478249 
L 325.94394 195.083199 
L 325.222254 193.686259 
L 324.643555 192.056495 
L 324.347535 190.659555 
L 324.347535 190.659555 
" style="fill:none;stroke:#90d743;stroke-width:1.5;"/>
    <path clip-path="url(#pfbac58303c)" d="M 324.326465 99.159972 
L 324.220612 97.530209 
L 324.352745 95.867593 
L 324.710349 94.270682 
L 325.327121 92.640918 
L 326.087146 91.243978 
L 327.144684 89.797807 
L 328.442478 88.450097 
L 329.936623 87.248603 
L 331.74099 86.121864 
L 333.666839 85.19057 
L 335.985823 84.338479 
L 338.545101 83.655959 
L 341.33704 83.155377 
L 344.36164 82.853482 
L 347.38624 82.776277 
L 350.410841 82.916849 
L 353.435441 83.287286 
L 356.22738 83.86217 
L 358.786657 84.629706 
L 360.880612 85.477902 
L 362.741904 86.454828 
L 364.370535 87.547343 
L 365.766505 88.7401 
L 366.986294 90.079861 
L 367.955952 91.476801 
L 368.677692 92.873741 
L 369.256617 94.503505 
L 369.584621 96.133268 
L 369.678743 97.763032 
L 369.538717 99.392796 
L 369.14821 101.022559 
L 368.558443 102.477285 
L 367.774804 103.816439 
L 366.697151 105.158154 
L 365.533843 106.254244 
L 364.089168 107.30879 
L 362.276581 108.319066 
L 360.182627 109.197173 
L 357.856011 109.918367 
L 355.064072 110.52778 
L 352.039472 110.947167 
L 348.78221 111.171106 
L 345.292286 111.177042 
L 342.035024 110.964864 
L 339.010424 110.558393 
L 336.218485 109.963714 
L 333.891869 109.259223 
L 331.797915 108.40258 
L 329.936623 107.38821 
L 328.515799 106.377497 
L 327.254382 105.21338 
L 326.214038 103.943523 
L 325.429544 102.652323 
L 324.818068 101.221072 
L 324.401116 99.625619 
L 324.326465 99.159972 
L 324.326465 99.159972 
" style="fill:none;stroke:#90d743;stroke-width:1.5;"/>
   </g>
   <g id="LineCollection_7">
    <path clip-path="url(#pfbac58303c)" d="M 175.185869 189.262615 
L 175.158665 189.029791 
L 175.163617 188.796968 
L 175.200852 188.564145 
L 175.216678 188.511241 
L 175.27347 188.331321 
L 175.381365 188.098498 
L 175.44934 187.987414 
L 175.528217 187.865675 
L 175.682001 187.674899 
L 175.718021 187.632851 
L 175.914663 187.441092 
L 175.959596 187.400028 
L 176.147325 187.252794 
L 176.26431 187.167204 
L 176.379986 187.093115 
L 176.612648 186.954812 
L 176.649883 186.934381 
L 176.845309 186.839051 
L 177.077971 186.735056 
L 177.160388 186.701558 
L 177.310632 186.646597 
L 177.543294 186.569965 
L 177.775956 186.501807 
L 177.90479 186.468734 
L 178.008617 186.444503 
L 178.241279 186.397851 
L 178.47394 186.358843 
L 178.706602 186.327465 
L 178.939263 186.303705 
L 179.171925 186.287553 
L 179.404587 186.279004 
L 179.637248 186.278054 
L 179.86991 186.284703 
L 180.102571 186.298954 
L 180.335233 186.320811 
L 180.567894 186.350284 
L 180.800556 186.387383 
L 181.033218 186.432123 
L 181.195812 186.468734 
L 181.265879 186.486088 
L 181.498541 186.552133 
L 181.731202 186.626643 
L 181.941203 186.701558 
L 181.963864 186.71054 
L 182.196525 186.812162 
L 182.429187 186.92329 
L 182.45059 186.934381 
L 182.661849 187.057529 
L 182.836199 187.167204 
L 182.89451 187.209103 
L 183.127172 187.388515 
L 183.141149 187.400028 
L 183.359833 187.609924 
L 183.382285 187.632851 
L 183.572761 187.865675 
L 183.592495 187.89568 
L 183.718368 188.098498 
L 183.825156 188.32578 
L 183.827622 188.331321 
L 183.898211 188.564145 
L 183.935934 188.796968 
L 183.940951 189.029791 
L 183.91339 189.262615 
L 183.853348 189.495438 
L 183.825156 189.56646 
L 183.757331 189.728261 
L 183.625583 189.961085 
L 183.592495 190.007556 
L 183.451871 190.193908 
L 183.359833 190.295129 
L 183.232536 190.426732 
L 183.127172 190.519873 
L 182.95837 190.659555 
L 182.89451 190.705734 
L 182.661849 190.862508 
L 182.614033 190.892378 
L 182.429187 190.994979 
L 182.196525 191.113926 
L 182.172424 191.125202 
L 181.963864 191.213048 
L 181.731202 191.301925 
L 181.567633 191.358025 
L 181.498541 191.379587 
L 181.265879 191.443975 
L 181.033218 191.500134 
L 180.800556 191.548085 
L 180.567894 191.587848 
L 180.545798 191.590848 
L 180.335233 191.617104 
L 180.102571 191.638619 
L 179.86991 191.652646 
L 179.637248 191.659191 
L 179.404587 191.658256 
L 179.171925 191.649841 
L 178.939263 191.633942 
L 178.706602 191.610554 
L 178.558149 191.590848 
L 178.47394 191.578674 
L 178.241279 191.536866 
L 178.008617 191.486864 
L 177.775956 191.42865 
L 177.543294 191.362201 
L 177.53028 191.358025 
L 177.310632 191.28056 
L 177.077971 191.189404 
L 176.92899 191.125202 
L 176.845309 191.085144 
L 176.612648 190.963647 
L 176.486715 190.892378 
L 176.379986 190.824399 
L 176.147325 190.664729 
L 176.14029 190.659555 
L 175.914663 190.469675 
L 175.866847 190.426732 
L 175.682001 190.232584 
L 175.647355 190.193908 
L 175.474243 189.961085 
L 175.44934 189.918935 
L 175.342935 189.728261 
L 175.246689 189.495438 
L 175.216678 189.383672 
L 175.185869 189.262615 
" style="fill:none;stroke:#fde725;stroke-width:1.5;"/>
    <path clip-path="url(#pfbac58303c)" d="M 175.200852 97.995855 
L 175.163617 97.763032 
L 175.158665 97.530209 
L 175.185869 97.297385 
L 175.216678 97.176328 
L 175.246689 97.064562 
L 175.342935 96.831739 
L 175.44934 96.641065 
L 175.474243 96.598915 
L 175.647355 96.366092 
L 175.682001 96.327416 
L 175.866847 96.133268 
L 175.914663 96.090325 
L 176.14029 95.900445 
L 176.147325 95.895271 
L 176.379986 95.735601 
L 176.486715 95.667622 
L 176.612648 95.596353 
L 176.845309 95.474856 
L 176.92899 95.434798 
L 177.077971 95.370596 
L 177.310632 95.27944 
L 177.53028 95.201975 
L 177.543294 95.197799 
L 177.775956 95.13135 
L 178.008617 95.073136 
L 178.241279 95.023134 
L 178.47394 94.981326 
L 178.558149 94.969152 
L 178.706602 94.949446 
L 178.939263 94.926058 
L 179.171925 94.910159 
L 179.404587 94.901744 
L 179.637248 94.900809 
L 179.86991 94.907354 
L 180.102571 94.921381 
L 180.335233 94.942896 
L 180.545798 94.969152 
L 180.567894 94.972152 
L 180.800556 95.011915 
L 181.033218 95.059866 
L 181.265879 95.116025 
L 181.498541 95.180413 
L 181.567633 95.201975 
L 181.731202 95.258075 
L 181.963864 95.346952 
L 182.172424 95.434798 
L 182.196525 95.446074 
L 182.429187 95.565021 
L 182.614033 95.667622 
L 182.661849 95.697492 
L 182.89451 95.854266 
L 182.95837 95.900445 
L 183.127172 96.040127 
L 183.232536 96.133268 
L 183.359833 96.264871 
L 183.451871 96.366092 
L 183.592495 96.552444 
L 183.625583 96.598915 
L 183.757331 96.831739 
L 183.825156 96.99354 
L 183.853348 97.064562 
L 183.91339 97.297385 
L 183.940951 97.530209 
L 183.935934 97.763032 
L 183.898211 97.995855 
L 183.827622 98.228679 
L 183.825156 98.23422 
L 183.718368 98.461502 
L 183.592495 98.66432 
L 183.572761 98.694325 
L 183.382285 98.927149 
L 183.359833 98.950076 
L 183.141149 99.159972 
L 183.127172 99.171485 
L 182.89451 99.350897 
L 182.836199 99.392796 
L 182.661849 99.502471 
L 182.45059 99.625619 
L 182.429187 99.63671 
L 182.196525 99.747838 
L 181.963864 99.84946 
L 181.941203 99.858442 
L 181.731202 99.933357 
L 181.498541 100.007867 
L 181.265879 100.073912 
L 181.195812 100.091266 
L 181.033218 100.127877 
L 180.800556 100.172617 
L 180.567894 100.209716 
L 180.335233 100.239189 
L 180.102571 100.261046 
L 179.86991 100.275297 
L 179.637248 100.281946 
L 179.404587 100.280996 
L 179.171925 100.272447 
L 178.939263 100.256295 
L 178.706602 100.232535 
L 178.47394 100.201157 
L 178.241279 100.162149 
L 178.008617 100.115497 
L 177.90479 100.091266 
L 177.775956 100.058193 
L 177.543294 99.990035 
L 177.310632 99.913403 
L 177.160388 99.858442 
L 177.077971 99.824944 
L 176.845309 99.720949 
L 176.649883 99.625619 
L 176.612648 99.605188 
L 176.379986 99.466885 
L 176.26431 99.392796 
L 176.147325 99.307206 
L 175.959596 99.159972 
L 175.914663 99.118908 
L 175.718021 98.927149 
L 175.682001 98.885101 
L 175.528217 98.694325 
L 175.44934 98.572586 
L 175.381365 98.461502 
L 175.27347 98.228679 
L 175.216678 98.048759 
L 175.200852 97.995855 
" style="fill:none;stroke:#fde725;stroke-width:1.5;"/>
    <path clip-path="url(#pfbac58303c)" d="M 342.647438 189.495438 
L 342.586597 189.262615 
L 342.558669 189.029791 
L 342.563753 188.796968 
L 342.601978 188.564145 
L 342.673506 188.331321 
L 342.733009 188.199373 
L 342.781089 188.098498 
L 342.927634 187.865675 
L 342.965671 187.81709 
L 343.118682 187.632851 
L 343.198332 187.552738 
L 343.360016 187.400028 
L 343.430994 187.342499 
L 343.662309 187.167204 
L 343.663655 187.166312 
L 343.896317 187.022617 
L 344.050709 186.934381 
L 344.128978 186.894614 
L 344.36164 186.785867 
L 344.559249 186.701558 
L 344.594302 186.688099 
L 344.826963 186.60722 
L 345.059625 186.534829 
L 345.292286 186.470897 
L 345.301349 186.468734 
L 345.524948 186.42022 
L 345.757609 186.377392 
L 345.990271 186.342201 
L 346.222933 186.314633 
L 346.455594 186.294678 
L 346.688256 186.282329 
L 346.920917 186.27758 
L 347.153579 186.280429 
L 347.38624 186.290878 
L 347.618902 186.308931 
L 347.851564 186.334595 
L 348.084225 186.367879 
L 348.316887 186.408797 
L 348.549548 186.457363 
L 348.596618 186.468734 
L 348.78221 186.518054 
L 349.014871 186.588328 
L 349.247533 186.667082 
L 349.339496 186.701558 
L 349.480195 186.760165 
L 349.712856 186.866535 
L 349.84911 186.934381 
L 349.945518 186.988379 
L 350.178179 187.129375 
L 350.236204 187.167204 
L 350.410841 187.297259 
L 350.539721 187.400028 
L 350.643502 187.496461 
L 350.781202 187.632851 
L 350.876164 187.745449 
L 350.971664 187.865675 
L 351.108826 188.08051 
L 351.119681 188.098498 
L 351.226119 188.331321 
L 351.298612 188.564145 
L 351.337353 188.796968 
L 351.341487 188.983793 
L 351.342453 189.029791 
L 351.341487 189.038166 
L 351.3142 189.262615 
L 351.252539 189.495438 
L 351.157592 189.728261 
L 351.108826 189.816874 
L 351.024867 189.961085 
L 350.876164 190.164003 
L 350.852897 190.193908 
L 350.643502 190.417282 
L 350.634061 190.426732 
L 350.410841 190.617769 
L 350.358566 190.659555 
L 350.178179 190.785568 
L 350.013648 190.892378 
L 349.945518 190.931676 
L 349.712856 191.055727 
L 349.570932 191.125202 
L 349.480195 191.165188 
L 349.247533 191.258625 
L 349.014871 191.34295 
L 348.968283 191.358025 
L 348.78221 191.412811 
L 348.549548 191.473081 
L 348.316887 191.525134 
L 348.084225 191.568989 
L 347.941678 191.590848 
L 347.851564 191.603536 
L 347.618902 191.628798 
L 347.38624 191.646568 
L 347.153579 191.656854 
L 346.920917 191.659659 
L 346.688256 191.654984 
L 346.455594 191.642828 
L 346.222933 191.623185 
L 345.990271 191.596049 
L 345.955334 191.590848 
L 345.757609 191.558793 
L 345.524948 191.51289 
L 345.292286 191.458785 
L 345.059625 191.396457 
L 344.932893 191.358025 
L 344.826963 191.322722 
L 344.594302 191.236122 
L 344.36164 191.140401 
L 344.327896 191.125202 
L 344.128978 191.025672 
L 343.896317 190.899064 
L 343.88494 190.892378 
L 343.663655 190.746013 
L 343.542028 190.659555 
L 343.430994 190.569237 
L 343.267176 190.426732 
L 343.198332 190.356695 
L 343.048058 190.193908 
L 342.965671 190.086372 
L 342.875179 189.961085 
L 342.741578 189.728261 
L 342.733009 189.70811 
L 342.647438 189.495438 
" style="fill:none;stroke:#fde725;stroke-width:1.5;"/>
    <path clip-path="url(#pfbac58303c)" d="M 342.673506 98.228679 
L 342.601978 97.995855 
L 342.563753 97.763032 
L 342.558669 97.530209 
L 342.586597 97.297385 
L 342.647438 97.064562 
L 342.733009 96.85189 
L 342.741578 96.831739 
L 342.875179 96.598915 
L 342.965671 96.473628 
L 343.048058 96.366092 
L 343.198332 96.203305 
L 343.267176 96.133268 
L 343.430994 95.990763 
L 343.542028 95.900445 
L 343.663655 95.813987 
L 343.88494 95.667622 
L 343.896317 95.660936 
L 344.128978 95.534328 
L 344.327896 95.434798 
L 344.36164 95.419599 
L 344.594302 95.323878 
L 344.826963 95.237278 
L 344.932893 95.201975 
L 345.059625 95.163543 
L 345.292286 95.101215 
L 345.524948 95.04711 
L 345.757609 95.001207 
L 345.955334 94.969152 
L 345.990271 94.963951 
L 346.222933 94.936815 
L 346.455594 94.917172 
L 346.688256 94.905016 
L 346.920917 94.900341 
L 347.153579 94.903146 
L 347.38624 94.913432 
L 347.618902 94.931202 
L 347.851564 94.956464 
L 347.941678 94.969152 
L 348.084225 94.991011 
L 348.316887 95.034866 
L 348.549548 95.086919 
L 348.78221 95.147189 
L 348.968283 95.201975 
L 349.014871 95.21705 
L 349.247533 95.301375 
L 349.480195 95.394812 
L 349.570932 95.434798 
L 349.712856 95.504273 
L 349.945518 95.628324 
L 350.013648 95.667622 
L 350.178179 95.774432 
L 350.358566 95.900445 
L 350.410841 95.942231 
L 350.634061 96.133268 
L 350.643502 96.142718 
L 350.852897 96.366092 
L 350.876164 96.395997 
L 351.024867 96.598915 
L 351.108826 96.743126 
L 351.157592 96.831739 
L 351.252539 97.064562 
L 351.3142 97.297385 
L 351.341487 97.521834 
L 351.342453 97.530209 
L 351.341487 97.576207 
L 351.337353 97.763032 
L 351.298612 97.995855 
L 351.226119 98.228679 
L 351.119681 98.461502 
L 351.108826 98.47949 
L 350.971664 98.694325 
L 350.876164 98.814551 
L 350.781202 98.927149 
L 350.643502 99.063539 
L 350.539721 99.159972 
L 350.410841 99.262741 
L 350.236204 99.392796 
L 350.178179 99.430625 
L 349.945518 99.571621 
L 349.84911 99.625619 
L 349.712856 99.693465 
L 349.480195 99.799835 
L 349.339496 99.858442 
L 349.247533 99.892918 
L 349.014871 99.971672 
L 348.78221 100.041946 
L 348.596618 100.091266 
L 348.549548 100.102637 
L 348.316887 100.151203 
L 348.084225 100.192121 
L 347.851564 100.225405 
L 347.618902 100.251069 
L 347.38624 100.269122 
L 347.153579 100.279571 
L 346.920917 100.28242 
L 346.688256 100.277671 
L 346.455594 100.265322 
L 346.222933 100.245367 
L 345.990271 100.217799 
L 345.757609 100.182608 
L 345.524948 100.13978 
L 345.301349 100.091266 
L 345.292286 100.089103 
L 345.059625 100.025171 
L 344.826963 99.95278 
L 344.594302 99.871901 
L 344.559249 99.858442 
L 344.36164 99.774133 
L 344.128978 99.665386 
L 344.050709 99.625619 
L 343.896317 99.537383 
L 343.663655 99.393688 
L 343.662309 99.392796 
L 343.430994 99.217501 
L 343.360016 99.159972 
L 343.198332 99.007262 
L 343.118682 98.927149 
L 342.965671 98.74291 
L 342.927634 98.694325 
L 342.781089 98.461502 
L 342.733009 98.360627 
L 342.673506 98.228679 
" style="fill:none;stroke:#fde725;stroke-width:1.5;"/>
   </g>
   <g id="line2d_1">
    <path clip-path="url(#pfbac58303c)" d="M 54 195.36 
L 388.8 195.36 
" style="fill:none;stroke:#ff0000;stroke-linecap:square;stroke-width:1.5;"/>
   </g>
   <g id="line2d_2">
    <path clip-path="url(#pfbac58303c)" d="M 54 91.2 
L 388.8 91.2 
" style="fill:none;stroke:#ff0000;stroke-linecap:square;stroke-width:1.5;"/>
   </g>
   <g id="patch_3">
    <path d="M 54 252 
L 54 34.56 
" style="fill:none;stroke:#000000;stroke-linecap:square;stroke-linejoin:miter;stroke-width:0.8;"/>
   </g>
   <g id="patch_4">
    <path d="M 388.8 252 
L 388.8 34.56 
" style="fill:none;stroke:#000000;stroke-linecap:square;stroke-linejoin:miter;stroke-width:0.8;"/>
   </g>
   <g id="patch_5">
    <path d="M 54 252 
L 388.8 252 
" style="fill:none;stroke:#000000;stroke-linecap:square;stroke-linejoin:miter;stroke-width:0.8;"/>
   </g>
   <g id="patch_6">
    <path d="M 54 34.56 
L 388.8 34.56 
" style="fill:none;stroke:#000000;stroke-linecap:square;stroke-linejoin:miter;stroke-width:0.8;"/>
   </g>
  </g>
 </g>
 <defs>
  <clipPath id="pfbac58303c">
   <rect height="217.44" width="334.8" x="54" y="34.56"/>
  </clipPath>
 </defs>
</svg>
