<?xml version="1.0" encoding="utf-8" standalone="no"?>
<!DOCTYPE svg PUBLIC "-//W3C//DTD SVG 1.1//EN"
  "http://www.w3.org/Graphics/SVG/1.1/DTD/svg11.dtd">
<!-- Created with matplotlib (http://matplotlib.org/) -->
<svg height="288pt" version="1.1" viewBox="0 0 432 288" width="432pt" xmlns="http://www.w3.org/2000/svg" xmlns:xlink="http://www.w3.org/1999/xlink">
 <defs>
  <style type="text/css">
*{stroke-linecap:butt;stroke-linejoin:round;}
  </style>
 </defs>
 <g id="figure_1">
  <g id="patch_1">
   <path d="M 0 288 
L 432 288 
L 432 0 
L 0 0 
z
" style="fill:#ffffff;"/>
  </g>
  <g id="axes_1">
   <g id="patch_2">
    <path d="M 54 252 
L 388.8 252 
L 388.8 34.56 
L 54 34.56 
z
" style="fill:#ffffff;"/>
   </g>
   <g id="matplotlib.axis_1"/>
   <g id="matplotlib.axis_2"/>
   <g id="LineCollection_1">
    <path clip-path="url(#pfbe546e12c)" d="M 54 127.599939 
L 55.861293 127.476198 
L 57.489924 127.155123 
L 59.118555 126.603992 
L 60.514524 125.902773 
L 61.803188 125.003366 
L 62.84114 124.03031 
L 63.771786 122.870785 
L 64.573128 121.511015 
L 65.167755 120.092904 
L 65.633079 118.384347 
L 65.880561 116.621725 
L 65.917391 114.759138 
L 65.736132 112.896551 
L 65.329436 111.033964 
L 64.702432 109.253732 
L 63.965372 107.774437 
L 63.03409 106.377497 
L 61.910493 105.108506 
L 60.661134 104.049263 
L 59.351216 103.223485 
L 57.955247 102.592516 
L 56.326616 102.123223 
L 54.697985 101.905014 
L 54 101.883746 
L 54 101.883746 
" style="fill:none;stroke:#440154;stroke-width:1.5;"/>
    <path clip-path="url(#pfbe546e12c)" d="M 388.8 101.883746 
L 387.171369 102.000314 
L 385.542738 102.358765 
L 384.133205 102.885146 
L 382.750799 103.631642 
L 381.54436 104.51491 
L 380.344621 105.679026 
L 379.425626 106.843143 
L 378.562891 108.269261 
L 377.851211 109.869847 
L 377.290321 111.732434 
L 376.97012 113.595021 
L 376.870759 115.457608 
L 376.99171 117.320195 
L 377.354059 119.182782 
L 377.907257 120.812545 
L 378.605525 122.209485 
L 379.493537 123.492589 
L 380.463871 124.537719 
L 381.612612 125.469013 
L 382.983461 126.283279 
L 384.37943 126.871648 
L 386.071961 127.331599 
L 387.869354 127.569488 
L 388.8 127.599939 
L 388.8 127.599939 
" style="fill:none;stroke:#440154;stroke-width:1.5;"/>
    <path clip-path="url(#pfbe546e12c)" d="M 97.969892 172.964979 
L 98.290286 174.827566 
L 98.851466 176.690153 
L 99.601668 178.364341 
L 100.532314 179.867884 
L 101.558369 181.113797 
L 102.626268 182.113231 
L 104.022238 183.095098 
L 105.418207 183.798811 
L 106.814177 184.278614 
L 108.442808 184.595599 
L 110.071438 184.673039 
L 111.700069 184.517145 
L 113.3287 184.11648 
L 114.72467 183.554065 
L 116.131184 182.743561 
L 117.324654 181.812267 
L 118.458624 180.64815 
L 119.483604 179.25121 
L 120.308548 177.740646 
L 120.91342 176.224506 
L 121.4112 174.361919 
L 121.675126 172.499332 
L 121.720358 170.636745 
L 121.541626 168.774159 
L 121.181544 167.144395 
L 120.592326 165.514631 
L 119.843224 164.101244 
L 118.912578 162.834344 
L 117.878734 161.789458 
L 116.639739 160.858164 
L 115.376013 160.159694 
L 113.794024 159.548935 
L 112.165393 159.160857 
L 110.3041 158.968988 
L 108.442808 159.025419 
L 106.814177 159.282757 
L 105.185546 159.758078 
L 103.757734 160.392517 
L 102.393607 161.24866 
L 101.223035 162.255104 
L 100.22158 163.419221 
L 99.345758 164.816161 
L 98.671022 166.3578 
L 98.205698 167.991328 
L 97.939925 169.705452 
L 97.875384 171.568039 
L 97.969892 172.964979 
L 97.969892 172.964979 
" style="fill:none;stroke:#440154;stroke-width:1.5;"/>
    <path clip-path="url(#pfbe546e12c)" d="M 153.791503 117.320195 
L 154.094236 118.949958 
L 154.612849 120.579722 
L 155.272178 121.976662 
L 156.198734 123.373602 
L 157.301737 124.573046 
L 158.465045 125.505343 
L 159.861015 126.321767 
L 161.256984 126.898152 
L 162.885615 127.334698 
L 164.746908 127.574356 
L 166.6082 127.56419 
L 168.327658 127.331599 
L 169.865462 126.924139 
L 171.261432 126.359645 
L 172.657401 125.558105 
L 173.820709 124.6439 
L 174.81336 123.606426 
L 175.682001 122.395985 
L 176.392589 121.045369 
L 176.98143 119.415605 
L 177.34181 117.785841 
L 177.520308 115.923255 
L 177.474939 114.060668 
L 177.211096 112.198081 
L 176.713409 110.335494 
L 176.05477 108.70573 
L 175.216678 107.20393 
L 174.258456 105.91185 
L 173.122724 104.745591 
L 171.930921 103.816439 
L 170.563447 103.024755 
L 169.052701 102.419499 
L 167.538846 102.049477 
L 165.910215 101.887945 
L 164.281584 101.95981 
L 162.652953 102.270908 
L 161.256984 102.74501 
L 159.861015 103.441907 
L 158.465045 104.415065 
L 157.301737 105.506301 
L 156.2257 106.843143 
L 155.378439 108.240083 
L 154.651603 109.869847 
L 154.090138 111.732434 
L 153.770151 113.595021 
L 153.670837 115.457608 
L 153.791503 117.320195 
L 153.791503 117.320195 
" style="fill:none;stroke:#440154;stroke-width:1.5;"/>
    <path clip-path="url(#pfbe546e12c)" d="M 209.628918 173.430626 
L 210.006683 175.293213 
L 210.581237 177.025121 
L 211.303355 178.55274 
L 212.209868 179.974958 
L 213.373176 181.336437 
L 214.536484 182.359554 
L 215.932453 183.273182 
L 217.328423 183.923658 
L 218.957054 184.411965 
L 220.585685 184.6473 
L 222.214315 184.6473 
L 223.842946 184.411965 
L 225.238916 184.009933 
L 226.634885 183.398276 
L 228.061594 182.510737 
L 229.194163 181.564111 
L 230.35747 180.281252 
L 231.288117 178.917637 
L 232.06689 177.388623 
L 232.684086 175.683292 
L 233.098147 173.896273 
L 233.306555 172.033686 
L 233.297019 170.171099 
L 233.059437 168.308512 
L 232.638907 166.678748 
L 231.973569 165.048985 
L 231.145694 163.652045 
L 230.201959 162.487928 
L 229.194163 161.548715 
L 227.86014 160.625341 
L 226.448247 159.926871 
L 225.006254 159.435928 
L 223.377623 159.099917 
L 221.516331 158.960536 
L 219.655038 159.068682 
L 218.026407 159.374909 
L 216.351753 159.926871 
L 214.93986 160.625341 
L 213.596135 161.556634 
L 212.44253 162.657312 
L 211.495841 163.884868 
L 210.71421 165.281808 
L 210.087255 166.911572 
L 209.697366 168.541335 
L 209.489689 170.403922 
L 209.507606 172.266509 
L 209.628918 173.430626 
L 209.628918 173.430626 
" style="fill:none;stroke:#440154;stroke-width:1.5;"/>
    <path clip-path="url(#pfbe546e12c)" d="M 265.45819 117.785841 
L 265.81857 119.415605 
L 266.420014 121.073408 
L 267.146601 122.442309 
L 268.048645 123.680249 
L 269.121237 124.770542 
L 270.375261 125.711778 
L 271.77123 126.468305 
L 273.399861 127.069362 
L 275.028492 127.431008 
L 276.889785 127.596559 
L 278.751077 127.514318 
L 280.379708 127.232647 
L 282.008339 126.728736 
L 283.404309 126.079783 
L 284.800278 125.164731 
L 286.002193 124.072072 
L 286.945856 122.907955 
L 287.773295 121.511015 
L 288.36012 120.114075 
L 288.81245 118.484312 
L 289.080215 116.621725 
L 289.117248 114.759138 
L 288.936275 112.896551 
L 288.522863 111.009815 
L 287.867064 109.171377 
L 287.126894 107.708159 
L 286.196247 106.328317 
L 285.03294 105.033178 
L 283.861913 104.049263 
L 282.473662 103.182137 
L 281.077693 102.564064 
L 279.449062 102.107374 
L 277.820431 101.900548 
L 276.1918 101.92815 
L 274.563169 102.192222 
L 272.934538 102.713126 
L 271.538568 103.396466 
L 270.142599 104.352319 
L 268.957886 105.446203 
L 267.991671 106.61032 
L 267.103274 108.00726 
L 266.34075 109.637024 
L 265.806647 111.266787 
L 265.429128 113.129374 
L 265.275057 114.991961 
L 265.340135 116.854548 
L 265.45819 117.785841 
L 265.45819 117.785841 
" style="fill:none;stroke:#440154;stroke-width:1.5;"/>
    <path clip-path="url(#pfbe546e12c)" d="M 321.093043 172.033686 
L 321.301711 173.896273 
L 321.738409 175.75886 
L 322.33309 177.388623 
L 323.189437 179.047298 
L 324.148975 180.415327 
L 325.283391 181.637016 
L 326.446699 182.588915 
L 327.849511 183.442031 
L 329.238638 184.037474 
L 330.867269 184.475366 
L 332.4959 184.665164 
L 334.124531 184.620993 
L 335.753162 184.339337 
L 337.149131 183.893519 
L 338.581582 183.209207 
L 339.968892 182.277914 
L 341.241631 181.113797 
L 342.267686 179.867884 
L 343.198332 178.364341 
L 343.896317 176.827868 
L 344.45342 175.060389 
L 344.802225 173.197803 
L 344.928582 171.335216 
L 344.826963 169.39378 
L 344.505628 167.610042 
L 343.98717 165.980278 
L 343.327714 164.583338 
L 342.500347 163.315084 
L 341.569701 162.247848 
L 340.406393 161.24866 
L 339.010424 160.375635 
L 337.435974 159.694047 
L 335.985823 159.282757 
L 334.357192 159.025419 
L 332.4959 158.968988 
L 330.634607 159.160857 
L 329.005976 159.548935 
L 327.377345 160.181643 
L 325.981376 160.97579 
L 324.818068 161.88102 
L 323.786774 162.953574 
L 322.946443 164.117691 
L 322.207674 165.514631 
L 321.618456 167.144395 
L 321.258374 168.774159 
L 321.079642 170.636745 
L 321.093043 172.033686 
L 321.093043 172.033686 
" style="fill:none;stroke:#440154;stroke-width:1.5;"/>
   </g>
   <g id="LineCollection_2">
    <path clip-path="url(#pfbe546e12c)" d="M 54 133.75231 
L 56.559277 133.640435 
L 58.885893 133.331989 
L 60.979847 132.856172 
L 62.87298 132.22089 
L 64.469771 131.483763 
L 65.926294 130.591127 
L 67.26171 129.511637 
L 68.433236 128.262893 
L 69.425742 126.865953 
L 70.292184 125.236189 
L 71.009653 123.373602 
L 71.564446 121.278192 
L 71.944523 118.949958 
L 72.132526 116.388901 
L 72.0998 113.595021 
L 71.829267 110.80114 
L 71.357957 108.240083 
L 70.713038 105.91185 
L 69.913729 103.816439 
L 68.978801 101.953853 
L 67.930515 100.324089 
L 66.796386 98.923977 
L 65.362477 97.530209 
L 63.815047 96.366092 
L 62.375817 95.522224 
L 60.514524 94.698737 
L 58.653231 94.121843 
L 56.559277 93.722218 
L 54.465323 93.55921 
L 54 93.55368 
L 54 93.55368 
" style="fill:none;stroke:#443983;stroke-width:1.5;"/>
    <path clip-path="url(#pfbe546e12c)" d="M 388.8 93.55368 
L 386.706046 93.666186 
L 384.612092 94.011435 
L 382.750799 94.533176 
L 380.889507 95.290408 
L 379.260876 96.188083 
L 377.716616 97.297385 
L 376.439957 98.461502 
L 375.219276 99.858442 
L 374.095702 101.488206 
L 373.097806 103.350793 
L 372.244798 105.446203 
L 371.553083 107.774437 
L 371.039729 110.335494 
L 370.745391 112.896551 
L 370.653183 115.690431 
L 370.782232 118.251488 
L 371.141394 120.812545 
L 371.646712 122.907955 
L 372.304804 124.770542 
L 373.099254 126.400306 
L 374.004783 127.797246 
L 375.072967 129.056313 
L 376.251502 130.12548 
L 377.632245 131.086847 
L 379.260876 131.939189 
L 381.122168 132.647634 
L 383.216122 133.196365 
L 385.542738 133.569687 
L 388.102015 133.744055 
L 388.8 133.75231 
L 388.8 133.75231 
" style="fill:none;stroke:#443983;stroke-width:1.5;"/>
    <path clip-path="url(#pfbe546e12c)" d="M 91.688293 172.732156 
L 91.938706 175.526036 
L 92.389317 178.087093 
L 93.01199 180.415327 
L 93.785228 182.510737 
L 94.715775 184.419229 
L 95.70393 186.003088 
L 96.809729 187.418059 
L 98.205698 188.827807 
L 99.641747 189.961085 
L 101.230299 190.935638 
L 103.091591 191.787803 
L 104.952884 192.388332 
L 107.046838 192.811014 
L 109.140792 192.995217 
L 111.234746 192.953652 
L 113.3287 192.683471 
L 115.189993 192.236502 
L 117.051286 191.567534 
L 118.863687 190.659555 
L 120.308548 189.709537 
L 121.704517 188.544241 
L 123.004577 187.167204 
L 124.056174 185.770264 
L 125.158298 183.907677 
L 126.006486 182.04509 
L 126.730695 179.94968 
L 127.30954 177.621446 
L 127.719753 175.060389 
L 127.93017 172.266509 
L 127.90273 169.472629 
L 127.653171 166.911572 
L 127.204652 164.583338 
L 126.569037 162.487928 
L 125.752675 160.625341 
L 124.925037 159.228401 
L 123.798471 157.792616 
L 122.632118 156.667344 
L 121.239194 155.642402 
L 119.610563 154.745763 
L 117.74927 154.001327 
L 115.589508 153.407816 
L 113.3287 153.022756 
L 110.769423 152.823623 
L 108.210146 152.850633 
L 105.650869 153.107406 
L 103.324253 153.569765 
L 101.230299 154.221953 
L 99.403264 155.03758 
L 97.973037 155.899775 
L 96.700815 156.900167 
L 95.561801 158.064284 
L 94.521165 159.461224 
L 93.729267 160.858164 
L 92.947424 162.720751 
L 92.339411 164.816161 
L 91.914178 167.144395 
L 91.68546 169.705452 
L 91.678202 172.499332 
L 91.688293 172.732156 
L 91.688293 172.732156 
" style="fill:none;stroke:#443983;stroke-width:1.5;"/>
    <path clip-path="url(#pfbe546e12c)" d="M 147.525608 117.553018 
L 147.818019 120.114075 
L 148.315295 122.442309 
L 148.925921 124.3246 
L 149.647144 125.934659 
L 150.636101 127.564423 
L 151.71786 128.893447 
L 152.881167 129.986989 
L 154.277137 130.991186 
L 155.905768 131.868458 
L 157.76706 132.59731 
L 159.861015 133.163363 
L 162.18763 133.551486 
L 164.746908 133.739975 
L 167.306185 133.702827 
L 169.865462 133.435064 
L 172.192078 132.960543 
L 174.05337 132.381395 
L 175.914663 131.565168 
L 177.310632 130.739469 
L 178.706602 129.653516 
L 179.86991 128.458736 
L 180.878723 127.098776 
L 181.783751 125.469013 
L 182.532738 123.606426 
L 183.127172 121.450774 
L 183.516041 119.182782 
L 183.724205 116.621725 
L 183.711484 113.827844 
L 183.461115 111.033964 
L 183.010429 108.472907 
L 182.38809 106.144673 
L 181.614471 104.049263 
L 180.709422 102.186676 
L 179.637248 100.473102 
L 178.398887 98.927149 
L 177.077971 97.62978 
L 175.682001 96.545838 
L 174.05337 95.562682 
L 172.192078 94.727799 
L 170.330785 94.141499 
L 168.236831 93.732682 
L 166.142877 93.561209 
L 164.048923 93.61526 
L 161.954969 93.898535 
L 160.093676 94.358441 
L 158.232384 95.042558 
L 156.53642 95.900445 
L 154.975122 96.937435 
L 153.473618 98.228679 
L 152.183183 99.650862 
L 151.019875 101.287223 
L 150.008767 103.117969 
L 149.127701 105.21338 
L 148.411906 107.541613 
L 147.876942 110.10267 
L 147.56361 112.663727 
L 147.452 115.457608 
L 147.525608 117.553018 
L 147.525608 117.553018 
" style="fill:none;stroke:#443983;stroke-width:1.5;"/>
    <path clip-path="url(#pfbe546e12c)" d="M 203.363513 173.896273 
L 203.676912 176.45733 
L 204.211979 179.018387 
L 204.927809 181.34662 
L 205.808798 183.442031 
L 206.858652 185.334293 
L 208.02196 186.957179 
L 209.273596 188.331321 
L 210.6091 189.495438 
L 212.209868 190.585433 
L 213.838499 191.431627 
L 215.699792 192.141377 
L 217.561084 192.623085 
L 219.655038 192.928323 
L 221.748992 193.00321 
L 223.842946 192.852872 
L 225.936901 192.466962 
L 227.798193 191.90406 
L 229.659486 191.097484 
L 231.288117 190.145652 
L 232.762301 189.029791 
L 234.080056 187.762898 
L 235.330326 186.235911 
L 236.406671 184.557486 
L 237.337318 182.690112 
L 238.112946 180.64815 
L 238.758105 178.319917 
L 239.229382 175.75886 
L 239.49976 172.964979 
L 239.532353 170.171099 
L 239.344404 167.610042 
L 238.964691 165.281808 
L 238.409501 163.186398 
L 237.691921 161.323811 
L 236.825807 159.694047 
L 235.832926 158.297107 
L 234.752212 157.13299 
L 233.382071 156.008242 
L 231.986101 155.138994 
L 230.272662 154.33911 
L 228.496178 153.736742 
L 226.402224 153.24918 
L 224.075608 152.930066 
L 221.516331 152.807919 
L 218.957054 152.909547 
L 216.630438 153.207404 
L 214.303822 153.736742 
L 212.44253 154.372987 
L 210.813899 155.138994 
L 209.417929 156.008242 
L 208.02196 157.157524 
L 206.858652 158.43185 
L 205.928006 159.769555 
L 205.108079 161.323811 
L 204.390499 163.186398 
L 203.834051 165.287825 
L 203.455596 167.610042 
L 203.267647 170.171099 
L 203.30024 172.964979 
L 203.363513 173.896273 
L 203.363513 173.896273 
" style="fill:none;stroke:#443983;stroke-width:1.5;"/>
    <path clip-path="url(#pfbe546e12c)" d="M 259.204543 118.484312 
L 259.541547 120.812545 
L 260.046753 122.907955 
L 260.704979 124.770542 
L 261.534121 126.461766 
L 262.464767 127.87749 
L 263.608465 129.194186 
L 264.791383 130.235099 
L 266.187352 131.179423 
L 267.815983 132.007957 
L 269.677276 132.69652 
L 271.77123 133.228309 
L 274.097846 133.586995 
L 276.657123 133.747318 
L 279.2164 133.683092 
L 281.779765 133.385007 
L 284.102293 132.877729 
L 286.072614 132.22089 
L 287.824878 131.399827 
L 289.220848 130.523998 
L 290.616817 129.365213 
L 291.780125 128.079182 
L 292.710771 126.726278 
L 293.491945 125.236189 
L 294.209492 123.373602 
L 294.764553 121.278192 
L 295.144391 118.949958 
L 295.3324 116.388901 
L 295.29985 113.595021 
L 295.029461 110.80114 
L 294.558144 108.240083 
L 293.874079 105.794076 
L 293.113781 103.816439 
L 292.178842 101.953853 
L 291.08214 100.257563 
L 289.783748 98.694325 
L 288.522863 97.496266 
L 287.014804 96.366092 
L 285.403959 95.434798 
L 283.63697 94.6701 
L 281.775678 94.102549 
L 279.681723 93.712077 
L 277.587769 93.55752 
L 275.493815 93.628237 
L 273.399861 93.929067 
L 271.538568 94.406391 
L 269.677276 95.110975 
L 268.048645 95.951592 
L 266.408967 97.064562 
L 265.024044 98.276944 
L 263.803768 99.625619 
L 262.640095 101.255382 
L 261.608758 103.117969 
L 260.813354 104.980556 
L 260.07289 107.30879 
L 259.515916 109.869847 
L 259.183562 112.430904 
L 259.052277 115.224784 
L 259.142744 117.785841 
L 259.204543 118.484312 
L 259.204543 118.484312 
" style="fill:none;stroke:#443983;stroke-width:1.5;"/>
    <path clip-path="url(#pfbe546e12c)" d="M 315.028503 174.594743 
L 315.399499 177.1558 
L 316.001386 179.716857 
L 316.793514 182.04509 
L 317.641702 183.907677 
L 318.743826 185.770264 
L 319.795423 187.167204 
L 321.116839 188.564145 
L 322.517005 189.728261 
L 324.120083 190.765077 
L 325.80434 191.590848 
L 327.610007 192.236502 
L 329.4713 192.683471 
L 331.565254 192.953652 
L 333.659208 192.995217 
L 335.753162 192.811014 
L 337.847116 192.388332 
L 339.708409 191.787803 
L 341.569701 190.935638 
L 343.198332 189.933227 
L 344.628664 188.796968 
L 346.005931 187.400028 
L 347.255953 185.770264 
L 348.316887 183.987392 
L 349.206609 182.04509 
L 349.945518 179.899905 
L 350.509377 177.621446 
L 350.919728 175.060389 
L 351.130264 172.266509 
L 351.102923 169.472629 
L 350.853323 166.911572 
L 350.404862 164.583338 
L 349.768928 162.487928 
L 349.014871 160.746861 
L 348.084225 159.168495 
L 347.033484 157.83146 
L 345.831766 156.667344 
L 344.584098 155.73605 
L 342.934428 154.804757 
L 341.104378 154.054054 
L 339.010424 153.457431 
L 336.683808 153.042539 
L 334.124531 152.829138 
L 331.565254 152.842641 
L 329.005976 153.084855 
L 326.679361 153.531186 
L 324.585407 154.164342 
L 322.724114 154.9749 
L 321.328145 155.794443 
L 319.900594 156.900167 
L 318.761505 158.064284 
L 317.721313 159.461224 
L 316.816325 161.090987 
L 316.067253 162.953574 
L 315.486094 165.048985 
L 315.083877 167.377218 
L 314.875748 169.938275 
L 314.888487 172.732156 
L 315.028503 174.594743 
L 315.028503 174.594743 
" style="fill:none;stroke:#443983;stroke-width:1.5;"/>
   </g>
   <g id="LineCollection_3">
    <path clip-path="url(#pfbe546e12c)" d="M 54 138.708809 
L 57.722585 138.603816 
L 61.212509 138.292532 
L 64.237109 137.798662 
L 66.563725 137.209105 
L 68.425017 136.538405 
L 70.085243 135.713241 
L 71.461581 134.781947 
L 72.612926 133.738824 
L 73.543572 132.628627 
L 74.474218 131.14592 
L 75.172203 129.646442 
L 75.870188 127.577805 
L 76.368607 125.469013 
L 76.806784 122.675132 
L 77.10889 119.182782 
L 77.210934 115.224784 
L 77.08483 111.033964 
L 76.739576 107.075967 
L 76.214368 103.583616 
L 75.536878 100.556912 
L 74.70688 97.900447 
L 73.770772 95.667622 
L 72.757088 93.805035 
L 71.629411 92.175271 
L 70.28631 90.647104 
L 68.875566 89.381391 
L 67.227906 88.217274 
L 65.400417 87.216581 
L 63.306463 86.351873 
L 61.212509 85.719903 
L 58.885893 85.238861 
L 56.326616 84.938003 
L 54 84.851583 
L 54 84.851583 
" style="fill:none;stroke:#31688e;stroke-width:1.5;"/>
    <path clip-path="url(#pfbe546e12c)" d="M 388.8 84.851583 
L 386.224063 84.957747 
L 383.681445 85.277521 
L 381.35483 85.780065 
L 379.028214 86.521755 
L 376.93426 87.44688 
L 375.20856 88.450097 
L 373.639701 89.614214 
L 372.163294 91.011154 
L 370.992705 92.408095 
L 369.901939 94.037858 
L 368.919162 95.900445 
L 368.058589 97.995855 
L 367.263122 100.556912 
L 366.629512 103.350793 
L 366.117302 106.61032 
L 365.75925 110.335494 
L 365.596842 114.293491 
L 365.646396 118.251488 
L 365.913907 121.976662 
L 366.343135 125.003366 
L 366.929812 127.577805 
L 367.63318 129.659833 
L 368.403901 131.289597 
L 369.299155 132.686537 
L 370.419736 133.974593 
L 371.645633 135.014771 
L 373.131664 135.946064 
L 374.631444 136.644534 
L 376.701598 137.34597 
L 379.028214 137.891722 
L 381.820153 138.320821 
L 385.310076 138.616738 
L 388.8 138.708809 
L 388.8 138.708809 
" style="fill:none;stroke:#31688e;stroke-width:1.5;"/>
    <path clip-path="url(#pfbe546e12c)" d="M 86.792513 176.690153 
L 87.177931 180.415327 
L 87.735928 183.748123 
L 88.456724 186.701558 
L 89.321203 189.262615 
L 90.259888 191.358025 
L 91.225851 193.046819 
L 92.389159 194.660168 
L 93.785129 196.179881 
L 95.222689 197.411433 
L 96.809729 198.488573 
L 98.671022 199.470762 
L 100.764976 200.302269 
L 103.091591 200.962651 
L 105.418207 201.39829 
L 107.977484 201.655536 
L 110.536762 201.699806 
L 113.096039 201.534417 
L 115.702763 201.136606 
L 117.981932 200.573368 
L 120.075886 199.840434 
L 121.937179 198.971498 
L 123.736622 197.877079 
L 125.232783 196.712962 
L 126.650277 195.316022 
L 127.779328 193.919082 
L 128.917026 192.145332 
L 129.891866 190.193908 
L 130.782902 187.865675 
L 131.515394 185.304618 
L 132.138908 182.277914 
L 132.618078 178.785563 
L 132.922222 174.827566 
L 133.009067 170.636745 
L 132.866279 166.678748 
L 132.516303 163.186398 
L 132.022484 160.392517 
L 131.391188 158.064284 
L 130.665474 156.201697 
L 129.78175 154.571933 
L 128.737044 153.174993 
L 127.753718 152.187976 
L 126.59041 151.28918 
L 125.014181 150.381113 
L 123.333148 149.672825 
L 121.239194 149.037714 
L 118.679917 148.508439 
L 115.655316 148.118543 
L 112.165393 147.893116 
L 108.210146 147.870054 
L 104.487561 148.069291 
L 101.230299 148.458297 
L 98.43836 149.018166 
L 96.240029 149.682643 
L 94.483113 150.431986 
L 92.975505 151.312406 
L 91.691174 152.327625 
L 90.664651 153.407816 
L 89.818136 154.571933 
L 88.934449 156.201697 
L 88.286865 157.83146 
L 87.684765 159.926871 
L 87.18603 162.487928 
L 86.823618 165.514631 
L 86.614817 169.239805 
L 86.616149 173.197803 
L 86.792513 176.690153 
L 86.792513 176.690153 
" style="fill:none;stroke:#31688e;stroke-width:1.5;"/>
    <path clip-path="url(#pfbe546e12c)" d="M 142.408858 117.087371 
L 142.603711 120.812545 
L 142.986038 124.072072 
L 143.541589 126.865953 
L 144.168176 128.961363 
L 144.970674 130.848163 
L 145.90132 132.412093 
L 146.872914 133.61783 
L 147.995274 134.667464 
L 149.391244 135.640294 
L 150.883448 136.411711 
L 152.720925 137.110181 
L 154.975122 137.715301 
L 157.76706 138.210848 
L 161.024322 138.548656 
L 164.746908 138.703391 
L 168.702154 138.63631 
L 172.192078 138.365371 
L 175.216678 137.921213 
L 177.775956 137.323879 
L 179.86991 136.603182 
L 181.498541 135.819847 
L 182.89451 134.910473 
L 184.104438 133.850654 
L 185.100768 132.686537 
L 185.996101 131.289597 
L 186.766695 129.659833 
L 187.40734 127.797246 
L 187.96859 125.469013 
L 188.406699 122.675132 
L 188.69562 119.415605 
L 188.810418 115.690431 
L 188.71057 111.499611 
L 188.392752 107.541613 
L 187.898533 104.049263 
L 187.257498 101.022559 
L 186.504511 98.461502 
L 185.587866 96.133268 
L 184.523141 94.079826 
L 183.359833 92.344821 
L 182.014922 90.778331 
L 180.760286 89.614214 
L 179.171925 88.436992 
L 177.310632 87.368386 
L 175.44934 86.551324 
L 173.355386 85.864215 
L 171.02877 85.332283 
L 168.469493 84.983267 
L 165.910215 84.853109 
L 163.350938 84.9323 
L 160.791661 85.226426 
L 158.465045 85.700399 
L 156.138429 86.407103 
L 154.044475 87.291816 
L 152.183183 88.336317 
L 150.554552 89.518773 
L 149.158582 90.805412 
L 147.970508 92.175271 
L 146.831967 93.822515 
L 145.82937 95.667622 
L 144.943651 97.763032 
L 144.125924 100.324089 
L 143.474685 103.117969 
L 142.947121 106.377497 
L 142.575565 110.10267 
L 142.400529 114.060668 
L 142.408858 117.087371 
L 142.408858 117.087371 
" style="fill:none;stroke:#31688e;stroke-width:1.5;"/>
    <path clip-path="url(#pfbe546e12c)" d="M 198.246948 174.129096 
L 198.511346 178.087093 
L 198.98387 181.812267 
L 199.628261 185.071794 
L 200.344128 187.642592 
L 201.20722 189.961085 
L 202.20542 192.007049 
L 203.254706 193.686259 
L 204.344083 195.083199 
L 205.706113 196.480139 
L 207.323975 197.779951 
L 208.963149 198.808373 
L 210.881936 199.739666 
L 212.907853 200.478784 
L 215.234468 201.082936 
L 217.793746 201.499743 
L 220.353023 201.691017 
L 222.9123 201.672056 
L 225.471577 201.441442 
L 228.030855 200.980604 
L 230.35747 200.328409 
L 232.451425 199.506145 
L 234.312717 198.534913 
L 235.977335 197.411433 
L 237.344151 196.247316 
L 238.733287 194.755108 
L 239.896595 193.166902 
L 240.940018 191.358025 
L 241.87873 189.262615 
L 242.688534 186.889072 
L 243.386518 184.120125 
L 243.957515 180.880974 
L 244.37105 177.1558 
L 244.583864 173.197803 
L 244.585192 169.239805 
L 244.376333 165.514631 
L 243.976995 162.255104 
L 243.458363 159.694047 
L 242.83183 157.598637 
L 242.04149 155.73605 
L 241.229539 154.33911 
L 240.33711 153.174993 
L 239.148113 152.010876 
L 237.802641 151.037844 
L 236.17401 150.173995 
L 234.312717 149.460601 
L 232.218763 148.888352 
L 229.659486 148.41068 
L 226.402224 148.043661 
L 222.679639 147.863396 
L 218.724392 147.904946 
L 215.001807 148.17354 
L 211.977206 148.602945 
L 209.417929 149.181548 
L 207.323975 149.878437 
L 205.695344 150.633367 
L 204.245612 151.545229 
L 203.131887 152.476523 
L 202.076999 153.64064 
L 201.135452 155.03758 
L 200.329301 156.667344 
L 199.646143 158.581877 
L 199.078266 160.858164 
L 198.622174 163.652045 
L 198.318667 166.911572 
L 198.19091 170.636745 
L 198.246948 174.129096 
L 198.246948 174.129096 
" style="fill:none;stroke:#31688e;stroke-width:1.5;"/>
    <path clip-path="url(#pfbe546e12c)" d="M 254.078576 118.949958 
L 254.365631 122.442309 
L 254.83141 125.469013 
L 255.39266 127.797246 
L 256.129373 129.892656 
L 256.93541 131.52242 
L 257.876964 132.91936 
L 258.974844 134.124157 
L 260.138151 135.081787 
L 261.534121 135.947527 
L 263.162752 136.696885 
L 265.256706 137.389146 
L 267.583322 137.921213 
L 270.375261 138.339026 
L 273.865184 138.624859 
L 277.587769 138.707691 
L 281.310354 138.580278 
L 284.800278 138.242555 
L 287.592217 137.765935 
L 289.918833 137.16114 
L 291.916552 136.411711 
L 293.408756 135.640294 
L 294.804726 134.667464 
L 295.968033 133.573452 
L 296.89868 132.412093 
L 297.72159 131.056773 
L 298.458812 129.42701 
L 299.073848 127.564423 
L 299.61358 125.236189 
L 300.034326 122.442309 
L 300.321355 118.949958 
L 300.410122 114.991961 
L 300.27084 110.80114 
L 299.911682 106.843143 
L 299.370472 103.350793 
L 298.674076 100.324089 
L 297.829326 97.690334 
L 296.89868 95.519002 
L 295.957254 93.805035 
L 294.804726 92.143347 
L 293.615002 90.778331 
L 292.245448 89.518773 
L 290.616817 88.336317 
L 288.743447 87.285981 
L 286.894232 86.492552 
L 284.800278 85.82157 
L 282.473662 85.304438 
L 279.914385 84.969395 
L 277.355108 84.851965 
L 274.625415 84.957747 
L 272.236553 85.251521 
L 269.909937 85.739681 
L 267.583322 86.463712 
L 265.489368 87.368386 
L 263.608298 88.450097 
L 261.999444 89.647751 
L 260.563174 91.011154 
L 259.39262 92.408095 
L 258.276859 94.079826 
L 257.319055 95.900445 
L 256.415566 98.116011 
L 255.663084 100.556912 
L 255.019597 103.402508 
L 254.517248 106.61032 
L 254.159328 110.335494 
L 253.996858 114.293491 
L 254.046354 118.251488 
L 254.078576 118.949958 
L 254.078576 118.949958 
" style="fill:none;stroke:#31688e;stroke-width:1.5;"/>
    <path clip-path="url(#pfbe546e12c)" d="M 309.915119 175.526036 
L 310.260447 179.484033 
L 310.785615 182.976384 
L 311.463119 186.003088 
L 312.258519 188.564145 
L 313.18499 190.799771 
L 314.242921 192.754965 
L 315.370652 194.384729 
L 316.674913 195.873729 
L 318.124597 197.178609 
L 319.772244 198.342726 
L 321.560806 199.324774 
L 323.65476 200.194431 
L 325.748714 200.830243 
L 328.07533 201.314838 
L 330.634607 201.619071 
L 333.193885 201.707821 
L 335.753162 201.587212 
L 338.312439 201.248688 
L 340.639055 200.727877 
L 342.942735 199.97249 
L 344.826963 199.132927 
L 346.688256 198.046195 
L 348.316887 196.813535 
L 349.712856 195.467221 
L 350.979186 193.919082 
L 352.039472 192.281082 
L 352.987993 190.426732 
L 353.904659 188.098498 
L 354.657498 185.537441 
L 355.298653 182.510737 
L 355.792806 179.018387 
L 356.110465 175.060389 
L 356.21049 170.869569 
L 356.081323 166.911572 
L 355.747794 163.419221 
L 355.273144 160.625341 
L 354.666161 158.297107 
L 353.970286 156.43452 
L 353.126589 154.804757 
L 352.135349 153.407816 
L 351.016306 152.2437 
L 349.712856 151.237326 
L 348.214085 150.381113 
L 346.455594 149.645092 
L 344.22395 148.984172 
L 341.802363 148.495661 
L 338.777762 148.111162 
L 335.287839 147.890393 
L 331.332592 147.871946 
L 327.610007 148.075985 
L 324.352745 148.470592 
L 321.775694 148.984172 
L 319.466852 149.672825 
L 317.785819 150.381113 
L 316.20959 151.28918 
L 314.983653 152.2437 
L 313.864513 153.407816 
L 312.873413 154.804757 
L 312.021682 156.452607 
L 311.323697 158.3292 
L 310.726933 160.625341 
L 310.252288 163.419221 
L 309.927728 166.770622 
L 309.793028 170.403922 
L 309.856555 174.361919 
L 309.915119 175.526036 
L 309.915119 175.526036 
" style="fill:none;stroke:#31688e;stroke-width:1.5;"/>
   </g>
   <g id="LineCollection_4">
    <path clip-path="url(#pfbe546e12c)" d="M 54 143.28 
L 81.686727 143.28 
L 81.9 143.163588 
L 81.919388 59.58 
L 137.525504 59.58 
L 137.699999 59.812823 
L 137.699999 143.163588 
L 137.525504 143.28 
L 81.919388 143.28 
L 81.9 143.862058 
L 81.9 226.747177 
L 81.686727 226.98 
L 54 226.98 
L 54 226.98 
" style="fill:none;stroke:#21908d;stroke-width:1.5;"/>
    <path clip-path="url(#pfbe546e12c)" d="M 388.8 226.98 
L 361.113273 226.98 
L 360.9 226.747177 
L 360.880612 143.28 
L 305.274496 143.28 
L 305.100001 143.163588 
L 305.100001 59.812823 
L 305.274496 59.58 
L 360.880612 59.58 
L 360.9 60.97694 
L 360.9 143.163588 
L 361.113273 143.28 
L 388.8 143.28 
L 388.8 143.28 
" style="fill:none;stroke:#21908d;stroke-width:1.5;"/>
    <path clip-path="url(#pfbe546e12c)" d="M 137.699999 226.747177 
L 137.758165 143.28 
L 193.364281 143.28 
L 193.5 143.163588 
L 193.596942 59.58 
L 249.203058 59.58 
L 249.3 60.045647 
L 249.3 143.163588 
L 249.435719 143.28 
L 305.041835 143.28 
L 305.100001 143.629235 
L 305.041835 226.98 
L 249.435719 226.98 
L 249.3 226.747177 
L 249.203058 143.28 
L 193.596942 143.28 
L 193.5 143.396412 
L 193.5 226.747177 
L 193.364281 226.98 
L 137.758165 226.98 
L 137.699999 226.747177 
L 137.699999 226.747177 
" style="fill:none;stroke:#21908d;stroke-width:1.5;"/>
   </g>
   <g id="LineCollection_5">
    <path clip-path="url(#pfbe546e12c)" d="M 54 147.851191 
L 57.722585 147.956184 
L 61.212509 148.267468 
L 64.237109 148.761338 
L 66.563725 149.350895 
L 68.425017 150.021595 
L 70.085243 150.846759 
L 71.461581 151.778053 
L 72.612926 152.821176 
L 73.543572 153.931373 
L 74.474218 155.41408 
L 75.172203 156.913558 
L 75.870188 158.982195 
L 76.368607 161.090987 
L 76.806784 163.884868 
L 77.10889 167.377218 
L 77.210934 171.335216 
L 77.08483 175.526036 
L 76.739576 179.484033 
L 76.214368 182.976384 
L 75.536878 186.003088 
L 74.70688 188.659553 
L 73.770772 190.892378 
L 72.757088 192.754965 
L 71.629411 194.384729 
L 70.28631 195.912896 
L 68.875566 197.178609 
L 67.227906 198.342726 
L 65.400417 199.343419 
L 63.306463 200.208127 
L 61.212509 200.840097 
L 58.885893 201.321139 
L 56.326616 201.621997 
L 54 201.708417 
L 54 201.708417 
" style="fill:none;stroke:#35b779;stroke-width:1.5;"/>
    <path clip-path="url(#pfbe546e12c)" d="M 388.8 201.708417 
L 386.224063 201.602253 
L 383.681445 201.282479 
L 381.35483 200.779935 
L 379.028214 200.038245 
L 376.93426 199.11312 
L 375.20856 198.109903 
L 373.639701 196.945786 
L 372.163294 195.548846 
L 370.992705 194.151905 
L 369.901939 192.522142 
L 368.919162 190.659555 
L 368.058589 188.564145 
L 367.263122 186.003088 
L 366.629512 183.209207 
L 366.117302 179.94968 
L 365.75925 176.224506 
L 365.596842 172.266509 
L 365.646396 168.308512 
L 365.913907 164.583338 
L 366.343135 161.556634 
L 366.929812 158.982195 
L 367.63318 156.900167 
L 368.403901 155.270403 
L 369.299155 153.873463 
L 370.419736 152.585407 
L 371.645633 151.545229 
L 373.131664 150.613936 
L 374.631444 149.915466 
L 376.701598 149.21403 
L 379.028214 148.668278 
L 381.820153 148.239179 
L 385.310076 147.943262 
L 388.8 147.851191 
L 388.8 147.851191 
" style="fill:none;stroke:#35b779;stroke-width:1.5;"/>
    <path clip-path="url(#pfbe546e12c)" d="M 86.803653 120.812545 
L 86.608908 117.087371 
L 86.622787 113.129374 
L 86.848325 109.171377 
L 87.276166 105.446203 
L 87.868395 102.186676 
L 88.595048 99.392796 
L 89.413825 97.064562 
L 90.380584 94.969152 
L 91.493995 93.106565 
L 92.744182 91.476801 
L 94.106353 90.079861 
L 95.646421 88.835204 
L 97.363497 87.751627 
L 99.136345 86.881979 
L 101.230299 86.105641 
L 103.556915 85.493488 
L 106.116192 85.069446 
L 108.675469 84.871661 
L 111.234746 84.884301 
L 113.794024 85.10831 
L 116.353301 85.561703 
L 118.679917 86.205782 
L 120.849421 87.053157 
L 122.643829 87.984451 
L 124.377165 89.148567 
L 125.743906 90.312684 
L 127.055733 91.711447 
L 128.26133 93.339388 
L 129.340095 95.201975 
L 130.18612 97.064562 
L 131.01098 99.412205 
L 131.731689 102.186676 
L 132.323735 105.446203 
L 132.731445 108.938554 
L 132.96983 112.896551 
L 132.991043 117.087371 
L 132.796255 120.812545 
L 132.406949 124.117229 
L 131.858354 126.865953 
L 131.23194 128.961363 
L 130.441439 130.82395 
L 129.61501 132.242631 
L 128.684364 133.444657 
L 127.521056 134.571841 
L 126.125087 135.569935 
L 124.496456 136.420792 
L 122.635163 137.124364 
L 120.308548 137.740853 
L 117.516609 138.226862 
L 114.259347 138.556912 
L 110.536762 138.704769 
L 106.581515 138.630694 
L 103.091591 138.352341 
L 100.066991 137.899164 
L 97.507714 137.290198 
L 95.41376 136.554761 
L 93.714869 135.713241 
L 92.338542 134.781947 
L 91.225851 133.779164 
L 90.295205 132.681353 
L 89.364559 131.217767 
L 88.63324 129.659833 
L 87.968589 127.714028 
L 87.431438 125.469013 
L 86.993274 122.675132 
L 86.803653 120.812545 
L 86.803653 120.812545 
" style="fill:none;stroke:#35b779;stroke-width:1.5;"/>
    <path clip-path="url(#pfbe546e12c)" d="M 142.410176 172.964979 
L 142.421458 169.006982 
L 142.644546 165.281808 
L 143.061435 162.022281 
L 143.600688 159.461224 
L 144.272689 157.312686 
L 145.07841 155.503227 
L 145.930512 154.106287 
L 146.872914 152.94217 
L 147.995274 151.892536 
L 149.391244 150.919706 
L 150.883448 150.148289 
L 152.720925 149.449819 
L 154.975122 148.844699 
L 157.76706 148.349152 
L 161.024322 148.011344 
L 164.746908 147.856609 
L 168.702154 147.92369 
L 172.192078 148.194629 
L 175.216678 148.638787 
L 177.775956 149.236121 
L 179.86991 149.956818 
L 181.498541 150.740153 
L 182.89451 151.649527 
L 184.104438 152.709346 
L 185.100768 153.873463 
L 185.996101 155.270403 
L 186.766695 156.900167 
L 187.40734 158.762754 
L 187.96859 161.090987 
L 188.406699 163.884868 
L 188.69562 167.144395 
L 188.810418 170.869569 
L 188.71057 175.060389 
L 188.392752 179.018387 
L 187.898533 182.510737 
L 187.257498 185.537441 
L 186.504511 188.098498 
L 185.587866 190.426732 
L 184.523141 192.480174 
L 183.359833 194.215179 
L 182.014922 195.781669 
L 180.760286 196.945786 
L 179.171925 198.123008 
L 177.310632 199.191614 
L 175.44934 200.008676 
L 173.355386 200.695785 
L 171.02877 201.227717 
L 168.469493 201.576733 
L 165.910215 201.706891 
L 163.350938 201.6277 
L 160.791661 201.333574 
L 158.465045 200.859601 
L 156.138429 200.152897 
L 154.044475 199.268184 
L 152.183183 198.223683 
L 150.554552 197.041227 
L 149.158582 195.754588 
L 147.970508 194.384729 
L 146.831967 192.737485 
L 145.82937 190.892378 
L 144.943651 188.796968 
L 144.125924 186.235911 
L 143.474685 183.442031 
L 142.947121 180.182503 
L 142.575565 176.45733 
L 142.410176 172.964979 
L 142.410176 172.964979 
" style="fill:none;stroke:#35b779;stroke-width:1.5;"/>
    <path clip-path="url(#pfbe546e12c)" d="M 198.246299 118.251488 
L 198.196832 114.293491 
L 198.359343 110.335494 
L 198.71719 106.61032 
L 199.274683 103.117969 
L 199.990481 100.091266 
L 200.831145 97.530209 
L 201.742779 95.434798 
L 202.788441 93.572211 
L 203.954999 91.942448 
L 205.230021 90.531258 
L 206.62599 89.300651 
L 208.254621 88.165893 
L 210.115914 87.16133 
L 212.209868 86.311016 
L 214.536484 85.634042 
L 216.863099 85.184597 
L 219.422377 84.913897 
L 221.981654 84.856948 
L 224.540931 85.009483 
L 227.100208 85.383279 
L 229.426824 85.941166 
L 231.520778 86.657168 
L 233.404396 87.518804 
L 235.010702 88.462488 
L 236.639333 89.680427 
L 238.036978 91.011154 
L 239.207502 92.408095 
L 240.361918 94.145585 
L 241.387868 96.133268 
L 242.224216 98.228679 
L 242.998009 100.789736 
L 243.657105 103.816439 
L 244.166608 107.30879 
L 244.484816 111.033964 
L 244.610078 114.991961 
L 244.521396 118.949958 
L 244.234335 122.442309 
L 243.768553 125.469013 
L 243.153857 127.978123 
L 242.455872 129.927596 
L 241.664548 131.52242 
L 240.723001 132.91936 
L 239.663933 134.087466 
L 238.500625 135.053913 
L 237.068453 135.946064 
L 235.476025 136.681563 
L 233.382071 137.378452 
L 231.055455 137.91391 
L 228.263516 138.334523 
L 224.773593 138.622865 
L 221.051008 138.707903 
L 217.328423 138.582746 
L 213.838499 138.247716 
L 211.04656 137.774193 
L 208.719944 137.173245 
L 206.858652 136.488675 
L 205.230021 135.663405 
L 203.834051 134.698825 
L 202.670744 133.615618 
L 201.730457 132.453713 
L 200.809451 130.924095 
L 200.05286 129.194186 
L 199.400662 127.098776 
L 198.861468 124.537719 
L 198.466579 121.511015 
L 198.246299 118.251488 
L 198.246299 118.251488 
" style="fill:none;stroke:#35b779;stroke-width:1.5;"/>
    <path clip-path="url(#pfbe546e12c)" d="M 254.077726 174.827566 
L 253.990933 170.636745 
L 254.133777 166.678748 
L 254.483679 163.186398 
L 254.977477 160.392517 
L 255.608821 158.064284 
L 256.334511 156.201697 
L 257.218281 154.571933 
L 258.064519 153.407816 
L 259.207505 152.222286 
L 260.375252 151.312406 
L 261.766782 150.490885 
L 263.395413 149.773259 
L 265.489368 149.10807 
L 268.048645 148.554623 
L 271.073245 148.145306 
L 274.563169 147.903385 
L 278.285754 147.859973 
L 282.008339 148.02857 
L 285.265601 148.382158 
L 288.05754 148.897246 
L 290.384156 149.550785 
L 292.245448 150.299737 
L 293.66934 151.079583 
L 295.037387 152.086741 
L 296.200695 153.248344 
L 297.181776 154.571933 
L 298.065624 156.201697 
L 298.791255 158.064284 
L 299.369882 160.159694 
L 299.849487 162.720751 
L 300.215204 165.980278 
L 300.39626 169.705452 
L 300.3699 173.663449 
L 300.131507 177.621446 
L 299.68902 181.34662 
L 299.079747 184.606147 
L 298.332973 187.400028 
L 297.490824 189.728261 
L 296.495094 191.823672 
L 295.50271 193.45847 
L 294.255838 195.083199 
L 292.893732 196.480139 
L 291.314802 197.752464 
L 289.636625 198.808373 
L 287.717971 199.739666 
L 285.730924 200.466611 
L 283.404309 201.074755 
L 280.845031 201.495174 
L 278.285754 201.689702 
L 275.726477 201.673902 
L 273.167199 201.446593 
L 270.607922 200.989483 
L 268.281306 200.341355 
L 266.150397 199.506843 
L 264.32606 198.557864 
L 262.622789 197.411433 
L 261.256005 196.247316 
L 259.90549 194.802015 
L 258.738551 193.220612 
L 257.659965 191.358025 
L 256.721248 189.262615 
L 255.924905 186.934381 
L 255.217876 184.140501 
L 254.642479 180.880974 
L 254.228977 177.1558 
L 254.077726 174.827566 
L 254.077726 174.827566 
" style="fill:none;stroke:#35b779;stroke-width:1.5;"/>
    <path clip-path="url(#pfbe546e12c)" d="M 309.918594 119.648428 
L 309.790933 115.923255 
L 309.866802 111.965257 
L 310.160389 107.979539 
L 310.625712 104.491842 
L 311.228354 101.488206 
L 312.017098 98.694325 
L 312.807241 96.598915 
L 313.833126 94.503505 
L 314.854609 92.873741 
L 316.149723 91.243978 
L 317.372898 90.019173 
L 318.768867 88.891092 
L 320.397498 87.844499 
L 322.258791 86.915511 
L 324.379631 86.121864 
L 326.679361 85.510162 
L 329.238638 85.078845 
L 331.797915 84.874531 
L 334.357192 84.880851 
L 336.91647 85.098276 
L 339.475747 85.544268 
L 341.802363 86.1803 
L 343.896317 86.983831 
L 345.843489 87.984451 
L 347.38624 89.004575 
L 348.943928 90.312684 
L 350.25398 91.709624 
L 351.461239 93.339388 
L 352.540112 95.201975 
L 353.478797 97.297385 
L 354.27501 99.625619 
L 354.982069 102.419499 
L 355.557583 105.679026 
L 355.971086 109.4042 
L 356.183851 113.362197 
L 356.185183 117.320195 
L 355.976382 121.045369 
L 355.577036 124.304896 
L 355.058462 126.865953 
L 354.366088 129.142952 
L 353.641535 130.82395 
L 352.737457 132.356165 
L 351.727017 133.61783 
L 350.643502 134.635849 
L 349.247533 135.617014 
L 347.618902 136.454962 
L 345.757609 137.148959 
L 343.430994 137.757626 
L 340.639055 138.237359 
L 337.381793 138.562286 
L 333.659208 138.705575 
L 329.703961 138.626828 
L 326.214038 138.343496 
L 323.189437 137.884233 
L 320.63016 137.26739 
L 318.536206 136.521939 
L 316.907575 135.709122 
L 315.511605 134.760792 
L 314.272977 133.61783 
L 313.330605 132.453713 
L 312.478267 131.056773 
L 311.741161 129.42701 
L 311.062159 127.331599 
L 310.501501 124.770542 
L 310.089721 121.743839 
L 309.918594 119.648428 
L 309.918594 119.648428 
" style="fill:none;stroke:#35b779;stroke-width:1.5;"/>
   </g>
   <g id="LineCollection_6">
    <path clip-path="url(#pfbe546e12c)" d="M 54 152.80769 
L 56.559277 152.919565 
L 58.885893 153.228011 
L 60.979847 153.703828 
L 62.87298 154.33911 
L 64.469771 155.076237 
L 65.926294 155.968873 
L 67.26171 157.048363 
L 68.433236 158.297107 
L 69.425742 159.694047 
L 70.292184 161.323811 
L 71.009653 163.186398 
L 71.564446 165.281808 
L 71.944523 167.610042 
L 72.132526 170.171099 
L 72.0998 172.964979 
L 71.829267 175.75886 
L 71.357957 178.319917 
L 70.713038 180.64815 
L 69.913729 182.743561 
L 68.978801 184.606147 
L 67.930515 186.235911 
L 66.796386 187.636023 
L 65.362477 189.029791 
L 63.815047 190.193908 
L 62.375817 191.037776 
L 60.514524 191.861263 
L 58.653231 192.438157 
L 56.559277 192.837782 
L 54.465323 193.00079 
L 54 193.00632 
L 54 193.00632 
" style="fill:none;stroke:#90d743;stroke-width:1.5;"/>
    <path clip-path="url(#pfbe546e12c)" d="M 388.8 193.00632 
L 386.706046 192.893814 
L 384.612092 192.548565 
L 382.750799 192.026824 
L 380.889507 191.269592 
L 379.260876 190.371917 
L 377.716616 189.262615 
L 376.439957 188.098498 
L 375.219276 186.701558 
L 374.095702 185.071794 
L 373.097806 183.209207 
L 372.244798 181.113797 
L 371.553083 178.785563 
L 371.039729 176.224506 
L 370.745391 173.663449 
L 370.653183 170.869569 
L 370.782232 168.308512 
L 371.141394 165.747455 
L 371.646712 163.652045 
L 372.304804 161.789458 
L 373.099254 160.159694 
L 374.004783 158.762754 
L 375.072967 157.503687 
L 376.251502 156.43452 
L 377.632245 155.473153 
L 379.260876 154.620811 
L 381.122168 153.912366 
L 383.216122 153.363635 
L 385.542738 152.990313 
L 388.102015 152.815945 
L 388.8 152.80769 
L 388.8 152.80769 
" style="fill:none;stroke:#90d743;stroke-width:1.5;"/>
    <path clip-path="url(#pfbe546e12c)" d="M 91.68546 116.854548 
L 91.678202 114.060668 
L 91.908585 111.266787 
L 92.339025 108.70573 
L 92.939435 106.377497 
L 93.687963 104.282086 
L 94.564162 102.419499 
L 95.646421 100.639479 
L 96.809729 99.141941 
L 98.205698 97.732193 
L 99.641747 96.598915 
L 101.230299 95.624362 
L 103.091591 94.772197 
L 104.952884 94.171668 
L 107.046838 93.748986 
L 109.140792 93.564783 
L 111.234746 93.606348 
L 113.3287 93.876529 
L 115.189993 94.323498 
L 117.051286 94.992466 
L 118.863687 95.900445 
L 120.308548 96.850463 
L 121.704517 98.015759 
L 123.004577 99.392796 
L 124.056174 100.789736 
L 125.158298 102.652323 
L 126.006486 104.51491 
L 126.730695 106.61032 
L 127.30954 108.938554 
L 127.719753 111.499611 
L 127.93017 114.293491 
L 127.90273 117.087371 
L 127.653171 119.648428 
L 127.204652 121.976662 
L 126.569037 124.072072 
L 125.752675 125.934659 
L 124.925037 127.331599 
L 123.798471 128.767384 
L 122.632118 129.892656 
L 121.239194 130.917598 
L 119.610563 131.814237 
L 117.74927 132.558673 
L 115.589508 133.152184 
L 113.3287 133.537244 
L 110.769423 133.736377 
L 108.210146 133.709367 
L 105.650869 133.452594 
L 103.324253 132.990235 
L 101.230299 132.338047 
L 99.403264 131.52242 
L 97.973037 130.660225 
L 96.700815 129.659833 
L 95.561801 128.495716 
L 94.521165 127.098776 
L 93.729267 125.701836 
L 92.947424 123.839249 
L 92.339411 121.743839 
L 91.914178 119.415605 
L 91.68546 116.854548 
L 91.68546 116.854548 
" style="fill:none;stroke:#90d743;stroke-width:1.5;"/>
    <path clip-path="url(#pfbe546e12c)" d="M 147.52849 173.430626 
L 147.456439 170.636745 
L 147.604739 168.075688 
L 147.941478 165.747455 
L 148.460598 163.605084 
L 149.158582 161.662661 
L 149.899129 160.159694 
L 150.804544 158.762754 
L 151.950521 157.424321 
L 153.113829 156.385322 
L 154.509798 155.426579 
L 156.170689 154.571933 
L 158.045542 153.873463 
L 160.093676 153.347532 
L 162.420292 152.981548 
L 164.979569 152.814211 
L 167.538846 152.87166 
L 170.098124 153.1616 
L 172.424739 153.661018 
L 174.518694 154.35732 
L 176.147325 155.117945 
L 177.543294 155.980653 
L 178.952288 157.13299 
L 180.102571 158.38321 
L 181.033218 159.705837 
L 181.891963 161.323811 
L 182.609569 163.186398 
L 183.164562 165.281808 
L 183.544471 167.610042 
L 183.732358 170.171099 
L 183.699721 172.964979 
L 183.42929 175.75886 
L 182.957999 178.319917 
L 182.312915 180.64815 
L 181.498541 182.778483 
L 180.567894 184.625717 
L 179.404587 186.407601 
L 178.18385 187.865675 
L 176.845309 189.129104 
L 175.41511 190.193908 
L 173.804499 191.125202 
L 171.959416 191.918115 
L 170.098124 192.476384 
L 168.00417 192.857741 
L 165.910215 193.003863 
L 163.816261 192.924804 
L 161.722307 192.615152 
L 159.861015 192.129047 
L 157.999722 191.41411 
L 156.371091 190.562312 
L 154.74246 189.44357 
L 153.346491 188.206055 
L 152.183183 186.909138 
L 151.019875 185.272777 
L 150.008767 183.442031 
L 149.127701 181.34662 
L 148.411906 179.018387 
L 147.876942 176.45733 
L 147.56361 173.896273 
L 147.52849 173.430626 
L 147.52849 173.430626 
" style="fill:none;stroke:#90d743;stroke-width:1.5;"/>
    <path clip-path="url(#pfbe546e12c)" d="M 203.361378 118.018665 
L 203.252026 115.457608 
L 203.363513 112.663727 
L 203.676912 110.10267 
L 204.211979 107.541613 
L 204.927809 105.21338 
L 205.808798 103.117969 
L 206.858652 101.225707 
L 208.02196 99.602821 
L 209.273596 98.228679 
L 210.6091 97.064562 
L 212.209868 95.974567 
L 213.838499 95.128373 
L 215.699792 94.418623 
L 217.561084 93.936915 
L 219.655038 93.631677 
L 221.748992 93.55679 
L 223.842946 93.707128 
L 225.936901 94.093038 
L 227.798193 94.65594 
L 229.659486 95.462516 
L 231.288117 96.414348 
L 232.762301 97.530209 
L 234.080056 98.797102 
L 235.330326 100.324089 
L 236.406671 102.002514 
L 237.337318 103.869888 
L 238.112946 105.91185 
L 238.758105 108.240083 
L 239.229382 110.80114 
L 239.49976 113.595021 
L 239.532353 116.388901 
L 239.344404 118.949958 
L 238.964691 121.278192 
L 238.409501 123.373602 
L 237.691921 125.236189 
L 236.825807 126.865953 
L 235.832926 128.262893 
L 234.752212 129.42701 
L 233.382071 130.551758 
L 231.986101 131.421006 
L 230.272662 132.22089 
L 228.496178 132.823258 
L 226.402224 133.31082 
L 224.075608 133.629934 
L 221.516331 133.752081 
L 218.957054 133.650453 
L 216.630438 133.352596 
L 214.303822 132.823258 
L 212.44253 132.187013 
L 210.813899 131.421006 
L 209.417929 130.551758 
L 208.02196 129.402476 
L 206.858652 128.12815 
L 205.928006 126.790445 
L 205.108079 125.236189 
L 204.390499 123.373602 
L 203.834051 121.272175 
L 203.455596 118.949958 
L 203.361378 118.018665 
L 203.361378 118.018665 
" style="fill:none;stroke:#90d743;stroke-width:1.5;"/>
    <path clip-path="url(#pfbe546e12c)" d="M 259.20513 174.361919 
L 259.05421 171.568039 
L 259.125804 169.006982 
L 259.417925 166.445925 
L 259.915092 164.117691 
L 260.609515 162.022281 
L 261.3705 160.392517 
L 262.235813 158.995577 
L 263.395413 157.584092 
L 264.651821 156.43452 
L 265.982893 155.503227 
L 267.583322 154.655955 
L 269.444614 153.937359 
L 271.538568 153.380003 
L 273.865184 152.999302 
L 276.424461 152.817883 
L 278.983739 152.861793 
L 281.543016 153.136919 
L 283.869632 153.619618 
L 285.730924 154.20741 
L 287.592217 155.035069 
L 289.1262 155.968873 
L 290.384156 156.976971 
L 291.547464 158.193546 
L 292.47901 159.461224 
L 293.408756 161.143902 
L 294.132897 162.953574 
L 294.713764 165.048985 
L 295.116039 167.377218 
L 295.324269 169.938275 
L 295.311581 172.732156 
L 295.061264 175.526036 
L 294.610544 178.087093 
L 293.987975 180.415327 
L 293.176095 182.600634 
L 292.245448 184.488595 
L 291.130433 186.235911 
L 289.918833 187.720873 
L 288.522863 189.063734 
L 287.014804 190.193908 
L 285.403959 191.125202 
L 283.63697 191.8899 
L 281.775678 192.457451 
L 279.681723 192.847923 
L 277.587769 193.00248 
L 275.493815 192.931763 
L 273.399861 192.630933 
L 271.538568 192.153609 
L 269.677276 191.449025 
L 268.048645 190.608408 
L 266.408967 189.495438 
L 265.024044 188.283056 
L 263.803768 186.934381 
L 262.640095 185.304618 
L 261.608758 183.442031 
L 260.813354 181.579444 
L 260.07289 179.25121 
L 259.515916 176.690153 
L 259.20513 174.361919 
L 259.20513 174.361919 
" style="fill:none;stroke:#90d743;stroke-width:1.5;"/>
    <path clip-path="url(#pfbe546e12c)" d="M 315.029043 118.717135 
L 314.861132 116.156078 
L 314.913676 113.362197 
L 315.204334 110.568317 
L 315.696503 108.00726 
L 316.364668 105.679026 
L 317.190241 103.583616 
L 318.156213 101.721029 
L 319.241011 100.091266 
L 320.415949 98.694325 
L 321.793468 97.398512 
L 323.189437 96.362893 
L 324.818068 95.423366 
L 326.679361 94.627934 
L 328.697083 94.037858 
L 330.634607 93.69747 
L 332.728562 93.555561 
L 334.822516 93.638794 
L 336.91647 93.952867 
L 338.960389 94.503505 
L 340.721944 95.201975 
L 342.267686 96.020956 
L 343.896317 97.146971 
L 345.359866 98.461502 
L 346.580699 99.858442 
L 347.704197 101.488206 
L 348.702224 103.350793 
L 349.555103 105.446203 
L 350.246818 107.774437 
L 350.760244 110.335494 
L 351.054666 112.896551 
L 351.146694 115.690431 
L 351.017776 118.251488 
L 350.658637 120.812545 
L 350.153398 122.907955 
L 349.480195 124.806223 
L 348.700773 126.400306 
L 347.795298 127.797246 
L 346.688256 129.096125 
L 345.524948 130.144181 
L 344.128978 131.110206 
L 342.42907 131.988067 
L 340.554211 132.686537 
L 338.545101 133.204449 
L 336.218485 133.574098 
L 333.659208 133.744948 
L 331.099931 133.690885 
L 328.540653 133.40466 
L 326.214038 132.909495 
L 324.120083 132.218247 
L 322.491452 131.462973 
L 321.073501 130.591127 
L 319.699514 129.475597 
L 318.566881 128.262893 
L 317.574137 126.865953 
L 316.674913 125.16289 
L 315.976928 123.331655 
L 315.435524 121.278192 
L 315.046282 118.869929 
L 315.029043 118.717135 
L 315.029043 118.717135 
" style="fill:none;stroke:#90d743;stroke-width:1.5;"/>
   </g>
   <g id="LineCollection_7">
    <path clip-path="url(#pfbe546e12c)" d="M 54 158.960061 
L 55.861293 159.083802 
L 57.489924 159.404877 
L 59.118555 159.956008 
L 60.514524 160.657227 
L 61.803188 161.556634 
L 62.84114 162.52969 
L 63.771786 163.689215 
L 64.573128 165.048985 
L 65.167755 166.467096 
L 65.633079 168.175653 
L 65.880561 169.938275 
L 65.917391 171.800862 
L 65.736132 173.663449 
L 65.329436 175.526036 
L 64.702432 177.306268 
L 63.965372 178.785563 
L 63.03409 180.182503 
L 61.910493 181.451494 
L 60.661134 182.510737 
L 59.351216 183.336515 
L 57.955247 183.967484 
L 56.326616 184.436777 
L 54.697985 184.654986 
L 54 184.676254 
L 54 184.676254 
" style="fill:none;stroke:#fde725;stroke-width:1.5;"/>
    <path clip-path="url(#pfbe546e12c)" d="M 388.8 184.676254 
L 387.171369 184.559686 
L 385.542738 184.201235 
L 384.133205 183.674854 
L 382.750799 182.928358 
L 381.54436 182.04509 
L 380.344621 180.880974 
L 379.425626 179.716857 
L 378.562891 178.290739 
L 377.851211 176.690153 
L 377.290321 174.827566 
L 376.97012 172.964979 
L 376.870759 171.102392 
L 376.99171 169.239805 
L 377.354059 167.377218 
L 377.907257 165.747455 
L 378.605525 164.350515 
L 379.493537 163.067411 
L 380.463871 162.022281 
L 381.612612 161.090987 
L 382.983461 160.276721 
L 384.37943 159.688352 
L 386.071961 159.228401 
L 387.869354 158.990512 
L 388.8 158.960061 
L 388.8 158.960061 
" style="fill:none;stroke:#fde725;stroke-width:1.5;"/>
    <path clip-path="url(#pfbe546e12c)" d="M 97.963754 117.087371 
L 97.871418 115.224784 
L 97.997775 113.362197 
L 98.34658 111.499611 
L 98.903683 109.732132 
L 99.601668 108.195659 
L 100.532314 106.692116 
L 101.558369 105.446203 
L 102.626268 104.446769 
L 104.022238 103.464902 
L 105.418207 102.761189 
L 106.814177 102.281386 
L 108.442808 101.964401 
L 110.071438 101.886961 
L 111.700069 102.042855 
L 113.3287 102.44352 
L 114.72467 103.005935 
L 116.131184 103.816439 
L 117.324654 104.747733 
L 118.458624 105.91185 
L 119.483604 107.30879 
L 120.308548 108.819354 
L 120.91342 110.335494 
L 121.4112 112.198081 
L 121.675126 114.060668 
L 121.720358 115.923255 
L 121.541626 117.785841 
L 121.181544 119.415605 
L 120.592326 121.045369 
L 119.843224 122.458756 
L 118.912578 123.725656 
L 117.878734 124.770542 
L 116.639739 125.701836 
L 115.376013 126.400306 
L 113.794024 127.011065 
L 112.165393 127.399143 
L 110.3041 127.591012 
L 108.442808 127.534581 
L 106.814177 127.277243 
L 105.185546 126.801922 
L 103.757734 126.167483 
L 102.393607 125.31134 
L 101.223035 124.304896 
L 100.22158 123.140779 
L 99.345758 121.743839 
L 98.671022 120.2022 
L 98.205698 118.568672 
L 97.963754 117.087371 
L 97.963754 117.087371 
" style="fill:none;stroke:#fde725;stroke-width:1.5;"/>
    <path clip-path="url(#pfbe546e12c)" d="M 153.7977 173.197803 
L 153.671406 171.335216 
L 153.763996 169.472629 
L 154.094236 167.610042 
L 154.612849 165.980278 
L 155.272178 164.583338 
L 156.198734 163.186398 
L 157.301737 161.986954 
L 158.465045 161.054657 
L 159.861015 160.238233 
L 161.256984 159.661848 
L 162.885615 159.225302 
L 164.746908 158.985644 
L 166.6082 158.99581 
L 168.327658 159.228401 
L 169.865462 159.635861 
L 171.261432 160.200355 
L 172.657401 161.001895 
L 173.820709 161.9161 
L 174.81336 162.953574 
L 175.682001 164.164015 
L 176.392589 165.514631 
L 176.98143 167.144395 
L 177.34181 168.774159 
L 177.520308 170.636745 
L 177.474939 172.499332 
L 177.211096 174.361919 
L 176.713409 176.224506 
L 176.05477 177.85427 
L 175.216678 179.35607 
L 174.258456 180.64815 
L 173.122724 181.814409 
L 171.930921 182.743561 
L 170.563447 183.535245 
L 169.052701 184.140501 
L 167.538846 184.510523 
L 165.910215 184.672055 
L 164.281584 184.60019 
L 162.652953 184.289092 
L 161.256984 183.81499 
L 159.861015 183.118093 
L 158.465045 182.144935 
L 157.301737 181.053699 
L 156.2257 179.716857 
L 155.378439 178.319917 
L 154.651603 176.690153 
L 154.090138 174.827566 
L 153.7977 173.197803 
L 153.7977 173.197803 
" style="fill:none;stroke:#fde725;stroke-width:1.5;"/>
    <path clip-path="url(#pfbe546e12c)" d="M 209.622957 117.553018 
L 209.473579 115.690431 
L 209.54604 113.827844 
L 209.837595 111.965257 
L 210.366556 110.10267 
L 211.05869 108.472907 
L 211.977206 106.912925 
L 212.944348 105.679026 
L 214.14459 104.51491 
L 215.46713 103.55872 
L 216.863099 102.8275 
L 218.259069 102.324735 
L 219.8877 101.984114 
L 221.516331 101.884336 
L 223.144962 102.017731 
L 224.773593 102.394103 
L 226.169562 102.932321 
L 227.565532 103.706595 
L 228.728839 104.576721 
L 229.892147 105.719919 
L 230.932599 107.075967 
L 231.75344 108.497269 
L 232.451425 110.154086 
L 232.962405 111.965257 
L 233.25396 113.827844 
L 233.326421 115.690431 
L 233.177043 117.553018 
L 232.845829 119.182782 
L 232.292597 120.812545 
L 231.594319 122.209485 
L 230.80155 123.373602 
L 229.735893 124.537719 
L 228.586885 125.469013 
L 227.33287 126.224395 
L 225.835572 126.865953 
L 224.30827 127.294258 
L 222.679639 127.541921 
L 220.818346 127.588052 
L 218.957054 127.385613 
L 217.328423 126.986865 
L 215.699792 126.340782 
L 214.303822 125.531816 
L 213.140514 124.608589 
L 212.186361 123.606426 
L 211.279222 122.332267 
L 210.581237 120.985268 
L 210.018571 119.415605 
L 209.650591 117.7372 
L 209.622957 117.553018 
L 209.622957 117.553018 
" style="fill:none;stroke:#fde725;stroke-width:1.5;"/>
    <path clip-path="url(#pfbe546e12c)" d="M 265.463577 173.663449 
L 265.282467 171.800862 
L 265.319705 169.938275 
L 265.587669 168.075688 
L 266.039927 166.445925 
L 266.652675 164.997133 
L 267.454331 163.652045 
L 268.398122 162.487928 
L 269.444614 161.517611 
L 270.740061 160.625341 
L 272.152131 159.926871 
L 273.632523 159.425456 
L 275.261154 159.094435 
L 277.122446 158.960272 
L 278.983739 159.073612 
L 280.61237 159.384778 
L 282.248903 159.926871 
L 283.660557 160.625341 
L 285.03294 161.58058 
L 286.214284 162.720751 
L 287.126894 163.91971 
L 287.885904 165.281808 
L 288.512882 166.911572 
L 288.902492 168.541335 
L 289.110242 170.403922 
L 289.092375 172.266509 
L 288.856337 174.129096 
L 288.389504 175.991683 
L 287.763471 177.621446 
L 286.884122 179.25121 
L 285.858044 180.64815 
L 284.724398 181.812267 
L 283.404309 182.828037 
L 282.008339 183.609524 
L 280.61237 184.153825 
L 278.983739 184.536192 
L 277.355108 184.675204 
L 275.726477 184.581016 
L 274.097846 184.246318 
L 272.534033 183.674854 
L 271.227746 182.976384 
L 269.909937 182.016362 
L 268.74399 180.880974 
L 267.667354 179.484033 
L 266.858808 178.087093 
L 266.166576 176.45733 
L 265.637741 174.594743 
L 265.463577 173.663449 
L 265.463577 173.663449 
" style="fill:none;stroke:#fde725;stroke-width:1.5;"/>
    <path clip-path="url(#pfbe546e12c)" d="M 321.089328 116.156078 
L 321.107242 114.293491 
L 321.343298 112.430904 
L 321.810124 110.568317 
L 322.491452 108.819354 
L 323.316396 107.30879 
L 324.352745 105.898428 
L 325.516053 104.711353 
L 326.679361 103.80923 
L 328.07533 103.005935 
L 329.547065 102.419499 
L 331.099931 102.042855 
L 332.728562 101.886961 
L 334.357192 101.964401 
L 335.985823 102.281386 
L 337.381793 102.761189 
L 338.777762 103.464902 
L 339.968892 104.282086 
L 341.241631 105.446203 
L 342.267686 106.692116 
L 343.198332 108.195659 
L 343.896317 109.732132 
L 344.45342 111.499611 
L 344.802225 113.362197 
L 344.928582 115.224784 
L 344.826963 117.16622 
L 344.505628 118.949958 
L 343.98717 120.579722 
L 343.327714 121.976662 
L 342.500347 123.244916 
L 341.569701 124.312152 
L 340.406393 125.31134 
L 339.010424 126.184365 
L 337.435974 126.865953 
L 335.985823 127.277243 
L 334.357192 127.534581 
L 332.4959 127.591012 
L 330.634607 127.399143 
L 329.005976 127.011065 
L 327.377345 126.378357 
L 325.981376 125.58421 
L 324.818068 124.67898 
L 323.786774 123.606426 
L 322.946443 122.442309 
L 322.207674 121.045369 
L 321.618456 119.415605 
L 321.258374 117.785841 
L 321.089328 116.156078 
L 321.089328 116.156078 
" style="fill:none;stroke:#fde725;stroke-width:1.5;"/>
   </g>
   <g id="line2d_1">
    <path clip-path="url(#pfbe546e12c)" d="M 54 195.36 
L 388.8 195.36 
" style="fill:none;stroke:#ff0000;stroke-linecap:square;stroke-width:1.5;"/>
   </g>
   <g id="line2d_2">
    <path clip-path="url(#pfbe546e12c)" d="M 54 91.2 
L 388.8 91.2 
" style="fill:none;stroke:#ff0000;stroke-linecap:square;stroke-width:1.5;"/>
   </g>
   <g id="patch_3">
    <path d="M 54 252 
L 54 34.56 
" style="fill:none;stroke:#000000;stroke-linecap:square;stroke-linejoin:miter;stroke-width:0.8;"/>
   </g>
   <g id="patch_4">
    <path d="M 388.8 252 
L 388.8 34.56 
" style="fill:none;stroke:#000000;stroke-linecap:square;stroke-linejoin:miter;stroke-width:0.8;"/>
   </g>
   <g id="patch_5">
    <path d="M 54 252 
L 388.8 252 
" style="fill:none;stroke:#000000;stroke-linecap:square;stroke-linejoin:miter;stroke-width:0.8;"/>
   </g>
   <g id="patch_6">
    <path d="M 54 34.56 
L 388.8 34.56 
" style="fill:none;stroke:#000000;stroke-linecap:square;stroke-linejoin:miter;stroke-width:0.8;"/>
   </g>
  </g>
 </g>
 <defs>
  <clipPath id="pfbe546e12c">
   <rect height="217.44" width="334.8" x="54" y="34.56"/>
  </clipPath>
 </defs>
</svg>
