<?xml version="1.0" encoding="utf-8" standalone="no"?>
<!DOCTYPE svg PUBLIC "-//W3C//DTD SVG 1.1//EN"
  "http://www.w3.org/Graphics/SVG/1.1/DTD/svg11.dtd">
<!-- Created with matplotlib (http://matplotlib.org/) -->
<svg height="288pt" version="1.1" viewBox="0 0 432 288" width="432pt" xmlns="http://www.w3.org/2000/svg" xmlns:xlink="http://www.w3.org/1999/xlink">
 <defs>
  <style type="text/css">
*{stroke-linecap:butt;stroke-linejoin:round;}
  </style>
 </defs>
 <g id="figure_1">
  <g id="patch_1">
   <path d="M 0 288 
L 432 288 
L 432 0 
L 0 0 
z
" style="fill:#ffffff;"/>
  </g>
  <g id="axes_1">
   <g id="patch_2">
    <path d="M 54 252 
L 388.8 252 
L 388.8 34.56 
L 54 34.56 
z
" style="fill:#ffffff;"/>
   </g>
   <g id="matplotlib.axis_1"/>
   <g id="matplotlib.axis_2"/>
   <g id="LineCollection_1">
    <path clip-path="url(#p353d9679d1)" d="M 288.755186 198.109903 
L 288.890722 198.808373 
L 289.27267 199.506843 
L 289.922794 200.205313 
L 291.08214 201.020598 
L 292.47811 201.708042 
L 294.339402 202.369301 
L 296.666018 202.949574 
L 299.225295 203.37361 
L 302.249896 203.657806 
L 305.507158 203.740192 
L 308.76442 203.601607 
L 311.78902 203.259597 
L 314.372151 202.76637 
L 316.790774 202.0679 
L 318.536206 201.335408 
L 319.699514 200.653509 
L 320.63016 199.860709 
L 321.095483 199.251969 
L 321.381248 198.575549 
L 321.436228 197.877079 
L 321.251603 197.178609 
L 320.81825 196.480139 
L 320.112372 195.781669 
L 319.001529 195.034257 
L 317.605559 194.36037 
L 315.511605 193.641002 
L 312.952328 193.043852 
L 310.160389 192.631667 
L 307.135789 192.401723 
L 303.878527 192.37394 
L 300.621265 192.570801 
L 297.549281 192.987789 
L 295.037387 193.544655 
L 292.943433 194.221578 
L 291.314802 194.970077 
L 290.151494 195.731865 
L 289.453509 196.397277 
L 288.988186 197.09782 
L 288.798345 197.644256 
L 288.755186 198.109903 
L 288.755186 198.109903 
" style="fill:none;stroke:#440154;stroke-width:1.5;"/>
    <path clip-path="url(#p353d9679d1)" d="M 288.755186 88.450097 
L 288.859949 89.148567 
L 289.220848 89.86406 
L 289.918833 90.632371 
L 290.849479 91.31779 
L 292.245448 92.048935 
L 294.106741 92.744089 
L 296.433356 93.353075 
L 299.225295 93.830442 
L 302.249896 94.116561 
L 305.507158 94.199944 
L 308.76442 94.060864 
L 311.78902 93.713886 
L 314.580959 93.165253 
L 316.674913 92.551662 
L 318.303544 91.88861 
L 319.699514 91.087437 
L 320.397498 90.52872 
L 321.095483 89.679789 
L 321.34037 89.148567 
L 321.444415 88.450097 
L 321.309553 87.751627 
L 320.862821 86.971444 
L 320.164837 86.261552 
L 319.23419 85.607355 
L 317.838221 84.900985 
L 315.976928 84.225426 
L 313.650313 83.634762 
L 311.091035 83.201752 
L 308.066435 82.909357 
L 304.809173 82.818985 
L 301.551911 82.949499 
L 298.527311 83.283189 
L 295.828276 83.79363 
L 293.641418 84.413214 
L 292.012787 85.057332 
L 290.616817 85.82852 
L 289.918833 86.358335 
L 289.220848 87.129889 
L 288.890722 87.751627 
L 288.755186 88.450097 
L 288.755186 88.450097 
" style="fill:none;stroke:#440154;stroke-width:1.5;"/>
   </g>
   <g id="LineCollection_2">
    <path clip-path="url(#p353d9679d1)" d="M 110.998364 144.327705 
L 111.467408 145.161418 
L 112.179982 145.957469 
L 113.394121 146.888762 
L 114.957331 147.752702 
L 116.818624 148.531272 
L 119.377901 149.337308 
L 122.402502 150.040252 
L 125.892425 150.620722 
L 130.136341 151.079583 
L 134.733565 151.33322 
L 139.386796 151.363407 
L 144.040028 151.169368 
L 148.227936 150.783934 
L 152.183183 150.195189 
L 155.440445 149.490828 
L 157.999722 148.736721 
L 160.326338 147.808801 
L 162.005912 146.888762 
L 163.219835 145.957469 
L 164.048923 144.995635 
L 164.483215 144.094882 
L 164.604965 143.396412 
L 164.514246 142.582999 
L 164.281584 141.966493 
L 163.816261 141.244652 
L 162.956811 140.369708 
L 161.722307 139.49482 
L 160.302802 138.739944 
L 158.232384 137.904579 
L 155.905768 137.191205 
L 152.881167 136.496799 
L 149.391244 135.923607 
L 145.203336 135.47556 
L 140.550104 135.223347 
L 135.896873 135.198649 
L 131.243641 135.398465 
L 127.055733 135.790076 
L 123.100486 136.385882 
L 120.075886 137.03996 
L 117.442773 137.808651 
L 115.097365 138.739944 
L 113.394121 139.671238 
L 112.165393 140.616661 
L 111.370455 141.533825 
L 110.916892 142.465118 
L 110.794906 143.163588 
L 110.855866 143.862058 
L 110.998364 144.327705 
L 110.998364 144.327705 
" style="fill:none;stroke:#443983;stroke-width:1.5;"/>
    <path clip-path="url(#p353d9679d1)" d="M 258.231388 199.506843 
L 258.620259 200.903783 
L 259.282121 202.300723 
L 260.138151 203.559904 
L 261.081311 204.628957 
L 262.464767 205.865753 
L 264.093398 207.02162 
L 266.187352 208.20841 
L 268.561712 209.285424 
L 271.305907 210.284586 
L 274.563169 211.229486 
L 278.297934 212.079305 
L 282.706324 212.844394 
L 287.824878 213.490501 
L 293.408756 213.963604 
L 299.457957 214.25285 
L 305.972481 214.336203 
L 312.487005 214.191375 
L 318.536206 213.838454 
L 324.120083 213.295467 
L 329.005976 212.606533 
L 333.193885 211.809142 
L 336.91647 210.88471 
L 340.173732 209.845702 
L 342.733009 208.818157 
L 345.059625 207.649474 
L 346.920917 206.475999 
L 348.549548 205.174325 
L 349.759551 203.930487 
L 350.779117 202.533547 
L 351.489033 201.136606 
L 351.921861 199.739666 
L 352.096745 198.342726 
L 352.021723 196.945786 
L 351.694654 195.548846 
L 351.103588 194.151905 
L 350.224229 192.754965 
L 349.244008 191.590848 
L 347.851564 190.300814 
L 346.222933 189.106711 
L 344.36164 188.004285 
L 342.035024 186.888142 
L 339.243085 185.814123 
L 336.218485 184.882197 
L 332.728562 184.025416 
L 328.540653 183.227259 
L 323.887422 182.565071 
L 318.536206 182.030786 
L 312.719666 181.675054 
L 306.437804 181.517433 
L 300.155942 181.580223 
L 294.106741 181.855157 
L 288.290202 182.342094 
L 283.171647 182.988913 
L 278.518416 183.804946 
L 274.563169 184.725039 
L 271.305907 185.695848 
L 268.513968 186.740006 
L 265.954691 187.942356 
L 263.860737 189.183754 
L 262.196028 190.426732 
L 260.836136 191.719905 
L 259.807819 192.987789 
L 258.974844 194.392821 
L 258.432953 195.781669 
L 258.148521 197.178609 
L 258.114962 198.575549 
L 258.231388 199.506843 
L 258.231388 199.506843 
" style="fill:none;stroke:#443983;stroke-width:1.5;"/>
    <path clip-path="url(#p353d9679d1)" d="M 258.258898 90.079861 
L 258.672111 91.476801 
L 259.356019 92.873741 
L 260.152754 94.037858 
L 261.301459 95.319977 
L 262.697429 96.538545 
L 264.32606 97.677977 
L 266.187352 98.739419 
L 268.605777 99.858442 
L 271.538568 100.94135 
L 274.79583 101.896239 
L 278.518416 102.755054 
L 282.938985 103.53581 
L 287.824878 104.168216 
L 293.408756 104.658553 
L 299.457957 104.959013 
L 305.739819 105.046379 
L 312.021682 104.913678 
L 318.070883 104.565633 
L 323.65476 104.022932 
L 328.540653 103.332741 
L 332.961223 102.483564 
L 336.683808 101.547218 
L 339.782203 100.556912 
L 342.500347 99.467179 
L 344.826963 98.300748 
L 346.688256 97.138326 
L 348.27474 95.900445 
L 349.480195 94.713155 
L 350.551349 93.339388 
L 351.341487 91.91911 
L 351.832243 90.545508 
L 352.074411 89.148567 
L 352.06645 87.751627 
L 351.80681 86.353864 
L 351.284502 84.957747 
L 350.63189 83.79363 
L 349.712856 82.575703 
L 348.549548 81.385675 
L 347.153579 80.251393 
L 345.292286 79.044114 
L 343.198332 77.955014 
L 340.639055 76.885154 
L 337.847116 75.946932 
L 334.589854 75.070324 
L 330.634607 74.237446 
L 325.981376 73.500515 
L 320.862821 72.919894 
L 315.046282 72.490896 
L 308.76442 72.257685 
L 302.249896 72.243478 
L 295.968033 72.447829 
L 289.918833 72.866555 
L 284.567616 73.454042 
L 279.914385 74.174212 
L 275.726477 75.042537 
L 272.236553 75.98225 
L 269.148454 77.041752 
L 266.478403 78.205869 
L 264.32606 79.391973 
L 262.464767 80.694247 
L 261.081311 81.931043 
L 260.063506 83.09516 
L 259.151737 84.4921 
L 258.537038 85.88904 
L 258.191792 87.285981 
L 258.100613 88.682921 
L 258.258898 90.079861 
L 258.258898 90.079861 
" style="fill:none;stroke:#443983;stroke-width:1.5;"/>
   </g>
   <g id="LineCollection_3">
    <path clip-path="url(#p353d9679d1)" d="M 78.189134 144.327705 
L 78.437528 145.724645 
L 78.896572 147.121586 
L 79.592773 148.526073 
L 80.548077 149.915466 
L 81.686727 151.17325 
L 83.082696 152.383776 
L 84.711327 153.508659 
L 86.625644 154.571933 
L 88.899236 155.586324 
L 91.691174 156.579041 
L 94.948436 157.491583 
L 98.671022 158.307746 
L 103.324253 159.08809 
L 108.675469 159.753974 
L 115.189993 160.32783 
L 122.635163 160.753128 
L 131.01098 161.008078 
L 140.084781 161.060768 
L 149.158582 160.889113 
L 157.301737 160.519381 
L 164.514246 159.973841 
L 170.563447 159.297948 
L 175.535584 158.52993 
L 179.637248 157.688031 
L 183.127172 156.758836 
L 186.151772 155.724106 
L 188.711049 154.60319 
L 190.572342 153.580326 
L 192.200973 152.473487 
L 193.596942 151.28622 
L 194.851884 149.915466 
L 195.811679 148.518526 
L 196.503366 147.121586 
L 196.962418 145.724645 
L 197.210812 144.327705 
L 197.259953 142.930765 
L 197.086866 141.40079 
L 196.760327 140.136885 
L 196.15622 138.676253 
L 195.368163 137.343004 
L 194.255474 135.946064 
L 192.898958 134.646498 
L 191.502988 133.582488 
L 189.641696 132.441321 
L 187.31508 131.311659 
L 184.84942 130.358303 
L 181.731202 129.400691 
L 177.939839 128.495716 
L 173.588047 127.701585 
L 168.469493 127.000758 
L 162.394688 126.400306 
L 155.207783 125.923264 
L 147.064628 125.610576 
L 138.223489 125.491977 
L 129.149687 125.590571 
L 120.541209 125.905385 
L 113.005454 126.400306 
L 106.581515 127.042052 
L 101.218954 127.797246 
L 96.809729 128.635041 
L 93.087144 129.562601 
L 90.062543 130.531352 
L 87.503266 131.569822 
L 85.321455 132.686537 
L 83.516901 133.850654 
L 81.919388 135.164087 
L 80.737566 136.411711 
L 79.728471 137.808651 
L 78.994989 139.205591 
L 78.499 140.602531 
L 78.196803 142.166937 
L 78.134601 143.396412 
L 78.189134 144.327705 
L 78.189134 144.327705 
" style="fill:none;stroke:#31688e;stroke-width:1.5;"/>
    <path clip-path="url(#p353d9679d1)" d="M 238.726298 199.97249 
L 239.057293 202.0679 
L 239.570184 203.930487 
L 240.321722 205.793074 
L 241.214576 207.422837 
L 242.223211 208.856024 
L 243.421482 210.216718 
L 244.962731 211.613658 
L 246.64378 212.834065 
L 248.737735 214.053835 
L 251.06435 215.137216 
L 253.856289 216.172826 
L 257.113551 217.125183 
L 260.836136 217.976067 
L 265.256706 218.755001 
L 270.607922 219.462204 
L 276.889785 220.062033 
L 284.334955 220.546085 
L 293.176095 220.889514 
L 302.94788 221.04194 
L 312.952328 220.979564 
L 322.491452 220.703167 
L 330.867269 220.244326 
L 337.847116 219.650246 
L 343.663655 218.944393 
L 348.567722 218.132712 
L 352.737457 217.214574 
L 356.046128 216.270125 
L 359.019319 215.185359 
L 361.345935 214.114056 
L 363.439889 212.909464 
L 365.237263 211.613658 
L 366.778496 210.216718 
L 368.09312 208.706328 
L 369.128251 207.190014 
L 369.986797 205.56025 
L 370.706181 203.697663 
L 371.191797 201.835076 
L 371.495534 199.739666 
L 371.56406 197.644256 
L 371.403392 195.548846 
L 371.003965 193.453435 
L 370.419736 191.570944 
L 369.607559 189.728261 
L 368.558443 187.962097 
L 367.395136 186.445083 
L 365.999166 184.998967 
L 364.370535 183.647665 
L 362.509243 182.403814 
L 360.415288 181.270651 
L 357.856011 180.155663 
L 354.831411 179.108938 
L 351.341487 178.157971 
L 347.38624 177.315801 
L 342.733009 176.552567 
L 337.149131 175.867205 
L 330.62919 175.293213 
L 322.956776 174.842964 
L 314.115636 174.550225 
L 304.576511 174.455321 
L 294.804726 174.579631 
L 285.730924 174.915732 
L 277.820431 175.427622 
L 271.305907 176.059055 
L 265.722029 176.81479 
L 261.068798 177.66149 
L 257.113551 178.604521 
L 253.856289 179.601591 
L 251.06435 180.681807 
L 248.728675 181.812267 
L 246.64378 183.070675 
L 244.910439 184.373324 
L 243.386518 185.802349 
L 242.040809 187.400028 
L 240.972329 189.029791 
L 240.129256 190.706346 
L 239.431272 192.60547 
L 238.965949 194.499079 
L 238.696662 196.480139 
L 238.638123 198.575549 
L 238.726298 199.97249 
L 238.726298 199.97249 
" style="fill:none;stroke:#31688e;stroke-width:1.5;"/>
    <path clip-path="url(#p353d9679d1)" d="M 238.717312 90.312684 
L 239.035093 92.408095 
L 239.530179 94.270682 
L 240.253787 96.133268 
L 241.108723 97.763032 
L 242.223211 99.401091 
L 243.416924 100.789736 
L 244.910439 102.186676 
L 246.64378 103.489325 
L 248.505073 104.62534 
L 250.831689 105.776013 
L 253.525868 106.843143 
L 256.648228 107.827052 
L 260.370813 108.749298 
L 264.791383 109.594211 
L 269.924471 110.335494 
L 275.959138 110.974444 
L 283.171647 111.504173 
L 291.547464 111.886277 
L 300.853926 112.084071 
L 310.625712 112.069494 
L 320.164837 111.832869 
L 328.540653 111.410418 
L 335.753162 110.833647 
L 341.802363 110.137041 
L 346.920917 109.330314 
L 351.108826 108.457813 
L 354.831411 107.451062 
L 357.924918 106.377497 
L 360.570365 105.21338 
L 362.741904 104.014723 
L 364.603197 102.736444 
L 366.077621 101.488206 
L 367.415586 100.091266 
L 368.650607 98.461502 
L 369.607559 96.831739 
L 370.427246 94.969152 
L 371.003965 93.106565 
L 371.403392 91.011154 
L 371.56406 88.915744 
L 371.495534 86.820334 
L 371.191797 84.724924 
L 370.652397 82.69803 
L 369.954413 80.929933 
L 369.023767 79.199253 
L 368.005447 77.740223 
L 366.697151 76.261316 
L 365.237263 74.946342 
L 363.439889 73.650536 
L 361.578596 72.566929 
L 359.210495 71.453992 
L 356.460042 70.425747 
L 353.20278 69.465082 
L 349.480195 68.607435 
L 345.059625 67.82295 
L 339.708409 67.11101 
L 333.426546 66.507271 
L 325.981376 66.019952 
L 317.140236 65.67365 
L 307.36845 65.518618 
L 297.364003 65.578437 
L 287.824878 65.852032 
L 279.449062 66.307625 
L 272.469215 66.89785 
L 266.652675 67.599077 
L 261.766782 68.401691 
L 257.811536 69.258501 
L 254.321612 70.236295 
L 251.529673 71.232595 
L 248.970396 72.386259 
L 246.876442 73.575857 
L 245.015149 74.904327 
L 243.61918 76.145247 
L 242.380373 77.507399 
L 241.214576 79.137163 
L 240.321722 80.766926 
L 239.570184 82.629513 
L 239.057293 84.4921 
L 238.726298 86.58751 
L 238.632287 88.682921 
L 238.717312 90.312684 
L 238.717312 90.312684 
" style="fill:none;stroke:#31688e;stroke-width:1.5;"/>
   </g>
   <g id="LineCollection_4">
    <path clip-path="url(#p353d9679d1)" d="M 388.8 167.985437 
L 221.516331 167.985437 
L 221.4 167.842865 
L 221.4 118.717135 
L 221.516331 118.574563 
L 388.8 118.574563 
L 388.8 118.574563 
" style="fill:none;stroke:#21918c;stroke-width:1.5;"/>
    <path clip-path="url(#p353d9679d1)" d="M 54 226.747177 
L 54 168.075688 
L 54.465323 167.985437 
L 221.4 168.075688 
L 221.4 226.747177 
L 221.283669 226.98 
L 54.232662 226.98 
L 54 226.747177 
L 54 226.747177 
" style="fill:none;stroke:#21918c;stroke-width:1.5;"/>
    <path clip-path="url(#p353d9679d1)" d="M 54 118.484312 
L 54 59.812823 
L 54.232662 59.58 
L 221.283669 59.58 
L 221.4 60.045647 
L 221.4 118.484312 
L 221.283669 118.574563 
L 54 118.484312 
L 54 118.484312 
" style="fill:none;stroke:#21918c;stroke-width:1.5;"/>
   </g>
   <g id="LineCollection_5">
    <path clip-path="url(#p353d9679d1)" d="M 71.443086 200.903783 
L 71.245684 198.808373 
L 71.278866 196.712962 
L 71.543498 194.617552 
L 71.986303 192.754965 
L 72.649355 190.892378 
L 73.543572 189.08038 
L 74.474218 187.628415 
L 75.637526 186.18039 
L 77.033495 184.786885 
L 78.710393 183.442031 
L 80.523419 182.265441 
L 82.710903 181.113797 
L 85.17665 180.066072 
L 88.201251 179.037842 
L 91.458513 178.157971 
L 95.41376 177.315801 
L 100.066991 176.552567 
L 105.650869 175.867205 
L 112.17081 175.293213 
L 119.843224 174.842964 
L 128.684364 174.550225 
L 138.223489 174.455321 
L 147.995274 174.579631 
L 157.069076 174.915732 
L 164.979569 175.427622 
L 171.494093 176.059055 
L 177.077971 176.81479 
L 181.731202 177.66149 
L 185.686449 178.604521 
L 188.943711 179.601591 
L 191.73565 180.681807 
L 194.071325 181.812267 
L 196.15622 183.070675 
L 197.889561 184.373324 
L 199.413482 185.802349 
L 200.759191 187.400028 
L 201.827671 189.029791 
L 202.670744 190.706346 
L 203.368728 192.60547 
L 203.834051 194.499079 
L 204.103338 196.480139 
L 204.161877 198.575549 
L 203.990527 200.67096 
L 203.575998 202.76637 
L 202.978203 204.628957 
L 202.20542 206.339475 
L 201.274774 207.900592 
L 200.111466 209.420031 
L 198.90379 210.682364 
L 197.23771 212.079305 
L 195.458235 213.272307 
L 193.358608 214.407538 
L 190.805003 215.509796 
L 187.903054 216.502949 
L 184.440584 217.434242 
L 180.335233 218.287984 
L 175.682001 219.026009 
L 170.098124 219.685739 
L 163.350938 220.252375 
L 155.316188 220.693769 
L 146.133982 220.9691 
L 136.129534 221.044288 
L 126.125087 220.898809 
L 117.051286 220.552079 
L 109.140792 220.033945 
L 102.626268 219.39531 
L 97.275052 218.664083 
L 92.854482 217.856647 
L 88.899236 216.908162 
L 85.641974 215.895127 
L 83.048376 214.873185 
L 80.695935 213.709068 
L 78.662126 212.44043 
L 77.008739 211.148011 
L 75.581436 209.751071 
L 74.443081 208.354131 
L 73.401983 206.724367 
L 72.60916 205.094604 
L 71.951924 203.232017 
L 71.519488 201.36943 
L 71.443086 200.903783 
L 71.443086 200.903783 
" style="fill:none;stroke:#35b779;stroke-width:1.5;"/>
    <path clip-path="url(#p353d9679d1)" d="M 71.428849 91.243978 
L 71.242438 89.148567 
L 71.285482 87.053157 
L 71.562289 84.957747 
L 72.021109 83.09516 
L 72.709084 81.232573 
L 73.543572 79.586871 
L 74.615546 77.973046 
L 75.870188 76.499839 
L 77.280293 75.179166 
L 78.894788 73.958737 
L 80.756081 72.817737 
L 83.082696 71.671757 
L 85.641974 70.664873 
L 88.666574 69.716277 
L 92.156498 68.852813 
L 96.344406 68.048166 
L 101.230299 67.334368 
L 107.046838 66.706823 
L 114.026685 66.178521 
L 122.402502 65.776145 
L 131.941626 65.549132 
L 141.946074 65.53262 
L 151.71786 65.732631 
L 160.558999 66.129442 
L 168.00417 66.675238 
L 174.286032 67.349137 
L 179.404587 68.107492 
L 183.825156 68.982824 
L 187.547741 69.950508 
L 190.643497 70.988345 
L 193.131619 72.043866 
L 195.225573 73.149272 
L 197.086866 74.369535 
L 198.715497 75.702673 
L 200.111466 77.139969 
L 201.283023 78.671516 
L 202.247654 80.30128 
L 203.065919 82.163866 
L 203.634868 84.026453 
L 204.021199 86.121864 
L 204.166637 88.217274 
L 204.082688 90.312684 
L 203.764907 92.408095 
L 203.269821 94.270682 
L 202.546213 96.133268 
L 201.691277 97.763032 
L 200.576789 99.401091 
L 199.383076 100.789736 
L 197.889561 102.186676 
L 196.15622 103.489325 
L 194.294927 104.62534 
L 191.968311 105.776013 
L 189.274132 106.843143 
L 186.151772 107.827052 
L 182.429187 108.749298 
L 178.008617 109.594211 
L 172.875529 110.335494 
L 166.840862 110.974444 
L 159.628353 111.504173 
L 151.252536 111.886277 
L 141.946074 112.084071 
L 132.174288 112.069494 
L 122.635163 111.832869 
L 114.259347 111.410418 
L 107.046838 110.833647 
L 100.997637 110.137041 
L 95.879083 109.330314 
L 91.691174 108.457813 
L 87.968589 107.451062 
L 84.875082 106.377497 
L 82.229635 105.21338 
L 80.058096 104.014723 
L 78.196803 102.736444 
L 76.722379 101.488206 
L 75.384414 100.091266 
L 74.149393 98.461502 
L 73.192441 96.831739 
L 72.372754 94.969152 
L 71.796035 93.106565 
L 71.428849 91.243978 
L 71.428849 91.243978 
" style="fill:none;stroke:#35b779;stroke-width:1.5;"/>
    <path clip-path="url(#p353d9679d1)" d="M 245.687952 145.026175 
L 245.540047 143.629235 
L 245.589188 142.232295 
L 245.837582 140.835355 
L 246.296634 139.438414 
L 246.988321 138.041474 
L 247.948116 136.644534 
L 248.991073 135.480417 
L 250.366366 134.266702 
L 251.994997 133.123594 
L 254.088951 131.95681 
L 256.415566 130.927411 
L 259.207505 129.944239 
L 262.464767 129.03963 
L 266.187352 128.229953 
L 270.840584 127.455104 
L 276.1918 126.793763 
L 282.706324 126.223799 
L 290.151494 125.801829 
L 298.527311 125.549829 
L 307.601112 125.499994 
L 316.674913 125.674619 
L 324.818068 126.047621 
L 332.030577 126.597003 
L 338.079778 127.277496 
L 342.965671 128.035472 
L 347.153579 128.899295 
L 350.643502 129.836386 
L 353.521063 130.82395 
L 355.994719 131.899773 
L 358.088673 133.051341 
L 359.717304 134.176224 
L 361.113273 135.38675 
L 362.276581 136.676091 
L 363.21174 138.041474 
L 363.905212 139.44291 
L 364.370535 140.869014 
L 364.610866 142.232295 
L 364.659955 143.629235 
L 364.512013 145.026175 
L 364.137874 146.489275 
L 363.588461 147.820056 
L 362.741904 149.254647 
L 361.655452 150.613936 
L 360.415288 151.81439 
L 358.786657 153.056628 
L 356.925365 154.181616 
L 354.664112 155.270403 
L 352.039472 156.273551 
L 349.014871 157.190691 
L 345.292286 158.074182 
L 340.871716 158.876826 
L 335.753162 159.572838 
L 329.703961 160.167109 
L 322.491452 160.642743 
L 314.348297 160.952399 
L 305.507158 161.068168 
L 296.433356 160.966688 
L 287.824878 160.648703 
L 280.379708 160.157586 
L 273.865184 159.504012 
L 268.513968 158.745315 
L 264.093398 157.899501 
L 260.370813 156.96428 
L 257.297422 155.968873 
L 254.786935 154.936635 
L 252.692981 153.856941 
L 250.831689 152.646691 
L 249.435719 151.503953 
L 248.137613 150.148289 
L 247.109104 148.71944 
L 246.394942 147.354409 
L 245.898988 145.957469 
L 245.687952 145.026175 
L 245.687952 145.026175 
" style="fill:none;stroke:#35b779;stroke-width:1.5;"/>
   </g>
   <g id="LineCollection_6">
    <path clip-path="url(#p353d9679d1)" d="M 90.759106 199.041196 
L 90.709651 197.644256 
L 90.909835 196.247316 
L 91.366706 194.850376 
L 92.098091 193.453435 
L 93.087144 192.112934 
L 94.250452 190.907072 
L 95.646421 189.755876 
L 97.275052 188.666348 
L 99.369006 187.528554 
L 101.780647 186.468734 
L 104.720222 185.431384 
L 107.977484 184.515092 
L 111.932731 183.643473 
L 116.353301 182.903647 
L 121.514785 182.277914 
L 127.055733 181.833157 
L 133.104934 181.570964 
L 139.386796 181.520349 
L 145.668659 181.690489 
L 151.71786 182.07865 
L 157.069076 182.636948 
L 161.954969 183.36596 
L 166.142877 184.207688 
L 169.865462 185.182183 
L 173.016018 186.235911 
L 175.765626 187.400028 
L 178.008617 188.596 
L 179.86991 189.8433 
L 181.381324 191.125202 
L 182.460929 192.289318 
L 183.443981 193.686259 
L 184.127889 195.083199 
L 184.541102 196.480139 
L 184.699387 197.877079 
L 184.608208 199.274019 
L 184.262962 200.67096 
L 183.648263 202.0679 
L 182.89451 203.253901 
L 181.942773 204.396134 
L 180.567894 205.677406 
L 178.939263 206.871237 
L 177.077971 207.967283 
L 174.751355 209.071905 
L 171.959416 210.129987 
L 168.934816 211.04515 
L 165.212231 211.933417 
L 161.024322 212.700816 
L 156.138429 213.363048 
L 150.787213 213.865063 
L 144.738013 214.205023 
L 138.45615 214.336709 
L 131.941626 214.249275 
L 125.659764 213.940285 
L 119.843224 213.4281 
L 114.72467 212.755889 
L 110.3041 211.957705 
L 106.581515 211.076557 
L 103.324253 210.09045 
L 100.532314 209.022089 
L 98.173697 207.888484 
L 96.111744 206.637387 
L 94.483113 205.381743 
L 93.243758 204.16331 
L 92.16811 202.76637 
L 91.409321 201.36943 
L 90.93197 199.97249 
L 90.759106 199.041196 
L 90.759106 199.041196 
" style="fill:none;stroke:#90d743;stroke-width:1.5;"/>
    <path clip-path="url(#p353d9679d1)" d="M 90.748438 89.381391 
L 90.714939 87.984451 
L 90.93197 86.58751 
L 91.409321 85.19057 
L 92.156498 83.811876 
L 93.040449 82.629513 
L 94.250452 81.385675 
L 95.646421 80.251393 
L 97.507714 79.044114 
L 99.601668 77.955014 
L 102.160945 76.885154 
L 104.952884 75.946932 
L 108.210146 75.070324 
L 112.165393 74.237446 
L 116.818624 73.500515 
L 121.937179 72.919894 
L 127.753718 72.490896 
L 134.03558 72.257685 
L 140.550104 72.243478 
L 146.831967 72.447829 
L 152.881167 72.866555 
L 158.232384 73.454042 
L 162.885615 74.174212 
L 167.073523 75.042537 
L 170.563447 75.98225 
L 173.651546 77.041752 
L 176.321597 78.205869 
L 178.47394 79.391973 
L 180.335233 80.694247 
L 181.718689 81.931043 
L 182.736494 83.09516 
L 183.648263 84.4921 
L 184.262962 85.88904 
L 184.608208 87.285981 
L 184.699387 88.682921 
L 184.541102 90.079861 
L 184.127889 91.476801 
L 183.443981 92.873741 
L 182.647246 94.037858 
L 181.498541 95.319977 
L 180.102571 96.538545 
L 178.47394 97.677977 
L 176.612648 98.739419 
L 174.194223 99.858442 
L 171.261432 100.94135 
L 168.00417 101.896239 
L 164.281584 102.755054 
L 159.861015 103.53581 
L 154.975122 104.168216 
L 149.391244 104.658553 
L 143.342043 104.959013 
L 137.060181 105.046379 
L 130.778318 104.913678 
L 124.729117 104.565633 
L 119.14524 104.022932 
L 114.259347 103.332741 
L 109.838777 102.483564 
L 106.116192 101.547218 
L 103.017797 100.556912 
L 100.299653 99.467179 
L 97.973037 98.300748 
L 96.111744 97.138326 
L 94.52526 95.900445 
L 93.319805 94.713155 
L 92.248651 93.339388 
L 91.458513 91.91911 
L 90.967757 90.545508 
L 90.748438 89.381391 
L 90.748438 89.381391 
" style="fill:none;stroke:#90d743;stroke-width:1.5;"/>
    <path clip-path="url(#p353d9679d1)" d="M 278.255754 143.862058 
L 278.195035 143.163588 
L 278.316785 142.465118 
L 278.624982 141.766648 
L 279.2164 140.971785 
L 280.147047 140.125849 
L 281.577107 139.205591 
L 283.404309 138.344618 
L 285.559691 137.575828 
L 288.522863 136.790318 
L 291.780125 136.164891 
L 295.735372 135.646878 
L 300.155942 135.307948 
L 304.809173 135.182615 
L 309.462404 135.279623 
L 313.882974 135.589056 
L 317.838221 136.074512 
L 321.328145 136.712837 
L 324.352745 137.488774 
L 326.679361 138.296794 
L 328.622782 139.205591 
L 330.067582 140.136885 
L 331.099931 141.102437 
L 331.698844 141.999471 
L 331.944134 142.697942 
L 332.005094 143.396412 
L 331.883108 144.094882 
L 331.565254 144.80941 
L 331.071692 145.491822 
L 330.067582 146.423115 
L 328.773315 147.26919 
L 327.144684 148.069903 
L 324.818068 148.9275 
L 322.258791 149.634613 
L 319.23419 150.257266 
L 315.511605 150.797779 
L 311.323697 151.177056 
L 306.670466 151.365327 
L 302.017234 151.329648 
L 297.536374 151.079583 
L 293.24289 150.613936 
L 289.686171 150.017104 
L 286.661571 149.305579 
L 284.102293 148.488009 
L 282.008339 147.581827 
L 280.379708 146.605549 
L 279.342208 145.724645 
L 278.624982 144.793352 
L 278.285754 143.977001 
L 278.255754 143.862058 
L 278.255754 143.862058 
" style="fill:none;stroke:#90d743;stroke-width:1.5;"/>
   </g>
   <g id="LineCollection_7">
    <path clip-path="url(#p353d9679d1)" d="M 121.418752 198.575549 
L 121.363772 197.877079 
L 121.548397 197.178609 
L 121.98175 196.480139 
L 122.687628 195.781669 
L 123.798471 195.034257 
L 125.194441 194.36037 
L 127.288395 193.641002 
L 129.847672 193.043852 
L 132.639611 192.631667 
L 135.664211 192.401723 
L 138.921473 192.37394 
L 142.178735 192.570801 
L 145.250719 192.987789 
L 147.762613 193.544655 
L 149.856567 194.221578 
L 151.485198 194.970077 
L 152.648506 195.731865 
L 153.346491 196.397277 
L 153.811814 197.09782 
L 154.001655 197.644256 
L 154.026375 198.342726 
L 153.810481 199.041196 
L 153.342151 199.739666 
L 152.594129 200.438136 
L 151.485198 201.153314 
L 149.856567 201.89543 
L 147.762613 202.567525 
L 145.203336 203.125803 
L 142.411397 203.508514 
L 139.154135 203.720419 
L 135.896873 203.708879 
L 132.639611 203.472246 
L 129.847672 203.063028 
L 127.508958 202.533547 
L 125.385456 201.835076 
L 123.798471 201.087924 
L 122.635163 200.298448 
L 121.937179 199.588556 
L 121.589917 199.041196 
L 121.418752 198.575549 
L 121.418752 198.575549 
" style="fill:none;stroke:#fde725;stroke-width:1.5;"/>
    <path clip-path="url(#p353d9679d1)" d="M 121.45963 89.148567 
L 121.355585 88.450097 
L 121.490447 87.751627 
L 121.937179 86.971444 
L 122.635163 86.261552 
L 123.56581 85.607355 
L 124.961779 84.900985 
L 126.823072 84.225426 
L 129.149687 83.634762 
L 131.708965 83.201752 
L 134.733565 82.909357 
L 137.990827 82.818985 
L 141.248089 82.949499 
L 144.272689 83.283189 
L 146.971724 83.79363 
L 149.158582 84.413214 
L 150.787213 85.057332 
L 152.183183 85.82852 
L 152.881167 86.358335 
L 153.579152 87.129889 
L 153.909278 87.751627 
L 154.044475 88.459786 
L 153.940051 89.148567 
L 153.579152 89.86406 
L 152.881167 90.632371 
L 151.950521 91.31779 
L 150.554552 92.048935 
L 148.693259 92.744089 
L 146.366644 93.353075 
L 143.574705 93.830442 
L 140.550104 94.116561 
L 137.292842 94.199944 
L 134.03558 94.060864 
L 131.01098 93.713886 
L 128.219041 93.165253 
L 126.125087 92.551662 
L 124.496456 91.88861 
L 123.100486 91.087437 
L 122.402502 90.52872 
L 121.704517 89.679789 
L 121.45963 89.148567 
L 121.45963 89.148567 
" style="fill:none;stroke:#fde725;stroke-width:1.5;"/>
   </g>
   <g id="line2d_1">
    <path clip-path="url(#p353d9679d1)" d="M 54 195.36 
L 388.8 195.36 
" style="fill:none;stroke:#ff0000;stroke-linecap:square;stroke-width:1.5;"/>
   </g>
   <g id="line2d_2">
    <path clip-path="url(#p353d9679d1)" d="M 54 91.2 
L 388.8 91.2 
" style="fill:none;stroke:#ff0000;stroke-linecap:square;stroke-width:1.5;"/>
   </g>
   <g id="patch_3">
    <path d="M 54 252 
L 54 34.56 
" style="fill:none;stroke:#000000;stroke-linecap:square;stroke-linejoin:miter;stroke-width:0.8;"/>
   </g>
   <g id="patch_4">
    <path d="M 388.8 252 
L 388.8 34.56 
" style="fill:none;stroke:#000000;stroke-linecap:square;stroke-linejoin:miter;stroke-width:0.8;"/>
   </g>
   <g id="patch_5">
    <path d="M 54 252 
L 388.8 252 
" style="fill:none;stroke:#000000;stroke-linecap:square;stroke-linejoin:miter;stroke-width:0.8;"/>
   </g>
   <g id="patch_6">
    <path d="M 54 34.56 
L 388.8 34.56 
" style="fill:none;stroke:#000000;stroke-linecap:square;stroke-linejoin:miter;stroke-width:0.8;"/>
   </g>
  </g>
 </g>
 <defs>
  <clipPath id="p353d9679d1">
   <rect height="217.44" width="334.8" x="54" y="34.56"/>
  </clipPath>
 </defs>
</svg>
