<?xml version="1.0" encoding="utf-8" standalone="no"?>
<!DOCTYPE svg PUBLIC "-//W3C//DTD SVG 1.1//EN"
  "http://www.w3.org/Graphics/SVG/1.1/DTD/svg11.dtd">
<!-- Created with matplotlib (http://matplotlib.org/) -->
<svg height="288pt" version="1.1" viewBox="0 0 432 288" width="432pt" xmlns="http://www.w3.org/2000/svg" xmlns:xlink="http://www.w3.org/1999/xlink">
 <defs>
  <style type="text/css">
*{stroke-linecap:butt;stroke-linejoin:round;}
  </style>
 </defs>
 <g id="figure_1">
  <g id="patch_1">
   <path d="M 0 288 
L 432 288 
L 432 0 
L 0 0 
z
" style="fill:#ffffff;"/>
  </g>
  <g id="axes_1">
   <g id="patch_2">
    <path d="M 54 252 
L 388.8 252 
L 388.8 34.56 
L 54 34.56 
z
" style="fill:#ffffff;"/>
   </g>
   <g id="matplotlib.axis_1"/>
   <g id="matplotlib.axis_2"/>
   <g id="LineCollection_1">
    <path clip-path="url(#p5d2b87fe7b)" d="M 106.760179 184.140501 
L 106.814177 184.270236 
L 106.860572 184.373324 
L 106.992045 184.606147 
L 107.046838 184.68687 
L 107.159277 184.838971 
L 107.2795 184.978274 
L 107.368115 185.071794 
L 107.512161 185.204857 
L 107.631891 185.304618 
L 107.744823 185.388354 
L 107.970393 185.537441 
L 107.977484 185.541666 
L 108.210146 185.663567 
L 108.442808 185.768639 
L 108.447084 185.770264 
L 108.675469 185.849374 
L 108.908131 185.914765 
L 109.140792 185.965011 
L 109.373454 186.000154 
L 109.407454 186.003088 
L 109.606115 186.018859 
L 109.838777 186.023475 
L 110.071438 186.014242 
L 110.183838 186.003088 
L 110.3041 185.990115 
L 110.536762 185.949942 
L 110.769423 185.894653 
L 111.002085 185.824202 
L 111.148614 185.770264 
L 111.234746 185.735479 
L 111.467408 185.624809 
L 111.626861 185.537441 
L 111.700069 185.492956 
L 111.932731 185.332908 
L 111.969557 185.304618 
L 112.165393 185.13555 
L 112.232229 185.071794 
L 112.398054 184.891068 
L 112.441713 184.838971 
L 112.608861 184.606147 
L 112.630716 184.569557 
L 112.738616 184.373324 
L 112.840613 184.140501 
L 112.863377 184.070695 
L 112.912652 183.907677 
L 112.958744 183.674854 
L 112.980433 183.442031 
L 112.977585 183.209207 
L 112.950037 182.976384 
L 112.897602 182.743561 
L 112.863377 182.640755 
L 112.816675 182.510737 
L 112.70574 182.277914 
L 112.630716 182.151784 
L 112.561771 182.04509 
L 112.398054 181.834103 
L 112.379505 181.812267 
L 112.165393 181.596536 
L 112.146651 181.579444 
L 111.932731 181.409049 
L 111.845175 181.34662 
L 111.700069 181.254831 
L 111.467408 181.124871 
L 111.444586 181.113797 
L 111.234746 181.022321 
L 111.002085 180.936252 
L 110.820397 180.880974 
L 110.769423 180.866896 
L 110.536762 180.816438 
L 110.3041 180.779775 
L 110.071438 180.756875 
L 109.838777 180.747718 
L 109.606115 180.752296 
L 109.373454 180.770614 
L 109.140792 180.802687 
L 108.908131 180.848542 
L 108.781646 180.880974 
L 108.675469 180.910965 
L 108.442808 180.991928 
L 108.210146 181.088232 
L 108.156859 181.113797 
L 107.977484 181.209595 
L 107.752135 181.34662 
L 107.744823 181.351632 
L 107.512161 181.530426 
L 107.454634 181.579444 
L 107.2795 181.750316 
L 107.221676 181.812267 
L 107.046838 182.031144 
L 107.03661 182.04509 
L 106.894329 182.277914 
L 106.814177 182.441694 
L 106.782931 182.510737 
L 106.703471 182.743561 
L 106.649739 182.976384 
L 106.62151 183.209207 
L 106.61859 183.442031 
L 106.640816 183.674854 
L 106.688049 183.907677 
L 106.760179 184.140501 
" style="fill:none;stroke:#440154;stroke-width:1.5;"/>
    <path clip-path="url(#p5d2b87fe7b)" d="M 106.782931 104.049263 
L 106.814177 104.118306 
L 106.894329 104.282086 
L 107.03661 104.51491 
L 107.046838 104.528856 
L 107.221676 104.747733 
L 107.2795 104.809684 
L 107.454634 104.980556 
L 107.512161 105.029574 
L 107.744823 105.208368 
L 107.752135 105.21338 
L 107.977484 105.350405 
L 108.156859 105.446203 
L 108.210146 105.471768 
L 108.442808 105.568072 
L 108.675469 105.649035 
L 108.781646 105.679026 
L 108.908131 105.711458 
L 109.140792 105.757313 
L 109.373454 105.789386 
L 109.606115 105.807704 
L 109.838777 105.812282 
L 110.071438 105.803125 
L 110.3041 105.780225 
L 110.536762 105.743562 
L 110.769423 105.693104 
L 110.820397 105.679026 
L 111.002085 105.623748 
L 111.234746 105.537679 
L 111.444586 105.446203 
L 111.467408 105.435129 
L 111.700069 105.305169 
L 111.845175 105.21338 
L 111.932731 105.150951 
L 112.146651 104.980556 
L 112.165393 104.963464 
L 112.379505 104.747733 
L 112.398054 104.725897 
L 112.561771 104.51491 
L 112.630716 104.408216 
L 112.70574 104.282086 
L 112.816675 104.049263 
L 112.863377 103.919245 
L 112.897602 103.816439 
L 112.950037 103.583616 
L 112.977585 103.350793 
L 112.980433 103.117969 
L 112.958744 102.885146 
L 112.912652 102.652323 
L 112.863377 102.489305 
L 112.840613 102.419499 
L 112.738616 102.186676 
L 112.630716 101.990443 
L 112.608861 101.953853 
L 112.441713 101.721029 
L 112.398054 101.668932 
L 112.232229 101.488206 
L 112.165393 101.42445 
L 111.969557 101.255382 
L 111.932731 101.227092 
L 111.700069 101.067044 
L 111.626861 101.022559 
L 111.467408 100.935191 
L 111.234746 100.824521 
L 111.148614 100.789736 
L 111.002085 100.735798 
L 110.769423 100.665347 
L 110.536762 100.610058 
L 110.3041 100.569885 
L 110.183838 100.556912 
L 110.071438 100.545758 
L 109.838777 100.536525 
L 109.606115 100.541141 
L 109.407454 100.556912 
L 109.373454 100.559846 
L 109.140792 100.594989 
L 108.908131 100.645235 
L 108.675469 100.710626 
L 108.447084 100.789736 
L 108.442808 100.791361 
L 108.210146 100.896433 
L 107.977484 101.018334 
L 107.970393 101.022559 
L 107.744823 101.171646 
L 107.631891 101.255382 
L 107.512161 101.355143 
L 107.368115 101.488206 
L 107.2795 101.581726 
L 107.159277 101.721029 
L 107.046838 101.87313 
L 106.992045 101.953853 
L 106.860572 102.186676 
L 106.814177 102.289764 
L 106.760179 102.419499 
L 106.688049 102.652323 
L 106.640816 102.885146 
L 106.61859 103.117969 
L 106.62151 103.350793 
L 106.649739 103.583616 
L 106.703471 103.816439 
L 106.782931 104.049263 
" style="fill:none;stroke:#440154;stroke-width:1.5;"/>
    <path clip-path="url(#p5d2b87fe7b)" d="M 218.239848 183.674854 
L 218.259069 183.774312 
L 218.286817 183.907677 
L 218.360778 184.140501 
L 218.460184 184.373324 
L 218.49173 184.432234 
L 218.592673 184.606147 
L 218.724392 184.794872 
L 218.757995 184.838971 
L 218.957054 185.06275 
L 218.965913 185.071794 
L 219.189715 185.27179 
L 219.230588 185.304618 
L 219.422377 185.441702 
L 219.573319 185.537441 
L 219.655038 185.584176 
L 219.8877 185.700456 
L 220.050909 185.770264 
L 220.120361 185.797339 
L 220.353023 185.872857 
L 220.585685 185.933194 
L 220.818346 185.978401 
L 221.009045 186.003088 
L 221.051008 186.008085 
L 221.283669 186.021937 
L 221.516331 186.021937 
L 221.748992 186.008085 
L 221.790955 186.003088 
L 221.981654 185.978401 
L 222.214315 185.933194 
L 222.446977 185.872857 
L 222.679639 185.797339 
L 222.749091 185.770264 
L 222.9123 185.700456 
L 223.144962 185.584176 
L 223.226681 185.537441 
L 223.377623 185.441702 
L 223.569412 185.304618 
L 223.610285 185.27179 
L 223.834087 185.071794 
L 223.842946 185.06275 
L 224.042005 184.838971 
L 224.075608 184.794872 
L 224.207327 184.606147 
L 224.30827 184.432234 
L 224.339816 184.373324 
L 224.439222 184.140501 
L 224.513183 183.907677 
L 224.540931 183.774312 
L 224.560152 183.674854 
L 224.581331 183.442031 
L 224.578549 183.209207 
L 224.55165 182.976384 
L 224.540931 182.927621 
L 224.497369 182.743561 
L 224.415892 182.510737 
L 224.30827 182.278977 
L 224.307734 182.277914 
L 224.161535 182.04509 
L 224.075608 181.931141 
L 223.97773 181.812267 
L 223.842946 181.672167 
L 223.744702 181.579444 
L 223.610285 181.468645 
L 223.445545 181.34662 
L 223.377623 181.301989 
L 223.144962 181.166276 
L 223.041988 181.113797 
L 222.9123 181.054421 
L 222.679639 180.963239 
L 222.446977 180.887374 
L 222.422426 180.880974 
L 222.214315 180.831723 
L 221.981654 180.790466 
L 221.748992 180.762981 
L 221.516331 180.749244 
L 221.283669 180.749244 
L 221.051008 180.762981 
L 220.818346 180.790466 
L 220.585685 180.831723 
L 220.377574 180.880974 
L 220.353023 180.887374 
L 220.120361 180.963239 
L 219.8877 181.054421 
L 219.758012 181.113797 
L 219.655038 181.166276 
L 219.422377 181.301989 
L 219.354455 181.34662 
L 219.189715 181.468645 
L 219.055298 181.579444 
L 218.957054 181.672167 
L 218.82227 181.812267 
L 218.724392 181.931141 
L 218.638465 182.04509 
L 218.492266 182.277914 
L 218.49173 182.278977 
L 218.384108 182.510737 
L 218.302631 182.743561 
L 218.259069 182.927621 
L 218.24835 182.976384 
L 218.221451 183.209207 
L 218.218669 183.442031 
L 218.239848 183.674854 
" style="fill:none;stroke:#440154;stroke-width:1.5;"/>
    <path clip-path="url(#p5d2b87fe7b)" d="M 218.24835 103.583616 
L 218.259069 103.632379 
L 218.302631 103.816439 
L 218.384108 104.049263 
L 218.49173 104.281023 
L 218.492266 104.282086 
L 218.638465 104.51491 
L 218.724392 104.628859 
L 218.82227 104.747733 
L 218.957054 104.887833 
L 219.055298 104.980556 
L 219.189715 105.091355 
L 219.354455 105.21338 
L 219.422377 105.258011 
L 219.655038 105.393724 
L 219.758012 105.446203 
L 219.8877 105.505579 
L 220.120361 105.596761 
L 220.353023 105.672626 
L 220.377574 105.679026 
L 220.585685 105.728277 
L 220.818346 105.769534 
L 221.051008 105.797019 
L 221.283669 105.810756 
L 221.516331 105.810756 
L 221.748992 105.797019 
L 221.981654 105.769534 
L 222.214315 105.728277 
L 222.422426 105.679026 
L 222.446977 105.672626 
L 222.679639 105.596761 
L 222.9123 105.505579 
L 223.041988 105.446203 
L 223.144962 105.393724 
L 223.377623 105.258011 
L 223.445545 105.21338 
L 223.610285 105.091355 
L 223.744702 104.980556 
L 223.842946 104.887833 
L 223.97773 104.747733 
L 224.075608 104.628859 
L 224.161535 104.51491 
L 224.307734 104.282086 
L 224.30827 104.281023 
L 224.415892 104.049263 
L 224.497369 103.816439 
L 224.540931 103.632379 
L 224.55165 103.583616 
L 224.578549 103.350793 
L 224.581331 103.117969 
L 224.560152 102.885146 
L 224.540931 102.785688 
L 224.513183 102.652323 
L 224.439222 102.419499 
L 224.339816 102.186676 
L 224.30827 102.127766 
L 224.207327 101.953853 
L 224.075608 101.765128 
L 224.042005 101.721029 
L 223.842946 101.49725 
L 223.834087 101.488206 
L 223.610285 101.28821 
L 223.569412 101.255382 
L 223.377623 101.118298 
L 223.226681 101.022559 
L 223.144962 100.975824 
L 222.9123 100.859544 
L 222.749091 100.789736 
L 222.679639 100.762661 
L 222.446977 100.687143 
L 222.214315 100.626806 
L 221.981654 100.581599 
L 221.790955 100.556912 
L 221.748992 100.551915 
L 221.516331 100.538063 
L 221.283669 100.538063 
L 221.051008 100.551915 
L 221.009045 100.556912 
L 220.818346 100.581599 
L 220.585685 100.626806 
L 220.353023 100.687143 
L 220.120361 100.762661 
L 220.050909 100.789736 
L 219.8877 100.859544 
L 219.655038 100.975824 
L 219.573319 101.022559 
L 219.422377 101.118298 
L 219.230588 101.255382 
L 219.189715 101.28821 
L 218.965913 101.488206 
L 218.957054 101.49725 
L 218.757995 101.721029 
L 218.724392 101.765128 
L 218.592673 101.953853 
L 218.49173 102.127766 
L 218.460184 102.186676 
L 218.360778 102.419499 
L 218.286817 102.652323 
L 218.259069 102.785688 
L 218.239848 102.885146 
L 218.218669 103.117969 
L 218.221451 103.350793 
L 218.24835 103.583616 
" style="fill:none;stroke:#440154;stroke-width:1.5;"/>
    <path clip-path="url(#p5d2b87fe7b)" d="M 329.887348 183.907677 
L 329.936623 184.070695 
L 329.959387 184.140501 
L 330.061384 184.373324 
L 330.169284 184.569557 
L 330.191139 184.606147 
L 330.358287 184.838971 
L 330.401946 184.891068 
L 330.567771 185.071794 
L 330.634607 185.13555 
L 330.830443 185.304618 
L 330.867269 185.332908 
L 331.099931 185.492956 
L 331.173139 185.537441 
L 331.332592 185.624809 
L 331.565254 185.735479 
L 331.651386 185.770264 
L 331.797915 185.824202 
L 332.030577 185.894653 
L 332.263238 185.949942 
L 332.4959 185.990115 
L 332.616162 186.003088 
L 332.728562 186.014242 
L 332.961223 186.023475 
L 333.193885 186.018859 
L 333.392546 186.003088 
L 333.426546 186.000154 
L 333.659208 185.965011 
L 333.891869 185.914765 
L 334.124531 185.849374 
L 334.352916 185.770264 
L 334.357192 185.768639 
L 334.589854 185.663567 
L 334.822516 185.541666 
L 334.829607 185.537441 
L 335.055177 185.388354 
L 335.168109 185.304618 
L 335.287839 185.204857 
L 335.431885 185.071794 
L 335.5205 184.978274 
L 335.640723 184.838971 
L 335.753162 184.68687 
L 335.807955 184.606147 
L 335.939428 184.373324 
L 335.985823 184.270236 
L 336.039821 184.140501 
L 336.111951 183.907677 
L 336.159184 183.674854 
L 336.18141 183.442031 
L 336.17849 183.209207 
L 336.150261 182.976384 
L 336.096529 182.743561 
L 336.017069 182.510737 
L 335.985823 182.441694 
L 335.905671 182.277914 
L 335.76339 182.04509 
L 335.753162 182.031144 
L 335.578324 181.812267 
L 335.5205 181.750316 
L 335.345366 181.579444 
L 335.287839 181.530426 
L 335.055177 181.351632 
L 335.047865 181.34662 
L 334.822516 181.209595 
L 334.643141 181.113797 
L 334.589854 181.088232 
L 334.357192 180.991928 
L 334.124531 180.910965 
L 334.018354 180.880974 
L 333.891869 180.848542 
L 333.659208 180.802687 
L 333.426546 180.770614 
L 333.193885 180.752296 
L 332.961223 180.747718 
L 332.728562 180.756875 
L 332.4959 180.779775 
L 332.263238 180.816438 
L 332.030577 180.866896 
L 331.979603 180.880974 
L 331.797915 180.936252 
L 331.565254 181.022321 
L 331.355414 181.113797 
L 331.332592 181.124871 
L 331.099931 181.254831 
L 330.954825 181.34662 
L 330.867269 181.409049 
L 330.653349 181.579444 
L 330.634607 181.596536 
L 330.420495 181.812267 
L 330.401946 181.834103 
L 330.238229 182.04509 
L 330.169284 182.151784 
L 330.09426 182.277914 
L 329.983325 182.510737 
L 329.936623 182.640755 
L 329.902398 182.743561 
L 329.849963 182.976384 
L 329.822415 183.209207 
L 329.819567 183.442031 
L 329.841256 183.674854 
L 329.887348 183.907677 
" style="fill:none;stroke:#440154;stroke-width:1.5;"/>
    <path clip-path="url(#p5d2b87fe7b)" d="M 329.902398 103.816439 
L 329.936623 103.919245 
L 329.983325 104.049263 
L 330.09426 104.282086 
L 330.169284 104.408216 
L 330.238229 104.51491 
L 330.401946 104.725897 
L 330.420495 104.747733 
L 330.634607 104.963464 
L 330.653349 104.980556 
L 330.867269 105.150951 
L 330.954825 105.21338 
L 331.099931 105.305169 
L 331.332592 105.435129 
L 331.355414 105.446203 
L 331.565254 105.537679 
L 331.797915 105.623748 
L 331.979603 105.679026 
L 332.030577 105.693104 
L 332.263238 105.743562 
L 332.4959 105.780225 
L 332.728562 105.803125 
L 332.961223 105.812282 
L 333.193885 105.807704 
L 333.426546 105.789386 
L 333.659208 105.757313 
L 333.891869 105.711458 
L 334.018354 105.679026 
L 334.124531 105.649035 
L 334.357192 105.568072 
L 334.589854 105.471768 
L 334.643141 105.446203 
L 334.822516 105.350405 
L 335.047865 105.21338 
L 335.055177 105.208368 
L 335.287839 105.029574 
L 335.345366 104.980556 
L 335.5205 104.809684 
L 335.578324 104.747733 
L 335.753162 104.528856 
L 335.76339 104.51491 
L 335.905671 104.282086 
L 335.985823 104.118306 
L 336.017069 104.049263 
L 336.096529 103.816439 
L 336.150261 103.583616 
L 336.17849 103.350793 
L 336.18141 103.117969 
L 336.159184 102.885146 
L 336.111951 102.652323 
L 336.039821 102.419499 
L 335.985823 102.289764 
L 335.939428 102.186676 
L 335.807955 101.953853 
L 335.753162 101.87313 
L 335.640723 101.721029 
L 335.5205 101.581726 
L 335.431885 101.488206 
L 335.287839 101.355143 
L 335.168109 101.255382 
L 335.055177 101.171646 
L 334.829607 101.022559 
L 334.822516 101.018334 
L 334.589854 100.896433 
L 334.357192 100.791361 
L 334.352916 100.789736 
L 334.124531 100.710626 
L 333.891869 100.645235 
L 333.659208 100.594989 
L 333.426546 100.559846 
L 333.392546 100.556912 
L 333.193885 100.541141 
L 332.961223 100.536525 
L 332.728562 100.545758 
L 332.616162 100.556912 
L 332.4959 100.569885 
L 332.263238 100.610058 
L 332.030577 100.665347 
L 331.797915 100.735798 
L 331.651386 100.789736 
L 331.565254 100.824521 
L 331.332592 100.935191 
L 331.173139 101.022559 
L 331.099931 101.067044 
L 330.867269 101.227092 
L 330.830443 101.255382 
L 330.634607 101.42445 
L 330.567771 101.488206 
L 330.401946 101.668932 
L 330.358287 101.721029 
L 330.191139 101.953853 
L 330.169284 101.990443 
L 330.061384 102.186676 
L 329.959387 102.419499 
L 329.936623 102.489305 
L 329.887348 102.652323 
L 329.841256 102.885146 
L 329.819567 103.117969 
L 329.822415 103.350793 
L 329.849963 103.583616 
L 329.902398 103.816439 
" style="fill:none;stroke:#440154;stroke-width:1.5;"/>
   </g>
   <g id="LineCollection_2">
    <path clip-path="url(#p5d2b87fe7b)" d="M 54 150.407623 
L 56.093954 150.291241 
L 57.955247 149.979027 
L 59.744328 149.449819 
L 61.212509 148.782506 
L 62.375817 148.026178 
L 63.358301 147.121586 
L 64.057752 146.190292 
L 64.522197 145.258999 
L 64.835296 144.094882 
L 64.886302 142.930765 
L 64.680828 141.766648 
L 64.237109 140.68378 
L 63.741431 139.904061 
L 62.84114 138.922203 
L 61.665129 138.041474 
L 60.281862 137.325226 
L 58.653231 136.757372 
L 56.791939 136.36083 
L 54.697985 136.164959 
L 54 136.152377 
L 54 136.152377 
" style="fill:none;stroke:#443983;stroke-width:1.5;"/>
    <path clip-path="url(#p5d2b87fe7b)" d="M 388.8 136.152377 
L 386.706046 136.268759 
L 384.844753 136.580973 
L 383.055672 137.110181 
L 381.587491 137.777494 
L 380.424183 138.533822 
L 379.441699 139.438414 
L 378.742248 140.369708 
L 378.277803 141.301001 
L 377.964704 142.465118 
L 377.913698 143.629235 
L 378.119172 144.793352 
L 378.562891 145.87622 
L 379.058569 146.655939 
L 379.95886 147.637797 
L 381.134871 148.518526 
L 382.518138 149.234774 
L 384.146769 149.802628 
L 386.008061 150.19917 
L 388.102015 150.395041 
L 388.8 150.407623 
L 388.8 150.407623 
" style="fill:none;stroke:#443983;stroke-width:1.5;"/>
    <path clip-path="url(#p5d2b87fe7b)" d="M 94.712774 185.071794 
L 95.007538 186.701558 
L 95.507806 188.331321 
L 96.248387 189.961085 
L 97.122154 191.358025 
L 98.205698 192.66597 
L 99.369006 193.746085 
L 100.764976 194.74484 
L 102.393607 195.618349 
L 104.254899 196.330528 
L 106.116192 196.802272 
L 108.210146 197.091705 
L 110.3041 197.150105 
L 112.398054 196.982308 
L 114.492008 196.573782 
L 116.353301 195.978114 
L 117.981932 195.23584 
L 119.383464 194.384729 
L 120.773871 193.275622 
L 121.937179 192.056297 
L 122.946203 190.659555 
L 123.798471 189.049888 
L 124.333499 187.632851 
L 124.742777 186.003088 
L 124.969756 184.140501 
L 124.95003 182.277914 
L 124.718987 180.64815 
L 124.256919 179.018387 
L 123.56581 177.500356 
L 122.72662 176.224506 
L 121.670464 175.060389 
L 120.535043 174.129096 
L 119.14524 173.27607 
L 117.516609 172.545759 
L 115.655316 171.961607 
L 113.561362 171.539698 
L 111.234746 171.302726 
L 108.908131 171.278723 
L 106.581515 171.46444 
L 104.487561 171.83067 
L 102.393607 172.432167 
L 100.764976 173.117626 
L 99.369006 173.919746 
L 98.184643 174.827566 
L 97.042391 176.011816 
L 96.233898 177.1558 
L 95.525265 178.55274 
L 95.04838 179.94968 
L 94.715775 181.639231 
L 94.609234 183.209207 
L 94.712774 185.071794 
L 94.712774 185.071794 
" style="fill:none;stroke:#443983;stroke-width:1.5;"/>
    <path clip-path="url(#p5d2b87fe7b)" d="M 94.694665 104.747733 
L 94.987649 106.377497 
L 95.525265 108.00726 
L 96.233898 109.4042 
L 97.058788 110.568317 
L 98.205698 111.750893 
L 99.404339 112.663727 
L 100.764976 113.442374 
L 102.393607 114.127833 
L 104.254899 114.675038 
L 106.348853 115.064832 
L 108.675469 115.272371 
L 111.002085 115.268943 
L 113.3287 115.054083 
L 115.422655 114.656337 
L 117.392366 114.060668 
L 118.994903 113.362197 
L 120.308548 112.587825 
L 121.471855 111.68185 
L 122.540906 110.568317 
L 123.366305 109.4042 
L 124.074878 108.00726 
L 124.6122 106.377497 
L 124.905198 104.747733 
L 124.991396 103.117969 
L 124.856666 101.255382 
L 124.471772 99.392796 
L 123.907242 97.763032 
L 123.088209 96.133268 
L 122.125989 94.736328 
L 121.006532 93.503247 
L 119.708686 92.408095 
L 118.214593 91.450177 
L 116.585962 90.674178 
L 114.72467 90.047767 
L 112.653804 89.614214 
L 110.769423 89.427471 
L 108.675469 89.435807 
L 106.581515 89.672456 
L 104.720222 90.090739 
L 102.85893 90.73796 
L 101.230299 91.537508 
L 99.834329 92.450126 
L 98.522641 93.572211 
L 97.473957 94.736328 
L 96.512039 96.133268 
L 95.692625 97.763032 
L 95.12834 99.392796 
L 94.743141 101.255382 
L 94.608786 103.117969 
L 94.694665 104.747733 
L 94.694665 104.747733 
" style="fill:none;stroke:#443983;stroke-width:1.5;"/>
    <path clip-path="url(#p5d2b87fe7b)" d="M 154.733704 143.862058 
L 154.992612 145.026175 
L 155.440445 146.017201 
L 156.138429 147.003093 
L 157.069076 147.902864 
L 158.232384 148.695285 
L 159.628353 149.361907 
L 161.256984 149.885862 
L 163.118277 150.243443 
L 165.212231 150.403742 
L 167.306185 150.330767 
L 169.167477 150.061966 
L 171.02877 149.562145 
L 172.426346 148.984172 
L 173.820709 148.142107 
L 174.751355 147.341417 
L 175.507219 146.423115 
L 176.025157 145.491822 
L 176.394759 144.327705 
L 176.496242 143.163588 
L 176.34307 141.999471 
L 175.914663 140.831921 
L 175.216678 139.74384 
L 174.497441 138.972768 
L 173.355386 138.099153 
L 172.192078 137.464542 
L 170.662202 136.877357 
L 168.934816 136.452651 
L 167.073523 136.209447 
L 164.979569 136.162317 
L 162.885615 136.349255 
L 161.024322 136.735965 
L 159.395691 137.292712 
L 157.999722 138.002073 
L 156.967834 138.739944 
L 156.041441 139.671238 
L 155.406133 140.602531 
L 154.919388 141.766648 
L 154.713573 142.930765 
L 154.733704 143.862058 
L 154.733704 143.862058 
" style="fill:none;stroke:#443983;stroke-width:1.5;"/>
    <path clip-path="url(#p5d2b87fe7b)" d="M 206.377212 185.537441 
L 206.728441 187.167204 
L 207.323975 188.870857 
L 208.112099 190.426732 
L 209.074187 191.823672 
L 210.122217 192.987789 
L 211.511883 194.167406 
L 212.937725 195.083199 
L 214.536484 195.854158 
L 216.397776 196.490968 
L 218.259069 196.900574 
L 220.353023 197.128516 
L 222.446977 197.128516 
L 224.540931 196.900574 
L 226.440479 196.480139 
L 228.263516 195.854158 
L 229.892147 195.066562 
L 231.309082 194.151905 
L 232.684086 192.981617 
L 233.847394 191.667964 
L 234.77804 190.272585 
L 235.50744 188.796968 
L 236.071559 187.167204 
L 236.422788 185.537441 
L 236.587903 183.674854 
L 236.505118 181.812267 
L 236.212356 180.182503 
L 235.708687 178.635512 
L 235.103197 177.388623 
L 234.312717 176.206312 
L 233.270224 175.060389 
L 232.13459 174.129096 
L 230.822794 173.317365 
L 229.194163 172.575448 
L 227.33287 171.981542 
L 225.238916 171.551474 
L 222.9123 171.307078 
L 220.585685 171.276213 
L 218.259069 171.4547 
L 216.165115 171.813169 
L 214.071161 172.404927 
L 212.44253 173.07963 
L 211.004383 173.896273 
L 209.784964 174.827566 
L 208.719944 175.918656 
L 207.979391 176.922976 
L 207.225604 178.319917 
L 206.714044 179.716857 
L 206.356139 181.34662 
L 206.213471 182.976384 
L 206.286702 184.838971 
L 206.377212 185.537441 
L 206.377212 185.537441 
" style="fill:none;stroke:#443983;stroke-width:1.5;"/>
    <path clip-path="url(#p5d2b87fe7b)" d="M 206.393144 105.446203 
L 206.784952 107.075967 
L 207.332288 108.472907 
L 208.134297 109.869847 
L 209.066871 111.033964 
L 210.115914 112.012568 
L 211.511883 112.980644 
L 213.140514 113.797308 
L 214.769145 114.382234 
L 216.863099 114.889094 
L 219.189715 115.20293 
L 221.516331 115.296096 
L 223.842946 115.181816 
L 226.169562 114.84428 
L 228.263516 114.310483 
L 229.892147 113.696433 
L 231.428544 112.896551 
L 232.742094 111.965257 
L 233.847394 110.908908 
L 234.77804 109.702036 
L 235.476025 108.455081 
L 236.015048 107.075967 
L 236.406856 105.446203 
L 236.578254 103.816439 
L 236.535848 101.953853 
L 236.246555 100.091266 
L 235.777355 98.461502 
L 235.07421 96.831739 
L 234.241533 95.434798 
L 233.12905 94.037858 
L 231.903331 92.873741 
L 230.590132 91.913111 
L 228.956443 91.011154 
L 227.100208 90.278868 
L 225.238916 89.788889 
L 223.144962 89.481631 
L 221.051008 89.406507 
L 218.957054 89.557341 
L 216.863099 89.947035 
L 214.942046 90.545508 
L 213.371047 91.243978 
L 211.744545 92.225636 
L 210.348575 93.35591 
L 209.185268 94.598256 
L 208.253433 95.900445 
L 207.392818 97.530209 
L 206.795224 99.159972 
L 206.393329 100.923188 
L 206.219371 102.652323 
L 206.270505 104.51491 
L 206.393144 105.446203 
L 206.393144 105.446203 
" style="fill:none;stroke:#443983;stroke-width:1.5;"/>
    <path clip-path="url(#p5d2b87fe7b)" d="M 266.405241 144.327705 
L 266.677626 145.258999 
L 267.142048 146.190292 
L 267.841503 147.121586 
L 268.859056 148.052879 
L 269.930451 148.751349 
L 271.45574 149.449819 
L 272.974297 149.915466 
L 274.79583 150.253669 
L 276.889785 150.405139 
L 278.983739 150.323519 
L 280.845031 150.046112 
L 282.706324 149.535312 
L 284.102293 148.945635 
L 285.265601 148.253862 
L 286.338234 147.354409 
L 287.126894 146.393696 
L 287.625448 145.491822 
L 287.994456 144.327705 
L 288.096482 143.163588 
L 287.942814 141.999471 
L 287.592217 140.996349 
L 287.107488 140.136885 
L 286.338234 139.205591 
L 285.265601 138.306138 
L 284.102293 137.614365 
L 282.706324 137.024688 
L 281.077693 136.563648 
L 279.2164 136.260195 
L 277.122446 136.152532 
L 275.028492 136.277653 
L 273.167199 136.598671 
L 271.45574 137.110181 
L 269.909937 137.82017 
L 268.74663 138.595079 
L 267.815983 139.467346 
L 267.117999 140.410136 
L 266.592883 141.533825 
L 266.334131 142.697942 
L 266.334131 143.862058 
L 266.405241 144.327705 
L 266.405241 144.327705 
" style="fill:none;stroke:#443983;stroke-width:1.5;"/>
    <path clip-path="url(#p5d2b87fe7b)" d="M 317.830244 184.140501 
L 318.057223 186.003088 
L 318.466501 187.632851 
L 319.098306 189.262615 
L 319.932175 190.783575 
L 320.862986 192.056495 
L 322.026129 193.275622 
L 323.422099 194.388599 
L 325.05073 195.356644 
L 326.679361 196.066078 
L 328.540653 196.632007 
L 330.401946 196.982308 
L 332.4959 197.150105 
L 334.589854 197.091705 
L 336.683808 196.802272 
L 338.545101 196.330528 
L 340.406393 195.618349 
L 342.035024 194.74484 
L 343.503366 193.686259 
L 344.728728 192.522142 
L 345.757609 191.24589 
L 346.551613 189.961085 
L 347.292194 188.331321 
L 347.792462 186.701558 
L 348.113483 184.838971 
L 348.186436 182.976384 
L 348.043847 181.34662 
L 347.685999 179.716857 
L 347.153579 178.273493 
L 346.420643 176.922976 
L 345.524948 175.737639 
L 344.342321 174.594743 
L 342.965671 173.625373 
L 341.33704 172.79588 
L 339.708409 172.201338 
L 337.614454 171.685566 
L 335.287839 171.363867 
L 332.961223 171.263676 
L 330.634607 171.370905 
L 328.307992 171.700503 
L 326.214038 172.225254 
L 324.585407 172.829504 
L 322.956776 173.672151 
L 321.560806 174.676055 
L 320.456523 175.75886 
L 319.579554 176.922976 
L 318.825516 178.319917 
L 318.303544 179.752735 
L 317.956296 181.34662 
L 317.813364 182.976384 
L 317.830244 184.140501 
L 317.830244 184.140501 
" style="fill:none;stroke:#443983;stroke-width:1.5;"/>
    <path clip-path="url(#p5d2b87fe7b)" d="M 317.833721 104.049263 
L 318.03495 105.679026 
L 318.461333 107.30879 
L 319.046433 108.70573 
L 319.898488 110.10267 
L 320.890589 111.266787 
L 322.026129 112.255289 
L 323.422099 113.158472 
L 325.05073 113.923968 
L 326.912022 114.537646 
L 329.055909 114.991961 
L 331.332592 115.243522 
L 333.659208 115.288121 
L 335.985823 115.12403 
L 338.312439 114.72933 
L 340.406393 114.127833 
L 342.035024 113.442374 
L 343.430994 112.640254 
L 344.615357 111.732434 
L 345.757609 110.548184 
L 346.566102 109.4042 
L 347.274735 108.00726 
L 347.75162 106.61032 
L 348.084225 104.920769 
L 348.190766 103.350793 
L 348.084225 101.464919 
L 347.734086 99.625619 
L 347.153579 97.875252 
L 346.423145 96.366092 
L 345.506382 94.969152 
L 344.36164 93.655499 
L 343.198332 92.62762 
L 341.802363 91.673175 
L 340.173732 90.837522 
L 338.545101 90.229472 
L 336.683808 89.757728 
L 334.589854 89.468295 
L 332.4959 89.409895 
L 330.401946 89.577692 
L 328.307992 89.986218 
L 326.446699 90.581886 
L 324.818068 91.32416 
L 323.416536 92.175271 
L 322.026129 93.284378 
L 320.862821 94.503703 
L 319.853797 95.900445 
L 319.001529 97.510112 
L 318.466501 98.927149 
L 318.057223 100.556912 
L 317.830244 102.419499 
L 317.833721 104.049263 
L 317.833721 104.049263 
" style="fill:none;stroke:#443983;stroke-width:1.5;"/>
   </g>
   <g id="LineCollection_3">
    <path clip-path="url(#p5d2b87fe7b)" d="M 54 156.597574 
L 57.722585 156.482331 
L 60.979847 156.169546 
L 63.771786 155.689635 
L 66.098402 155.068062 
L 67.97433 154.33911 
L 69.588325 153.45223 
L 70.751633 152.576103 
L 71.771034 151.545229 
L 72.616649 150.381113 
L 73.339332 148.984172 
L 73.901193 147.354409 
L 74.273367 145.491822 
L 74.416169 143.629235 
L 74.351789 141.766648 
L 74.070525 139.904061 
L 73.611656 138.274298 
L 73.011001 136.877357 
L 72.309886 135.713241 
L 71.348655 134.549124 
L 70.28631 133.602347 
L 68.890341 132.686384 
L 67.26171 131.913592 
L 65.400417 131.278273 
L 63.073801 130.727687 
L 60.281862 130.304071 
L 57.0246 130.038026 
L 54 129.962426 
L 54 129.962426 
" style="fill:none;stroke:#31688e;stroke-width:1.5;"/>
    <path clip-path="url(#p5d2b87fe7b)" d="M 388.8 129.962426 
L 385.077415 130.077669 
L 381.820153 130.390454 
L 379.028214 130.870365 
L 376.701598 131.491938 
L 374.82567 132.22089 
L 373.211675 133.10777 
L 372.048367 133.983897 
L 371.028966 135.014771 
L 370.183351 136.178887 
L 369.460668 137.575828 
L 368.898807 139.205591 
L 368.526633 141.068178 
L 368.383831 142.930765 
L 368.448211 144.793352 
L 368.729475 146.655939 
L 369.188344 148.285702 
L 369.788999 149.682643 
L 370.490114 150.846759 
L 371.451345 152.010876 
L 372.51369 152.957653 
L 373.909659 153.873616 
L 375.53829 154.646408 
L 377.399583 155.281727 
L 379.726199 155.832313 
L 382.518138 156.255929 
L 385.7754 156.521974 
L 388.8 156.597574 
L 388.8 156.597574 
" style="fill:none;stroke:#31688e;stroke-width:1.5;"/>
    <path clip-path="url(#p5d2b87fe7b)" d="M 87.952672 186.235911 
L 88.296868 189.029791 
L 88.844451 191.590848 
L 89.502853 193.686259 
L 90.298696 195.548846 
L 91.225851 197.197118 
L 92.389159 198.782157 
L 93.552467 200.017314 
L 94.948436 201.186892 
L 96.669114 202.300723 
L 98.43836 203.177619 
L 100.532314 203.957295 
L 102.85893 204.574894 
L 105.418207 205.015323 
L 108.210146 205.25667 
L 111.002085 205.272022 
L 113.794024 205.062882 
L 116.48532 204.628957 
L 118.679917 204.076787 
L 120.773871 203.340912 
L 122.635163 202.464236 
L 124.39973 201.36943 
L 125.844965 200.205313 
L 127.055733 198.964012 
L 128.219041 197.434595 
L 129.184504 195.781669 
L 130.009765 193.919082 
L 130.692741 191.823672 
L 131.243641 189.373343 
L 131.583355 186.934381 
L 131.755592 184.140501 
L 131.705606 181.34662 
L 131.441418 178.785563 
L 130.967508 176.45733 
L 130.362198 174.594743 
L 129.588327 172.964979 
L 128.650811 171.568039 
L 127.521056 170.356627 
L 126.357748 169.435636 
L 124.829426 168.541335 
L 123.100486 167.80828 
L 121.006532 167.176163 
L 118.447255 166.652591 
L 115.422655 166.27006 
L 111.932731 166.054138 
L 108.210146 166.03866 
L 104.487561 166.242001 
L 101.230299 166.640001 
L 98.671022 167.15674 
L 96.404258 167.842865 
L 94.715775 168.568708 
L 93.18877 169.472629 
L 92.027417 170.403922 
L 90.949213 171.568039 
L 90.011724 172.964979 
L 89.237857 174.594743 
L 88.632475 176.45733 
L 88.194674 178.55274 
L 87.90924 181.113797 
L 87.840031 183.907677 
L 87.952672 186.235911 
L 87.952672 186.235911 
" style="fill:none;stroke:#31688e;stroke-width:1.5;"/>
    <path clip-path="url(#p5d2b87fe7b)" d="M 87.963958 106.144673 
L 88.273978 108.472907 
L 88.761721 110.568317 
L 89.431355 112.430904 
L 90.147299 113.827844 
L 90.99319 115.046951 
L 92.027417 116.156078 
L 93.18877 117.087371 
L 94.483113 117.871336 
L 96.111744 118.606987 
L 98.205698 119.283037 
L 100.764976 119.841723 
L 103.789576 120.252219 
L 107.2795 120.491972 
L 111.002085 120.529598 
L 114.768599 120.346898 
L 117.981932 119.980555 
L 120.773871 119.441206 
L 122.867825 118.833673 
L 124.729117 118.068068 
L 126.125087 117.280121 
L 127.312273 116.388901 
L 128.460979 115.224784 
L 129.382349 113.943688 
L 130.080334 112.628602 
L 130.695278 111.033964 
L 131.188819 109.171377 
L 131.564516 106.843143 
L 131.747741 104.282086 
L 131.722753 101.488206 
L 131.475848 98.694325 
L 131.01098 96.022336 
L 130.416752 93.805035 
L 129.61501 91.682546 
L 128.672288 89.847038 
L 127.565483 88.217274 
L 126.357748 86.845049 
L 124.961779 85.609136 
L 123.331342 84.4921 
L 121.471855 83.519894 
L 119.377901 82.703318 
L 117.051286 82.054418 
L 114.492008 81.586234 
L 111.700069 81.318727 
L 108.908131 81.278787 
L 106.089929 81.465396 
L 103.556915 81.842187 
L 101.217302 82.39669 
L 99.136345 83.095258 
L 97.275052 83.932242 
L 95.536702 84.957747 
L 94.01779 86.120507 
L 92.820826 87.285981 
L 91.686802 88.682921 
L 90.662256 90.312684 
L 89.774758 92.175271 
L 89.040129 94.270682 
L 88.467535 96.598915 
L 88.067194 99.159972 
L 87.857866 101.953853 
L 87.870105 104.747733 
L 87.963958 106.144673 
L 87.963958 106.144673 
" style="fill:none;stroke:#31688e;stroke-width:1.5;"/>
    <path clip-path="url(#p5d2b87fe7b)" d="M 145.199706 144.094882 
L 145.396548 145.957469 
L 145.763991 147.587232 
L 146.366644 149.224124 
L 147.132053 150.613936 
L 148.03302 151.778053 
L 149.158582 152.835276 
L 150.32189 153.647706 
L 151.950521 154.484258 
L 153.811814 155.166041 
L 156.138429 155.75533 
L 158.930368 156.20952 
L 162.18763 156.501025 
L 165.910215 156.596788 
L 169.632801 156.461885 
L 172.890063 156.127156 
L 175.682001 155.620343 
L 178.008617 154.964119 
L 179.86991 154.197947 
L 181.265879 153.401477 
L 182.464795 152.476523 
L 183.562381 151.312406 
L 184.356134 150.148289 
L 185.035862 148.751349 
L 185.561896 147.121586 
L 185.903015 145.258999 
L 186.019321 143.396412 
L 185.91911 141.443708 
L 185.618306 139.671238 
L 185.126505 138.041474 
L 184.487529 136.644534 
L 183.741582 135.480417 
L 182.715155 134.3163 
L 181.59393 133.385007 
L 180.335233 132.601625 
L 178.706602 131.852061 
L 176.845309 131.234464 
L 174.518694 130.698232 
L 171.726755 130.286456 
L 168.469493 130.030388 
L 164.746908 129.968374 
L 161.024322 130.138342 
L 157.76706 130.512882 
L 155.02672 131.056773 
L 152.881167 131.70559 
L 151.146267 132.453713 
L 149.856567 133.210787 
L 148.693259 134.121545 
L 147.637748 135.247594 
L 146.831967 136.43221 
L 146.133982 137.885151 
L 145.638006 139.438414 
L 145.297107 141.301001 
L 145.180571 143.163588 
L 145.199706 144.094882 
L 145.199706 144.094882 
" style="fill:none;stroke:#31688e;stroke-width:1.5;"/>
    <path clip-path="url(#p5d2b87fe7b)" d="M 199.640988 187.167204 
L 200.022054 189.728261 
L 200.576789 192.072084 
L 201.280713 194.151905 
L 202.136625 196.014492 
L 203.136067 197.663096 
L 204.299375 199.14011 
L 205.616508 200.438136 
L 207.091313 201.571869 
L 208.719944 202.546847 
L 210.581237 203.403591 
L 212.817837 204.16331 
L 215.001807 204.687567 
L 217.561084 205.080566 
L 220.353023 205.27696 
L 223.144962 205.249319 
L 225.936901 204.994939 
L 228.496178 204.540724 
L 230.822794 203.907518 
L 232.916748 203.109713 
L 234.77804 202.158948 
L 236.406671 201.070423 
L 237.802641 199.868353 
L 238.981016 198.575549 
L 240.131867 196.945786 
L 241.059903 195.218005 
L 241.862749 193.220612 
L 242.474173 191.125202 
L 242.977449 188.564145 
L 243.282003 185.770264 
L 243.362399 182.976384 
L 243.214045 180.182503 
L 242.882867 177.85427 
L 242.368588 175.75886 
L 241.757887 174.104476 
L 241.052856 172.732156 
L 240.129256 171.417711 
L 239.172727 170.403922 
L 238.011403 169.472629 
L 236.639333 168.648123 
L 235.010702 167.923254 
L 232.916748 167.256301 
L 230.35747 166.704767 
L 227.33287 166.299997 
L 223.842946 166.065059 
L 220.120361 166.031869 
L 216.397776 166.215771 
L 213.140514 166.591242 
L 210.348575 167.137605 
L 208.254621 167.753297 
L 206.370363 168.541335 
L 204.997359 169.331027 
L 203.834051 170.217966 
L 202.739169 171.335216 
L 201.890341 172.499332 
L 201.135776 173.896273 
L 200.504711 175.526036 
L 200.011218 177.388623 
L 199.635379 179.716857 
L 199.45226 182.277914 
L 199.477325 185.071794 
L 199.640988 187.167204 
L 199.640988 187.167204 
" style="fill:none;stroke:#31688e;stroke-width:1.5;"/>
    <path clip-path="url(#p5d2b87fe7b)" d="M 199.635379 106.843143 
L 200.011218 109.171377 
L 200.581691 111.266787 
L 201.274774 112.956148 
L 202.041421 114.293491 
L 202.940771 115.457608 
L 204.066713 116.539878 
L 205.230021 117.379526 
L 206.62599 118.142517 
L 208.487283 118.886595 
L 210.581237 119.478137 
L 213.140514 119.968758 
L 216.165115 120.324727 
L 219.655038 120.517386 
L 223.377623 120.510754 
L 227.100208 120.282634 
L 230.35747 119.855233 
L 232.916748 119.303699 
L 235.010702 118.636746 
L 236.639333 117.911877 
L 238.035302 117.070683 
L 239.19861 116.132009 
L 240.250705 114.991961 
L 241.059903 113.815973 
L 241.768756 112.430904 
L 242.368588 110.80114 
L 242.882867 108.70573 
L 243.214045 106.377497 
L 243.359098 103.816439 
L 243.297086 101.022559 
L 243.011906 98.228679 
L 242.529991 95.667622 
L 241.862749 93.339388 
L 241.059903 91.341995 
L 240.129256 89.609963 
L 238.981016 87.984451 
L 237.802641 86.691647 
L 236.406671 85.489577 
L 234.77804 84.401052 
L 232.916748 83.450287 
L 230.822794 82.652482 
L 228.496178 82.019276 
L 225.936901 81.565061 
L 223.144962 81.310681 
L 220.353023 81.28304 
L 217.561084 81.479434 
L 215.001807 81.872433 
L 212.675191 82.437506 
L 210.581237 83.156409 
L 208.694984 84.026453 
L 207.091313 84.988131 
L 205.616508 86.121864 
L 204.299375 87.41989 
L 203.123081 88.915744 
L 202.136625 90.545508 
L 201.274774 92.423136 
L 200.572311 94.503505 
L 200.022054 96.831739 
L 199.640988 99.392796 
L 199.45034 102.186676 
L 199.481452 104.980556 
L 199.635379 106.843143 
L 199.635379 106.843143 
" style="fill:none;stroke:#31688e;stroke-width:1.5;"/>
    <path clip-path="url(#p5d2b87fe7b)" d="M 256.870818 145.026175 
L 257.181694 146.888762 
L 257.673495 148.518526 
L 258.312471 149.915466 
L 259.058418 151.079583 
L 260.084845 152.2437 
L 261.20607 153.174993 
L 262.464767 153.958375 
L 264.093398 154.707939 
L 265.954691 155.325536 
L 268.281306 155.861768 
L 271.073245 156.273544 
L 274.330507 156.529612 
L 278.053092 156.591626 
L 281.775678 156.421658 
L 285.03294 156.047118 
L 287.77328 155.503227 
L 289.918833 154.85441 
L 291.653733 154.106287 
L 292.943433 153.349213 
L 294.106741 152.438455 
L 295.162252 151.312406 
L 295.968033 150.12779 
L 296.666018 148.674849 
L 297.161994 147.121586 
L 297.502893 145.258999 
L 297.619429 143.396412 
L 297.529067 141.533825 
L 297.218288 139.671238 
L 296.726544 138.041474 
L 296.087428 136.644534 
L 295.270049 135.386168 
L 294.315243 134.3163 
L 293.176095 133.37214 
L 291.780125 132.519131 
L 290.151494 131.792079 
L 288.290202 131.191724 
L 285.963586 130.669519 
L 283.171647 130.269372 
L 279.914385 130.023169 
L 276.1918 129.970736 
L 272.701876 130.13221 
L 269.444614 130.500978 
L 266.885337 130.993932 
L 264.791383 131.595881 
L 262.93009 132.362053 
L 261.534121 133.158523 
L 260.335205 134.083477 
L 259.237619 135.247594 
L 258.443866 136.411711 
L 257.764138 137.808651 
L 257.238104 139.438414 
L 256.896985 141.301001 
L 256.780679 143.163588 
L 256.870818 145.026175 
L 256.870818 145.026175 
" style="fill:none;stroke:#31688e;stroke-width:1.5;"/>
    <path clip-path="url(#p5d2b87fe7b)" d="M 311.089244 185.304618 
L 311.35527 188.098498 
L 311.816207 190.659555 
L 312.487005 193.072491 
L 313.277807 195.083199 
L 314.127712 196.712962 
L 315.234517 198.342726 
L 316.442252 199.714951 
L 317.838221 200.950864 
L 319.468658 202.0679 
L 321.328145 203.040106 
L 323.422099 203.856682 
L 325.748714 204.505582 
L 328.307992 204.973766 
L 331.099931 205.241273 
L 333.891869 205.281213 
L 336.710071 205.094604 
L 339.243085 204.717813 
L 341.582698 204.16331 
L 343.663655 203.464742 
L 345.524948 202.627758 
L 347.263298 201.602253 
L 348.78221 200.439493 
L 349.979174 199.274019 
L 351.113198 197.877079 
L 352.137744 196.247316 
L 353.025242 194.384729 
L 353.759871 192.289318 
L 354.332465 189.961085 
L 354.732806 187.400028 
L 354.942134 184.606147 
L 354.929895 181.812267 
L 354.707097 179.25121 
L 354.283962 176.922976 
L 353.737106 175.060389 
L 353.038648 173.430626 
L 352.198834 172.033686 
L 351.244676 170.869569 
L 350.178179 169.894298 
L 348.78221 168.945957 
L 347.153579 168.140525 
L 345.292286 167.475689 
L 342.965671 166.894405 
L 340.173732 166.439624 
L 336.91647 166.138204 
L 333.193885 166.019703 
L 329.4713 166.115473 
L 325.981376 166.420351 
L 322.956776 166.91031 
L 320.63016 167.49927 
L 318.768867 168.173431 
L 317.113483 169.006982 
L 315.744267 169.956439 
L 314.540777 171.102392 
L 313.641285 172.266509 
L 312.845669 173.663449 
L 312.181815 175.293213 
L 311.662233 177.1558 
L 311.263152 179.484033 
L 311.060325 182.04509 
L 311.066766 184.838971 
L 311.089244 185.304618 
L 311.089244 185.304618 
" style="fill:none;stroke:#31688e;stroke-width:1.5;"/>
    <path clip-path="url(#p5d2b87fe7b)" d="M 311.081362 104.980556 
L 311.324568 107.541613 
L 311.772671 109.869847 
L 312.348182 111.732434 
L 313.083284 113.362197 
L 313.970217 114.759138 
L 315.046282 115.984407 
L 316.20959 116.959987 
L 317.605559 117.830227 
L 319.23419 118.576839 
L 321.328145 119.262118 
L 323.65476 119.785938 
L 326.446699 120.194284 
L 329.936623 120.468487 
L 333.659208 120.537283 
L 337.381793 120.391115 
L 340.639055 120.058908 
L 343.430994 119.566571 
L 345.757609 118.938191 
L 347.618902 118.214974 
L 349.26344 117.320195 
L 350.512118 116.388901 
L 351.574149 115.326377 
L 352.509821 114.060668 
L 353.264257 112.663727 
L 353.900764 111.017174 
L 354.437114 108.938554 
L 354.790281 106.61032 
L 354.954149 104.049263 
L 354.91064 101.255382 
L 354.644708 98.461502 
L 354.183754 95.900445 
L 353.541154 93.572211 
L 352.722328 91.476801 
L 351.731687 89.614214 
L 350.580878 87.984451 
L 349.294476 86.58751 
L 347.918663 85.423394 
L 346.455594 84.446819 
L 344.594302 83.484875 
L 342.500347 82.67774 
L 340.173732 82.036725 
L 337.614454 81.575548 
L 334.822516 81.314617 
L 332.030577 81.280828 
L 329.238638 81.470876 
L 326.679361 81.857197 
L 324.352745 82.415088 
L 322.258791 83.125645 
L 320.295248 84.026453 
L 318.736511 84.957747 
L 317.216505 86.121864 
L 315.976928 87.333913 
L 314.813621 88.785913 
L 313.862122 90.312684 
L 312.952328 92.23002 
L 312.240012 94.270682 
L 311.667609 96.598915 
L 311.26716 99.159972 
L 311.057798 101.953853 
L 311.070019 104.747733 
L 311.081362 104.980556 
L 311.081362 104.980556 
" style="fill:none;stroke:#31688e;stroke-width:1.5;"/>
   </g>
   <g id="LineCollection_4">
    <path clip-path="url(#p5d2b87fe7b)" d="M 54 161.3882 
L 81.9 161.323811 
L 81.9 125.236189 
L 81.454065 125.1718 
L 54 125.1718 
L 54 125.1718 
" style="fill:none;stroke:#21918c;stroke-width:1.5;"/>
    <path clip-path="url(#p5d2b87fe7b)" d="M 54 59.58 
L 81.686727 59.58 
L 81.9 59.812823 
L 81.919388 125.1718 
L 137.699999 125.236189 
L 137.699999 161.323811 
L 137.292842 161.3882 
L 81.919388 161.3882 
L 81.9 162.487928 
L 81.9 226.747177 
L 81.686727 226.98 
L 54 226.98 
L 54 226.98 
" style="fill:none;stroke:#21918c;stroke-width:1.5;"/>
    <path clip-path="url(#p5d2b87fe7b)" d="M 388.8 226.98 
L 361.113273 226.98 
L 360.9 226.747177 
L 360.880612 161.3882 
L 305.100001 161.323811 
L 305.100001 125.236189 
L 305.507158 125.1718 
L 360.880612 125.1718 
L 360.9 124.072072 
L 360.9 59.812823 
L 361.113273 59.58 
L 388.8 59.58 
L 388.8 59.58 
" style="fill:none;stroke:#21918c;stroke-width:1.5;"/>
    <path clip-path="url(#p5d2b87fe7b)" d="M 388.8 125.1718 
L 360.9 125.236189 
L 360.9 161.323811 
L 361.345935 161.3882 
L 388.8 161.3882 
L 388.8 161.3882 
" style="fill:none;stroke:#21918c;stroke-width:1.5;"/>
    <path clip-path="url(#p5d2b87fe7b)" d="M 137.699999 226.747177 
L 137.758165 161.3882 
L 193.5 161.323811 
L 193.5 125.236189 
L 193.131619 125.1718 
L 137.758165 125.1718 
L 137.699999 124.770542 
L 137.758165 59.58 
L 193.364281 59.58 
L 193.5 59.812823 
L 193.596942 125.1718 
L 249.203058 125.1718 
L 249.3 125.003366 
L 249.3 59.812823 
L 249.435719 59.58 
L 305.041835 59.58 
L 305.100001 60.045647 
L 305.041835 125.1718 
L 249.3 125.236189 
L 249.3 161.323811 
L 249.668381 161.3882 
L 305.041835 161.3882 
L 305.100001 161.789458 
L 305.041835 226.98 
L 249.435719 226.98 
L 249.3 226.747177 
L 249.203058 161.3882 
L 193.596942 161.3882 
L 193.5 161.556634 
L 193.5 226.747177 
L 193.364281 226.98 
L 137.758165 226.98 
L 137.699999 226.747177 
L 137.699999 226.747177 
" style="fill:none;stroke:#21918c;stroke-width:1.5;"/>
   </g>
   <g id="LineCollection_5">
    <path clip-path="url(#p5d2b87fe7b)" d="M 54 166.019418 
L 57.722585 166.126521 
L 61.223357 166.445925 
L 64.048966 166.911572 
L 66.331063 167.487443 
L 68.192356 168.156924 
L 69.886395 169.006982 
L 71.233319 169.938275 
L 72.380264 171.015234 
L 73.31091 172.195835 
L 74.038717 173.430626 
L 74.737168 175.060389 
L 75.28395 176.922976 
L 75.675359 179.018387 
L 75.918572 181.579444 
L 75.949612 184.373324 
L 75.758887 187.167204 
L 75.378024 189.728261 
L 74.827541 192.056495 
L 74.119127 194.151905 
L 73.263411 196.014492 
L 72.27674 197.644256 
L 71.188264 199.041196 
L 69.820987 200.405671 
L 68.425017 201.492266 
L 66.704765 202.533547 
L 64.935094 203.356727 
L 62.84114 204.088323 
L 60.514524 204.664283 
L 57.955247 205.067374 
L 55.163308 205.273321 
L 54 205.292445 
L 54 205.292445 
" style="fill:none;stroke:#35b779;stroke-width:1.5;"/>
    <path clip-path="url(#p5d2b87fe7b)" d="M 54 81.267555 
L 56.791939 81.378657 
L 59.583878 81.723531 
L 62.143155 82.27527 
L 64.469771 83.020408 
L 66.331063 83.833921 
L 67.959694 84.757863 
L 69.588325 85.954699 
L 70.984295 87.291422 
L 72.147603 88.731122 
L 73.137789 90.312684 
L 74.025325 92.175271 
L 74.759912 94.270682 
L 75.332411 96.598915 
L 75.732808 99.159972 
L 75.942153 101.953853 
L 75.929924 104.747733 
L 75.70712 107.30879 
L 75.28395 109.637024 
L 74.70688 111.583168 
L 74.008895 113.187178 
L 73.198807 114.526314 
L 72.244676 115.690431 
L 71.216956 116.634865 
L 69.820987 117.591521 
L 68.192356 118.403076 
L 66.331063 119.072557 
L 64.004448 119.657667 
L 61.212509 120.115473 
L 57.955247 120.419382 
L 54.232662 120.540172 
L 54 120.540582 
L 54 120.540582 
" style="fill:none;stroke:#35b779;stroke-width:1.5;"/>
    <path clip-path="url(#p5d2b87fe7b)" d="M 388.8 205.292445 
L 386.008061 205.181343 
L 383.216122 204.836469 
L 380.656845 204.28473 
L 378.330229 203.539592 
L 376.468937 202.726079 
L 374.840306 201.802137 
L 373.211675 200.605301 
L 371.815705 199.268578 
L 370.652397 197.828878 
L 369.662211 196.247316 
L 368.774675 194.384729 
L 368.040088 192.289318 
L 367.467589 189.961085 
L 367.067192 187.400028 
L 366.857847 184.606147 
L 366.870076 181.812267 
L 367.09288 179.25121 
L 367.51605 176.922976 
L 368.09312 174.976832 
L 368.791105 173.372822 
L 369.601193 172.033686 
L 370.555324 170.869569 
L 371.583044 169.925135 
L 372.979013 168.968479 
L 374.607644 168.156924 
L 376.468937 167.487443 
L 378.795552 166.902333 
L 381.587491 166.444527 
L 384.844753 166.140618 
L 388.567338 166.019828 
L 388.8 166.019418 
L 388.8 166.019418 
" style="fill:none;stroke:#35b779;stroke-width:1.5;"/>
    <path clip-path="url(#p5d2b87fe7b)" d="M 388.8 120.540582 
L 385.077415 120.433479 
L 381.576643 120.114075 
L 378.751034 119.648428 
L 376.468937 119.072557 
L 374.607644 118.403076 
L 372.913605 117.553018 
L 371.566681 116.621725 
L 370.419736 115.544766 
L 369.48909 114.364165 
L 368.761283 113.129374 
L 368.062832 111.499611 
L 367.51605 109.637024 
L 367.124641 107.541613 
L 366.881428 104.980556 
L 366.850388 102.186676 
L 367.041113 99.392796 
L 367.421976 96.831739 
L 367.972459 94.503505 
L 368.680873 92.408095 
L 369.536589 90.545508 
L 370.52326 88.915744 
L 371.611736 87.518804 
L 372.979013 86.154329 
L 374.374983 85.067734 
L 376.095235 84.026453 
L 377.864906 83.203273 
L 379.95886 82.471677 
L 382.285476 81.895717 
L 384.844753 81.492626 
L 387.636692 81.286679 
L 388.8 81.267555 
L 388.8 81.267555 
" style="fill:none;stroke:#35b779;stroke-width:1.5;"/>
    <path clip-path="url(#p5d2b87fe7b)" d="M 89.596452 145.957469 
L 89.399784 144.094882 
L 89.412647 142.232295 
L 89.637007 140.369708 
L 90.062543 138.649434 
L 90.67282 137.110181 
L 91.490028 135.713241 
L 92.451294 134.549124 
L 93.552467 133.572799 
L 94.948436 132.664978 
L 96.577067 131.898062 
L 98.43836 131.267219 
L 100.764976 130.720253 
L 103.556915 130.299617 
L 106.814177 130.036077 
L 110.536762 129.966861 
L 114.259347 130.129188 
L 117.516609 130.495086 
L 120.075886 130.984746 
L 122.16984 131.582551 
L 124.031133 132.343121 
L 125.456259 133.152184 
L 126.664699 134.083477 
L 127.5711 135.014771 
L 128.451703 136.23661 
L 129.149687 137.600327 
L 129.701205 139.205591 
L 130.073428 141.068178 
L 130.216131 142.930765 
L 130.151814 144.793352 
L 129.870601 146.655939 
L 129.382349 148.366859 
L 128.810966 149.682643 
L 127.986379 151.018737 
L 127.055733 152.105081 
L 125.892425 153.10325 
L 124.690426 153.873463 
L 123.100486 154.630778 
L 121.239194 155.270605 
L 118.912578 155.824832 
L 116.120639 156.251442 
L 112.863377 156.519999 
L 109.140792 156.594024 
L 105.418207 156.436747 
L 102.160945 156.07658 
L 99.601668 155.593458 
L 97.507714 155.00386 
L 95.646421 154.254369 
L 94.143916 153.407816 
L 92.935312 152.476523 
L 91.923836 151.418687 
L 91.183468 150.381113 
L 90.460746 148.984172 
L 89.898778 147.354409 
L 89.596452 145.957469 
L 89.596452 145.957469 
" style="fill:none;stroke:#35b779;stroke-width:1.5;"/>
    <path clip-path="url(#p5d2b87fe7b)" d="M 143.79367 186.701558 
L 143.640008 183.907677 
L 143.709269 181.113797 
L 143.994747 178.55274 
L 144.43253 176.45733 
L 145.037829 174.594743 
L 145.811773 172.964979 
L 146.599305 171.762113 
L 147.58367 170.636745 
L 148.693259 169.685276 
L 150.123187 168.774159 
L 151.71786 168.029125 
L 153.642851 167.377218 
L 155.905768 166.840271 
L 158.697707 166.406249 
L 161.954969 166.122026 
L 165.677554 166.019463 
L 169.400139 166.131117 
L 172.890063 166.454489 
L 175.682001 166.918384 
L 178.008617 167.511171 
L 179.86991 168.190048 
L 181.498541 169.014085 
L 182.89451 169.988154 
L 184.059344 171.102392 
L 184.988464 172.311622 
L 185.754361 173.663449 
L 186.418243 175.293213 
L 186.937775 177.1558 
L 187.336907 179.484033 
L 187.539718 182.04509 
L 187.533252 184.838971 
L 187.3052 187.632851 
L 186.849757 190.359961 
L 186.289631 192.522142 
L 185.527835 194.617552 
L 184.607418 196.480139 
L 183.542726 198.109903 
L 182.360832 199.506843 
L 181.033218 200.733919 
L 179.404587 201.900502 
L 177.543294 202.914572 
L 175.44934 203.764601 
L 173.122724 204.441694 
L 170.563447 204.934787 
L 167.771508 205.22551 
L 164.979569 205.287012 
L 162.18763 205.125622 
L 159.628353 204.768586 
L 157.301737 204.242918 
L 154.975122 203.479897 
L 153.113829 202.64767 
L 151.336676 201.602253 
L 149.856567 200.473129 
L 148.620923 199.274019 
L 147.486925 197.877079 
L 146.462255 196.247316 
L 145.574801 194.384729 
L 144.840135 192.289318 
L 144.267474 189.961085 
L 143.867165 187.400028 
L 143.79367 186.701558 
L 143.79367 186.701558 
" style="fill:none;stroke:#35b779;stroke-width:1.5;"/>
    <path clip-path="url(#p5d2b87fe7b)" d="M 143.785897 106.377497 
L 143.640954 103.816439 
L 143.702919 101.022559 
L 143.988057 98.228679 
L 144.469955 95.667622 
L 145.13722 93.339388 
L 145.90132 91.425419 
L 146.868238 89.614214 
L 148.019016 87.984451 
L 149.305608 86.58751 
L 150.681396 85.423394 
L 152.183183 84.423862 
L 154.044475 83.467527 
L 156.138429 82.665072 
L 158.465045 82.02797 
L 161.024322 81.570279 
L 163.816261 81.312627 
L 166.6082 81.281913 
L 169.400139 81.475132 
L 171.959416 81.864786 
L 174.286032 82.426261 
L 176.379986 83.140979 
L 178.304836 84.026453 
L 179.86991 84.961948 
L 181.383459 86.121864 
L 182.661849 87.376735 
L 183.825156 88.841172 
L 184.755803 90.345361 
L 185.625232 92.175271 
L 186.359964 94.270682 
L 186.932404 96.598915 
L 187.332903 99.159972 
L 187.542254 101.953853 
L 187.529987 104.747733 
L 187.307217 107.30879 
L 186.884024 109.637024 
L 186.337135 111.499611 
L 185.638679 113.129374 
L 184.755803 114.586728 
L 183.825156 115.71102 
L 182.661849 116.756781 
L 181.486582 117.553018 
L 179.86991 118.369952 
L 178.008617 119.048829 
L 175.649044 119.648428 
L 172.822786 120.114075 
L 169.632801 120.414477 
L 165.910215 120.539852 
L 162.18763 120.450853 
L 158.697707 120.153751 
L 155.673106 119.673474 
L 153.346491 119.095991 
L 151.485198 118.435765 
L 149.856567 117.636404 
L 148.460598 116.696299 
L 147.355273 115.690431 
L 146.366644 114.477012 
L 145.561382 113.129374 
L 144.862921 111.499611 
L 144.315992 109.637024 
L 143.924705 107.541613 
L 143.785897 106.377497 
L 143.785897 106.377497 
" style="fill:none;stroke:#35b779;stroke-width:1.5;"/>
    <path clip-path="url(#p5d2b87fe7b)" d="M 201.028673 144.560529 
L 200.99021 142.697942 
L 201.15987 140.835355 
L 201.563949 138.972768 
L 202.163459 137.343004 
L 202.931965 135.946064 
L 203.834051 134.780672 
L 204.997359 133.693715 
L 206.160667 132.888995 
L 207.789298 132.058943 
L 209.650591 131.38205 
L 211.977206 130.796751 
L 214.769145 130.345684 
L 218.026407 130.05676 
L 221.748992 129.963421 
L 225.471577 130.100796 
L 228.728839 130.438311 
L 231.520778 130.948563 
L 233.614732 131.530057 
L 235.476025 132.268632 
L 237.056188 133.152184 
L 238.267964 134.086224 
L 239.362289 135.247594 
L 240.15622 136.411711 
L 240.835961 137.808651 
L 241.361925 139.438414 
L 241.702934 141.301001 
L 241.819356 143.163588 
L 241.729135 145.026175 
L 241.418277 146.888762 
L 240.926503 148.518526 
L 240.287455 149.915466 
L 239.431272 151.224162 
L 238.500625 152.257707 
L 237.337318 153.215238 
L 235.853751 154.106287 
L 234.253927 154.804757 
L 232.218763 155.440576 
L 229.718027 155.968873 
L 226.867547 156.342576 
L 223.377623 156.565478 
L 219.655038 156.572615 
L 216.165115 156.364754 
L 213.081973 155.968873 
L 210.581237 155.440576 
L 208.487283 154.78268 
L 206.858652 154.061148 
L 205.406 153.174993 
L 204.28472 152.2437 
L 203.258436 151.079583 
L 202.438082 149.776286 
L 201.873497 148.518526 
L 201.381723 146.888762 
L 201.070865 145.026175 
L 201.028673 144.560529 
L 201.028673 144.560529 
" style="fill:none;stroke:#35b779;stroke-width:1.5;"/>
    <path clip-path="url(#p5d2b87fe7b)" d="M 255.250273 184.373324 
L 255.2814 181.579444 
L 255.524646 179.018387 
L 255.972685 176.690153 
L 256.548185 174.827566 
L 257.283248 173.197803 
L 258.170228 171.800862 
L 259.207505 170.613266 
L 260.370813 169.628217 
L 261.766782 168.750544 
L 263.395413 167.998383 
L 265.489368 167.30844 
L 267.815983 166.781236 
L 270.607922 166.37009 
L 274.097846 166.093374 
L 277.820431 166.02234 
L 281.543016 166.166184 
L 284.800278 166.495772 
L 287.592217 166.984883 
L 289.921658 167.610042 
L 291.780125 168.327215 
L 293.408756 169.204943 
L 294.572064 170.052344 
L 295.659152 171.102392 
L 296.558547 172.266509 
L 297.364003 173.683298 
L 298.061987 175.424422 
L 298.537888 177.1558 
L 298.936853 179.484033 
L 299.139612 182.04509 
L 299.133156 184.838971 
L 298.905093 187.632851 
L 298.484926 190.193908 
L 297.889664 192.522142 
L 297.127983 194.617552 
L 296.200695 196.492222 
L 295.14265 198.109903 
L 293.960804 199.506843 
L 292.709603 200.67096 
L 291.08214 201.851574 
L 289.449796 202.76637 
L 287.592217 203.568891 
L 285.498263 204.242918 
L 283.171647 204.768586 
L 280.61237 205.125622 
L 277.820431 205.287012 
L 275.028492 205.22551 
L 272.236553 204.934787 
L 269.677276 204.441694 
L 267.35066 203.764601 
L 265.256706 202.914572 
L 263.395413 201.900502 
L 261.978405 200.903783 
L 260.603475 199.675892 
L 259.43439 198.342726 
L 258.327816 196.712962 
L 257.477811 195.083199 
L 256.737243 193.220612 
L 256.125896 191.125202 
L 255.622584 188.564145 
L 255.317973 185.770264 
L 255.250273 184.373324 
L 255.250273 184.373324 
" style="fill:none;stroke:#35b779;stroke-width:1.5;"/>
    <path clip-path="url(#p5d2b87fe7b)" d="M 255.252186 104.282086 
L 255.27727 101.488206 
L 255.52423 98.694325 
L 255.964565 96.133268 
L 256.583218 93.805035 
L 257.373036 91.709624 
L 258.327816 89.847038 
L 259.440167 88.209819 
L 260.667165 86.820334 
L 261.999444 85.639545 
L 263.668877 84.4921 
L 265.489368 83.537567 
L 267.583322 82.716227 
L 269.909937 82.063358 
L 272.469215 81.591651 
L 275.261154 81.320847 
L 278.053092 81.277831 
L 280.909353 81.465396 
L 283.404309 81.834766 
L 285.782352 82.39669 
L 287.863097 83.09516 
L 289.686171 83.91233 
L 291.463324 84.957747 
L 292.943433 86.086871 
L 294.179077 87.285981 
L 295.313075 88.682921 
L 296.337745 90.312684 
L 297.225199 92.175271 
L 297.959865 94.270682 
L 298.532526 96.598915 
L 298.932835 99.159972 
L 299.142144 101.953853 
L 299.129896 104.747733 
L 298.907106 107.30879 
L 298.484008 109.637024 
L 297.937079 111.499611 
L 297.238618 113.129374 
L 296.398907 114.526314 
L 295.444727 115.690431 
L 294.339402 116.696299 
L 292.943433 117.636404 
L 291.314802 118.435765 
L 289.453509 119.095991 
L 287.126894 119.673474 
L 284.334955 120.125245 
L 281.077693 120.424184 
L 277.355108 120.5404 
L 273.632523 120.442368 
L 270.142599 120.134881 
L 267.150956 119.648428 
L 264.791383 119.048829 
L 262.93009 118.369952 
L 261.301459 117.545915 
L 259.90549 116.571846 
L 258.740656 115.457608 
L 257.811536 114.248378 
L 257.045639 112.896551 
L 256.381757 111.266787 
L 255.862225 109.4042 
L 255.463093 107.075967 
L 255.260282 104.51491 
L 255.252186 104.282086 
L 255.252186 104.282086 
" style="fill:none;stroke:#35b779;stroke-width:1.5;"/>
    <path clip-path="url(#p5d2b87fe7b)" d="M 312.697001 145.258999 
L 312.580676 143.396412 
L 312.670904 141.533825 
L 312.981623 139.671238 
L 313.47345 138.041474 
L 314.115636 136.63864 
L 314.858349 135.480417 
L 315.884911 134.3163 
L 317.006073 133.385007 
L 318.303544 132.580792 
L 319.932175 131.836922 
L 321.793468 131.22368 
L 324.120083 130.690985 
L 326.912022 130.282136 
L 330.169284 130.028544 
L 333.891869 129.968927 
L 337.614454 130.141452 
L 340.871716 130.518894 
L 343.573133 131.056773 
L 345.524948 131.636377 
L 347.38624 132.419609 
L 348.78221 133.237199 
L 349.945518 134.157138 
L 350.962267 135.247594 
L 351.80681 136.500401 
L 352.435824 137.808651 
L 352.970118 139.471409 
L 353.30289 141.301001 
L 353.419444 143.163588 
L 353.329038 145.026175 
L 353.018339 146.888762 
L 352.504795 148.575216 
L 351.80681 150.059599 
L 351.108826 151.123077 
L 350.115132 152.2437 
L 348.994124 153.174993 
L 347.618902 154.020454 
L 345.990271 154.753068 
L 344.128978 155.35769 
L 341.802363 155.883371 
L 339.010424 156.286406 
L 335.753162 156.535065 
L 332.030577 156.589892 
L 328.540653 156.430812 
L 325.283391 156.064914 
L 322.724114 155.575254 
L 320.63016 154.977449 
L 318.768867 154.216879 
L 317.343741 153.407816 
L 316.135301 152.476523 
L 315.2289 151.545229 
L 314.348297 150.32339 
L 313.650313 148.959673 
L 313.098795 147.354409 
L 312.726572 145.491822 
L 312.697001 145.258999 
L 312.697001 145.258999 
" style="fill:none;stroke:#35b779;stroke-width:1.5;"/>
   </g>
   <g id="LineCollection_6">
    <path clip-path="url(#p5d2b87fe7b)" d="M 54 171.263648 
L 56.326616 171.367356 
L 58.653231 171.693 
L 60.747186 172.213253 
L 62.375817 172.812637 
L 64.028894 173.663449 
L 65.400417 174.643303 
L 66.563725 175.781991 
L 67.494371 177.039797 
L 68.192356 178.36046 
L 68.686136 179.716857 
L 69.043738 181.34662 
L 69.186499 182.976384 
L 69.113577 184.838971 
L 68.792387 186.701558 
L 68.292189 188.331321 
L 67.551704 189.961085 
L 66.677803 191.358025 
L 65.633079 192.624945 
L 64.469771 193.71433 
L 63.073801 194.720585 
L 61.44517 195.600572 
L 59.583878 196.318329 
L 57.722585 196.794611 
L 55.628631 197.088489 
L 54 197.156611 
L 54 197.156611 
" style="fill:none;stroke:#90d743;stroke-width:1.5;"/>
    <path clip-path="url(#p5d2b87fe7b)" d="M 54 89.403389 
L 56.093954 89.516258 
L 58.187908 89.864193 
L 60.049201 90.396458 
L 61.677832 91.069131 
L 63.306463 91.988687 
L 64.775712 93.106565 
L 65.93779 94.270682 
L 66.99769 95.667622 
L 67.790831 97.064562 
L 68.45786 98.694325 
L 68.896836 100.324089 
L 69.154743 102.186676 
L 69.166104 104.049263 
L 68.964931 105.679026 
L 68.538622 107.30879 
L 67.953767 108.70573 
L 67.101361 110.10267 
L 66.098402 111.27791 
L 64.935094 112.284265 
L 63.539124 113.179711 
L 61.910493 113.939266 
L 60.049201 114.547967 
L 57.944943 114.991961 
L 55.628631 115.245959 
L 54 115.296352 
L 54 115.296352 
" style="fill:none;stroke:#90d743;stroke-width:1.5;"/>
    <path clip-path="url(#p5d2b87fe7b)" d="M 388.8 197.156611 
L 386.706046 197.043742 
L 384.612092 196.695807 
L 382.750799 196.163542 
L 381.122168 195.490869 
L 379.493537 194.571313 
L 378.024288 193.453435 
L 376.86221 192.289318 
L 375.80231 190.892378 
L 375.009169 189.495438 
L 374.34214 187.865675 
L 373.903164 186.235911 
L 373.645257 184.373324 
L 373.633896 182.510737 
L 373.835069 180.880974 
L 374.261378 179.25121 
L 374.846233 177.85427 
L 375.698639 176.45733 
L 376.701598 175.28209 
L 377.864906 174.275735 
L 379.260876 173.380289 
L 380.889507 172.620734 
L 382.750799 172.012033 
L 384.855057 171.568039 
L 387.171369 171.314041 
L 388.8 171.263648 
L 388.8 171.263648 
" style="fill:none;stroke:#90d743;stroke-width:1.5;"/>
    <path clip-path="url(#p5d2b87fe7b)" d="M 388.8 115.296352 
L 386.473384 115.192644 
L 384.146769 114.867 
L 382.052814 114.346747 
L 380.424183 113.747363 
L 378.771106 112.896551 
L 377.399583 111.916697 
L 376.236275 110.778009 
L 375.305629 109.520203 
L 374.607644 108.19954 
L 374.113864 106.843143 
L 373.756262 105.21338 
L 373.613501 103.583616 
L 373.686423 101.721029 
L 374.007613 99.858442 
L 374.507811 98.228679 
L 375.248296 96.598915 
L 376.122197 95.201975 
L 377.166921 93.935055 
L 378.330229 92.84567 
L 379.726199 91.839415 
L 381.35483 90.959428 
L 383.216122 90.241671 
L 385.077415 89.765389 
L 387.171369 89.471511 
L 388.8 89.403389 
L 388.8 89.403389 
" style="fill:none;stroke:#90d743;stroke-width:1.5;"/>
    <path clip-path="url(#p5d2b87fe7b)" d="M 98.903222 143.396412 
L 99.00565 142.232295 
L 99.374323 141.068178 
L 99.892785 140.136885 
L 100.661789 139.205591 
L 101.695622 138.333802 
L 102.85893 137.634256 
L 104.254899 137.038271 
L 105.88353 136.572264 
L 107.744823 136.264436 
L 109.838777 136.152415 
L 111.932731 136.273165 
L 113.794024 136.589776 
L 115.544168 137.110181 
L 117.051286 137.798536 
L 118.214593 138.564351 
L 119.158612 139.438414 
L 119.858032 140.369708 
L 120.322464 141.301001 
L 120.635305 142.465118 
L 120.686152 143.629235 
L 120.480587 144.793352 
L 120.075886 145.802379 
L 119.541192 146.655939 
L 118.679917 147.603164 
L 117.516609 148.485785 
L 116.353301 149.113409 
L 114.862215 149.682643 
L 113.096039 150.114597 
L 111.234746 150.353566 
L 109.140792 150.396401 
L 107.046838 150.205 
L 105.185546 149.813382 
L 103.477145 149.216996 
L 102.135027 148.518526 
L 100.997637 147.672209 
L 100.2413 146.888762 
L 99.601668 145.949605 
L 99.119136 144.793352 
L 98.913425 143.629235 
L 98.903222 143.396412 
L 98.903222 143.396412 
" style="fill:none;stroke:#90d743;stroke-width:1.5;"/>
    <path clip-path="url(#p5d2b87fe7b)" d="M 150.543064 185.304618 
L 150.408767 183.442031 
L 150.523281 181.579444 
L 150.848309 179.94968 
L 151.325214 178.55274 
L 152.033868 177.1558 
L 152.881167 175.964788 
L 153.984858 174.827566 
L 155.207783 173.893829 
L 156.603753 173.098568 
L 158.232384 172.4185 
L 160.093676 171.875725 
L 162.18763 171.489888 
L 164.514246 171.286001 
L 166.840862 171.292858 
L 169.167477 171.511387 
L 171.261432 171.913128 
L 173.192496 172.499332 
L 174.795106 173.197803 
L 176.147325 173.998633 
L 177.310632 174.913234 
L 178.3409 175.991683 
L 179.171925 177.164916 
L 179.87507 178.55274 
L 180.41224 180.182503 
L 180.705121 181.812267 
L 180.791493 183.442031 
L 180.656682 185.304618 
L 180.33443 186.934381 
L 179.802274 188.564145 
L 179.022968 190.193908 
L 178.106078 191.590848 
L 177.077971 192.787025 
L 175.814843 193.919082 
L 174.462866 194.850376 
L 172.890063 195.670954 
L 171.02877 196.36653 
L 169.167477 196.824739 
L 167.073523 197.100882 
L 164.979569 197.146754 
L 162.885615 196.966193 
L 161.024322 196.603307 
L 159.141617 196.014492 
L 157.534399 195.297015 
L 155.905768 194.30697 
L 154.509798 193.167596 
L 153.346491 191.914023 
L 152.415844 190.598343 
L 151.592879 189.029791 
L 150.995078 187.400028 
L 150.577245 185.537441 
L 150.543064 185.304618 
L 150.543064 185.304618 
" style="fill:none;stroke:#90d743;stroke-width:1.5;"/>
    <path clip-path="url(#p5d2b87fe7b)" d="M 150.523281 104.980556 
L 150.409216 103.350793 
L 150.512953 101.488206 
L 150.807385 99.858442 
L 151.307718 98.228679 
L 152.04839 96.598915 
L 152.922013 95.201975 
L 154.044475 93.853259 
L 155.207783 92.782356 
L 156.603753 91.791058 
L 158.232384 90.923995 
L 160.093676 90.217372 
L 161.954969 89.750153 
L 164.048923 89.465158 
L 166.142877 89.410934 
L 168.236831 89.582982 
L 170.330785 89.996244 
L 172.192078 90.596989 
L 173.820709 91.344821 
L 175.216678 92.198413 
L 176.633615 93.339388 
L 177.775956 94.550832 
L 178.746339 95.900445 
L 179.501694 97.297385 
L 180.133634 98.927149 
L 180.567894 100.695573 
L 180.769646 102.419499 
L 180.749867 104.282086 
L 180.518816 105.91185 
L 180.056732 107.541613 
L 179.404587 108.989437 
L 178.701684 110.10267 
L 177.709224 111.266787 
L 176.612648 112.226133 
L 175.216678 113.1371 
L 173.588047 113.908568 
L 171.726755 114.527244 
L 169.543634 114.991961 
L 167.306185 115.241027 
L 164.979569 115.289061 
L 162.652953 115.128557 
L 160.326338 114.738118 
L 158.232384 114.1415 
L 156.603753 113.461432 
L 155.204078 112.663727 
L 153.984858 111.732434 
L 152.858824 110.568317 
L 151.950521 109.263893 
L 151.325214 108.00726 
L 150.848309 106.61032 
L 150.523281 104.980556 
L 150.523281 104.980556 
" style="fill:none;stroke:#90d743;stroke-width:1.5;"/>
    <path clip-path="url(#p5d2b87fe7b)" d="M 210.564317 144.094882 
L 210.513784 142.930765 
L 210.719519 141.766648 
L 211.083864 140.835355 
L 211.744545 139.793183 
L 212.502863 138.972768 
L 213.605837 138.12426 
L 214.769145 137.482626 
L 216.397776 136.858715 
L 218.291974 136.411711 
L 220.353023 136.180763 
L 222.446977 136.180763 
L 224.540931 136.417305 
L 226.462475 136.877357 
L 228.030855 137.482626 
L 229.194163 138.12426 
L 230.297137 138.972768 
L 231.141135 139.904061 
L 231.75344 140.913711 
L 232.14288 141.999471 
L 232.296302 143.163588 
L 232.194686 144.327705 
L 231.82524 145.491822 
L 231.288117 146.450877 
L 230.538409 147.354409 
L 229.426824 148.281343 
L 228.22586 148.984172 
L 226.634885 149.627301 
L 225.006254 150.054085 
L 223.144962 150.327184 
L 221.051008 150.404479 
L 218.957054 150.248598 
L 217.095761 149.895821 
L 215.46713 149.377256 
L 214.071161 148.717635 
L 212.907853 147.933993 
L 211.977206 147.048014 
L 211.279222 146.083738 
L 210.792641 145.026175 
L 210.564317 144.094882 
L 210.564317 144.094882 
" style="fill:none;stroke:#90d743;stroke-width:1.5;"/>
    <path clip-path="url(#p5d2b87fe7b)" d="M 262.215253 185.770264 
L 262.019224 183.907677 
L 262.070455 182.04509 
L 262.332144 180.415327 
L 262.831273 178.785563 
L 263.496814 177.388623 
L 264.32606 176.157226 
L 265.32971 175.060389 
L 266.465247 174.129096 
L 267.815983 173.296653 
L 269.444614 172.560554 
L 271.305907 171.971535 
L 273.399861 171.545554 
L 275.726477 171.304873 
L 278.053092 171.277439 
L 280.379708 171.459539 
L 282.473662 171.821882 
L 284.567616 172.4185 
L 286.196247 173.098568 
L 287.595922 173.896273 
L 288.815142 174.827566 
L 289.941176 175.991683 
L 290.849479 177.296107 
L 291.474786 178.55274 
L 291.951691 179.94968 
L 292.276719 181.579444 
L 292.390784 183.209207 
L 292.287047 185.071794 
L 291.992615 186.701558 
L 291.492282 188.331321 
L 290.75161 189.961085 
L 289.877987 191.358025 
L 288.755525 192.706741 
L 287.592217 193.777644 
L 286.196247 194.768942 
L 284.567616 195.636005 
L 282.706324 196.342628 
L 280.845031 196.809847 
L 278.751077 197.094842 
L 276.657123 197.149066 
L 274.563169 196.977018 
L 272.469215 196.563756 
L 270.607922 195.963011 
L 268.979291 195.215179 
L 267.583322 194.361587 
L 266.166385 193.220612 
L 265.024044 192.009168 
L 264.053661 190.659555 
L 263.298306 189.262615 
L 262.666366 187.632851 
L 262.232106 185.864427 
L 262.215253 185.770264 
L 262.215253 185.770264 
" style="fill:none;stroke:#90d743;stroke-width:1.5;"/>
    <path clip-path="url(#p5d2b87fe7b)" d="M 262.19333 105.446203 
L 262.021604 103.816439 
L 262.06409 101.953853 
L 262.353494 100.091266 
L 262.822704 98.461502 
L 263.525866 96.831739 
L 264.358307 95.434798 
L 265.489368 94.01787 
L 266.696496 92.873741 
L 268.048645 91.88839 
L 269.677276 90.995349 
L 271.538568 90.266369 
L 273.399861 89.780969 
L 275.493815 89.478179 
L 277.587769 89.407238 
L 279.681723 89.562307 
L 281.775678 89.956693 
L 283.658383 90.545508 
L 285.265601 91.262985 
L 286.894232 92.25303 
L 288.290202 93.392404 
L 289.453509 94.645977 
L 290.384156 95.961657 
L 291.207121 97.530209 
L 291.804922 99.159972 
L 292.222755 101.022559 
L 292.387817 102.885146 
L 292.30519 104.747733 
L 292.012544 106.377497 
L 291.474786 108.00726 
L 290.766132 109.4042 
L 289.918833 110.595212 
L 288.815142 111.732434 
L 287.592217 112.666171 
L 286.196247 113.461432 
L 284.567616 114.1415 
L 282.706324 114.684275 
L 280.61237 115.070112 
L 278.285754 115.273999 
L 275.959138 115.267142 
L 273.632523 115.048613 
L 271.538568 114.646872 
L 269.607504 114.060668 
L 268.004894 113.362197 
L 266.652675 112.561367 
L 265.489368 111.646766 
L 264.4591 110.568317 
L 263.628075 109.395084 
L 262.92493 108.00726 
L 262.38776 106.377497 
L 262.19333 105.446203 
L 262.19333 105.446203 
" style="fill:none;stroke:#90d743;stroke-width:1.5;"/>
    <path clip-path="url(#p5d2b87fe7b)" d="M 322.256655 144.560529 
L 322.103699 143.396412 
L 322.205497 142.232295 
L 322.574799 141.068178 
L 323.189437 139.999894 
L 323.887422 139.179758 
L 324.980015 138.274298 
L 326.214038 137.556286 
L 327.842669 136.907399 
L 329.4713 136.490244 
L 331.332592 136.225731 
L 333.426546 136.157074 
L 335.5205 136.321796 
L 337.381793 136.684195 
L 339.010424 137.213561 
L 340.406393 137.887218 
L 341.632308 138.739944 
L 342.5587 139.671238 
L 343.198332 140.610395 
L 343.680864 141.766648 
L 343.886575 142.930765 
L 343.835408 144.094882 
L 343.522052 145.258999 
L 342.965671 146.334061 
L 342.267686 147.219027 
L 341.33704 148.056345 
L 340.173732 148.803401 
L 338.744748 149.449819 
L 337.149131 149.93408 
L 335.287839 150.268383 
L 333.193885 150.406653 
L 331.099931 150.312032 
L 329.238638 150.021646 
L 327.610007 149.575395 
L 326.174163 148.984172 
L 324.818068 148.170322 
L 323.861392 147.354409 
L 323.092918 146.423115 
L 322.574799 145.491822 
L 322.256655 144.560529 
L 322.256655 144.560529 
" style="fill:none;stroke:#90d743;stroke-width:1.5;"/>
   </g>
   <g id="LineCollection_7">
    <path clip-path="url(#p5d2b87fe7b)" d="M 54 180.747527 
L 54.232662 180.754395 
L 54.465323 180.775004 
L 54.697985 180.809371 
L 54.930646 180.857527 
L 55.018696 180.880974 
L 55.163308 180.923396 
L 55.395969 181.006911 
L 55.628631 181.10578 
L 55.644967 181.113797 
L 55.861293 181.231973 
L 56.046115 181.34662 
L 56.093954 181.380068 
L 56.326616 181.562137 
L 56.3466 181.579444 
L 56.559277 181.790337 
L 56.579445 181.812267 
L 56.762731 182.04509 
L 56.791939 182.089634 
L 56.90545 182.277914 
L 57.017851 182.510737 
L 57.0246 182.529276 
L 57.096835 182.743561 
L 57.149911 182.976384 
L 57.177795 183.209207 
L 57.180679 183.442031 
L 57.158725 183.674854 
L 57.112069 183.907677 
L 57.04082 184.140501 
L 57.0246 184.179967 
L 56.93876 184.373324 
L 56.809025 184.606147 
L 56.791939 184.631665 
L 56.640946 184.838971 
L 56.559277 184.935013 
L 56.431754 185.071794 
L 56.326616 185.170501 
L 56.168508 185.304618 
L 56.093954 185.360894 
L 55.861293 185.517799 
L 55.828245 185.537441 
L 55.628631 185.644422 
L 55.395969 185.752292 
L 55.350113 185.770264 
L 55.163308 185.837 
L 54.930646 185.90492 
L 54.697985 185.957686 
L 54.465323 185.995344 
L 54.385554 186.003088 
L 54.232662 186.016743 
L 54 186.023668 
" style="fill:none;stroke:#fde725;stroke-width:1.5;"/>
    <path clip-path="url(#p5d2b87fe7b)" d="M 54 100.536332 
L 54.232662 100.543257 
L 54.385554 100.556912 
L 54.465323 100.564656 
L 54.697985 100.602314 
L 54.930646 100.65508 
L 55.163308 100.723 
L 55.350113 100.789736 
L 55.395969 100.807708 
L 55.628631 100.915578 
L 55.828245 101.022559 
L 55.861293 101.042201 
L 56.093954 101.199106 
L 56.168508 101.255382 
L 56.326616 101.389499 
L 56.431754 101.488206 
L 56.559277 101.624987 
L 56.640946 101.721029 
L 56.791939 101.928335 
L 56.809025 101.953853 
L 56.93876 102.186676 
L 57.0246 102.380033 
L 57.04082 102.419499 
L 57.112069 102.652323 
L 57.158725 102.885146 
L 57.180679 103.117969 
L 57.177795 103.350793 
L 57.149911 103.583616 
L 57.096835 103.816439 
L 57.0246 104.030724 
L 57.017851 104.049263 
L 56.90545 104.282086 
L 56.791939 104.470366 
L 56.762731 104.51491 
L 56.579445 104.747733 
L 56.559277 104.769663 
L 56.3466 104.980556 
L 56.326616 104.997863 
L 56.093954 105.179932 
L 56.046115 105.21338 
L 55.861293 105.328027 
L 55.644967 105.446203 
L 55.628631 105.45422 
L 55.395969 105.553089 
L 55.163308 105.636604 
L 55.018696 105.679026 
L 54.930646 105.702473 
L 54.697985 105.750629 
L 54.465323 105.784996 
L 54.232662 105.805605 
L 54 105.812473 
" style="fill:none;stroke:#fde725;stroke-width:1.5;"/>
    <path clip-path="url(#p5d2b87fe7b)" d="M 388.8 186.023668 
L 388.567338 186.016743 
L 388.414446 186.003088 
L 388.334677 185.995344 
L 388.102015 185.957686 
L 387.869354 185.90492 
L 387.636692 185.837 
L 387.449887 185.770264 
L 387.404031 185.752292 
L 387.171369 185.644422 
L 386.971755 185.537441 
L 386.938707 185.517799 
L 386.706046 185.360894 
L 386.631492 185.304618 
L 386.473384 185.170501 
L 386.368246 185.071794 
L 386.240723 184.935013 
L 386.159054 184.838971 
L 386.008061 184.631665 
L 385.990975 184.606147 
L 385.86124 184.373324 
L 385.7754 184.179967 
L 385.75918 184.140501 
L 385.687931 183.907677 
L 385.641275 183.674854 
L 385.619321 183.442031 
L 385.622205 183.209207 
L 385.650089 182.976384 
L 385.703165 182.743561 
L 385.7754 182.529276 
L 385.782149 182.510737 
L 385.89455 182.277914 
L 386.008061 182.089634 
L 386.037269 182.04509 
L 386.220555 181.812267 
L 386.240723 181.790337 
L 386.4534 181.579444 
L 386.473384 181.562137 
L 386.706046 181.380068 
L 386.753885 181.34662 
L 386.938707 181.231973 
L 387.155033 181.113797 
L 387.171369 181.10578 
L 387.404031 181.006911 
L 387.636692 180.923396 
L 387.781304 180.880974 
L 387.869354 180.857527 
L 388.102015 180.809371 
L 388.334677 180.775004 
L 388.567338 180.754395 
L 388.8 180.747527 
" style="fill:none;stroke:#fde725;stroke-width:1.5;"/>
    <path clip-path="url(#p5d2b87fe7b)" d="M 388.8 105.812473 
L 388.567338 105.805605 
L 388.334677 105.784996 
L 388.102015 105.750629 
L 387.869354 105.702473 
L 387.781304 105.679026 
L 387.636692 105.636604 
L 387.404031 105.553089 
L 387.171369 105.45422 
L 387.155033 105.446203 
L 386.938707 105.328027 
L 386.753885 105.21338 
L 386.706046 105.179932 
L 386.473384 104.997863 
L 386.4534 104.980556 
L 386.240723 104.769663 
L 386.220555 104.747733 
L 386.037269 104.51491 
L 386.008061 104.470366 
L 385.89455 104.282086 
L 385.782149 104.049263 
L 385.7754 104.030724 
L 385.703165 103.816439 
L 385.650089 103.583616 
L 385.622205 103.350793 
L 385.619321 103.117969 
L 385.641275 102.885146 
L 385.687931 102.652323 
L 385.75918 102.419499 
L 385.7754 102.380033 
L 385.86124 102.186676 
L 385.990975 101.953853 
L 386.008061 101.928335 
L 386.159054 101.721029 
L 386.240723 101.624987 
L 386.368246 101.488206 
L 386.473384 101.389499 
L 386.631492 101.255382 
L 386.706046 101.199106 
L 386.938707 101.042201 
L 386.971755 101.022559 
L 387.171369 100.915578 
L 387.404031 100.807708 
L 387.449887 100.789736 
L 387.636692 100.723 
L 387.869354 100.65508 
L 388.102015 100.602314 
L 388.334677 100.564656 
L 388.414446 100.556912 
L 388.567338 100.543257 
L 388.8 100.536332 
" style="fill:none;stroke:#fde725;stroke-width:1.5;"/>
    <path clip-path="url(#p5d2b87fe7b)" d="M 162.41756 183.442031 
L 162.420292 183.210691 
L 162.420311 183.209207 
L 162.448893 182.976384 
L 162.503299 182.743561 
L 162.583755 182.510737 
L 162.652953 182.359775 
L 162.693575 182.277914 
L 162.837788 182.04509 
L 162.885615 181.980771 
L 163.022256 181.812267 
L 163.118277 181.710926 
L 163.255276 181.579444 
L 163.350938 181.499262 
L 163.553227 181.34662 
L 163.5836 181.32629 
L 163.816261 181.187696 
L 163.957872 181.113797 
L 164.048923 181.071113 
L 164.281584 180.977371 
L 164.514246 180.898957 
L 164.580466 180.880974 
L 164.746908 180.83994 
L 164.979569 180.796385 
L 165.212231 180.766606 
L 165.444892 180.750579 
L 165.677554 180.74829 
L 165.910215 180.759737 
L 166.142877 180.784929 
L 166.375539 180.823889 
L 166.6082 180.876649 
L 166.623316 180.880974 
L 166.840862 180.949533 
L 167.073523 181.038157 
L 167.242783 181.113797 
L 167.306185 181.145335 
L 167.538846 181.278169 
L 167.645 181.34662 
L 167.771508 181.438574 
L 167.945333 181.579444 
L 168.00417 181.634037 
L 168.178307 181.812267 
L 168.236831 181.882252 
L 168.361381 182.04509 
L 168.469493 182.214828 
L 168.506521 182.277914 
L 168.616029 182.510737 
L 168.698554 182.743561 
L 168.702154 182.758574 
L 168.750622 182.976384 
L 168.777842 183.209207 
L 168.780656 183.442031 
L 168.759226 183.674854 
L 168.713682 183.907677 
L 168.702154 183.946292 
L 168.639659 184.140501 
L 168.538975 184.373324 
L 168.469493 184.50138 
L 168.407812 184.606147 
L 168.243 184.838971 
L 168.236831 184.846439 
L 168.033283 185.071794 
L 168.00417 185.100005 
L 167.771508 185.304369 
L 167.771193 185.304618 
L 167.538846 185.46759 
L 167.426358 185.537441 
L 167.306185 185.604727 
L 167.073523 185.718201 
L 166.948306 185.770264 
L 166.840862 185.810982 
L 166.6082 185.883966 
L 166.375539 185.941778 
L 166.142877 185.984468 
L 165.985958 186.003088 
L 165.910215 186.011356 
L 165.677554 186.022898 
L 165.444892 186.02059 
L 165.212231 186.004429 
L 165.201834 186.003088 
L 164.979569 185.971916 
L 164.746908 185.92419 
L 164.514246 185.861327 
L 164.281584 185.783272 
L 164.249122 185.770264 
L 164.048923 185.682245 
L 163.816261 185.563156 
L 163.77222 185.537441 
L 163.5836 185.41529 
L 163.431602 185.304618 
L 163.350938 185.23862 
L 163.167348 185.071794 
L 163.118277 185.020853 
L 162.958933 184.838971 
L 162.885615 184.741272 
L 162.792618 184.606147 
L 162.65936 184.373324 
L 162.652953 184.359286 
L 162.560718 184.140501 
L 162.487684 183.907677 
L 162.439859 183.674854 
L 162.420292 183.472421 
L 162.41756 183.442031 
" style="fill:none;stroke:#fde725;stroke-width:1.5;"/>
    <path clip-path="url(#p5d2b87fe7b)" d="M 162.41756 103.117969 
L 162.420292 103.087579 
L 162.439859 102.885146 
L 162.487684 102.652323 
L 162.560718 102.419499 
L 162.652953 102.200714 
L 162.65936 102.186676 
L 162.792618 101.953853 
L 162.885615 101.818728 
L 162.958933 101.721029 
L 163.118277 101.539147 
L 163.167348 101.488206 
L 163.350938 101.32138 
L 163.431602 101.255382 
L 163.5836 101.14471 
L 163.77222 101.022559 
L 163.816261 100.996844 
L 164.048923 100.877755 
L 164.249122 100.789736 
L 164.281584 100.776728 
L 164.514246 100.698673 
L 164.746908 100.63581 
L 164.979569 100.588084 
L 165.201834 100.556912 
L 165.212231 100.555571 
L 165.444892 100.53941 
L 165.677554 100.537102 
L 165.910215 100.548644 
L 165.985958 100.556912 
L 166.142877 100.575532 
L 166.375539 100.618222 
L 166.6082 100.676034 
L 166.840862 100.749018 
L 166.948306 100.789736 
L 167.073523 100.841799 
L 167.306185 100.955273 
L 167.426358 101.022559 
L 167.538846 101.09241 
L 167.771193 101.255382 
L 167.771508 101.255631 
L 168.00417 101.459995 
L 168.033283 101.488206 
L 168.236831 101.713561 
L 168.243 101.721029 
L 168.407812 101.953853 
L 168.469493 102.05862 
L 168.538975 102.186676 
L 168.639659 102.419499 
L 168.702154 102.613708 
L 168.713682 102.652323 
L 168.759226 102.885146 
L 168.780656 103.117969 
L 168.777842 103.350793 
L 168.750622 103.583616 
L 168.702154 103.801426 
L 168.698554 103.816439 
L 168.616029 104.049263 
L 168.506521 104.282086 
L 168.469493 104.345172 
L 168.361381 104.51491 
L 168.236831 104.677748 
L 168.178307 104.747733 
L 168.00417 104.925963 
L 167.945333 104.980556 
L 167.771508 105.121426 
L 167.645 105.21338 
L 167.538846 105.281831 
L 167.306185 105.414665 
L 167.242783 105.446203 
L 167.073523 105.521843 
L 166.840862 105.610467 
L 166.623316 105.679026 
L 166.6082 105.683351 
L 166.375539 105.736111 
L 166.142877 105.775071 
L 165.910215 105.800263 
L 165.677554 105.81171 
L 165.444892 105.809421 
L 165.212231 105.793394 
L 164.979569 105.763615 
L 164.746908 105.72006 
L 164.580466 105.679026 
L 164.514246 105.661043 
L 164.281584 105.582629 
L 164.048923 105.488887 
L 163.957872 105.446203 
L 163.816261 105.372304 
L 163.5836 105.23371 
L 163.553227 105.21338 
L 163.350938 105.060738 
L 163.255276 104.980556 
L 163.118277 104.849074 
L 163.022256 104.747733 
L 162.885615 104.579229 
L 162.837788 104.51491 
L 162.693575 104.282086 
L 162.652953 104.200225 
L 162.583755 104.049263 
L 162.503299 103.816439 
L 162.448893 103.583616 
L 162.420311 103.350793 
L 162.420292 103.349309 
L 162.41756 103.117969 
" style="fill:none;stroke:#fde725;stroke-width:1.5;"/>
    <path clip-path="url(#p5d2b87fe7b)" d="M 274.086318 183.907677 
L 274.040774 183.674854 
L 274.019344 183.442031 
L 274.022158 183.209207 
L 274.049378 182.976384 
L 274.097846 182.758574 
L 274.101446 182.743561 
L 274.183971 182.510737 
L 274.293479 182.277914 
L 274.330507 182.214828 
L 274.438619 182.04509 
L 274.563169 181.882252 
L 274.621693 181.812267 
L 274.79583 181.634037 
L 274.854667 181.579444 
L 275.028492 181.438574 
L 275.155 181.34662 
L 275.261154 181.278169 
L 275.493815 181.145335 
L 275.557217 181.113797 
L 275.726477 181.038157 
L 275.959138 180.949533 
L 276.176684 180.880974 
L 276.1918 180.876649 
L 276.424461 180.823889 
L 276.657123 180.784929 
L 276.889785 180.759737 
L 277.122446 180.74829 
L 277.355108 180.750579 
L 277.587769 180.766606 
L 277.820431 180.796385 
L 278.053092 180.83994 
L 278.219534 180.880974 
L 278.285754 180.898957 
L 278.518416 180.977371 
L 278.751077 181.071113 
L 278.842128 181.113797 
L 278.983739 181.187696 
L 279.2164 181.32629 
L 279.246773 181.34662 
L 279.449062 181.499262 
L 279.544724 181.579444 
L 279.681723 181.710926 
L 279.777744 181.812267 
L 279.914385 181.980771 
L 279.962212 182.04509 
L 280.106425 182.277914 
L 280.147047 182.359775 
L 280.216245 182.510737 
L 280.296701 182.743561 
L 280.351107 182.976384 
L 280.379689 183.209207 
L 280.379708 183.210691 
L 280.38244 183.442031 
L 280.379708 183.472421 
L 280.360141 183.674854 
L 280.312316 183.907677 
L 280.239282 184.140501 
L 280.147047 184.359286 
L 280.14064 184.373324 
L 280.007382 184.606147 
L 279.914385 184.741272 
L 279.841067 184.838971 
L 279.681723 185.020853 
L 279.632652 185.071794 
L 279.449062 185.23862 
L 279.368398 185.304618 
L 279.2164 185.41529 
L 279.02778 185.537441 
L 278.983739 185.563156 
L 278.751077 185.682245 
L 278.550878 185.770264 
L 278.518416 185.783272 
L 278.285754 185.861327 
L 278.053092 185.92419 
L 277.820431 185.971916 
L 277.598166 186.003088 
L 277.587769 186.004429 
L 277.355108 186.02059 
L 277.122446 186.022898 
L 276.889785 186.011356 
L 276.814042 186.003088 
L 276.657123 185.984468 
L 276.424461 185.941778 
L 276.1918 185.883966 
L 275.959138 185.810982 
L 275.851694 185.770264 
L 275.726477 185.718201 
L 275.493815 185.604727 
L 275.373642 185.537441 
L 275.261154 185.46759 
L 275.028807 185.304618 
L 275.028492 185.304369 
L 274.79583 185.100005 
L 274.766717 185.071794 
L 274.563169 184.846439 
L 274.557 184.838971 
L 274.392188 184.606147 
L 274.330507 184.50138 
L 274.261025 184.373324 
L 274.160341 184.140501 
L 274.097846 183.946292 
L 274.086318 183.907677 
" style="fill:none;stroke:#fde725;stroke-width:1.5;"/>
    <path clip-path="url(#p5d2b87fe7b)" d="M 274.049378 103.583616 
L 274.022158 103.350793 
L 274.019344 103.117969 
L 274.040774 102.885146 
L 274.086318 102.652323 
L 274.097846 102.613708 
L 274.160341 102.419499 
L 274.261025 102.186676 
L 274.330507 102.05862 
L 274.392188 101.953853 
L 274.557 101.721029 
L 274.563169 101.713561 
L 274.766717 101.488206 
L 274.79583 101.459995 
L 275.028492 101.255631 
L 275.028807 101.255382 
L 275.261154 101.09241 
L 275.373642 101.022559 
L 275.493815 100.955273 
L 275.726477 100.841799 
L 275.851694 100.789736 
L 275.959138 100.749018 
L 276.1918 100.676034 
L 276.424461 100.618222 
L 276.657123 100.575532 
L 276.814042 100.556912 
L 276.889785 100.548644 
L 277.122446 100.537102 
L 277.355108 100.53941 
L 277.587769 100.555571 
L 277.598166 100.556912 
L 277.820431 100.588084 
L 278.053092 100.63581 
L 278.285754 100.698673 
L 278.518416 100.776728 
L 278.550878 100.789736 
L 278.751077 100.877755 
L 278.983739 100.996844 
L 279.02778 101.022559 
L 279.2164 101.14471 
L 279.368398 101.255382 
L 279.449062 101.32138 
L 279.632652 101.488206 
L 279.681723 101.539147 
L 279.841067 101.721029 
L 279.914385 101.818728 
L 280.007382 101.953853 
L 280.14064 102.186676 
L 280.147047 102.200714 
L 280.239282 102.419499 
L 280.312316 102.652323 
L 280.360141 102.885146 
L 280.379708 103.087579 
L 280.38244 103.117969 
L 280.379708 103.349309 
L 280.379689 103.350793 
L 280.351107 103.583616 
L 280.296701 103.816439 
L 280.216245 104.049263 
L 280.147047 104.200225 
L 280.106425 104.282086 
L 279.962212 104.51491 
L 279.914385 104.579229 
L 279.777744 104.747733 
L 279.681723 104.849074 
L 279.544724 104.980556 
L 279.449062 105.060738 
L 279.246773 105.21338 
L 279.2164 105.23371 
L 278.983739 105.372304 
L 278.842128 105.446203 
L 278.751077 105.488887 
L 278.518416 105.582629 
L 278.285754 105.661043 
L 278.219534 105.679026 
L 278.053092 105.72006 
L 277.820431 105.763615 
L 277.587769 105.793394 
L 277.355108 105.809421 
L 277.122446 105.81171 
L 276.889785 105.800263 
L 276.657123 105.775071 
L 276.424461 105.736111 
L 276.1918 105.683351 
L 276.176684 105.679026 
L 275.959138 105.610467 
L 275.726477 105.521843 
L 275.557217 105.446203 
L 275.493815 105.414665 
L 275.261154 105.281831 
L 275.155 105.21338 
L 275.028492 105.121426 
L 274.854667 104.980556 
L 274.79583 104.925963 
L 274.621693 104.747733 
L 274.563169 104.677748 
L 274.438619 104.51491 
L 274.330507 104.345172 
L 274.293479 104.282086 
L 274.183971 104.049263 
L 274.101446 103.816439 
L 274.097846 103.801426 
L 274.049378 103.583616 
" style="fill:none;stroke:#fde725;stroke-width:1.5;"/>
   </g>
   <g id="line2d_1">
    <path clip-path="url(#p5d2b87fe7b)" d="M 54 195.36 
L 388.8 195.36 
" style="fill:none;stroke:#ff0000;stroke-linecap:square;stroke-width:1.5;"/>
   </g>
   <g id="line2d_2">
    <path clip-path="url(#p5d2b87fe7b)" d="M 54 91.2 
L 388.8 91.2 
" style="fill:none;stroke:#ff0000;stroke-linecap:square;stroke-width:1.5;"/>
   </g>
   <g id="patch_3">
    <path d="M 54 252 
L 54 34.56 
" style="fill:none;stroke:#000000;stroke-linecap:square;stroke-linejoin:miter;stroke-width:0.8;"/>
   </g>
   <g id="patch_4">
    <path d="M 388.8 252 
L 388.8 34.56 
" style="fill:none;stroke:#000000;stroke-linecap:square;stroke-linejoin:miter;stroke-width:0.8;"/>
   </g>
   <g id="patch_5">
    <path d="M 54 252 
L 388.8 252 
" style="fill:none;stroke:#000000;stroke-linecap:square;stroke-linejoin:miter;stroke-width:0.8;"/>
   </g>
   <g id="patch_6">
    <path d="M 54 34.56 
L 388.8 34.56 
" style="fill:none;stroke:#000000;stroke-linecap:square;stroke-linejoin:miter;stroke-width:0.8;"/>
   </g>
  </g>
 </g>
 <defs>
  <clipPath id="p5d2b87fe7b">
   <rect height="217.44" width="334.8" x="54" y="34.56"/>
  </clipPath>
 </defs>
</svg>
