<?xml version="1.0" encoding="utf-8" standalone="no"?>
<!DOCTYPE svg PUBLIC "-//W3C//DTD SVG 1.1//EN"
  "http://www.w3.org/Graphics/SVG/1.1/DTD/svg11.dtd">
<!-- Created with matplotlib (http://matplotlib.org/) -->
<svg height="288pt" version="1.1" viewBox="0 0 432 288" width="432pt" xmlns="http://www.w3.org/2000/svg" xmlns:xlink="http://www.w3.org/1999/xlink">
 <defs>
  <style type="text/css">
*{stroke-linecap:butt;stroke-linejoin:round;}
  </style>
 </defs>
 <g id="figure_1">
  <g id="patch_1">
   <path d="M 0 288 
L 432 288 
L 432 0 
L 0 0 
z
" style="fill:#ffffff;"/>
  </g>
  <g id="axes_1">
   <g id="patch_2">
    <path d="M 54 252 
L 388.8 252 
L 388.8 34.56 
L 54 34.56 
z
" style="fill:#ffffff;"/>
   </g>
   <g id="matplotlib.axis_1"/>
   <g id="matplotlib.axis_2"/>
   <g id="LineCollection_1">
    <path clip-path="url(#pc49dbe9dce)" d="M 121.693972 145.258999 
L 121.955468 148.052879 
L 122.449877 150.846759 
L 123.135163 153.407816 
L 124.031133 155.835931 
L 124.992182 157.83146 
L 126.128452 159.694047 
L 127.382633 161.323811 
L 128.736676 162.720751 
L 130.172876 163.884868 
L 131.708965 164.839188 
L 133.337596 165.573704 
L 134.966227 166.05857 
L 136.594858 166.31499 
L 138.223489 166.353503 
L 139.85212 166.175709 
L 141.562736 165.747455 
L 143.109382 165.131964 
L 144.532592 164.350515 
L 145.90132 163.37487 
L 147.37991 162.022281 
L 148.693259 160.492273 
L 149.873051 158.762754 
L 150.884847 156.900167 
L 151.781977 154.804757 
L 152.541967 152.476523 
L 153.142444 149.915466 
L 153.556448 147.121586 
L 153.744337 144.327705 
L 153.717611 141.533825 
L 153.474632 138.739944 
L 153.000732 135.946064 
L 152.337195 133.385007 
L 151.485198 131.001475 
L 150.532284 128.961363 
L 149.391244 127.04272 
L 148.215384 125.469013 
L 146.831967 123.995712 
L 145.435997 122.826476 
L 144.040028 121.913924 
L 142.411397 121.121755 
L 140.759885 120.579722 
L 139.154135 120.281361 
L 137.525504 120.1966 
L 135.774135 120.346898 
L 134.268242 120.680326 
L 132.618408 121.278192 
L 131.01098 122.120476 
L 129.554608 123.140779 
L 128.219041 124.334618 
L 126.994139 125.701836 
L 125.819048 127.331599 
L 124.729117 129.228625 
L 123.797929 131.289597 
L 122.992477 133.61783 
L 122.350209 136.178887 
L 121.896441 138.972768 
L 121.67183 141.766648 
L 121.662978 144.560529 
L 121.693972 145.258999 
L 121.693972 145.258999 
" style="fill:none;stroke:#440154;stroke-width:1.5;"/>
    <path clip-path="url(#pc49dbe9dce)" d="M 289.219373 146.888762 
L 289.614067 149.682643 
L 290.193726 152.2437 
L 290.931707 154.571933 
L 291.803691 156.667344 
L 292.926949 158.762754 
L 294.106741 160.492273 
L 295.42009 162.022281 
L 296.668374 163.186398 
L 298.061987 164.218982 
L 299.690618 165.131964 
L 301.319249 165.774262 
L 302.94788 166.175709 
L 304.576511 166.353503 
L 306.205142 166.31499 
L 307.833773 166.05857 
L 309.462404 165.573704 
L 311.091035 164.839188 
L 312.627124 163.884868 
L 313.882974 162.883575 
L 315.278944 161.482583 
L 316.50893 159.926871 
L 317.67961 158.064284 
L 318.711628 155.968873 
L 319.513127 153.873463 
L 320.243014 151.312406 
L 320.743468 148.751349 
L 321.061261 145.957469 
L 321.15914 143.163588 
L 321.04328 140.369708 
L 320.706633 137.575828 
L 320.164837 134.925771 
L 319.433965 132.453713 
L 318.504371 130.12548 
L 317.412468 128.03007 
L 316.341476 126.400306 
L 315.046282 124.819712 
L 313.650313 123.474026 
L 312.254343 122.417587 
L 310.625712 121.483694 
L 308.963463 120.812545 
L 307.36845 120.405459 
L 305.739819 120.211996 
L 304.111188 120.235102 
L 302.482557 120.475737 
L 300.853926 120.943754 
L 299.225295 121.659532 
L 297.829326 122.496038 
L 296.396556 123.606426 
L 294.987152 125.003366 
L 293.690989 126.633129 
L 292.652055 128.262893 
L 291.590552 130.358303 
L 290.766219 132.453713 
L 290.071538 134.781947 
L 289.531919 137.343004 
L 289.176124 140.136885 
L 289.042309 142.930765 
L 289.122524 145.724645 
L 289.219373 146.888762 
L 289.219373 146.888762 
" style="fill:none;stroke:#440154;stroke-width:1.5;"/>
   </g>
   <g id="LineCollection_2">
    <path clip-path="url(#pc49dbe9dce)" d="M 111.467263 147.820056 
L 111.820986 152.010876 
L 112.384711 155.968873 
L 113.097979 159.461224 
L 114.026685 162.858006 
L 115.042821 165.747455 
L 116.162974 168.308512 
L 117.410483 170.636745 
L 118.775347 172.732156 
L 120.308548 174.669593 
L 121.937179 176.359634 
L 123.698162 177.85427 
L 125.427102 179.051908 
L 127.46901 180.182503 
L 129.382349 181.006885 
L 131.476303 181.683094 
L 133.802919 182.187852 
L 136.129534 182.454294 
L 138.45615 182.493623 
L 140.782766 182.307441 
L 143.109382 181.888005 
L 145.203336 181.296353 
L 147.29729 180.479136 
L 149.250537 179.484033 
L 151.070405 178.319917 
L 152.881167 176.887877 
L 154.527215 175.293213 
L 156.138429 173.388923 
L 157.563481 171.335216 
L 158.888359 169.006982 
L 159.976448 166.678748 
L 161.038746 163.884868 
L 161.954969 160.843184 
L 162.756195 157.365814 
L 163.375782 153.64064 
L 163.804581 149.682643 
L 164.030396 145.491822 
L 164.036444 141.301001 
L 163.816261 137.02386 
L 163.40716 133.152184 
L 162.801709 129.42701 
L 162.012216 125.934659 
L 161.116879 122.907955 
L 160.074476 120.114075 
L 158.888359 117.553018 
L 157.534399 115.178584 
L 156.10637 113.129374 
L 154.509798 111.248141 
L 152.84089 109.637024 
L 151.019875 108.204098 
L 149.158582 107.023297 
L 147.064628 105.978004 
L 144.970674 105.187246 
L 142.87672 104.619133 
L 140.550104 104.223657 
L 138.223489 104.060204 
L 135.896873 104.122026 
L 133.570257 104.411627 
L 131.243641 104.941224 
L 129.056646 105.679026 
L 127.004792 106.61032 
L 125.011399 107.774437 
L 123.333148 108.990586 
L 121.554652 110.568317 
L 120.044131 112.198081 
L 118.610178 114.060668 
L 117.273976 116.156078 
L 116.05124 118.484312 
L 114.951819 121.045369 
L 113.912785 124.072072 
L 113.043482 127.331599 
L 112.344849 130.82395 
L 111.820986 134.549124 
L 111.480852 138.507121 
L 111.341598 142.697942 
L 111.420082 146.888762 
L 111.467263 147.820056 
L 111.467263 147.820056 
" style="fill:none;stroke:#443983;stroke-width:1.5;"/>
    <path clip-path="url(#pc49dbe9dce)" d="M 278.749464 144.560529 
L 278.925795 148.751349 
L 279.303379 152.709346 
L 279.8674 156.43452 
L 280.61237 159.93448 
L 281.543016 163.224741 
L 282.629605 166.213102 
L 283.793219 168.774159 
L 285.091573 171.102392 
L 286.516985 173.197803 
L 288.05754 175.060498 
L 289.696429 176.690153 
L 291.547464 178.189284 
L 293.408756 179.40296 
L 295.362424 180.415327 
L 297.364003 181.217179 
L 299.457957 181.832654 
L 301.797183 182.277914 
L 304.111188 182.485203 
L 306.437804 182.46835 
L 308.76442 182.224962 
L 311.091035 181.744836 
L 313.18499 181.093176 
L 315.33099 180.182503 
L 317.140236 179.195247 
L 319.001529 177.930796 
L 320.757915 176.45733 
L 322.351949 174.827566 
L 323.887422 172.922064 
L 325.283391 170.815119 
L 326.522986 168.541335 
L 327.664701 165.980278 
L 328.669153 163.186398 
L 329.53145 160.159694 
L 330.289856 156.667344 
L 330.867748 152.94217 
L 331.257823 148.984172 
L 331.446358 144.793352 
L 331.416199 140.602531 
L 331.165303 136.411711 
L 330.710362 132.453713 
L 330.062286 128.72854 
L 329.224693 125.236189 
L 328.277706 122.209485 
L 327.144684 119.346427 
L 325.918506 116.854548 
L 324.585407 114.640039 
L 323.140062 112.663727 
L 321.560806 110.884194 
L 319.932175 109.372078 
L 318.070883 107.96255 
L 316.20959 106.829599 
L 314.115636 105.829564 
L 312.021682 105.077804 
L 309.780666 104.51491 
L 307.601112 104.18463 
L 305.274496 104.055156 
L 302.94788 104.150762 
L 300.621265 104.475319 
L 298.294649 105.042659 
L 296.200695 105.78162 
L 294.106741 106.766885 
L 292.245448 107.884222 
L 290.384156 109.274792 
L 288.72102 110.80114 
L 287.126894 112.580788 
L 285.690598 114.526314 
L 284.334955 116.756722 
L 283.128382 119.182782 
L 282.004971 121.976662 
L 281.04032 125.003366 
L 280.23556 128.262893 
L 279.593895 131.755243 
L 279.098974 135.713241 
L 278.809997 139.904061 
L 278.743459 144.094882 
L 278.749464 144.560529 
L 278.749464 144.560529 
" style="fill:none;stroke:#443983;stroke-width:1.5;"/>
   </g>
   <g id="LineCollection_3">
    <path clip-path="url(#pc49dbe9dce)" d="M 103.322296 148.052879 
L 103.598939 154.33911 
L 104.058164 159.926871 
L 104.698449 165.048985 
L 105.47046 169.472629 
L 106.389393 173.430626 
L 107.361063 176.690153 
L 108.494172 179.716857 
L 109.682204 182.277914 
L 111.003147 184.606147 
L 112.451843 186.701558 
L 114.026685 188.577425 
L 115.667006 190.193908 
L 117.516609 191.699753 
L 119.441872 192.987789 
L 121.574771 194.151905 
L 123.798471 195.128443 
L 126.383871 196.014492 
L 129.149687 196.715609 
L 131.941626 197.201446 
L 134.966227 197.503961 
L 137.990827 197.589555 
L 141.015427 197.46294 
L 144.040028 197.11731 
L 146.831967 196.587479 
L 149.623905 195.827859 
L 152.183183 194.893851 
L 154.509798 193.805135 
L 156.698188 192.522142 
L 158.632345 191.125202 
L 160.326338 189.643519 
L 162.007001 187.865675 
L 163.462962 186.003088 
L 164.82123 183.907677 
L 166.066292 181.579444 
L 167.190552 179.018387 
L 168.266559 175.991683 
L 169.249772 172.499332 
L 170.11204 168.541335 
L 170.836145 164.117691 
L 171.434129 158.995577 
L 171.856981 153.407816 
L 172.094358 147.354409 
L 172.122998 140.835355 
L 171.930858 134.549124 
L 171.540237 128.72854 
L 170.96218 123.373602 
L 170.241417 118.717135 
L 169.400139 114.678017 
L 168.469493 111.222029 
L 167.3722 108.00726 
L 166.178187 105.21338 
L 164.957142 102.885146 
L 163.5836 100.727292 
L 162.18763 98.907153 
L 160.47923 97.064562 
L 158.697707 95.486895 
L 156.836414 94.128497 
L 154.733753 92.873741 
L 152.415844 91.763931 
L 149.856567 90.807023 
L 147.286886 90.079861 
L 144.505351 89.516319 
L 141.480751 89.135713 
L 138.45615 88.976066 
L 135.43155 89.028995 
L 132.406949 89.297326 
L 129.382349 89.79573 
L 126.59041 90.484712 
L 124.031133 91.341529 
L 121.574771 92.408095 
L 119.441872 93.572211 
L 117.516609 94.860247 
L 115.655316 96.376544 
L 114.014459 97.995855 
L 112.398054 99.929061 
L 111.002085 101.955543 
L 109.682204 104.282086 
L 108.494172 106.843143 
L 107.439502 109.637024 
L 106.451689 112.896551 
L 105.56614 116.621725 
L 104.805356 120.812545 
L 104.183336 125.469013 
L 103.693373 130.82395 
L 103.37193 136.877357 
L 103.260996 143.163588 
L 103.322296 148.052879 
L 103.322296 148.052879 
" style="fill:none;stroke:#31688e;stroke-width:1.5;"/>
    <path clip-path="url(#pc49dbe9dce)" d="M 270.836613 151.312406 
L 271.220135 157.365814 
L 271.777806 162.720751 
L 272.475572 167.377218 
L 273.325894 171.568039 
L 274.247248 175.060389 
L 275.261154 178.110934 
L 276.424461 180.925019 
L 277.70983 183.442031 
L 279.012231 185.537441 
L 280.403119 187.400028 
L 282.085233 189.262615 
L 283.879949 190.892378 
L 285.751367 192.289318 
L 287.824878 193.555367 
L 290.151494 194.695967 
L 292.710771 195.67627 
L 295.270049 196.420441 
L 298.061987 197.004693 
L 301.086588 197.403032 
L 304.111188 197.579248 
L 307.135789 197.542617 
L 310.160389 197.291225 
L 313.18499 196.811366 
L 315.976928 196.141948 
L 318.536206 195.306246 
L 320.862821 194.326504 
L 322.96655 193.220612 
L 325.05073 191.869211 
L 326.912022 190.389957 
L 328.567703 188.796968 
L 330.169284 186.933696 
L 331.649244 184.838971 
L 332.997172 182.510737 
L 334.207435 179.94968 
L 335.287839 177.135432 
L 336.28506 173.896273 
L 337.184921 170.171099 
L 337.957855 165.980278 
L 338.590304 161.323811 
L 339.089641 155.968873 
L 339.411131 150.148289 
L 339.538133 143.862058 
L 339.443776 137.343004 
L 339.13952 131.289597 
L 338.642575 125.701836 
L 337.994644 120.812545 
L 337.184921 116.388901 
L 336.28506 112.663727 
L 335.2808 109.4042 
L 334.107369 106.377497 
L 332.874076 103.816439 
L 331.498669 101.488206 
L 329.984898 99.392796 
L 328.540653 97.734421 
L 326.869787 96.133268 
L 325.05073 94.690789 
L 322.956776 93.333658 
L 320.738287 92.175271 
L 318.509735 91.243978 
L 315.976928 90.418052 
L 313.18499 89.748634 
L 310.160389 89.268775 
L 307.135789 89.017383 
L 304.111188 88.980752 
L 301.086588 89.156968 
L 298.061987 89.555307 
L 295.270049 90.139559 
L 292.710771 90.88373 
L 290.151494 91.864033 
L 287.824878 93.004633 
L 285.730924 94.28445 
L 283.869632 95.676066 
L 282.085233 97.297385 
L 280.595673 98.927149 
L 279.172843 100.789736 
L 277.820431 102.923958 
L 276.621813 105.21338 
L 275.4278 108.00726 
L 274.38798 111.033964 
L 273.436231 114.526314 
L 272.601051 118.484312 
L 271.899821 122.907955 
L 271.322178 128.03007 
L 270.917072 133.61783 
L 270.695982 139.671238 
L 270.683711 146.190292 
L 270.836613 151.312406 
L 270.836613 151.312406 
" style="fill:none;stroke:#31688e;stroke-width:1.5;"/>
   </g>
   <g id="LineCollection_4">
    <path clip-path="url(#pc49dbe9dce)" d="M 54 59.58 
L 95.646421 59.58 
L 95.85 59.812823 
L 95.85 226.747177 
L 95.646421 226.98 
L 54 226.98 
L 54 226.98 
" style="fill:none;stroke:#21908d;stroke-width:1.5;"/>
    <path clip-path="url(#pc49dbe9dce)" d="M 388.8 226.98 
L 347.153579 226.98 
L 346.95 226.747177 
L 346.95 59.812823 
L 347.153579 59.58 
L 388.8 59.58 
L 388.8 59.58 
" style="fill:none;stroke:#21908d;stroke-width:1.5;"/>
    <path clip-path="url(#pc49dbe9dce)" d="M 179.55 226.747177 
L 179.637248 59.58 
L 263.162752 59.58 
L 263.25 60.045647 
L 263.162752 226.98 
L 179.637248 226.98 
L 179.55 226.747177 
L 179.55 226.747177 
" style="fill:none;stroke:#21908d;stroke-width:1.5;"/>
   </g>
   <g id="LineCollection_5">
    <path clip-path="url(#pc49dbe9dce)" d="M 54 88.96947 
L 57.0246 89.075542 
L 60.049201 89.399572 
L 62.84114 89.907206 
L 65.633079 90.641167 
L 68.192356 91.547091 
L 70.589663 92.640918 
L 72.63522 93.805035 
L 74.635767 95.201975 
L 76.335511 96.642155 
L 77.964142 98.302453 
L 79.423632 100.091266 
L 80.841131 102.186676 
L 82.15205 104.546228 
L 83.315358 107.107214 
L 84.416085 110.10267 
L 85.371864 113.362197 
L 86.229511 117.087371 
L 86.966462 121.278192 
L 87.593073 126.167483 
L 88.055432 131.52242 
L 88.35113 137.575828 
L 88.438184 143.862058 
L 88.311117 150.148289 
L 87.968589 156.251188 
L 87.436141 161.789458 
L 86.743919 166.678748 
L 85.933213 170.869569 
L 84.988974 174.594743 
L 83.933017 177.85427 
L 82.801474 180.64815 
L 81.520697 183.209207 
L 80.244881 185.304618 
L 78.696853 187.400028 
L 77.244254 189.029791 
L 75.498843 190.659555 
L 73.686639 192.056495 
L 71.682279 193.327113 
L 69.355664 194.515022 
L 67.029048 195.455056 
L 64.469771 196.25426 
L 61.677832 196.890078 
L 58.653231 197.337925 
L 55.628631 197.559893 
L 54 197.59053 
L 54 197.59053 
" style="fill:none;stroke:#35b779;stroke-width:1.5;"/>
    <path clip-path="url(#pc49dbe9dce)" d="M 388.8 197.59053 
L 385.7754 197.484458 
L 382.750799 197.160428 
L 379.95886 196.652794 
L 377.166921 195.918833 
L 374.607644 195.012909 
L 372.210337 193.919082 
L 370.16478 192.754965 
L 368.164233 191.358025 
L 366.464489 189.917845 
L 364.835858 188.257547 
L 363.376368 186.468734 
L 361.958869 184.373324 
L 360.64795 182.013772 
L 359.484642 179.452786 
L 358.383915 176.45733 
L 357.428136 173.197803 
L 356.570489 169.472629 
L 355.833538 165.281808 
L 355.206927 160.392517 
L 354.744568 155.03758 
L 354.44887 148.984172 
L 354.361816 142.697942 
L 354.488883 136.411711 
L 354.831411 130.308812 
L 355.363859 124.770542 
L 356.056081 119.881252 
L 356.866787 115.690431 
L 357.811026 111.965257 
L 358.866983 108.70573 
L 359.998526 105.91185 
L 361.279303 103.350793 
L 362.555119 101.255382 
L 364.103147 99.159972 
L 365.555746 97.530209 
L 367.301157 95.900445 
L 369.113361 94.503505 
L 371.117721 93.232887 
L 373.444336 92.044978 
L 375.770952 91.104944 
L 378.330229 90.30574 
L 381.122168 89.669922 
L 384.146769 89.222075 
L 387.171369 89.000107 
L 388.8 88.96947 
L 388.8 88.96947 
" style="fill:none;stroke:#35b779;stroke-width:1.5;"/>
    <path clip-path="url(#pc49dbe9dce)" d="M 187.080193 149.915466 
L 186.961302 143.629235 
L 187.063903 137.110181 
L 187.376731 131.056773 
L 187.883348 125.469013 
L 188.542127 120.579722 
L 189.364849 116.156078 
L 190.279241 112.430904 
L 191.300395 109.171377 
L 192.433634 106.28334 
L 193.62585 103.816439 
L 195.001218 101.488206 
L 196.515165 99.392796 
L 198.017512 97.673411 
L 199.646143 96.11925 
L 201.507436 94.64903 
L 203.60139 93.299858 
L 205.761644 92.175271 
L 208.02196 91.232116 
L 210.581237 90.401673 
L 213.373176 89.737102 
L 216.397776 89.26185 
L 219.422377 89.014678 
L 222.446977 88.982119 
L 225.471577 89.162473 
L 228.496178 89.565283 
L 231.288117 90.154125 
L 233.847394 90.903224 
L 236.406671 91.88945 
L 238.733287 93.036688 
L 240.827241 94.323973 
L 242.688534 95.724055 
L 244.414748 97.297385 
L 245.945796 98.976742 
L 247.487682 101.022559 
L 248.790216 103.117969 
L 249.987901 105.446203 
L 251.160637 108.240083 
L 252.182991 111.266787 
L 253.119392 114.759138 
L 253.94142 118.717135 
L 254.631439 123.140779 
L 255.199002 128.262893 
L 255.595388 133.850654 
L 255.812489 140.136885 
L 255.808402 146.655939 
L 255.582921 152.94217 
L 255.156144 158.762754 
L 254.554274 163.98758 
L 253.812003 168.541335 
L 252.925643 172.596294 
L 251.96656 175.991683 
L 250.890583 179.018387 
L 249.766279 181.579444 
L 248.505073 183.935287 
L 247.109104 186.078637 
L 245.707118 187.865675 
L 244.084503 189.587574 
L 242.332298 191.125202 
L 240.398316 192.522142 
L 238.433522 193.686259 
L 236.17401 194.771277 
L 233.614732 195.733989 
L 230.986438 196.480139 
L 228.263516 197.034071 
L 225.238916 197.419088 
L 222.214315 197.58288 
L 219.189715 197.534027 
L 216.165115 197.269939 
L 213.140514 196.77619 
L 210.348575 196.092126 
L 207.789298 195.240624 
L 205.462682 194.24336 
L 203.368728 193.12394 
L 201.274774 191.742501 
L 199.36711 190.193908 
L 197.714591 188.564145 
L 196.151727 186.701558 
L 194.703264 184.606147 
L 193.364281 182.243185 
L 192.194097 179.716857 
L 191.139517 176.922976 
L 190.15165 173.663449 
L 189.266142 169.938275 
L 188.50531 165.747455 
L 187.883348 161.090987 
L 187.393367 155.73605 
L 187.080193 149.915466 
L 187.080193 149.915466 
" style="fill:none;stroke:#35b779;stroke-width:1.5;"/>
   </g>
   <g id="LineCollection_6">
    <path clip-path="url(#pc49dbe9dce)" d="M 54 104.054525 
L 56.326616 104.167053 
L 58.681388 104.51491 
L 60.979847 105.095626 
L 63.073801 105.853816 
L 65.167755 106.861313 
L 67.036559 108.00726 
L 68.890341 109.421223 
L 70.60594 111.033964 
L 72.147603 112.798029 
L 73.564075 114.759138 
L 74.944403 117.087371 
L 76.176751 119.648428 
L 77.266157 122.46298 
L 78.196803 125.499926 
L 79.009726 128.961363 
L 79.643474 132.686537 
L 80.08532 136.644534 
L 80.323656 140.835355 
L 80.341723 145.026175 
L 80.140745 149.216996 
L 79.737755 153.174993 
L 79.12745 156.999523 
L 78.372408 160.392517 
L 77.416888 163.652045 
L 76.335511 166.539107 
L 75.172203 169.038581 
L 73.863343 171.335216 
L 72.583165 173.197803 
L 70.984295 175.123938 
L 69.355664 176.733187 
L 67.494371 178.231358 
L 65.550559 179.484033 
L 63.539124 180.505141 
L 61.350395 181.34662 
L 59.351216 181.901453 
L 57.0246 182.314884 
L 54.697985 182.495377 
L 54 182.505475 
L 54 182.505475 
" style="fill:none;stroke:#90d743;stroke-width:1.5;"/>
    <path clip-path="url(#pc49dbe9dce)" d="M 388.8 182.505475 
L 386.473384 182.392947 
L 384.118612 182.04509 
L 381.820153 181.464374 
L 379.726199 180.706184 
L 377.632245 179.698687 
L 375.763441 178.55274 
L 373.909659 177.138777 
L 372.19406 175.526036 
L 370.652397 173.761971 
L 369.235925 171.800862 
L 367.855597 169.472629 
L 366.623249 166.911572 
L 365.533843 164.09702 
L 364.603197 161.060074 
L 363.790274 157.598637 
L 363.156526 153.873463 
L 362.71468 149.915466 
L 362.476344 145.724645 
L 362.458277 141.533825 
L 362.659255 137.343004 
L 363.062245 133.385007 
L 363.67255 129.560477 
L 364.427592 126.167483 
L 365.383112 122.907955 
L 366.464489 120.020893 
L 367.627797 117.521419 
L 368.936657 115.224784 
L 370.216835 113.362197 
L 371.815705 111.436062 
L 373.444336 109.826813 
L 375.305629 108.328642 
L 377.249441 107.075967 
L 379.260876 106.054859 
L 381.449605 105.21338 
L 383.448784 104.658547 
L 385.7754 104.245116 
L 388.102015 104.064623 
L 388.8 104.054525 
L 388.8 104.054525 
" style="fill:none;stroke:#90d743;stroke-width:1.5;"/>
    <path clip-path="url(#pc49dbe9dce)" d="M 195.210057 148.518526 
L 195.046232 144.327705 
L 195.100615 140.136885 
L 195.376806 135.946064 
L 195.858279 131.988067 
L 196.535558 128.262893 
L 197.340278 125.003366 
L 198.305114 121.976662 
L 199.428297 119.182782 
L 200.709796 116.621725 
L 201.990516 114.526314 
L 203.368728 112.652577 
L 205.02097 110.80114 
L 206.62599 109.323283 
L 208.487283 107.92326 
L 210.348575 106.798134 
L 212.44253 105.805498 
L 214.536484 105.060149 
L 216.719354 104.51491 
L 218.957054 104.178627 
L 221.283669 104.054805 
L 223.610285 104.15605 
L 225.936901 104.48646 
L 228.263516 105.060149 
L 230.35747 105.805498 
L 232.451425 106.798134 
L 234.312717 107.92326 
L 236.17401 109.323283 
L 237.802641 110.824951 
L 239.440227 112.663727 
L 240.827241 114.552736 
L 242.218689 116.854548 
L 243.386518 119.21579 
L 244.494886 121.976662 
L 245.459722 125.003366 
L 246.264442 128.262893 
L 246.941721 131.988067 
L 247.423194 135.946064 
L 247.699385 140.136885 
L 247.753768 144.327705 
L 247.589943 148.518526 
L 247.224858 152.476523 
L 246.64378 156.372968 
L 245.945796 159.696205 
L 245.015149 163.042665 
L 243.964638 165.980278 
L 242.822962 168.541335 
L 241.525226 170.911537 
L 240.129256 173.001387 
L 238.651966 174.827566 
L 237.058048 176.45733 
L 235.243363 177.974602 
L 233.347437 179.25121 
L 231.520778 180.235987 
L 229.426824 181.114305 
L 227.33287 181.759872 
L 225.006254 182.233871 
L 222.679639 182.471511 
L 220.353023 182.482746 
L 218.026407 182.268041 
L 215.675259 181.812267 
L 213.605837 181.196953 
L 211.511883 180.346078 
L 209.452563 179.25121 
L 207.708115 178.087093 
L 205.928006 176.628274 
L 204.299375 174.996443 
L 202.816983 173.197803 
L 201.391639 171.102392 
L 200.093073 168.774159 
L 198.929472 166.213102 
L 197.906282 163.419221 
L 197.027595 160.392517 
L 196.25375 156.900167 
L 195.662156 153.174993 
L 195.259184 149.216996 
L 195.210057 148.518526 
L 195.210057 148.518526 
" style="fill:none;stroke:#90d743;stroke-width:1.5;"/>
   </g>
   <g id="LineCollection_7">
    <path clip-path="url(#pc49dbe9dce)" d="M 54 120.195364 
L 55.628631 120.303273 
L 57.257262 120.631551 
L 58.885893 121.193848 
L 60.514524 122.015404 
L 61.910493 122.957519 
L 63.306463 124.162704 
L 64.515127 125.469013 
L 65.728328 127.098776 
L 66.832199 128.961363 
L 67.807666 131.056773 
L 68.657679 133.451374 
L 69.300841 135.946064 
L 69.744307 138.507121 
L 70.00585 141.301001 
L 70.050541 144.094882 
L 69.880352 146.888762 
L 69.485882 149.682643 
L 68.890341 152.302561 
L 68.08189 154.804757 
L 67.184889 156.900167 
L 66.098402 158.884375 
L 64.890433 160.625341 
L 63.539124 162.16672 
L 62.143155 163.42148 
L 60.747186 164.403817 
L 59.118555 165.265581 
L 57.489924 165.862835 
L 55.861293 166.223626 
L 54.232662 166.362438 
L 54 166.364636 
L 54 166.364636 
" style="fill:none;stroke:#fde725;stroke-width:1.5;"/>
    <path clip-path="url(#pc49dbe9dce)" d="M 388.8 166.364636 
L 387.171369 166.256727 
L 385.542738 165.928449 
L 383.914107 165.366152 
L 382.285476 164.544596 
L 380.889507 163.602481 
L 379.493537 162.397296 
L 378.284873 161.090987 
L 377.071672 159.461224 
L 375.967801 157.598637 
L 374.992334 155.503227 
L 374.142321 153.108626 
L 373.499159 150.613936 
L 373.055693 148.052879 
L 372.79415 145.258999 
L 372.749459 142.465118 
L 372.919648 139.671238 
L 373.314118 136.877357 
L 373.909659 134.257439 
L 374.71811 131.755243 
L 375.615111 129.659833 
L 376.701598 127.675625 
L 377.909567 125.934659 
L 379.260876 124.39328 
L 380.656845 123.13852 
L 382.052814 122.156183 
L 383.681445 121.294419 
L 385.310076 120.697165 
L 386.938707 120.336374 
L 388.567338 120.197562 
L 388.8 120.195364 
L 388.8 120.195364 
" style="fill:none;stroke:#fde725;stroke-width:1.5;"/>
    <path clip-path="url(#pc49dbe9dce)" d="M 205.456499 146.190292 
L 205.340936 143.396412 
L 205.43869 140.602531 
L 205.756446 137.808651 
L 206.257017 135.247594 
L 206.987022 132.686537 
L 207.890726 130.358303 
L 208.952606 128.261282 
L 210.158306 126.400306 
L 211.511883 124.756785 
L 212.968944 123.373602 
L 214.303822 122.379126 
L 215.932453 121.455707 
L 217.561084 120.804331 
L 219.189715 120.394734 
L 220.818346 120.209109 
L 222.446977 120.239918 
L 224.075608 120.488441 
L 225.704239 120.964875 
L 227.33287 121.690009 
L 228.728839 122.53591 
L 230.124809 123.624899 
L 231.520778 125.011792 
L 232.808831 126.633129 
L 233.848317 128.262893 
L 234.909274 130.358303 
L 235.734007 132.453713 
L 236.486692 135.014771 
L 237.006597 137.575828 
L 237.343501 140.369708 
L 237.459064 143.163588 
L 237.36131 145.957469 
L 237.043554 148.751349 
L 236.542983 151.312406 
L 235.812978 153.873463 
L 234.909274 156.201697 
L 233.847394 158.298718 
L 232.641694 160.159694 
L 231.288117 161.803215 
L 229.831056 163.186398 
L 228.496178 164.180874 
L 226.867547 165.104293 
L 225.238916 165.755669 
L 223.610285 166.165266 
L 221.981654 166.350891 
L 220.353023 166.320082 
L 218.724392 166.071559 
L 217.095761 165.595125 
L 215.46713 164.869991 
L 214.071161 164.02409 
L 212.675191 162.935101 
L 211.279222 161.548208 
L 209.991169 159.926871 
L 208.951683 158.297107 
L 207.890726 156.201697 
L 207.065993 154.106287 
L 206.313308 151.545229 
L 205.793403 148.984172 
L 205.456499 146.190292 
L 205.456499 146.190292 
" style="fill:none;stroke:#fde725;stroke-width:1.5;"/>
   </g>
   <g id="line2d_1">
    <path clip-path="url(#pc49dbe9dce)" d="M 54 195.36 
L 388.8 195.36 
" style="fill:none;stroke:#ff0000;stroke-linecap:square;stroke-width:1.5;"/>
   </g>
   <g id="line2d_2">
    <path clip-path="url(#pc49dbe9dce)" d="M 54 91.2 
L 388.8 91.2 
" style="fill:none;stroke:#ff0000;stroke-linecap:square;stroke-width:1.5;"/>
   </g>
   <g id="patch_3">
    <path d="M 54 252 
L 54 34.56 
" style="fill:none;stroke:#000000;stroke-linecap:square;stroke-linejoin:miter;stroke-width:0.8;"/>
   </g>
   <g id="patch_4">
    <path d="M 388.8 252 
L 388.8 34.56 
" style="fill:none;stroke:#000000;stroke-linecap:square;stroke-linejoin:miter;stroke-width:0.8;"/>
   </g>
   <g id="patch_5">
    <path d="M 54 252 
L 388.8 252 
" style="fill:none;stroke:#000000;stroke-linecap:square;stroke-linejoin:miter;stroke-width:0.8;"/>
   </g>
   <g id="patch_6">
    <path d="M 54 34.56 
L 388.8 34.56 
" style="fill:none;stroke:#000000;stroke-linecap:square;stroke-linejoin:miter;stroke-width:0.8;"/>
   </g>
  </g>
 </g>
 <defs>
  <clipPath id="pc49dbe9dce">
   <rect height="217.44" width="334.8" x="54" y="34.56"/>
  </clipPath>
 </defs>
</svg>
