<?xml version="1.0" encoding="utf-8" standalone="no"?>
<!DOCTYPE svg PUBLIC "-//W3C//DTD SVG 1.1//EN"
  "http://www.w3.org/Graphics/SVG/1.1/DTD/svg11.dtd">
<!-- Created with matplotlib (http://matplotlib.org/) -->
<svg height="288pt" version="1.1" viewBox="0 0 432 288" width="432pt" xmlns="http://www.w3.org/2000/svg" xmlns:xlink="http://www.w3.org/1999/xlink">
 <defs>
  <style type="text/css">
*{stroke-linecap:butt;stroke-linejoin:round;}
  </style>
 </defs>
 <g id="figure_1">
  <g id="patch_1">
   <path d="M 0 288 
L 432 288 
L 432 0 
L 0 0 
z
" style="fill:#ffffff;"/>
  </g>
  <g id="axes_1">
   <g id="patch_2">
    <path d="M 54 252 
L 388.8 252 
L 388.8 34.56 
L 54 34.56 
z
" style="fill:#ffffff;"/>
   </g>
   <g id="matplotlib.axis_1"/>
   <g id="matplotlib.axis_2"/>
   <g id="LineCollection_1">
    <path clip-path="url(#pfc6b436a76)" d="M 54 95.79878 
L 56.326616 95.693127 
L 58.42057 95.402328 
L 60.514524 94.882259 
L 62.143155 94.255691 
L 63.539124 93.459154 
L 64.50672 92.640918 
L 65.199423 91.709624 
L 65.550245 90.778331 
L 65.602575 89.847038 
L 65.365936 88.915744 
L 64.822531 87.984451 
L 64.004448 87.127477 
L 63.073801 86.44328 
L 61.910493 85.812254 
L 60.281862 85.180793 
L 58.42057 84.701462 
L 56.326616 84.389105 
L 54 84.273514 
L 54 84.273514 
" style="fill:none;stroke:#440154;stroke-width:1.5;"/>
    <path clip-path="url(#pfc6b436a76)" d="M 388.8 84.273514 
L 386.473384 84.389105 
L 384.264848 84.724924 
L 382.285476 85.257809 
L 380.656845 85.92326 
L 379.260876 86.75876 
L 378.330229 87.571019 
L 377.664956 88.450097 
L 377.279521 89.381391 
L 377.187308 90.312684 
L 377.385763 91.243978 
L 377.864906 92.125385 
L 378.330229 92.678131 
L 379.260876 93.459154 
L 380.424183 94.142456 
L 381.843048 94.736328 
L 383.681445 95.257699 
L 385.7754 95.617855 
L 388.102015 95.789298 
L 388.8 95.79878 
L 388.8 95.79878 
" style="fill:none;stroke:#440154;stroke-width:1.5;"/>
    <path clip-path="url(#pfc6b436a76)" d="M 126.097405 196.712962 
L 126.333987 197.644256 
L 126.823072 198.500898 
L 127.521056 199.278416 
L 128.451703 200.004366 
L 129.847672 200.774513 
L 131.476303 201.397321 
L 133.337596 201.870057 
L 135.43155 202.17662 
L 137.758165 202.286414 
L 140.084781 202.165024 
L 142.235539 201.835076 
L 144.272689 201.28235 
L 145.90132 200.607411 
L 147.064628 199.92524 
L 148.121012 199.041196 
L 148.834776 198.109903 
L 149.220599 197.178609 
L 149.312377 196.247316 
L 149.114016 195.316022 
L 148.693259 194.518703 
L 147.995274 193.709897 
L 147.29729 193.141675 
L 146.133982 192.446437 
L 144.656424 191.823672 
L 142.87672 191.315365 
L 140.782766 190.949422 
L 138.45615 190.772348 
L 136.129534 190.809275 
L 133.802919 191.066271 
L 131.708965 191.522099 
L 130.080334 192.075263 
L 128.684364 192.762718 
L 127.521056 193.604586 
L 126.799815 194.384729 
L 126.286113 195.316022 
L 126.087429 196.247316 
L 126.097405 196.712962 
L 126.097405 196.712962 
" style="fill:none;stroke:#440154;stroke-width:1.5;"/>
    <path clip-path="url(#pfc6b436a76)" d="M 209.849523 90.778331 
L 210.115914 91.542657 
L 210.581237 92.279099 
L 211.279222 93.006545 
L 212.209868 93.689552 
L 213.373176 94.308735 
L 215.001807 94.918845 
L 216.863099 95.379768 
L 218.957054 95.68226 
L 221.283669 95.798516 
L 223.610285 95.703458 
L 225.704239 95.424275 
L 227.798193 94.918845 
L 229.511024 94.270682 
L 230.822794 93.539901 
L 231.75344 92.793186 
L 232.461035 91.942448 
L 232.89183 91.011154 
L 233.016267 90.079861 
L 232.852454 89.148567 
L 232.389354 88.217274 
L 231.75344 87.451339 
L 230.822794 86.675783 
L 229.659486 85.98216 
L 228.263516 85.379788 
L 226.402224 84.82925 
L 224.30827 84.454449 
L 221.981654 84.280717 
L 219.655038 84.338443 
L 217.328423 84.634735 
L 215.46713 85.074864 
L 213.835854 85.656217 
L 212.44253 86.369806 
L 211.279222 87.229843 
L 210.576922 87.984451 
L 210.034291 88.915744 
L 209.797684 89.847038 
L 209.849523 90.778331 
L 209.849523 90.778331 
" style="fill:none;stroke:#440154;stroke-width:1.5;"/>
    <path clip-path="url(#pfc6b436a76)" d="M 293.579401 197.178609 
L 293.965224 198.109903 
L 294.572064 198.925492 
L 295.270049 199.578075 
L 296.433356 200.359948 
L 297.829326 201.024103 
L 299.582113 201.602253 
L 301.551911 202.014704 
L 303.645865 202.241421 
L 305.972481 202.270275 
L 308.299097 202.067305 
L 310.393051 201.660105 
L 312.254343 201.070304 
L 313.650313 200.425669 
L 314.813621 199.670017 
L 315.744267 198.796064 
L 316.360034 197.877079 
L 316.670897 196.945786 
L 316.690779 196.014492 
L 316.442252 195.143072 
L 316.160743 194.617552 
L 315.511605 193.824137 
L 314.580959 193.060321 
L 313.417651 192.388887 
L 312.021682 191.811541 
L 310.160389 191.289394 
L 308.066435 190.93501 
L 305.739819 190.769187 
L 303.413204 190.81667 
L 301.086588 191.085263 
L 298.992634 191.554599 
L 297.364003 192.124478 
L 295.968033 192.834261 
L 295.037387 193.502692 
L 294.200168 194.384729 
L 293.685984 195.316022 
L 293.487623 196.247316 
L 293.579401 197.178609 
L 293.579401 197.178609 
" style="fill:none;stroke:#440154;stroke-width:1.5;"/>
   </g>
   <g id="LineCollection_2">
    <path clip-path="url(#pfc6b436a76)" d="M 54 166.00148 
L 57.0246 165.896975 
L 60.049201 165.567795 
L 62.608478 165.06689 
L 64.469771 164.520009 
L 66.098402 163.848656 
L 67.494371 163.023719 
L 68.388858 162.255104 
L 68.937909 161.556634 
L 69.277025 160.858164 
L 69.42698 160.159694 
L 69.355664 159.270482 
L 69.123002 158.635141 
L 68.657679 157.907618 
L 67.959694 157.18963 
L 67.029048 156.508268 
L 65.86574 155.877918 
L 64.237109 155.229636 
L 62.143155 154.644971 
L 59.816539 154.21235 
L 57.0246 153.911934 
L 54 153.806464 
L 54 153.806464 
" style="fill:none;stroke:#443983;stroke-width:1.5;"/>
    <path clip-path="url(#pfc6b436a76)" d="M 54 102.01495 
L 57.955247 101.906656 
L 61.677832 101.591952 
L 64.935094 101.110936 
L 67.727033 100.495781 
L 70.28631 99.699113 
L 72.147603 98.916399 
L 73.813955 97.995855 
L 75.172203 97.008062 
L 76.335511 95.882677 
L 77.266157 94.63923 
L 77.834894 93.572211 
L 78.315382 92.175271 
L 78.538796 90.778331 
L 78.528357 89.381391 
L 78.289562 87.984451 
L 77.811819 86.58751 
L 77.06674 85.19057 
L 76.102849 83.908773 
L 74.939541 82.745129 
L 73.543572 81.666704 
L 71.914941 80.685969 
L 70.053648 79.809862 
L 67.727033 78.971537 
L 65.167755 78.28712 
L 62.143155 77.718148 
L 58.885893 77.334622 
L 55.395969 77.145218 
L 54 77.128644 
L 54 77.128644 
" style="fill:none;stroke:#443983;stroke-width:1.5;"/>
    <path clip-path="url(#pfc6b436a76)" d="M 388.8 153.806464 
L 385.7754 153.911934 
L 382.750799 154.247303 
L 380.191522 154.756152 
L 378.097568 155.394183 
L 376.468937 156.108538 
L 375.198261 156.900167 
L 374.374983 157.63653 
L 373.728375 158.52993 
L 373.444336 159.270482 
L 373.363311 159.926871 
L 373.452317 160.625341 
L 373.727007 161.323811 
L 374.203012 162.022281 
L 375.072967 162.84892 
L 376.003614 163.47546 
L 377.399583 164.164743 
L 379.260876 164.81763 
L 381.587491 165.369243 
L 384.37943 165.776002 
L 387.41665 165.980278 
L 388.8 166.00148 
L 388.8 166.00148 
" style="fill:none;stroke:#443983;stroke-width:1.5;"/>
    <path clip-path="url(#pfc6b436a76)" d="M 388.8 77.128644 
L 385.310076 77.232857 
L 381.820153 77.55637 
L 378.562891 78.087367 
L 375.770952 78.763243 
L 373.26132 79.602809 
L 371.175502 80.534103 
L 369.48909 81.511136 
L 367.993405 82.629513 
L 366.798325 83.79363 
L 365.886796 84.957747 
L 365.092626 86.354687 
L 364.572842 87.751627 
L 364.295478 89.148567 
L 364.247055 90.545508 
L 364.430358 91.942448 
L 364.865436 93.339388 
L 365.533843 94.63923 
L 366.279532 95.667622 
L 367.420885 96.831739 
L 368.791105 97.869136 
L 370.419736 98.801846 
L 372.315262 99.625619 
L 374.607644 100.370141 
L 377.399583 101.023561 
L 380.656845 101.536338 
L 384.37943 101.879154 
L 388.334677 102.013474 
L 388.8 102.01495 
L 388.8 102.01495 
" style="fill:none;stroke:#443983;stroke-width:1.5;"/>
    <path clip-path="url(#pfc6b436a76)" d="M 113.305031 198.109903 
L 113.701045 199.506843 
L 114.352624 200.903783 
L 115.189993 202.156614 
L 116.138245 203.232017 
L 117.516609 204.432637 
L 119.14524 205.51719 
L 120.773871 206.366319 
L 122.867825 207.220266 
L 125.427102 208.003353 
L 128.219041 208.618274 
L 131.476303 209.093691 
L 134.966227 209.367587 
L 138.45615 209.426497 
L 141.946074 209.276513 
L 145.435997 208.901707 
L 148.502963 208.354131 
L 151.252536 207.64238 
L 153.579152 206.821605 
L 155.673106 205.843022 
L 157.301737 204.85363 
L 158.771851 203.697663 
L 159.904666 202.533547 
L 160.791661 201.329767 
L 161.511933 199.97249 
L 161.989651 198.575549 
L 162.228434 197.178609 
L 162.238856 195.781669 
L 162.015427 194.384729 
L 161.534967 192.987789 
L 160.905325 191.823672 
L 160.019837 190.659555 
L 158.930368 189.601063 
L 157.76706 188.729234 
L 156.138429 187.787242 
L 154.184576 186.934381 
L 151.950521 186.206014 
L 149.105212 185.537441 
L 145.90132 185.03088 
L 142.178735 184.684508 
L 138.223489 184.546918 
L 134.268242 184.626181 
L 130.545657 184.909928 
L 127.055733 185.396854 
L 124.031133 186.048955 
L 121.471855 186.839655 
L 119.377901 187.729247 
L 117.74927 188.65274 
L 116.320905 189.728261 
L 115.179424 190.892378 
L 114.350049 192.056495 
L 113.765433 193.220612 
L 113.3287 194.62496 
L 113.146995 196.014492 
L 113.195499 197.411433 
L 113.305031 198.109903 
L 113.305031 198.109903 
" style="fill:none;stroke:#443983;stroke-width:1.5;"/>
    <path clip-path="url(#pfc6b436a76)" d="M 122.353689 127.331599 
L 122.635163 128.042357 
L 123.102129 128.72854 
L 124.031133 129.607505 
L 124.961779 130.227128 
L 126.357748 130.914349 
L 128.219041 131.567827 
L 130.545657 132.122396 
L 133.104934 132.505314 
L 136.129534 132.725557 
L 139.154135 132.729554 
L 142.178735 132.517988 
L 144.970674 132.099889 
L 147.336229 131.52242 
L 149.25583 130.82395 
L 150.787213 130.014603 
L 151.857013 129.194186 
L 152.479171 128.495716 
L 152.884591 127.797246 
L 153.113829 126.966946 
L 153.113829 126.294549 
L 152.976996 125.701836 
L 152.638103 125.003366 
L 151.950521 124.167189 
L 151.252536 123.577681 
L 150.089229 122.859066 
L 148.460598 122.144068 
L 146.366644 121.507227 
L 143.807366 121.000976 
L 141.015427 120.684379 
L 137.990827 120.559454 
L 134.966227 120.643671 
L 131.941626 120.949717 
L 129.382349 121.4242 
L 127.288395 122.019612 
L 125.659764 122.682378 
L 124.263794 123.495144 
L 123.311065 124.304896 
L 122.635163 125.221568 
L 122.352528 125.934659 
L 122.263333 126.633129 
L 122.353689 127.331599 
L 122.353689 127.331599 
" style="fill:none;stroke:#443983;stroke-width:1.5;"/>
    <path clip-path="url(#pfc6b436a76)" d="M 196.846886 90.545508 
L 197.030352 91.942448 
L 197.465535 93.339388 
L 198.04995 94.503505 
L 198.948158 95.74807 
L 200.021021 96.831739 
L 201.274774 97.792149 
L 202.903405 98.743487 
L 204.915408 99.625619 
L 207.091313 100.33773 
L 209.883252 101.000616 
L 212.907853 101.492127 
L 216.630438 101.856426 
L 220.585685 102.010427 
L 224.540931 101.9472 
L 228.496178 101.656245 
L 231.986101 101.173371 
L 235.010702 100.526212 
L 237.569979 99.741446 
L 239.663933 98.85948 
L 241.292564 97.945141 
L 242.688534 96.909486 
L 243.719811 95.900445 
L 244.605383 94.736328 
L 245.247811 93.542634 
L 245.71557 92.175271 
L 245.938966 90.778331 
L 245.928493 89.381391 
L 245.689679 87.984451 
L 245.211897 86.58751 
L 244.466646 85.19057 
L 243.604753 84.026453 
L 242.455872 82.847918 
L 240.989758 81.69822 
L 239.431272 80.748181 
L 237.515522 79.835633 
L 235.243363 79.008054 
L 232.684086 78.313801 
L 229.659486 77.735904 
L 226.402224 77.344731 
L 222.9123 77.148099 
L 219.189715 77.170266 
L 215.699792 77.410717 
L 212.44253 77.849357 
L 209.417929 78.482034 
L 206.858652 79.238093 
L 204.747175 80.068456 
L 202.903405 81.008749 
L 201.274774 82.083575 
L 200.076643 83.09516 
L 198.948158 84.328993 
L 198.052529 85.656217 
L 197.401035 87.053157 
L 197.005138 88.450097 
L 196.842698 89.847038 
L 196.846886 90.545508 
L 196.846886 90.545508 
" style="fill:none;stroke:#443983;stroke-width:1.5;"/>
    <path clip-path="url(#pfc6b436a76)" d="M 206.122837 160.858164 
L 206.462165 161.556634 
L 207.091313 162.335254 
L 208.02196 163.105732 
L 209.185268 163.79015 
L 210.581237 164.394676 
L 212.675191 165.038089 
L 215.007147 165.514631 
L 217.793746 165.852256 
L 220.818346 165.997741 
L 223.842946 165.933695 
L 226.867547 165.650517 
L 229.426824 165.201949 
L 231.687138 164.583338 
L 233.425308 163.884868 
L 234.77804 163.105732 
L 235.788698 162.255104 
L 236.406671 161.438999 
L 236.747346 160.625341 
L 236.836841 159.926871 
L 236.746182 159.228401 
L 236.406671 158.416809 
L 235.941348 157.767311 
L 235.243363 157.091249 
L 234.080056 156.299363 
L 232.684086 155.62148 
L 230.822794 154.975436 
L 228.496178 154.426504 
L 225.936901 154.048306 
L 222.9123 153.832406 
L 219.8877 153.832406 
L 216.863099 154.048306 
L 214.071161 154.471518 
L 211.744545 155.043391 
L 209.843945 155.73605 
L 208.487283 156.434723 
L 207.323975 157.292825 
L 206.620542 158.064284 
L 206.12422 158.995577 
L 205.973369 159.694047 
L 206.002733 160.392517 
L 206.122837 160.858164 
L 206.122837 160.858164 
" style="fill:none;stroke:#443983;stroke-width:1.5;"/>
    <path clip-path="url(#pfc6b436a76)" d="M 280.595362 197.411433 
L 280.872836 198.808373 
L 281.392737 200.205313 
L 282.186734 201.602253 
L 283.171647 202.846989 
L 284.334955 203.965728 
L 285.858919 205.094604 
L 287.592217 206.084925 
L 289.686171 207.005275 
L 292.012787 207.780053 
L 294.804726 208.460833 
L 297.829326 208.965829 
L 301.086588 209.293214 
L 304.576511 209.429027 
L 308.299097 209.343889 
L 311.78902 209.039712 
L 315.046282 208.530378 
L 317.838221 207.878683 
L 320.397498 207.049414 
L 322.491452 206.14291 
L 324.352745 205.087144 
L 325.906622 203.930487 
L 327.144684 202.717739 
L 328.07533 201.508821 
L 328.807348 200.205313 
L 329.327062 198.808373 
L 329.604501 197.411433 
L 329.653005 196.014492 
L 329.469786 194.617552 
L 329.034567 193.220612 
L 328.449951 192.056495 
L 327.610007 190.879927 
L 326.446699 189.700292 
L 325.05073 188.65274 
L 323.422099 187.729247 
L 321.560806 186.925376 
L 319.23419 186.173806 
L 316.442252 185.525255 
L 313.18499 185.016503 
L 309.462404 184.677234 
L 305.507158 184.54618 
L 301.551911 184.631874 
L 297.829326 184.922443 
L 294.339402 185.41752 
L 291.547464 186.018716 
L 288.988186 186.797582 
L 286.894232 187.671972 
L 285.265601 188.57722 
L 283.869632 189.601063 
L 282.780163 190.659555 
L 281.894675 191.823672 
L 281.265033 192.987789 
L 280.784573 194.384729 
L 280.561144 195.781669 
L 280.571566 197.178609 
L 280.595362 197.411433 
L 280.595362 197.411433 
" style="fill:none;stroke:#443983;stroke-width:1.5;"/>
    <path clip-path="url(#pfc6b436a76)" d="M 289.673206 126.865953 
L 289.824392 127.564423 
L 290.162926 128.262893 
L 290.849479 129.102109 
L 291.547464 129.695776 
L 292.710771 130.421101 
L 294.339402 131.144339 
L 296.29786 131.755243 
L 298.759972 132.266904 
L 301.551911 132.607227 
L 304.576511 132.750431 
L 307.601112 132.682272 
L 310.625712 132.389262 
L 313.18499 131.928421 
L 315.458572 131.289597 
L 317.158318 130.591127 
L 318.536206 129.779227 
L 319.490881 128.961363 
L 320.171854 128.03007 
L 320.446311 127.331599 
L 320.536667 126.633129 
L 320.397498 125.76824 
L 320.164837 125.221568 
L 319.697294 124.537719 
L 318.768867 123.665575 
L 317.838221 123.051254 
L 316.442252 122.371315 
L 314.580959 121.725831 
L 312.254343 121.179793 
L 309.462404 120.778017 
L 306.437804 120.578318 
L 303.180542 120.600021 
L 300.155942 120.842663 
L 297.364003 121.294617 
L 295.037387 121.903883 
L 293.408756 122.52154 
L 292.012787 123.261844 
L 290.946828 124.072072 
L 290.320433 124.770542 
L 289.913949 125.469013 
L 289.686171 126.294549 
L 289.673206 126.865953 
L 289.673206 126.865953 
" style="fill:none;stroke:#443983;stroke-width:1.5;"/>
   </g>
   <g id="LineCollection_3">
    <path clip-path="url(#pfc6b436a76)" d="M 54 171.766809 
L 59.816539 171.652544 
L 64.970901 171.335216 
L 69.355664 170.842132 
L 72.845587 170.223502 
L 75.404864 169.56745 
L 77.632849 168.774159 
L 79.360111 167.930866 
L 80.756081 167.013897 
L 81.920752 165.980278 
L 82.866549 164.816161 
L 83.548019 163.612537 
L 84.041932 162.255104 
L 84.301095 160.858164 
L 84.336867 159.461224 
L 84.154223 158.064284 
L 83.73532 156.667344 
L 83.082696 155.350229 
L 82.369751 154.33911 
L 81.454065 153.365925 
L 80.290757 152.429542 
L 78.837907 151.545229 
L 77.033495 150.722651 
L 74.939541 150.010992 
L 72.380264 149.371521 
L 69.123002 148.796833 
L 65.167755 148.335616 
L 60.514524 148.017417 
L 55.163308 147.871637 
L 54 147.866955 
L 54 147.866955 
" style="fill:none;stroke:#31688e;stroke-width:1.5;"/>
    <path clip-path="url(#pfc6b436a76)" d="M 54 106.422455 
L 60.049201 106.313634 
L 65.633079 105.993448 
L 70.053648 105.532323 
L 73.776233 104.924842 
L 76.568172 104.262467 
L 78.894788 103.496708 
L 80.78551 102.652323 
L 82.384712 101.694446 
L 83.780681 100.568693 
L 84.711327 99.579955 
L 85.672869 98.228679 
L 86.395115 96.831739 
L 86.985706 95.201975 
L 87.411848 93.339388 
L 87.642524 91.243978 
L 87.648134 89.148567 
L 87.43843 87.053157 
L 86.996951 84.957747 
L 86.339958 83.012329 
L 85.603606 81.465396 
L 84.711327 80.046624 
L 83.548019 78.631237 
L 82.15205 77.330387 
L 80.756081 76.309859 
L 78.894788 75.239793 
L 76.800834 74.307709 
L 74.474218 73.505216 
L 71.682279 72.770453 
L 68.425017 72.138979 
L 64.469771 71.609426 
L 60.049201 71.251139 
L 55.163308 71.087206 
L 54 71.081034 
L 54 71.081034 
" style="fill:none;stroke:#31688e;stroke-width:1.5;"/>
    <path clip-path="url(#pfc6b436a76)" d="M 388.8 147.866955 
L 383.216122 147.976755 
L 378.097568 148.294045 
L 373.909659 148.763325 
L 370.419736 149.371521 
L 367.627797 150.080167 
L 365.457559 150.846759 
L 363.67255 151.702867 
L 362.276581 152.597286 
L 361.060652 153.64064 
L 360.075367 154.804757 
L 359.375682 155.968873 
L 358.823569 157.365814 
L 358.526528 158.762754 
L 358.453943 160.159694 
L 358.599369 161.556634 
L 358.97949 162.953574 
L 359.506331 164.117691 
L 360.273169 165.281808 
L 361.113273 166.215455 
L 362.276581 167.186874 
L 363.70027 168.075688 
L 365.533843 168.923285 
L 367.627797 169.636688 
L 370.187074 170.273094 
L 373.444336 170.842132 
L 377.399583 171.297242 
L 382.052814 171.611972 
L 387.636692 171.762326 
L 388.8 171.766809 
L 388.8 171.766809 
" style="fill:none;stroke:#31688e;stroke-width:1.5;"/>
    <path clip-path="url(#pfc6b436a76)" d="M 388.8 71.081034 
L 383.914107 71.191362 
L 379.260876 71.515491 
L 375.072967 72.028515 
L 371.583044 72.667114 
L 368.558443 73.435502 
L 365.999166 74.307709 
L 363.905212 75.239793 
L 361.993078 76.343282 
L 360.415288 77.524492 
L 359.019319 78.88508 
L 358.073008 80.068456 
L 357.071322 81.69822 
L 356.334696 83.327983 
L 355.741397 85.19057 
L 355.327323 87.285981 
L 355.141903 89.381391 
L 355.171551 91.476801 
L 355.429085 93.572211 
L 355.88486 95.434798 
L 356.509636 97.064562 
L 357.271897 98.461502 
L 358.126602 99.625619 
L 359.261149 100.789736 
L 360.64795 101.851874 
L 362.043919 102.667478 
L 363.905212 103.496708 
L 366.231828 104.262467 
L 368.791105 104.877645 
L 372.114598 105.446203 
L 376.236275 105.914525 
L 381.35483 106.255628 
L 387.171369 106.414744 
L 388.8 106.422455 
L 388.8 106.422455 
" style="fill:none;stroke:#31688e;stroke-width:1.5;"/>
    <path clip-path="url(#pfc6b436a76)" d="M 104.227319 199.274019 
L 104.641446 201.36943 
L 105.234666 203.232017 
L 105.971323 204.86178 
L 106.814177 206.264051 
L 107.977484 207.739421 
L 109.140792 208.884457 
L 110.548926 209.983894 
L 112.165393 210.982792 
L 114.259347 211.992081 
L 116.585962 212.85409 
L 119.377901 213.639213 
L 122.635163 214.312927 
L 126.536241 214.873185 
L 130.545657 215.239507 
L 135.198888 215.450355 
L 140.084781 215.452963 
L 144.970674 215.231453 
L 149.391244 214.810613 
L 153.346491 214.208138 
L 156.671064 213.476245 
L 159.395691 212.659185 
L 161.722307 211.737715 
L 163.761164 210.682364 
L 165.212231 209.725762 
L 166.6082 208.56781 
L 167.894381 207.190014 
L 168.934816 205.72694 
L 169.772706 204.16331 
L 170.415631 202.533547 
L 170.923912 200.67096 
L 171.261432 198.548582 
L 171.372179 196.480139 
L 171.261432 194.311113 
L 170.97902 192.522142 
L 170.460986 190.659555 
L 169.76304 189.029791 
L 168.914144 187.632851 
L 167.958784 186.468734 
L 166.680511 185.304618 
L 165.321198 184.373324 
L 163.5836 183.473709 
L 161.712141 182.743561 
L 159.16303 182.00817 
L 156.138429 181.387184 
L 152.415844 180.863509 
L 147.762613 180.451329 
L 142.411397 180.202913 
L 136.362196 180.142745 
L 130.312995 180.301686 
L 124.961779 180.661286 
L 120.541209 181.182567 
L 117.051286 181.818636 
L 114.259347 182.556837 
L 112.165393 183.321899 
L 110.3041 184.241246 
L 108.908131 185.15999 
L 107.667184 186.235911 
L 106.581515 187.501129 
L 105.760115 188.796968 
L 105.1118 190.193908 
L 104.585523 191.823672 
L 104.215894 193.686259 
L 104.03749 195.781669 
L 104.079672 197.877079 
L 104.227319 199.274019 
L 104.227319 199.274019 
" style="fill:none;stroke:#31688e;stroke-width:1.5;"/>
    <path clip-path="url(#pfc6b436a76)" d="M 107.499619 128.262893 
L 107.876966 129.659833 
L 108.442808 130.908083 
L 109.14675 131.988067 
L 110.200609 133.152184 
L 111.467408 134.170804 
L 112.863377 135.015515 
L 114.72467 135.860189 
L 116.818624 136.56602 
L 119.377901 137.200763 
L 122.635163 137.771622 
L 126.59041 138.229707 
L 131.243641 138.545325 
L 136.594858 138.68882 
L 142.178735 138.622873 
L 147.29729 138.354851 
L 151.71786 137.913832 
L 155.320419 137.343004 
L 158.307668 136.644534 
L 160.558999 135.905395 
L 162.537858 135.014771 
L 164.057879 134.083477 
L 165.212231 133.140076 
L 166.253126 131.988067 
L 167.003673 130.82395 
L 167.538846 129.614581 
L 167.900288 128.262893 
L 168.045972 126.865953 
L 167.973904 125.469013 
L 167.675301 124.072072 
L 167.229957 122.907955 
L 166.566505 121.743839 
L 165.620647 120.579722 
L 164.514246 119.590551 
L 163.118277 118.662179 
L 161.33287 117.785841 
L 159.395691 117.081722 
L 156.785036 116.388901 
L 153.579152 115.79554 
L 149.623905 115.311716 
L 144.970674 114.973785 
L 139.386796 114.802625 
L 133.570257 114.850219 
L 128.219041 115.108761 
L 123.56581 115.554618 
L 119.843224 116.134378 
L 117.051286 116.775442 
L 114.647339 117.553018 
L 112.863377 118.346111 
L 111.447478 119.182782 
L 110.259088 120.114075 
L 109.173103 121.278192 
L 108.406356 122.442309 
L 107.87954 123.606426 
L 107.499319 125.003366 
L 107.353931 126.400306 
L 107.426589 127.797246 
L 107.499619 128.262893 
L 107.499619 128.262893 
" style="fill:none;stroke:#31688e;stroke-width:1.5;"/>
    <path clip-path="url(#pfc6b436a76)" d="M 187.771482 91.476801 
L 188.029024 93.572211 
L 188.484781 95.434798 
L 189.10965 97.064562 
L 189.874357 98.465469 
L 190.805003 99.717357 
L 191.968311 100.883278 
L 193.364281 101.92831 
L 194.76025 102.726629 
L 196.734002 103.583616 
L 198.948158 104.29489 
L 201.740097 104.947992 
L 204.997359 105.485485 
L 209.185268 105.945101 
L 214.303822 106.271385 
L 220.120361 106.417697 
L 226.169562 106.355436 
L 231.75344 106.088944 
L 236.406671 105.662846 
L 240.361918 105.080188 
L 243.386518 104.419616 
L 245.713134 103.711685 
L 247.807088 102.842066 
L 249.435719 101.92831 
L 250.831689 100.883278 
L 251.871962 99.858442 
L 252.775363 98.694325 
L 253.623628 97.205859 
L 254.240306 95.667622 
L 254.726679 93.805035 
L 254.991966 91.942448 
L 255.070142 89.847038 
L 254.932725 87.751627 
L 254.554274 85.580755 
L 254.036146 83.79363 
L 253.363098 82.163866 
L 252.44499 80.534103 
L 251.400542 79.137163 
L 250.133704 77.831387 
L 248.737735 76.707752 
L 247.056392 75.644812 
L 245.015149 74.642367 
L 242.688534 73.763153 
L 239.896595 72.963476 
L 236.639333 72.27783 
L 232.916748 71.728246 
L 228.496178 71.31652 
L 223.842946 71.108325 
L 218.957054 71.108325 
L 214.071161 71.332629 
L 209.650591 71.756529 
L 205.928006 72.319741 
L 202.670744 73.021657 
L 199.878805 73.84106 
L 197.552189 74.744106 
L 195.690896 75.674346 
L 193.922367 76.808929 
L 192.512316 77.973046 
L 191.270327 79.291232 
L 190.33968 80.557725 
L 189.409034 82.222442 
L 188.684321 84.026453 
L 188.176075 85.88904 
L 187.841329 87.984451 
L 187.727797 90.079861 
L 187.771482 91.476801 
L 187.771482 91.476801 
" style="fill:none;stroke:#31688e;stroke-width:1.5;"/>
    <path clip-path="url(#pfc6b436a76)" d="M 191.245593 161.789458 
L 191.668297 163.186398 
L 192.238558 164.350515 
L 193.061475 165.514631 
L 194.062265 166.53735 
L 195.225573 167.429406 
L 196.749067 168.308512 
L 198.482835 169.058082 
L 200.809451 169.800328 
L 203.60139 170.436702 
L 207.091313 170.983403 
L 211.279222 171.40403 
L 216.397776 171.682742 
L 221.981654 171.765689 
L 227.798193 171.627959 
L 232.916748 171.286617 
L 237.104656 170.790833 
L 240.484946 170.171099 
L 243.153857 169.45985 
L 245.247811 168.681798 
L 246.91393 167.842865 
L 248.289227 166.911572 
L 249.435719 165.857395 
L 250.266452 164.816161 
L 250.929945 163.652045 
L 251.44187 162.255104 
L 251.701088 160.858164 
L 251.736933 159.461224 
L 251.529673 157.954789 
L 251.135293 156.667344 
L 250.573912 155.503227 
L 249.769647 154.33911 
L 248.737735 153.260031 
L 247.574427 152.349173 
L 246.178457 151.514174 
L 244.317165 150.67713 
L 242.223211 149.977079 
L 239.663933 149.34703 
L 236.406671 148.779975 
L 232.451425 148.325007 
L 227.798193 148.01196 
L 222.446977 147.870747 
L 216.863099 147.938984 
L 211.744545 148.209524 
L 207.323975 148.653631 
L 203.779489 149.216996 
L 200.792176 149.915466 
L 198.482835 150.67713 
L 196.562097 151.545229 
L 194.992912 152.512118 
L 193.829604 153.475715 
L 192.846832 154.571933 
L 192.096346 155.73605 
L 191.496574 157.13299 
L 191.16002 158.52993 
L 191.050921 159.926871 
L 191.159618 161.323811 
L 191.245593 161.789458 
L 191.245593 161.789458 
" style="fill:none;stroke:#31688e;stroke-width:1.5;"/>
    <path clip-path="url(#pfc6b436a76)" d="M 271.518064 198.342726 
L 271.827215 200.438136 
L 272.308635 202.300723 
L 273.027294 204.16331 
L 273.906145 205.793074 
L 274.905619 207.190014 
L 275.968656 208.354131 
L 277.355108 209.551404 
L 279.038836 210.682364 
L 280.845031 211.630793 
L 283.080397 212.544951 
L 285.498263 213.307517 
L 288.522863 214.027419 
L 292.117551 214.640362 
L 295.968033 215.082239 
L 300.621265 215.38647 
L 305.507158 215.47821 
L 310.393051 215.349164 
L 315.046282 215.004753 
L 319.23419 214.468062 
L 322.724114 213.802747 
L 325.748714 213.001338 
L 328.331303 212.079305 
L 330.401946 211.108811 
L 332.263238 209.975444 
L 333.732364 208.819777 
L 335.055177 207.475793 
L 335.989482 206.25872 
L 336.948482 204.628957 
L 337.652761 202.999193 
L 338.216873 201.136606 
L 338.604077 199.041196 
L 338.765482 196.945786 
L 338.711609 194.850376 
L 338.42666 192.754965 
L 337.940302 190.892378 
L 337.279749 189.262615 
L 336.451147 187.830105 
L 335.5205 186.644413 
L 334.357192 185.528135 
L 332.961223 184.520718 
L 331.332592 183.634244 
L 329.4713 182.869022 
L 327.144684 182.155607 
L 324.352745 181.533583 
L 320.862821 180.989951 
L 316.442252 180.543565 
L 311.091035 180.244235 
L 305.041835 180.137555 
L 298.992634 180.24852 
L 293.408756 180.571243 
L 288.988186 181.035364 
L 285.265601 181.646844 
L 282.473662 182.313967 
L 280.147047 183.085817 
L 278.285754 183.922642 
L 276.657123 184.906286 
L 275.306787 186.003088 
L 274.236305 187.167204 
L 273.290064 188.564145 
L 272.605707 189.961085 
L 272.047891 191.590848 
L 271.650462 193.453435 
L 271.446152 195.548846 
L 271.464451 197.644256 
L 271.518064 198.342726 
L 271.518064 198.342726 
" style="fill:none;stroke:#31688e;stroke-width:1.5;"/>
    <path clip-path="url(#pfc6b436a76)" d="M 274.778134 127.331599 
L 274.99829 128.72854 
L 275.460161 130.12548 
L 276.065601 131.289597 
L 276.926504 132.453713 
L 278.053092 133.55197 
L 279.2164 134.404045 
L 280.845031 135.307473 
L 282.706324 136.077701 
L 285.03294 136.790611 
L 287.824878 137.40838 
L 291.314802 137.943219 
L 295.50271 138.354851 
L 300.621265 138.622873 
L 306.205142 138.68882 
L 311.78902 138.534194 
L 316.674913 138.186092 
L 320.862821 137.666619 
L 324.120083 137.047265 
L 326.679361 136.353339 
L 328.773315 135.572592 
L 330.401946 134.75865 
L 331.797915 133.831829 
L 332.961223 132.793956 
L 333.891869 131.658464 
L 334.589854 130.455588 
L 335.076456 129.194186 
L 335.373411 127.797246 
L 335.446069 126.400306 
L 335.287839 124.938406 
L 334.92046 123.606426 
L 334.357192 122.37748 
L 333.626897 121.278192 
L 332.728562 120.289226 
L 331.565254 119.331641 
L 330.169284 118.46804 
L 328.307992 117.613678 
L 326.214038 116.906286 
L 323.65476 116.274701 
L 320.397498 115.709502 
L 316.442252 115.257499 
L 311.556359 114.934641 
L 305.972481 114.795712 
L 300.155942 114.875286 
L 294.804726 115.169515 
L 290.384156 115.629515 
L 286.894232 116.203053 
L 284.102293 116.872569 
L 281.775678 117.659915 
L 279.914385 118.531506 
L 278.517513 119.415605 
L 277.355108 120.402164 
L 276.397364 121.511015 
L 275.683662 122.675132 
L 275.124699 124.072072 
L 274.826096 125.469013 
L 274.754028 126.865953 
L 274.778134 127.331599 
L 274.778134 127.331599 
" style="fill:none;stroke:#31688e;stroke-width:1.5;"/>
   </g>
   <g id="LineCollection_4">
    <path clip-path="url(#pfc6b436a76)" d="M 54 176.0758 
L 95.85 175.991683 
L 95.879083 143.28 
L 179.404587 143.28 
L 179.55 143.163588 
L 179.55 110.568317 
L 179.404587 110.4842 
L 95.879083 110.4842 
L 95.85 109.869847 
L 95.879083 59.58 
L 179.404587 59.58 
L 179.55 59.812823 
L 179.637248 110.4842 
L 263.162752 110.4842 
L 263.25 110.335494 
L 263.25 59.812823 
L 263.395413 59.58 
L 346.920917 59.58 
L 346.95 60.511293 
L 346.920917 110.4842 
L 263.25 110.568317 
L 263.25 143.163588 
L 263.395413 143.28 
L 346.920917 143.28 
L 346.95 143.629235 
L 346.95 175.991683 
L 347.38624 176.0758 
L 388.8 176.0758 
L 388.8 176.0758 
" style="fill:none;stroke:#21918c;stroke-width:1.5;"/>
    <path clip-path="url(#pfc6b436a76)" d="M 54 110.4842 
L 95.85 110.568317 
L 95.85 143.163588 
L 95.646421 143.28 
L 54 143.28 
L 54 143.28 
" style="fill:none;stroke:#21918c;stroke-width:1.5;"/>
    <path clip-path="url(#pfc6b436a76)" d="M 388.8 226.98 
L 347.153579 226.98 
L 346.95 226.747177 
L 346.920917 176.0758 
L 263.25 175.991683 
L 263.162752 143.28 
L 179.637248 143.28 
L 179.55 143.396412 
L 179.55 175.991683 
L 179.404587 176.0758 
L 95.879083 176.0758 
L 95.85 176.690153 
L 95.85 226.747177 
L 95.646421 226.98 
L 54 226.98 
L 54 226.98 
" style="fill:none;stroke:#21918c;stroke-width:1.5;"/>
    <path clip-path="url(#pfc6b436a76)" d="M 388.8 143.28 
L 347.153579 143.28 
L 346.95 143.163588 
L 346.95 110.568317 
L 347.38624 110.4842 
L 388.8 110.4842 
L 388.8 110.4842 
" style="fill:none;stroke:#21918c;stroke-width:1.5;"/>
    <path clip-path="url(#pfc6b436a76)" d="M 179.55 226.747177 
L 179.637248 176.0758 
L 263.162752 176.0758 
L 263.25 176.224506 
L 263.162752 226.98 
L 179.637248 226.98 
L 179.55 226.747177 
L 179.55 226.747177 
" style="fill:none;stroke:#21918c;stroke-width:1.5;"/>
   </g>
   <g id="LineCollection_5">
    <path clip-path="url(#pfc6b436a76)" d="M 54 180.137545 
L 60.049201 180.246366 
L 65.633079 180.566552 
L 70.053648 181.027677 
L 73.776233 181.635158 
L 76.568172 182.297533 
L 78.894788 183.063292 
L 80.78551 183.907677 
L 82.384712 184.865554 
L 83.780681 185.991307 
L 84.711327 186.980045 
L 85.672869 188.331321 
L 86.395115 189.728261 
L 86.985706 191.358025 
L 87.411848 193.220612 
L 87.642524 195.316022 
L 87.648134 197.411433 
L 87.43843 199.506843 
L 86.996951 201.602253 
L 86.339958 203.547671 
L 85.603606 205.094604 
L 84.711327 206.513376 
L 83.548019 207.928763 
L 82.15205 209.229613 
L 80.756081 210.250141 
L 78.894788 211.320207 
L 76.800834 212.252291 
L 74.474218 213.054784 
L 71.682279 213.789547 
L 68.425017 214.421021 
L 64.469771 214.950574 
L 60.049201 215.308861 
L 55.163308 215.472794 
L 54 215.478966 
L 54 215.478966 
" style="fill:none;stroke:#35b779;stroke-width:1.5;"/>
    <path clip-path="url(#pfc6b436a76)" d="M 54 114.793191 
L 59.816539 114.907456 
L 64.970901 115.224784 
L 69.355664 115.717868 
L 72.845587 116.336498 
L 75.404864 116.99255 
L 77.632849 117.785841 
L 79.360111 118.629134 
L 80.756081 119.546103 
L 81.920752 120.579722 
L 82.866549 121.743839 
L 83.548019 122.947463 
L 84.041932 124.304896 
L 84.301095 125.701836 
L 84.336867 127.098776 
L 84.154223 128.495716 
L 83.73532 129.892656 
L 83.082696 131.209771 
L 82.369751 132.22089 
L 81.454065 133.194075 
L 80.290757 134.130458 
L 78.837907 135.014771 
L 77.033495 135.837349 
L 74.939541 136.549008 
L 72.380264 137.188479 
L 69.123002 137.763167 
L 65.167755 138.224384 
L 60.514524 138.542583 
L 55.163308 138.688363 
L 54 138.693045 
L 54 138.693045 
" style="fill:none;stroke:#35b779;stroke-width:1.5;"/>
    <path clip-path="url(#pfc6b436a76)" d="M 388.8 215.478966 
L 383.914107 215.368638 
L 379.260876 215.044509 
L 375.072967 214.531485 
L 371.583044 213.892886 
L 368.558443 213.124498 
L 365.999166 212.252291 
L 363.905212 211.320207 
L 361.993078 210.216718 
L 360.415288 209.035508 
L 359.019319 207.67492 
L 358.073008 206.491544 
L 357.071322 204.86178 
L 356.334696 203.232017 
L 355.741397 201.36943 
L 355.327323 199.274019 
L 355.141903 197.178609 
L 355.171551 195.083199 
L 355.429085 192.987789 
L 355.88486 191.125202 
L 356.509636 189.495438 
L 357.271897 188.098498 
L 358.126602 186.934381 
L 359.261149 185.770264 
L 360.64795 184.708126 
L 362.043919 183.892522 
L 363.905212 183.063292 
L 366.231828 182.297533 
L 368.791105 181.682355 
L 372.114598 181.113797 
L 376.236275 180.645475 
L 381.35483 180.304372 
L 387.171369 180.145256 
L 388.8 180.137545 
L 388.8 180.137545 
" style="fill:none;stroke:#35b779;stroke-width:1.5;"/>
    <path clip-path="url(#pfc6b436a76)" d="M 388.8 138.693045 
L 383.216122 138.583245 
L 378.097568 138.265955 
L 373.909659 137.796675 
L 370.419736 137.188479 
L 367.627797 136.479833 
L 365.457559 135.713241 
L 363.67255 134.857133 
L 362.276581 133.962714 
L 361.060652 132.91936 
L 360.075367 131.755243 
L 359.375682 130.591127 
L 358.823569 129.194186 
L 358.526528 127.797246 
L 358.453943 126.400306 
L 358.599369 125.003366 
L 358.97949 123.606426 
L 359.506331 122.442309 
L 360.273169 121.278192 
L 361.113273 120.344545 
L 362.276581 119.373126 
L 363.70027 118.484312 
L 365.533843 117.636715 
L 367.627797 116.923312 
L 370.187074 116.286906 
L 373.444336 115.717868 
L 377.399583 115.262758 
L 382.052814 114.948028 
L 387.636692 114.797674 
L 388.8 114.793191 
L 388.8 114.793191 
" style="fill:none;stroke:#35b779;stroke-width:1.5;"/>
    <path clip-path="url(#pfc6b436a76)" d="M 104.250386 93.106565 
L 104.046105 91.011154 
L 104.064429 88.915744 
L 104.298606 86.820334 
L 104.76807 84.724924 
L 105.422025 82.862337 
L 106.227126 81.232573 
L 107.142835 79.835633 
L 108.336293 78.438693 
L 109.616486 77.274576 
L 111.255808 76.110459 
L 113.096039 75.095481 
L 115.189993 74.195663 
L 117.74927 73.350849 
L 120.773871 72.604996 
L 124.263794 71.984902 
L 128.219041 71.509978 
L 132.872272 71.188714 
L 137.758165 71.08105 
L 142.644058 71.194043 
L 147.29729 71.521045 
L 151.485198 72.037405 
L 154.975122 72.679753 
L 157.999722 73.452762 
L 160.558999 74.330562 
L 162.652953 75.269309 
L 164.514246 76.348047 
L 166.142877 77.574383 
L 167.497864 78.904339 
L 168.589378 80.30128 
L 169.428729 81.69822 
L 170.165321 83.327983 
L 170.758584 85.19057 
L 171.172637 87.285981 
L 171.358091 89.381391 
L 171.328463 91.476801 
L 171.070948 93.572211 
L 170.615168 95.434798 
L 169.990333 97.064562 
L 169.167477 98.554912 
L 168.236831 99.784514 
L 167.238765 100.789736 
L 165.910215 101.81314 
L 164.281584 102.755842 
L 162.366052 103.583616 
L 160.093676 104.310854 
L 157.193435 104.980556 
L 153.811814 105.524636 
L 149.623905 105.969676 
L 144.505351 106.283868 
L 138.688812 106.419615 
L 132.639611 106.34686 
L 127.055733 106.068502 
L 122.402502 105.628036 
L 118.679917 105.069569 
L 115.655316 104.404393 
L 113.3287 103.690978 
L 111.234746 102.813558 
L 109.606115 101.890262 
L 108.210146 100.832724 
L 107.228002 99.858442 
L 106.32458 98.694325 
L 105.520251 97.297385 
L 104.859698 95.667622 
L 104.37334 93.805035 
L 104.250386 93.106565 
L 104.250386 93.106565 
" style="fill:none;stroke:#35b779;stroke-width:1.5;"/>
    <path clip-path="url(#pfc6b436a76)" d="M 107.499319 161.556634 
L 107.353931 160.159694 
L 107.426589 158.762754 
L 107.744823 157.297565 
L 108.275658 155.968873 
L 108.975344 154.804757 
L 109.960696 153.64064 
L 111.026413 152.709346 
L 112.438378 151.778053 
L 114.259347 150.887862 
L 116.304681 150.148289 
L 118.679917 149.512735 
L 121.704517 148.930151 
L 125.427102 148.443882 
L 130.080334 148.074979 
L 135.43155 147.884799 
L 141.015427 147.905203 
L 146.366644 148.139489 
L 151.019875 148.560193 
L 154.74246 149.108946 
L 157.76706 149.769389 
L 160.093676 150.482299 
L 162.079632 151.312406 
L 163.718713 152.2437 
L 164.979569 153.207759 
L 166.069664 154.33911 
L 166.873899 155.503227 
L 167.435276 156.667344 
L 167.854228 158.064284 
L 168.036922 159.461224 
L 168.001173 160.858164 
L 167.74193 162.255104 
L 167.229957 163.652045 
L 166.566505 164.816161 
L 165.620647 165.980278 
L 164.514246 166.969449 
L 163.118277 167.897821 
L 161.33287 168.774159 
L 159.395691 169.478278 
L 156.785036 170.171099 
L 153.579152 170.76446 
L 149.623905 171.248284 
L 144.970674 171.586215 
L 139.386796 171.757375 
L 133.570257 171.709781 
L 128.219041 171.451239 
L 123.56581 171.005382 
L 119.843224 170.425622 
L 117.051286 169.784558 
L 114.647339 169.006982 
L 112.863377 168.213889 
L 111.447478 167.377218 
L 110.259088 166.445925 
L 109.173103 165.281808 
L 108.406356 164.117691 
L 107.87954 162.953574 
L 107.499319 161.556634 
L 107.499319 161.556634 
" style="fill:none;stroke:#35b779;stroke-width:1.5;"/>
    <path clip-path="url(#pfc6b436a76)" d="M 187.779613 197.877079 
L 187.737518 195.781669 
L 187.915928 193.686259 
L 188.285488 191.823672 
L 188.811811 190.193908 
L 189.460085 188.796968 
L 190.356205 187.400028 
L 191.367194 186.235911 
L 192.666296 185.116303 
L 194.062265 184.207877 
L 195.690896 183.396746 
L 197.784851 182.612461 
L 200.344128 181.911223 
L 203.368728 181.318842 
L 207.091313 180.818257 
L 211.744545 180.424886 
L 217.328423 180.186152 
L 223.377623 180.148923 
L 229.426824 180.332552 
L 234.545379 180.699425 
L 238.733287 181.208818 
L 242.019895 181.812267 
L 244.782488 182.538557 
L 246.876442 183.297335 
L 248.737735 184.207877 
L 250.133704 185.116303 
L 251.432806 186.235911 
L 252.46032 187.422241 
L 253.339915 188.796968 
L 253.988189 190.193908 
L 254.554274 191.981276 
L 254.884072 193.686259 
L 255.062482 195.781669 
L 255.019597 197.887403 
L 254.761486 199.97249 
L 254.263432 202.0679 
L 253.577628 203.930487 
L 252.692981 205.631977 
L 251.762335 206.979581 
L 250.531256 208.354131 
L 249.188199 209.518248 
L 247.574427 210.614856 
L 245.691565 211.613658 
L 243.419712 212.544951 
L 241.059903 213.291357 
L 238.035302 214.015536 
L 234.545379 214.617345 
L 230.35747 215.097803 
L 225.704239 215.393615 
L 220.818346 215.477424 
L 215.90442 215.338832 
L 211.279222 214.987081 
L 207.323975 214.477295 
L 203.834051 213.815864 
L 200.781488 213.010598 
L 198.250174 212.112762 
L 196.15622 211.139715 
L 194.294927 210.015715 
L 192.898958 208.935269 
L 191.602185 207.655661 
L 190.510598 206.25872 
L 189.551565 204.628957 
L 188.847278 202.999193 
L 188.283091 201.136606 
L 187.895944 199.041196 
L 187.779613 197.877079 
L 187.779613 197.877079 
" style="fill:none;stroke:#35b779;stroke-width:1.5;"/>
    <path clip-path="url(#pfc6b436a76)" d="M 191.245708 128.495716 
L 191.063067 127.098776 
L 191.098912 125.701836 
L 191.35813 124.304896 
L 191.870055 122.907955 
L 192.533548 121.743839 
L 193.479391 120.579722 
L 194.527589 119.635369 
L 195.923558 118.69548 
L 197.552189 117.878202 
L 199.413482 117.17554 
L 201.740097 116.522421 
L 204.764698 115.915641 
L 208.487283 115.412528 
L 213.140514 115.028891 
L 218.49173 114.82133 
L 224.30827 114.82133 
L 229.892147 115.0431 
L 234.721584 115.457608 
L 238.500625 115.995563 
L 241.525226 116.637123 
L 244.084503 117.416201 
L 246.050933 118.251488 
L 247.652425 119.182782 
L 248.970396 120.234384 
L 249.926909 121.278192 
L 250.693588 122.442309 
L 251.220471 123.606426 
L 251.600605 125.003366 
L 251.746141 126.400306 
L 251.673409 127.797246 
L 251.376387 129.194186 
L 250.82443 130.591127 
L 250.124748 131.755243 
L 249.139333 132.91936 
L 248.03975 133.876147 
L 246.64378 134.792073 
L 245.015149 135.597745 
L 242.921195 136.371936 
L 240.59458 137.006704 
L 237.569979 137.601668 
L 233.847394 138.097741 
L 229.194163 138.474934 
L 223.842946 138.67234 
L 218.259069 138.65874 
L 212.907853 138.431936 
L 208.254621 138.020295 
L 204.532036 137.482374 
L 201.507436 136.835906 
L 198.948158 136.056766 
L 197.020332 135.247594 
L 195.381271 134.3163 
L 194.062265 133.299969 
L 193.030353 132.22089 
L 192.200973 131.01221 
L 191.664707 129.892656 
L 191.245708 128.495716 
L 191.245708 128.495716 
" style="fill:none;stroke:#35b779;stroke-width:1.5;"/>
    <path clip-path="url(#pfc6b436a76)" d="M 271.530549 92.175271 
L 271.427821 90.079861 
L 271.54127 87.984451 
L 271.876088 85.88904 
L 272.384369 84.026453 
L 273.136904 82.163866 
L 273.906145 80.766926 
L 274.905619 79.369986 
L 275.968656 78.205869 
L 277.355108 77.008596 
L 279.038836 75.877636 
L 280.845031 74.929207 
L 283.080397 74.015049 
L 285.498263 73.252483 
L 288.522863 72.532581 
L 292.117551 71.919638 
L 295.968033 71.477761 
L 300.621265 71.17353 
L 305.507158 71.08179 
L 310.393051 71.210836 
L 315.046282 71.555247 
L 319.23419 72.091938 
L 322.724114 72.757253 
L 325.748714 73.558662 
L 328.331303 74.480695 
L 330.401946 75.451189 
L 332.263238 76.584556 
L 333.732364 77.740223 
L 335.055177 79.084207 
L 335.989482 80.30128 
L 336.948482 81.931043 
L 337.652761 83.560807 
L 338.216873 85.423394 
L 338.604077 87.518804 
L 338.765482 89.614214 
L 338.711609 91.709624 
L 338.42666 93.805035 
L 337.940302 95.667622 
L 337.279749 97.297385 
L 336.451147 98.729895 
L 335.5205 99.915587 
L 334.357192 101.031865 
L 332.961223 102.039282 
L 331.332592 102.925756 
L 329.4713 103.690978 
L 327.144684 104.404393 
L 324.352745 105.026417 
L 320.862821 105.570049 
L 316.442252 106.016435 
L 311.091035 106.315765 
L 305.041835 106.422445 
L 298.992634 106.31148 
L 293.408756 105.988757 
L 288.988186 105.524636 
L 285.265601 104.913156 
L 282.473662 104.246033 
L 280.147047 103.474183 
L 278.285754 102.637358 
L 276.657123 101.653714 
L 275.306787 100.556912 
L 274.236305 99.392796 
L 273.290064 97.995855 
L 272.605707 96.598915 
L 272.047891 94.969152 
L 271.650462 93.106565 
L 271.530549 92.175271 
L 271.530549 92.175271 
" style="fill:none;stroke:#35b779;stroke-width:1.5;"/>
    <path clip-path="url(#pfc6b436a76)" d="M 274.777785 160.625341 
L 274.778134 159.228401 
L 274.99829 157.83146 
L 275.460161 156.43452 
L 276.065601 155.270403 
L 276.926504 154.106287 
L 278.053092 153.00803 
L 279.2164 152.155955 
L 280.845031 151.252527 
L 282.706324 150.482299 
L 285.03294 149.769389 
L 287.824878 149.15162 
L 291.314802 148.616781 
L 295.50271 148.205149 
L 300.621265 147.937127 
L 306.205142 147.87118 
L 311.78902 148.025806 
L 316.674913 148.373908 
L 320.862821 148.893381 
L 324.120083 149.512735 
L 326.679361 150.206661 
L 328.773315 150.987408 
L 330.401946 151.80135 
L 331.797915 152.728171 
L 332.961223 153.766044 
L 333.891869 154.901536 
L 334.589854 156.104412 
L 335.076456 157.365814 
L 335.373411 158.762754 
L 335.446069 160.159694 
L 335.287839 161.621594 
L 334.92046 162.953574 
L 334.357192 164.18252 
L 333.626897 165.281808 
L 332.728562 166.270774 
L 331.565254 167.228359 
L 330.169284 168.09196 
L 328.307992 168.946322 
L 326.214038 169.653714 
L 323.65476 170.285299 
L 320.397498 170.850498 
L 316.442252 171.302501 
L 311.556359 171.625359 
L 305.972481 171.764288 
L 300.155942 171.684714 
L 294.804726 171.390485 
L 290.384156 170.930485 
L 286.894232 170.356947 
L 284.102293 169.687431 
L 281.775678 168.900085 
L 279.914385 168.028494 
L 278.517513 167.144395 
L 277.355108 166.157836 
L 276.397364 165.048985 
L 275.683662 163.884868 
L 275.124699 162.487928 
L 274.826096 161.090987 
L 274.777785 160.625341 
L 274.777785 160.625341 
" style="fill:none;stroke:#35b779;stroke-width:1.5;"/>
   </g>
   <g id="LineCollection_6">
    <path clip-path="url(#pfc6b436a76)" d="M 54 184.54505 
L 57.955247 184.653344 
L 61.677832 184.968048 
L 64.935094 185.449064 
L 67.727033 186.064219 
L 70.28631 186.860887 
L 72.147603 187.643601 
L 73.813955 188.564145 
L 75.172203 189.551938 
L 76.335511 190.677323 
L 77.266157 191.92077 
L 77.834894 192.987789 
L 78.315382 194.384729 
L 78.538796 195.781669 
L 78.528357 197.178609 
L 78.289562 198.575549 
L 77.811819 199.97249 
L 77.06674 201.36943 
L 76.102849 202.651227 
L 74.939541 203.814871 
L 73.543572 204.893296 
L 71.914941 205.874031 
L 70.053648 206.750138 
L 67.727033 207.588463 
L 65.167755 208.27288 
L 62.143155 208.841852 
L 58.885893 209.225378 
L 55.395969 209.414782 
L 54 209.431356 
L 54 209.431356 
" style="fill:none;stroke:#90d743;stroke-width:1.5;"/>
    <path clip-path="url(#pfc6b436a76)" d="M 54 120.55852 
L 57.0246 120.663025 
L 60.049201 120.992205 
L 62.608478 121.49311 
L 64.469771 122.039991 
L 66.098402 122.711344 
L 67.494371 123.536281 
L 68.388858 124.304896 
L 68.937909 125.003366 
L 69.277025 125.701836 
L 69.42698 126.400306 
L 69.355664 127.289518 
L 69.123002 127.924859 
L 68.657679 128.652382 
L 67.959694 129.37037 
L 67.029048 130.051732 
L 65.86574 130.682082 
L 64.237109 131.330364 
L 62.143155 131.915029 
L 59.816539 132.34765 
L 57.0246 132.648066 
L 54 132.753536 
L 54 132.753536 
" style="fill:none;stroke:#90d743;stroke-width:1.5;"/>
    <path clip-path="url(#pfc6b436a76)" d="M 388.8 209.431356 
L 385.310076 209.327143 
L 381.820153 209.00363 
L 378.562891 208.472633 
L 375.770952 207.796757 
L 373.26132 206.957191 
L 371.175502 206.025897 
L 369.48909 205.048864 
L 367.993405 203.930487 
L 366.798325 202.76637 
L 365.886796 201.602253 
L 365.092626 200.205313 
L 364.572842 198.808373 
L 364.295478 197.411433 
L 364.247055 196.014492 
L 364.430358 194.617552 
L 364.865436 193.220612 
L 365.533843 191.92077 
L 366.279532 190.892378 
L 367.420885 189.728261 
L 368.791105 188.690864 
L 370.419736 187.758154 
L 372.315262 186.934381 
L 374.607644 186.189859 
L 377.399583 185.536439 
L 380.656845 185.023662 
L 384.37943 184.680846 
L 388.334677 184.546526 
L 388.8 184.54505 
L 388.8 184.54505 
" style="fill:none;stroke:#90d743;stroke-width:1.5;"/>
    <path clip-path="url(#pfc6b436a76)" d="M 388.8 132.753536 
L 385.7754 132.648066 
L 382.750799 132.312697 
L 380.191522 131.803848 
L 378.097568 131.165817 
L 376.468937 130.451462 
L 375.198261 129.659833 
L 374.374983 128.92347 
L 373.728375 128.03007 
L 373.444336 127.289518 
L 373.363311 126.633129 
L 373.452317 125.934659 
L 373.727007 125.236189 
L 374.203012 124.537719 
L 375.072967 123.71108 
L 376.003614 123.08454 
L 377.399583 122.395257 
L 379.260876 121.74237 
L 381.587491 121.190757 
L 384.37943 120.783998 
L 387.41665 120.579722 
L 388.8 120.55852 
L 388.8 120.55852 
" style="fill:none;stroke:#90d743;stroke-width:1.5;"/>
    <path clip-path="url(#pfc6b436a76)" d="M 113.283064 91.709624 
L 113.139232 90.312684 
L 113.225681 88.915744 
L 113.561362 87.459108 
L 114.10485 86.121864 
L 114.786749 84.957747 
L 115.698236 83.79363 
L 116.893378 82.629513 
L 118.214593 81.627441 
L 119.843224 80.655151 
L 121.704517 79.785892 
L 124.031133 78.95345 
L 126.59041 78.273916 
L 129.61501 77.70938 
L 132.872272 77.329661 
L 136.362196 77.143864 
L 140.084781 77.17712 
L 143.574705 77.42866 
L 146.831967 77.879443 
L 149.856567 78.526506 
L 152.415844 79.298697 
L 154.509798 80.139916 
L 156.371091 81.111574 
L 157.999722 82.216886 
L 159.261587 83.327983 
L 160.326338 84.555897 
L 161.175262 85.88904 
L 161.781909 87.285981 
L 162.137842 88.682921 
L 162.262108 90.079861 
L 162.157419 91.476801 
L 161.809548 92.873741 
L 161.256984 94.137713 
L 160.558999 95.237086 
L 159.578839 96.366092 
L 158.465045 97.333432 
L 157.069076 98.267125 
L 155.207783 99.209528 
L 153.113829 100.001422 
L 150.554552 100.712134 
L 147.762613 101.262101 
L 144.272689 101.709273 
L 140.550104 101.959296 
L 136.594858 102.006617 
L 132.639611 101.836094 
L 128.917026 101.453102 
L 125.659764 100.89339 
L 122.867825 100.184274 
L 120.541209 99.35835 
L 118.671136 98.461502 
L 117.051286 97.420868 
L 115.821195 96.366092 
L 114.814824 95.201975 
L 114.026685 93.913015 
L 113.514407 92.640918 
L 113.283064 91.709624 
L 113.283064 91.709624 
" style="fill:none;stroke:#90d743;stroke-width:1.5;"/>
    <path clip-path="url(#pfc6b436a76)" d="M 122.352528 160.625341 
L 122.263333 159.926871 
L 122.402502 159.066347 
L 122.635163 158.517643 
L 123.102129 157.83146 
L 124.031133 156.952495 
L 124.961779 156.332872 
L 126.357748 155.645651 
L 128.219041 154.992173 
L 130.545657 154.437604 
L 133.104934 154.054686 
L 136.129534 153.834443 
L 139.154135 153.830446 
L 142.178735 154.042012 
L 144.970674 154.460111 
L 147.336229 155.03758 
L 149.25583 155.73605 
L 150.787213 156.545397 
L 151.857013 157.365814 
L 152.479171 158.064284 
L 152.884591 158.762754 
L 153.113829 159.593054 
L 153.113829 160.265451 
L 152.976996 160.858164 
L 152.638103 161.556634 
L 151.950521 162.392811 
L 151.252536 162.982319 
L 150.089229 163.700934 
L 148.460598 164.415932 
L 146.366644 165.052773 
L 143.807366 165.559024 
L 141.015427 165.875621 
L 137.990827 166.000546 
L 134.966227 165.916329 
L 131.941626 165.610283 
L 129.382349 165.1358 
L 127.288395 164.540388 
L 125.659764 163.877622 
L 124.263794 163.064856 
L 123.311065 162.255104 
L 122.635163 161.338432 
L 122.352528 160.625341 
L 122.352528 160.625341 
" style="fill:none;stroke:#90d743;stroke-width:1.5;"/>
    <path clip-path="url(#pfc6b436a76)" d="M 196.853908 196.945786 
L 196.881699 195.548846 
L 197.145875 194.151905 
L 197.673031 192.754965 
L 198.349439 191.590848 
L 199.293812 190.426732 
L 200.344128 189.455901 
L 201.740097 188.468302 
L 203.368728 187.588404 
L 205.462682 186.73544 
L 207.789298 186.033788 
L 210.581237 185.427962 
L 213.838499 184.954729 
L 217.561084 184.646964 
L 221.516331 184.545142 
L 225.471577 184.659921 
L 229.194163 184.981599 
L 232.451425 185.470461 
L 235.243363 186.095037 
L 237.569979 186.818554 
L 239.663933 187.70052 
L 241.292564 188.614859 
L 242.688534 189.650514 
L 243.719811 190.659555 
L 244.605383 191.823672 
L 245.247811 193.017366 
L 245.71557 194.384729 
L 245.938966 195.781669 
L 245.928493 197.178609 
L 245.689679 198.575549 
L 245.211897 199.97249 
L 244.466646 201.36943 
L 243.604753 202.533547 
L 242.455872 203.712082 
L 240.989758 204.86178 
L 239.431272 205.811819 
L 237.515522 206.724367 
L 235.243363 207.551946 
L 232.684086 208.246199 
L 229.659486 208.824096 
L 226.402224 209.215269 
L 222.9123 209.411901 
L 219.189715 209.389734 
L 215.699792 209.149283 
L 212.44253 208.710643 
L 209.417929 208.077966 
L 206.858652 207.321907 
L 204.747175 206.491544 
L 202.903405 205.551251 
L 201.274774 204.476425 
L 200.076643 203.46484 
L 198.948158 202.231007 
L 198.052529 200.903783 
L 197.401035 199.506843 
L 197.005138 198.109903 
L 196.853908 196.945786 
L 196.853908 196.945786 
" style="fill:none;stroke:#90d743;stroke-width:1.5;"/>
    <path clip-path="url(#pfc6b436a76)" d="M 206.12422 127.564423 
L 205.973369 126.865953 
L 206.002733 126.167483 
L 206.214198 125.469013 
L 206.62599 124.76297 
L 207.323975 124.003149 
L 208.254621 123.298763 
L 209.650591 122.547836 
L 211.279222 121.922501 
L 213.373176 121.358051 
L 215.932453 120.909483 
L 218.724392 120.640039 
L 221.748992 120.559866 
L 224.773593 120.68889 
L 227.565532 121.009838 
L 230.124809 121.521911 
L 232.337744 122.209485 
L 233.883157 122.907955 
L 235.010702 123.620357 
L 235.941348 124.474635 
L 236.472938 125.236189 
L 236.747346 125.934659 
L 236.836841 126.633129 
L 236.746182 127.331599 
L 236.406671 128.143191 
L 235.941348 128.792689 
L 235.243363 129.468751 
L 234.080056 130.260637 
L 232.684086 130.93852 
L 230.822794 131.584564 
L 228.496178 132.133496 
L 225.936901 132.511694 
L 222.9123 132.727594 
L 219.8877 132.727594 
L 216.863099 132.511694 
L 214.071161 132.088482 
L 211.744545 131.516609 
L 209.843945 130.82395 
L 208.487283 130.125277 
L 207.323975 129.267175 
L 206.620542 128.495716 
L 206.12422 127.564423 
L 206.12422 127.564423 
" style="fill:none;stroke:#90d743;stroke-width:1.5;"/>
    <path clip-path="url(#pfc6b436a76)" d="M 280.608762 91.243978 
L 280.542823 89.847038 
L 280.705147 88.450097 
L 281.100924 87.053157 
L 281.775678 85.616164 
L 282.521295 84.4921 
L 283.63697 83.230708 
L 284.868626 82.163866 
L 286.428909 81.111574 
L 288.290202 80.139916 
L 290.384156 79.298697 
L 292.943433 78.526506 
L 295.735372 77.92065 
L 298.992634 77.453497 
L 302.482557 77.18708 
L 305.972481 77.135114 
L 309.462404 77.292226 
L 312.952328 77.675034 
L 315.976928 78.221999 
L 318.768867 78.95345 
L 321.215419 79.835633 
L 323.189437 80.779774 
L 324.818068 81.787676 
L 326.214038 82.900742 
L 327.377345 84.113726 
L 328.311454 85.423394 
L 329.009169 86.820334 
L 329.445577 88.217274 
L 329.645949 89.614214 
L 329.618202 91.011154 
L 329.354078 92.408095 
L 328.934922 93.572211 
L 328.305529 94.736328 
L 327.377345 95.94744 
L 326.20479 97.064562 
L 324.818068 98.055736 
L 323.189437 98.944203 
L 321.095483 99.803974 
L 318.768867 100.511045 
L 315.976928 101.121523 
L 312.719666 101.59864 
L 308.997081 101.909871 
L 305.041835 102.014927 
L 301.086588 101.903392 
L 297.364003 101.585206 
L 294.106741 101.100274 
L 291.314802 100.480421 
L 288.988186 99.762418 
L 286.894232 98.888028 
L 285.265601 97.98278 
L 283.869632 96.958937 
L 282.780163 95.900445 
L 281.894675 94.736328 
L 281.265033 93.572211 
L 280.784573 92.175271 
L 280.608762 91.243978 
L 280.608762 91.243978 
" style="fill:none;stroke:#90d743;stroke-width:1.5;"/>
    <path clip-path="url(#pfc6b436a76)" d="M 289.672774 160.159694 
L 289.703335 159.461224 
L 289.918833 158.755594 
L 290.384156 157.982168 
L 291.08214 157.241065 
L 292.012787 156.545397 
L 293.176095 155.905158 
L 294.804726 155.249012 
L 296.89868 154.658474 
L 299.225295 154.220949 
L 302.017234 153.916142 
L 305.041835 153.806503 
L 308.066435 153.907807 
L 311.091035 154.238425 
L 313.650313 154.741857 
L 315.744267 155.372855 
L 317.372898 156.078374 
L 318.536206 156.780773 
L 319.490881 157.598637 
L 320.171854 158.52993 
L 320.446311 159.228401 
L 320.536667 159.926871 
L 320.397498 160.79176 
L 320.164837 161.338432 
L 319.697294 162.022281 
L 318.768867 162.894425 
L 317.838221 163.508746 
L 316.442252 164.188685 
L 314.580959 164.834169 
L 312.254343 165.380207 
L 309.462404 165.781983 
L 306.437804 165.981682 
L 303.180542 165.959979 
L 300.155942 165.717337 
L 297.364003 165.265383 
L 295.037387 164.656117 
L 293.408756 164.03846 
L 292.012787 163.298156 
L 290.946828 162.487928 
L 290.320433 161.789458 
L 289.913949 161.090987 
L 289.686171 160.265451 
L 289.672774 160.159694 
L 289.672774 160.159694 
" style="fill:none;stroke:#90d743;stroke-width:1.5;"/>
   </g>
   <g id="LineCollection_7">
    <path clip-path="url(#pfc6b436a76)" d="M 54 190.76122 
L 56.326616 190.866873 
L 58.42057 191.157672 
L 60.514524 191.677741 
L 62.143155 192.304309 
L 63.539124 193.100846 
L 64.50672 193.919082 
L 65.199423 194.850376 
L 65.550245 195.781669 
L 65.602575 196.712962 
L 65.365936 197.644256 
L 64.822531 198.575549 
L 64.004448 199.432523 
L 63.073801 200.11672 
L 61.910493 200.747746 
L 60.281862 201.379207 
L 58.42057 201.858538 
L 56.326616 202.170895 
L 54 202.286486 
L 54 202.286486 
" style="fill:none;stroke:#fde725;stroke-width:1.5;"/>
    <path clip-path="url(#pfc6b436a76)" d="M 388.8 202.286486 
L 386.473384 202.170895 
L 384.264848 201.835076 
L 382.285476 201.302191 
L 380.656845 200.63674 
L 379.260876 199.80124 
L 378.330229 198.988981 
L 377.664956 198.109903 
L 377.279521 197.178609 
L 377.187308 196.247316 
L 377.385763 195.316022 
L 377.864906 194.434615 
L 378.330229 193.881869 
L 379.260876 193.100846 
L 380.424183 192.417544 
L 381.843048 191.823672 
L 383.681445 191.302301 
L 385.7754 190.942145 
L 388.102015 190.770702 
L 388.8 190.76122 
L 388.8 190.76122 
" style="fill:none;stroke:#fde725;stroke-width:1.5;"/>
    <path clip-path="url(#pfc6b436a76)" d="M 126.109221 90.545508 
L 126.129103 89.614214 
L 126.439966 88.682921 
L 127.055733 87.763936 
L 127.781353 87.053157 
L 128.917026 86.266826 
L 130.312995 85.58294 
L 131.941626 85.024361 
L 133.802919 84.603508 
L 135.896873 84.342852 
L 138.223489 84.279348 
L 140.550104 84.447249 
L 142.644058 84.815629 
L 144.505351 85.358968 
L 145.90132 85.952589 
L 147.064628 86.63476 
L 148.121012 87.518804 
L 148.834776 88.450097 
L 149.220599 89.381391 
L 149.312377 90.312684 
L 149.114016 91.243978 
L 148.693259 92.041297 
L 147.995274 92.850103 
L 147.29729 93.418325 
L 146.133982 94.113563 
L 144.656424 94.736328 
L 142.87672 95.244635 
L 140.782766 95.610578 
L 138.45615 95.787652 
L 136.129534 95.750725 
L 133.802919 95.493729 
L 131.708965 95.037901 
L 130.080334 94.484737 
L 128.684364 93.797282 
L 127.521056 92.955414 
L 126.799815 92.175271 
L 126.286113 91.243978 
L 126.109221 90.545508 
L 126.109221 90.545508 
" style="fill:none;stroke:#fde725;stroke-width:1.5;"/>
    <path clip-path="url(#pfc6b436a76)" d="M 209.87901 197.178609 
L 209.787662 196.247316 
L 209.986188 195.316022 
L 210.348575 194.603373 
L 211.04656 193.766814 
L 211.744545 193.182808 
L 212.907853 192.475563 
L 214.536484 191.791875 
L 216.397776 191.276643 
L 218.49173 190.928015 
L 220.818346 190.767804 
L 223.144962 190.820567 
L 225.471577 191.094977 
L 227.33287 191.506103 
L 228.974581 192.056495 
L 230.402471 192.754965 
L 231.520778 193.553455 
L 232.299864 194.384729 
L 232.813812 195.316022 
L 233.012338 196.247316 
L 232.92099 197.178609 
L 232.660343 197.877079 
L 232.033777 198.808373 
L 231.288117 199.531595 
L 230.124809 200.326693 
L 228.728839 201.000687 
L 226.918266 201.602253 
L 225.006254 202.005393 
L 222.9123 202.237739 
L 220.585685 202.272366 
L 218.206548 202.0679 
L 216.165115 201.674574 
L 214.303822 201.093091 
L 212.872364 200.438136 
L 211.744545 199.715482 
L 210.766223 198.808373 
L 210.139657 197.877079 
L 209.87901 197.178609 
L 209.87901 197.178609 
" style="fill:none;stroke:#fde725;stroke-width:1.5;"/>
    <path clip-path="url(#pfc6b436a76)" d="M 293.608229 91.011154 
L 293.483676 90.079861 
L 293.647156 89.148567 
L 294.110226 88.217274 
L 294.804726 87.39423 
L 295.735372 86.63476 
L 296.89868 85.952589 
L 298.294649 85.358968 
L 300.155942 84.815629 
L 302.249896 84.447249 
L 304.576511 84.279348 
L 306.903127 84.342852 
L 308.997081 84.603508 
L 311.091035 85.092062 
L 312.719666 85.680679 
L 314.115636 86.406401 
L 315.283816 87.285981 
L 316.089228 88.217274 
L 316.552345 89.148567 
L 316.716481 90.079861 
L 316.591533 91.011154 
L 316.20959 91.861448 
L 315.744267 92.488846 
L 315.046282 93.153859 
L 313.882974 93.928977 
L 312.487005 94.576666 
L 310.625712 95.161152 
L 308.76442 95.529981 
L 306.437804 95.763923 
L 304.111188 95.779746 
L 301.784573 95.580051 
L 299.690618 95.190293 
L 297.829326 94.620953 
L 296.433356 93.993057 
L 295.270049 93.245334 
L 294.384152 92.408095 
L 293.874079 91.657908 
L 293.608229 91.011154 
L 293.608229 91.011154 
" style="fill:none;stroke:#fde725;stroke-width:1.5;"/>
   </g>
   <g id="line2d_1">
    <path clip-path="url(#pfc6b436a76)" d="M 54 195.36 
L 388.8 195.36 
" style="fill:none;stroke:#ff0000;stroke-linecap:square;stroke-width:1.5;"/>
   </g>
   <g id="line2d_2">
    <path clip-path="url(#pfc6b436a76)" d="M 54 91.2 
L 388.8 91.2 
" style="fill:none;stroke:#ff0000;stroke-linecap:square;stroke-width:1.5;"/>
   </g>
   <g id="patch_3">
    <path d="M 54 252 
L 54 34.56 
" style="fill:none;stroke:#000000;stroke-linecap:square;stroke-linejoin:miter;stroke-width:0.8;"/>
   </g>
   <g id="patch_4">
    <path d="M 388.8 252 
L 388.8 34.56 
" style="fill:none;stroke:#000000;stroke-linecap:square;stroke-linejoin:miter;stroke-width:0.8;"/>
   </g>
   <g id="patch_5">
    <path d="M 54 252 
L 388.8 252 
" style="fill:none;stroke:#000000;stroke-linecap:square;stroke-linejoin:miter;stroke-width:0.8;"/>
   </g>
   <g id="patch_6">
    <path d="M 54 34.56 
L 388.8 34.56 
" style="fill:none;stroke:#000000;stroke-linecap:square;stroke-linejoin:miter;stroke-width:0.8;"/>
   </g>
  </g>
 </g>
 <defs>
  <clipPath id="pfc6b436a76">
   <rect height="217.44" width="334.8" x="54" y="34.56"/>
  </clipPath>
 </defs>
</svg>
