<?xml version="1.0" encoding="utf-8" standalone="no"?>
<!DOCTYPE svg PUBLIC "-//W3C//DTD SVG 1.1//EN"
  "http://www.w3.org/Graphics/SVG/1.1/DTD/svg11.dtd">
<!-- Created with matplotlib (http://matplotlib.org/) -->
<svg height="288pt" version="1.1" viewBox="0 0 432 288" width="432pt" xmlns="http://www.w3.org/2000/svg" xmlns:xlink="http://www.w3.org/1999/xlink">
 <defs>
  <style type="text/css">
*{stroke-linecap:butt;stroke-linejoin:round;}
  </style>
 </defs>
 <g id="figure_1">
  <g id="patch_1">
   <path d="M 0 288 
L 432 288 
L 432 0 
L 0 0 
z
" style="fill:#ffffff;"/>
  </g>
  <g id="axes_1">
   <g id="patch_2">
    <path d="M 54 252 
L 388.8 252 
L 388.8 34.56 
L 54 34.56 
z
" style="fill:#ffffff;"/>
   </g>
   <g id="matplotlib.axis_1"/>
   <g id="matplotlib.axis_2"/>
   <g id="LineCollection_1">
    <path clip-path="url(#pa9446ab194)" d="M 71.210296 145.258999 
L 71.524328 146.888762 
L 71.991304 148.285702 
L 72.612926 149.466221 
L 73.31091 150.29772 
L 74.008895 150.782878 
L 74.70688 150.989674 
L 75.404864 150.942437 
L 76.135235 150.613936 
L 76.800834 150.032242 
L 77.391513 149.216996 
L 77.964142 148.028105 
L 78.438329 146.423115 
L 78.712581 144.560529 
L 78.753644 142.697942 
L 78.569966 140.835355 
L 78.195897 139.205591 
L 77.645432 137.808651 
L 77.033495 136.808671 
L 76.335511 136.089237 
L 75.637526 135.689372 
L 74.939541 135.558085 
L 74.241557 135.678857 
L 73.543572 136.066789 
L 72.845587 136.771172 
L 72.204085 137.808651 
L 71.729511 138.972768 
L 71.364446 140.369708 
L 71.120557 142.232295 
L 71.10677 144.094882 
L 71.210296 145.258999 
L 71.210296 145.258999 
" style="fill:none;stroke:#440154;stroke-width:1.5;"/>
    <path clip-path="url(#pa9446ab194)" d="M 154.943087 145.491822 
L 155.287466 147.121586 
L 155.793698 148.518526 
L 156.371091 149.551202 
L 157.106365 150.381113 
L 157.858901 150.846759 
L 158.465045 150.995358 
L 159.16303 150.92712 
L 159.861015 150.598322 
L 160.600902 149.915466 
L 161.256984 148.927023 
L 161.819812 147.587232 
L 162.230485 145.957469 
L 162.444311 144.094882 
L 162.430822 142.232295 
L 162.187263 140.369708 
L 161.722307 138.687557 
L 161.091973 137.343004 
L 160.558999 136.593517 
L 159.835746 135.946064 
L 159.16303 135.63288 
L 158.465045 135.564642 
L 157.76706 135.749581 
L 157.069076 136.209568 
L 156.371091 137.008798 
L 155.793698 138.041474 
L 155.287466 139.438414 
L 154.943087 141.068178 
L 154.788941 142.930765 
L 154.858932 144.793352 
L 154.943087 145.491822 
L 154.943087 145.491822 
" style="fill:none;stroke:#440154;stroke-width:1.5;"/>
    <path clip-path="url(#pa9446ab194)" d="M 238.494882 143.862058 
L 238.679586 145.724645 
L 239.055996 147.354409 
L 239.604152 148.751349 
L 240.165941 149.682643 
L 240.827241 150.400558 
L 241.554348 150.846759 
L 242.223211 150.999292 
L 242.921195 150.910047 
L 243.61918 150.557701 
L 244.317165 149.898076 
L 245.015149 148.815139 
L 245.520649 147.587232 
L 245.945796 145.875315 
L 246.144079 144.094882 
L 246.129979 142.232295 
L 245.885855 140.369708 
L 245.440399 138.739944 
L 244.924291 137.575828 
L 244.302083 136.644534 
L 243.532694 135.946064 
L 242.921195 135.649953 
L 242.223211 135.560708 
L 241.525226 135.723858 
L 240.80548 136.178887 
L 240.129256 136.926086 
L 239.493187 138.041474 
L 239.055996 139.205591 
L 238.679586 140.835355 
L 238.494882 142.697942 
L 238.494882 143.862058 
L 238.494882 143.862058 
" style="fill:none;stroke:#440154;stroke-width:1.5;"/>
    <path clip-path="url(#pa9446ab194)" d="M 322.257231 144.793352 
L 322.512003 146.423115 
L 322.996471 148.052879 
L 323.65476 149.376363 
L 324.352745 150.243025 
L 325.05073 150.753517 
L 325.748714 150.982242 
L 326.446699 150.956 
L 327.144684 150.672129 
L 327.842669 150.095927 
L 328.540653 149.136871 
L 329.13953 147.820056 
L 329.537079 146.423115 
L 329.812032 144.560529 
L 329.853706 142.697942 
L 329.670813 140.835355 
L 329.294451 139.205591 
L 328.746725 137.808651 
L 328.07533 136.734215 
L 327.377345 136.044817 
L 326.679361 135.668783 
L 325.981376 135.558523 
L 325.254338 135.713241 
L 324.585407 136.112161 
L 323.865356 136.877357 
L 323.189437 138.045753 
L 322.686747 139.438414 
L 322.3439 141.068178 
L 322.189279 142.930765 
L 322.257231 144.793352 
L 322.257231 144.793352 
" style="fill:none;stroke:#440154;stroke-width:1.5;"/>
   </g>
   <g id="LineCollection_2">
    <path clip-path="url(#pa9446ab194)" d="M 63.303228 146.190292 
L 63.590682 149.915466 
L 64.053619 153.174993 
L 64.703051 156.201697 
L 65.471396 158.762754 
L 66.331063 160.917671 
L 67.266137 162.720751 
L 68.368362 164.350515 
L 69.39497 165.514631 
L 70.518972 166.483974 
L 71.682279 167.209709 
L 72.845587 167.693118 
L 74.008895 167.957967 
L 75.172203 168.016441 
L 76.457729 167.842865 
L 77.498819 167.515446 
L 78.696131 166.911572 
L 79.825434 166.093067 
L 80.988742 164.947249 
L 81.991506 163.652045 
L 82.974105 162.022281 
L 83.848041 160.159694 
L 84.711327 157.748639 
L 85.425527 155.03758 
L 85.986787 152.010876 
L 86.394976 148.518526 
L 86.595178 144.793352 
L 86.57262 141.004689 
L 86.331769 137.343004 
L 85.874635 133.839535 
L 85.262641 130.82395 
L 84.478666 128.088554 
L 83.649324 125.934659 
L 82.718008 124.072072 
L 81.659214 122.442309 
L 80.523419 121.113407 
L 79.360111 120.09755 
L 78.196803 119.365343 
L 77.033495 118.876228 
L 75.870188 118.606108 
L 74.70688 118.542544 
L 73.391877 118.717135 
L 72.380264 119.032985 
L 71.154371 119.648428 
L 70.053648 120.442463 
L 68.890341 121.579793 
L 67.858604 122.907955 
L 66.875825 124.537719 
L 66.002054 126.400306 
L 65.164259 128.72854 
L 64.424658 131.52242 
L 63.863193 134.549124 
L 63.475257 137.808651 
L 63.260879 141.533825 
L 63.267642 145.258999 
L 63.303228 146.190292 
L 63.303228 146.190292 
" style="fill:none;stroke:#443983;stroke-width:1.5;"/>
    <path clip-path="url(#pa9446ab194)" d="M 147.053075 147.121586 
L 147.37202 150.613936 
L 147.882888 153.873463 
L 148.526273 156.667344 
L 149.338098 159.228401 
L 150.222243 161.323811 
L 151.250793 163.186398 
L 152.253914 164.583338 
L 153.346491 165.757463 
L 154.509798 166.69001 
L 155.729258 167.377218 
L 156.836414 167.779178 
L 157.999722 167.991679 
L 159.16303 167.999302 
L 160.326338 167.802394 
L 161.521346 167.377218 
L 162.755208 166.678748 
L 163.816261 165.837806 
L 164.979569 164.604531 
L 165.998458 163.186398 
L 166.913757 161.556634 
L 167.82487 159.461224 
L 168.593848 157.13299 
L 169.274485 154.33911 
L 169.78731 151.312406 
L 170.149976 147.820056 
L 170.307881 144.094882 
L 170.2464 140.369708 
L 169.959198 136.644534 
L 169.496238 133.385007 
L 168.846457 130.358303 
L 168.078593 127.797246 
L 167.245567 125.701836 
L 166.28317 123.839249 
L 165.181904 122.209485 
L 164.048923 120.94076 
L 162.885615 119.97092 
L 161.722307 119.277242 
L 160.558999 118.822177 
L 159.395691 118.583578 
L 158.232384 118.550539 
L 157.069076 118.721559 
L 155.905768 119.1045 
L 154.74246 119.717372 
L 153.579152 120.592047 
L 152.415844 121.781002 
L 151.402057 123.140779 
L 150.454145 124.770542 
L 149.60665 126.633129 
L 148.793301 128.961363 
L 148.124841 131.52242 
L 147.562977 134.549124 
L 147.175346 137.808651 
L 146.961031 141.533825 
L 146.967819 145.258999 
L 147.053075 147.121586 
L 147.053075 147.121586 
" style="fill:none;stroke:#443983;stroke-width:1.5;"/>
    <path clip-path="url(#pa9446ab194)" d="M 230.817167 148.052879 
L 231.195099 151.545229 
L 231.773303 154.804757 
L 232.493082 157.598637 
L 233.382071 160.112605 
L 234.312717 162.092407 
L 235.257958 163.652045 
L 236.406671 165.109607 
L 237.569979 166.213623 
L 238.733287 167.018858 
L 240.003168 167.610042 
L 241.059903 167.900557 
L 242.223211 168.020247 
L 243.386518 167.936303 
L 244.646892 167.610042 
L 245.713134 167.13293 
L 246.876442 166.374419 
L 248.0825 165.281808 
L 249.203058 163.921524 
L 250.24823 162.255104 
L 251.150153 160.392517 
L 252.012133 158.064284 
L 252.718626 155.503227 
L 253.314177 152.476523 
L 253.731391 149.216996 
L 253.974515 145.491822 
L 253.994918 141.766648 
L 253.79495 138.041474 
L 253.387221 134.549124 
L 252.772535 131.289597 
L 252.012133 128.495716 
L 251.248141 126.400306 
L 250.24823 124.304896 
L 249.203058 122.638476 
L 248.03975 121.232802 
L 246.78087 120.114075 
L 245.69124 119.415605 
L 244.549826 118.914964 
L 243.386518 118.623697 
L 242.223211 118.539753 
L 241.059903 118.659443 
L 239.896595 118.988103 
L 238.733287 119.541142 
L 237.569351 120.346898 
L 236.352413 121.511015 
L 235.243363 122.929041 
L 234.275556 124.537719 
L 233.307029 126.633129 
L 232.493082 128.961363 
L 231.824774 131.52242 
L 231.262928 134.549124 
L 230.854919 138.041474 
L 230.655016 141.766648 
L 230.675455 145.491822 
L 230.817167 148.052879 
L 230.817167 148.052879 
" style="fill:none;stroke:#443983;stroke-width:1.5;"/>
    <path clip-path="url(#pa9446ab194)" d="M 314.345375 144.327705 
L 314.51747 148.052879 
L 314.895078 151.545229 
L 315.47342 154.804757 
L 316.192901 157.598637 
L 317.007096 159.926871 
L 317.975873 162.022281 
L 319.001529 163.71543 
L 320.164837 165.172878 
L 321.328145 166.260437 
L 322.491452 167.05221 
L 323.702177 167.610042 
L 324.818068 167.911417 
L 325.981376 168.020881 
L 327.144684 167.926736 
L 328.348053 167.610042 
L 329.4713 167.101096 
L 330.634607 166.329347 
L 331.797915 165.266209 
L 332.961223 163.839986 
L 333.948429 162.255104 
L 334.850484 160.392517 
L 335.711954 158.064284 
L 336.418578 155.503227 
L 336.976145 152.709346 
L 337.408568 149.449819 
L 337.666133 145.724645 
L 337.700019 141.999471 
L 337.514121 138.274298 
L 337.121664 134.781947 
L 336.525219 131.52242 
L 335.785505 128.72854 
L 334.94793 126.400306 
L 334.074339 124.537719 
L 333.091392 122.907955 
L 331.997829 121.511015 
L 330.779382 120.346898 
L 329.703961 119.59232 
L 328.540653 119.021556 
L 327.377345 118.676706 
L 326.214038 118.541656 
L 325.05073 118.610312 
L 323.887422 118.885708 
L 322.659663 119.415605 
L 321.560806 120.119261 
L 320.397498 121.142951 
L 319.291081 122.442309 
L 318.303544 123.946395 
L 317.372898 125.770807 
L 316.491367 128.03007 
L 315.744155 130.591127 
L 315.113177 133.61783 
L 314.665729 136.877357 
L 314.403514 140.369708 
L 314.342012 144.094882 
L 314.345375 144.327705 
L 314.345375 144.327705 
" style="fill:none;stroke:#443983;stroke-width:1.5;"/>
   </g>
   <g id="LineCollection_3">
    <path clip-path="url(#pa9446ab194)" d="M 58.413345 148.285702 
L 58.707192 153.873463 
L 59.182361 158.762754 
L 59.816539 162.99021 
L 60.552421 166.445925 
L 61.426217 169.472629 
L 62.305402 171.800862 
L 63.314953 173.896273 
L 64.469771 175.769065 
L 65.757087 177.388623 
L 67.029048 178.633153 
L 68.476194 179.716857 
L 69.820987 180.471226 
L 71.455947 181.113797 
L 73.078249 181.493425 
L 74.70688 181.638215 
L 76.335511 181.554723 
L 77.964142 181.238422 
L 79.592773 180.670213 
L 80.999175 179.94968 
L 82.384712 178.993351 
L 83.780681 177.723855 
L 85.050288 176.224506 
L 86.137322 174.594743 
L 87.125952 172.732156 
L 88.097472 170.403922 
L 88.92597 167.842865 
L 89.673698 164.816161 
L 90.348885 161.090987 
L 90.876673 156.900167 
L 91.266991 152.010876 
L 91.485404 146.423115 
L 91.494029 140.602531 
L 91.280549 134.781947 
L 90.876673 129.659833 
L 90.295205 125.121028 
L 89.59722 121.391088 
L 88.790415 118.251488 
L 87.922362 115.690431 
L 86.899253 113.362197 
L 85.851532 111.499611 
L 84.689348 109.869847 
L 83.41771 108.472907 
L 82.15205 107.386721 
L 80.756081 106.468777 
L 79.360111 105.791961 
L 77.73148 105.261631 
L 76.102849 104.979414 
L 74.474218 104.92846 
L 72.845587 105.106199 
L 71.216956 105.522861 
L 69.707689 106.144673 
L 68.425017 106.875835 
L 67.029048 107.926847 
L 65.757087 109.171377 
L 64.62846 110.568317 
L 63.539124 112.262142 
L 62.509259 114.293491 
L 61.585582 116.621725 
L 60.731984 119.415605 
L 59.985394 122.675132 
L 59.351216 126.500758 
L 58.860764 130.82395 
L 58.507723 135.946064 
L 58.342937 141.533825 
L 58.38614 147.354409 
L 58.413345 148.285702 
L 58.413345 148.285702 
" style="fill:none;stroke:#31688e;stroke-width:1.5;"/>
    <path clip-path="url(#pa9446ab194)" d="M 142.175285 149.915466 
L 142.519541 155.270403 
L 143.033164 159.926871 
L 143.685445 163.884868 
L 144.432157 167.144395 
L 145.285569 169.938275 
L 146.209221 172.266509 
L 147.29729 174.398748 
L 148.49948 176.224506 
L 149.672201 177.621446 
L 151.019875 178.876752 
L 152.415844 179.868258 
L 153.907996 180.64815 
L 155.440445 181.198315 
L 157.069076 181.536158 
L 158.697707 181.640029 
L 160.326338 181.51573 
L 161.954969 181.156146 
L 163.5836 180.539958 
L 165.07354 179.716857 
L 166.375539 178.756618 
L 167.577865 177.621446 
L 168.750468 176.224506 
L 169.865462 174.547694 
L 170.934771 172.499332 
L 171.881976 170.171099 
L 172.691379 167.610042 
L 173.471148 164.350515 
L 174.118228 160.625341 
L 174.645729 156.201697 
L 175.018861 151.079583 
L 175.201319 145.491822 
L 175.175319 139.671238 
L 174.938552 134.083477 
L 174.502805 128.961363 
L 173.90092 124.537719 
L 173.165796 120.812545 
L 172.348767 117.785841 
L 171.438235 115.224784 
L 170.481161 113.129374 
L 169.400139 111.264061 
L 168.198265 109.637024 
L 166.840862 108.21134 
L 165.42221 107.075967 
L 164.048923 106.2483 
L 162.420292 105.552311 
L 160.791661 105.122318 
L 159.16303 104.932163 
L 157.44143 104.980556 
L 155.905768 105.240475 
L 154.277137 105.756815 
L 152.881167 106.41991 
L 151.485198 107.321488 
L 150.089229 108.514033 
L 148.860912 109.869847 
L 147.698674 111.499611 
L 146.599305 113.464839 
L 145.627617 115.690431 
L 144.738013 118.323338 
L 143.978024 121.278192 
L 143.310812 124.770542 
L 142.747343 128.961363 
L 142.326355 133.850654 
L 142.080307 139.438414 
L 142.045707 145.258999 
L 142.175285 149.915466 
L 142.175285 149.915466 
" style="fill:none;stroke:#31688e;stroke-width:1.5;"/>
    <path clip-path="url(#pa9446ab194)" d="M 225.931066 151.079583 
L 226.304267 156.201697 
L 226.83171 160.625341 
L 227.478835 164.350515 
L 228.263516 167.628131 
L 229.194163 170.517521 
L 230.124809 172.734535 
L 231.253407 174.827566 
L 232.377007 176.45733 
L 233.614732 177.8727 
L 235.010702 179.106811 
L 236.406671 180.041363 
L 237.802641 180.732059 
L 239.431272 181.276493 
L 241.141142 181.579444 
L 242.688534 181.634588 
L 244.317165 181.469231 
L 245.945796 181.065814 
L 247.542964 180.415327 
L 248.773963 179.716857 
L 250.133704 178.70769 
L 251.4932 177.388623 
L 252.621547 175.991683 
L 253.673709 174.361919 
L 254.740869 172.266509 
L 255.664499 169.938275 
L 256.455347 167.377218 
L 257.218352 164.117691 
L 257.851862 160.392517 
L 258.367691 155.968873 
L 258.730864 150.846759 
L 258.904316 145.258999 
L 258.86969 139.438414 
L 258.623631 133.850654 
L 258.176842 128.72854 
L 257.578874 124.404422 
L 256.86589 120.812545 
L 256.048739 117.785841 
L 255.13814 115.224784 
L 254.088951 112.951274 
L 252.947061 111.033964 
L 251.898022 109.637024 
L 250.599027 108.264993 
L 249.203058 107.132116 
L 247.807088 106.278588 
L 246.178457 105.572378 
L 244.549826 105.133448 
L 242.921195 104.934996 
L 241.292564 104.965556 
L 239.663933 105.226767 
L 238.035302 105.733844 
L 236.639333 106.387878 
L 235.202866 107.30879 
L 233.831786 108.472907 
L 232.561021 109.869847 
L 231.520778 111.308631 
L 230.468873 113.129374 
L 229.511835 115.224784 
L 228.601266 117.785841 
L 227.784105 120.812545 
L 227.087905 124.304896 
L 226.49956 128.495716 
L 226.073548 133.152184 
L 225.806133 138.507121 
L 225.736681 144.327705 
L 225.885766 150.148289 
L 225.931066 151.079583 
L 225.931066 151.079583 
" style="fill:none;stroke:#31688e;stroke-width:1.5;"/>
    <path clip-path="url(#pa9446ab194)" d="M 309.460036 146.190292 
L 309.682939 152.010876 
L 310.097394 157.13299 
L 310.673491 161.556634 
L 311.378009 165.281808 
L 312.159575 168.308512 
L 313.02772 170.869569 
L 314.050682 173.197803 
L 315.098629 175.060389 
L 316.260847 176.690153 
L 317.532206 178.087093 
L 318.768867 179.151261 
L 320.164837 180.074714 
L 321.560806 180.756139 
L 323.189437 181.291157 
L 324.837729 181.579444 
L 326.446699 181.632628 
L 328.07533 181.459021 
L 329.703961 181.046783 
L 331.242371 180.415327 
L 332.4959 179.703032 
L 333.891869 178.658152 
L 335.192931 177.388623 
L 336.321477 175.991683 
L 337.381793 174.348439 
L 338.440736 172.266509 
L 339.364404 169.938275 
L 340.217912 167.144395 
L 340.964565 163.884868 
L 341.584804 160.159694 
L 342.089173 155.73605 
L 342.44231 150.613936 
L 342.607045 145.026175 
L 342.56381 139.205591 
L 342.308421 133.61783 
L 341.876866 128.72854 
L 341.301005 124.537719 
L 340.565726 120.812545 
L 339.708409 117.656206 
L 338.777762 115.076138 
L 337.759682 112.896551 
L 336.646961 111.033964 
L 335.399506 109.4042 
L 334.124531 108.105782 
L 332.728562 107.011346 
L 331.242371 106.144673 
L 329.703961 105.513217 
L 328.07533 105.100979 
L 326.446699 104.927372 
L 324.818068 104.982396 
L 323.189437 105.268843 
L 321.560806 105.803861 
L 320.164837 106.485286 
L 318.768867 107.408739 
L 317.372898 108.628828 
L 316.20959 109.933302 
L 315.046282 111.58216 
L 314.050682 113.362197 
L 313.118599 115.457608 
L 312.22943 118.018665 
L 311.430621 121.045369 
L 310.749102 124.537719 
L 310.173 128.72854 
L 309.757345 133.385007 
L 309.499057 138.739944 
L 309.438378 144.560529 
L 309.460036 146.190292 
L 309.460036 146.190292 
" style="fill:none;stroke:#31688e;stroke-width:1.5;"/>
   </g>
   <g id="LineCollection_4">
    <path clip-path="url(#pa9446ab194)" d="M 388.8 226.98 
L 347.153579 226.98 
L 346.950001 226.747177 
L 346.950001 59.812823 
L 347.153579 59.58 
L 388.8 59.58 
L 388.8 59.58 
" style="fill:none;stroke:#21918c;stroke-width:1.5;"/>
    <path clip-path="url(#pa9446ab194)" d="M 95.849999 226.747177 
L 95.879083 59.58 
L 137.525504 59.58 
L 137.699999 59.812823 
L 137.699999 226.747177 
L 137.525504 226.98 
L 95.879083 226.98 
L 95.849999 226.747177 
L 95.849999 226.747177 
" style="fill:none;stroke:#21918c;stroke-width:1.5;"/>
    <path clip-path="url(#pa9446ab194)" d="M 179.549999 226.747177 
L 179.637248 59.58 
L 221.283669 59.58 
L 221.4 60.045647 
L 221.4 226.747177 
L 221.283669 226.98 
L 179.637248 226.98 
L 179.549999 226.747177 
L 179.549999 226.747177 
" style="fill:none;stroke:#21918c;stroke-width:1.5;"/>
    <path clip-path="url(#pa9446ab194)" d="M 263.250001 226.747177 
L 263.250001 59.812823 
L 263.395413 59.58 
L 305.041835 59.58 
L 305.100001 60.045647 
L 305.041835 226.98 
L 263.395413 226.98 
L 263.250001 226.747177 
L 263.250001 226.747177 
" style="fill:none;stroke:#21918c;stroke-width:1.5;"/>
   </g>
   <g id="LineCollection_5">
    <path clip-path="url(#pa9446ab194)" d="M 100.296477 149.216996 
L 100.183336 143.396412 
L 100.287656 137.575828 
L 100.592731 132.22089 
L 101.090745 127.331599 
L 101.702369 123.373602 
L 102.461068 119.881252 
L 103.324253 116.94424 
L 104.255674 114.526314 
L 105.293959 112.430904 
L 106.348853 110.749425 
L 107.607069 109.171377 
L 108.908131 107.901848 
L 110.325858 106.843143 
L 111.700069 106.074829 
L 113.3287 105.439091 
L 114.957331 105.061963 
L 116.585962 104.921277 
L 118.214593 105.008841 
L 119.843224 105.329436 
L 121.471855 105.902442 
L 122.867825 106.621331 
L 124.263794 107.58968 
L 125.659764 108.866457 
L 126.900345 110.335494 
L 127.987516 111.965257 
L 129.084832 114.060668 
L 129.947476 116.156078 
L 130.778318 118.724998 
L 131.523758 121.743839 
L 132.198959 125.469013 
L 132.726686 129.659833 
L 133.117061 134.549124 
L 133.337596 140.246658 
L 133.344099 145.957469 
L 133.130608 151.778053 
L 132.726686 156.900167 
L 132.163194 161.323811 
L 131.473584 165.048985 
L 130.640425 168.308512 
L 129.77228 170.869569 
L 128.749318 173.197803 
L 127.701371 175.060389 
L 126.539153 176.690153 
L 125.267794 178.087093 
L 124.031133 179.151261 
L 122.635163 180.074714 
L 121.239194 180.756139 
L 119.610563 181.291157 
L 117.962271 181.579444 
L 116.353301 181.632628 
L 114.72467 181.459021 
L 113.096039 181.046783 
L 111.557629 180.415327 
L 110.3041 179.703032 
L 108.908131 178.658152 
L 107.607069 177.388623 
L 106.478523 175.991683 
L 105.418207 174.348439 
L 104.359264 172.266509 
L 103.435596 169.938275 
L 102.582088 167.144395 
L 101.835435 163.884868 
L 101.215196 160.159694 
L 100.710827 155.73605 
L 100.35769 150.613936 
L 100.296477 149.216996 
L 100.296477 149.216996 
" style="fill:none;stroke:#35b779;stroke-width:1.5;"/>
    <path clip-path="url(#pa9446ab194)" d="M 184.057556 150.613936 
L 183.890517 144.793352 
L 183.942502 138.972768 
L 184.207368 133.385007 
L 184.649564 128.495716 
L 185.237922 124.304896 
L 185.989131 120.579722 
L 186.849757 117.473397 
L 187.780403 114.935994 
L 188.740108 112.896551 
L 189.874357 111.002038 
L 191.100369 109.4042 
L 192.433634 108.053973 
L 193.829604 106.972007 
L 195.257036 106.144673 
L 196.854204 105.494186 
L 198.482835 105.090769 
L 200.111466 104.925412 
L 201.740097 104.988564 
L 203.368728 105.283507 
L 204.997359 105.827941 
L 206.548431 106.61032 
L 207.902077 107.541613 
L 209.203264 108.70573 
L 210.422993 110.10267 
L 211.546593 111.732434 
L 212.564129 113.595021 
L 213.472246 115.690431 
L 214.340555 118.251488 
L 215.121918 121.278192 
L 215.789079 124.770542 
L 216.35273 128.961363 
L 216.77364 133.850654 
L 217.019709 139.438414 
L 217.05436 145.258999 
L 216.868934 151.079583 
L 216.495733 156.201697 
L 215.96829 160.625341 
L 215.321165 164.350515 
L 214.536484 167.628131 
L 213.605837 170.517521 
L 212.675191 172.734535 
L 211.546593 174.827566 
L 210.422993 176.45733 
L 209.185268 177.8727 
L 207.789298 179.106811 
L 206.393329 180.041363 
L 204.997359 180.732059 
L 203.368728 181.276493 
L 201.658858 181.579444 
L 200.111466 181.634588 
L 198.482835 181.469231 
L 196.854204 181.065814 
L 195.257036 180.415327 
L 194.026037 179.716857 
L 192.666296 178.70769 
L 191.3068 177.388623 
L 190.178453 175.991683 
L 189.126291 174.361919 
L 188.059131 172.266509 
L 187.135501 169.938275 
L 186.344653 167.377218 
L 185.581648 164.117691 
L 184.948138 160.392517 
L 184.432309 155.968873 
L 184.069136 150.846759 
L 184.057556 150.613936 
L 184.057556 150.613936 
" style="fill:none;stroke:#35b779;stroke-width:1.5;"/>
    <path clip-path="url(#pa9446ab194)" d="M 267.583165 143.396412 
L 267.687797 137.575828 
L 268.011155 131.988067 
L 268.513968 127.150427 
L 269.145886 123.140779 
L 269.92076 119.648428 
L 270.755053 116.854548 
L 271.656041 114.526314 
L 272.701876 112.416007 
L 273.878119 110.568317 
L 275.028492 109.147069 
L 276.424461 107.803382 
L 277.820431 106.782383 
L 279.2164 106.020042 
L 280.845031 105.403854 
L 282.473662 105.04427 
L 284.102293 104.919971 
L 285.730924 105.023842 
L 287.359555 105.361685 
L 288.988186 105.953771 
L 290.384156 106.691742 
L 291.780125 107.683248 
L 293.127799 108.938554 
L 294.123325 110.10267 
L 295.270049 111.770335 
L 296.376027 113.827844 
L 297.260929 115.923255 
L 298.108976 118.484312 
L 298.87334 121.511015 
L 299.526471 125.003366 
L 300.077915 129.194186 
L 300.488489 134.083477 
L 300.72525 139.671238 
L 300.751192 145.491822 
L 300.556456 151.312406 
L 300.155942 156.611779 
L 299.598829 161.090987 
L 298.923709 164.816161 
L 298.108976 168.075688 
L 297.260929 170.636745 
L 296.264211 172.964979 
L 295.246659 174.827566 
L 294.106741 176.478896 
L 292.903072 177.85427 
L 291.547464 179.061802 
L 290.151494 180.007564 
L 288.755525 180.707604 
L 287.126894 181.261507 
L 285.498263 181.564972 
L 283.869632 181.636257 
L 282.241001 181.479136 
L 280.61237 181.084503 
L 279.2164 180.539958 
L 277.72646 179.716857 
L 276.424461 178.756618 
L 275.222135 177.621446 
L 274.049532 176.224506 
L 272.934538 174.547694 
L 271.865229 172.499332 
L 270.918024 170.171099 
L 270.108621 167.610042 
L 269.328852 164.350515 
L 268.681772 160.625341 
L 268.154271 156.201697 
L 267.781139 151.079583 
L 267.598681 145.491822 
L 267.583165 143.396412 
L 267.583165 143.396412 
" style="fill:none;stroke:#35b779;stroke-width:1.5;"/>
    <path clip-path="url(#pa9446ab194)" d="M 351.336069 147.354409 
L 351.292897 141.533825 
L 351.469279 135.713241 
L 351.854205 130.358303 
L 352.416114 125.701836 
L 353.077069 121.976662 
L 353.87403 118.717135 
L 354.702528 116.156078 
L 355.674048 113.827844 
L 356.692703 111.914587 
L 357.856011 110.194158 
L 359.147202 108.70573 
L 360.447499 107.541613 
L 361.811258 106.603982 
L 363.207227 105.889787 
L 364.835858 105.321578 
L 366.464489 105.005277 
L 368.09312 104.921785 
L 369.721751 105.066575 
L 371.350382 105.448099 
L 372.746352 105.979987 
L 374.142321 106.727645 
L 375.590249 107.774437 
L 376.93426 109.051878 
L 378.17154 110.568317 
L 379.260876 112.262142 
L 380.290741 114.293491 
L 381.214418 116.621725 
L 382.068016 119.415605 
L 382.814606 122.675132 
L 383.448784 126.500758 
L 383.939236 130.82395 
L 384.292277 135.946064 
L 384.457063 141.533825 
L 384.41386 147.354409 
L 384.158492 152.94217 
L 383.726915 157.83146 
L 383.150941 162.022281 
L 382.415694 165.747455 
L 381.587491 168.811154 
L 380.656845 171.41298 
L 379.609657 173.663449 
L 378.496822 175.526036 
L 377.249556 177.1558 
L 376.003614 178.428072 
L 374.607644 179.528796 
L 373.092311 180.415327 
L 371.583044 181.037139 
L 369.954413 181.453801 
L 368.325782 181.63154 
L 366.686925 181.579444 
L 365.06852 181.298369 
L 363.439889 180.768039 
L 362.043919 180.091223 
L 360.64795 179.173279 
L 359.251981 177.960138 
L 358.088673 176.663063 
L 356.925365 175.024117 
L 355.900747 173.197803 
L 354.968653 171.102392 
L 354.079529 168.541335 
L 353.280594 165.514631 
L 352.599095 162.022281 
L 352.023011 157.83146 
L 351.591525 152.94217 
L 351.341487 147.55606 
L 351.336069 147.354409 
L 351.336069 147.354409 
" style="fill:none;stroke:#35b779;stroke-width:1.5;"/>
   </g>
   <g id="LineCollection_6">
    <path clip-path="url(#pa9446ab194)" d="M 105.176395 146.655939 
L 105.08815 142.930765 
L 105.217874 139.205591 
L 105.551224 135.713241 
L 106.078307 132.453713 
L 106.740295 129.659833 
L 107.512161 127.265639 
L 108.442808 125.090116 
L 109.401114 123.373602 
L 110.536762 121.815442 
L 111.743984 120.579722 
L 112.863377 119.73589 
L 114.026685 119.116912 
L 115.240894 118.717135 
L 116.353301 118.552316 
L 117.516609 118.580271 
L 118.679917 118.813639 
L 119.843224 119.263072 
L 121.006532 119.950398 
L 122.16984 120.91272 
L 123.333148 122.210533 
L 124.4333 123.839249 
L 125.2883 125.469013 
L 126.146701 127.564423 
L 126.935877 130.12548 
L 127.56164 132.91936 
L 128.056109 136.178887 
L 128.360373 139.671238 
L 128.463029 143.396412 
L 128.34658 147.121586 
L 128.02811 150.613936 
L 127.517569 153.873463 
L 126.810059 156.900167 
L 125.974742 159.461224 
L 125.063668 161.556634 
L 124.031133 163.369712 
L 122.951623 164.816161 
L 121.937179 165.864209 
L 120.773871 166.767602 
L 119.610563 167.405001 
L 118.30789 167.842865 
L 117.283947 168.001589 
L 116.120639 167.988883 
L 114.957331 167.771174 
L 113.794024 167.338566 
L 112.630716 166.67018 
L 111.467408 165.730236 
L 110.3041 164.460238 
L 109.256619 162.953574 
L 108.372149 161.323811 
L 107.487897 159.228401 
L 106.676356 156.667344 
L 106.032849 153.873463 
L 105.522072 150.613936 
L 105.203115 147.121586 
L 105.176395 146.655939 
L 105.176395 146.655939 
" style="fill:none;stroke:#90d743;stroke-width:1.5;"/>
    <path clip-path="url(#pa9446ab194)" d="M 188.933315 147.587232 
L 188.78981 143.862058 
L 188.864711 140.136885 
L 189.166508 136.411711 
L 189.645084 133.152184 
L 190.313801 130.12548 
L 191.103586 127.564423 
L 191.968311 125.453531 
L 192.956415 123.606426 
L 194.062265 122.027098 
L 195.225573 120.775566 
L 196.388881 119.85035 
L 197.578496 119.182782 
L 198.715497 118.772951 
L 199.878805 118.565652 
L 201.042113 118.563111 
L 202.20542 118.765212 
L 203.372289 119.182782 
L 204.605402 119.881252 
L 205.763249 120.812545 
L 206.858652 121.991116 
L 207.848608 123.373602 
L 208.763932 125.003366 
L 209.675072 127.098776 
L 210.509712 129.659833 
L 211.171472 132.453713 
L 211.698933 135.713241 
L 212.032024 139.205591 
L 212.161984 142.930765 
L 212.073254 146.655939 
L 211.756398 150.381113 
L 211.261782 153.64064 
L 210.574099 156.667344 
L 209.761724 159.228401 
L 208.87783 161.323811 
L 207.848608 163.186398 
L 206.846725 164.583338 
L 205.695344 165.811214 
L 204.532036 166.729128 
L 203.368728 167.378898 
L 202.20542 167.794788 
L 201.042113 167.996889 
L 199.878805 167.994348 
L 198.715497 167.787049 
L 197.552189 167.365601 
L 196.344213 166.678748 
L 195.186427 165.747455 
L 194.062265 164.532902 
L 192.956415 162.953574 
L 192.07225 161.323811 
L 191.188224 159.228401 
L 190.440358 156.900167 
L 189.778515 154.106287 
L 189.251177 150.846759 
L 188.933315 147.587232 
L 188.933315 147.587232 
" style="fill:none;stroke:#90d743;stroke-width:1.5;"/>
    <path clip-path="url(#pa9446ab194)" d="M 272.685564 148.285702 
L 272.499783 144.560529 
L 272.533917 140.835355 
L 272.791673 137.110181 
L 273.263247 133.61783 
L 273.894385 130.591127 
L 274.6415 128.03007 
L 275.554433 125.701836 
L 276.51683 123.839249 
L 277.618096 122.209485 
L 278.751077 120.94076 
L 279.914385 119.97092 
L 281.077693 119.277242 
L 282.241001 118.822177 
L 283.404309 118.583578 
L 284.567616 118.550539 
L 285.730924 118.721559 
L 286.894232 119.1045 
L 288.05754 119.717372 
L 289.220848 120.592047 
L 290.384156 121.781002 
L 291.397943 123.140779 
L 292.345855 124.770542 
L 293.19335 126.633129 
L 294.006699 128.961363 
L 294.675159 131.52242 
L 295.237023 134.549124 
L 295.624654 137.808651 
L 295.838969 141.533825 
L 295.832181 145.258999 
L 295.603509 148.984172 
L 295.164127 152.476523 
L 294.568798 155.503227 
L 293.786183 158.297107 
L 292.899568 160.625341 
L 291.968284 162.487928 
L 290.849479 164.197671 
L 289.686171 165.533945 
L 288.522863 166.526518 
L 287.359555 167.23937 
L 286.196247 167.711403 
L 285.03294 167.965734 
L 283.869632 168.01403 
L 282.641423 167.842865 
L 281.543016 167.491889 
L 280.379708 166.897234 
L 279.144293 165.980278 
L 277.998173 164.816161 
L 276.889785 163.325 
L 275.886243 161.556634 
L 274.97513 159.461224 
L 274.206152 157.13299 
L 273.525515 154.33911 
L 273.01269 151.312406 
L 272.685564 148.285702 
L 272.685564 148.285702 
" style="fill:none;stroke:#90d743;stroke-width:1.5;"/>
    <path clip-path="url(#pa9446ab194)" d="M 356.225077 145.491822 
L 356.204822 141.766648 
L 356.405024 138.041474 
L 356.813213 134.549124 
L 357.390688 131.449866 
L 358.114449 128.72854 
L 359.019319 126.238194 
L 359.951033 124.304896 
L 360.971474 122.675132 
L 362.117796 121.278192 
L 363.207227 120.276419 
L 364.370535 119.491343 
L 365.551097 118.949958 
L 366.697151 118.643347 
L 367.860459 118.538992 
L 369.023767 118.638241 
L 370.19913 118.949958 
L 371.350382 119.475048 
L 372.51369 120.253449 
L 373.676998 121.324693 
L 374.77868 122.675132 
L 375.668003 124.072072 
L 376.599322 125.934659 
L 377.408933 128.03007 
L 378.155456 130.591127 
L 378.787147 133.61783 
L 379.234504 136.877357 
L 379.496772 140.369708 
L 379.557695 144.094882 
L 379.399857 147.820056 
L 379.028214 151.380935 
L 378.476151 154.571933 
L 377.776246 157.365814 
L 376.93426 159.82458 
L 376.003614 161.872294 
L 374.941396 163.652045 
L 373.847513 165.048985 
L 372.746352 166.117537 
L 371.583044 166.950312 
L 370.419736 167.527015 
L 369.256428 167.87728 
L 368.09312 168.017456 
L 366.929812 167.953892 
L 365.766505 167.683772 
L 364.509977 167.144395 
L 363.418207 166.445925 
L 362.276581 165.446593 
L 361.113273 164.081064 
L 360.081992 162.487928 
L 359.150676 160.625341 
L 358.321334 158.471446 
L 357.594381 155.968873 
L 356.963045 152.94217 
L 356.515641 149.682643 
L 356.253375 146.190292 
L 356.225077 145.491822 
L 356.225077 145.491822 
" style="fill:none;stroke:#90d743;stroke-width:1.5;"/>
   </g>
   <g id="LineCollection_7">
    <path clip-path="url(#pa9446ab194)" d="M 113.092349 145.491822 
L 112.939352 143.629235 
L 113.008822 141.766648 
L 113.315045 139.904061 
L 113.74665 138.507121 
L 114.307575 137.343004 
L 115.009276 136.411711 
L 115.655316 135.887871 
L 116.353301 135.604 
L 117.051286 135.577758 
L 117.74927 135.806483 
L 118.447255 136.316975 
L 119.14524 137.183637 
L 119.708486 138.274298 
L 120.175465 139.671238 
L 120.488659 141.301001 
L 120.614115 143.163588 
L 120.517578 145.026175 
L 120.175465 146.888762 
L 119.708486 148.285702 
L 119.096204 149.449819 
L 118.447255 150.243025 
L 117.74927 150.753517 
L 117.051286 150.982242 
L 116.353301 150.956 
L 115.655316 150.672129 
L 114.957331 150.095927 
L 114.259347 149.136871 
L 113.66047 147.820056 
L 113.262921 146.423115 
L 113.092349 145.491822 
L 113.092349 145.491822 
" style="fill:none;stroke:#fde725;stroke-width:1.5;"/>
    <path clip-path="url(#pa9446ab194)" d="M 196.829 145.724645 
L 196.645349 143.862058 
L 196.687654 141.999471 
L 196.96327 140.136885 
L 197.447401 138.507121 
L 198.017512 137.323772 
L 198.715497 136.402747 
L 199.413482 135.853946 
L 200.111466 135.59219 
L 200.809451 135.586942 
L 201.507436 135.837668 
L 202.241377 136.411711 
L 202.942688 137.343004 
L 203.502627 138.507121 
L 203.933506 139.904061 
L 204.216607 141.533825 
L 204.315156 143.396412 
L 204.18813 145.258999 
L 203.834051 147.049247 
L 203.306813 148.518526 
L 202.634059 149.682643 
L 201.972759 150.400558 
L 201.245652 150.846759 
L 200.576789 150.999292 
L 199.878805 150.910047 
L 199.18082 150.557701 
L 198.482835 149.898076 
L 197.784851 148.815139 
L 197.279351 147.587232 
L 196.854204 145.875315 
L 196.829 145.724645 
L 196.829 145.724645 
" style="fill:none;stroke:#fde725;stroke-width:1.5;"/>
    <path clip-path="url(#pa9446ab194)" d="M 280.369178 144.327705 
L 280.355689 142.465118 
L 280.569515 140.602531 
L 280.980188 138.972768 
L 281.543016 137.632977 
L 282.241001 136.593517 
L 282.964254 135.946064 
L 283.63697 135.63288 
L 284.334955 135.564642 
L 285.03294 135.749581 
L 285.730924 136.209568 
L 286.428909 137.008798 
L 287.006302 138.041474 
L 287.512534 139.438414 
L 287.856913 141.068178 
L 288.011059 142.930765 
L 287.941068 144.793352 
L 287.634246 146.655939 
L 287.202842 148.052879 
L 286.643428 149.216996 
L 285.942088 150.148289 
L 285.265601 150.68932 
L 284.567616 150.962124 
L 283.869632 150.977869 
L 283.171647 150.738152 
L 282.473662 150.214932 
L 281.775678 149.330245 
L 281.241197 148.285702 
L 280.774276 146.888762 
L 280.46172 145.258999 
L 280.369178 144.327705 
L 280.369178 144.327705 
" style="fill:none;stroke:#fde725;stroke-width:1.5;"/>
    <path clip-path="url(#pa9446ab194)" d="M 364.131953 145.026175 
L 364.036097 143.163588 
L 364.160729 141.301001 
L 364.474555 139.671238 
L 364.941552 138.274298 
L 365.552737 137.110181 
L 366.231828 136.289379 
L 366.929812 135.791575 
L 367.627797 135.573823 
L 368.325782 135.610562 
L 369.083643 135.946064 
L 369.721751 136.495657 
L 370.419736 137.474106 
L 370.989506 138.739944 
L 371.387594 140.136885 
L 371.662201 141.999471 
L 371.703567 143.862058 
L 371.520271 145.724645 
L 371.117721 147.443737 
L 370.595915 148.751349 
L 369.954413 149.788828 
L 369.256428 150.493211 
L 368.558443 150.881143 
L 367.860459 151.001915 
L 367.106887 150.846759 
L 366.464489 150.470763 
L 365.766505 149.751329 
L 365.154568 148.751349 
L 364.680004 147.587232 
L 364.314087 146.190292 
L 364.131953 145.026175 
L 364.131953 145.026175 
" style="fill:none;stroke:#fde725;stroke-width:1.5;"/>
   </g>
   <g id="line2d_1">
    <path clip-path="url(#pa9446ab194)" d="M 54 195.36 
L 388.8 195.36 
" style="fill:none;stroke:#ff0000;stroke-linecap:square;stroke-width:1.5;"/>
   </g>
   <g id="line2d_2">
    <path clip-path="url(#pa9446ab194)" d="M 54 91.2 
L 388.8 91.2 
" style="fill:none;stroke:#ff0000;stroke-linecap:square;stroke-width:1.5;"/>
   </g>
   <g id="patch_3">
    <path d="M 54 252 
L 54 34.56 
" style="fill:none;stroke:#000000;stroke-linecap:square;stroke-linejoin:miter;stroke-width:0.8;"/>
   </g>
   <g id="patch_4">
    <path d="M 388.8 252 
L 388.8 34.56 
" style="fill:none;stroke:#000000;stroke-linecap:square;stroke-linejoin:miter;stroke-width:0.8;"/>
   </g>
   <g id="patch_5">
    <path d="M 54 252 
L 388.8 252 
" style="fill:none;stroke:#000000;stroke-linecap:square;stroke-linejoin:miter;stroke-width:0.8;"/>
   </g>
   <g id="patch_6">
    <path d="M 54 34.56 
L 388.8 34.56 
" style="fill:none;stroke:#000000;stroke-linecap:square;stroke-linejoin:miter;stroke-width:0.8;"/>
   </g>
  </g>
 </g>
 <defs>
  <clipPath id="pa9446ab194">
   <rect height="217.44" width="334.8" x="54" y="34.56"/>
  </clipPath>
 </defs>
</svg>
