<?xml version="1.0" encoding="utf-8" standalone="no"?>
<!DOCTYPE svg PUBLIC "-//W3C//DTD SVG 1.1//EN"
  "http://www.w3.org/Graphics/SVG/1.1/DTD/svg11.dtd">
<!-- Created with matplotlib (http://matplotlib.org/) -->
<svg height="288pt" version="1.1" viewBox="0 0 432 288" width="432pt" xmlns="http://www.w3.org/2000/svg" xmlns:xlink="http://www.w3.org/1999/xlink">
 <defs>
  <style type="text/css">
*{stroke-linecap:butt;stroke-linejoin:round;}
  </style>
 </defs>
 <g id="figure_1">
  <g id="patch_1">
   <path d="M 0 288 
L 432 288 
L 432 0 
L 0 0 
z
" style="fill:#ffffff;"/>
  </g>
  <g id="axes_1">
   <g id="patch_2">
    <path d="M 54 252 
L 388.8 252 
L 388.8 34.56 
L 54 34.56 
z
" style="fill:#ffffff;"/>
   </g>
   <g id="matplotlib.axis_1"/>
   <g id="matplotlib.axis_2"/>
   <g id="LineCollection_1">
    <path clip-path="url(#pf39a4fcd89)" d="M 54 130.063065 
L 55.395969 129.962516 
L 56.791939 129.650621 
L 58.187908 129.089924 
L 59.351216 128.379578 
L 60.310597 127.564423 
L 61.298892 126.400306 
L 62.010017 125.236189 
L 62.620389 123.839249 
L 63.091053 122.209485 
L 63.388311 120.346898 
L 63.473165 118.251488 
L 63.318531 116.156078 
L 62.974881 114.293491 
L 62.411179 112.430904 
L 61.677832 110.777569 
L 60.747186 109.276091 
L 59.816539 108.166866 
L 58.653231 107.14737 
L 57.489924 106.427942 
L 56.213709 105.91185 
L 54.930646 105.636471 
L 54 105.57864 
L 54 105.57864 
" style="fill:none;stroke:#440154;stroke-width:1.5;"/>
    <path clip-path="url(#pf39a4fcd89)" d="M 388.8 105.57864 
L 387.404031 105.709346 
L 386.240723 106.025807 
L 384.973481 106.61032 
L 383.914107 107.324338 
L 382.750799 108.415652 
L 381.800161 109.637024 
L 380.991774 111.033964 
L 380.304944 112.663727 
L 379.770723 114.526314 
L 379.45272 116.388901 
L 379.324213 118.484312 
L 379.43662 120.579722 
L 379.763129 122.442309 
L 380.266754 124.072072 
L 380.914692 125.469013 
L 381.672548 126.633129 
L 382.518138 127.592777 
L 383.681445 128.54323 
L 384.844753 129.203589 
L 386.240723 129.71819 
L 387.636692 129.993337 
L 388.8 130.063065 
L 388.8 130.063065 
" style="fill:none;stroke:#440154;stroke-width:1.5;"/>
    <path clip-path="url(#pf39a4fcd89)" d="M 86.56342 170.636745 
L 86.932707 172.499332 
L 87.527253 174.361919 
L 88.285061 175.991683 
L 89.180374 177.388623 
L 90.192282 178.55274 
L 91.296074 179.484033 
L 92.462061 180.182503 
L 93.636055 180.64815 
L 94.948436 180.927093 
L 96.344406 180.965062 
L 97.740375 180.740042 
L 98.903683 180.33813 
L 100.066991 179.713657 
L 101.26379 178.785563 
L 102.340604 177.621446 
L 103.14656 176.45733 
L 103.981875 174.827566 
L 104.573277 173.197803 
L 105.021885 171.335216 
L 105.283419 169.239805 
L 105.306445 167.144395 
L 105.118043 165.281808 
L 104.699542 163.419221 
L 104.088695 161.789458 
L 103.310106 160.392517 
L 102.387895 159.228401 
L 101.357328 158.297107 
L 100.283231 157.598637 
L 98.903683 156.994366 
L 97.507714 156.638992 
L 96.111744 156.500455 
L 94.715775 156.563209 
L 93.319805 156.833824 
L 91.923836 157.342983 
L 90.760528 157.997269 
L 89.784941 158.762754 
L 88.899236 159.701225 
L 88.098215 160.858164 
L 87.409053 162.255104 
L 86.871457 163.884868 
L 86.514972 165.747455 
L 86.377696 167.610042 
L 86.453913 169.705452 
L 86.56342 170.636745 
L 86.56342 170.636745 
" style="fill:none;stroke:#440154;stroke-width:1.5;"/>
    <path clip-path="url(#pf39a4fcd89)" d="M 128.431646 121.278192 
L 128.783997 122.907955 
L 129.382349 124.595999 
L 130.089118 125.934659 
L 131.01098 127.165841 
L 131.941626 128.063824 
L 133.104934 128.870238 
L 134.268242 129.428133 
L 135.664211 129.847276 
L 137.060181 130.042019 
L 138.45615 130.033659 
L 139.85212 129.821251 
L 141.248089 129.38135 
L 142.531955 128.72854 
L 143.574705 127.96563 
L 144.505351 127.032633 
L 145.310213 125.934659 
L 146.042863 124.537719 
L 146.616457 122.907955 
L 147.003272 121.045369 
L 147.16576 119.182782 
L 147.11639 117.087371 
L 146.828012 114.991961 
L 146.351623 113.129374 
L 145.668659 111.366956 
L 144.851592 109.869847 
L 144.001275 108.70573 
L 142.87672 107.563532 
L 141.713412 106.719443 
L 140.550104 106.136231 
L 139.386796 105.770276 
L 137.990827 105.584277 
L 136.594858 105.66026 
L 135.43155 105.927954 
L 134.268242 106.398489 
L 133.104934 107.104812 
L 131.941626 108.107321 
L 131.01098 109.196773 
L 130.080334 110.668426 
L 129.377054 112.198081 
L 128.782699 114.060668 
L 128.413659 115.923255 
L 128.232019 118.018665 
L 128.289868 120.114075 
L 128.431646 121.278192 
L 128.431646 121.278192 
" style="fill:none;stroke:#440154;stroke-width:1.5;"/>
    <path clip-path="url(#pf39a4fcd89)" d="M 170.090427 168.774159 
L 170.298626 170.869569 
L 170.693777 172.732156 
L 171.320554 174.594743 
L 172.115959 176.224506 
L 172.890063 177.402276 
L 173.892131 178.55274 
L 174.99513 179.484033 
L 176.160806 180.182503 
L 177.334377 180.64815 
L 178.706602 180.933881 
L 180.102571 180.960999 
L 181.498541 180.724775 
L 182.661849 180.312458 
L 183.825156 179.67565 
L 184.988464 178.763211 
L 186.040323 177.621446 
L 186.849757 176.452998 
L 187.681582 174.827566 
L 188.273614 173.197803 
L 188.722286 171.335216 
L 188.98366 169.239805 
L 189.006571 167.144395 
L 188.817941 165.281808 
L 188.399169 163.419221 
L 187.780403 161.770609 
L 187.009594 160.392517 
L 186.087224 159.228401 
L 184.988464 158.244618 
L 183.825156 157.514736 
L 182.429187 156.936794 
L 181.033218 156.610512 
L 179.637248 156.497326 
L 178.241279 156.585259 
L 176.7898 156.900167 
L 175.44934 157.426493 
L 174.286032 158.117559 
L 173.239966 158.995577 
L 172.421795 159.926871 
L 171.664988 161.090987 
L 171.016294 162.487928 
L 170.513217 164.117691 
L 170.186744 165.980278 
L 170.074294 167.842865 
L 170.090427 168.774159 
L 170.090427 168.774159 
" style="fill:none;stroke:#440154;stroke-width:1.5;"/>
    <path clip-path="url(#pf39a4fcd89)" d="M 211.970835 119.881252 
L 212.212633 121.743839 
L 212.675191 123.53697 
L 213.272232 125.003366 
L 214.071161 126.358615 
L 214.862929 127.331599 
L 215.932453 128.293685 
L 217.095761 129.030136 
L 218.49173 129.613865 
L 219.8877 129.944966 
L 221.283669 130.06237 
L 222.679639 129.978638 
L 224.159725 129.659833 
L 225.471577 129.147797 
L 226.634885 128.463102 
L 227.710092 127.564423 
L 228.527846 126.633129 
L 229.284882 125.469013 
L 229.933447 124.072072 
L 230.436644 122.442309 
L 230.763365 120.579722 
L 230.87551 118.717135 
L 230.773228 116.621725 
L 230.429132 114.526314 
L 229.892147 112.653705 
L 229.194163 111.004572 
L 228.399262 109.637024 
L 227.49999 108.472907 
L 226.402224 107.417836 
L 225.227907 106.61032 
L 224.075608 106.068454 
L 222.9123 105.732308 
L 221.516331 105.579542 
L 220.120361 105.688253 
L 218.957054 105.985172 
L 217.793746 106.488512 
L 216.630438 107.234442 
L 215.513682 108.240083 
L 214.730276 109.171377 
L 213.834382 110.568317 
L 213.077547 112.198081 
L 212.482438 114.060668 
L 212.113916 115.923255 
L 211.932261 118.018665 
L 211.970835 119.881252 
L 211.970835 119.881252 
" style="fill:none;stroke:#440154;stroke-width:1.5;"/>
    <path clip-path="url(#pf39a4fcd89)" d="M 253.853347 169.705452 
L 254.122252 171.568039 
L 254.598629 173.430626 
L 255.252259 175.13007 
L 256.098344 176.690153 
L 256.948996 177.85427 
L 258.044197 178.971307 
L 259.207505 179.82288 
L 260.379284 180.415327 
L 261.534121 180.782983 
L 262.93009 180.974539 
L 264.32606 180.903991 
L 265.489368 180.64115 
L 266.652675 180.176031 
L 267.815983 179.476224 
L 268.979291 178.482151 
L 269.920085 177.388623 
L 270.840584 175.945639 
L 271.572657 174.361919 
L 272.167391 172.499332 
L 272.536176 170.636745 
L 272.717954 168.541335 
L 272.660286 166.445925 
L 272.390688 164.583338 
L 271.951441 162.953574 
L 271.305907 161.412436 
L 270.549038 160.159694 
L 269.560034 158.995577 
L 268.513968 158.117559 
L 267.35066 157.426493 
L 266.0102 156.900167 
L 264.791383 156.619646 
L 263.395413 156.498021 
L 261.999444 156.577554 
L 260.490459 156.900167 
L 259.207505 157.398031 
L 258.044197 158.076383 
L 256.88089 159.054049 
L 255.950243 160.159821 
L 255.122235 161.556634 
L 254.548162 162.953574 
L 254.088951 164.682968 
L 253.839522 166.445925 
L 253.782405 168.541335 
L 253.853347 169.705452 
L 253.853347 169.705452 
" style="fill:none;stroke:#440154;stroke-width:1.5;"/>
    <path clip-path="url(#pf39a4fcd89)" d="M 295.711366 120.346898 
L 296.009141 122.209485 
L 296.479912 123.839249 
L 297.131341 125.315175 
L 297.972563 126.633129 
L 298.789414 127.564423 
L 299.92328 128.503806 
L 301.125456 129.194186 
L 302.482557 129.701928 
L 303.878527 129.986165 
L 305.274496 130.061501 
L 306.670466 129.935653 
L 308.066435 129.594879 
L 309.462404 128.999516 
L 310.625712 128.249535 
L 311.637126 127.331599 
L 312.559597 126.167483 
L 313.338635 124.770542 
L 313.882974 123.35831 
L 314.329613 121.511015 
L 314.544363 119.648428 
L 314.547989 117.553018 
L 314.313271 115.457608 
L 313.882974 113.563332 
L 313.231826 111.732434 
L 312.487005 110.253916 
L 311.556359 108.894898 
L 310.513191 107.774437 
L 309.462404 106.942514 
L 308.299097 106.287045 
L 307.135789 105.859026 
L 305.739819 105.605945 
L 304.34385 105.616791 
L 303.180542 105.827532 
L 302.017234 106.23464 
L 300.853926 106.86527 
L 299.685727 107.774437 
L 298.609597 108.938554 
L 297.803172 110.10267 
L 296.968318 111.732434 
L 296.376595 113.362197 
L 295.927952 115.224784 
L 295.666497 117.320195 
L 295.643529 119.415605 
L 295.711366 120.346898 
L 295.711366 120.346898 
" style="fill:none;stroke:#440154;stroke-width:1.5;"/>
    <path clip-path="url(#pf39a4fcd89)" d="M 337.60249 170.171099 
L 337.920878 172.033686 
L 338.454909 173.896273 
L 339.141771 175.526036 
L 339.950016 176.922976 
L 340.871716 178.112176 
L 342.035024 179.212543 
L 343.198332 179.992621 
L 344.36164 180.52372 
L 345.727275 180.880974 
L 346.920917 180.981304 
L 348.316887 180.856102 
L 349.480195 180.544539 
L 350.776534 179.94968 
L 351.816011 179.25121 
L 352.970118 178.176309 
L 353.949534 176.922976 
L 354.831411 175.377507 
L 355.525735 173.663449 
L 356.030174 171.800862 
L 356.346087 169.705452 
L 356.422304 167.610042 
L 356.285028 165.747455 
L 355.928543 163.884868 
L 355.390947 162.255104 
L 354.701785 160.858164 
L 353.894919 159.694047 
L 352.970118 158.721896 
L 351.782795 157.83146 
L 350.643502 157.239625 
L 349.247533 156.773407 
L 347.851564 156.538762 
L 346.455594 156.509497 
L 345.059625 156.682302 
L 343.663655 157.07689 
L 342.500347 157.607513 
L 341.33704 158.378922 
L 340.406393 159.23447 
L 339.475747 160.413773 
L 338.711305 161.789458 
L 338.100458 163.419221 
L 337.720813 165.048985 
L 337.505911 166.911572 
L 337.502313 169.006982 
L 337.60249 170.171099 
L 337.60249 170.171099 
" style="fill:none;stroke:#440154;stroke-width:1.5;"/>
   </g>
   <g id="LineCollection_2">
    <path clip-path="url(#pf39a4fcd89)" d="M 54 135.181686 
L 56.093954 135.069034 
L 57.955247 134.766204 
L 59.816539 134.230329 
L 61.44517 133.505373 
L 62.84114 132.609663 
L 64.004448 131.573497 
L 64.935094 130.454228 
L 65.721485 129.194186 
L 66.464581 127.564423 
L 67.056319 125.701836 
L 67.494371 123.597231 
L 67.786511 121.045369 
L 67.871643 118.251488 
L 67.727033 115.287298 
L 67.394917 112.663727 
L 66.859542 110.10267 
L 66.145559 107.774437 
L 65.367577 105.91185 
L 64.469771 104.265037 
L 63.317021 102.652323 
L 62.234426 101.488206 
L 60.979847 100.442396 
L 59.583878 99.571071 
L 58.144276 98.927149 
L 56.544168 98.461502 
L 54.930646 98.226044 
L 54 98.190148 
L 54 98.190148 
" style="fill:none;stroke:#443983;stroke-width:1.5;"/>
    <path clip-path="url(#pf39a4fcd89)" d="M 388.8 98.190148 
L 387.171369 98.300347 
L 385.542738 98.638628 
L 383.914107 99.229604 
L 382.518138 99.972935 
L 381.122168 100.988744 
L 379.885228 102.186676 
L 378.777935 103.583616 
L 377.785394 105.21338 
L 376.921162 107.075967 
L 376.196518 109.171377 
L 375.62002 111.499611 
L 375.20338 114.060668 
L 374.967078 116.854548 
L 374.942961 119.648428 
L 375.145202 122.442309 
L 375.53829 124.836023 
L 376.086527 126.865953 
L 376.728307 128.495716 
L 377.486368 129.892656 
L 378.33223 131.056773 
L 379.493537 132.233928 
L 380.745979 133.152184 
L 382.052814 133.851504 
L 383.681445 134.462601 
L 385.542738 134.903953 
L 387.636692 135.147165 
L 388.8 135.181686 
L 388.8 135.181686 
" style="fill:none;stroke:#443983;stroke-width:1.5;"/>
    <path clip-path="url(#pf39a4fcd89)" d="M 82.150338 171.568039 
L 82.535699 174.361919 
L 83.113871 176.922976 
L 83.879437 179.25121 
L 84.713162 181.113797 
L 85.669232 182.743561 
L 86.805281 184.227937 
L 87.968589 185.395736 
L 89.382154 186.468734 
L 90.760528 187.236688 
L 92.389159 187.861999 
L 94.01779 188.230177 
L 95.646421 188.368138 
L 97.275052 188.28558 
L 98.903683 187.976799 
L 100.532314 187.419427 
L 101.943691 186.701558 
L 103.324253 185.739204 
L 104.549292 184.606147 
L 105.706487 183.209207 
L 106.738274 181.579444 
L 107.534914 179.94968 
L 108.311107 177.85427 
L 108.931301 175.526036 
L 109.386134 172.964979 
L 109.658441 170.171099 
L 109.717945 167.377218 
L 109.555963 164.583338 
L 109.173962 162.022281 
L 108.63892 159.926871 
L 107.921564 158.064284 
L 107.046838 156.485832 
L 106.116192 155.269485 
L 104.952884 154.156111 
L 103.789576 153.337255 
L 102.393607 152.618407 
L 100.672482 152.010876 
L 98.903683 151.621463 
L 96.809729 151.401786 
L 94.715775 151.411125 
L 92.621821 151.650956 
L 90.760528 152.088578 
L 89.101352 152.709346 
L 87.735928 153.445333 
L 86.528652 154.33911 
L 85.409312 155.471186 
L 84.536283 156.667344 
L 83.778161 158.064284 
L 83.082696 159.858973 
L 82.574281 161.789458 
L 82.195124 164.117691 
L 82.00071 166.678748 
L 82.006964 169.472629 
L 82.150338 171.568039 
L 82.150338 171.568039 
" style="fill:none;stroke:#443983;stroke-width:1.5;"/>
    <path clip-path="url(#pf39a4fcd89)" d="M 124.018511 122.209485 
L 124.376205 124.537719 
L 124.911132 126.633129 
L 125.522967 128.262893 
L 126.357748 129.847397 
L 127.288395 131.122984 
L 128.378801 132.22089 
L 129.61501 133.133109 
L 131.01098 133.877655 
L 132.639611 134.480181 
L 134.500903 134.914084 
L 136.594858 135.150541 
L 138.688812 135.156767 
L 140.782766 134.933746 
L 142.644058 134.514588 
L 144.272689 133.928968 
L 145.754034 133.152184 
L 147.02135 132.22089 
L 147.995274 131.257455 
L 148.925921 130.029598 
L 149.660754 128.72854 
L 150.334722 127.098776 
L 150.871404 125.236189 
L 151.296109 122.907955 
L 151.52911 120.346898 
L 151.558888 117.553018 
L 151.375977 114.759138 
L 150.971424 111.965257 
L 150.370919 109.4042 
L 149.623905 107.189094 
L 148.714869 105.21338 
L 147.721902 103.583616 
L 146.599305 102.168997 
L 145.417546 101.022559 
L 144.040028 100.009363 
L 142.644058 99.255892 
L 141.015427 98.655188 
L 139.386796 98.308406 
L 137.758165 98.190288 
L 136.129534 98.292579 
L 134.500903 98.622392 
L 132.872272 99.203701 
L 131.476303 99.936978 
L 130.080334 100.940012 
L 128.917026 102.04243 
L 127.753718 103.475628 
L 126.811397 104.980556 
L 125.892425 106.901066 
L 125.166339 108.938554 
L 124.568477 111.266787 
L 124.132951 113.827844 
L 123.878608 116.621725 
L 123.83661 119.415605 
L 124.018511 122.209485 
L 124.018511 122.209485 
" style="fill:none;stroke:#443983;stroke-width:1.5;"/>
    <path clip-path="url(#pf39a4fcd89)" d="M 165.676764 168.075688 
L 165.789482 170.869569 
L 166.117154 173.663449 
L 166.631806 176.224506 
L 167.321254 178.55274 
L 168.182523 180.64815 
L 169.070137 182.277914 
L 170.098124 183.741508 
L 171.315403 185.071794 
L 172.657401 186.180276 
L 174.05337 187.034795 
L 175.44934 187.649224 
L 177.077971 188.114013 
L 178.706602 188.340382 
L 180.335233 188.344312 
L 181.963864 188.126071 
L 183.592495 187.670276 
L 184.988464 187.06485 
L 186.384434 186.221402 
L 187.547741 185.291941 
L 188.711049 184.093607 
L 189.730488 182.743561 
L 190.686393 181.113797 
L 191.520845 179.25121 
L 192.221045 177.1558 
L 192.821349 174.594743 
L 193.225987 171.800862 
L 193.408961 169.006982 
L 193.379221 166.213102 
L 193.131619 163.546211 
L 192.721471 161.323811 
L 192.184702 159.461224 
L 191.502988 157.815302 
L 190.71267 156.43452 
L 189.816623 155.270403 
L 188.711049 154.203915 
L 187.547741 153.372685 
L 186.151772 152.643737 
L 184.523141 152.05392 
L 182.661849 151.631095 
L 180.567894 151.404724 
L 178.47394 151.407837 
L 176.379986 151.640926 
L 174.518694 152.071124 
L 172.801797 152.709346 
L 171.494093 153.408564 
L 170.228877 154.33911 
L 169.167477 155.403069 
L 168.235956 156.667344 
L 167.478449 158.064284 
L 166.836224 159.694047 
L 166.274406 161.789458 
L 165.895012 164.117691 
L 165.700545 166.678748 
L 165.676764 168.075688 
L 165.676764 168.075688 
" style="fill:none;stroke:#443983;stroke-width:1.5;"/>
    <path clip-path="url(#pf39a4fcd89)" d="M 207.550469 119.881252 
L 207.745126 122.442309 
L 208.124408 124.770542 
L 208.686373 126.865953 
L 209.328521 128.495716 
L 210.115914 129.939537 
L 211.04656 131.190657 
L 212.078877 132.22089 
L 213.34559 133.152184 
L 214.651851 133.850654 
L 216.165115 134.426677 
L 218.026407 134.883087 
L 220.120361 135.139888 
L 222.214315 135.164798 
L 224.30827 134.961753 
L 226.222822 134.549124 
L 227.798193 134.003511 
L 229.194163 133.309426 
L 230.440899 132.453713 
L 231.520778 131.450193 
L 232.451425 130.289527 
L 233.244031 128.961363 
L 233.951545 127.331599 
L 234.545379 125.345747 
L 234.96372 123.140779 
L 235.216629 120.579722 
L 235.264771 117.785841 
L 235.099382 114.991961 
L 234.714337 112.198081 
L 234.136035 109.637024 
L 233.382071 107.337602 
L 232.536427 105.446203 
L 231.520778 103.727183 
L 230.35747 102.233588 
L 229.117085 101.022559 
L 227.798193 100.046266 
L 226.402224 99.282567 
L 224.773593 98.672071 
L 223.144962 98.316754 
L 221.516331 98.190708 
L 219.8877 98.285099 
L 218.259069 98.606476 
L 216.630438 99.178179 
L 215.234468 99.901487 
L 213.838499 100.891881 
L 212.675191 101.980315 
L 211.511883 103.394121 
L 210.511705 104.980556 
L 209.61654 106.843143 
L 208.866527 108.938554 
L 208.254621 111.331637 
L 207.803143 114.060668 
L 207.566832 116.854548 
L 207.542733 119.648428 
L 207.550469 119.881252 
L 207.550469 119.881252 
" style="fill:none;stroke:#443983;stroke-width:1.5;"/>
    <path clip-path="url(#pf39a4fcd89)" d="M 249.428373 169.938275 
L 249.682716 172.732156 
L 250.168753 175.526036 
L 250.831689 177.989008 
L 251.565158 179.94968 
L 252.492598 181.812267 
L 253.565835 183.442031 
L 254.554274 184.610446 
L 255.81518 185.770264 
L 257.156679 186.701558 
L 258.522762 187.400028 
L 260.138151 187.961362 
L 261.766782 188.278532 
L 263.395413 188.368977 
L 265.024044 188.238962 
L 266.697409 187.865675 
L 268.281306 187.263949 
L 269.717566 186.468734 
L 271.073245 185.446672 
L 272.236553 184.293791 
L 273.27168 182.976384 
L 274.264645 181.34662 
L 275.128523 179.484033 
L 275.853325 177.388623 
L 276.430253 175.060389 
L 276.874851 172.266509 
L 277.093185 169.472629 
L 277.099455 166.678748 
L 276.876594 163.884868 
L 276.47492 161.556634 
L 275.884479 159.461224 
L 275.210692 157.83146 
L 274.330507 156.31278 
L 273.399861 155.141331 
L 272.291027 154.106287 
L 271.073245 153.267697 
L 269.677276 152.568714 
L 268.048645 152.003868 
L 266.187352 151.602792 
L 264.093398 151.396432 
L 261.999444 151.418227 
L 259.90549 151.671621 
L 258.044197 152.124246 
L 256.415566 152.748796 
L 255.019597 153.520246 
L 253.856289 154.402097 
L 252.782694 155.503227 
L 251.936285 156.667344 
L 251.178542 158.064284 
L 250.536478 159.694047 
L 249.974369 161.789458 
L 249.595202 164.117691 
L 249.40059 166.678748 
L 249.406812 169.472629 
L 249.428373 169.938275 
L 249.428373 169.938275 
" style="fill:none;stroke:#443983;stroke-width:1.5;"/>
    <path clip-path="url(#pf39a4fcd89)" d="M 291.313268 121.045369 
L 291.607324 123.606426 
L 292.105915 125.934659 
L 292.726396 127.797246 
L 293.507489 129.42701 
L 294.443622 130.82395 
L 295.517712 131.988067 
L 296.688707 132.91936 
L 298.061987 133.714121 
L 299.690618 134.370853 
L 301.551911 134.850258 
L 303.645865 135.12765 
L 305.739819 135.171266 
L 307.833773 134.988001 
L 309.695066 134.611278 
L 311.323697 134.075217 
L 312.763116 133.385007 
L 314.115636 132.474207 
L 315.152894 131.52242 
L 316.103258 130.358303 
L 316.944211 128.961363 
L 317.651677 127.331599 
L 318.215201 125.469013 
L 318.629182 123.373602 
L 318.902282 120.812545 
L 318.968987 118.018665 
L 318.821337 115.224784 
L 318.45549 112.430904 
L 317.89889 109.869847 
L 317.159763 107.541613 
L 316.353953 105.679026 
L 315.433122 104.049263 
L 314.348297 102.56956 
L 313.082969 101.255382 
L 311.78902 100.238032 
L 310.333123 99.392796 
L 308.997081 98.838611 
L 307.36845 98.405107 
L 305.739819 98.207096 
L 304.111188 98.230676 
L 302.482557 98.477425 
L 300.853926 98.964876 
L 299.415304 99.625619 
L 298.061987 100.484841 
L 296.865244 101.488206 
L 295.735372 102.71035 
L 294.619977 104.282086 
L 293.732631 105.91185 
L 292.943433 107.804321 
L 292.240211 110.10267 
L 291.705048 112.663727 
L 291.358257 115.457608 
L 291.228353 118.251488 
L 291.313268 121.045369 
L 291.313268 121.045369 
" style="fill:none;stroke:#443983;stroke-width:1.5;"/>
    <path clip-path="url(#pf39a4fcd89)" d="M 333.189203 170.869569 
L 333.517334 173.663449 
L 334.032011 176.224506 
L 334.72154 178.55274 
L 335.582555 180.64815 
L 336.469795 182.277914 
L 337.614454 183.885247 
L 338.777762 185.131187 
L 340.173732 186.262012 
L 341.569701 187.09449 
L 342.965671 187.69098 
L 344.594302 188.137826 
L 346.222933 188.34796 
L 347.908906 188.331321 
L 349.494212 188.098498 
L 351.108826 187.62783 
L 352.63426 186.934381 
L 353.900764 186.138626 
L 355.184393 185.071794 
L 356.266787 183.907677 
L 357.390688 182.341598 
L 358.321334 180.640713 
L 359.178504 178.55274 
L 359.868003 176.224506 
L 360.382816 173.663449 
L 360.710583 170.869569 
L 360.823018 168.075688 
L 360.718957 165.281808 
L 360.404112 162.720751 
L 359.944383 160.625341 
L 359.323377 158.762754 
L 358.542852 157.13299 
L 357.606735 155.73605 
L 356.531934 154.571933 
L 355.360984 153.64064 
L 354.133426 152.91789 
L 352.504795 152.237483 
L 350.643502 151.738521 
L 348.78221 151.464353 
L 346.688256 151.380056 
L 344.594302 151.521283 
L 342.733009 151.85388 
L 341.104378 152.340272 
L 339.475747 153.070332 
L 338.211509 153.873463 
L 337.124473 154.804757 
L 336.115247 155.968873 
L 335.228438 157.365814 
L 334.485423 158.995577 
L 333.891869 160.864703 
L 333.426546 163.147834 
L 333.163397 165.514631 
L 333.078373 168.308512 
L 333.189203 170.869569 
L 333.189203 170.869569 
" style="fill:none;stroke:#443983;stroke-width:1.5;"/>
   </g>
   <g id="LineCollection_3">
    <path clip-path="url(#pf39a4fcd89)" d="M 54 139.384317 
L 57.0246 139.279143 
L 59.816539 138.969879 
L 62.143155 138.494735 
L 64.004448 137.894009 
L 65.400417 137.240217 
L 66.661875 136.411711 
L 67.727033 135.433006 
L 68.657679 134.235356 
L 69.390734 132.91936 
L 70.053648 131.241017 
L 70.605394 129.194186 
L 71.050774 126.633129 
L 71.372195 123.373602 
L 71.520266 119.415605 
L 71.449618 115.042197 
L 71.176568 111.033964 
L 70.707355 107.30879 
L 70.117732 104.282086 
L 69.410703 101.721029 
L 68.63005 99.625619 
L 67.718694 97.763032 
L 66.681208 96.133268 
L 65.534049 94.736328 
L 64.237109 93.511544 
L 62.699799 92.408095 
L 61.212509 91.604102 
L 59.583878 90.954766 
L 57.722585 90.450646 
L 55.861293 90.162219 
L 54 90.068514 
L 54 90.068514 
" style="fill:none;stroke:#31688e;stroke-width:1.5;"/>
    <path clip-path="url(#pf39a4fcd89)" d="M 388.8 90.068514 
L 386.706046 90.18733 
L 384.655343 90.545508 
L 382.983461 91.034815 
L 381.35483 91.715559 
L 379.726199 92.647588 
L 378.330229 93.708604 
L 377.053815 94.969152 
L 375.953314 96.366092 
L 374.953691 97.995855 
L 374.072076 99.858442 
L 373.315154 101.953853 
L 372.628614 104.51491 
L 372.048367 107.590207 
L 371.623432 111.033964 
L 371.350382 115.042197 
L 371.279734 119.415605 
L 371.427805 123.373602 
L 371.749226 126.633129 
L 372.194606 129.194186 
L 372.762338 131.289597 
L 373.444336 132.992773 
L 374.195883 134.3163 
L 375.117037 135.480417 
L 376.236275 136.487083 
L 377.399583 137.240217 
L 378.795552 137.894009 
L 380.656845 138.494735 
L 382.750799 138.932651 
L 385.310076 139.243268 
L 388.334677 139.38188 
L 388.8 139.384317 
L 388.8 139.384317 
" style="fill:none;stroke:#31688e;stroke-width:1.5;"/>
    <path clip-path="url(#pf39a4fcd89)" d="M 78.423882 172.033686 
L 78.743841 176.224506 
L 79.219451 179.716857 
L 79.844356 182.743561 
L 80.594617 185.304618 
L 81.454065 187.462364 
L 82.401015 189.262615 
L 83.548019 190.928795 
L 84.770351 192.289318 
L 86.126769 193.453435 
L 87.539752 194.384729 
L 89.131897 195.176082 
L 90.99319 195.829836 
L 92.86385 196.247316 
L 94.948436 196.46953 
L 97.042391 196.453131 
L 99.136345 196.195157 
L 100.997637 195.744408 
L 102.85893 195.049004 
L 104.549912 194.151905 
L 105.88353 193.213642 
L 107.2795 191.935326 
L 108.442808 190.548207 
L 109.436056 189.029791 
L 110.378756 187.167204 
L 111.184241 185.071794 
L 111.855528 182.743561 
L 112.440499 179.94968 
L 112.931052 176.45733 
L 113.251941 172.499332 
L 113.374027 168.308512 
L 113.277669 164.117691 
L 112.988914 160.625341 
L 112.553198 157.83146 
L 111.963044 155.503227 
L 111.347887 153.873463 
L 110.536762 152.369357 
L 109.743061 151.312406 
L 108.675469 150.278609 
L 107.478844 149.449819 
L 106.065362 148.751349 
L 104.254899 148.135653 
L 102.160945 147.671648 
L 99.601668 147.339432 
L 96.577067 147.181637 
L 93.552467 147.235812 
L 90.760528 147.486511 
L 88.433912 147.889948 
L 86.339958 148.481291 
L 84.711327 149.179598 
L 83.500828 149.915466 
L 82.384712 150.854996 
L 81.406586 152.010876 
L 80.572506 153.407816 
L 79.891581 155.03758 
L 79.351349 156.900167 
L 78.864929 159.461224 
L 78.528941 162.487928 
L 78.345012 166.213102 
L 78.36063 170.403922 
L 78.423882 172.033686 
L 78.423882 172.033686 
" style="fill:none;stroke:#31688e;stroke-width:1.5;"/>
    <path clip-path="url(#pf39a4fcd89)" d="M 120.298237 122.907955 
L 120.618505 126.400306 
L 121.094608 129.194186 
L 121.704517 131.414802 
L 122.402502 133.112056 
L 123.100486 134.323418 
L 124.031133 135.495584 
L 125.038093 136.411711 
L 126.125087 137.141622 
L 127.521056 137.823799 
L 129.149687 138.383518 
L 131.243641 138.862596 
L 133.802919 139.20715 
L 136.827519 139.375738 
L 139.85212 139.331639 
L 142.644058 139.092107 
L 145.203336 138.650427 
L 147.064628 138.129124 
L 148.693259 137.454284 
L 150.089229 136.61594 
L 151.252536 135.616763 
L 152.183183 134.492892 
L 152.977426 133.152184 
L 153.658404 131.52242 
L 154.198518 129.659833 
L 154.649851 127.331599 
L 155.002156 124.304896 
L 155.199508 120.579722 
L 155.195894 116.388901 
L 154.975122 112.161532 
L 154.547724 108.240083 
L 153.974236 104.980556 
L 153.25687 102.186676 
L 152.415844 99.828808 
L 151.485198 97.882938 
L 150.546878 96.366092 
L 149.391244 94.907233 
L 148.227936 93.75937 
L 146.763181 92.640918 
L 145.203336 91.744018 
L 143.447434 91.011154 
L 141.713412 90.514598 
L 139.85212 90.194088 
L 137.758165 90.068606 
L 135.664211 90.180765 
L 133.802919 90.488356 
L 131.941626 91.014557 
L 130.267561 91.709624 
L 128.684364 92.609063 
L 127.288395 93.658499 
L 125.953723 94.969152 
L 124.853427 96.366092 
L 123.85361 97.995855 
L 122.972114 99.858442 
L 122.16984 102.098904 
L 121.476284 104.747733 
L 120.920396 107.774437 
L 120.501596 111.266787 
L 120.233851 115.457608 
L 120.182529 119.648428 
L 120.298237 122.907955 
L 120.298237 122.907955 
" style="fill:none;stroke:#31688e;stroke-width:1.5;"/>
    <path clip-path="url(#pf39a4fcd89)" d="M 162.174752 172.964979 
L 162.521809 176.922976 
L 163.043404 180.415327 
L 163.663394 183.209207 
L 164.459623 185.770264 
L 165.345382 187.865675 
L 166.375539 189.70464 
L 167.40631 191.125202 
L 168.470004 192.289318 
L 169.865462 193.48262 
L 171.261432 194.39746 
L 172.890063 195.200616 
L 174.751355 195.846268 
L 176.612648 196.255445 
L 178.706602 196.472258 
L 180.800556 196.449298 
L 182.89451 196.184403 
L 184.755803 195.726687 
L 186.617095 195.022819 
L 188.25038 194.151905 
L 189.641696 193.167204 
L 191.037665 191.873805 
L 192.231407 190.426732 
L 193.26844 188.796968 
L 194.1799 186.934381 
L 194.992912 184.739209 
L 195.690896 182.17878 
L 196.257296 179.25121 
L 196.703886 175.75886 
L 196.987024 171.800862 
L 197.073851 167.610042 
L 196.937372 163.419221 
L 196.600847 159.926871 
L 196.103184 157.13299 
L 195.508449 155.03758 
L 194.82746 153.407816 
L 194.062265 152.108873 
L 193.131619 150.973149 
L 192.200973 150.139578 
L 191.037665 149.368565 
L 189.641696 148.700757 
L 187.780403 148.088294 
L 185.686449 147.641826 
L 183.127172 147.324094 
L 180.102571 147.17912 
L 177.077971 147.245431 
L 174.286032 147.509753 
L 171.959416 147.929567 
L 169.935917 148.518526 
L 168.469493 149.149744 
L 167.20096 149.915466 
L 166.093182 150.846759 
L 165.106679 152.010876 
L 164.281584 153.389482 
L 163.674692 154.804757 
L 163.108491 156.667344 
L 162.636765 158.995577 
L 162.267917 162.022281 
L 162.056914 165.747455 
L 162.048416 169.938275 
L 162.174752 172.964979 
L 162.174752 172.964979 
" style="fill:none;stroke:#31688e;stroke-width:1.5;"/>
    <path clip-path="url(#pf39a4fcd89)" d="M 204.060821 123.839249 
L 204.415016 127.098776 
L 204.901493 129.659833 
L 205.524658 131.755243 
L 206.242172 133.385007 
L 207.091313 134.733501 
L 208.02196 135.790393 
L 209.185268 136.738435 
L 210.581237 137.539716 
L 212.209868 138.187572 
L 214.071161 138.689313 
L 216.397776 139.084741 
L 219.189715 139.32872 
L 222.214315 139.376846 
L 225.31213 139.205591 
L 227.798193 138.872998 
L 229.892147 138.400001 
L 231.75344 137.750462 
L 233.149409 137.038298 
L 234.348856 136.178887 
L 235.29315 135.247594 
L 236.17401 134.053528 
L 236.898019 132.686537 
L 237.569979 130.873339 
L 238.055478 128.961363 
L 238.500625 126.250151 
L 238.787401 123.140779 
L 238.922385 119.182782 
L 238.847384 114.991961 
L 238.553917 110.80114 
L 238.069572 107.075967 
L 237.462416 104.049263 
L 236.734178 101.488206 
L 235.928932 99.392796 
L 234.986182 97.530209 
L 233.847394 95.818332 
L 232.684086 94.47434 
L 231.288117 93.231919 
L 229.892147 92.281294 
L 228.263516 91.446634 
L 226.422144 90.778331 
L 224.773593 90.381052 
L 222.679639 90.112688 
L 220.585685 90.086446 
L 218.49173 90.299813 
L 216.630438 90.705607 
L 214.769145 91.347234 
L 213.089857 92.175271 
L 211.677061 93.106565 
L 210.320197 94.270682 
L 209.069808 95.667622 
L 208.02196 97.179977 
L 207.083534 98.927149 
L 206.225863 101.022559 
L 205.513349 103.350793 
L 204.893425 106.144673 
L 204.399558 109.4042 
L 204.039209 113.362197 
L 203.881677 117.553018 
L 203.939624 121.743839 
L 204.060821 123.839249 
L 204.060821 123.839249 
" style="fill:none;stroke:#31688e;stroke-width:1.5;"/>
    <path clip-path="url(#pf39a4fcd89)" d="M 245.936687 173.896273 
L 246.338323 177.85427 
L 246.878598 181.113797 
L 247.574427 183.974372 
L 248.335183 186.235911 
L 249.280134 188.331321 
L 250.24432 189.961085 
L 251.300422 191.358025 
L 252.46032 192.565239 
L 253.856289 193.693412 
L 255.360754 194.617552 
L 256.88089 195.318707 
L 258.742182 195.924821 
L 260.603475 196.300587 
L 262.697429 196.483198 
L 264.791383 196.427345 
L 266.885337 196.127474 
L 268.74663 195.634243 
L 270.375261 194.996302 
L 272.003892 194.118765 
L 273.399861 193.120165 
L 274.563169 192.055839 
L 275.75941 190.659555 
L 276.836078 189.029791 
L 277.67423 187.400028 
L 278.518416 185.267158 
L 279.255594 182.743561 
L 279.880627 179.716857 
L 280.356241 176.224506 
L 280.66434 172.266509 
L 280.774583 168.075688 
L 280.665106 163.884868 
L 280.360957 160.392517 
L 279.905506 157.598637 
L 279.36295 155.503227 
L 278.748094 153.873463 
L 278.005165 152.476523 
L 277.122446 151.288594 
L 276.1918 150.375015 
L 275.028492 149.539391 
L 273.632523 148.822057 
L 272.003892 148.235807 
L 269.909937 147.734885 
L 267.35066 147.372703 
L 264.32606 147.188745 
L 261.301459 147.218781 
L 258.276859 147.471562 
L 255.717582 147.916197 
L 253.856289 148.440832 
L 252.227658 149.120293 
L 250.900902 149.915466 
L 249.793286 150.846759 
L 248.970396 151.787779 
L 248.218653 152.94217 
L 247.553641 154.33911 
L 246.930945 156.201697 
L 246.411119 158.553455 
L 246.034333 161.323811 
L 245.78961 164.816161 
L 245.731629 169.006982 
L 245.889253 173.197803 
L 245.936687 173.896273 
L 245.936687 173.896273 
" style="fill:none;stroke:#31688e;stroke-width:1.5;"/>
    <path clip-path="url(#pf39a4fcd89)" d="M 287.590027 120.114075 
L 287.778891 124.072072 
L 288.150149 127.331599 
L 288.658635 129.892656 
L 289.224512 131.755243 
L 289.942042 133.385007 
L 290.827837 134.781947 
L 291.643278 135.713241 
L 292.750801 136.644534 
L 294.106741 137.454284 
L 295.735372 138.129124 
L 297.596664 138.650427 
L 299.92328 139.061992 
L 302.715219 139.319471 
L 305.739819 139.379707 
L 308.76442 139.22834 
L 311.556359 138.862596 
L 313.650313 138.383518 
L 315.511605 137.725342 
L 316.907575 137.002794 
L 318.070883 136.160257 
L 319.001529 135.238147 
L 319.932175 133.959036 
L 320.63016 132.614156 
L 321.284936 130.82395 
L 321.80332 128.72854 
L 322.239015 125.934659 
L 322.515152 122.675132 
L 322.624491 118.717135 
L 322.526063 114.526314 
L 322.20619 110.335494 
L 321.730577 106.843143 
L 321.095483 103.775417 
L 320.355442 101.255382 
L 319.466852 99.034713 
L 318.536206 97.275947 
L 317.430291 95.667622 
L 316.412325 94.503505 
L 315.046282 93.277279 
L 313.650313 92.316141 
L 312.021682 91.472282 
L 310.393051 90.860369 
L 308.531758 90.39212 
L 306.437804 90.1168 
L 304.34385 90.083992 
L 302.249896 90.290481 
L 300.388603 90.689539 
L 298.527311 91.323166 
L 296.79008 92.175271 
L 295.377159 93.106565 
L 294.106741 94.186394 
L 292.943433 95.450051 
L 291.793277 97.064562 
L 290.895286 98.694325 
L 290.096032 100.556912 
L 289.339502 102.885146 
L 288.68231 105.679026 
L 288.157806 108.938554 
L 287.786742 112.663727 
L 287.592217 116.902348 
L 287.590027 120.114075 
L 287.590027 120.114075 
" style="fill:none;stroke:#31688e;stroke-width:1.5;"/>
    <path clip-path="url(#pf39a4fcd89)" d="M 329.467615 170.636745 
L 329.710217 174.827566 
L 330.135778 178.55274 
L 330.726449 181.812267 
L 331.465151 184.606147 
L 332.320033 186.934381 
L 333.23143 188.796968 
L 334.26877 190.426732 
L 335.415956 191.823672 
L 336.683808 193.024242 
L 338.079778 194.045332 
L 339.708409 194.942261 
L 341.33704 195.595431 
L 343.198332 196.103205 
L 345.059625 196.39481 
L 347.153579 196.490361 
L 349.247533 196.348169 
L 351.108826 196.011377 
L 352.970118 195.452108 
L 354.598749 194.743269 
L 356.22738 193.774798 
L 357.62335 192.671426 
L 358.899197 191.358025 
L 359.955988 189.961085 
L 360.919962 188.331321 
L 361.811258 186.372894 
L 362.576798 184.140501 
L 363.224343 181.579444 
L 363.764147 178.55274 
L 364.189699 174.827566 
L 364.432289 170.636745 
L 364.459853 166.445925 
L 364.271059 162.487928 
L 363.899987 159.228401 
L 363.391419 156.667344 
L 362.738197 154.571933 
L 361.981327 152.94217 
L 361.113273 151.637805 
L 360.162973 150.613936 
L 358.956338 149.682643 
L 357.62335 148.951865 
L 355.994719 148.325369 
L 354.040558 147.820056 
L 351.80681 147.457043 
L 349.014871 147.224134 
L 345.990271 147.186067 
L 342.965671 147.361212 
L 340.406393 147.713262 
L 338.312439 148.201593 
L 336.683808 148.772466 
L 335.287839 149.469383 
L 334.001309 150.381113 
L 333.056939 151.312406 
L 332.194877 152.476523 
L 331.452113 153.873463 
L 330.836956 155.503227 
L 330.294637 157.598637 
L 329.868494 160.159694 
L 329.562634 163.419221 
L 329.427613 167.377218 
L 329.467615 170.636745 
L 329.467615 170.636745 
" style="fill:none;stroke:#31688e;stroke-width:1.5;"/>
   </g>
   <g id="LineCollection_4">
    <path clip-path="url(#pf39a4fcd89)" d="M 54 143.28 
L 74.70688 143.28 
L 74.924999 143.163588 
L 74.939541 59.58 
L 116.585962 59.58 
L 116.774999 59.812823 
L 116.774999 143.163588 
L 116.585962 143.28 
L 74.939541 143.28 
L 74.924999 144.094882 
L 74.924999 226.747177 
L 74.70688 226.98 
L 54 226.98 
L 54 226.98 
" style="fill:none;stroke:#21908d;stroke-width:1.5;"/>
    <path clip-path="url(#pf39a4fcd89)" d="M 388.8 226.98 
L 368.09312 226.98 
L 367.875001 226.747177 
L 367.860459 143.28 
L 326.214038 143.28 
L 326.025001 143.163588 
L 326.025001 59.812823 
L 326.214038 59.58 
L 367.860459 59.58 
L 367.875001 61.442587 
L 367.875001 143.163588 
L 368.325782 143.28 
L 388.8 143.28 
L 388.8 143.28 
" style="fill:none;stroke:#21908d;stroke-width:1.5;"/>
    <path clip-path="url(#pf39a4fcd89)" d="M 116.774999 226.747177 
L 116.818624 143.28 
L 158.465045 143.28 
L 158.624999 143.163588 
L 158.697707 59.58 
L 200.344128 59.58 
L 200.475 59.812823 
L 200.475 143.163588 
L 200.344128 143.28 
L 158.697707 143.28 
L 158.624999 143.396412 
L 158.624999 226.747177 
L 158.465045 226.98 
L 116.818624 226.98 
L 116.774999 226.747177 
L 116.774999 226.747177 
" style="fill:none;stroke:#21908d;stroke-width:1.5;"/>
    <path clip-path="url(#pf39a4fcd89)" d="M 200.475 226.747177 
L 200.576789 143.28 
L 242.223211 143.28 
L 242.325 143.396412 
L 242.223211 226.98 
L 200.576789 226.98 
L 200.475 226.747177 
L 200.475 226.747177 
" style="fill:none;stroke:#21908d;stroke-width:1.5;"/>
    <path clip-path="url(#pf39a4fcd89)" d="M 242.325 143.163588 
L 242.325 59.812823 
L 242.455872 59.58 
L 284.102293 59.58 
L 284.175001 60.045647 
L 284.175001 143.163588 
L 284.334955 143.28 
L 325.981376 143.28 
L 326.025001 143.629235 
L 325.981376 226.98 
L 284.334955 226.98 
L 284.175001 226.747177 
L 284.102293 143.28 
L 242.455872 143.28 
L 242.325 143.163588 
L 242.325 143.163588 
" style="fill:none;stroke:#21908d;stroke-width:1.5;"/>
   </g>
   <g id="LineCollection_5">
    <path clip-path="url(#pf39a4fcd89)" d="M 54 147.175683 
L 57.0246 147.280857 
L 59.816539 147.590121 
L 62.143155 148.065265 
L 64.004448 148.665991 
L 65.400417 149.319783 
L 66.661875 150.148289 
L 67.727033 151.126994 
L 68.657679 152.324644 
L 69.390734 153.64064 
L 70.053648 155.318983 
L 70.605394 157.365814 
L 71.050774 159.926871 
L 71.372195 163.186398 
L 71.520266 167.144395 
L 71.449618 171.517803 
L 71.176568 175.526036 
L 70.707355 179.25121 
L 70.117732 182.277914 
L 69.410703 184.838971 
L 68.63005 186.934381 
L 67.718694 188.796968 
L 66.681208 190.426732 
L 65.534049 191.823672 
L 64.237109 193.048456 
L 62.699799 194.151905 
L 61.212509 194.955898 
L 59.583878 195.605234 
L 57.722585 196.109354 
L 55.861293 196.397781 
L 54 196.491486 
L 54 196.491486 
" style="fill:none;stroke:#35b779;stroke-width:1.5;"/>
    <path clip-path="url(#pf39a4fcd89)" d="M 388.8 196.491486 
L 386.706046 196.37267 
L 384.655343 196.014492 
L 382.983461 195.525185 
L 381.35483 194.844441 
L 379.726199 193.912412 
L 378.330229 192.851396 
L 377.053815 191.590848 
L 375.953314 190.193908 
L 374.953691 188.564145 
L 374.072076 186.701558 
L 373.315154 184.606147 
L 372.628614 182.04509 
L 372.048367 178.969793 
L 371.623432 175.526036 
L 371.350382 171.517803 
L 371.279734 167.144395 
L 371.427805 163.186398 
L 371.749226 159.926871 
L 372.194606 157.365814 
L 372.762338 155.270403 
L 373.444336 153.567227 
L 374.195883 152.2437 
L 375.117037 151.079583 
L 376.236275 150.072917 
L 377.399583 149.319783 
L 378.795552 148.665991 
L 380.656845 148.065265 
L 382.750799 147.627349 
L 385.310076 147.316732 
L 388.334677 147.17812 
L 388.8 147.175683 
L 388.8 147.175683 
" style="fill:none;stroke:#35b779;stroke-width:1.5;"/>
    <path clip-path="url(#pf39a4fcd89)" d="M 78.422253 122.442309 
L 78.325435 118.484312 
L 78.43558 114.293491 
L 78.768974 110.10267 
L 79.259568 106.61032 
L 79.903064 103.583616 
L 80.675884 101.022559 
L 81.533748 98.927149 
L 82.543489 97.064562 
L 83.548019 95.631205 
L 84.770351 94.270682 
L 86.126769 93.106565 
L 87.539752 92.175271 
L 89.131897 91.383918 
L 90.99319 90.730164 
L 92.86385 90.312684 
L 94.948436 90.09047 
L 97.042391 90.106869 
L 99.136345 90.364843 
L 100.997637 90.815592 
L 102.85893 91.510996 
L 104.549912 92.408095 
L 105.88353 93.346358 
L 107.2795 94.624674 
L 108.442808 96.011793 
L 109.436056 97.530209 
L 110.378756 99.392796 
L 111.184241 101.488206 
L 111.855528 103.816439 
L 112.440499 106.61032 
L 112.931052 110.10267 
L 113.251941 114.060668 
L 113.374027 118.251488 
L 113.277669 122.442309 
L 112.988914 125.934659 
L 112.553198 128.72854 
L 111.963044 131.056773 
L 111.347887 132.686537 
L 110.536762 134.190643 
L 109.743061 135.247594 
L 108.675469 136.281391 
L 107.478844 137.110181 
L 106.065362 137.808651 
L 104.254899 138.424347 
L 102.160945 138.888352 
L 99.601668 139.220568 
L 96.577067 139.378363 
L 93.552467 139.324188 
L 90.760528 139.073489 
L 88.433912 138.670052 
L 86.339958 138.078709 
L 84.711327 137.380402 
L 83.500828 136.644534 
L 82.384712 135.705004 
L 81.406586 134.549124 
L 80.572506 133.152184 
L 79.891581 131.52242 
L 79.351349 129.659833 
L 78.864929 127.098776 
L 78.528941 124.072072 
L 78.422253 122.442309 
L 78.422253 122.442309 
" style="fill:none;stroke:#35b779;stroke-width:1.5;"/>
    <path clip-path="url(#pf39a4fcd89)" d="M 120.29796 172.499332 
L 120.176021 168.308512 
L 120.272307 164.117691 
L 120.560985 160.625341 
L 121.006532 157.782917 
L 121.587062 155.503227 
L 122.202 153.873463 
L 122.944893 152.476523 
L 123.806692 151.312406 
L 124.751083 150.381113 
L 125.892425 149.557206 
L 127.288395 148.834658 
L 128.917026 148.244494 
L 131.01098 147.740377 
L 133.570257 147.375637 
L 136.594858 147.189462 
L 139.619458 147.217493 
L 142.644058 147.467893 
L 145.203336 147.909573 
L 147.064628 148.430876 
L 148.693259 149.105716 
L 150.089229 149.94406 
L 151.252536 150.943237 
L 152.183183 152.067108 
L 152.977426 153.407816 
L 153.658404 155.03758 
L 154.198518 156.900167 
L 154.649851 159.228401 
L 155.002156 162.255104 
L 155.199508 165.980278 
L 155.195894 170.171099 
L 154.975122 174.398468 
L 154.547724 178.319917 
L 153.974236 181.579444 
L 153.25687 184.373324 
L 152.415844 186.731192 
L 151.485198 188.677062 
L 150.546878 190.193908 
L 149.391244 191.652767 
L 148.227936 192.80063 
L 146.763181 193.919082 
L 145.203336 194.815982 
L 143.447434 195.548846 
L 141.713412 196.045402 
L 139.85212 196.365912 
L 137.758165 196.491394 
L 135.664211 196.379235 
L 133.802919 196.071644 
L 131.941626 195.545443 
L 130.267561 194.850376 
L 128.684364 193.950937 
L 127.288395 192.901501 
L 125.953723 191.590848 
L 124.853427 190.193908 
L 123.85361 188.564145 
L 122.972114 186.701558 
L 122.16984 184.461096 
L 121.476284 181.812267 
L 120.920396 178.785563 
L 120.501596 175.293213 
L 120.29796 172.499332 
L 120.29796 172.499332 
" style="fill:none;stroke:#35b779;stroke-width:1.5;"/>
    <path clip-path="url(#pf39a4fcd89)" d="M 162.177703 123.373602 
L 162.02974 119.415605 
L 162.092909 115.224784 
L 162.37344 111.033964 
L 162.84264 107.30879 
L 163.432291 104.282086 
L 164.139349 101.721029 
L 164.979569 99.487232 
L 165.910215 97.623149 
L 166.868583 96.133268 
L 168.015609 94.736328 
L 169.400139 93.439835 
L 170.850042 92.408095 
L 172.424739 91.563698 
L 174.286032 90.851287 
L 176.147325 90.38656 
L 178.241279 90.114721 
L 180.335233 90.085196 
L 182.429187 90.295121 
L 184.290479 90.697543 
L 186.151772 91.335162 
L 187.859988 92.175271 
L 189.272855 93.106565 
L 190.629658 94.270682 
L 191.880214 95.667622 
L 192.898958 97.132584 
L 193.866356 98.927149 
L 194.724203 101.022559 
L 195.458235 103.432903 
L 196.056576 106.144673 
L 196.550462 109.4042 
L 196.895639 113.129374 
L 197.065163 117.320195 
L 197.019722 121.511015 
L 196.765667 125.236189 
L 196.342783 128.262893 
L 195.80349 130.591127 
L 195.14965 132.453713 
L 194.447271 133.850654 
L 193.596942 135.066238 
L 192.666296 136.033373 
L 191.502988 136.911783 
L 190.107019 137.661085 
L 188.468424 138.274298 
L 186.384434 138.791629 
L 183.825156 139.169334 
L 180.800556 139.366659 
L 177.775956 139.348648 
L 174.751355 139.110057 
L 172.192078 138.682933 
L 170.098124 138.099066 
L 168.469493 137.410256 
L 167.20096 136.644534 
L 166.093182 135.713241 
L 165.106679 134.549124 
L 164.281584 133.170518 
L 163.674692 131.755243 
L 163.108491 129.892656 
L 162.636765 127.564423 
L 162.267917 124.537719 
L 162.177703 123.373602 
L 162.177703 123.373602 
" style="fill:none;stroke:#35b779;stroke-width:1.5;"/>
    <path clip-path="url(#pf39a4fcd89)" d="M 204.054308 173.430626 
L 203.884884 169.239805 
L 203.930298 165.048985 
L 204.18434 161.323811 
L 204.607255 158.297107 
L 205.146494 155.968873 
L 205.800373 154.106287 
L 206.502751 152.709346 
L 207.323975 151.52907 
L 208.254621 150.552618 
L 209.417929 149.666815 
L 210.813899 148.912022 
L 212.481832 148.285702 
L 214.536484 147.774078 
L 217.095761 147.393746 
L 219.8877 147.201551 
L 222.9123 147.201551 
L 225.936901 147.419277 
L 228.496178 147.821052 
L 230.590132 148.372428 
L 232.218763 149.020284 
L 233.614732 149.821565 
L 234.77804 150.769607 
L 235.708687 151.826499 
L 236.557828 153.174993 
L 237.188022 154.571933 
L 237.802641 156.515144 
L 238.274878 158.762754 
L 238.661042 161.789458 
L 238.878257 165.281808 
L 238.91126 169.472629 
L 238.729876 173.663449 
L 238.342213 177.621446 
L 237.802641 180.957736 
L 237.104656 183.873325 
L 236.314776 186.235911 
L 235.369835 188.331321 
L 234.312717 190.09884 
L 233.146583 191.590848 
L 231.979557 192.754965 
L 230.590132 193.834513 
L 228.961501 194.787168 
L 227.33287 195.483844 
L 225.471577 196.031946 
L 223.610285 196.35896 
L 221.516331 196.491118 
L 219.422377 196.385609 
L 217.561084 196.084433 
L 215.65219 195.548846 
L 213.967854 194.850376 
L 212.44253 193.989047 
L 211.04656 192.950956 
L 209.865648 191.823672 
L 208.718439 190.426732 
L 207.681567 188.796968 
L 206.770084 186.934381 
L 205.989311 184.838971 
L 205.282251 182.277914 
L 204.692682 179.25121 
L 204.246083 175.75886 
L 204.054308 173.430626 
L 204.054308 173.430626 
" style="fill:none;stroke:#35b779;stroke-width:1.5;"/>
    <path clip-path="url(#pf39a4fcd89)" d="M 245.92884 124.072072 
L 245.744954 120.346898 
L 245.760607 116.156078 
L 245.990789 111.965257 
L 246.411119 108.177664 
L 246.975789 104.980556 
L 247.693141 102.186676 
L 248.521931 99.858442 
L 249.435719 97.936157 
L 250.403266 96.366092 
L 251.529673 94.939657 
L 252.692981 93.785004 
L 254.186908 92.640918 
L 255.717582 91.75838 
L 257.502446 91.011154 
L 259.207505 90.521298 
L 261.068798 90.19754 
L 263.162752 90.068721 
L 265.256706 90.177554 
L 267.117999 90.481934 
L 268.998198 91.011154 
L 270.682242 91.709624 
L 272.236553 92.589949 
L 273.632523 93.633691 
L 274.79583 94.748495 
L 275.959138 96.171378 
L 276.968464 97.763032 
L 277.879963 99.625619 
L 278.660651 101.721029 
L 279.367709 104.282086 
L 279.95736 107.30879 
L 280.403966 110.80114 
L 280.68704 114.759138 
L 280.773766 118.949958 
L 280.637446 123.140779 
L 280.30076 126.633129 
L 279.803134 129.42701 
L 279.208556 131.52242 
L 278.518416 133.170518 
L 277.693321 134.549124 
L 276.889785 135.526265 
L 275.911993 136.411711 
L 274.79583 137.158343 
L 273.399861 137.83569 
L 271.538568 138.456114 
L 269.444614 138.908363 
L 266.885337 139.230885 
L 263.860737 139.380117 
L 260.836136 139.317858 
L 258.044197 139.058105 
L 255.717582 138.643803 
L 253.856289 138.119168 
L 252.227658 137.439707 
L 250.900902 136.644534 
L 249.793286 135.713241 
L 248.970396 134.772221 
L 248.218653 133.61783 
L 247.553641 132.22089 
L 246.930945 130.358303 
L 246.411119 128.006545 
L 246.034333 125.236189 
L 245.92884 124.072072 
L 245.92884 124.072072 
" style="fill:none;stroke:#35b779;stroke-width:1.5;"/>
    <path clip-path="url(#pf39a4fcd89)" d="M 287.588651 169.472629 
L 287.621677 165.281808 
L 287.861036 161.556634 
L 288.265268 158.52993 
L 288.780884 156.201697 
L 289.453509 154.217643 
L 290.202675 152.709346 
L 291.08214 151.458768 
L 292.012787 150.500844 
L 293.176095 149.629752 
L 294.572064 148.885895 
L 296.200695 148.279785 
L 298.294649 147.762701 
L 300.853926 147.387611 
L 303.878527 147.192527 
L 306.903127 147.212541 
L 309.927728 147.45348 
L 312.487005 147.883488 
L 314.580959 148.471081 
L 316.20959 149.16462 
L 317.449082 149.915466 
L 318.556929 150.846759 
L 319.543351 152.010876 
L 320.377575 153.407816 
L 320.975299 154.804757 
L 321.560806 156.745179 
L 322.026129 159.076569 
L 322.382071 162.022281 
L 322.593087 165.747455 
L 322.60158 169.938275 
L 322.395922 174.129096 
L 321.980204 178.087093 
L 321.423429 181.34662 
L 320.726766 184.140501 
L 319.923011 186.468734 
L 319.001529 188.461692 
L 317.946573 190.193908 
L 316.846277 191.590848 
L 315.511605 192.901501 
L 314.115636 193.950937 
L 312.487005 194.872782 
L 310.848344 195.548846 
L 308.997081 196.071644 
L 307.135789 196.379235 
L 305.041835 196.491394 
L 302.94788 196.365912 
L 300.955941 196.014492 
L 299.225295 195.504653 
L 297.596664 194.815982 
L 295.968033 193.873706 
L 294.52073 192.754965 
L 293.353698 191.590848 
L 292.245448 190.182972 
L 291.253623 188.564145 
L 290.371912 186.701558 
L 289.54313 184.373324 
L 288.876457 181.812267 
L 288.320319 178.785563 
L 287.901644 175.293213 
L 287.633815 171.102392 
L 287.588651 169.472629 
L 287.588651 169.472629 
" style="fill:none;stroke:#35b779;stroke-width:1.5;"/>
    <path clip-path="url(#pf39a4fcd89)" d="M 329.463842 121.045369 
L 329.443197 116.854548 
L 329.636781 112.663727 
L 330.038344 108.70573 
L 330.578722 105.446203 
L 331.255359 102.652323 
L 332.035006 100.324089 
L 332.979962 98.228679 
L 333.944218 96.598915 
L 335.055177 95.137997 
L 336.370838 93.805035 
L 337.614454 92.82564 
L 339.243085 91.846453 
L 340.871716 91.129403 
L 342.805744 90.545508 
L 344.594302 90.219269 
L 346.688256 90.070373 
L 348.78221 90.159295 
L 350.643502 90.444552 
L 352.504795 90.94503 
L 354.133426 91.590549 
L 355.762057 92.477724 
L 357.259112 93.572211 
L 358.553996 94.811321 
L 359.717304 96.252704 
L 360.668638 97.763032 
L 361.580153 99.625619 
L 362.360658 101.721029 
L 363.067701 104.282086 
L 363.657418 107.30879 
L 364.103945 110.80114 
L 364.387122 114.759138 
L 364.473749 118.949958 
L 364.33743 123.140779 
L 364.00075 126.633129 
L 363.503171 129.42701 
L 362.908419 131.52242 
L 362.227494 133.152184 
L 361.393414 134.549124 
L 360.633079 135.480417 
L 359.484642 136.508967 
L 358.160053 137.343004 
L 356.692703 137.994391 
L 354.831411 138.561035 
L 352.504795 139.009263 
L 349.712856 139.296876 
L 346.688256 139.383546 
L 343.663655 139.259658 
L 340.871716 138.927857 
L 338.545101 138.424347 
L 336.683808 137.787534 
L 335.287839 137.090617 
L 334.001309 136.178887 
L 333.056939 135.247594 
L 332.194877 134.083477 
L 331.452113 132.686537 
L 330.836956 131.056773 
L 330.294637 128.961363 
L 329.868494 126.400306 
L 329.562634 123.140779 
L 329.463842 121.045369 
L 329.463842 121.045369 
" style="fill:none;stroke:#35b779;stroke-width:1.5;"/>
   </g>
   <g id="LineCollection_6">
    <path clip-path="url(#pf39a4fcd89)" d="M 54 151.378314 
L 56.093954 151.490966 
L 57.955247 151.793796 
L 59.816539 152.329671 
L 61.44517 153.054627 
L 62.84114 153.950337 
L 64.004448 154.986503 
L 64.935094 156.105772 
L 65.721485 157.365814 
L 66.464581 158.995577 
L 67.056319 160.858164 
L 67.494371 162.962769 
L 67.786511 165.514631 
L 67.871643 168.308512 
L 67.727033 171.272702 
L 67.394917 173.896273 
L 66.859542 176.45733 
L 66.145559 178.785563 
L 65.367577 180.64815 
L 64.469771 182.294963 
L 63.317021 183.907677 
L 62.234426 185.071794 
L 60.979847 186.117604 
L 59.583878 186.988929 
L 58.144276 187.632851 
L 56.544168 188.098498 
L 54.930646 188.333956 
L 54 188.369852 
L 54 188.369852 
" style="fill:none;stroke:#90d743;stroke-width:1.5;"/>
    <path clip-path="url(#pf39a4fcd89)" d="M 388.8 188.369852 
L 387.171369 188.259653 
L 385.542738 187.921372 
L 383.914107 187.330396 
L 382.518138 186.587065 
L 381.122168 185.571256 
L 379.885228 184.373324 
L 378.777935 182.976384 
L 377.785394 181.34662 
L 376.921162 179.484033 
L 376.196518 177.388623 
L 375.62002 175.060389 
L 375.20338 172.499332 
L 374.967078 169.705452 
L 374.942961 166.911572 
L 375.145202 164.117691 
L 375.53829 161.723977 
L 376.086527 159.694047 
L 376.728307 158.064284 
L 377.486368 156.667344 
L 378.33223 155.503227 
L 379.493537 154.326072 
L 380.745979 153.407816 
L 382.052814 152.708496 
L 383.681445 152.097399 
L 385.542738 151.656047 
L 387.636692 151.412835 
L 388.8 151.378314 
L 388.8 151.378314 
" style="fill:none;stroke:#90d743;stroke-width:1.5;"/>
    <path clip-path="url(#pf39a4fcd89)" d="M 82.14387 121.976662 
L 81.981994 119.182782 
L 82.04165 116.388901 
L 82.314067 113.595021 
L 82.768885 111.033964 
L 83.38885 108.70573 
L 84.16532 106.61032 
L 85.092812 104.747733 
L 86.107297 103.195517 
L 87.270605 101.828627 
L 88.433912 100.774147 
L 89.829882 99.814745 
L 91.225851 99.115953 
L 92.854482 98.568081 
L 94.483113 98.26766 
L 96.111744 98.192982 
L 97.740375 98.338902 
L 99.369006 98.715666 
L 100.764976 99.2427 
L 102.160945 99.991089 
L 103.567637 101.022559 
L 104.764929 102.186676 
L 105.88353 103.599938 
L 106.864709 105.21338 
L 107.744823 107.115807 
L 108.453624 109.171377 
L 109.029952 111.499611 
L 109.446659 114.060668 
L 109.682955 116.854548 
L 109.707041 119.648428 
L 109.504759 122.442309 
L 109.125836 124.770542 
L 108.563445 126.865953 
L 107.921564 128.495716 
L 107.046838 130.074168 
L 106.116192 131.290515 
L 104.952884 132.403889 
L 103.789576 133.222745 
L 102.393607 133.941593 
L 100.672482 134.549124 
L 98.903683 134.938537 
L 96.809729 135.158214 
L 94.715775 135.148875 
L 92.621821 134.909044 
L 90.760528 134.471422 
L 89.101352 133.850654 
L 87.735928 133.114667 
L 86.528652 132.22089 
L 85.409312 131.088814 
L 84.536283 129.892656 
L 83.778161 128.495716 
L 83.082696 126.701027 
L 82.574281 124.770542 
L 82.195124 122.442309 
L 82.14387 121.976662 
L 82.14387 121.976662 
" style="fill:none;stroke:#90d743;stroke-width:1.5;"/>
    <path clip-path="url(#pf39a4fcd89)" d="M 124.023754 171.800862 
L 123.841034 169.006982 
L 123.870965 166.213102 
L 124.103971 163.652045 
L 124.528448 161.323811 
L 125.148323 159.228401 
L 125.892425 157.527884 
L 126.696742 156.201697 
L 127.647106 155.03758 
L 128.684364 154.085793 
L 130.036884 153.174993 
L 131.476303 152.484783 
L 133.104934 151.948722 
L 134.966227 151.571999 
L 137.060181 151.388734 
L 139.154135 151.43235 
L 141.248089 151.709742 
L 143.109382 152.189147 
L 144.738013 152.845879 
L 146.133982 153.656078 
L 147.29729 154.585803 
L 148.356378 155.73605 
L 149.158582 156.902588 
L 149.977553 158.52993 
L 150.628965 160.392517 
L 151.112861 162.487928 
L 151.428738 164.816161 
L 151.571133 167.610042 
L 151.485198 170.535164 
L 151.203217 173.197803 
L 150.728816 175.75886 
L 150.086568 178.087093 
L 149.28255 180.182503 
L 148.321134 182.04509 
L 147.29729 183.556246 
L 146.133982 184.87831 
L 144.834303 186.003088 
L 143.574705 186.829202 
L 142.178735 187.503975 
L 140.550104 188.028342 
L 138.921473 188.307988 
L 137.292842 188.362993 
L 135.664211 188.197116 
L 134.03558 187.798726 
L 132.466877 187.167204 
L 131.232066 186.468734 
L 129.847672 185.421283 
L 128.579772 184.140501 
L 127.51903 182.743561 
L 126.563336 181.113797 
L 125.729381 179.25121 
L 125.02914 177.1558 
L 124.473235 174.827566 
L 124.048714 172.033686 
L 124.023754 171.800862 
L 124.023754 171.800862 
" style="fill:none;stroke:#90d743;stroke-width:1.5;"/>
    <path clip-path="url(#pf39a4fcd89)" d="M 165.676931 118.717135 
L 165.772058 115.923255 
L 166.081219 113.129374 
L 166.6082 110.431979 
L 167.241239 108.240083 
L 168.073093 106.144673 
L 169.070137 104.282086 
L 170.098124 102.818492 
L 171.315403 101.488206 
L 172.657401 100.379724 
L 174.05337 99.525205 
L 175.44934 98.910776 
L 177.077971 98.445987 
L 178.706602 98.219618 
L 180.335233 98.215688 
L 181.963864 98.433929 
L 183.592495 98.889724 
L 184.988464 99.49515 
L 186.384434 100.338598 
L 187.547741 101.268059 
L 188.711049 102.466393 
L 189.730488 103.816439 
L 190.686393 105.446203 
L 191.520845 107.30879 
L 192.221045 109.4042 
L 192.821349 111.965257 
L 193.225987 114.759138 
L 193.408961 117.553018 
L 193.379221 120.346898 
L 193.131619 123.013789 
L 192.721471 125.236189 
L 192.184702 127.098776 
L 191.502988 128.744698 
L 190.71267 130.12548 
L 189.816623 131.289597 
L 188.711049 132.356085 
L 187.547741 133.187315 
L 186.151772 133.916263 
L 184.523141 134.50608 
L 182.661849 134.928905 
L 180.567894 135.155276 
L 178.47394 135.152163 
L 176.379986 134.919074 
L 174.518694 134.488876 
L 172.801797 133.850654 
L 171.494093 133.151436 
L 170.228877 132.22089 
L 169.167477 131.156931 
L 168.235956 129.892656 
L 167.478449 128.495716 
L 166.836224 126.865953 
L 166.274406 124.770542 
L 165.895012 122.442309 
L 165.700545 119.881252 
L 165.676931 118.717135 
L 165.676931 118.717135 
" style="fill:none;stroke:#90d743;stroke-width:1.5;"/>
    <path clip-path="url(#pf39a4fcd89)" d="M 207.548082 169.239805 
L 207.559794 166.445925 
L 207.789298 163.762239 
L 208.175153 161.556634 
L 208.765433 159.461224 
L 209.439166 157.83146 
L 210.237348 156.43452 
L 211.133476 155.270403 
L 212.209868 154.228042 
L 213.373176 153.390564 
L 214.769145 152.656524 
L 216.397776 152.062491 
L 218.259069 151.635986 
L 220.353023 151.406259 
L 222.446977 151.406259 
L 224.540931 151.635986 
L 226.402224 152.062491 
L 228.148149 152.709346 
L 229.45441 153.407816 
L 230.721123 154.33911 
L 231.75344 155.369343 
L 232.713852 156.667344 
L 233.471479 158.064284 
L 234.113627 159.694047 
L 234.675592 161.789458 
L 235.054874 164.117691 
L 235.249531 166.678748 
L 235.243317 169.472629 
L 235.010702 172.385028 
L 234.580117 175.060389 
L 234.003364 177.388623 
L 233.278519 179.484033 
L 232.414776 181.34662 
L 231.421685 182.976384 
L 230.314942 184.373324 
L 229.117085 185.537441 
L 227.798193 186.513734 
L 226.402224 187.277433 
L 224.773593 187.887929 
L 223.144962 188.243246 
L 221.516331 188.369292 
L 219.8877 188.274901 
L 218.259069 187.953524 
L 216.630438 187.381821 
L 215.234468 186.658513 
L 213.838499 185.668119 
L 212.675191 184.579685 
L 211.511883 183.165879 
L 210.511705 181.579444 
L 209.61654 179.716857 
L 208.866527 177.621446 
L 208.254621 175.228363 
L 207.803143 172.499332 
L 207.566832 169.705452 
L 207.548082 169.239805 
L 207.548082 169.239805 
" style="fill:none;stroke:#90d743;stroke-width:1.5;"/>
    <path clip-path="url(#pf39a4fcd89)" d="M 249.43326 120.579722 
L 249.385331 117.785841 
L 249.550636 114.991961 
L 249.935568 112.198081 
L 250.514036 109.637024 
L 251.190511 107.541613 
L 251.995627 105.679026 
L 252.925643 104.034956 
L 254.088951 102.466393 
L 255.266469 101.255382 
L 256.648228 100.179211 
L 258.044197 99.379021 
L 259.440167 98.808974 
L 261.068798 98.388714 
L 262.697429 98.202786 
L 264.32606 98.238145 
L 265.954691 98.497183 
L 267.583322 98.998382 
L 268.979291 99.649611 
L 270.384996 100.556912 
L 271.722956 101.721029 
L 272.754434 102.885146 
L 273.729863 104.282086 
L 274.617477 105.91185 
L 275.395427 107.774437 
L 276.048827 109.869847 
L 276.60556 112.430904 
L 276.971272 115.224784 
L 277.119115 118.018665 
L 277.052322 120.812545 
L 276.779169 123.373602 
L 276.306118 125.701836 
L 275.714876 127.564423 
L 274.971568 129.194186 
L 274.085127 130.591127 
L 273.075203 131.755243 
L 271.98898 132.686537 
L 270.607922 133.551904 
L 269.211953 134.176607 
L 267.583322 134.677967 
L 265.722029 135.024037 
L 263.628075 135.17805 
L 261.534121 135.106299 
L 259.440167 134.797513 
L 257.578874 134.282277 
L 255.950243 133.582445 
L 254.511258 132.686537 
L 253.390966 131.72192 
L 252.415073 130.591127 
L 251.528131 129.194186 
L 250.78529 127.564423 
L 250.193803 125.701836 
L 249.75738 123.606426 
L 249.463388 121.045369 
L 249.43326 120.579722 
L 249.43326 120.579722 
" style="fill:none;stroke:#90d743;stroke-width:1.5;"/>
    <path clip-path="url(#pf39a4fcd89)" d="M 291.305869 170.403922 
L 291.228867 167.610042 
L 291.371262 164.816161 
L 291.730372 162.255104 
L 292.245448 160.138989 
L 292.943433 158.250636 
L 293.786368 156.667344 
L 294.632605 155.503227 
L 295.735372 154.376535 
L 296.89868 153.501344 
L 298.351614 152.709346 
L 299.92328 152.115233 
L 301.784573 151.666379 
L 303.878527 151.416386 
L 305.972481 151.397705 
L 308.066435 151.607386 
L 309.927728 152.011996 
L 311.556359 152.581017 
L 312.952328 153.284925 
L 314.141232 154.106287 
L 315.278944 155.173059 
L 316.20959 156.355375 
L 316.944211 157.598637 
L 317.651677 159.228401 
L 318.215201 161.090987 
L 318.629182 163.186398 
L 318.902282 165.747455 
L 318.968987 168.541335 
L 318.821337 171.335216 
L 318.45549 174.129096 
L 317.89889 176.690153 
L 317.159763 179.018387 
L 316.353953 180.880974 
L 315.433122 182.510737 
L 314.348297 183.99044 
L 313.082969 185.304618 
L 311.78902 186.321968 
L 310.333123 187.167204 
L 308.997081 187.721389 
L 307.36845 188.154893 
L 305.739819 188.352904 
L 304.111188 188.329324 
L 302.482557 188.082575 
L 300.853926 187.595124 
L 299.415304 186.934381 
L 298.061987 186.075159 
L 296.865244 185.071794 
L 295.735372 183.84965 
L 294.619977 182.277914 
L 293.732631 180.64815 
L 292.943433 178.755679 
L 292.240211 176.45733 
L 291.705048 173.896273 
L 291.358257 171.102392 
L 291.305869 170.403922 
L 291.305869 170.403922 
" style="fill:none;stroke:#90d743;stroke-width:1.5;"/>
    <path clip-path="url(#pf39a4fcd89)" d="M 333.180851 121.278192 
L 333.077057 118.484312 
L 333.193885 115.632322 
L 333.517334 112.896551 
L 334.032011 110.335494 
L 334.72154 108.00726 
L 335.582555 105.91185 
L 336.469795 104.282086 
L 337.614454 102.674753 
L 338.777762 101.428813 
L 340.173732 100.297988 
L 341.569701 99.46551 
L 342.965671 98.86902 
L 344.594302 98.422174 
L 346.222933 98.21204 
L 347.908906 98.228679 
L 349.494212 98.461502 
L 351.108826 98.93217 
L 352.63426 99.625619 
L 353.900764 100.421374 
L 355.184393 101.488206 
L 356.266787 102.652323 
L 357.390688 104.218402 
L 358.321334 105.919287 
L 359.178504 108.00726 
L 359.868003 110.335494 
L 360.382816 112.896551 
L 360.710583 115.690431 
L 360.823018 118.484312 
L 360.718957 121.278192 
L 360.404112 123.839249 
L 359.944383 125.934659 
L 359.323377 127.797246 
L 358.542852 129.42701 
L 357.606735 130.82395 
L 356.531934 131.988067 
L 355.360984 132.91936 
L 354.133426 133.64211 
L 352.504795 134.322517 
L 350.643502 134.821479 
L 348.78221 135.095647 
L 346.688256 135.179944 
L 344.594302 135.038717 
L 342.733009 134.70612 
L 341.104378 134.219728 
L 339.475747 133.489668 
L 338.211509 132.686537 
L 337.124473 131.755243 
L 336.115247 130.591127 
L 335.228438 129.194186 
L 334.485423 127.564423 
L 333.891869 125.695297 
L 333.426546 123.412166 
L 333.180851 121.278192 
L 333.180851 121.278192 
" style="fill:none;stroke:#90d743;stroke-width:1.5;"/>
   </g>
   <g id="LineCollection_7">
    <path clip-path="url(#pf39a4fcd89)" d="M 54 156.496935 
L 55.395969 156.597484 
L 56.791939 156.909379 
L 58.187908 157.470076 
L 59.351216 158.180422 
L 60.310597 158.995577 
L 61.298892 160.159694 
L 62.010017 161.323811 
L 62.620389 162.720751 
L 63.091053 164.350515 
L 63.388311 166.213102 
L 63.473165 168.308512 
L 63.318531 170.403922 
L 62.974881 172.266509 
L 62.411179 174.129096 
L 61.677832 175.782431 
L 60.747186 177.283909 
L 59.816539 178.393134 
L 58.653231 179.41263 
L 57.489924 180.132058 
L 56.213709 180.64815 
L 54.930646 180.923529 
L 54 180.98136 
L 54 180.98136 
" style="fill:none;stroke:#fde725;stroke-width:1.5;"/>
    <path clip-path="url(#pf39a4fcd89)" d="M 388.8 180.98136 
L 387.404031 180.850654 
L 386.240723 180.534193 
L 384.973481 179.94968 
L 383.914107 179.235662 
L 382.750799 178.144348 
L 381.800161 176.922976 
L 380.991774 175.526036 
L 380.304944 173.896273 
L 379.770723 172.033686 
L 379.45272 170.171099 
L 379.324213 168.075688 
L 379.43662 165.980278 
L 379.763129 164.117691 
L 380.266754 162.487928 
L 380.914692 161.090987 
L 381.672548 159.926871 
L 382.518138 158.967223 
L 383.681445 158.01677 
L 384.844753 157.356411 
L 386.240723 156.84181 
L 387.636692 156.566663 
L 388.8 156.496935 
L 388.8 156.496935 
" style="fill:none;stroke:#fde725;stroke-width:1.5;"/>
    <path clip-path="url(#pf39a4fcd89)" d="M 86.546497 121.045369 
L 86.384024 119.182782 
L 86.433772 117.087371 
L 86.722516 114.991961 
L 87.198785 113.129374 
L 87.820972 111.499611 
L 88.666574 109.919083 
L 89.59722 108.647944 
L 90.699746 107.541613 
L 91.691174 106.809314 
L 92.981261 106.144673 
L 94.01779 105.805168 
L 95.41376 105.591327 
L 96.809729 105.64015 
L 98.063853 105.91185 
L 99.237701 106.377497 
L 100.403719 107.075967 
L 101.508124 108.00726 
L 102.519317 109.171377 
L 103.414917 110.568317 
L 104.172363 112.198081 
L 104.720222 113.878524 
L 105.101098 115.690431 
L 105.309059 117.785841 
L 105.278658 119.881252 
L 105.036829 121.743839 
L 104.627615 123.373602 
L 103.978033 125.003366 
L 103.14905 126.400306 
L 102.387895 127.331599 
L 101.357328 128.262893 
L 100.283231 128.961363 
L 98.903683 129.565634 
L 97.507714 129.921008 
L 96.111744 130.059545 
L 94.715775 129.996791 
L 93.319805 129.726176 
L 91.923836 129.217017 
L 90.760528 128.562731 
L 89.784941 127.797246 
L 88.899236 126.858775 
L 88.098215 125.701836 
L 87.409053 124.304896 
L 86.871457 122.675132 
L 86.546497 121.045369 
L 86.546497 121.045369 
" style="fill:none;stroke:#fde725;stroke-width:1.5;"/>
    <path clip-path="url(#pf39a4fcd89)" d="M 128.448371 170.869569 
L 128.240551 168.774159 
L 128.271187 166.678748 
L 128.513084 164.816161 
L 128.921809 163.186398 
L 129.571956 161.556634 
L 130.312995 160.285294 
L 131.243641 159.143311 
L 132.191847 158.297107 
L 133.337596 157.560484 
L 134.733565 156.965121 
L 136.129534 156.624347 
L 137.525504 156.498499 
L 138.921473 156.573835 
L 140.317443 156.858072 
L 141.713412 157.383976 
L 142.888319 158.064284 
L 144.040028 159.024678 
L 144.99931 160.159694 
L 145.827852 161.556634 
L 146.401568 162.953574 
L 146.84115 164.583338 
L 147.110262 166.445925 
L 147.167524 168.541335 
L 146.986129 170.636745 
L 146.599305 172.570658 
L 146.022305 174.361919 
L 145.265054 175.991683 
L 144.369338 177.388623 
L 143.342043 178.569156 
L 142.178735 179.537758 
L 141.015427 180.218414 
L 139.85212 180.667551 
L 138.45615 180.943209 
L 137.060181 180.954055 
L 135.896873 180.762048 
L 134.733565 180.375651 
L 133.489357 179.716857 
L 132.406949 178.894744 
L 131.399052 177.85427 
L 130.545657 176.687145 
L 129.670826 175.060389 
L 129.048872 173.430626 
L 128.572567 171.568039 
L 128.448371 170.869569 
L 128.448371 170.869569 
" style="fill:none;stroke:#fde725;stroke-width:1.5;"/>
    <path clip-path="url(#pf39a4fcd89)" d="M 170.093015 119.415605 
L 170.116174 117.320195 
L 170.378002 115.224784 
L 170.826409 113.362197 
L 171.520586 111.499611 
L 172.397902 109.869847 
L 173.249157 108.70573 
L 174.286032 107.639555 
L 175.44934 106.772919 
L 176.680884 106.144673 
L 177.775956 105.790855 
L 179.171925 105.588168 
L 180.567894 105.647851 
L 181.765223 105.91185 
L 182.938426 106.377497 
L 184.10422 107.075967 
L 185.221126 108.019498 
L 186.219474 109.171377 
L 187.115288 110.568317 
L 187.872336 112.198081 
L 188.467816 114.060668 
L 188.836069 115.923255 
L 189.017595 118.018665 
L 188.960478 120.114075 
L 188.691048 121.976662 
L 188.245726 123.624245 
L 187.560587 125.236189 
L 186.849667 126.400306 
L 185.860275 127.564423 
L 184.738206 128.495716 
L 183.524092 129.194186 
L 182.196525 129.69365 
L 180.800556 129.982446 
L 179.404587 130.061979 
L 178.008617 129.940354 
L 176.612648 129.604423 
L 175.216678 129.014887 
L 174.041743 128.262893 
L 173.012961 127.331599 
L 172.090505 126.167483 
L 171.311205 124.770542 
L 170.771999 123.373602 
L 170.330785 121.569312 
L 170.120984 119.881252 
L 170.093015 119.415605 
L 170.093015 119.415605 
" style="fill:none;stroke:#fde725;stroke-width:1.5;"/>
    <path clip-path="url(#pf39a4fcd89)" d="M 211.966111 169.239805 
L 211.943258 167.144395 
L 212.131996 165.281808 
L 212.550893 163.419221 
L 213.160953 161.789458 
L 213.940507 160.392517 
L 214.862929 159.228401 
L 215.932453 158.266315 
L 217.095761 157.529864 
L 218.49173 156.946135 
L 219.8877 156.615034 
L 221.283669 156.49763 
L 222.679639 156.581362 
L 224.159725 156.900167 
L 225.471577 157.412203 
L 226.634885 158.096898 
L 227.710092 158.995577 
L 228.527846 159.926871 
L 229.284882 161.090987 
L 229.933447 162.487928 
L 230.436644 164.117691 
L 230.763365 165.980278 
L 230.87551 167.842865 
L 230.773228 169.938275 
L 230.429132 172.033686 
L 229.892147 173.906295 
L 229.194163 175.555428 
L 228.399262 176.922976 
L 227.49999 178.087093 
L 226.402224 179.142164 
L 225.227907 179.94968 
L 224.075608 180.491546 
L 222.9123 180.827692 
L 221.516331 180.980458 
L 220.120361 180.871747 
L 218.957054 180.574828 
L 217.793746 180.071488 
L 216.630438 179.325558 
L 215.513682 178.319917 
L 214.730276 177.388623 
L 213.834382 175.991683 
L 213.077547 174.361919 
L 212.482438 172.499332 
L 212.113916 170.636745 
L 211.966111 169.239805 
L 211.966111 169.239805 
" style="fill:none;stroke:#fde725;stroke-width:1.5;"/>
    <path clip-path="url(#pf39a4fcd89)" d="M 253.839522 120.114075 
L 253.782405 118.018665 
L 253.963931 115.923255 
L 254.332184 114.060668 
L 254.927664 112.198081 
L 255.684712 110.568317 
L 256.415566 109.396974 
L 257.363287 108.240083 
L 258.509521 107.212428 
L 259.672828 106.473161 
L 260.836136 105.975325 
L 262.027085 105.679026 
L 263.395413 105.580049 
L 264.791383 105.738342 
L 266.119116 106.144673 
L 267.117999 106.633261 
L 268.281306 107.441639 
L 269.34983 108.472907 
L 270.249244 109.637024 
L 271.073245 111.063035 
L 271.77123 112.737444 
L 272.279292 114.526314 
L 272.623093 116.621725 
L 272.725706 118.717135 
L 272.613256 120.579722 
L 272.286783 122.442309 
L 271.77123 124.104183 
L 271.073245 125.578945 
L 270.375261 126.636999 
L 269.444614 127.676506 
L 268.43746 128.495716 
L 267.223826 129.194186 
L 265.954691 129.676803 
L 264.558721 129.974741 
L 263.162752 130.062674 
L 261.766782 129.949488 
L 260.370813 129.623206 
L 258.974844 129.045264 
L 257.742489 128.262893 
L 256.712776 127.331599 
L 255.950243 126.400179 
L 255.122235 125.003366 
L 254.548162 123.606426 
L 254.088951 121.877032 
L 253.839522 120.114075 
L 253.839522 120.114075 
" style="fill:none;stroke:#fde725;stroke-width:1.5;"/>
    <path clip-path="url(#pf39a4fcd89)" d="M 295.726457 169.938275 
L 295.624666 167.842865 
L 295.764791 165.747455 
L 296.121508 163.884868 
L 296.666018 162.236816 
L 297.364003 160.83058 
L 298.155846 159.694047 
L 299.034913 158.762754 
L 300.155942 157.901846 
L 301.319249 157.277541 
L 302.715219 156.795343 
L 304.111188 156.547269 
L 305.507158 156.505453 
L 306.9138 156.667344 
L 308.299097 157.045165 
L 309.532382 157.598637 
L 310.625712 158.310465 
L 311.637126 159.228401 
L 312.559597 160.392517 
L 313.338635 161.789458 
L 313.882974 163.20169 
L 314.329613 165.048985 
L 314.544363 166.911572 
L 314.547989 169.006982 
L 314.313271 171.102392 
L 313.882974 172.996668 
L 313.231826 174.827566 
L 312.487005 176.306084 
L 311.556359 177.665102 
L 310.513191 178.785563 
L 309.462404 179.617486 
L 308.299097 180.272955 
L 307.135789 180.700974 
L 305.739819 180.954055 
L 304.34385 180.943209 
L 303.180542 180.732468 
L 302.017234 180.32536 
L 300.853926 179.69473 
L 299.685727 178.785563 
L 298.609597 177.621446 
L 297.803172 176.45733 
L 296.968318 174.827566 
L 296.376595 173.197803 
L 295.927952 171.335216 
L 295.726457 169.938275 
L 295.726457 169.938275 
" style="fill:none;stroke:#fde725;stroke-width:1.5;"/>
    <path clip-path="url(#pf39a4fcd89)" d="M 337.586431 120.579722 
L 337.47431 118.484312 
L 337.60249 116.388901 
L 337.920878 114.526314 
L 338.454909 112.663727 
L 339.141771 111.033964 
L 339.950016 109.637024 
L 340.871716 108.447824 
L 342.035024 107.347457 
L 343.198332 106.567379 
L 344.36164 106.03628 
L 345.727275 105.679026 
L 346.920917 105.578696 
L 348.316887 105.703898 
L 349.480195 106.015461 
L 350.776534 106.61032 
L 351.816011 107.30879 
L 352.970118 108.383691 
L 353.949534 109.637024 
L 354.831411 111.182493 
L 355.525735 112.896551 
L 356.030174 114.759138 
L 356.346087 116.854548 
L 356.422304 118.949958 
L 356.285028 120.812545 
L 355.928543 122.675132 
L 355.390947 124.304896 
L 354.701785 125.701836 
L 353.894919 126.865953 
L 352.970118 127.838104 
L 351.782795 128.72854 
L 350.643502 129.320375 
L 349.247533 129.786593 
L 347.851564 130.021238 
L 346.455594 130.050503 
L 345.059625 129.877698 
L 343.663655 129.48311 
L 342.500347 128.952487 
L 341.33704 128.181078 
L 340.406393 127.32553 
L 339.475747 126.146227 
L 338.711305 124.770542 
L 338.100458 123.140779 
L 337.720813 121.511015 
L 337.586431 120.579722 
L 337.586431 120.579722 
" style="fill:none;stroke:#fde725;stroke-width:1.5;"/>
   </g>
   <g id="line2d_1">
    <path clip-path="url(#pf39a4fcd89)" d="M 54 195.36 
L 388.8 195.36 
" style="fill:none;stroke:#ff0000;stroke-linecap:square;stroke-width:1.5;"/>
   </g>
   <g id="line2d_2">
    <path clip-path="url(#pf39a4fcd89)" d="M 54 91.2 
L 388.8 91.2 
" style="fill:none;stroke:#ff0000;stroke-linecap:square;stroke-width:1.5;"/>
   </g>
   <g id="patch_3">
    <path d="M 54 252 
L 54 34.56 
" style="fill:none;stroke:#000000;stroke-linecap:square;stroke-linejoin:miter;stroke-width:0.8;"/>
   </g>
   <g id="patch_4">
    <path d="M 388.8 252 
L 388.8 34.56 
" style="fill:none;stroke:#000000;stroke-linecap:square;stroke-linejoin:miter;stroke-width:0.8;"/>
   </g>
   <g id="patch_5">
    <path d="M 54 252 
L 388.8 252 
" style="fill:none;stroke:#000000;stroke-linecap:square;stroke-linejoin:miter;stroke-width:0.8;"/>
   </g>
   <g id="patch_6">
    <path d="M 54 34.56 
L 388.8 34.56 
" style="fill:none;stroke:#000000;stroke-linecap:square;stroke-linejoin:miter;stroke-width:0.8;"/>
   </g>
  </g>
 </g>
 <defs>
  <clipPath id="pf39a4fcd89">
   <rect height="217.44" width="334.8" x="54" y="34.56"/>
  </clipPath>
 </defs>
</svg>
