<?xml version="1.0" encoding="utf-8" standalone="no"?>
<!DOCTYPE svg PUBLIC "-//W3C//DTD SVG 1.1//EN"
  "http://www.w3.org/Graphics/SVG/1.1/DTD/svg11.dtd">
<!-- Created with matplotlib (http://matplotlib.org/) -->
<svg height="288pt" version="1.1" viewBox="0 0 432 288" width="432pt" xmlns="http://www.w3.org/2000/svg" xmlns:xlink="http://www.w3.org/1999/xlink">
 <defs>
  <style type="text/css">
*{stroke-linecap:butt;stroke-linejoin:round;}
  </style>
 </defs>
 <g id="figure_1">
  <g id="patch_1">
   <path d="M 0 288 
L 432 288 
L 432 0 
L 0 0 
z
" style="fill:#ffffff;"/>
  </g>
  <g id="axes_1">
   <g id="patch_2">
    <path d="M 54 252 
L 388.8 252 
L 388.8 34.56 
L 54 34.56 
z
" style="fill:#ffffff;"/>
   </g>
   <g id="matplotlib.axis_1"/>
   <g id="matplotlib.axis_2"/>
   <g id="LineCollection_1">
    <path clip-path="url(#p1f2ecf0232)" d="M 84.233312 196.480139 
L 84.397606 197.411433 
L 84.714712 198.109903 
L 85.428563 199.041196 
L 86.339958 199.822101 
L 87.503266 200.533026 
L 88.899236 201.148611 
L 90.760528 201.710002 
L 92.854482 202.094474 
L 95.181098 202.27696 
L 97.507714 202.227898 
L 99.834329 201.941056 
L 101.695622 201.510591 
L 103.413362 200.903783 
L 104.782734 200.205313 
L 105.88353 199.40707 
L 106.672559 198.575549 
L 107.215773 197.644256 
L 107.452407 196.712962 
L 107.4002 195.781669 
L 107.166585 195.083199 
L 106.749927 194.384729 
L 106.116192 193.681974 
L 105.185546 192.962131 
L 103.789576 192.212663 
L 102.083387 191.590848 
L 100.066991 191.119897 
L 97.740375 190.830892 
L 95.41376 190.764923 
L 93.087144 190.911148 
L 90.760528 191.295828 
L 88.892813 191.823672 
L 87.26586 192.522142 
L 86.107297 193.246934 
L 85.17665 194.103709 
L 84.650747 194.850376 
L 84.299641 195.781669 
L 84.233312 196.480139 
L 84.233312 196.480139 
" style="fill:none;stroke:#440154;stroke-width:1.5;"/>
    <path clip-path="url(#p1f2ecf0232)" d="M 167.999297 90.778331 
L 168.236831 91.484737 
L 168.702154 92.242225 
L 169.400139 92.981026 
L 170.330785 93.671355 
L 171.494093 94.295759 
L 173.122724 94.909767 
L 174.984017 95.374032 
L 177.077971 95.679459 
L 179.404587 95.798368 
L 181.731202 95.705957 
L 184.057818 95.385466 
L 186.151772 94.854343 
L 187.780403 94.213663 
L 188.943711 93.559899 
L 189.874357 92.821696 
L 190.610808 91.942448 
L 191.042001 91.011154 
L 191.166262 90.079861 
L 191.002613 89.148567 
L 190.539527 88.217274 
L 189.874357 87.422734 
L 188.943711 86.655233 
L 187.780403 85.967344 
L 186.384434 85.369354 
L 184.523141 84.822418 
L 182.429187 84.450831 
L 180.102571 84.280015 
L 177.775956 84.34063 
L 175.44934 84.640077 
L 173.588047 85.08344 
L 171.959416 85.667831 
L 170.563447 86.388068 
L 169.400139 87.255667 
L 168.702154 88.018694 
L 168.184173 88.915744 
L 167.947578 89.847038 
L 167.999297 90.778331 
L 167.999297 90.778331 
" style="fill:none;stroke:#440154;stroke-width:1.5;"/>
    <path clip-path="url(#p1f2ecf0232)" d="M 251.729239 197.178609 
L 251.994997 197.887464 
L 252.616363 198.808373 
L 253.390966 199.554878 
L 254.554274 200.343353 
L 255.950243 201.012421 
L 257.731997 201.602253 
L 259.672828 202.010068 
L 261.766782 202.239598 
L 264.093398 202.271339 
L 266.444143 202.0679 
L 268.513968 201.66736 
L 270.375261 201.081724 
L 271.777946 200.438136 
L 272.934538 199.692792 
L 273.88399 198.808373 
L 274.510153 197.877079 
L 274.820725 196.945786 
L 274.840579 196.014492 
L 274.663815 195.316022 
L 274.310948 194.617552 
L 273.632523 193.795424 
L 272.701876 193.040172 
L 271.538568 192.374645 
L 270.142599 191.801685 
L 268.281306 191.282999 
L 266.187352 190.931495 
L 263.860737 190.768479 
L 261.534121 190.818602 
L 259.207505 191.090102 
L 257.113551 191.56283 
L 255.48492 192.136915 
L 254.088951 192.85232 
L 253.158304 193.528027 
L 252.350188 194.384729 
L 251.836121 195.316022 
L 251.637676 196.247316 
L 251.729239 197.178609 
L 251.729239 197.178609 
" style="fill:none;stroke:#440154;stroke-width:1.5;"/>
    <path clip-path="url(#p1f2ecf0232)" d="M 335.458391 91.011154 
L 335.753162 91.714455 
L 336.233929 92.408095 
L 337.149131 93.267994 
L 338.079778 93.88025 
L 339.475747 94.542929 
L 341.33704 95.13886 
L 343.198332 95.516657 
L 345.524948 95.759222 
L 347.851564 95.782958 
L 350.178179 95.591765 
L 352.311289 95.201975 
L 354.133426 94.653648 
L 355.53414 94.037858 
L 356.692703 93.313066 
L 357.62335 92.456291 
L 358.149253 91.709624 
L 358.500359 90.778331 
L 358.552813 89.847038 
L 358.31617 88.915744 
L 357.772578 87.984451 
L 356.925365 87.102116 
L 355.994719 86.424805 
L 354.831411 85.798842 
L 353.20278 85.171713 
L 351.341487 84.695683 
L 349.247533 84.386224 
L 346.920917 84.273532 
L 344.594302 84.392022 
L 342.414745 84.724924 
L 340.406393 85.267705 
L 338.777762 85.937894 
L 337.614454 86.614365 
L 336.528924 87.518804 
L 335.815126 88.450097 
L 335.429495 89.381391 
L 335.3375 90.312684 
L 335.458391 91.011154 
L 335.458391 91.011154 
" style="fill:none;stroke:#440154;stroke-width:1.5;"/>
   </g>
   <g id="LineCollection_2">
    <path clip-path="url(#p1f2ecf0232)" d="M 71.412131 197.877079 
L 71.768126 199.274019 
L 72.380264 200.681447 
L 73.099198 201.835076 
L 74.062407 202.999193 
L 75.404864 204.228595 
L 76.977907 205.327427 
L 78.695458 206.25872 
L 80.756081 207.125352 
L 83.147606 207.888484 
L 85.874635 208.524697 
L 88.899236 209.007315 
L 92.389159 209.328885 
L 95.879083 209.431348 
L 99.369006 209.325386 
L 102.85893 208.999928 
L 106.116192 208.466744 
L 108.908131 207.788419 
L 111.388593 206.957191 
L 113.474436 206.025897 
L 115.189993 205.029633 
L 116.656629 203.930487 
L 117.851675 202.76637 
L 118.763221 201.602253 
L 119.557305 200.205313 
L 120.077243 198.808373 
L 120.354568 197.411433 
L 120.402951 196.014492 
L 120.219606 194.617552 
L 119.784501 193.220612 
L 119.14524 191.967608 
L 118.370416 190.892378 
L 117.229035 189.728261 
L 115.887978 188.710018 
L 114.259347 187.772676 
L 112.334634 186.934381 
L 110.071438 186.197924 
L 107.255399 185.537441 
L 104.022238 185.027264 
L 100.299653 184.682671 
L 96.344406 184.546717 
L 92.389159 184.627586 
L 88.666574 184.913035 
L 85.17665 185.401994 
L 82.15205 186.056575 
L 79.592773 186.850255 
L 77.724568 187.632851 
L 76.03612 188.564145 
L 74.70688 189.527496 
L 73.530015 190.659555 
L 72.612926 191.874097 
L 72.015105 192.987789 
L 71.534604 194.384729 
L 71.311198 195.781669 
L 71.321645 197.178609 
L 71.412131 197.877079 
L 71.412131 197.877079 
" style="fill:none;stroke:#443983;stroke-width:1.5;"/>
    <path clip-path="url(#p1f2ecf0232)" d="M 80.503552 127.331599 
L 80.778238 128.03007 
L 81.252309 128.72854 
L 82.15205 129.584562 
L 83.082696 130.210292 
L 84.478666 130.902202 
L 86.339958 131.559411 
L 88.666574 132.116807 
L 91.225851 132.502092 
L 94.250452 132.72451 
L 97.275052 132.730505 
L 100.299653 132.521103 
L 103.091591 132.105554 
L 105.486048 131.52242 
L 107.405819 130.82395 
L 108.908131 130.033197 
L 110.007083 129.194186 
L 110.629103 128.495716 
L 111.034424 127.797246 
L 111.246696 127.098776 
L 111.277079 126.400306 
L 111.126986 125.701836 
L 110.769423 124.975581 
L 110.071438 124.138545 
L 109.373454 123.556948 
L 108.210146 122.844075 
L 106.581515 122.133496 
L 104.487561 121.500154 
L 101.928284 120.996579 
L 99.136345 120.682153 
L 96.111744 120.559277 
L 93.087144 120.645517 
L 90.062543 120.953864 
L 87.503266 121.430966 
L 85.409312 122.029783 
L 83.780681 122.696837 
L 82.384712 123.51568 
L 81.454065 124.312477 
L 80.776867 125.236189 
L 80.502393 125.934659 
L 80.413346 126.633129 
L 80.503552 127.331599 
L 80.503552 127.331599 
" style="fill:none;stroke:#443983;stroke-width:1.5;"/>
    <path clip-path="url(#p1f2ecf0232)" d="M 155.18029 91.942448 
L 155.615496 93.339388 
L 156.200013 94.503505 
L 157.069076 95.71413 
L 158.170978 96.831739 
L 159.395691 97.772747 
L 161.024322 98.728783 
L 163.065333 99.625619 
L 165.212231 100.329564 
L 168.00417 100.994827 
L 171.02877 101.488345 
L 174.751355 101.85445 
L 178.706602 102.010098 
L 182.661849 101.948471 
L 186.617095 101.65931 
L 190.107019 101.178456 
L 193.131619 100.53376 
L 195.690896 99.751948 
L 197.784851 98.873776 
L 199.413482 97.96399 
L 200.809451 96.934253 
L 201.86981 95.900445 
L 202.755341 94.736328 
L 203.385042 93.572211 
L 203.865486 92.175271 
L 204.088922 90.778331 
L 204.078509 89.381391 
L 203.834051 87.963146 
L 203.361981 86.58751 
L 202.616691 85.19057 
L 201.740097 84.009389 
L 200.576789 82.822094 
L 199.139831 81.69822 
L 197.552189 80.732555 
L 195.665644 79.835633 
L 193.364281 78.998882 
L 190.805003 78.307097 
L 187.780403 77.731437 
L 184.523141 77.34218 
L 181.033218 77.147357 
L 177.310632 77.171371 
L 173.820709 77.413667 
L 170.563447 77.854323 
L 167.538846 78.489385 
L 164.979569 79.248115 
L 162.885615 80.073637 
L 161.024322 81.025753 
L 159.318641 82.163866 
L 157.988222 83.327983 
L 156.971367 84.4921 
L 156.138429 85.772275 
L 155.551052 87.053157 
L 155.155097 88.450097 
L 154.992716 89.847038 
L 155.058929 91.243978 
L 155.18029 91.942448 
L 155.18029 91.942448 
" style="fill:none;stroke:#443983;stroke-width:1.5;"/>
    <path clip-path="url(#p1f2ecf0232)" d="M 164.27268 160.858164 
L 164.612223 161.556634 
L 165.212231 162.306339 
L 166.142877 163.085326 
L 167.306185 163.775402 
L 168.934816 164.468427 
L 170.868469 165.048985 
L 173.355386 165.545697 
L 176.147325 165.868824 
L 179.171925 165.999901 
L 182.196525 165.921747 
L 185.221126 165.622589 
L 187.780403 165.155932 
L 189.874357 164.570687 
L 191.73565 163.804849 
L 192.898958 163.126072 
L 193.938658 162.255104 
L 194.527589 161.489048 
L 194.827056 160.858164 
L 194.977212 160.159694 
L 194.946523 159.461224 
L 194.734457 158.762754 
L 194.294927 158.019618 
L 193.596942 157.266905 
L 192.666296 156.564051 
L 191.502988 155.918846 
L 189.874357 155.258753 
L 187.780403 154.665268 
L 185.453787 154.225283 
L 182.661849 153.918277 
L 179.637248 153.80655 
L 176.612648 153.905774 
L 173.588047 154.234021 
L 171.02877 154.734753 
L 168.934816 155.362247 
L 167.306185 156.063367 
L 166.142877 156.760076 
L 165.15926 157.598637 
L 164.514246 158.467147 
L 164.203778 159.228401 
L 164.11327 159.926871 
L 164.202615 160.625341 
L 164.27268 160.858164 
L 164.27268 160.858164 
" style="fill:none;stroke:#443983;stroke-width:1.5;"/>
    <path clip-path="url(#p1f2ecf0232)" d="M 238.721491 197.178609 
L 238.965949 198.596854 
L 239.438019 199.97249 
L 240.183309 201.36943 
L 241.059903 202.550611 
L 242.223211 203.737906 
L 243.660169 204.86178 
L 245.247811 205.827445 
L 247.134356 206.724367 
L 249.435719 207.561118 
L 251.994997 208.252903 
L 255.019597 208.828563 
L 258.276859 209.21782 
L 261.766782 209.412643 
L 265.489368 209.388629 
L 268.979291 209.146333 
L 272.236553 208.705677 
L 275.261154 208.070615 
L 277.820431 207.311885 
L 279.914385 206.486363 
L 281.775678 205.534247 
L 283.481359 204.396134 
L 284.811778 203.232017 
L 285.828633 202.0679 
L 286.661571 200.787725 
L 287.248948 199.506843 
L 287.644903 198.109903 
L 287.807284 196.712962 
L 287.741071 195.316022 
L 287.435546 193.919082 
L 286.894232 192.588974 
L 286.196247 191.443169 
L 285.265601 190.333019 
L 284.062421 189.262615 
L 282.684798 188.331321 
L 280.845031 187.38855 
L 278.751077 186.587269 
L 276.1918 185.868478 
L 273.353627 185.304618 
L 269.909937 184.859252 
L 266.187352 184.604181 
L 262.232106 184.552119 
L 258.276859 184.717672 
L 254.554274 185.095009 
L 251.297012 185.648289 
L 248.505073 186.349506 
L 246.173893 187.167204 
L 244.221378 188.098498 
L 242.688534 189.074297 
L 241.371214 190.193908 
L 240.361918 191.361786 
L 239.63948 192.522142 
L 239.064473 193.919082 
L 238.758827 195.316022 
L 238.692772 196.712962 
L 238.721491 197.178609 
L 238.721491 197.178609 
" style="fill:none;stroke:#443983;stroke-width:1.5;"/>
    <path clip-path="url(#p1f2ecf0232)" d="M 247.97433 127.564423 
L 248.313084 128.262893 
L 248.970396 129.073154 
L 249.901042 129.841121 
L 251.06435 130.526501 
L 252.46032 131.133544 
L 254.447874 131.755243 
L 256.88089 132.262195 
L 259.672828 132.604762 
L 262.697429 132.750076 
L 265.722029 132.683979 
L 268.74663 132.393298 
L 271.305907 131.935075 
L 273.632523 131.281285 
L 275.493815 130.496633 
L 276.657123 129.799924 
L 277.64074 128.961363 
L 278.285754 128.092853 
L 278.596222 127.331599 
L 278.68673 126.633129 
L 278.597385 125.934659 
L 278.285754 125.171207 
L 277.820431 124.507372 
L 277.122446 123.826109 
L 275.959138 123.034691 
L 274.563169 122.359405 
L 272.701876 121.717609 
L 270.375261 121.174349 
L 267.583322 120.775058 
L 264.558721 120.577466 
L 261.301459 120.601314 
L 258.276859 120.846188 
L 255.48492 121.300839 
L 253.158304 121.913175 
L 251.529673 122.534666 
L 250.133704 123.280274 
L 249.096836 124.072072 
L 248.470316 124.770542 
L 248.03975 125.530424 
L 247.852639 126.167483 
L 247.823225 126.865953 
L 247.97433 127.564423 
L 247.97433 127.564423 
" style="fill:none;stroke:#443983;stroke-width:1.5;"/>
    <path clip-path="url(#p1f2ecf0232)" d="M 322.458844 91.243978 
L 322.764393 92.640918 
L 323.222928 93.805035 
L 323.899269 94.969152 
L 324.843671 96.133268 
L 325.981376 97.174021 
L 327.377345 98.145213 
L 329.005976 99.012367 
L 331.109261 99.858442 
L 333.659208 100.607058 
L 336.451147 101.188574 
L 339.708409 101.640707 
L 343.430994 101.929567 
L 347.38624 102.013653 
L 351.341487 101.880966 
L 355.064072 101.539925 
L 358.355328 101.022559 
L 361.113273 100.37818 
L 363.439889 99.623722 
L 365.543427 98.694325 
L 367.162474 97.73294 
L 368.558443 96.624975 
L 369.48909 95.645 
L 370.299941 94.503505 
L 370.885059 93.338363 
L 371.319702 91.942448 
L 371.502963 90.545508 
L 371.454499 89.148567 
L 371.177098 87.751627 
L 370.652397 86.344124 
L 369.863213 84.957747 
L 368.951705 83.79363 
L 367.756592 82.629513 
L 366.231828 81.491966 
L 364.574601 80.534103 
L 362.488815 79.602809 
L 360.182627 78.822178 
L 357.390688 78.129039 
L 354.366088 77.613725 
L 351.073074 77.274576 
L 347.618902 77.132446 
L 343.896317 77.208298 
L 340.368881 77.507399 
L 337.149131 78.001527 
L 334.2477 78.671516 
L 331.797915 79.456176 
L 329.703961 80.345611 
L 327.842669 81.37976 
L 326.423104 82.39669 
L 325.162476 83.560807 
L 324.120083 84.837575 
L 323.354835 86.121864 
L 322.792111 87.518804 
L 322.475539 88.915744 
L 322.389305 90.312684 
L 322.458844 91.243978 
L 322.458844 91.243978 
" style="fill:none;stroke:#443983;stroke-width:1.5;"/>
    <path clip-path="url(#p1f2ecf0232)" d="M 331.552474 160.392517 
L 331.797915 161.161445 
L 332.263238 161.908784 
L 332.961223 162.633688 
L 333.891869 163.316527 
L 335.055177 163.94565 
L 336.683808 164.590365 
L 338.777762 165.169217 
L 341.33704 165.630681 
L 344.128978 165.910732 
L 347.153579 166.001022 
L 350.178179 165.882238 
L 353.20278 165.536697 
L 355.631435 165.048985 
L 357.62335 164.447539 
L 359.251981 163.745761 
L 360.542256 162.953574 
L 361.345935 162.247523 
L 362.023133 161.323811 
L 362.297607 160.625341 
L 362.386654 159.926871 
L 362.276581 159.162287 
L 362.021762 158.52993 
L 361.547691 157.83146 
L 360.64795 156.975438 
L 359.717304 156.349708 
L 358.321334 155.657798 
L 356.460042 155.000589 
L 354.133426 154.443193 
L 351.574149 154.057908 
L 348.549548 153.83549 
L 345.524948 153.829495 
L 342.500347 154.038897 
L 339.708409 154.454446 
L 337.313952 155.03758 
L 335.394181 155.73605 
L 333.891869 156.526803 
L 332.792917 157.365814 
L 332.170897 158.064284 
L 331.765576 158.762754 
L 331.553304 159.461224 
L 331.522921 160.159694 
L 331.552474 160.392517 
L 331.552474 160.392517 
" style="fill:none;stroke:#443983;stroke-width:1.5;"/>
   </g>
   <g id="LineCollection_3">
    <path clip-path="url(#p1f2ecf0232)" d="M 62.345898 199.041196 
L 62.73313 201.136606 
L 63.306463 203.024108 
L 64.004448 204.634814 
L 64.960555 206.25872 
L 66.098402 207.707251 
L 67.26171 208.858876 
L 68.698986 209.983894 
L 70.28631 210.966764 
L 72.380264 211.979783 
L 74.70688 212.844628 
L 77.498819 213.632154 
L 80.756081 214.307841 
L 84.478666 214.849048 
L 88.899236 215.253252 
L 93.552467 215.454837 
L 98.43836 215.448316 
L 103.324253 215.217005 
L 107.744823 214.785405 
L 111.674535 214.174715 
L 114.821021 213.476245 
L 117.516609 212.669228 
L 119.843224 211.750863 
L 121.91122 210.682364 
L 123.333148 209.747135 
L 124.737785 208.586954 
L 126.044392 207.190014 
L 127.055733 205.774021 
L 127.922722 204.16331 
L 128.565625 202.533547 
L 129.073921 200.67096 
L 129.408702 198.575549 
L 129.522182 196.480139 
L 129.419418 194.384729 
L 129.12905 192.522142 
L 128.610996 190.659555 
L 127.913052 189.029791 
L 127.055733 187.621128 
L 126.108828 186.468734 
L 124.830493 185.304618 
L 123.471202 184.373324 
L 121.937179 183.566422 
L 119.862115 182.743561 
L 117.463085 182.04509 
L 114.492008 181.422586 
L 110.769423 180.886921 
L 106.348853 180.481186 
L 100.997637 180.215818 
L 94.948436 180.139905 
L 88.899236 180.282301 
L 83.548019 180.62243 
L 79.12745 181.119032 
L 75.637526 181.724658 
L 72.845587 182.423597 
L 70.518972 183.236748 
L 68.631304 184.140501 
L 67.176244 185.071794 
L 65.86574 186.187839 
L 64.935094 187.232493 
L 64.040016 188.564145 
L 63.306463 190.082367 
L 62.797889 191.590848 
L 62.400411 193.453435 
L 62.196132 195.548846 
L 62.21445 197.644256 
L 62.345898 199.041196 
L 62.345898 199.041196 
" style="fill:none;stroke:#31688e;stroke-width:1.5;"/>
    <path clip-path="url(#p1f2ecf0232)" d="M 65.609945 128.03007 
L 65.946672 129.42701 
L 66.425678 130.591127 
L 67.125364 131.755243 
L 68.110683 132.91936 
L 69.176468 133.850654 
L 70.588426 134.781947 
L 72.380264 135.659849 
L 74.474218 136.417791 
L 77.107546 137.110181 
L 80.290757 137.698055 
L 84.246004 138.183287 
L 88.899236 138.52115 
L 94.250452 138.684186 
L 99.834329 138.637648 
L 105.185546 138.374136 
L 109.606115 137.94684 
L 113.3287 137.370164 
L 116.120639 136.736652 
L 118.447255 136.003796 
L 120.308548 135.208557 
L 121.937179 134.270265 
L 123.100486 133.378211 
L 124.219699 132.22089 
L 125.02386 131.056773 
L 125.659764 129.695588 
L 126.004218 128.495716 
L 126.186888 127.098776 
L 126.151133 125.701836 
L 125.891982 124.304896 
L 125.379986 122.907955 
L 124.716557 121.743839 
L 123.770694 120.579722 
L 122.635163 119.568281 
L 121.239194 118.645625 
L 119.482846 117.785841 
L 117.516609 117.07267 
L 114.935136 116.388901 
L 111.700069 115.79111 
L 107.744823 115.308918 
L 103.091591 114.972298 
L 97.507714 114.802302 
L 91.691174 114.851033 
L 86.339958 115.110824 
L 81.919388 115.529495 
L 78.196803 116.095897 
L 75.404864 116.720692 
L 73.078249 117.448067 
L 71.198932 118.251488 
L 69.588325 119.189062 
L 68.409032 120.114075 
L 67.323145 121.278192 
L 66.556303 122.442309 
L 66.029522 123.606426 
L 65.649325 125.003366 
L 65.503944 126.400306 
L 65.576566 127.797246 
L 65.609945 128.03007 
L 65.609945 128.03007 
" style="fill:none;stroke:#31688e;stroke-width:1.5;"/>
    <path clip-path="url(#p1f2ecf0232)" d="M 145.896082 91.011154 
L 146.10042 93.106565 
L 146.497922 94.969152 
L 147.064628 96.620273 
L 147.762613 98.034762 
L 148.693259 99.401582 
L 149.856567 100.649504 
L 151.203629 101.721029 
L 152.764581 102.652323 
L 154.509798 103.440075 
L 156.603753 104.153593 
L 159.16303 104.798316 
L 162.420292 105.381761 
L 166.375539 105.857784 
L 171.261432 106.213967 
L 177.077971 106.404653 
L 183.127172 106.385032 
L 188.943711 106.151373 
L 193.829604 105.744901 
L 197.784851 105.207452 
L 201.042113 104.544732 
L 203.60139 103.803013 
L 205.695344 102.966612 
L 207.323975 102.093508 
L 208.719944 101.103479 
L 209.883252 100.011047 
L 210.813899 98.856153 
L 211.61304 97.530209 
L 212.310986 95.900445 
L 212.829001 94.037858 
L 213.119435 92.175271 
L 213.222186 90.079861 
L 213.108695 87.984451 
L 212.773913 85.88904 
L 212.209868 83.862479 
L 211.511883 82.161283 
L 210.581237 80.513196 
L 209.550543 79.137163 
L 208.254621 77.805043 
L 206.858652 76.687001 
L 205.206452 75.644812 
L 203.136067 74.629849 
L 200.809451 73.753534 
L 198.017512 72.956305 
L 194.76025 72.272664 
L 191.037665 71.724764 
L 186.617095 71.314548 
L 181.963864 71.107677 
L 177.077971 71.108981 
L 172.192078 71.334684 
L 167.771508 71.760119 
L 164.048923 72.325053 
L 160.791661 73.029032 
L 157.999722 73.850936 
L 155.673106 74.757018 
L 153.811814 75.690769 
L 152.072373 76.808929 
L 150.662329 77.973046 
L 149.549443 79.137163 
L 148.460598 80.60281 
L 147.586933 82.163866 
L 146.913873 83.79363 
L 146.366644 85.706636 
L 146.01728 87.751627 
L 145.87983 89.847038 
L 145.896082 91.011154 
L 145.896082 91.011154 
" style="fill:none;stroke:#31688e;stroke-width:1.5;"/>
    <path clip-path="url(#p1f2ecf0232)" d="M 149.349364 161.556634 
L 149.729542 162.953574 
L 150.32189 164.233865 
L 151.023044 165.281808 
L 151.950521 166.298254 
L 153.113829 167.248975 
L 154.509798 168.107403 
L 156.371091 168.95778 
L 158.465045 169.662184 
L 161.024322 170.291373 
L 164.281584 170.854662 
L 168.236831 171.305117 
L 173.122724 171.626662 
L 178.706602 171.764454 
L 184.523141 171.683731 
L 189.874357 171.388199 
L 194.294927 170.926616 
L 197.784851 170.351079 
L 200.576789 169.679043 
L 202.903405 168.888423 
L 204.764698 168.012378 
L 206.160667 167.123429 
L 207.323975 166.128798 
L 208.254621 165.046279 
L 208.966386 163.884868 
L 209.525299 162.487928 
L 209.823868 161.090987 
L 209.896016 159.694047 
L 209.750289 158.297107 
L 209.373077 156.900167 
L 208.853656 155.73605 
L 208.02196 154.467934 
L 207.049451 153.407816 
L 205.907851 152.476523 
L 204.387869 151.545229 
L 202.670744 150.757212 
L 200.576789 150.03672 
L 198.017512 149.39009 
L 194.76025 148.809614 
L 190.805003 148.343669 
L 186.151772 148.021581 
L 180.800556 147.872367 
L 175.216678 147.932595 
L 169.865462 148.211723 
L 165.444892 148.657381 
L 161.929383 149.216996 
L 158.930368 149.918786 
L 156.603753 150.688451 
L 154.712039 151.545229 
L 153.113829 152.533281 
L 151.950521 153.503791 
L 150.996786 154.571933 
L 150.246331 155.73605 
L 149.646604 157.13299 
L 149.31001 158.52993 
L 149.200966 159.926871 
L 149.309607 161.323811 
L 149.349364 161.556634 
L 149.349364 161.556634 
" style="fill:none;stroke:#31688e;stroke-width:1.5;"/>
    <path clip-path="url(#p1f2ecf0232)" d="M 229.647508 198.109903 
L 229.931378 200.205313 
L 230.38654 202.0679 
L 231.072336 203.930487 
L 231.91361 205.56025 
L 232.916748 207.016501 
L 234.118709 208.354131 
L 235.476025 209.52918 
L 237.18887 210.682364 
L 238.965949 211.617207 
L 241.230357 212.544951 
L 243.61918 213.299449 
L 246.64378 214.021487 
L 250.267545 214.640362 
L 254.088951 215.07961 
L 258.742182 215.38525 
L 263.628075 215.478314 
L 268.513968 215.35061 
L 273.167199 215.007661 
L 277.355108 214.472686 
L 280.845031 213.809316 
L 283.869632 213.010288 
L 286.428909 212.100869 
L 288.522863 211.124292 
L 290.384156 209.995636 
L 291.780125 208.909922 
L 293.047814 207.655661 
L 294.139435 206.25872 
L 295.098452 204.628957 
L 295.802736 202.999193 
L 296.366886 201.136606 
L 296.754061 199.041196 
L 296.915477 196.945786 
L 296.861632 194.850376 
L 296.576664 192.754965 
L 296.090299 190.892378 
L 295.429761 189.262615 
L 294.572064 187.78778 
L 293.641418 186.612426 
L 292.47811 185.504149 
L 291.08214 184.502563 
L 289.453509 183.620571 
L 287.592217 182.85865 
L 285.265601 182.147982 
L 282.473662 181.52813 
L 278.983739 180.986242 
L 274.563169 180.541308 
L 269.211953 180.243178 
L 263.162752 180.137567 
L 257.113551 180.249605 
L 251.529673 180.5736 
L 247.109104 181.039225 
L 243.61918 181.606266 
L 240.59458 182.322226 
L 238.267964 183.097143 
L 236.406671 183.937886 
L 234.77804 184.926792 
L 233.456817 186.003088 
L 232.386287 187.167204 
L 231.440055 188.564145 
L 230.755693 189.961085 
L 230.197912 191.590848 
L 229.800459 193.453435 
L 229.596138 195.548846 
L 229.614431 197.644256 
L 229.647508 198.109903 
L 229.647508 198.109903 
" style="fill:none;stroke:#31688e;stroke-width:1.5;"/>
    <path clip-path="url(#p1f2ecf0232)" d="M 232.913028 127.098776 
L 233.095748 128.495716 
L 233.514723 129.892656 
L 234.080056 131.063557 
L 234.880354 132.22089 
L 235.941348 133.326161 
L 237.104656 134.230719 
L 238.500625 135.060897 
L 240.361918 135.894152 
L 242.455872 136.59133 
L 245.015149 137.219045 
L 248.272411 137.784207 
L 252.227658 138.237622 
L 256.88089 138.549387 
L 262.232106 138.689461 
L 267.815983 138.620078 
L 272.934538 138.348277 
L 277.355108 137.902619 
L 280.870617 137.343004 
L 283.869632 136.641214 
L 286.196247 135.871549 
L 288.087961 135.014771 
L 289.686171 134.026719 
L 290.849479 133.056209 
L 291.803214 131.988067 
L 292.553669 130.82395 
L 293.153396 129.42701 
L 293.48999 128.03007 
L 293.599034 126.633129 
L 293.490393 125.236189 
L 293.151651 123.839249 
L 292.666335 122.675132 
L 291.952587 121.511015 
L 290.939049 120.346898 
L 289.832337 119.415605 
L 288.349668 118.484312 
L 286.661571 117.695024 
L 284.567616 116.966371 
L 282.008339 116.317755 
L 278.751077 115.739011 
L 274.79583 115.276062 
L 270.142599 114.954968 
L 264.558721 114.798866 
L 258.742182 114.861271 
L 253.390966 115.136196 
L 248.970396 115.572905 
L 245.247811 116.16248 
L 242.315345 116.854548 
L 240.129256 117.579424 
L 238.267964 118.421885 
L 236.871994 119.270041 
L 235.708687 120.207141 
L 234.723136 121.278192 
L 233.956416 122.442309 
L 233.382071 123.74193 
L 233.049411 125.003366 
L 232.903853 126.400306 
L 232.913028 127.098776 
L 232.913028 127.098776 
" style="fill:none;stroke:#31688e;stroke-width:1.5;"/>
    <path clip-path="url(#p1f2ecf0232)" d="M 313.406005 92.408095 
L 313.722175 94.270682 
L 314.272975 96.133268 
L 315.010068 97.763032 
L 315.906268 99.159972 
L 316.917096 100.324089 
L 318.070883 101.333707 
L 319.466852 102.268162 
L 321.137374 103.117969 
L 323.189437 103.900267 
L 325.748714 104.614666 
L 328.773315 105.217185 
L 332.4959 105.725809 
L 337.149131 106.125826 
L 342.733009 106.370262 
L 348.78221 106.412692 
L 354.831411 106.234721 
L 359.949965 105.874394 
L 364.137874 105.373091 
L 367.627797 104.73489 
L 370.419736 103.993975 
L 372.51369 103.225747 
L 374.374983 102.301963 
L 375.770952 101.378012 
L 376.982844 100.324089 
L 377.993716 99.159972 
L 378.889888 97.763032 
L 379.627016 96.133268 
L 380.123026 94.503505 
L 380.465546 92.640918 
L 380.618396 90.545508 
L 380.552427 88.450097 
L 380.268595 86.354687 
L 379.813416 84.4921 
L 379.127595 82.629513 
L 378.286415 80.99975 
L 377.329801 79.602809 
L 376.081248 78.205869 
L 374.738088 77.041752 
L 373.211675 75.997926 
L 371.350382 74.997602 
L 369.256428 74.119392 
L 366.697151 73.293077 
L 363.67255 72.562428 
L 360.182627 71.955188 
L 355.994719 71.469934 
L 351.341487 71.169921 
L 346.455594 71.082148 
L 341.569701 71.215225 
L 336.91647 71.564035 
L 332.728562 72.105895 
L 329.238638 72.777083 
L 326.214038 73.585688 
L 323.65476 74.507078 
L 321.560806 75.497992 
L 319.799048 76.576106 
L 318.303544 77.752721 
L 316.94941 79.137163 
L 315.905076 80.534103 
L 314.986935 82.163866 
L 314.313836 83.79363 
L 313.778031 85.656217 
L 313.417199 87.751627 
L 313.279881 89.847038 
L 313.358061 91.942448 
L 313.406005 92.408095 
L 313.406005 92.408095 
" style="fill:none;stroke:#31688e;stroke-width:1.5;"/>
    <path clip-path="url(#p1f2ecf0232)" d="M 316.648867 160.858164 
L 316.908018 162.255104 
L 317.420014 163.652045 
L 318.083443 164.816161 
L 319.029306 165.980278 
L 320.164837 166.991719 
L 321.560806 167.914375 
L 323.317154 168.774159 
L 325.283391 169.48733 
L 327.864864 170.171099 
L 331.099931 170.76889 
L 335.055177 171.251082 
L 339.708409 171.587702 
L 345.292286 171.757698 
L 351.108826 171.708967 
L 356.460042 171.449176 
L 360.880612 171.030505 
L 364.603197 170.464103 
L 367.395136 169.839308 
L 369.721751 169.111933 
L 371.601068 168.308512 
L 373.211675 167.370938 
L 374.390968 166.445925 
L 375.476855 165.281808 
L 376.243697 164.117691 
L 376.770478 162.953574 
L 377.150675 161.556634 
L 377.296056 160.159694 
L 377.223434 158.762754 
L 376.92648 157.365814 
L 376.374322 155.968873 
L 375.674636 154.804757 
L 374.689317 153.64064 
L 373.623532 152.709346 
L 372.211574 151.778053 
L 370.419736 150.900151 
L 368.325782 150.142209 
L 365.692454 149.449819 
L 362.509243 148.861945 
L 358.553996 148.376713 
L 353.900764 148.03885 
L 348.549548 147.875814 
L 342.965671 147.922352 
L 337.614454 148.185864 
L 333.193885 148.61316 
L 329.4713 149.189836 
L 326.679361 149.823348 
L 324.352745 150.556204 
L 322.491452 151.351443 
L 320.862821 152.289735 
L 319.699514 153.181789 
L 318.580301 154.33911 
L 317.77614 155.503227 
L 317.140236 156.864412 
L 316.795782 158.064284 
L 316.613112 159.461224 
L 316.648867 160.858164 
L 316.648867 160.858164 
" style="fill:none;stroke:#31688e;stroke-width:1.5;"/>
   </g>
   <g id="LineCollection_4">
    <path clip-path="url(#p1f2ecf0232)" d="M 388.8 226.98 
L 305.274496 226.98 
L 305.1 226.747177 
L 305.041835 176.0758 
L 221.516331 176.0758 
L 221.4 176.224506 
L 221.4 226.747177 
L 221.283669 226.98 
L 137.758165 226.98 
L 137.7 226.514353 
L 137.758165 176.0758 
L 221.4 175.991683 
L 221.4 143.396412 
L 221.516331 143.28 
L 305.041835 143.28 
L 305.1 143.629235 
L 305.1 175.991683 
L 305.507158 176.0758 
L 388.8 176.0758 
L 388.8 176.0758 
" style="fill:none;stroke:#21918c;stroke-width:1.5;"/>
    <path clip-path="url(#p1f2ecf0232)" d="M 388.8 143.28 
L 305.274496 143.28 
L 305.1 143.163588 
L 305.1 110.568317 
L 305.507158 110.4842 
L 388.8 110.4842 
L 388.8 110.4842 
" style="fill:none;stroke:#21918c;stroke-width:1.5;"/>
    <path clip-path="url(#p1f2ecf0232)" d="M 54 175.991683 
L 54 143.396412 
L 54.465323 143.28 
L 137.525504 143.28 
L 137.7 143.163588 
L 137.7 110.568317 
L 137.292842 110.4842 
L 54.232662 110.4842 
L 54 110.335494 
L 54 59.812823 
L 54.232662 59.58 
L 137.525504 59.58 
L 137.7 59.812823 
L 137.758165 110.4842 
L 221.4 110.568317 
L 221.4 143.163588 
L 221.283669 143.28 
L 137.758165 143.28 
L 137.7 143.629235 
L 137.7 175.991683 
L 137.292842 176.0758 
L 54 175.991683 
L 54 175.991683 
" style="fill:none;stroke:#21918c;stroke-width:1.5;"/>
    <path clip-path="url(#p1f2ecf0232)" d="M 221.4 110.335494 
L 221.4 59.812823 
L 221.516331 59.58 
L 305.041835 59.58 
L 305.1 60.045647 
L 305.041835 110.4842 
L 221.516331 110.4842 
L 221.4 110.335494 
L 221.4 110.335494 
" style="fill:none;stroke:#21918c;stroke-width:1.5;"/>
   </g>
   <g id="LineCollection_5">
    <path clip-path="url(#p1f2ecf0232)" d="M 62.365862 92.873741 
L 62.18752 90.778331 
L 62.229688 88.682921 
L 62.488565 86.58751 
L 62.986584 84.4921 
L 63.672405 82.629513 
L 64.513585 80.99975 
L 65.470199 79.602809 
L 66.718752 78.205869 
L 68.061912 77.041752 
L 69.588325 75.997926 
L 71.449618 74.997602 
L 73.543572 74.119392 
L 76.102849 73.293077 
L 79.12745 72.562428 
L 82.617373 71.955188 
L 86.805281 71.469934 
L 91.458513 71.169921 
L 96.344406 71.082148 
L 101.230299 71.215225 
L 105.88353 71.564035 
L 110.071438 72.105895 
L 113.561362 72.777083 
L 116.585962 73.585688 
L 119.14524 74.507078 
L 121.239194 75.497992 
L 123.000952 76.576106 
L 124.496456 77.752721 
L 125.85059 79.137163 
L 126.894924 80.534103 
L 127.813065 82.163866 
L 128.486164 83.79363 
L 129.021969 85.656217 
L 129.382801 87.751627 
L 129.520119 89.847038 
L 129.441939 91.942448 
L 129.12905 94.037858 
L 128.610996 95.900445 
L 127.913052 97.530209 
L 127.055733 98.938872 
L 126.108828 100.091266 
L 124.830493 101.255382 
L 123.471202 102.186676 
L 121.937179 102.993578 
L 119.862115 103.816439 
L 117.463085 104.51491 
L 114.492008 105.137414 
L 110.769423 105.673079 
L 106.348853 106.078814 
L 100.997637 106.344182 
L 94.948436 106.420095 
L 88.899236 106.277699 
L 83.548019 105.93757 
L 79.12745 105.440968 
L 75.637526 104.835342 
L 72.845587 104.136403 
L 70.518972 103.323252 
L 68.631304 102.419499 
L 67.176244 101.488206 
L 65.86574 100.372161 
L 64.935094 99.327507 
L 64.040016 97.995855 
L 63.306463 96.477633 
L 62.797889 94.969152 
L 62.400411 93.106565 
L 62.365862 92.873741 
L 62.365862 92.873741 
" style="fill:none;stroke:#35b779;stroke-width:1.5;"/>
    <path clip-path="url(#p1f2ecf0232)" d="M 65.609542 161.323811 
L 65.501011 159.926871 
L 65.609945 158.52993 
L 65.946672 157.13299 
L 66.425678 155.968873 
L 67.125364 154.804757 
L 68.110683 153.64064 
L 69.176468 152.709346 
L 70.588426 151.778053 
L 72.380264 150.900151 
L 74.474218 150.142209 
L 77.107546 149.449819 
L 80.290757 148.861945 
L 84.246004 148.376713 
L 88.899236 148.03885 
L 94.250452 147.875814 
L 99.834329 147.922352 
L 105.185546 148.185864 
L 109.606115 148.61316 
L 113.3287 149.189836 
L 116.120639 149.823348 
L 118.447255 150.556204 
L 120.308548 151.351443 
L 121.937179 152.289735 
L 123.100486 153.181789 
L 124.219699 154.33911 
L 125.02386 155.503227 
L 125.659764 156.864412 
L 126.004218 158.064284 
L 126.186888 159.461224 
L 126.151133 160.858164 
L 125.891982 162.255104 
L 125.379986 163.652045 
L 124.716557 164.816161 
L 123.770694 165.980278 
L 122.635163 166.991719 
L 121.239194 167.914375 
L 119.482846 168.774159 
L 117.516609 169.48733 
L 114.935136 170.171099 
L 111.700069 170.76889 
L 107.744823 171.251082 
L 103.091591 171.587702 
L 97.507714 171.757698 
L 91.691174 171.708967 
L 86.339958 171.449176 
L 81.919388 171.030505 
L 78.196803 170.464103 
L 75.404864 169.839308 
L 73.078249 169.111933 
L 71.198932 168.308512 
L 69.588325 167.370938 
L 68.409032 166.445925 
L 67.323145 165.281808 
L 66.556303 164.117691 
L 66.029522 162.953574 
L 65.649325 161.556634 
L 65.609542 161.323811 
L 65.609542 161.323811 
" style="fill:none;stroke:#35b779;stroke-width:1.5;"/>
    <path clip-path="url(#p1f2ecf0232)" d="M 145.891843 197.178609 
L 145.921496 195.083199 
L 146.179055 192.987789 
L 146.634818 191.125202 
L 147.29729 189.41541 
L 148.021835 188.098498 
L 148.925921 186.876491 
L 150.089229 185.701937 
L 151.485198 184.650672 
L 152.881167 183.848068 
L 154.74246 183.02982 
L 156.836414 182.33883 
L 159.628353 181.664515 
L 162.885615 181.110799 
L 167.073523 180.637718 
L 172.192078 180.300353 
L 178.008617 180.144451 
L 184.057818 180.197303 
L 189.874357 180.469051 
L 194.76025 180.921407 
L 198.482835 181.474527 
L 201.507436 182.13281 
L 204.066713 182.92146 
L 205.928006 183.703767 
L 207.556637 184.612794 
L 208.952606 185.65163 
L 210.115914 186.808975 
L 211.078159 188.098498 
L 211.840336 189.495438 
L 212.465198 191.125202 
L 212.92098 192.987789 
L 213.178486 195.083199 
L 213.208103 197.178609 
L 213.022632 199.274019 
L 212.60856 201.36943 
L 211.977206 203.329689 
L 211.278772 204.86178 
L 210.276924 206.491544 
L 209.135751 207.888484 
L 207.789298 209.157679 
L 206.356947 210.216718 
L 204.532036 211.27585 
L 202.438082 212.217953 
L 199.878805 213.098566 
L 197.086866 213.822393 
L 193.596942 214.481889 
L 189.641696 214.990053 
L 185.221126 215.329682 
L 180.335233 215.476155 
L 175.44934 215.401576 
L 170.686928 215.106008 
L 166.567353 214.640362 
L 162.885615 214.009566 
L 159.719974 213.243421 
L 157.301737 212.462068 
L 154.975122 211.478657 
L 153.105775 210.449541 
L 151.466504 209.285424 
L 150.089229 208.020716 
L 148.925921 206.633609 
L 147.946405 205.094604 
L 147.176261 203.46484 
L 146.553053 201.602253 
L 146.111532 199.506843 
L 145.90132 197.400475 
L 145.891843 197.178609 
L 145.891843 197.178609 
" style="fill:none;stroke:#35b779;stroke-width:1.5;"/>
    <path clip-path="url(#p1f2ecf0232)" d="M 149.349664 128.262893 
L 149.204033 126.865953 
L 149.27616 125.469013 
L 149.574662 124.072072 
L 150.089229 122.765468 
L 150.787213 121.595675 
L 151.629382 120.579722 
L 152.660762 119.648428 
L 154.044475 118.712227 
L 155.673106 117.890899 
L 157.534399 117.185107 
L 159.861015 116.529404 
L 162.885615 115.920456 
L 166.6082 115.415665 
L 171.261432 115.030642 
L 176.612648 114.821898 
L 182.429187 114.820767 
L 188.013065 115.041299 
L 192.871733 115.457608 
L 196.621543 115.990444 
L 199.646143 116.629671 
L 202.20542 117.405652 
L 204.200936 118.251488 
L 205.802407 119.182782 
L 207.091313 120.207141 
L 208.076864 121.278192 
L 208.843584 122.442309 
L 209.417929 123.74193 
L 209.750589 125.003366 
L 209.896147 126.400306 
L 209.82343 127.797246 
L 209.526375 129.194186 
L 208.974402 130.591127 
L 208.254621 131.782925 
L 207.289376 132.91936 
L 206.160667 133.897921 
L 204.764698 134.808431 
L 203.136067 135.610255 
L 201.042113 136.381188 
L 198.715497 137.013518 
L 195.690896 137.606401 
L 191.968311 138.100829 
L 187.31508 138.476633 
L 181.963864 138.672832 
L 176.379986 138.658098 
L 171.02877 138.430051 
L 166.375539 138.016908 
L 162.652953 137.477194 
L 159.628353 136.828417 
L 157.069076 136.046245 
L 155.170278 135.247594 
L 153.531231 134.3163 
L 152.183183 133.273665 
L 151.180335 132.22089 
L 150.32189 130.960272 
L 149.726967 129.659833 
L 149.349664 128.262893 
L 149.349664 128.262893 
" style="fill:none;stroke:#35b779;stroke-width:1.5;"/>
    <path clip-path="url(#p1f2ecf0232)" d="M 229.658002 91.942448 
L 229.579876 89.847038 
L 229.71726 87.751627 
L 230.078001 85.656217 
L 230.613823 83.79363 
L 231.288117 82.161283 
L 232.218763 80.513196 
L 233.249457 79.137163 
L 234.545379 77.805043 
L 235.941348 76.687001 
L 237.593548 75.644812 
L 239.663933 74.629849 
L 241.990549 73.753534 
L 244.782488 72.956305 
L 248.03975 72.272664 
L 251.762335 71.724764 
L 256.182905 71.314548 
L 260.836136 71.107677 
L 265.722029 71.108981 
L 270.607922 71.334684 
L 275.028492 71.760119 
L 278.751077 72.325053 
L 282.008339 73.029032 
L 284.800278 73.850936 
L 287.126894 74.757018 
L 288.988186 75.690769 
L 290.727627 76.808929 
L 292.137671 77.973046 
L 293.250557 79.137163 
L 294.339402 80.60281 
L 295.213067 82.163866 
L 295.886127 83.79363 
L 296.433356 85.706636 
L 296.78272 87.751627 
L 296.92017 89.847038 
L 296.84194 91.942448 
L 296.528996 94.037858 
L 296.01102 95.900445 
L 295.313078 97.530209 
L 294.464072 98.927149 
L 293.408756 100.195573 
L 292.230592 101.255382 
L 290.849479 102.199682 
L 289.062578 103.117969 
L 287.126894 103.861835 
L 284.567616 104.58697 
L 281.449258 105.21338 
L 277.820431 105.71288 
L 273.167199 106.118271 
L 267.583322 106.367299 
L 261.534121 106.413894 
L 255.48492 106.240429 
L 250.366366 105.88529 
L 246.178457 105.390377 
L 242.630186 104.747733 
L 239.896595 104.030535 
L 237.802641 103.274876 
L 235.941348 102.368701 
L 234.545379 101.465389 
L 233.217177 100.324089 
L 232.206198 99.159972 
L 231.288117 97.722065 
L 230.57292 96.133268 
L 230.076958 94.503505 
L 229.734478 92.640918 
L 229.658002 91.942448 
L 229.658002 91.942448 
" style="fill:none;stroke:#35b779;stroke-width:1.5;"/>
    <path clip-path="url(#p1f2ecf0232)" d="M 232.912778 160.392517 
L 232.949293 158.995577 
L 233.20755 157.598637 
L 233.713762 156.201697 
L 234.365109 155.03758 
L 235.286312 153.873463 
L 236.406671 152.842337 
L 237.802641 151.886622 
L 239.431272 151.051083 
L 241.525226 150.2537 
L 244.084503 149.546482 
L 247.109104 148.953599 
L 250.831689 148.459171 
L 255.48492 148.083367 
L 260.836136 147.887168 
L 266.420014 147.901902 
L 271.77123 148.129949 
L 276.424461 148.543092 
L 280.147047 149.082806 
L 283.171647 149.731583 
L 285.730924 150.513755 
L 287.629722 151.312406 
L 289.268769 152.2437 
L 290.616817 153.286335 
L 291.619665 154.33911 
L 292.47811 155.599728 
L 293.073033 156.900167 
L 293.450336 158.297107 
L 293.595967 159.694047 
L 293.52384 161.090987 
L 293.225338 162.487928 
L 292.710771 163.794532 
L 292.012787 164.964325 
L 291.170618 165.980278 
L 290.139238 166.911572 
L 288.755525 167.847773 
L 287.126894 168.669101 
L 285.265601 169.374893 
L 282.938985 170.030596 
L 279.914385 170.639544 
L 276.1918 171.144335 
L 271.538568 171.529358 
L 266.187352 171.738102 
L 260.370813 171.739233 
L 254.786935 171.518701 
L 249.928267 171.102392 
L 246.178457 170.569556 
L 243.153857 169.930329 
L 240.59458 169.154348 
L 238.599064 168.308512 
L 236.997593 167.377218 
L 235.708687 166.352859 
L 234.723136 165.281808 
L 233.956416 164.117691 
L 233.382071 162.81807 
L 233.049411 161.556634 
L 232.912778 160.392517 
L 232.912778 160.392517 
" style="fill:none;stroke:#35b779;stroke-width:1.5;"/>
    <path clip-path="url(#p1f2ecf0232)" d="M 313.417199 198.808373 
L 313.279881 196.712962 
L 313.358061 194.617552 
L 313.67095 192.522142 
L 314.189004 190.659555 
L 314.886948 189.029791 
L 315.744267 187.621128 
L 316.691172 186.468734 
L 317.969507 185.304618 
L 319.328798 184.373324 
L 320.862821 183.566422 
L 322.937885 182.743561 
L 325.336915 182.04509 
L 328.307992 181.422586 
L 332.030577 180.886921 
L 336.451147 180.481186 
L 341.802363 180.215818 
L 347.851564 180.139905 
L 353.900764 180.282301 
L 359.251981 180.62243 
L 363.67255 181.119032 
L 367.162474 181.724658 
L 369.954413 182.423597 
L 372.281028 183.236748 
L 374.168696 184.140501 
L 375.623756 185.071794 
L 376.93426 186.187839 
L 377.864906 187.232493 
L 378.759984 188.564145 
L 379.493537 190.082367 
L 380.002111 191.590848 
L 380.399589 193.453435 
L 380.603868 195.548846 
L 380.58555 197.644256 
L 380.351373 199.739666 
L 379.88191 201.835076 
L 379.227934 203.697663 
L 378.422878 205.327427 
L 377.399583 206.866619 
L 376.236275 208.199986 
L 374.840306 209.438951 
L 373.211675 210.562074 
L 371.350382 211.562398 
L 369.256428 212.440608 
L 366.697151 213.266923 
L 363.67255 213.997572 
L 360.182627 214.604812 
L 355.994719 215.090066 
L 351.341487 215.390079 
L 346.455594 215.477852 
L 341.569701 215.344775 
L 336.91647 214.995965 
L 332.728562 214.454105 
L 329.238638 213.782917 
L 326.214038 212.974312 
L 323.65476 212.052922 
L 321.560806 211.062008 
L 319.799048 209.983894 
L 318.303544 208.807279 
L 316.94941 207.422837 
L 315.905076 206.025897 
L 314.986935 204.396134 
L 314.313836 202.76637 
L 313.778031 200.903783 
L 313.417199 198.808373 
L 313.417199 198.808373 
" style="fill:none;stroke:#35b779;stroke-width:1.5;"/>
    <path clip-path="url(#p1f2ecf0232)" d="M 316.649282 127.564423 
L 316.612862 126.167483 
L 316.795667 124.770542 
L 317.218306 123.373602 
L 317.838221 122.127432 
L 318.61148 121.045369 
L 319.699514 119.946484 
L 320.862821 119.072988 
L 322.298987 118.251488 
L 324.120083 117.469496 
L 326.446699 116.736208 
L 329.238638 116.106807 
L 332.728562 115.565556 
L 336.91647 115.149307 
L 342.035024 114.874309 
L 347.618902 114.794672 
L 353.435441 114.93595 
L 358.553996 115.281446 
L 362.741904 115.782292 
L 366.035085 116.388901 
L 368.791105 117.128184 
L 370.885059 117.91643 
L 372.51369 118.746635 
L 373.909659 119.704925 
L 375.086856 120.812545 
L 376.003614 122.032316 
L 376.584952 123.140779 
L 377.051479 124.537719 
L 377.272132 125.934659 
L 377.271783 127.331599 
L 377.051644 128.72854 
L 376.589776 130.12548 
L 375.984491 131.289597 
L 375.072967 132.510561 
L 374.142321 133.428522 
L 372.968852 134.3163 
L 371.329764 135.247594 
L 369.48909 136.025093 
L 367.162474 136.752193 
L 364.370535 137.381168 
L 360.880612 137.924939 
L 356.692703 138.343854 
L 351.574149 138.618183 
L 345.990271 138.689859 
L 340.406393 138.541202 
L 335.5205 138.199977 
L 331.332592 137.689142 
L 328.07533 137.080484 
L 325.516053 136.399601 
L 323.422099 135.63514 
L 321.688454 134.781947 
L 320.276515 133.850654 
L 319.210602 132.91936 
L 318.225353 131.755243 
L 317.52567 130.591127 
L 316.973603 129.194186 
L 316.674913 127.783891 
L 316.649282 127.564423 
L 316.649282 127.564423 
" style="fill:none;stroke:#35b779;stroke-width:1.5;"/>
   </g>
   <g id="LineCollection_6">
    <path clip-path="url(#p1f2ecf0232)" d="M 71.432993 91.709624 
L 71.28928 90.312684 
L 71.375658 88.915744 
L 71.691978 87.518804 
L 72.25487 86.121864 
L 73.078249 84.754574 
L 74.008895 83.618265 
L 75.172203 82.521246 
L 76.6088 81.465396 
L 78.429465 80.431519 
L 80.523419 79.52157 
L 82.850035 78.754931 
L 85.641974 78.081498 
L 88.666574 77.582649 
L 91.923836 77.260791 
L 95.41376 77.130261 
L 99.136345 77.220978 
L 102.626268 77.530934 
L 105.88353 78.046727 
L 108.675469 78.705618 
L 111.234746 79.543639 
L 113.3287 80.460512 
L 115.091085 81.465396 
L 116.585962 82.569851 
L 117.74927 83.681323 
L 118.763221 84.957747 
L 119.557305 86.354687 
L 120.077243 87.751627 
L 120.354568 89.148567 
L 120.402951 90.545508 
L 120.219606 91.942448 
L 119.784501 93.339388 
L 119.14524 94.592392 
L 118.370416 95.667622 
L 117.229035 96.831739 
L 115.887978 97.849982 
L 114.259347 98.787324 
L 112.334634 99.625619 
L 110.071438 100.362076 
L 107.255399 101.022559 
L 104.022238 101.532736 
L 100.299653 101.877329 
L 96.344406 102.013283 
L 92.389159 101.932414 
L 88.666574 101.646965 
L 85.17665 101.158006 
L 82.15205 100.503425 
L 79.592773 99.709745 
L 77.724568 98.927149 
L 76.03612 97.995855 
L 74.70688 97.032504 
L 73.530015 95.900445 
L 72.612926 94.685903 
L 72.015105 93.572211 
L 71.534604 92.175271 
L 71.432993 91.709624 
L 71.432993 91.709624 
" style="fill:none;stroke:#90d743;stroke-width:1.5;"/>
    <path clip-path="url(#p1f2ecf0232)" d="M 80.502393 160.625341 
L 80.413346 159.926871 
L 80.523419 159.162287 
L 80.778238 158.52993 
L 81.252309 157.83146 
L 82.15205 156.975438 
L 83.082696 156.349708 
L 84.478666 155.657798 
L 86.339958 155.000589 
L 88.666574 154.443193 
L 91.225851 154.057908 
L 94.250452 153.83549 
L 97.275052 153.829495 
L 100.299653 154.038897 
L 103.091591 154.454446 
L 105.486048 155.03758 
L 107.405819 155.73605 
L 108.908131 156.526803 
L 110.007083 157.365814 
L 110.629103 158.064284 
L 111.034424 158.762754 
L 111.246696 159.461224 
L 111.277079 160.159694 
L 111.126986 160.858164 
L 110.769423 161.584419 
L 110.071438 162.421455 
L 109.373454 163.003052 
L 108.210146 163.715925 
L 106.581515 164.426504 
L 104.487561 165.059846 
L 101.928284 165.563421 
L 99.136345 165.877847 
L 96.111744 166.000723 
L 93.087144 165.914483 
L 90.062543 165.606136 
L 87.503266 165.129034 
L 85.409312 164.530217 
L 83.780681 163.863163 
L 82.384712 163.04432 
L 81.454065 162.247523 
L 80.776867 161.323811 
L 80.502393 160.625341 
L 80.502393 160.625341 
" style="fill:none;stroke:#90d743;stroke-width:1.5;"/>
    <path clip-path="url(#p1f2ecf0232)" d="M 155.204357 198.342726 
L 155.003991 196.945786 
L 155.031761 195.548846 
L 155.295911 194.151905 
L 155.715026 192.987789 
L 156.371091 191.783302 
L 157.301737 190.58068 
L 158.465045 189.479362 
L 159.861015 188.486254 
L 161.489646 187.602079 
L 163.5836 186.745717 
L 165.910215 186.041359 
L 168.702154 185.43321 
L 171.959416 184.958037 
L 175.682001 184.64854 
L 179.637248 184.545101 
L 183.592495 184.658258 
L 187.31508 184.978189 
L 190.572342 185.465084 
L 193.364281 186.087296 
L 195.690896 186.808052 
L 197.784851 187.686224 
L 199.413482 188.59601 
L 200.809451 189.625747 
L 201.86981 190.659555 
L 202.755341 191.823672 
L 203.385042 192.987789 
L 203.865486 194.384729 
L 204.088922 195.781669 
L 204.078509 197.178609 
L 203.834051 198.596854 
L 203.361981 199.97249 
L 202.616691 201.36943 
L 201.740097 202.550611 
L 200.576789 203.737906 
L 199.139831 204.86178 
L 197.552189 205.827445 
L 195.665644 206.724367 
L 193.364281 207.561118 
L 190.805003 208.252903 
L 187.780403 208.828563 
L 184.523141 209.21782 
L 181.033218 209.412643 
L 177.310632 209.388629 
L 173.820709 209.146333 
L 170.563447 208.705677 
L 167.538846 208.070615 
L 164.979569 207.311885 
L 162.885615 206.486363 
L 161.024322 205.534247 
L 159.318641 204.396134 
L 157.988222 203.232017 
L 156.971367 202.0679 
L 156.138429 200.787725 
L 155.551052 199.506843 
L 155.204357 198.342726 
L 155.204357 198.342726 
" style="fill:none;stroke:#90d743;stroke-width:1.5;"/>
    <path clip-path="url(#p1f2ecf0232)" d="M 164.274062 127.564423 
L 164.123463 126.865953 
L 164.152779 126.167483 
L 164.36428 125.469013 
L 164.770256 124.770542 
L 165.444892 124.028923 
L 166.375539 123.317312 
L 167.771508 122.561051 
L 169.400139 121.93186 
L 171.494093 121.364543 
L 174.05337 120.913405 
L 176.845309 120.641845 
L 179.86991 120.559651 
L 182.89451 120.686624 
L 185.686449 121.005395 
L 188.245726 121.514472 
L 190.487787 122.209485 
L 192.033015 122.907955 
L 193.142624 123.606426 
L 194.062265 124.442001 
L 194.622876 125.236189 
L 194.897357 125.934659 
L 194.987002 126.633129 
L 194.89619 127.331599 
L 194.527589 128.193374 
L 194.062265 128.825538 
L 193.364281 129.49206 
L 192.200973 130.27731 
L 190.805003 130.950544 
L 188.943711 131.592885 
L 186.617095 132.139008 
L 184.057818 132.514851 
L 181.033218 132.728584 
L 178.008617 132.726585 
L 174.984017 132.508514 
L 172.192078 132.082739 
L 169.865462 131.507617 
L 167.993731 130.82395 
L 166.6082 130.10698 
L 165.444892 129.241172 
L 164.746908 128.461118 
L 164.274062 127.564423 
L 164.274062 127.564423 
" style="fill:none;stroke:#90d743;stroke-width:1.5;"/>
    <path clip-path="url(#p1f2ecf0232)" d="M 238.731623 91.011154 
L 238.703991 89.614214 
L 238.904498 88.217274 
L 239.341012 86.820334 
L 240.038737 85.423394 
L 240.853121 84.259277 
L 241.990549 83.035232 
L 243.386518 81.890779 
L 245.015149 80.860354 
L 246.876442 79.945709 
L 249.006952 79.137163 
L 251.529673 78.41714 
L 254.554274 77.805526 
L 257.811536 77.384894 
L 261.301459 77.160971 
L 265.024044 77.15543 
L 268.513968 77.368399 
L 271.77123 77.777161 
L 274.79583 78.375176 
L 277.492861 79.137163 
L 279.681723 79.970966 
L 281.543016 80.89294 
L 283.171647 81.932513 
L 284.573458 83.09516 
L 285.730924 84.366126 
L 286.59741 85.656217 
L 287.248948 87.053157 
L 287.644903 88.450097 
L 287.807284 89.847038 
L 287.741071 91.243978 
L 287.435546 92.640918 
L 286.894232 93.971026 
L 286.196247 95.116831 
L 285.265601 96.226981 
L 284.062421 97.297385 
L 282.684798 98.228679 
L 280.845031 99.17145 
L 278.751077 99.972731 
L 276.1918 100.691522 
L 273.353627 101.255382 
L 269.909937 101.700748 
L 266.187352 101.955819 
L 262.232106 102.007881 
L 258.276859 101.842328 
L 254.554274 101.464991 
L 251.297012 100.911711 
L 248.505073 100.210494 
L 246.173893 99.392796 
L 244.221378 98.461502 
L 242.688534 97.485703 
L 241.371214 96.366092 
L 240.361918 95.198214 
L 239.63948 94.037858 
L 239.064473 92.640918 
L 238.758827 91.243978 
L 238.731623 91.011154 
L 238.731623 91.011154 
" style="fill:none;stroke:#90d743;stroke-width:1.5;"/>
    <path clip-path="url(#p1f2ecf0232)" d="M 247.972944 160.858164 
L 247.822788 160.159694 
L 247.853477 159.461224 
L 248.065543 158.762754 
L 248.505073 158.019618 
L 249.203058 157.266905 
L 250.133704 156.564051 
L 251.297012 155.918846 
L 252.925643 155.258753 
L 255.019597 154.665268 
L 257.346213 154.225283 
L 260.138151 153.918277 
L 263.162752 153.80655 
L 266.187352 153.905774 
L 269.211953 154.234021 
L 271.77123 154.734753 
L 273.865184 155.362247 
L 275.493815 156.063367 
L 276.657123 156.760076 
L 277.64074 157.598637 
L 278.285754 158.467147 
L 278.596222 159.228401 
L 278.68673 159.926871 
L 278.597385 160.625341 
L 278.285754 161.388793 
L 277.820431 162.052628 
L 277.122446 162.733891 
L 275.959138 163.525309 
L 274.563169 164.200595 
L 272.701876 164.842391 
L 270.375261 165.385651 
L 267.583322 165.784942 
L 264.558721 165.982534 
L 261.301459 165.958686 
L 258.276859 165.713812 
L 255.48492 165.259161 
L 253.158304 164.646825 
L 251.529673 164.025334 
L 250.133704 163.279726 
L 249.096836 162.487928 
L 248.470316 161.789458 
L 248.03975 161.029576 
L 247.972944 160.858164 
L 247.972944 160.858164 
" style="fill:none;stroke:#90d743;stroke-width:1.5;"/>
    <path clip-path="url(#p1f2ecf0232)" d="M 322.475539 197.644256 
L 322.389305 196.247316 
L 322.533056 194.850376 
L 322.923977 193.453435 
L 323.465085 192.289318 
L 324.241367 191.125202 
L 325.313195 189.961085 
L 326.679361 188.867398 
L 328.07533 188.014773 
L 329.936623 187.141792 
L 332.263238 186.332161 
L 334.822516 185.685113 
L 337.847116 185.151704 
L 341.33704 184.76607 
L 345.292286 184.563818 
L 349.247533 184.581155 
L 353.20278 184.820784 
L 356.692703 185.247165 
L 359.717304 185.827453 
L 362.276581 186.530152 
L 364.571017 187.400028 
L 366.384637 188.331321 
L 367.860459 189.339746 
L 369.056308 190.426732 
L 370.000635 191.590848 
L 370.677096 192.754965 
L 371.204091 194.151905 
L 371.468189 195.548846 
L 371.495912 196.945786 
L 371.295513 198.342726 
L 370.859099 199.739666 
L 370.161382 201.136606 
L 369.256428 202.411075 
L 368.273309 203.46484 
L 366.869432 204.628957 
L 365.301181 205.634271 
L 363.439889 206.56362 
L 361.192889 207.422837 
L 358.758374 208.121307 
L 355.762057 208.735184 
L 352.504795 209.16379 
L 349.014871 209.395044 
L 345.292286 209.407973 
L 341.802363 209.202279 
L 338.545101 208.801374 
L 335.5205 208.212333 
L 332.961223 207.505645 
L 330.634607 206.639394 
L 328.773315 205.732029 
L 327.030631 204.628957 
L 325.626764 203.46484 
L 324.553139 202.300723 
L 323.602568 200.903783 
L 322.950872 199.506843 
L 322.555116 198.109903 
L 322.475539 197.644256 
L 322.475539 197.644256 
" style="fill:none;stroke:#90d743;stroke-width:1.5;"/>
    <path clip-path="url(#p1f2ecf0232)" d="M 331.553304 127.098776 
L 331.522921 126.400306 
L 331.673014 125.701836 
L 332.030577 124.975581 
L 332.728562 124.138545 
L 333.426546 123.556948 
L 334.589854 122.844075 
L 336.218485 122.133496 
L 338.312439 121.500154 
L 340.871716 120.996579 
L 343.663655 120.682153 
L 346.688256 120.559277 
L 349.712856 120.645517 
L 352.737457 120.953864 
L 355.296734 121.430966 
L 357.390688 122.029783 
L 359.019319 122.696837 
L 360.415288 123.51568 
L 361.345935 124.312477 
L 362.023133 125.236189 
L 362.297607 125.934659 
L 362.386654 126.633129 
L 362.276581 127.397713 
L 362.021762 128.03007 
L 361.547691 128.72854 
L 360.64795 129.584562 
L 359.717304 130.210292 
L 358.321334 130.902202 
L 356.460042 131.559411 
L 354.133426 132.116807 
L 351.574149 132.502092 
L 348.549548 132.72451 
L 345.524948 132.730505 
L 342.500347 132.521103 
L 339.708409 132.105554 
L 337.313952 131.52242 
L 335.394181 130.82395 
L 333.891869 130.033197 
L 332.792917 129.194186 
L 332.170897 128.495716 
L 331.765576 127.797246 
L 331.553304 127.098776 
L 331.553304 127.098776 
" style="fill:none;stroke:#90d743;stroke-width:1.5;"/>
   </g>
   <g id="LineCollection_7">
    <path clip-path="url(#p1f2ecf0232)" d="M 84.237213 90.312684 
L 84.329478 89.381391 
L 84.714712 88.450097 
L 85.428563 87.518804 
L 86.339958 86.737899 
L 87.503266 86.026974 
L 88.899236 85.411389 
L 90.760528 84.849998 
L 92.854482 84.465526 
L 95.181098 84.28304 
L 97.507714 84.332102 
L 99.834329 84.618944 
L 101.695622 85.049409 
L 103.413362 85.656217 
L 104.782734 86.354687 
L 105.88353 87.15293 
L 106.672559 87.984451 
L 107.215773 88.915744 
L 107.452407 89.847038 
L 107.4002 90.778331 
L 107.166585 91.476801 
L 106.749927 92.175271 
L 106.116192 92.878026 
L 105.185546 93.597869 
L 103.789576 94.347337 
L 102.083387 94.969152 
L 100.066991 95.440103 
L 97.740375 95.729108 
L 95.41376 95.795077 
L 93.087144 95.648852 
L 90.760528 95.264172 
L 88.892813 94.736328 
L 87.26586 94.037858 
L 86.107297 93.313066 
L 85.17665 92.456291 
L 84.650747 91.709624 
L 84.299641 90.778331 
L 84.237213 90.312684 
L 84.237213 90.312684 
" style="fill:none;stroke:#fde725;stroke-width:1.5;"/>
    <path clip-path="url(#p1f2ecf0232)" d="M 167.979275 196.945786 
L 167.959421 196.014492 
L 168.136185 195.316022 
L 168.489052 194.617552 
L 169.167477 193.795424 
L 170.098124 193.040172 
L 171.261432 192.374645 
L 172.657401 191.801685 
L 174.518694 191.282999 
L 176.612648 190.931495 
L 178.939263 190.768479 
L 181.265879 190.818602 
L 183.592495 191.090102 
L 185.686449 191.56283 
L 187.31508 192.136915 
L 188.711049 192.85232 
L 189.641696 193.528027 
L 190.449812 194.384729 
L 190.963879 195.316022 
L 191.162324 196.247316 
L 191.070761 197.178609 
L 190.805003 197.887464 
L 190.183637 198.808373 
L 189.409034 199.554878 
L 188.245726 200.343353 
L 186.849757 201.012421 
L 185.068003 201.602253 
L 183.127172 202.010068 
L 181.033218 202.239598 
L 178.706602 202.271339 
L 176.355857 202.0679 
L 174.286032 201.66736 
L 172.424739 201.081724 
L 171.022054 200.438136 
L 169.865462 199.692792 
L 168.91601 198.808373 
L 168.289847 197.877079 
L 167.979275 196.945786 
L 167.979275 196.945786 
" style="fill:none;stroke:#fde725;stroke-width:1.5;"/>
    <path clip-path="url(#p1f2ecf0232)" d="M 251.757999 91.011154 
L 251.633738 90.079861 
L 251.797387 89.148567 
L 252.260473 88.217274 
L 252.925643 87.422734 
L 253.856289 86.655233 
L 255.019597 85.967344 
L 256.415566 85.369354 
L 258.276859 84.822418 
L 260.370813 84.450831 
L 262.697429 84.280015 
L 265.024044 84.34063 
L 267.35066 84.640077 
L 269.211953 85.08344 
L 270.840584 85.667831 
L 272.236553 86.388068 
L 273.399861 87.255667 
L 274.097846 88.018694 
L 274.615827 88.915744 
L 274.852422 89.847038 
L 274.800703 90.778331 
L 274.563169 91.484737 
L 274.097846 92.242225 
L 273.399861 92.981026 
L 272.469215 93.671355 
L 271.305907 94.295759 
L 269.677276 94.909767 
L 267.815983 95.374032 
L 265.722029 95.679459 
L 263.395413 95.798368 
L 261.068798 95.705957 
L 258.742182 95.385466 
L 256.648228 94.854343 
L 255.019597 94.213663 
L 253.856289 93.559899 
L 252.925643 92.821696 
L 252.189192 91.942448 
L 251.757999 91.011154 
L 251.757999 91.011154 
" style="fill:none;stroke:#fde725;stroke-width:1.5;"/>
    <path clip-path="url(#p1f2ecf0232)" d="M 335.497301 197.411433 
L 335.333544 196.480139 
L 335.458391 195.548846 
L 335.753162 194.845545 
L 336.233929 194.151905 
L 337.149131 193.292006 
L 338.079778 192.67975 
L 339.475747 192.017071 
L 341.33704 191.42114 
L 343.198332 191.043343 
L 345.524948 190.800778 
L 347.851564 190.777042 
L 350.178179 190.968235 
L 352.311289 191.358025 
L 354.133426 191.906352 
L 355.53414 192.522142 
L 356.692703 193.246934 
L 357.62335 194.103709 
L 358.149253 194.850376 
L 358.500359 195.781669 
L 358.552813 196.712962 
L 358.31617 197.644256 
L 357.772578 198.575549 
L 356.925365 199.457884 
L 355.994719 200.135195 
L 354.831411 200.761158 
L 353.20278 201.388287 
L 351.341487 201.864317 
L 349.247533 202.173776 
L 346.920917 202.286468 
L 344.594302 202.167978 
L 342.414745 201.835076 
L 340.406393 201.292295 
L 338.777762 200.622106 
L 337.614454 199.945635 
L 336.528924 199.041196 
L 335.815126 198.109903 
L 335.497301 197.411433 
L 335.497301 197.411433 
" style="fill:none;stroke:#fde725;stroke-width:1.5;"/>
   </g>
   <g id="line2d_1">
    <path clip-path="url(#p1f2ecf0232)" d="M 54 195.36 
L 388.8 195.36 
" style="fill:none;stroke:#ff0000;stroke-linecap:square;stroke-width:1.5;"/>
   </g>
   <g id="line2d_2">
    <path clip-path="url(#p1f2ecf0232)" d="M 54 91.2 
L 388.8 91.2 
" style="fill:none;stroke:#ff0000;stroke-linecap:square;stroke-width:1.5;"/>
   </g>
   <g id="patch_3">
    <path d="M 54 252 
L 54 34.56 
" style="fill:none;stroke:#000000;stroke-linecap:square;stroke-linejoin:miter;stroke-width:0.8;"/>
   </g>
   <g id="patch_4">
    <path d="M 388.8 252 
L 388.8 34.56 
" style="fill:none;stroke:#000000;stroke-linecap:square;stroke-linejoin:miter;stroke-width:0.8;"/>
   </g>
   <g id="patch_5">
    <path d="M 54 252 
L 388.8 252 
" style="fill:none;stroke:#000000;stroke-linecap:square;stroke-linejoin:miter;stroke-width:0.8;"/>
   </g>
   <g id="patch_6">
    <path d="M 54 34.56 
L 388.8 34.56 
" style="fill:none;stroke:#000000;stroke-linecap:square;stroke-linejoin:miter;stroke-width:0.8;"/>
   </g>
  </g>
 </g>
 <defs>
  <clipPath id="p1f2ecf0232">
   <rect height="217.44" width="334.8" x="54" y="34.56"/>
  </clipPath>
 </defs>
</svg>
